
<MIDIFile>
<Format>1</Format>
<TrackCount>13</TrackCount>
<TicksPerBeat>256</TicksPerBeat>
<TimestampType>Absolute</TimestampType>
<Track Number="0">
  <Event>
    <Absolute>0</Absolute>
    <TimeSignature Numerator="3" LogDenominator="2" MIDIClocksPerMetronomeClick="24" ThirtySecondsPer24Clocks="8"/>
  </Event>
  <Event>
    <Absolute>0</Absolute>
    <KeySignature Fifths="0" Mode="0"/>
  </Event>
  <Event>
    <Absolute>0</Absolute>
    <SetTempo Value="600000"/>
  </Event>
  <Event>
    <Absolute>0</Absolute>
    <TrackName>Carol Of The Bells</TrackName>
  </Event>
  <Event>
    <Absolute>0</Absolute>
    <TextEvent>Ukranian Christmas Carol</TextEvent>
  </Event>
  <Event>
    <Absolute>1</Absolute>
    <SetTempo Value="333332"/>
  </Event>
  <Event>
    <Absolute>52224</Absolute>
    <TimeSignature Numerator="9" LogDenominator="3" MIDIClocksPerMetronomeClick="36" ThirtySecondsPer24Clocks="8"/>
  </Event>
  <Event>
    <Absolute>52225</Absolute>
    <EndOfTrack/>
  </Event>
</Track>
<Track Number="1">
  <Event>
    <Absolute>0</Absolute>
    <ControlChange Channel="1" Control="121" Value="0"/>
  </Event>
  <Event>
    <Absolute>0</Absolute>
    <ControlChange Channel="1" Control="64" Value="0"/>
  </Event>
  <Event>
    <Absolute>0</Absolute>
    <ControlChange Channel="1" Control="91" Value="52"/>
  </Event>
  <Event>
    <Absolute>0</Absolute>
    <ControlChange Channel="1" Control="10" Value="70"/>
  </Event>
  <Event>
    <Absolute>0</Absolute>
    <ControlChange Channel="1" Control="7" Value="95"/>
  </Event>
  <Event>
    <Absolute>0</Absolute>
    <TrackName>Flute</TrackName>
  </Event>
  <Event>
    <Absolute>0</Absolute>
    <NoteOn Channel="1" Note="72" Velocity="59"/>
  </Event>
  <Event>
    <Absolute>256</Absolute>
    <NoteOff Channel="1" Note="72" Velocity="0"/>
  </Event>
  <Event>
    <Absolute>256</Absolute>
    <NoteOn Channel="1" Note="71" Velocity="59"/>
  </Event>
  <Event>
    <Absolute>384</Absolute>
    <NoteOff Channel="1" Note="71" Velocity="0"/>
  </Event>
  <Event>
    <Absolute>384</Absolute>
    <NoteOn Channel="1" Note="72" Velocity="72"/>
  </Event>
  <Event>
    <Absolute>512</Absolute>
    <NoteOff Channel="1" Note="72" Velocity="0"/>
  </Event>
  <Event>
    <Absolute>512</Absolute>
    <NoteOn Channel="1" Note="69" Velocity="63"/>
  </Event>
  <Event>
    <Absolute>768</Absolute>
    <NoteOff Channel="1" Note="69" Velocity="0"/>
  </Event>
  <Event>
    <Absolute>768</Absolute>
    <NoteOn Channel="1" Note="72" Velocity="66"/>
  </Event>
  <Event>
    <Absolute>1024</Absolute>
    <NoteOff Channel="1" Note="72" Velocity="0"/>
  </Event>
  <Event>
    <Absolute>1024</Absolute>
    <NoteOn Channel="1" Note="71" Velocity="59"/>
  </Event>
  <Event>
    <Absolute>1152</Absolute>
    <NoteOff Channel="1" Note="71" Velocity="0"/>
  </Event>
  <Event>
    <Absolute>1152</Absolute>
    <NoteOn Channel="1" Note="72" Velocity="67"/>
  </Event>
  <Event>
    <Absolute>1280</Absolute>
    <NoteOff Channel="1" Note="72" Velocity="0"/>
  </Event>
  <Event>
    <Absolute>1280</Absolute>
    <NoteOn Channel="1" Note="69" Velocity="57"/>
  </Event>
  <Event>
    <Absolute>1536</Absolute>
    <NoteOff Channel="1" Note="69" Velocity="0"/>
  </Event>
  <Event>
    <Absolute>1536</Absolute>
    <NoteOn Channel="1" Note="72" Velocity="70"/>
  </Event>
  <Event>
    <Absolute>1792</Absolute>
    <NoteOff Channel="1" Note="72" Velocity="0"/>
  </Event>
  <Event>
    <Absolute>1792</Absolute>
    <NoteOn Channel="1" Note="71" Velocity="63"/>
  </Event>
  <Event>
    <Absolute>1920</Absolute>
    <NoteOff Channel="1" Note="71" Velocity="0"/>
  </Event>
  <Event>
    <Absolute>1920</Absolute>
    <NoteOn Channel="1" Note="72" Velocity="65"/>
  </Event>
  <Event>
    <Absolute>2048</Absolute>
    <NoteOff Channel="1" Note="72" Velocity="0"/>
  </Event>
  <Event>
    <Absolute>2048</Absolute>
    <NoteOn Channel="1" Note="69" Velocity="63"/>
  </Event>
  <Event>
    <Absolute>2304</Absolute>
    <NoteOff Channel="1" Note="69" Velocity="0"/>
  </Event>
  <Event>
    <Absolute>2304</Absolute>
    <NoteOn Channel="1" Note="72" Velocity="68"/>
  </Event>
  <Event>
    <Absolute>2560</Absolute>
    <NoteOff Channel="1" Note="72" Velocity="0"/>
  </Event>
  <Event>
    <Absolute>2560</Absolute>
    <NoteOn Channel="1" Note="71" Velocity="65"/>
  </Event>
  <Event>
    <Absolute>2688</Absolute>
    <NoteOff Channel="1" Note="71" Velocity="0"/>
  </Event>
  <Event>
    <Absolute>2688</Absolute>
    <NoteOn Channel="1" Note="72" Velocity="69"/>
  </Event>
  <Event>
    <Absolute>2816</Absolute>
    <NoteOff Channel="1" Note="72" Velocity="0"/>
  </Event>
  <Event>
    <Absolute>2816</Absolute>
    <NoteOn Channel="1" Note="69" Velocity="57"/>
  </Event>
  <Event>
    <Absolute>3072</Absolute>
    <NoteOff Channel="1" Note="69" Velocity="0"/>
  </Event>
  <Event>
    <Absolute>3072</Absolute>
    <NoteOn Channel="1" Note="72" Velocity="68"/>
  </Event>
  <Event>
    <Absolute>3328</Absolute>
    <NoteOff Channel="1" Note="72" Velocity="0"/>
  </Event>
  <Event>
    <Absolute>3328</Absolute>
    <NoteOn Channel="1" Note="71" Velocity="59"/>
  </Event>
  <Event>
    <Absolute>3456</Absolute>
    <NoteOff Channel="1" Note="71" Velocity="0"/>
  </Event>
  <Event>
    <Absolute>3456</Absolute>
    <NoteOn Channel="1" Note="72" Velocity="63"/>
  </Event>
  <Event>
    <Absolute>3584</Absolute>
    <NoteOff Channel="1" Note="72" Velocity="0"/>
  </Event>
  <Event>
    <Absolute>3584</Absolute>
    <NoteOn Channel="1" Note="69" Velocity="59"/>
  </Event>
  <Event>
    <Absolute>3840</Absolute>
    <NoteOff Channel="1" Note="69" Velocity="0"/>
  </Event>
  <Event>
    <Absolute>3840</Absolute>
    <NoteOn Channel="1" Note="72" Velocity="71"/>
  </Event>
  <Event>
    <Absolute>4096</Absolute>
    <NoteOff Channel="1" Note="72" Velocity="0"/>
  </Event>
  <Event>
    <Absolute>4096</Absolute>
    <NoteOn Channel="1" Note="71" Velocity="60"/>
  </Event>
  <Event>
    <Absolute>4224</Absolute>
    <NoteOff Channel="1" Note="71" Velocity="0"/>
  </Event>
  <Event>
    <Absolute>4224</Absolute>
    <NoteOn Channel="1" Note="72" Velocity="69"/>
  </Event>
  <Event>
    <Absolute>4352</Absolute>
    <NoteOff Channel="1" Note="72" Velocity="0"/>
  </Event>
  <Event>
    <Absolute>4352</Absolute>
    <NoteOn Channel="1" Note="69" Velocity="60"/>
  </Event>
  <Event>
    <Absolute>4608</Absolute>
    <NoteOff Channel="1" Note="69" Velocity="0"/>
  </Event>
  <Event>
    <Absolute>4608</Absolute>
    <NoteOn Channel="1" Note="72" Velocity="69"/>
  </Event>
  <Event>
    <Absolute>4864</Absolute>
    <NoteOff Channel="1" Note="72" Velocity="0"/>
  </Event>
  <Event>
    <Absolute>4864</Absolute>
    <NoteOn Channel="1" Note="71" Velocity="56"/>
  </Event>
  <Event>
    <Absolute>4992</Absolute>
    <NoteOff Channel="1" Note="71" Velocity="0"/>
  </Event>
  <Event>
    <Absolute>4992</Absolute>
    <NoteOn Channel="1" Note="72" Velocity="64"/>
  </Event>
  <Event>
    <Absolute>5120</Absolute>
    <NoteOff Channel="1" Note="72" Velocity="0"/>
  </Event>
  <Event>
    <Absolute>5120</Absolute>
    <NoteOn Channel="1" Note="69" Velocity="60"/>
  </Event>
  <Event>
    <Absolute>5376</Absolute>
    <NoteOff Channel="1" Note="69" Velocity="0"/>
  </Event>
  <Event>
    <Absolute>5376</Absolute>
    <NoteOn Channel="1" Note="72" Velocity="71"/>
  </Event>
  <Event>
    <Absolute>5632</Absolute>
    <NoteOff Channel="1" Note="72" Velocity="0"/>
  </Event>
  <Event>
    <Absolute>5632</Absolute>
    <NoteOn Channel="1" Note="71" Velocity="65"/>
  </Event>
  <Event>
    <Absolute>5760</Absolute>
    <NoteOff Channel="1" Note="71" Velocity="0"/>
  </Event>
  <Event>
    <Absolute>5760</Absolute>
    <NoteOn Channel="1" Note="72" Velocity="66"/>
  </Event>
  <Event>
    <Absolute>5888</Absolute>
    <NoteOff Channel="1" Note="72" Velocity="0"/>
  </Event>
  <Event>
    <Absolute>5888</Absolute>
    <NoteOn Channel="1" Note="69" Velocity="56"/>
  </Event>
  <Event>
    <Absolute>6144</Absolute>
    <NoteOff Channel="1" Note="69" Velocity="0"/>
  </Event>
  <Event>
    <Absolute>6144</Absolute>
    <NoteOn Channel="1" Note="72" Velocity="67"/>
  </Event>
  <Event>
    <Absolute>6400</Absolute>
    <NoteOff Channel="1" Note="72" Velocity="0"/>
  </Event>
  <Event>
    <Absolute>6400</Absolute>
    <NoteOn Channel="1" Note="71" Velocity="61"/>
  </Event>
  <Event>
    <Absolute>6528</Absolute>
    <NoteOff Channel="1" Note="71" Velocity="0"/>
  </Event>
  <Event>
    <Absolute>6528</Absolute>
    <NoteOn Channel="1" Note="72" Velocity="71"/>
  </Event>
  <Event>
    <Absolute>6656</Absolute>
    <NoteOff Channel="1" Note="72" Velocity="0"/>
  </Event>
  <Event>
    <Absolute>6656</Absolute>
    <NoteOn Channel="1" Note="69" Velocity="60"/>
  </Event>
  <Event>
    <Absolute>6912</Absolute>
    <NoteOff Channel="1" Note="69" Velocity="0"/>
  </Event>
  <Event>
    <Absolute>6912</Absolute>
    <NoteOn Channel="1" Note="72" Velocity="66"/>
  </Event>
  <Event>
    <Absolute>7168</Absolute>
    <NoteOff Channel="1" Note="72" Velocity="0"/>
  </Event>
  <Event>
    <Absolute>7168</Absolute>
    <NoteOn Channel="1" Note="71" Velocity="62"/>
  </Event>
  <Event>
    <Absolute>7296</Absolute>
    <NoteOff Channel="1" Note="71" Velocity="0"/>
  </Event>
  <Event>
    <Absolute>7296</Absolute>
    <NoteOn Channel="1" Note="72" Velocity="69"/>
  </Event>
  <Event>
    <Absolute>7424</Absolute>
    <NoteOff Channel="1" Note="72" Velocity="0"/>
  </Event>
  <Event>
    <Absolute>7424</Absolute>
    <NoteOn Channel="1" Note="69" Velocity="55"/>
  </Event>
  <Event>
    <Absolute>7680</Absolute>
    <NoteOff Channel="1" Note="69" Velocity="0"/>
  </Event>
  <Event>
    <Absolute>7680</Absolute>
    <NoteOn Channel="1" Note="72" Velocity="71"/>
  </Event>
  <Event>
    <Absolute>7936</Absolute>
    <NoteOff Channel="1" Note="72" Velocity="0"/>
  </Event>
  <Event>
    <Absolute>7936</Absolute>
    <NoteOn Channel="1" Note="71" Velocity="62"/>
  </Event>
  <Event>
    <Absolute>8064</Absolute>
    <NoteOff Channel="1" Note="71" Velocity="0"/>
  </Event>
  <Event>
    <Absolute>8064</Absolute>
    <NoteOn Channel="1" Note="72" Velocity="63"/>
  </Event>
  <Event>
    <Absolute>8192</Absolute>
    <NoteOff Channel="1" Note="72" Velocity="0"/>
  </Event>
  <Event>
    <Absolute>8192</Absolute>
    <NoteOn Channel="1" Note="69" Velocity="58"/>
  </Event>
  <Event>
    <Absolute>8448</Absolute>
    <NoteOff Channel="1" Note="69" Velocity="0"/>
  </Event>
  <Event>
    <Absolute>8448</Absolute>
    <NoteOn Channel="1" Note="72" Velocity="67"/>
  </Event>
  <Event>
    <Absolute>8704</Absolute>
    <NoteOff Channel="1" Note="72" Velocity="0"/>
  </Event>
  <Event>
    <Absolute>8704</Absolute>
    <NoteOn Channel="1" Note="71" Velocity="64"/>
  </Event>
  <Event>
    <Absolute>8832</Absolute>
    <NoteOff Channel="1" Note="71" Velocity="0"/>
  </Event>
  <Event>
    <Absolute>8832</Absolute>
    <NoteOn Channel="1" Note="72" Velocity="65"/>
  </Event>
  <Event>
    <Absolute>8960</Absolute>
    <NoteOff Channel="1" Note="72" Velocity="0"/>
  </Event>
  <Event>
    <Absolute>8960</Absolute>
    <NoteOn Channel="1" Note="69" Velocity="59"/>
  </Event>
  <Event>
    <Absolute>9216</Absolute>
    <NoteOff Channel="1" Note="69" Velocity="0"/>
  </Event>
  <Event>
    <Absolute>12288</Absolute>
    <NoteOn Channel="1" Note="76" Velocity="114"/>
  </Event>
  <Event>
    <Absolute>12544</Absolute>
    <NoteOff Channel="1" Note="76" Velocity="0"/>
  </Event>
  <Event>
    <Absolute>12544</Absolute>
    <NoteOn Channel="1" Note="74" Velocity="96"/>
  </Event>
  <Event>
    <Absolute>12672</Absolute>
    <NoteOff Channel="1" Note="74" Velocity="0"/>
  </Event>
  <Event>
    <Absolute>12672</Absolute>
    <NoteOn Channel="1" Note="76" Velocity="98"/>
  </Event>
  <Event>
    <Absolute>12800</Absolute>
    <NoteOff Channel="1" Note="76" Velocity="0"/>
  </Event>
  <Event>
    <Absolute>12800</Absolute>
    <NoteOn Channel="1" Note="72" Velocity="89"/>
  </Event>
  <Event>
    <Absolute>13056</Absolute>
    <NoteOff Channel="1" Note="72" Velocity="0"/>
  </Event>
  <Event>
    <Absolute>13056</Absolute>
    <NoteOn Channel="1" Note="76" Velocity="113"/>
  </Event>
  <Event>
    <Absolute>13312</Absolute>
    <NoteOff Channel="1" Note="76" Velocity="0"/>
  </Event>
  <Event>
    <Absolute>13312</Absolute>
    <NoteOn Channel="1" Note="74" Velocity="99"/>
  </Event>
  <Event>
    <Absolute>13440</Absolute>
    <NoteOff Channel="1" Note="74" Velocity="0"/>
  </Event>
  <Event>
    <Absolute>13440</Absolute>
    <NoteOn Channel="1" Note="76" Velocity="109"/>
  </Event>
  <Event>
    <Absolute>13568</Absolute>
    <NoteOff Channel="1" Note="76" Velocity="0"/>
  </Event>
  <Event>
    <Absolute>13568</Absolute>
    <NoteOn Channel="1" Note="72" Velocity="99"/>
  </Event>
  <Event>
    <Absolute>13824</Absolute>
    <NoteOff Channel="1" Note="72" Velocity="0"/>
  </Event>
  <Event>
    <Absolute>13824</Absolute>
    <NoteOn Channel="1" Note="76" Velocity="123"/>
  </Event>
  <Event>
    <Absolute>14080</Absolute>
    <NoteOff Channel="1" Note="76" Velocity="0"/>
  </Event>
  <Event>
    <Absolute>14080</Absolute>
    <NoteOn Channel="1" Note="74" Velocity="102"/>
  </Event>
  <Event>
    <Absolute>14208</Absolute>
    <NoteOff Channel="1" Note="74" Velocity="0"/>
  </Event>
  <Event>
    <Absolute>14208</Absolute>
    <NoteOn Channel="1" Note="76" Velocity="123"/>
  </Event>
  <Event>
    <Absolute>14336</Absolute>
    <NoteOff Channel="1" Note="76" Velocity="0"/>
  </Event>
  <Event>
    <Absolute>14336</Absolute>
    <NoteOn Channel="1" Note="72" Velocity="100"/>
  </Event>
  <Event>
    <Absolute>14592</Absolute>
    <NoteOff Channel="1" Note="72" Velocity="0"/>
  </Event>
  <Event>
    <Absolute>14592</Absolute>
    <NoteOn Channel="1" Note="76" Velocity="123"/>
  </Event>
  <Event>
    <Absolute>14848</Absolute>
    <NoteOff Channel="1" Note="76" Velocity="0"/>
  </Event>
  <Event>
    <Absolute>14848</Absolute>
    <NoteOn Channel="1" Note="74" Velocity="108"/>
  </Event>
  <Event>
    <Absolute>14976</Absolute>
    <NoteOff Channel="1" Note="74" Velocity="0"/>
  </Event>
  <Event>
    <Absolute>14976</Absolute>
    <NoteOn Channel="1" Note="76" Velocity="116"/>
  </Event>
  <Event>
    <Absolute>15104</Absolute>
    <NoteOff Channel="1" Note="76" Velocity="0"/>
  </Event>
  <Event>
    <Absolute>15104</Absolute>
    <NoteOn Channel="1" Note="72" Velocity="101"/>
  </Event>
  <Event>
    <Absolute>15360</Absolute>
    <NoteOff Channel="1" Note="72" Velocity="0"/>
  </Event>
  <Event>
    <Absolute>15360</Absolute>
    <NoteOn Channel="1" Note="81" Velocity="127"/>
  </Event>
  <Event>
    <Absolute>15616</Absolute>
    <NoteOff Channel="1" Note="81" Velocity="0"/>
  </Event>
  <Event>
    <Absolute>15616</Absolute>
    <NoteOn Channel="1" Note="81" Velocity="113"/>
  </Event>
  <Event>
    <Absolute>15744</Absolute>
    <NoteOff Channel="1" Note="81" Velocity="0"/>
  </Event>
  <Event>
    <Absolute>15744</Absolute>
    <NoteOn Channel="1" Note="81" Velocity="105"/>
  </Event>
  <Event>
    <Absolute>15872</Absolute>
    <NoteOff Channel="1" Note="81" Velocity="0"/>
  </Event>
  <Event>
    <Absolute>15872</Absolute>
    <NoteOn Channel="1" Note="79" Velocity="108"/>
  </Event>
  <Event>
    <Absolute>16000</Absolute>
    <NoteOn Channel="1" Note="77" Velocity="100"/>
  </Event>
  <Event>
    <Absolute>16002</Absolute>
    <NoteOff Channel="1" Note="79" Velocity="0"/>
  </Event>
  <Event>
    <Absolute>16121</Absolute>
    <NoteOff Channel="1" Note="77" Velocity="0"/>
  </Event>
  <Event>
    <Absolute>16128</Absolute>
    <NoteOn Channel="1" Note="76" Velocity="105"/>
  </Event>
  <Event>
    <Absolute>16384</Absolute>
    <NoteOff Channel="1" Note="76" Velocity="0"/>
  </Event>
  <Event>
    <Absolute>16384</Absolute>
    <NoteOn Channel="1" Note="76" Velocity="111"/>
  </Event>
  <Event>
    <Absolute>16512</Absolute>
    <NoteOff Channel="1" Note="76" Velocity="0"/>
  </Event>
  <Event>
    <Absolute>16512</Absolute>
    <NoteOn Channel="1" Note="76" Velocity="112"/>
  </Event>
  <Event>
    <Absolute>16640</Absolute>
    <NoteOff Channel="1" Note="76" Velocity="0"/>
  </Event>
  <Event>
    <Absolute>16640</Absolute>
    <NoteOn Channel="1" Note="74" Velocity="106"/>
  </Event>
  <Event>
    <Absolute>16768</Absolute>
    <NoteOn Channel="1" Note="72" Velocity="98"/>
  </Event>
  <Event>
    <Absolute>16770</Absolute>
    <NoteOff Channel="1" Note="74" Velocity="0"/>
  </Event>
  <Event>
    <Absolute>16889</Absolute>
    <NoteOff Channel="1" Note="72" Velocity="0"/>
  </Event>
  <Event>
    <Absolute>16896</Absolute>
    <NoteOn Channel="1" Note="74" Velocity="118"/>
  </Event>
  <Event>
    <Absolute>17152</Absolute>
    <NoteOff Channel="1" Note="74" Velocity="0"/>
  </Event>
  <Event>
    <Absolute>17152</Absolute>
    <NoteOn Channel="1" Note="74" Velocity="111"/>
  </Event>
  <Event>
    <Absolute>17280</Absolute>
    <NoteOff Channel="1" Note="74" Velocity="0"/>
  </Event>
  <Event>
    <Absolute>17280</Absolute>
    <NoteOn Channel="1" Note="74" Velocity="115"/>
  </Event>
  <Event>
    <Absolute>17408</Absolute>
    <NoteOff Channel="1" Note="74" Velocity="0"/>
  </Event>
  <Event>
    <Absolute>17408</Absolute>
    <NoteOn Channel="1" Note="76" Velocity="117"/>
  </Event>
  <Event>
    <Absolute>17536</Absolute>
    <NoteOn Channel="1" Note="74" Velocity="109"/>
  </Event>
  <Event>
    <Absolute>17538</Absolute>
    <NoteOff Channel="1" Note="76" Velocity="0"/>
  </Event>
  <Event>
    <Absolute>17657</Absolute>
    <NoteOff Channel="1" Note="74" Velocity="0"/>
  </Event>
  <Event>
    <Absolute>17664</Absolute>
    <NoteOn Channel="1" Note="72" Velocity="105"/>
  </Event>
  <Event>
    <Absolute>17920</Absolute>
    <NoteOff Channel="1" Note="72" Velocity="0"/>
  </Event>
  <Event>
    <Absolute>17920</Absolute>
    <NoteOn Channel="1" Note="71" Velocity="109"/>
  </Event>
  <Event>
    <Absolute>18048</Absolute>
    <NoteOff Channel="1" Note="71" Velocity="0"/>
  </Event>
  <Event>
    <Absolute>18048</Absolute>
    <NoteOn Channel="1" Note="72" Velocity="114"/>
  </Event>
  <Event>
    <Absolute>18176</Absolute>
    <NoteOff Channel="1" Note="72" Velocity="0"/>
  </Event>
  <Event>
    <Absolute>18176</Absolute>
    <NoteOn Channel="1" Note="69" Velocity="104"/>
  </Event>
  <Event>
    <Absolute>18432</Absolute>
    <NoteOff Channel="1" Note="69" Velocity="0"/>
  </Event>
  <Event>
    <Absolute>18432</Absolute>
    <NoteOn Channel="1" Note="64" Velocity="72"/>
  </Event>
  <Event>
    <Absolute>18560</Absolute>
    <NoteOn Channel="1" Note="66" Velocity="75"/>
  </Event>
  <Event>
    <Absolute>18562</Absolute>
    <NoteOff Channel="1" Note="64" Velocity="0"/>
  </Event>
  <Event>
    <Absolute>18688</Absolute>
    <NoteOn Channel="1" Note="68" Velocity="85"/>
  </Event>
  <Event>
    <Absolute>18690</Absolute>
    <NoteOff Channel="1" Note="66" Velocity="0"/>
  </Event>
  <Event>
    <Absolute>18816</Absolute>
    <NoteOn Channel="1" Note="69" Velocity="87"/>
  </Event>
  <Event>
    <Absolute>18818</Absolute>
    <NoteOff Channel="1" Note="68" Velocity="0"/>
  </Event>
  <Event>
    <Absolute>18944</Absolute>
    <NoteOn Channel="1" Note="71" Velocity="92"/>
  </Event>
  <Event>
    <Absolute>18946</Absolute>
    <NoteOff Channel="1" Note="69" Velocity="0"/>
  </Event>
  <Event>
    <Absolute>19072</Absolute>
    <NoteOn Channel="1" Note="72" Velocity="91"/>
  </Event>
  <Event>
    <Absolute>19074</Absolute>
    <NoteOff Channel="1" Note="71" Velocity="0"/>
  </Event>
  <Event>
    <Absolute>19200</Absolute>
    <NoteOn Channel="1" Note="74" Velocity="101"/>
  </Event>
  <Event>
    <Absolute>19202</Absolute>
    <NoteOff Channel="1" Note="72" Velocity="0"/>
  </Event>
  <Event>
    <Absolute>19328</Absolute>
    <NoteOn Channel="1" Note="76" Velocity="102"/>
  </Event>
  <Event>
    <Absolute>19330</Absolute>
    <NoteOff Channel="1" Note="74" Velocity="0"/>
  </Event>
  <Event>
    <Absolute>19456</Absolute>
    <NoteOn Channel="1" Note="74" Velocity="91"/>
  </Event>
  <Event>
    <Absolute>19458</Absolute>
    <NoteOff Channel="1" Note="76" Velocity="0"/>
  </Event>
  <Event>
    <Absolute>19712</Absolute>
    <NoteOn Channel="1" Note="72" Velocity="86"/>
  </Event>
  <Event>
    <Absolute>19717</Absolute>
    <NoteOff Channel="1" Note="74" Velocity="0"/>
  </Event>
  <Event>
    <Absolute>19955</Absolute>
    <NoteOff Channel="1" Note="72" Velocity="0"/>
  </Event>
  <Event>
    <Absolute>19968</Absolute>
    <NoteOn Channel="1" Note="64" Velocity="65"/>
  </Event>
  <Event>
    <Absolute>20096</Absolute>
    <NoteOn Channel="1" Note="66" Velocity="67"/>
  </Event>
  <Event>
    <Absolute>20098</Absolute>
    <NoteOff Channel="1" Note="64" Velocity="0"/>
  </Event>
  <Event>
    <Absolute>20224</Absolute>
    <NoteOn Channel="1" Note="68" Velocity="85"/>
  </Event>
  <Event>
    <Absolute>20226</Absolute>
    <NoteOff Channel="1" Note="66" Velocity="0"/>
  </Event>
  <Event>
    <Absolute>20352</Absolute>
    <NoteOn Channel="1" Note="69" Velocity="84"/>
  </Event>
  <Event>
    <Absolute>20354</Absolute>
    <NoteOff Channel="1" Note="68" Velocity="0"/>
  </Event>
  <Event>
    <Absolute>20480</Absolute>
    <NoteOn Channel="1" Note="71" Velocity="95"/>
  </Event>
  <Event>
    <Absolute>20482</Absolute>
    <NoteOff Channel="1" Note="69" Velocity="0"/>
  </Event>
  <Event>
    <Absolute>20608</Absolute>
    <NoteOn Channel="1" Note="72" Velocity="94"/>
  </Event>
  <Event>
    <Absolute>20610</Absolute>
    <NoteOff Channel="1" Note="71" Velocity="0"/>
  </Event>
  <Event>
    <Absolute>20736</Absolute>
    <NoteOn Channel="1" Note="74" Velocity="100"/>
  </Event>
  <Event>
    <Absolute>20738</Absolute>
    <NoteOff Channel="1" Note="72" Velocity="0"/>
  </Event>
  <Event>
    <Absolute>20864</Absolute>
    <NoteOn Channel="1" Note="76" Velocity="101"/>
  </Event>
  <Event>
    <Absolute>20866</Absolute>
    <NoteOff Channel="1" Note="74" Velocity="0"/>
  </Event>
  <Event>
    <Absolute>20992</Absolute>
    <NoteOn Channel="1" Note="74" Velocity="93"/>
  </Event>
  <Event>
    <Absolute>20994</Absolute>
    <NoteOff Channel="1" Note="76" Velocity="0"/>
  </Event>
  <Event>
    <Absolute>21248</Absolute>
    <NoteOn Channel="1" Note="72" Velocity="73"/>
  </Event>
  <Event>
    <Absolute>21253</Absolute>
    <NoteOff Channel="1" Note="74" Velocity="0"/>
  </Event>
  <Event>
    <Absolute>21491</Absolute>
    <NoteOff Channel="1" Note="72" Velocity="0"/>
  </Event>
  <Event>
    <Absolute>21504</Absolute>
    <NoteOn Channel="1" Note="72" Velocity="51"/>
  </Event>
  <Event>
    <Absolute>21760</Absolute>
    <NoteOff Channel="1" Note="72" Velocity="0"/>
  </Event>
  <Event>
    <Absolute>21760</Absolute>
    <NoteOn Channel="1" Note="71" Velocity="44"/>
  </Event>
  <Event>
    <Absolute>21888</Absolute>
    <NoteOff Channel="1" Note="71" Velocity="0"/>
  </Event>
  <Event>
    <Absolute>21888</Absolute>
    <NoteOn Channel="1" Note="72" Velocity="52"/>
  </Event>
  <Event>
    <Absolute>22016</Absolute>
    <NoteOff Channel="1" Note="72" Velocity="0"/>
  </Event>
  <Event>
    <Absolute>22016</Absolute>
    <NoteOn Channel="1" Note="69" Velocity="44"/>
  </Event>
  <Event>
    <Absolute>22272</Absolute>
    <NoteOff Channel="1" Note="69" Velocity="0"/>
  </Event>
  <Event>
    <Absolute>22272</Absolute>
    <NoteOn Channel="1" Note="72" Velocity="51"/>
  </Event>
  <Event>
    <Absolute>22528</Absolute>
    <NoteOff Channel="1" Note="72" Velocity="0"/>
  </Event>
  <Event>
    <Absolute>22528</Absolute>
    <NoteOn Channel="1" Note="71" Velocity="44"/>
  </Event>
  <Event>
    <Absolute>22656</Absolute>
    <NoteOff Channel="1" Note="71" Velocity="0"/>
  </Event>
  <Event>
    <Absolute>22656</Absolute>
    <NoteOn Channel="1" Note="72" Velocity="55"/>
  </Event>
  <Event>
    <Absolute>22784</Absolute>
    <NoteOff Channel="1" Note="72" Velocity="0"/>
  </Event>
  <Event>
    <Absolute>22784</Absolute>
    <NoteOn Channel="1" Note="69" Velocity="45"/>
  </Event>
  <Event>
    <Absolute>23040</Absolute>
    <NoteOff Channel="1" Note="69" Velocity="0"/>
  </Event>
  <Event>
    <Absolute>23040</Absolute>
    <NoteOn Channel="1" Note="72" Velocity="55"/>
  </Event>
  <Event>
    <Absolute>23296</Absolute>
    <NoteOff Channel="1" Note="72" Velocity="0"/>
  </Event>
  <Event>
    <Absolute>23296</Absolute>
    <NoteOn Channel="1" Note="71" Velocity="44"/>
  </Event>
  <Event>
    <Absolute>23424</Absolute>
    <NoteOff Channel="1" Note="71" Velocity="0"/>
  </Event>
  <Event>
    <Absolute>23424</Absolute>
    <NoteOn Channel="1" Note="72" Velocity="50"/>
  </Event>
  <Event>
    <Absolute>23552</Absolute>
    <NoteOff Channel="1" Note="72" Velocity="0"/>
  </Event>
  <Event>
    <Absolute>23552</Absolute>
    <NoteOn Channel="1" Note="69" Velocity="42"/>
  </Event>
  <Event>
    <Absolute>23808</Absolute>
    <NoteOff Channel="1" Note="69" Velocity="0"/>
  </Event>
  <Event>
    <Absolute>23808</Absolute>
    <NoteOn Channel="1" Note="72" Velocity="53"/>
  </Event>
  <Event>
    <Absolute>24064</Absolute>
    <NoteOff Channel="1" Note="72" Velocity="0"/>
  </Event>
  <Event>
    <Absolute>24064</Absolute>
    <NoteOn Channel="1" Note="71" Velocity="45"/>
  </Event>
  <Event>
    <Absolute>24192</Absolute>
    <NoteOff Channel="1" Note="71" Velocity="0"/>
  </Event>
  <Event>
    <Absolute>24192</Absolute>
    <NoteOn Channel="1" Note="72" Velocity="52"/>
  </Event>
  <Event>
    <Absolute>24320</Absolute>
    <NoteOff Channel="1" Note="72" Velocity="0"/>
  </Event>
  <Event>
    <Absolute>24320</Absolute>
    <NoteOn Channel="1" Note="69" Velocity="44"/>
  </Event>
  <Event>
    <Absolute>24576</Absolute>
    <NoteOff Channel="1" Note="69" Velocity="0"/>
  </Event>
  <Event>
    <Absolute>24576</Absolute>
    <NoteOn Channel="1" Note="72" Velocity="57"/>
  </Event>
  <Event>
    <Absolute>24832</Absolute>
    <NoteOff Channel="1" Note="72" Velocity="0"/>
  </Event>
  <Event>
    <Absolute>24832</Absolute>
    <NoteOn Channel="1" Note="71" Velocity="47"/>
  </Event>
  <Event>
    <Absolute>24960</Absolute>
    <NoteOff Channel="1" Note="71" Velocity="0"/>
  </Event>
  <Event>
    <Absolute>24960</Absolute>
    <NoteOn Channel="1" Note="72" Velocity="51"/>
  </Event>
  <Event>
    <Absolute>25088</Absolute>
    <NoteOff Channel="1" Note="72" Velocity="0"/>
  </Event>
  <Event>
    <Absolute>25088</Absolute>
    <NoteOn Channel="1" Note="69" Velocity="44"/>
  </Event>
  <Event>
    <Absolute>25344</Absolute>
    <NoteOff Channel="1" Note="69" Velocity="0"/>
  </Event>
  <Event>
    <Absolute>25344</Absolute>
    <NoteOn Channel="1" Note="72" Velocity="51"/>
  </Event>
  <Event>
    <Absolute>25600</Absolute>
    <NoteOff Channel="1" Note="72" Velocity="0"/>
  </Event>
  <Event>
    <Absolute>25600</Absolute>
    <NoteOn Channel="1" Note="71" Velocity="50"/>
  </Event>
  <Event>
    <Absolute>25728</Absolute>
    <NoteOff Channel="1" Note="71" Velocity="0"/>
  </Event>
  <Event>
    <Absolute>25728</Absolute>
    <NoteOn Channel="1" Note="72" Velocity="52"/>
  </Event>
  <Event>
    <Absolute>25856</Absolute>
    <NoteOff Channel="1" Note="72" Velocity="0"/>
  </Event>
  <Event>
    <Absolute>25856</Absolute>
    <NoteOn Channel="1" Note="69" Velocity="45"/>
  </Event>
  <Event>
    <Absolute>26112</Absolute>
    <NoteOff Channel="1" Note="69" Velocity="0"/>
  </Event>
  <Event>
    <Absolute>26112</Absolute>
    <NoteOn Channel="1" Note="72" Velocity="52"/>
  </Event>
  <Event>
    <Absolute>26368</Absolute>
    <NoteOff Channel="1" Note="72" Velocity="0"/>
  </Event>
  <Event>
    <Absolute>26368</Absolute>
    <NoteOn Channel="1" Note="71" Velocity="47"/>
  </Event>
  <Event>
    <Absolute>26496</Absolute>
    <NoteOff Channel="1" Note="71" Velocity="0"/>
  </Event>
  <Event>
    <Absolute>26496</Absolute>
    <NoteOn Channel="1" Note="72" Velocity="51"/>
  </Event>
  <Event>
    <Absolute>26624</Absolute>
    <NoteOff Channel="1" Note="72" Velocity="0"/>
  </Event>
  <Event>
    <Absolute>26624</Absolute>
    <NoteOn Channel="1" Note="69" Velocity="42"/>
  </Event>
  <Event>
    <Absolute>26880</Absolute>
    <NoteOff Channel="1" Note="69" Velocity="0"/>
  </Event>
  <Event>
    <Absolute>26880</Absolute>
    <NoteOn Channel="1" Note="72" Velocity="50"/>
  </Event>
  <Event>
    <Absolute>27136</Absolute>
    <NoteOff Channel="1" Note="72" Velocity="0"/>
  </Event>
  <Event>
    <Absolute>27136</Absolute>
    <NoteOn Channel="1" Note="71" Velocity="49"/>
  </Event>
  <Event>
    <Absolute>27264</Absolute>
    <NoteOff Channel="1" Note="71" Velocity="0"/>
  </Event>
  <Event>
    <Absolute>27264</Absolute>
    <NoteOn Channel="1" Note="72" Velocity="52"/>
  </Event>
  <Event>
    <Absolute>27392</Absolute>
    <NoteOff Channel="1" Note="72" Velocity="0"/>
  </Event>
  <Event>
    <Absolute>27392</Absolute>
    <NoteOn Channel="1" Note="69" Velocity="47"/>
  </Event>
  <Event>
    <Absolute>27648</Absolute>
    <NoteOff Channel="1" Note="69" Velocity="0"/>
  </Event>
  <Event>
    <Absolute>27648</Absolute>
    <NoteOn Channel="1" Note="72" Velocity="50"/>
  </Event>
  <Event>
    <Absolute>27904</Absolute>
    <NoteOff Channel="1" Note="72" Velocity="0"/>
  </Event>
  <Event>
    <Absolute>27904</Absolute>
    <NoteOn Channel="1" Note="71" Velocity="47"/>
  </Event>
  <Event>
    <Absolute>28032</Absolute>
    <NoteOff Channel="1" Note="71" Velocity="0"/>
  </Event>
  <Event>
    <Absolute>28032</Absolute>
    <NoteOn Channel="1" Note="72" Velocity="46"/>
  </Event>
  <Event>
    <Absolute>28160</Absolute>
    <NoteOff Channel="1" Note="72" Velocity="0"/>
  </Event>
  <Event>
    <Absolute>28160</Absolute>
    <NoteOn Channel="1" Note="69" Velocity="44"/>
  </Event>
  <Event>
    <Absolute>28416</Absolute>
    <NoteOff Channel="1" Note="69" Velocity="0"/>
  </Event>
  <Event>
    <Absolute>28416</Absolute>
    <NoteOn Channel="1" Note="72" Velocity="51"/>
  </Event>
  <Event>
    <Absolute>28672</Absolute>
    <NoteOff Channel="1" Note="72" Velocity="0"/>
  </Event>
  <Event>
    <Absolute>28672</Absolute>
    <NoteOn Channel="1" Note="71" Velocity="47"/>
  </Event>
  <Event>
    <Absolute>28800</Absolute>
    <NoteOff Channel="1" Note="71" Velocity="0"/>
  </Event>
  <Event>
    <Absolute>28800</Absolute>
    <NoteOn Channel="1" Note="72" Velocity="50"/>
  </Event>
  <Event>
    <Absolute>28928</Absolute>
    <NoteOff Channel="1" Note="72" Velocity="0"/>
  </Event>
  <Event>
    <Absolute>28928</Absolute>
    <NoteOn Channel="1" Note="69" Velocity="47"/>
  </Event>
  <Event>
    <Absolute>29184</Absolute>
    <NoteOff Channel="1" Note="69" Velocity="0"/>
  </Event>
  <Event>
    <Absolute>29184</Absolute>
    <NoteOn Channel="1" Note="72" Velocity="48"/>
  </Event>
  <Event>
    <Absolute>29440</Absolute>
    <NoteOff Channel="1" Note="72" Velocity="0"/>
  </Event>
  <Event>
    <Absolute>29440</Absolute>
    <NoteOn Channel="1" Note="71" Velocity="46"/>
  </Event>
  <Event>
    <Absolute>29568</Absolute>
    <NoteOff Channel="1" Note="71" Velocity="0"/>
  </Event>
  <Event>
    <Absolute>29568</Absolute>
    <NoteOn Channel="1" Note="72" Velocity="54"/>
  </Event>
  <Event>
    <Absolute>29696</Absolute>
    <NoteOff Channel="1" Note="72" Velocity="0"/>
  </Event>
  <Event>
    <Absolute>29696</Absolute>
    <NoteOn Channel="1" Note="69" Velocity="45"/>
  </Event>
  <Event>
    <Absolute>29952</Absolute>
    <NoteOff Channel="1" Note="69" Velocity="0"/>
  </Event>
  <Event>
    <Absolute>29952</Absolute>
    <NoteOn Channel="1" Note="72" Velocity="52"/>
  </Event>
  <Event>
    <Absolute>30208</Absolute>
    <NoteOff Channel="1" Note="72" Velocity="0"/>
  </Event>
  <Event>
    <Absolute>30208</Absolute>
    <NoteOn Channel="1" Note="71" Velocity="46"/>
  </Event>
  <Event>
    <Absolute>30336</Absolute>
    <NoteOff Channel="1" Note="71" Velocity="0"/>
  </Event>
  <Event>
    <Absolute>30336</Absolute>
    <NoteOn Channel="1" Note="72" Velocity="56"/>
  </Event>
  <Event>
    <Absolute>30464</Absolute>
    <NoteOff Channel="1" Note="72" Velocity="0"/>
  </Event>
  <Event>
    <Absolute>30464</Absolute>
    <NoteOn Channel="1" Note="69" Velocity="46"/>
  </Event>
  <Event>
    <Absolute>30720</Absolute>
    <NoteOff Channel="1" Note="69" Velocity="0"/>
  </Event>
  <Event>
    <Absolute>30720</Absolute>
    <NoteOn Channel="1" Note="72" Velocity="54"/>
  </Event>
  <Event>
    <Absolute>30976</Absolute>
    <NoteOff Channel="1" Note="72" Velocity="0"/>
  </Event>
  <Event>
    <Absolute>30976</Absolute>
    <NoteOn Channel="1" Note="71" Velocity="50"/>
  </Event>
  <Event>
    <Absolute>31104</Absolute>
    <NoteOff Channel="1" Note="71" Velocity="0"/>
  </Event>
  <Event>
    <Absolute>31104</Absolute>
    <NoteOn Channel="1" Note="72" Velocity="52"/>
  </Event>
  <Event>
    <Absolute>31232</Absolute>
    <NoteOff Channel="1" Note="72" Velocity="0"/>
  </Event>
  <Event>
    <Absolute>31232</Absolute>
    <NoteOn Channel="1" Note="69" Velocity="45"/>
  </Event>
  <Event>
    <Absolute>31488</Absolute>
    <NoteOff Channel="1" Note="69" Velocity="0"/>
  </Event>
  <Event>
    <Absolute>31488</Absolute>
    <NoteOn Channel="1" Note="72" Velocity="53"/>
  </Event>
  <Event>
    <Absolute>31744</Absolute>
    <NoteOff Channel="1" Note="72" Velocity="0"/>
  </Event>
  <Event>
    <Absolute>31744</Absolute>
    <NoteOn Channel="1" Note="71" Velocity="43"/>
  </Event>
  <Event>
    <Absolute>31872</Absolute>
    <NoteOff Channel="1" Note="71" Velocity="0"/>
  </Event>
  <Event>
    <Absolute>31872</Absolute>
    <NoteOn Channel="1" Note="72" Velocity="51"/>
  </Event>
  <Event>
    <Absolute>32000</Absolute>
    <NoteOff Channel="1" Note="72" Velocity="0"/>
  </Event>
  <Event>
    <Absolute>32000</Absolute>
    <NoteOn Channel="1" Note="69" Velocity="49"/>
  </Event>
  <Event>
    <Absolute>32256</Absolute>
    <NoteOff Channel="1" Note="69" Velocity="0"/>
  </Event>
  <Event>
    <Absolute>32256</Absolute>
    <NoteOn Channel="1" Note="72" Velocity="51"/>
  </Event>
  <Event>
    <Absolute>32512</Absolute>
    <NoteOff Channel="1" Note="72" Velocity="0"/>
  </Event>
  <Event>
    <Absolute>32512</Absolute>
    <NoteOn Channel="1" Note="71" Velocity="44"/>
  </Event>
  <Event>
    <Absolute>32640</Absolute>
    <NoteOff Channel="1" Note="71" Velocity="0"/>
  </Event>
  <Event>
    <Absolute>32640</Absolute>
    <NoteOn Channel="1" Note="72" Velocity="57"/>
  </Event>
  <Event>
    <Absolute>32768</Absolute>
    <NoteOff Channel="1" Note="72" Velocity="0"/>
  </Event>
  <Event>
    <Absolute>32768</Absolute>
    <NoteOn Channel="1" Note="69" Velocity="47"/>
  </Event>
  <Event>
    <Absolute>33024</Absolute>
    <NoteOff Channel="1" Note="69" Velocity="0"/>
  </Event>
  <Event>
    <Absolute>33024</Absolute>
    <NoteOn Channel="1" Note="72" Velocity="52"/>
  </Event>
  <Event>
    <Absolute>33280</Absolute>
    <NoteOff Channel="1" Note="72" Velocity="0"/>
  </Event>
  <Event>
    <Absolute>33280</Absolute>
    <NoteOn Channel="1" Note="71" Velocity="45"/>
  </Event>
  <Event>
    <Absolute>33408</Absolute>
    <NoteOff Channel="1" Note="71" Velocity="0"/>
  </Event>
  <Event>
    <Absolute>33408</Absolute>
    <NoteOn Channel="1" Note="72" Velocity="49"/>
  </Event>
  <Event>
    <Absolute>33536</Absolute>
    <NoteOff Channel="1" Note="72" Velocity="0"/>
  </Event>
  <Event>
    <Absolute>33536</Absolute>
    <NoteOn Channel="1" Note="69" Velocity="48"/>
  </Event>
  <Event>
    <Absolute>33792</Absolute>
    <NoteOff Channel="1" Note="69" Velocity="0"/>
  </Event>
  <Event>
    <Absolute>36864</Absolute>
    <NoteOn Channel="1" Note="76" Velocity="112"/>
  </Event>
  <Event>
    <Absolute>37120</Absolute>
    <NoteOff Channel="1" Note="76" Velocity="0"/>
  </Event>
  <Event>
    <Absolute>37120</Absolute>
    <NoteOn Channel="1" Note="74" Velocity="94"/>
  </Event>
  <Event>
    <Absolute>37248</Absolute>
    <NoteOff Channel="1" Note="74" Velocity="0"/>
  </Event>
  <Event>
    <Absolute>37248</Absolute>
    <NoteOn Channel="1" Note="76" Velocity="103"/>
  </Event>
  <Event>
    <Absolute>37376</Absolute>
    <NoteOff Channel="1" Note="76" Velocity="0"/>
  </Event>
  <Event>
    <Absolute>37376</Absolute>
    <NoteOn Channel="1" Note="72" Velocity="89"/>
  </Event>
  <Event>
    <Absolute>37632</Absolute>
    <NoteOff Channel="1" Note="72" Velocity="0"/>
  </Event>
  <Event>
    <Absolute>37632</Absolute>
    <NoteOn Channel="1" Note="76" Velocity="115"/>
  </Event>
  <Event>
    <Absolute>37888</Absolute>
    <NoteOff Channel="1" Note="76" Velocity="0"/>
  </Event>
  <Event>
    <Absolute>37888</Absolute>
    <NoteOn Channel="1" Note="74" Velocity="107"/>
  </Event>
  <Event>
    <Absolute>38016</Absolute>
    <NoteOff Channel="1" Note="74" Velocity="0"/>
  </Event>
  <Event>
    <Absolute>38016</Absolute>
    <NoteOn Channel="1" Note="76" Velocity="120"/>
  </Event>
  <Event>
    <Absolute>38144</Absolute>
    <NoteOff Channel="1" Note="76" Velocity="0"/>
  </Event>
  <Event>
    <Absolute>38144</Absolute>
    <NoteOn Channel="1" Note="72" Velocity="100"/>
  </Event>
  <Event>
    <Absolute>38400</Absolute>
    <NoteOff Channel="1" Note="72" Velocity="0"/>
  </Event>
  <Event>
    <Absolute>38400</Absolute>
    <NoteOn Channel="1" Note="76" Velocity="121"/>
  </Event>
  <Event>
    <Absolute>38656</Absolute>
    <NoteOff Channel="1" Note="76" Velocity="0"/>
  </Event>
  <Event>
    <Absolute>38656</Absolute>
    <NoteOn Channel="1" Note="74" Velocity="107"/>
  </Event>
  <Event>
    <Absolute>38784</Absolute>
    <NoteOff Channel="1" Note="74" Velocity="0"/>
  </Event>
  <Event>
    <Absolute>38784</Absolute>
    <NoteOn Channel="1" Note="76" Velocity="121"/>
  </Event>
  <Event>
    <Absolute>38912</Absolute>
    <NoteOff Channel="1" Note="76" Velocity="0"/>
  </Event>
  <Event>
    <Absolute>38912</Absolute>
    <NoteOn Channel="1" Note="72" Velocity="101"/>
  </Event>
  <Event>
    <Absolute>39168</Absolute>
    <NoteOff Channel="1" Note="72" Velocity="0"/>
  </Event>
  <Event>
    <Absolute>39168</Absolute>
    <NoteOn Channel="1" Note="76" Velocity="123"/>
  </Event>
  <Event>
    <Absolute>39424</Absolute>
    <NoteOff Channel="1" Note="76" Velocity="0"/>
  </Event>
  <Event>
    <Absolute>39424</Absolute>
    <NoteOn Channel="1" Note="74" Velocity="102"/>
  </Event>
  <Event>
    <Absolute>39552</Absolute>
    <NoteOff Channel="1" Note="74" Velocity="0"/>
  </Event>
  <Event>
    <Absolute>39552</Absolute>
    <NoteOn Channel="1" Note="76" Velocity="119"/>
  </Event>
  <Event>
    <Absolute>39680</Absolute>
    <NoteOff Channel="1" Note="76" Velocity="0"/>
  </Event>
  <Event>
    <Absolute>39680</Absolute>
    <NoteOn Channel="1" Note="72" Velocity="107"/>
  </Event>
  <Event>
    <Absolute>39936</Absolute>
    <NoteOff Channel="1" Note="72" Velocity="0"/>
  </Event>
  <Event>
    <Absolute>39936</Absolute>
    <NoteOn Channel="1" Note="81" Velocity="127"/>
  </Event>
  <Event>
    <Absolute>40192</Absolute>
    <NoteOff Channel="1" Note="81" Velocity="0"/>
  </Event>
  <Event>
    <Absolute>40192</Absolute>
    <NoteOn Channel="1" Note="81" Velocity="117"/>
  </Event>
  <Event>
    <Absolute>40320</Absolute>
    <NoteOff Channel="1" Note="81" Velocity="0"/>
  </Event>
  <Event>
    <Absolute>40320</Absolute>
    <NoteOn Channel="1" Note="81" Velocity="107"/>
  </Event>
  <Event>
    <Absolute>40448</Absolute>
    <NoteOff Channel="1" Note="81" Velocity="0"/>
  </Event>
  <Event>
    <Absolute>40448</Absolute>
    <NoteOn Channel="1" Note="79" Velocity="104"/>
  </Event>
  <Event>
    <Absolute>40576</Absolute>
    <NoteOn Channel="1" Note="77" Velocity="93"/>
  </Event>
  <Event>
    <Absolute>40578</Absolute>
    <NoteOff Channel="1" Note="79" Velocity="0"/>
  </Event>
  <Event>
    <Absolute>40697</Absolute>
    <NoteOff Channel="1" Note="77" Velocity="0"/>
  </Event>
  <Event>
    <Absolute>40704</Absolute>
    <NoteOn Channel="1" Note="76" Velocity="104"/>
  </Event>
  <Event>
    <Absolute>40960</Absolute>
    <NoteOff Channel="1" Note="76" Velocity="0"/>
  </Event>
  <Event>
    <Absolute>40960</Absolute>
    <NoteOn Channel="1" Note="76" Velocity="115"/>
  </Event>
  <Event>
    <Absolute>41088</Absolute>
    <NoteOff Channel="1" Note="76" Velocity="0"/>
  </Event>
  <Event>
    <Absolute>41088</Absolute>
    <NoteOn Channel="1" Note="76" Velocity="114"/>
  </Event>
  <Event>
    <Absolute>41216</Absolute>
    <NoteOff Channel="1" Note="76" Velocity="0"/>
  </Event>
  <Event>
    <Absolute>41216</Absolute>
    <NoteOn Channel="1" Note="74" Velocity="107"/>
  </Event>
  <Event>
    <Absolute>41344</Absolute>
    <NoteOn Channel="1" Note="72" Velocity="100"/>
  </Event>
  <Event>
    <Absolute>41346</Absolute>
    <NoteOff Channel="1" Note="74" Velocity="0"/>
  </Event>
  <Event>
    <Absolute>41465</Absolute>
    <NoteOff Channel="1" Note="72" Velocity="0"/>
  </Event>
  <Event>
    <Absolute>41472</Absolute>
    <NoteOn Channel="1" Note="74" Velocity="114"/>
  </Event>
  <Event>
    <Absolute>41728</Absolute>
    <NoteOff Channel="1" Note="74" Velocity="0"/>
  </Event>
  <Event>
    <Absolute>41728</Absolute>
    <NoteOn Channel="1" Note="74" Velocity="113"/>
  </Event>
  <Event>
    <Absolute>41856</Absolute>
    <NoteOff Channel="1" Note="74" Velocity="0"/>
  </Event>
  <Event>
    <Absolute>41856</Absolute>
    <NoteOn Channel="1" Note="74" Velocity="114"/>
  </Event>
  <Event>
    <Absolute>41984</Absolute>
    <NoteOff Channel="1" Note="74" Velocity="0"/>
  </Event>
  <Event>
    <Absolute>41984</Absolute>
    <NoteOn Channel="1" Note="76" Velocity="114"/>
  </Event>
  <Event>
    <Absolute>42112</Absolute>
    <NoteOn Channel="1" Note="74" Velocity="105"/>
  </Event>
  <Event>
    <Absolute>42114</Absolute>
    <NoteOff Channel="1" Note="76" Velocity="0"/>
  </Event>
  <Event>
    <Absolute>42233</Absolute>
    <NoteOff Channel="1" Note="74" Velocity="0"/>
  </Event>
  <Event>
    <Absolute>42240</Absolute>
    <NoteOn Channel="1" Note="72" Velocity="104"/>
  </Event>
  <Event>
    <Absolute>42496</Absolute>
    <NoteOff Channel="1" Note="72" Velocity="0"/>
  </Event>
  <Event>
    <Absolute>42496</Absolute>
    <NoteOn Channel="1" Note="71" Velocity="109"/>
  </Event>
  <Event>
    <Absolute>42624</Absolute>
    <NoteOff Channel="1" Note="71" Velocity="0"/>
  </Event>
  <Event>
    <Absolute>42624</Absolute>
    <NoteOn Channel="1" Note="72" Velocity="118"/>
  </Event>
  <Event>
    <Absolute>42752</Absolute>
    <NoteOff Channel="1" Note="72" Velocity="0"/>
  </Event>
  <Event>
    <Absolute>42752</Absolute>
    <NoteOn Channel="1" Note="69" Velocity="98"/>
  </Event>
  <Event>
    <Absolute>43008</Absolute>
    <NoteOff Channel="1" Note="69" Velocity="0"/>
  </Event>
  <Event>
    <Absolute>43008</Absolute>
    <NoteOn Channel="1" Note="64" Velocity="71"/>
  </Event>
  <Event>
    <Absolute>43136</Absolute>
    <NoteOn Channel="1" Note="66" Velocity="77"/>
  </Event>
  <Event>
    <Absolute>43138</Absolute>
    <NoteOff Channel="1" Note="64" Velocity="0"/>
  </Event>
  <Event>
    <Absolute>43264</Absolute>
    <NoteOn Channel="1" Note="68" Velocity="88"/>
  </Event>
  <Event>
    <Absolute>43266</Absolute>
    <NoteOff Channel="1" Note="66" Velocity="0"/>
  </Event>
  <Event>
    <Absolute>43392</Absolute>
    <NoteOn Channel="1" Note="69" Velocity="89"/>
  </Event>
  <Event>
    <Absolute>43394</Absolute>
    <NoteOff Channel="1" Note="68" Velocity="0"/>
  </Event>
  <Event>
    <Absolute>43520</Absolute>
    <NoteOn Channel="1" Note="71" Velocity="88"/>
  </Event>
  <Event>
    <Absolute>43522</Absolute>
    <NoteOff Channel="1" Note="69" Velocity="0"/>
  </Event>
  <Event>
    <Absolute>43648</Absolute>
    <NoteOn Channel="1" Note="72" Velocity="97"/>
  </Event>
  <Event>
    <Absolute>43650</Absolute>
    <NoteOff Channel="1" Note="71" Velocity="0"/>
  </Event>
  <Event>
    <Absolute>43776</Absolute>
    <NoteOn Channel="1" Note="74" Velocity="100"/>
  </Event>
  <Event>
    <Absolute>43778</Absolute>
    <NoteOff Channel="1" Note="72" Velocity="0"/>
  </Event>
  <Event>
    <Absolute>43904</Absolute>
    <NoteOn Channel="1" Note="76" Velocity="103"/>
  </Event>
  <Event>
    <Absolute>43906</Absolute>
    <NoteOff Channel="1" Note="74" Velocity="0"/>
  </Event>
  <Event>
    <Absolute>44032</Absolute>
    <NoteOn Channel="1" Note="74" Velocity="88"/>
  </Event>
  <Event>
    <Absolute>44034</Absolute>
    <NoteOff Channel="1" Note="76" Velocity="0"/>
  </Event>
  <Event>
    <Absolute>44288</Absolute>
    <NoteOn Channel="1" Note="72" Velocity="80"/>
  </Event>
  <Event>
    <Absolute>44293</Absolute>
    <NoteOff Channel="1" Note="74" Velocity="0"/>
  </Event>
  <Event>
    <Absolute>44531</Absolute>
    <NoteOff Channel="1" Note="72" Velocity="0"/>
  </Event>
  <Event>
    <Absolute>44544</Absolute>
    <NoteOn Channel="1" Note="64" Velocity="62"/>
  </Event>
  <Event>
    <Absolute>44672</Absolute>
    <NoteOn Channel="1" Note="66" Velocity="66"/>
  </Event>
  <Event>
    <Absolute>44674</Absolute>
    <NoteOff Channel="1" Note="64" Velocity="0"/>
  </Event>
  <Event>
    <Absolute>44800</Absolute>
    <NoteOn Channel="1" Note="68" Velocity="89"/>
  </Event>
  <Event>
    <Absolute>44802</Absolute>
    <NoteOff Channel="1" Note="66" Velocity="0"/>
  </Event>
  <Event>
    <Absolute>44928</Absolute>
    <NoteOn Channel="1" Note="69" Velocity="86"/>
  </Event>
  <Event>
    <Absolute>44930</Absolute>
    <NoteOff Channel="1" Note="68" Velocity="0"/>
  </Event>
  <Event>
    <Absolute>45056</Absolute>
    <NoteOn Channel="1" Note="71" Velocity="91"/>
  </Event>
  <Event>
    <Absolute>45058</Absolute>
    <NoteOff Channel="1" Note="69" Velocity="0"/>
  </Event>
  <Event>
    <Absolute>45184</Absolute>
    <NoteOn Channel="1" Note="72" Velocity="95"/>
  </Event>
  <Event>
    <Absolute>45186</Absolute>
    <NoteOff Channel="1" Note="71" Velocity="0"/>
  </Event>
  <Event>
    <Absolute>45312</Absolute>
    <NoteOn Channel="1" Note="74" Velocity="99"/>
  </Event>
  <Event>
    <Absolute>45314</Absolute>
    <NoteOff Channel="1" Note="72" Velocity="0"/>
  </Event>
  <Event>
    <Absolute>45440</Absolute>
    <NoteOn Channel="1" Note="76" Velocity="100"/>
  </Event>
  <Event>
    <Absolute>45442</Absolute>
    <NoteOff Channel="1" Note="74" Velocity="0"/>
  </Event>
  <Event>
    <Absolute>45568</Absolute>
    <NoteOn Channel="1" Note="74" Velocity="96"/>
  </Event>
  <Event>
    <Absolute>45570</Absolute>
    <NoteOff Channel="1" Note="76" Velocity="0"/>
  </Event>
  <Event>
    <Absolute>45824</Absolute>
    <NoteOn Channel="1" Note="72" Velocity="64"/>
  </Event>
  <Event>
    <Absolute>45829</Absolute>
    <NoteOff Channel="1" Note="74" Velocity="0"/>
  </Event>
  <Event>
    <Absolute>46067</Absolute>
    <NoteOff Channel="1" Note="72" Velocity="0"/>
  </Event>
  <Event>
    <Absolute>46080</Absolute>
    <NoteOn Channel="1" Note="72" Velocity="47"/>
  </Event>
  <Event>
    <Absolute>46336</Absolute>
    <NoteOff Channel="1" Note="72" Velocity="0"/>
  </Event>
  <Event>
    <Absolute>46336</Absolute>
    <NoteOn Channel="1" Note="71" Velocity="46"/>
  </Event>
  <Event>
    <Absolute>46464</Absolute>
    <NoteOff Channel="1" Note="71" Velocity="0"/>
  </Event>
  <Event>
    <Absolute>46464</Absolute>
    <NoteOn Channel="1" Note="72" Velocity="52"/>
  </Event>
  <Event>
    <Absolute>46592</Absolute>
    <NoteOff Channel="1" Note="72" Velocity="0"/>
  </Event>
  <Event>
    <Absolute>46592</Absolute>
    <NoteOn Channel="1" Note="69" Velocity="41"/>
  </Event>
  <Event>
    <Absolute>46848</Absolute>
    <NoteOff Channel="1" Note="69" Velocity="0"/>
  </Event>
  <Event>
    <Absolute>46848</Absolute>
    <NoteOn Channel="1" Note="72" Velocity="51"/>
  </Event>
  <Event>
    <Absolute>47104</Absolute>
    <NoteOff Channel="1" Note="72" Velocity="0"/>
  </Event>
  <Event>
    <Absolute>47104</Absolute>
    <NoteOn Channel="1" Note="71" Velocity="52"/>
  </Event>
  <Event>
    <Absolute>47232</Absolute>
    <NoteOff Channel="1" Note="71" Velocity="0"/>
  </Event>
  <Event>
    <Absolute>47232</Absolute>
    <NoteOn Channel="1" Note="72" Velocity="50"/>
  </Event>
  <Event>
    <Absolute>47360</Absolute>
    <NoteOff Channel="1" Note="72" Velocity="0"/>
  </Event>
  <Event>
    <Absolute>47360</Absolute>
    <NoteOn Channel="1" Note="69" Velocity="40"/>
  </Event>
  <Event>
    <Absolute>47616</Absolute>
    <NoteOff Channel="1" Note="69" Velocity="0"/>
  </Event>
  <Event>
    <Absolute>47616</Absolute>
    <NoteOn Channel="1" Note="72" Velocity="45"/>
  </Event>
  <Event>
    <Absolute>47872</Absolute>
    <NoteOff Channel="1" Note="72" Velocity="0"/>
  </Event>
  <Event>
    <Absolute>47872</Absolute>
    <NoteOn Channel="1" Note="71" Velocity="45"/>
  </Event>
  <Event>
    <Absolute>48000</Absolute>
    <NoteOff Channel="1" Note="71" Velocity="0"/>
  </Event>
  <Event>
    <Absolute>48000</Absolute>
    <NoteOn Channel="1" Note="72" Velocity="55"/>
  </Event>
  <Event>
    <Absolute>48128</Absolute>
    <NoteOff Channel="1" Note="72" Velocity="0"/>
  </Event>
  <Event>
    <Absolute>48128</Absolute>
    <NoteOn Channel="1" Note="69" Velocity="47"/>
  </Event>
  <Event>
    <Absolute>48384</Absolute>
    <NoteOff Channel="1" Note="69" Velocity="0"/>
  </Event>
  <Event>
    <Absolute>48384</Absolute>
    <NoteOn Channel="1" Note="72" Velocity="52"/>
  </Event>
  <Event>
    <Absolute>48640</Absolute>
    <NoteOff Channel="1" Note="72" Velocity="0"/>
  </Event>
  <Event>
    <Absolute>48640</Absolute>
    <NoteOn Channel="1" Note="71" Velocity="45"/>
  </Event>
  <Event>
    <Absolute>48768</Absolute>
    <NoteOff Channel="1" Note="71" Velocity="0"/>
  </Event>
  <Event>
    <Absolute>48768</Absolute>
    <NoteOn Channel="1" Note="72" Velocity="53"/>
  </Event>
  <Event>
    <Absolute>48896</Absolute>
    <NoteOff Channel="1" Note="72" Velocity="0"/>
  </Event>
  <Event>
    <Absolute>48896</Absolute>
    <NoteOn Channel="1" Note="69" Velocity="46"/>
  </Event>
  <Event>
    <Absolute>49152</Absolute>
    <NoteOff Channel="1" Note="69" Velocity="0"/>
  </Event>
  <Event>
    <Absolute>49152</Absolute>
    <NoteOn Channel="1" Note="72" Velocity="55"/>
  </Event>
  <Event>
    <Absolute>49408</Absolute>
    <NoteOff Channel="1" Note="72" Velocity="0"/>
  </Event>
  <Event>
    <Absolute>49408</Absolute>
    <NoteOn Channel="1" Note="71" Velocity="46"/>
  </Event>
  <Event>
    <Absolute>49536</Absolute>
    <NoteOff Channel="1" Note="71" Velocity="0"/>
  </Event>
  <Event>
    <Absolute>49536</Absolute>
    <NoteOn Channel="1" Note="72" Velocity="46"/>
  </Event>
  <Event>
    <Absolute>49664</Absolute>
    <NoteOff Channel="1" Note="72" Velocity="0"/>
  </Event>
  <Event>
    <Absolute>49664</Absolute>
    <NoteOn Channel="1" Note="69" Velocity="47"/>
  </Event>
  <Event>
    <Absolute>49920</Absolute>
    <NoteOff Channel="1" Note="69" Velocity="0"/>
  </Event>
  <Event>
    <Absolute>49920</Absolute>
    <NoteOn Channel="1" Note="72" Velocity="56"/>
  </Event>
  <Event>
    <Absolute>50176</Absolute>
    <NoteOff Channel="1" Note="72" Velocity="0"/>
  </Event>
  <Event>
    <Absolute>50176</Absolute>
    <NoteOn Channel="1" Note="71" Velocity="47"/>
  </Event>
  <Event>
    <Absolute>50304</Absolute>
    <NoteOff Channel="1" Note="71" Velocity="0"/>
  </Event>
  <Event>
    <Absolute>50304</Absolute>
    <NoteOn Channel="1" Note="72" Velocity="52"/>
  </Event>
  <Event>
    <Absolute>50432</Absolute>
    <NoteOff Channel="1" Note="72" Velocity="0"/>
  </Event>
  <Event>
    <Absolute>50432</Absolute>
    <NoteOn Channel="1" Note="69" Velocity="45"/>
  </Event>
  <Event>
    <Absolute>50688</Absolute>
    <NoteOff Channel="1" Note="69" Velocity="0"/>
  </Event>
  <Event>
    <Absolute>50688</Absolute>
    <NoteOn Channel="1" Note="72" Velocity="53"/>
  </Event>
  <Event>
    <Absolute>50944</Absolute>
    <NoteOff Channel="1" Note="72" Velocity="0"/>
  </Event>
  <Event>
    <Absolute>50944</Absolute>
    <NoteOn Channel="1" Note="71" Velocity="51"/>
  </Event>
  <Event>
    <Absolute>51072</Absolute>
    <NoteOff Channel="1" Note="71" Velocity="0"/>
  </Event>
  <Event>
    <Absolute>51072</Absolute>
    <NoteOn Channel="1" Note="72" Velocity="49"/>
  </Event>
  <Event>
    <Absolute>51200</Absolute>
    <NoteOff Channel="1" Note="72" Velocity="0"/>
  </Event>
  <Event>
    <Absolute>51200</Absolute>
    <NoteOn Channel="1" Note="69" Velocity="48"/>
  </Event>
  <Event>
    <Absolute>51456</Absolute>
    <NoteOff Channel="1" Note="69" Velocity="0"/>
  </Event>
  <Event>
    <Absolute>51456</Absolute>
    <NoteOn Channel="1" Note="72" Velocity="54"/>
  </Event>
  <Event>
    <Absolute>51712</Absolute>
    <NoteOff Channel="1" Note="72" Velocity="0"/>
  </Event>
  <Event>
    <Absolute>51712</Absolute>
    <NoteOn Channel="1" Note="71" Velocity="48"/>
  </Event>
  <Event>
    <Absolute>51840</Absolute>
    <NoteOff Channel="1" Note="71" Velocity="0"/>
  </Event>
  <Event>
    <Absolute>51840</Absolute>
    <NoteOn Channel="1" Note="72" Velocity="50"/>
  </Event>
  <Event>
    <Absolute>51968</Absolute>
    <NoteOff Channel="1" Note="72" Velocity="0"/>
  </Event>
  <Event>
    <Absolute>51968</Absolute>
    <NoteOn Channel="1" Note="69" Velocity="42"/>
  </Event>
  <Event>
    <Absolute>53376</Absolute>
    <NoteOff Channel="1" Note="69" Velocity="0"/>
  </Event>
  <Event>
    <Absolute>53377</Absolute>
    <EndOfTrack/>
  </Event>
</Track>
<Track Number="2">
  <Event>
    <Absolute>0</Absolute>
    <ControlChange Channel="2" Control="121" Value="0"/>
  </Event>
  <Event>
    <Absolute>0</Absolute>
    <ControlChange Channel="2" Control="64" Value="0"/>
  </Event>
  <Event>
    <Absolute>0</Absolute>
    <ControlChange Channel="2" Control="91" Value="55"/>
  </Event>
  <Event>
    <Absolute>0</Absolute>
    <ControlChange Channel="2" Control="10" Value="54"/>
  </Event>
  <Event>
    <Absolute>0</Absolute>
    <ControlChange Channel="2" Control="7" Value="95"/>
  </Event>
  <Event>
    <Absolute>0</Absolute>
    <TrackName>Oboe</TrackName>
  </Event>
  <Event>
    <Absolute>3072</Absolute>
    <NoteOn Channel="2" Note="69" Velocity="93"/>
  </Event>
  <Event>
    <Absolute>3840</Absolute>
    <NoteOff Channel="2" Note="69" Velocity="0"/>
  </Event>
  <Event>
    <Absolute>3840</Absolute>
    <NoteOn Channel="2" Note="67" Velocity="102"/>
  </Event>
  <Event>
    <Absolute>4608</Absolute>
    <NoteOff Channel="2" Note="67" Velocity="0"/>
  </Event>
  <Event>
    <Absolute>4608</Absolute>
    <NoteOn Channel="2" Note="65" Velocity="68"/>
  </Event>
  <Event>
    <Absolute>5376</Absolute>
    <NoteOff Channel="2" Note="65" Velocity="0"/>
  </Event>
  <Event>
    <Absolute>5376</Absolute>
    <NoteOn Channel="2" Note="64" Velocity="59"/>
  </Event>
  <Event>
    <Absolute>6144</Absolute>
    <NoteOff Channel="2" Note="64" Velocity="0"/>
  </Event>
  <Event>
    <Absolute>6144</Absolute>
    <NoteOn Channel="2" Note="69" Velocity="68"/>
  </Event>
  <Event>
    <Absolute>6912</Absolute>
    <NoteOff Channel="2" Note="69" Velocity="0"/>
  </Event>
  <Event>
    <Absolute>6912</Absolute>
    <NoteOn Channel="2" Note="67" Velocity="55"/>
  </Event>
  <Event>
    <Absolute>7680</Absolute>
    <NoteOff Channel="2" Note="67" Velocity="0"/>
  </Event>
  <Event>
    <Absolute>7680</Absolute>
    <NoteOn Channel="2" Note="65" Velocity="58"/>
  </Event>
  <Event>
    <Absolute>8448</Absolute>
    <NoteOff Channel="2" Note="65" Velocity="0"/>
  </Event>
  <Event>
    <Absolute>8448</Absolute>
    <NoteOn Channel="2" Note="64" Velocity="60"/>
  </Event>
  <Event>
    <Absolute>9216</Absolute>
    <NoteOff Channel="2" Note="64" Velocity="0"/>
  </Event>
  <Event>
    <Absolute>12288</Absolute>
    <NoteOn Channel="2" Note="76" Velocity="121"/>
  </Event>
  <Event>
    <Absolute>12544</Absolute>
    <NoteOff Channel="2" Note="76" Velocity="0"/>
  </Event>
  <Event>
    <Absolute>12544</Absolute>
    <NoteOn Channel="2" Note="74" Velocity="97"/>
  </Event>
  <Event>
    <Absolute>12672</Absolute>
    <NoteOff Channel="2" Note="74" Velocity="0"/>
  </Event>
  <Event>
    <Absolute>12672</Absolute>
    <NoteOn Channel="2" Note="76" Velocity="102"/>
  </Event>
  <Event>
    <Absolute>12800</Absolute>
    <NoteOff Channel="2" Note="76" Velocity="0"/>
  </Event>
  <Event>
    <Absolute>12800</Absolute>
    <NoteOn Channel="2" Note="72" Velocity="88"/>
  </Event>
  <Event>
    <Absolute>13056</Absolute>
    <NoteOff Channel="2" Note="72" Velocity="0"/>
  </Event>
  <Event>
    <Absolute>13056</Absolute>
    <NoteOn Channel="2" Note="76" Velocity="114"/>
  </Event>
  <Event>
    <Absolute>13312</Absolute>
    <NoteOff Channel="2" Note="76" Velocity="0"/>
  </Event>
  <Event>
    <Absolute>13312</Absolute>
    <NoteOn Channel="2" Note="74" Velocity="103"/>
  </Event>
  <Event>
    <Absolute>13440</Absolute>
    <NoteOff Channel="2" Note="74" Velocity="0"/>
  </Event>
  <Event>
    <Absolute>13440</Absolute>
    <NoteOn Channel="2" Note="76" Velocity="116"/>
  </Event>
  <Event>
    <Absolute>13568</Absolute>
    <NoteOff Channel="2" Note="76" Velocity="0"/>
  </Event>
  <Event>
    <Absolute>13568</Absolute>
    <NoteOn Channel="2" Note="72" Velocity="99"/>
  </Event>
  <Event>
    <Absolute>13824</Absolute>
    <NoteOff Channel="2" Note="72" Velocity="0"/>
  </Event>
  <Event>
    <Absolute>13824</Absolute>
    <NoteOn Channel="2" Note="76" Velocity="123"/>
  </Event>
  <Event>
    <Absolute>14080</Absolute>
    <NoteOff Channel="2" Note="76" Velocity="0"/>
  </Event>
  <Event>
    <Absolute>14080</Absolute>
    <NoteOn Channel="2" Note="74" Velocity="103"/>
  </Event>
  <Event>
    <Absolute>14208</Absolute>
    <NoteOff Channel="2" Note="74" Velocity="0"/>
  </Event>
  <Event>
    <Absolute>14208</Absolute>
    <NoteOn Channel="2" Note="76" Velocity="117"/>
  </Event>
  <Event>
    <Absolute>14336</Absolute>
    <NoteOff Channel="2" Note="76" Velocity="0"/>
  </Event>
  <Event>
    <Absolute>14336</Absolute>
    <NoteOn Channel="2" Note="72" Velocity="95"/>
  </Event>
  <Event>
    <Absolute>14592</Absolute>
    <NoteOff Channel="2" Note="72" Velocity="0"/>
  </Event>
  <Event>
    <Absolute>14592</Absolute>
    <NoteOn Channel="2" Note="76" Velocity="116"/>
  </Event>
  <Event>
    <Absolute>14848</Absolute>
    <NoteOff Channel="2" Note="76" Velocity="0"/>
  </Event>
  <Event>
    <Absolute>14848</Absolute>
    <NoteOn Channel="2" Note="74" Velocity="100"/>
  </Event>
  <Event>
    <Absolute>14976</Absolute>
    <NoteOff Channel="2" Note="74" Velocity="0"/>
  </Event>
  <Event>
    <Absolute>14976</Absolute>
    <NoteOn Channel="2" Note="76" Velocity="112"/>
  </Event>
  <Event>
    <Absolute>15104</Absolute>
    <NoteOff Channel="2" Note="76" Velocity="0"/>
  </Event>
  <Event>
    <Absolute>15104</Absolute>
    <NoteOn Channel="2" Note="72" Velocity="102"/>
  </Event>
  <Event>
    <Absolute>15360</Absolute>
    <NoteOff Channel="2" Note="72" Velocity="0"/>
  </Event>
  <Event>
    <Absolute>15360</Absolute>
    <NoteOn Channel="2" Note="81" Velocity="127"/>
  </Event>
  <Event>
    <Absolute>15616</Absolute>
    <NoteOff Channel="2" Note="81" Velocity="0"/>
  </Event>
  <Event>
    <Absolute>15616</Absolute>
    <NoteOn Channel="2" Note="81" Velocity="117"/>
  </Event>
  <Event>
    <Absolute>15744</Absolute>
    <NoteOff Channel="2" Note="81" Velocity="0"/>
  </Event>
  <Event>
    <Absolute>15744</Absolute>
    <NoteOn Channel="2" Note="81" Velocity="109"/>
  </Event>
  <Event>
    <Absolute>15872</Absolute>
    <NoteOff Channel="2" Note="81" Velocity="0"/>
  </Event>
  <Event>
    <Absolute>15872</Absolute>
    <NoteOn Channel="2" Note="79" Velocity="101"/>
  </Event>
  <Event>
    <Absolute>16000</Absolute>
    <NoteOn Channel="2" Note="77" Velocity="92"/>
  </Event>
  <Event>
    <Absolute>16002</Absolute>
    <NoteOff Channel="2" Note="79" Velocity="0"/>
  </Event>
  <Event>
    <Absolute>16121</Absolute>
    <NoteOff Channel="2" Note="77" Velocity="0"/>
  </Event>
  <Event>
    <Absolute>16128</Absolute>
    <NoteOn Channel="2" Note="76" Velocity="105"/>
  </Event>
  <Event>
    <Absolute>16384</Absolute>
    <NoteOff Channel="2" Note="76" Velocity="0"/>
  </Event>
  <Event>
    <Absolute>16384</Absolute>
    <NoteOn Channel="2" Note="76" Velocity="109"/>
  </Event>
  <Event>
    <Absolute>16512</Absolute>
    <NoteOff Channel="2" Note="76" Velocity="0"/>
  </Event>
  <Event>
    <Absolute>16512</Absolute>
    <NoteOn Channel="2" Note="76" Velocity="113"/>
  </Event>
  <Event>
    <Absolute>16640</Absolute>
    <NoteOff Channel="2" Note="76" Velocity="0"/>
  </Event>
  <Event>
    <Absolute>16640</Absolute>
    <NoteOn Channel="2" Note="74" Velocity="104"/>
  </Event>
  <Event>
    <Absolute>16768</Absolute>
    <NoteOn Channel="2" Note="72" Velocity="100"/>
  </Event>
  <Event>
    <Absolute>16770</Absolute>
    <NoteOff Channel="2" Note="74" Velocity="0"/>
  </Event>
  <Event>
    <Absolute>16889</Absolute>
    <NoteOff Channel="2" Note="72" Velocity="0"/>
  </Event>
  <Event>
    <Absolute>16896</Absolute>
    <NoteOn Channel="2" Note="74" Velocity="120"/>
  </Event>
  <Event>
    <Absolute>17152</Absolute>
    <NoteOff Channel="2" Note="74" Velocity="0"/>
  </Event>
  <Event>
    <Absolute>17152</Absolute>
    <NoteOn Channel="2" Note="74" Velocity="115"/>
  </Event>
  <Event>
    <Absolute>17280</Absolute>
    <NoteOff Channel="2" Note="74" Velocity="0"/>
  </Event>
  <Event>
    <Absolute>17280</Absolute>
    <NoteOn Channel="2" Note="74" Velocity="111"/>
  </Event>
  <Event>
    <Absolute>17408</Absolute>
    <NoteOff Channel="2" Note="74" Velocity="0"/>
  </Event>
  <Event>
    <Absolute>17408</Absolute>
    <NoteOn Channel="2" Note="76" Velocity="121"/>
  </Event>
  <Event>
    <Absolute>17536</Absolute>
    <NoteOn Channel="2" Note="74" Velocity="111"/>
  </Event>
  <Event>
    <Absolute>17538</Absolute>
    <NoteOff Channel="2" Note="76" Velocity="0"/>
  </Event>
  <Event>
    <Absolute>17657</Absolute>
    <NoteOff Channel="2" Note="74" Velocity="0"/>
  </Event>
  <Event>
    <Absolute>17664</Absolute>
    <NoteOn Channel="2" Note="72" Velocity="103"/>
  </Event>
  <Event>
    <Absolute>17920</Absolute>
    <NoteOff Channel="2" Note="72" Velocity="0"/>
  </Event>
  <Event>
    <Absolute>17920</Absolute>
    <NoteOn Channel="2" Note="71" Velocity="107"/>
  </Event>
  <Event>
    <Absolute>18048</Absolute>
    <NoteOff Channel="2" Note="71" Velocity="0"/>
  </Event>
  <Event>
    <Absolute>18048</Absolute>
    <NoteOn Channel="2" Note="72" Velocity="117"/>
  </Event>
  <Event>
    <Absolute>18176</Absolute>
    <NoteOff Channel="2" Note="72" Velocity="0"/>
  </Event>
  <Event>
    <Absolute>18176</Absolute>
    <NoteOn Channel="2" Note="69" Velocity="102"/>
  </Event>
  <Event>
    <Absolute>18432</Absolute>
    <NoteOff Channel="2" Note="69" Velocity="0"/>
  </Event>
  <Event>
    <Absolute>23040</Absolute>
    <NoteOn Channel="2" Note="67" Velocity="41"/>
  </Event>
  <Event>
    <Absolute>23808</Absolute>
    <NoteOff Channel="2" Note="67" Velocity="0"/>
  </Event>
  <Event>
    <Absolute>23808</Absolute>
    <NoteOn Channel="2" Note="65" Velocity="45"/>
  </Event>
  <Event>
    <Absolute>24576</Absolute>
    <NoteOff Channel="2" Note="65" Velocity="0"/>
  </Event>
  <Event>
    <Absolute>24576</Absolute>
    <NoteOn Channel="2" Note="64" Velocity="44"/>
  </Event>
  <Event>
    <Absolute>27648</Absolute>
    <NoteOff Channel="2" Note="64" Velocity="0"/>
  </Event>
  <Event>
    <Absolute>27648</Absolute>
    <NoteOn Channel="2" Note="69" Velocity="119"/>
  </Event>
  <Event>
    <Absolute>28416</Absolute>
    <NoteOff Channel="2" Note="69" Velocity="0"/>
  </Event>
  <Event>
    <Absolute>28416</Absolute>
    <NoteOn Channel="2" Note="67" Velocity="103"/>
  </Event>
  <Event>
    <Absolute>29184</Absolute>
    <NoteOff Channel="2" Note="67" Velocity="0"/>
  </Event>
  <Event>
    <Absolute>29184</Absolute>
    <NoteOn Channel="2" Note="65" Velocity="67"/>
  </Event>
  <Event>
    <Absolute>29952</Absolute>
    <NoteOff Channel="2" Note="65" Velocity="0"/>
  </Event>
  <Event>
    <Absolute>29952</Absolute>
    <NoteOn Channel="2" Note="64" Velocity="56"/>
  </Event>
  <Event>
    <Absolute>30720</Absolute>
    <NoteOff Channel="2" Note="64" Velocity="0"/>
  </Event>
  <Event>
    <Absolute>30720</Absolute>
    <NoteOn Channel="2" Note="69" Velocity="70"/>
  </Event>
  <Event>
    <Absolute>31488</Absolute>
    <NoteOff Channel="2" Note="69" Velocity="0"/>
  </Event>
  <Event>
    <Absolute>31488</Absolute>
    <NoteOn Channel="2" Note="67" Velocity="58"/>
  </Event>
  <Event>
    <Absolute>32256</Absolute>
    <NoteOff Channel="2" Note="67" Velocity="0"/>
  </Event>
  <Event>
    <Absolute>32256</Absolute>
    <NoteOn Channel="2" Note="65" Velocity="56"/>
  </Event>
  <Event>
    <Absolute>33024</Absolute>
    <NoteOff Channel="2" Note="65" Velocity="0"/>
  </Event>
  <Event>
    <Absolute>33024</Absolute>
    <NoteOn Channel="2" Note="64" Velocity="56"/>
  </Event>
  <Event>
    <Absolute>33792</Absolute>
    <NoteOff Channel="2" Note="64" Velocity="0"/>
  </Event>
  <Event>
    <Absolute>36864</Absolute>
    <NoteOn Channel="2" Note="76" Velocity="116"/>
  </Event>
  <Event>
    <Absolute>37120</Absolute>
    <NoteOff Channel="2" Note="76" Velocity="0"/>
  </Event>
  <Event>
    <Absolute>37120</Absolute>
    <NoteOn Channel="2" Note="74" Velocity="89"/>
  </Event>
  <Event>
    <Absolute>37248</Absolute>
    <NoteOff Channel="2" Note="74" Velocity="0"/>
  </Event>
  <Event>
    <Absolute>37248</Absolute>
    <NoteOn Channel="2" Note="76" Velocity="102"/>
  </Event>
  <Event>
    <Absolute>37376</Absolute>
    <NoteOff Channel="2" Note="76" Velocity="0"/>
  </Event>
  <Event>
    <Absolute>37376</Absolute>
    <NoteOn Channel="2" Note="72" Velocity="91"/>
  </Event>
  <Event>
    <Absolute>37632</Absolute>
    <NoteOff Channel="2" Note="72" Velocity="0"/>
  </Event>
  <Event>
    <Absolute>37632</Absolute>
    <NoteOn Channel="2" Note="76" Velocity="115"/>
  </Event>
  <Event>
    <Absolute>37888</Absolute>
    <NoteOff Channel="2" Note="76" Velocity="0"/>
  </Event>
  <Event>
    <Absolute>37888</Absolute>
    <NoteOn Channel="2" Note="74" Velocity="99"/>
  </Event>
  <Event>
    <Absolute>38016</Absolute>
    <NoteOff Channel="2" Note="74" Velocity="0"/>
  </Event>
  <Event>
    <Absolute>38016</Absolute>
    <NoteOn Channel="2" Note="76" Velocity="112"/>
  </Event>
  <Event>
    <Absolute>38144</Absolute>
    <NoteOff Channel="2" Note="76" Velocity="0"/>
  </Event>
  <Event>
    <Absolute>38144</Absolute>
    <NoteOn Channel="2" Note="72" Velocity="104"/>
  </Event>
  <Event>
    <Absolute>38400</Absolute>
    <NoteOff Channel="2" Note="72" Velocity="0"/>
  </Event>
  <Event>
    <Absolute>38400</Absolute>
    <NoteOn Channel="2" Note="76" Velocity="120"/>
  </Event>
  <Event>
    <Absolute>38656</Absolute>
    <NoteOff Channel="2" Note="76" Velocity="0"/>
  </Event>
  <Event>
    <Absolute>38656</Absolute>
    <NoteOn Channel="2" Note="74" Velocity="106"/>
  </Event>
  <Event>
    <Absolute>38784</Absolute>
    <NoteOff Channel="2" Note="74" Velocity="0"/>
  </Event>
  <Event>
    <Absolute>38784</Absolute>
    <NoteOn Channel="2" Note="76" Velocity="115"/>
  </Event>
  <Event>
    <Absolute>38912</Absolute>
    <NoteOff Channel="2" Note="76" Velocity="0"/>
  </Event>
  <Event>
    <Absolute>38912</Absolute>
    <NoteOn Channel="2" Note="72" Velocity="104"/>
  </Event>
  <Event>
    <Absolute>39168</Absolute>
    <NoteOff Channel="2" Note="72" Velocity="0"/>
  </Event>
  <Event>
    <Absolute>39168</Absolute>
    <NoteOn Channel="2" Note="76" Velocity="118"/>
  </Event>
  <Event>
    <Absolute>39424</Absolute>
    <NoteOff Channel="2" Note="76" Velocity="0"/>
  </Event>
  <Event>
    <Absolute>39424</Absolute>
    <NoteOn Channel="2" Note="74" Velocity="105"/>
  </Event>
  <Event>
    <Absolute>39552</Absolute>
    <NoteOff Channel="2" Note="74" Velocity="0"/>
  </Event>
  <Event>
    <Absolute>39552</Absolute>
    <NoteOn Channel="2" Note="76" Velocity="116"/>
  </Event>
  <Event>
    <Absolute>39680</Absolute>
    <NoteOff Channel="2" Note="76" Velocity="0"/>
  </Event>
  <Event>
    <Absolute>39680</Absolute>
    <NoteOn Channel="2" Note="72" Velocity="99"/>
  </Event>
  <Event>
    <Absolute>39936</Absolute>
    <NoteOff Channel="2" Note="72" Velocity="0"/>
  </Event>
  <Event>
    <Absolute>39936</Absolute>
    <NoteOn Channel="2" Note="81" Velocity="127"/>
  </Event>
  <Event>
    <Absolute>40192</Absolute>
    <NoteOff Channel="2" Note="81" Velocity="0"/>
  </Event>
  <Event>
    <Absolute>40192</Absolute>
    <NoteOn Channel="2" Note="81" Velocity="115"/>
  </Event>
  <Event>
    <Absolute>40320</Absolute>
    <NoteOff Channel="2" Note="81" Velocity="0"/>
  </Event>
  <Event>
    <Absolute>40320</Absolute>
    <NoteOn Channel="2" Note="81" Velocity="113"/>
  </Event>
  <Event>
    <Absolute>40448</Absolute>
    <NoteOff Channel="2" Note="81" Velocity="0"/>
  </Event>
  <Event>
    <Absolute>40448</Absolute>
    <NoteOn Channel="2" Note="79" Velocity="102"/>
  </Event>
  <Event>
    <Absolute>40576</Absolute>
    <NoteOn Channel="2" Note="77" Velocity="93"/>
  </Event>
  <Event>
    <Absolute>40578</Absolute>
    <NoteOff Channel="2" Note="79" Velocity="0"/>
  </Event>
  <Event>
    <Absolute>40697</Absolute>
    <NoteOff Channel="2" Note="77" Velocity="0"/>
  </Event>
  <Event>
    <Absolute>40704</Absolute>
    <NoteOn Channel="2" Note="76" Velocity="103"/>
  </Event>
  <Event>
    <Absolute>40960</Absolute>
    <NoteOff Channel="2" Note="76" Velocity="0"/>
  </Event>
  <Event>
    <Absolute>40960</Absolute>
    <NoteOn Channel="2" Note="76" Velocity="111"/>
  </Event>
  <Event>
    <Absolute>41088</Absolute>
    <NoteOff Channel="2" Note="76" Velocity="0"/>
  </Event>
  <Event>
    <Absolute>41088</Absolute>
    <NoteOn Channel="2" Note="76" Velocity="115"/>
  </Event>
  <Event>
    <Absolute>41216</Absolute>
    <NoteOff Channel="2" Note="76" Velocity="0"/>
  </Event>
  <Event>
    <Absolute>41216</Absolute>
    <NoteOn Channel="2" Note="74" Velocity="103"/>
  </Event>
  <Event>
    <Absolute>41344</Absolute>
    <NoteOn Channel="2" Note="72" Velocity="99"/>
  </Event>
  <Event>
    <Absolute>41346</Absolute>
    <NoteOff Channel="2" Note="74" Velocity="0"/>
  </Event>
  <Event>
    <Absolute>41465</Absolute>
    <NoteOff Channel="2" Note="72" Velocity="0"/>
  </Event>
  <Event>
    <Absolute>41472</Absolute>
    <NoteOn Channel="2" Note="74" Velocity="118"/>
  </Event>
  <Event>
    <Absolute>41728</Absolute>
    <NoteOff Channel="2" Note="74" Velocity="0"/>
  </Event>
  <Event>
    <Absolute>41728</Absolute>
    <NoteOn Channel="2" Note="74" Velocity="110"/>
  </Event>
  <Event>
    <Absolute>41856</Absolute>
    <NoteOff Channel="2" Note="74" Velocity="0"/>
  </Event>
  <Event>
    <Absolute>41856</Absolute>
    <NoteOn Channel="2" Note="74" Velocity="110"/>
  </Event>
  <Event>
    <Absolute>41984</Absolute>
    <NoteOff Channel="2" Note="74" Velocity="0"/>
  </Event>
  <Event>
    <Absolute>41984</Absolute>
    <NoteOn Channel="2" Note="76" Velocity="119"/>
  </Event>
  <Event>
    <Absolute>42112</Absolute>
    <NoteOn Channel="2" Note="74" Velocity="107"/>
  </Event>
  <Event>
    <Absolute>42114</Absolute>
    <NoteOff Channel="2" Note="76" Velocity="0"/>
  </Event>
  <Event>
    <Absolute>42233</Absolute>
    <NoteOff Channel="2" Note="74" Velocity="0"/>
  </Event>
  <Event>
    <Absolute>42240</Absolute>
    <NoteOn Channel="2" Note="72" Velocity="106"/>
  </Event>
  <Event>
    <Absolute>42496</Absolute>
    <NoteOff Channel="2" Note="72" Velocity="0"/>
  </Event>
  <Event>
    <Absolute>42496</Absolute>
    <NoteOn Channel="2" Note="71" Velocity="105"/>
  </Event>
  <Event>
    <Absolute>42624</Absolute>
    <NoteOff Channel="2" Note="71" Velocity="0"/>
  </Event>
  <Event>
    <Absolute>42624</Absolute>
    <NoteOn Channel="2" Note="72" Velocity="114"/>
  </Event>
  <Event>
    <Absolute>42752</Absolute>
    <NoteOff Channel="2" Note="72" Velocity="0"/>
  </Event>
  <Event>
    <Absolute>42752</Absolute>
    <NoteOn Channel="2" Note="69" Velocity="101"/>
  </Event>
  <Event>
    <Absolute>43008</Absolute>
    <NoteOff Channel="2" Note="69" Velocity="0"/>
  </Event>
  <Event>
    <Absolute>47616</Absolute>
    <NoteOn Channel="2" Note="67" Velocity="43"/>
  </Event>
  <Event>
    <Absolute>48384</Absolute>
    <NoteOff Channel="2" Note="67" Velocity="0"/>
  </Event>
  <Event>
    <Absolute>48384</Absolute>
    <NoteOn Channel="2" Note="65" Velocity="47"/>
  </Event>
  <Event>
    <Absolute>49152</Absolute>
    <NoteOff Channel="2" Note="65" Velocity="0"/>
  </Event>
  <Event>
    <Absolute>49152</Absolute>
    <NoteOn Channel="2" Note="64" Velocity="48"/>
  </Event>
  <Event>
    <Absolute>53376</Absolute>
    <NoteOff Channel="2" Note="64" Velocity="0"/>
  </Event>
  <Event>
    <Absolute>53377</Absolute>
    <EndOfTrack/>
  </Event>
</Track>
<Track Number="3">
  <Event>
    <Absolute>0</Absolute>
    <ControlChange Channel="3" Control="121" Value="0"/>
  </Event>
  <Event>
    <Absolute>0</Absolute>
    <ControlChange Channel="3" Control="64" Value="0"/>
  </Event>
  <Event>
    <Absolute>0</Absolute>
    <ControlChange Channel="3" Control="91" Value="57"/>
  </Event>
  <Event>
    <Absolute>0</Absolute>
    <ControlChange Channel="3" Control="10" Value="60"/>
  </Event>
  <Event>
    <Absolute>0</Absolute>
    <ControlChange Channel="3" Control="7" Value="95"/>
  </Event>
  <Event>
    <Absolute>0</Absolute>
    <TrackName>Clarinet in Bb</TrackName>
  </Event>
  <Event>
    <Absolute>3072</Absolute>
    <NoteOn Channel="3" Note="69" Velocity="98"/>
  </Event>
  <Event>
    <Absolute>3840</Absolute>
    <NoteOff Channel="3" Note="69" Velocity="0"/>
  </Event>
  <Event>
    <Absolute>3840</Absolute>
    <NoteOn Channel="3" Note="67" Velocity="103"/>
  </Event>
  <Event>
    <Absolute>4608</Absolute>
    <NoteOff Channel="3" Note="67" Velocity="0"/>
  </Event>
  <Event>
    <Absolute>4608</Absolute>
    <NoteOn Channel="3" Note="65" Velocity="71"/>
  </Event>
  <Event>
    <Absolute>5376</Absolute>
    <NoteOff Channel="3" Note="65" Velocity="0"/>
  </Event>
  <Event>
    <Absolute>5376</Absolute>
    <NoteOn Channel="3" Note="64" Velocity="58"/>
  </Event>
  <Event>
    <Absolute>6144</Absolute>
    <NoteOff Channel="3" Note="64" Velocity="0"/>
  </Event>
  <Event>
    <Absolute>6144</Absolute>
    <NoteOn Channel="3" Note="65" Velocity="59"/>
  </Event>
  <Event>
    <Absolute>6912</Absolute>
    <NoteOff Channel="3" Note="65" Velocity="0"/>
  </Event>
  <Event>
    <Absolute>6912</Absolute>
    <NoteOn Channel="3" Note="64" Velocity="55"/>
  </Event>
  <Event>
    <Absolute>7680</Absolute>
    <NoteOff Channel="3" Note="64" Velocity="0"/>
  </Event>
  <Event>
    <Absolute>7680</Absolute>
    <NoteOn Channel="3" Note="62" Velocity="58"/>
  </Event>
  <Event>
    <Absolute>8448</Absolute>
    <NoteOff Channel="3" Note="62" Velocity="0"/>
  </Event>
  <Event>
    <Absolute>8448</Absolute>
    <NoteOn Channel="3" Note="57" Velocity="61"/>
  </Event>
  <Event>
    <Absolute>9216</Absolute>
    <NoteOff Channel="3" Note="57" Velocity="0"/>
  </Event>
  <Event>
    <Absolute>9216</Absolute>
    <NoteOn Channel="3" Note="60" Velocity="88"/>
  </Event>
  <Event>
    <Absolute>9472</Absolute>
    <NoteOff Channel="3" Note="60" Velocity="0"/>
  </Event>
  <Event>
    <Absolute>9472</Absolute>
    <NoteOn Channel="3" Note="59" Velocity="81"/>
  </Event>
  <Event>
    <Absolute>9600</Absolute>
    <NoteOff Channel="3" Note="59" Velocity="0"/>
  </Event>
  <Event>
    <Absolute>9600</Absolute>
    <NoteOn Channel="3" Note="60" Velocity="87"/>
  </Event>
  <Event>
    <Absolute>9728</Absolute>
    <NoteOff Channel="3" Note="60" Velocity="0"/>
  </Event>
  <Event>
    <Absolute>9728</Absolute>
    <NoteOn Channel="3" Note="57" Velocity="82"/>
  </Event>
  <Event>
    <Absolute>9984</Absolute>
    <NoteOff Channel="3" Note="57" Velocity="0"/>
  </Event>
  <Event>
    <Absolute>9984</Absolute>
    <NoteOn Channel="3" Note="60" Velocity="107"/>
  </Event>
  <Event>
    <Absolute>10240</Absolute>
    <NoteOff Channel="3" Note="60" Velocity="0"/>
  </Event>
  <Event>
    <Absolute>10240</Absolute>
    <NoteOn Channel="3" Note="59" Velocity="95"/>
  </Event>
  <Event>
    <Absolute>10368</Absolute>
    <NoteOff Channel="3" Note="59" Velocity="0"/>
  </Event>
  <Event>
    <Absolute>10368</Absolute>
    <NoteOn Channel="3" Note="60" Velocity="99"/>
  </Event>
  <Event>
    <Absolute>10496</Absolute>
    <NoteOff Channel="3" Note="60" Velocity="0"/>
  </Event>
  <Event>
    <Absolute>10496</Absolute>
    <NoteOn Channel="3" Note="57" Velocity="97"/>
  </Event>
  <Event>
    <Absolute>10752</Absolute>
    <NoteOff Channel="3" Note="57" Velocity="0"/>
  </Event>
  <Event>
    <Absolute>10752</Absolute>
    <NoteOn Channel="3" Note="60" Velocity="104"/>
  </Event>
  <Event>
    <Absolute>11008</Absolute>
    <NoteOff Channel="3" Note="60" Velocity="0"/>
  </Event>
  <Event>
    <Absolute>11008</Absolute>
    <NoteOn Channel="3" Note="59" Velocity="96"/>
  </Event>
  <Event>
    <Absolute>11136</Absolute>
    <NoteOff Channel="3" Note="59" Velocity="0"/>
  </Event>
  <Event>
    <Absolute>11136</Absolute>
    <NoteOn Channel="3" Note="60" Velocity="100"/>
  </Event>
  <Event>
    <Absolute>11264</Absolute>
    <NoteOff Channel="3" Note="60" Velocity="0"/>
  </Event>
  <Event>
    <Absolute>11264</Absolute>
    <NoteOn Channel="3" Note="57" Velocity="94"/>
  </Event>
  <Event>
    <Absolute>11520</Absolute>
    <NoteOff Channel="3" Note="57" Velocity="0"/>
  </Event>
  <Event>
    <Absolute>11520</Absolute>
    <NoteOn Channel="3" Note="60" Velocity="108"/>
  </Event>
  <Event>
    <Absolute>11776</Absolute>
    <NoteOff Channel="3" Note="60" Velocity="0"/>
  </Event>
  <Event>
    <Absolute>11776</Absolute>
    <NoteOn Channel="3" Note="59" Velocity="96"/>
  </Event>
  <Event>
    <Absolute>11904</Absolute>
    <NoteOff Channel="3" Note="59" Velocity="0"/>
  </Event>
  <Event>
    <Absolute>11904</Absolute>
    <NoteOn Channel="3" Note="60" Velocity="102"/>
  </Event>
  <Event>
    <Absolute>12032</Absolute>
    <NoteOff Channel="3" Note="60" Velocity="0"/>
  </Event>
  <Event>
    <Absolute>12032</Absolute>
    <NoteOn Channel="3" Note="57" Velocity="96"/>
  </Event>
  <Event>
    <Absolute>12288</Absolute>
    <NoteOff Channel="3" Note="57" Velocity="0"/>
  </Event>
  <Event>
    <Absolute>12288</Absolute>
    <NoteOn Channel="3" Note="64" Velocity="117"/>
  </Event>
  <Event>
    <Absolute>12544</Absolute>
    <NoteOff Channel="3" Note="64" Velocity="0"/>
  </Event>
  <Event>
    <Absolute>12544</Absolute>
    <NoteOn Channel="3" Note="62" Velocity="97"/>
  </Event>
  <Event>
    <Absolute>12672</Absolute>
    <NoteOff Channel="3" Note="62" Velocity="0"/>
  </Event>
  <Event>
    <Absolute>12672</Absolute>
    <NoteOn Channel="3" Note="64" Velocity="102"/>
  </Event>
  <Event>
    <Absolute>12800</Absolute>
    <NoteOff Channel="3" Note="64" Velocity="0"/>
  </Event>
  <Event>
    <Absolute>12800</Absolute>
    <NoteOn Channel="3" Note="60" Velocity="89"/>
  </Event>
  <Event>
    <Absolute>13056</Absolute>
    <NoteOff Channel="3" Note="60" Velocity="0"/>
  </Event>
  <Event>
    <Absolute>13056</Absolute>
    <NoteOn Channel="3" Note="64" Velocity="114"/>
  </Event>
  <Event>
    <Absolute>13312</Absolute>
    <NoteOff Channel="3" Note="64" Velocity="0"/>
  </Event>
  <Event>
    <Absolute>13312</Absolute>
    <NoteOn Channel="3" Note="62" Velocity="100"/>
  </Event>
  <Event>
    <Absolute>13440</Absolute>
    <NoteOff Channel="3" Note="62" Velocity="0"/>
  </Event>
  <Event>
    <Absolute>13440</Absolute>
    <NoteOn Channel="3" Note="64" Velocity="111"/>
  </Event>
  <Event>
    <Absolute>13568</Absolute>
    <NoteOff Channel="3" Note="64" Velocity="0"/>
  </Event>
  <Event>
    <Absolute>13568</Absolute>
    <NoteOn Channel="3" Note="60" Velocity="102"/>
  </Event>
  <Event>
    <Absolute>13824</Absolute>
    <NoteOff Channel="3" Note="60" Velocity="0"/>
  </Event>
  <Event>
    <Absolute>13824</Absolute>
    <NoteOn Channel="3" Note="64" Velocity="122"/>
  </Event>
  <Event>
    <Absolute>14080</Absolute>
    <NoteOff Channel="3" Note="64" Velocity="0"/>
  </Event>
  <Event>
    <Absolute>14080</Absolute>
    <NoteOn Channel="3" Note="62" Velocity="104"/>
  </Event>
  <Event>
    <Absolute>14208</Absolute>
    <NoteOff Channel="3" Note="62" Velocity="0"/>
  </Event>
  <Event>
    <Absolute>14208</Absolute>
    <NoteOn Channel="3" Note="64" Velocity="115"/>
  </Event>
  <Event>
    <Absolute>14336</Absolute>
    <NoteOff Channel="3" Note="64" Velocity="0"/>
  </Event>
  <Event>
    <Absolute>14336</Absolute>
    <NoteOn Channel="3" Note="60" Velocity="99"/>
  </Event>
  <Event>
    <Absolute>14592</Absolute>
    <NoteOff Channel="3" Note="60" Velocity="0"/>
  </Event>
  <Event>
    <Absolute>14592</Absolute>
    <NoteOn Channel="3" Note="64" Velocity="121"/>
  </Event>
  <Event>
    <Absolute>14848</Absolute>
    <NoteOff Channel="3" Note="64" Velocity="0"/>
  </Event>
  <Event>
    <Absolute>14848</Absolute>
    <NoteOn Channel="3" Note="62" Velocity="103"/>
  </Event>
  <Event>
    <Absolute>14976</Absolute>
    <NoteOff Channel="3" Note="62" Velocity="0"/>
  </Event>
  <Event>
    <Absolute>14976</Absolute>
    <NoteOn Channel="3" Note="64" Velocity="118"/>
  </Event>
  <Event>
    <Absolute>15104</Absolute>
    <NoteOff Channel="3" Note="64" Velocity="0"/>
  </Event>
  <Event>
    <Absolute>15104</Absolute>
    <NoteOn Channel="3" Note="60" Velocity="101"/>
  </Event>
  <Event>
    <Absolute>15360</Absolute>
    <NoteOff Channel="3" Note="60" Velocity="0"/>
  </Event>
  <Event>
    <Absolute>15360</Absolute>
    <NoteOn Channel="3" Note="76" Velocity="127"/>
  </Event>
  <Event>
    <Absolute>15616</Absolute>
    <NoteOff Channel="3" Note="76" Velocity="0"/>
  </Event>
  <Event>
    <Absolute>15616</Absolute>
    <NoteOn Channel="3" Note="76" Velocity="116"/>
  </Event>
  <Event>
    <Absolute>15744</Absolute>
    <NoteOff Channel="3" Note="76" Velocity="0"/>
  </Event>
  <Event>
    <Absolute>15744</Absolute>
    <NoteOn Channel="3" Note="76" Velocity="109"/>
  </Event>
  <Event>
    <Absolute>15872</Absolute>
    <NoteOff Channel="3" Note="76" Velocity="0"/>
  </Event>
  <Event>
    <Absolute>15872</Absolute>
    <NoteOn Channel="3" Note="76" Velocity="114"/>
  </Event>
  <Event>
    <Absolute>16000</Absolute>
    <NoteOn Channel="3" Note="74" Velocity="105"/>
  </Event>
  <Event>
    <Absolute>16002</Absolute>
    <NoteOff Channel="3" Note="76" Velocity="0"/>
  </Event>
  <Event>
    <Absolute>16121</Absolute>
    <NoteOff Channel="3" Note="74" Velocity="0"/>
  </Event>
  <Event>
    <Absolute>16128</Absolute>
    <NoteOn Channel="3" Note="72" Velocity="106"/>
  </Event>
  <Event>
    <Absolute>16384</Absolute>
    <NoteOff Channel="3" Note="72" Velocity="0"/>
  </Event>
  <Event>
    <Absolute>16384</Absolute>
    <NoteOn Channel="3" Note="72" Velocity="113"/>
  </Event>
  <Event>
    <Absolute>16512</Absolute>
    <NoteOff Channel="3" Note="72" Velocity="0"/>
  </Event>
  <Event>
    <Absolute>16512</Absolute>
    <NoteOn Channel="3" Note="72" Velocity="110"/>
  </Event>
  <Event>
    <Absolute>16640</Absolute>
    <NoteOff Channel="3" Note="72" Velocity="0"/>
  </Event>
  <Event>
    <Absolute>16640</Absolute>
    <NoteOn Channel="3" Note="71" Velocity="109"/>
  </Event>
  <Event>
    <Absolute>16768</Absolute>
    <NoteOn Channel="3" Note="69" Velocity="98"/>
  </Event>
  <Event>
    <Absolute>16770</Absolute>
    <NoteOff Channel="3" Note="71" Velocity="0"/>
  </Event>
  <Event>
    <Absolute>16889</Absolute>
    <NoteOff Channel="3" Note="69" Velocity="0"/>
  </Event>
  <Event>
    <Absolute>16896</Absolute>
    <NoteOn Channel="3" Note="69" Velocity="111"/>
  </Event>
  <Event>
    <Absolute>17152</Absolute>
    <NoteOff Channel="3" Note="69" Velocity="0"/>
  </Event>
  <Event>
    <Absolute>17152</Absolute>
    <NoteOn Channel="3" Note="69" Velocity="108"/>
  </Event>
  <Event>
    <Absolute>17280</Absolute>
    <NoteOff Channel="3" Note="69" Velocity="0"/>
  </Event>
  <Event>
    <Absolute>17280</Absolute>
    <NoteOn Channel="3" Note="69" Velocity="114"/>
  </Event>
  <Event>
    <Absolute>17408</Absolute>
    <NoteOff Channel="3" Note="69" Velocity="0"/>
  </Event>
  <Event>
    <Absolute>17408</Absolute>
    <NoteOn Channel="3" Note="72" Velocity="122"/>
  </Event>
  <Event>
    <Absolute>17536</Absolute>
    <NoteOn Channel="3" Note="71" Velocity="117"/>
  </Event>
  <Event>
    <Absolute>17538</Absolute>
    <NoteOff Channel="3" Note="72" Velocity="0"/>
  </Event>
  <Event>
    <Absolute>17657</Absolute>
    <NoteOff Channel="3" Note="71" Velocity="0"/>
  </Event>
  <Event>
    <Absolute>17664</Absolute>
    <NoteOn Channel="3" Note="69" Velocity="104"/>
  </Event>
  <Event>
    <Absolute>17920</Absolute>
    <NoteOff Channel="3" Note="69" Velocity="0"/>
  </Event>
  <Event>
    <Absolute>17920</Absolute>
    <NoteOn Channel="3" Note="71" Velocity="118"/>
  </Event>
  <Event>
    <Absolute>18048</Absolute>
    <NoteOff Channel="3" Note="71" Velocity="0"/>
  </Event>
  <Event>
    <Absolute>18048</Absolute>
    <NoteOn Channel="3" Note="69" Velocity="106"/>
  </Event>
  <Event>
    <Absolute>18176</Absolute>
    <NoteOff Channel="3" Note="69" Velocity="0"/>
  </Event>
  <Event>
    <Absolute>18176</Absolute>
    <NoteOn Channel="3" Note="64" Velocity="98"/>
  </Event>
  <Event>
    <Absolute>18432</Absolute>
    <NoteOff Channel="3" Note="64" Velocity="0"/>
  </Event>
  <Event>
    <Absolute>23040</Absolute>
    <NoteOn Channel="3" Note="67" Velocity="53"/>
  </Event>
  <Event>
    <Absolute>23808</Absolute>
    <NoteOff Channel="3" Note="67" Velocity="0"/>
  </Event>
  <Event>
    <Absolute>23808</Absolute>
    <NoteOn Channel="3" Note="65" Velocity="42"/>
  </Event>
  <Event>
    <Absolute>24576</Absolute>
    <NoteOff Channel="3" Note="65" Velocity="0"/>
  </Event>
  <Event>
    <Absolute>24576</Absolute>
    <NoteOn Channel="3" Note="64" Velocity="47"/>
  </Event>
  <Event>
    <Absolute>27648</Absolute>
    <NoteOff Channel="3" Note="64" Velocity="0"/>
  </Event>
  <Event>
    <Absolute>27648</Absolute>
    <NoteOn Channel="3" Note="69" Velocity="122"/>
  </Event>
  <Event>
    <Absolute>28416</Absolute>
    <NoteOff Channel="3" Note="69" Velocity="0"/>
  </Event>
  <Event>
    <Absolute>28416</Absolute>
    <NoteOn Channel="3" Note="67" Velocity="107"/>
  </Event>
  <Event>
    <Absolute>29184</Absolute>
    <NoteOff Channel="3" Note="67" Velocity="0"/>
  </Event>
  <Event>
    <Absolute>29184</Absolute>
    <NoteOn Channel="3" Note="65" Velocity="66"/>
  </Event>
  <Event>
    <Absolute>29952</Absolute>
    <NoteOff Channel="3" Note="65" Velocity="0"/>
  </Event>
  <Event>
    <Absolute>29952</Absolute>
    <NoteOn Channel="3" Note="64" Velocity="55"/>
  </Event>
  <Event>
    <Absolute>30720</Absolute>
    <NoteOff Channel="3" Note="64" Velocity="0"/>
  </Event>
  <Event>
    <Absolute>30720</Absolute>
    <NoteOn Channel="3" Note="65" Velocity="60"/>
  </Event>
  <Event>
    <Absolute>31488</Absolute>
    <NoteOff Channel="3" Note="65" Velocity="0"/>
  </Event>
  <Event>
    <Absolute>31488</Absolute>
    <NoteOn Channel="3" Note="64" Velocity="59"/>
  </Event>
  <Event>
    <Absolute>32256</Absolute>
    <NoteOff Channel="3" Note="64" Velocity="0"/>
  </Event>
  <Event>
    <Absolute>32256</Absolute>
    <NoteOn Channel="3" Note="62" Velocity="59"/>
  </Event>
  <Event>
    <Absolute>33024</Absolute>
    <NoteOff Channel="3" Note="62" Velocity="0"/>
  </Event>
  <Event>
    <Absolute>33024</Absolute>
    <NoteOn Channel="3" Note="57" Velocity="55"/>
  </Event>
  <Event>
    <Absolute>33792</Absolute>
    <NoteOff Channel="3" Note="57" Velocity="0"/>
  </Event>
  <Event>
    <Absolute>33792</Absolute>
    <NoteOn Channel="3" Note="60" Velocity="90"/>
  </Event>
  <Event>
    <Absolute>34048</Absolute>
    <NoteOff Channel="3" Note="60" Velocity="0"/>
  </Event>
  <Event>
    <Absolute>34048</Absolute>
    <NoteOn Channel="3" Note="59" Velocity="79"/>
  </Event>
  <Event>
    <Absolute>34176</Absolute>
    <NoteOff Channel="3" Note="59" Velocity="0"/>
  </Event>
  <Event>
    <Absolute>34176</Absolute>
    <NoteOn Channel="3" Note="60" Velocity="87"/>
  </Event>
  <Event>
    <Absolute>34304</Absolute>
    <NoteOff Channel="3" Note="60" Velocity="0"/>
  </Event>
  <Event>
    <Absolute>34304</Absolute>
    <NoteOn Channel="3" Note="57" Velocity="84"/>
  </Event>
  <Event>
    <Absolute>34560</Absolute>
    <NoteOff Channel="3" Note="57" Velocity="0"/>
  </Event>
  <Event>
    <Absolute>34560</Absolute>
    <NoteOn Channel="3" Note="60" Velocity="109"/>
  </Event>
  <Event>
    <Absolute>34816</Absolute>
    <NoteOff Channel="3" Note="60" Velocity="0"/>
  </Event>
  <Event>
    <Absolute>34816</Absolute>
    <NoteOn Channel="3" Note="59" Velocity="96"/>
  </Event>
  <Event>
    <Absolute>34944</Absolute>
    <NoteOff Channel="3" Note="59" Velocity="0"/>
  </Event>
  <Event>
    <Absolute>34944</Absolute>
    <NoteOn Channel="3" Note="60" Velocity="103"/>
  </Event>
  <Event>
    <Absolute>35072</Absolute>
    <NoteOff Channel="3" Note="60" Velocity="0"/>
  </Event>
  <Event>
    <Absolute>35072</Absolute>
    <NoteOn Channel="3" Note="57" Velocity="89"/>
  </Event>
  <Event>
    <Absolute>35328</Absolute>
    <NoteOff Channel="3" Note="57" Velocity="0"/>
  </Event>
  <Event>
    <Absolute>35328</Absolute>
    <NoteOn Channel="3" Note="60" Velocity="108"/>
  </Event>
  <Event>
    <Absolute>35584</Absolute>
    <NoteOff Channel="3" Note="60" Velocity="0"/>
  </Event>
  <Event>
    <Absolute>35584</Absolute>
    <NoteOn Channel="3" Note="59" Velocity="98"/>
  </Event>
  <Event>
    <Absolute>35712</Absolute>
    <NoteOff Channel="3" Note="59" Velocity="0"/>
  </Event>
  <Event>
    <Absolute>35712</Absolute>
    <NoteOn Channel="3" Note="60" Velocity="102"/>
  </Event>
  <Event>
    <Absolute>35840</Absolute>
    <NoteOff Channel="3" Note="60" Velocity="0"/>
  </Event>
  <Event>
    <Absolute>35840</Absolute>
    <NoteOn Channel="3" Note="57" Velocity="92"/>
  </Event>
  <Event>
    <Absolute>36096</Absolute>
    <NoteOff Channel="3" Note="57" Velocity="0"/>
  </Event>
  <Event>
    <Absolute>36096</Absolute>
    <NoteOn Channel="3" Note="60" Velocity="105"/>
  </Event>
  <Event>
    <Absolute>36352</Absolute>
    <NoteOff Channel="3" Note="60" Velocity="0"/>
  </Event>
  <Event>
    <Absolute>36352</Absolute>
    <NoteOn Channel="3" Note="59" Velocity="95"/>
  </Event>
  <Event>
    <Absolute>36480</Absolute>
    <NoteOff Channel="3" Note="59" Velocity="0"/>
  </Event>
  <Event>
    <Absolute>36480</Absolute>
    <NoteOn Channel="3" Note="60" Velocity="102"/>
  </Event>
  <Event>
    <Absolute>36608</Absolute>
    <NoteOff Channel="3" Note="60" Velocity="0"/>
  </Event>
  <Event>
    <Absolute>36608</Absolute>
    <NoteOn Channel="3" Note="57" Velocity="95"/>
  </Event>
  <Event>
    <Absolute>36864</Absolute>
    <NoteOff Channel="3" Note="57" Velocity="0"/>
  </Event>
  <Event>
    <Absolute>36864</Absolute>
    <NoteOn Channel="3" Note="64" Velocity="110"/>
  </Event>
  <Event>
    <Absolute>37120</Absolute>
    <NoteOff Channel="3" Note="64" Velocity="0"/>
  </Event>
  <Event>
    <Absolute>37120</Absolute>
    <NoteOn Channel="3" Note="62" Velocity="92"/>
  </Event>
  <Event>
    <Absolute>37248</Absolute>
    <NoteOff Channel="3" Note="62" Velocity="0"/>
  </Event>
  <Event>
    <Absolute>37248</Absolute>
    <NoteOn Channel="3" Note="64" Velocity="101"/>
  </Event>
  <Event>
    <Absolute>37376</Absolute>
    <NoteOff Channel="3" Note="64" Velocity="0"/>
  </Event>
  <Event>
    <Absolute>37376</Absolute>
    <NoteOn Channel="3" Note="60" Velocity="86"/>
  </Event>
  <Event>
    <Absolute>37632</Absolute>
    <NoteOff Channel="3" Note="60" Velocity="0"/>
  </Event>
  <Event>
    <Absolute>37632</Absolute>
    <NoteOn Channel="3" Note="64" Velocity="107"/>
  </Event>
  <Event>
    <Absolute>37888</Absolute>
    <NoteOff Channel="3" Note="64" Velocity="0"/>
  </Event>
  <Event>
    <Absolute>37888</Absolute>
    <NoteOn Channel="3" Note="62" Velocity="98"/>
  </Event>
  <Event>
    <Absolute>38016</Absolute>
    <NoteOff Channel="3" Note="62" Velocity="0"/>
  </Event>
  <Event>
    <Absolute>38016</Absolute>
    <NoteOn Channel="3" Note="64" Velocity="111"/>
  </Event>
  <Event>
    <Absolute>38144</Absolute>
    <NoteOff Channel="3" Note="64" Velocity="0"/>
  </Event>
  <Event>
    <Absolute>38144</Absolute>
    <NoteOn Channel="3" Note="60" Velocity="97"/>
  </Event>
  <Event>
    <Absolute>38400</Absolute>
    <NoteOff Channel="3" Note="60" Velocity="0"/>
  </Event>
  <Event>
    <Absolute>38400</Absolute>
    <NoteOn Channel="3" Note="64" Velocity="121"/>
  </Event>
  <Event>
    <Absolute>38656</Absolute>
    <NoteOff Channel="3" Note="64" Velocity="0"/>
  </Event>
  <Event>
    <Absolute>38656</Absolute>
    <NoteOn Channel="3" Note="62" Velocity="105"/>
  </Event>
  <Event>
    <Absolute>38784</Absolute>
    <NoteOff Channel="3" Note="62" Velocity="0"/>
  </Event>
  <Event>
    <Absolute>38784</Absolute>
    <NoteOn Channel="3" Note="64" Velocity="114"/>
  </Event>
  <Event>
    <Absolute>38912</Absolute>
    <NoteOff Channel="3" Note="64" Velocity="0"/>
  </Event>
  <Event>
    <Absolute>38912</Absolute>
    <NoteOn Channel="3" Note="60" Velocity="99"/>
  </Event>
  <Event>
    <Absolute>39168</Absolute>
    <NoteOff Channel="3" Note="60" Velocity="0"/>
  </Event>
  <Event>
    <Absolute>39168</Absolute>
    <NoteOn Channel="3" Note="64" Velocity="121"/>
  </Event>
  <Event>
    <Absolute>39424</Absolute>
    <NoteOff Channel="3" Note="64" Velocity="0"/>
  </Event>
  <Event>
    <Absolute>39424</Absolute>
    <NoteOn Channel="3" Note="62" Velocity="104"/>
  </Event>
  <Event>
    <Absolute>39552</Absolute>
    <NoteOff Channel="3" Note="62" Velocity="0"/>
  </Event>
  <Event>
    <Absolute>39552</Absolute>
    <NoteOn Channel="3" Note="64" Velocity="116"/>
  </Event>
  <Event>
    <Absolute>39680</Absolute>
    <NoteOff Channel="3" Note="64" Velocity="0"/>
  </Event>
  <Event>
    <Absolute>39680</Absolute>
    <NoteOn Channel="3" Note="60" Velocity="99"/>
  </Event>
  <Event>
    <Absolute>39936</Absolute>
    <NoteOff Channel="3" Note="60" Velocity="0"/>
  </Event>
  <Event>
    <Absolute>39936</Absolute>
    <NoteOn Channel="3" Note="76" Velocity="127"/>
  </Event>
  <Event>
    <Absolute>40192</Absolute>
    <NoteOff Channel="3" Note="76" Velocity="0"/>
  </Event>
  <Event>
    <Absolute>40192</Absolute>
    <NoteOn Channel="3" Note="76" Velocity="112"/>
  </Event>
  <Event>
    <Absolute>40320</Absolute>
    <NoteOff Channel="3" Note="76" Velocity="0"/>
  </Event>
  <Event>
    <Absolute>40320</Absolute>
    <NoteOn Channel="3" Note="76" Velocity="112"/>
  </Event>
  <Event>
    <Absolute>40448</Absolute>
    <NoteOff Channel="3" Note="76" Velocity="0"/>
  </Event>
  <Event>
    <Absolute>40448</Absolute>
    <NoteOn Channel="3" Note="76" Velocity="114"/>
  </Event>
  <Event>
    <Absolute>40576</Absolute>
    <NoteOn Channel="3" Note="74" Velocity="108"/>
  </Event>
  <Event>
    <Absolute>40578</Absolute>
    <NoteOff Channel="3" Note="76" Velocity="0"/>
  </Event>
  <Event>
    <Absolute>40697</Absolute>
    <NoteOff Channel="3" Note="74" Velocity="0"/>
  </Event>
  <Event>
    <Absolute>40704</Absolute>
    <NoteOn Channel="3" Note="72" Velocity="102"/>
  </Event>
  <Event>
    <Absolute>40960</Absolute>
    <NoteOff Channel="3" Note="72" Velocity="0"/>
  </Event>
  <Event>
    <Absolute>40960</Absolute>
    <NoteOn Channel="3" Note="72" Velocity="105"/>
  </Event>
  <Event>
    <Absolute>41088</Absolute>
    <NoteOff Channel="3" Note="72" Velocity="0"/>
  </Event>
  <Event>
    <Absolute>41088</Absolute>
    <NoteOn Channel="3" Note="72" Velocity="112"/>
  </Event>
  <Event>
    <Absolute>41216</Absolute>
    <NoteOff Channel="3" Note="72" Velocity="0"/>
  </Event>
  <Event>
    <Absolute>41216</Absolute>
    <NoteOn Channel="3" Note="71" Velocity="105"/>
  </Event>
  <Event>
    <Absolute>41344</Absolute>
    <NoteOn Channel="3" Note="69" Velocity="94"/>
  </Event>
  <Event>
    <Absolute>41346</Absolute>
    <NoteOff Channel="3" Note="71" Velocity="0"/>
  </Event>
  <Event>
    <Absolute>41465</Absolute>
    <NoteOff Channel="3" Note="69" Velocity="0"/>
  </Event>
  <Event>
    <Absolute>41472</Absolute>
    <NoteOn Channel="3" Note="69" Velocity="113"/>
  </Event>
  <Event>
    <Absolute>41728</Absolute>
    <NoteOff Channel="3" Note="69" Velocity="0"/>
  </Event>
  <Event>
    <Absolute>41728</Absolute>
    <NoteOn Channel="3" Note="69" Velocity="111"/>
  </Event>
  <Event>
    <Absolute>41856</Absolute>
    <NoteOff Channel="3" Note="69" Velocity="0"/>
  </Event>
  <Event>
    <Absolute>41856</Absolute>
    <NoteOn Channel="3" Note="69" Velocity="108"/>
  </Event>
  <Event>
    <Absolute>41984</Absolute>
    <NoteOff Channel="3" Note="69" Velocity="0"/>
  </Event>
  <Event>
    <Absolute>41984</Absolute>
    <NoteOn Channel="3" Note="72" Velocity="119"/>
  </Event>
  <Event>
    <Absolute>42112</Absolute>
    <NoteOn Channel="3" Note="71" Velocity="114"/>
  </Event>
  <Event>
    <Absolute>42114</Absolute>
    <NoteOff Channel="3" Note="72" Velocity="0"/>
  </Event>
  <Event>
    <Absolute>42233</Absolute>
    <NoteOff Channel="3" Note="71" Velocity="0"/>
  </Event>
  <Event>
    <Absolute>42240</Absolute>
    <NoteOn Channel="3" Note="69" Velocity="109"/>
  </Event>
  <Event>
    <Absolute>42496</Absolute>
    <NoteOff Channel="3" Note="69" Velocity="0"/>
  </Event>
  <Event>
    <Absolute>42496</Absolute>
    <NoteOn Channel="3" Note="71" Velocity="119"/>
  </Event>
  <Event>
    <Absolute>42624</Absolute>
    <NoteOff Channel="3" Note="71" Velocity="0"/>
  </Event>
  <Event>
    <Absolute>42624</Absolute>
    <NoteOn Channel="3" Note="69" Velocity="104"/>
  </Event>
  <Event>
    <Absolute>42752</Absolute>
    <NoteOff Channel="3" Note="69" Velocity="0"/>
  </Event>
  <Event>
    <Absolute>42752</Absolute>
    <NoteOn Channel="3" Note="64" Velocity="99"/>
  </Event>
  <Event>
    <Absolute>43008</Absolute>
    <NoteOff Channel="3" Note="64" Velocity="0"/>
  </Event>
  <Event>
    <Absolute>47616</Absolute>
    <NoteOn Channel="3" Note="67" Velocity="52"/>
  </Event>
  <Event>
    <Absolute>48384</Absolute>
    <NoteOff Channel="3" Note="67" Velocity="0"/>
  </Event>
  <Event>
    <Absolute>48384</Absolute>
    <NoteOn Channel="3" Note="65" Velocity="50"/>
  </Event>
  <Event>
    <Absolute>49152</Absolute>
    <NoteOff Channel="3" Note="65" Velocity="0"/>
  </Event>
  <Event>
    <Absolute>49152</Absolute>
    <NoteOn Channel="3" Note="64" Velocity="47"/>
  </Event>
  <Event>
    <Absolute>53376</Absolute>
    <NoteOff Channel="3" Note="64" Velocity="0"/>
  </Event>
  <Event>
    <Absolute>53377</Absolute>
    <EndOfTrack/>
  </Event>
</Track>
<Track Number="4">
  <Event>
    <Absolute>0</Absolute>
    <ControlChange Channel="4" Control="121" Value="0"/>
  </Event>
  <Event>
    <Absolute>0</Absolute>
    <ControlChange Channel="4" Control="64" Value="0"/>
  </Event>
  <Event>
    <Absolute>0</Absolute>
    <ControlChange Channel="4" Control="91" Value="57"/>
  </Event>
  <Event>
    <Absolute>0</Absolute>
    <ControlChange Channel="4" Control="10" Value="70"/>
  </Event>
  <Event>
    <Absolute>0</Absolute>
    <ControlChange Channel="4" Control="7" Value="95"/>
  </Event>
  <Event>
    <Absolute>0</Absolute>
    <TrackName>Bassoon</TrackName>
  </Event>
  <Event>
    <Absolute>9216</Absolute>
    <NoteOn Channel="4" Note="60" Velocity="72"/>
  </Event>
  <Event>
    <Absolute>9472</Absolute>
    <NoteOff Channel="4" Note="60" Velocity="0"/>
  </Event>
  <Event>
    <Absolute>9472</Absolute>
    <NoteOn Channel="4" Note="59" Velocity="79"/>
  </Event>
  <Event>
    <Absolute>9600</Absolute>
    <NoteOff Channel="4" Note="59" Velocity="0"/>
  </Event>
  <Event>
    <Absolute>9600</Absolute>
    <NoteOn Channel="4" Note="60" Velocity="88"/>
  </Event>
  <Event>
    <Absolute>9728</Absolute>
    <NoteOff Channel="4" Note="60" Velocity="0"/>
  </Event>
  <Event>
    <Absolute>9728</Absolute>
    <NoteOn Channel="4" Note="57" Velocity="82"/>
  </Event>
  <Event>
    <Absolute>9984</Absolute>
    <NoteOff Channel="4" Note="57" Velocity="0"/>
  </Event>
  <Event>
    <Absolute>9984</Absolute>
    <NoteOn Channel="4" Note="60" Velocity="105"/>
  </Event>
  <Event>
    <Absolute>10240</Absolute>
    <NoteOff Channel="4" Note="60" Velocity="0"/>
  </Event>
  <Event>
    <Absolute>10240</Absolute>
    <NoteOn Channel="4" Note="59" Velocity="94"/>
  </Event>
  <Event>
    <Absolute>10368</Absolute>
    <NoteOff Channel="4" Note="59" Velocity="0"/>
  </Event>
  <Event>
    <Absolute>10368</Absolute>
    <NoteOn Channel="4" Note="60" Velocity="101"/>
  </Event>
  <Event>
    <Absolute>10496</Absolute>
    <NoteOff Channel="4" Note="60" Velocity="0"/>
  </Event>
  <Event>
    <Absolute>10496</Absolute>
    <NoteOn Channel="4" Note="57" Velocity="97"/>
  </Event>
  <Event>
    <Absolute>10752</Absolute>
    <NoteOff Channel="4" Note="57" Velocity="0"/>
  </Event>
  <Event>
    <Absolute>10752</Absolute>
    <NoteOn Channel="4" Note="60" Velocity="106"/>
  </Event>
  <Event>
    <Absolute>11008</Absolute>
    <NoteOff Channel="4" Note="60" Velocity="0"/>
  </Event>
  <Event>
    <Absolute>11008</Absolute>
    <NoteOn Channel="4" Note="59" Velocity="99"/>
  </Event>
  <Event>
    <Absolute>11136</Absolute>
    <NoteOff Channel="4" Note="59" Velocity="0"/>
  </Event>
  <Event>
    <Absolute>11136</Absolute>
    <NoteOn Channel="4" Note="60" Velocity="100"/>
  </Event>
  <Event>
    <Absolute>11264</Absolute>
    <NoteOff Channel="4" Note="60" Velocity="0"/>
  </Event>
  <Event>
    <Absolute>11264</Absolute>
    <NoteOn Channel="4" Note="57" Velocity="88"/>
  </Event>
  <Event>
    <Absolute>11520</Absolute>
    <NoteOff Channel="4" Note="57" Velocity="0"/>
  </Event>
  <Event>
    <Absolute>11520</Absolute>
    <NoteOn Channel="4" Note="60" Velocity="105"/>
  </Event>
  <Event>
    <Absolute>11776</Absolute>
    <NoteOff Channel="4" Note="60" Velocity="0"/>
  </Event>
  <Event>
    <Absolute>11776</Absolute>
    <NoteOn Channel="4" Note="59" Velocity="95"/>
  </Event>
  <Event>
    <Absolute>11904</Absolute>
    <NoteOff Channel="4" Note="59" Velocity="0"/>
  </Event>
  <Event>
    <Absolute>11904</Absolute>
    <NoteOn Channel="4" Note="60" Velocity="97"/>
  </Event>
  <Event>
    <Absolute>12032</Absolute>
    <NoteOff Channel="4" Note="60" Velocity="0"/>
  </Event>
  <Event>
    <Absolute>12032</Absolute>
    <NoteOn Channel="4" Note="57" Velocity="98"/>
  </Event>
  <Event>
    <Absolute>12288</Absolute>
    <NoteOff Channel="4" Note="57" Velocity="0"/>
  </Event>
  <Event>
    <Absolute>12288</Absolute>
    <NoteOn Channel="4" Note="60" Velocity="103"/>
  </Event>
  <Event>
    <Absolute>12544</Absolute>
    <NoteOff Channel="4" Note="60" Velocity="0"/>
  </Event>
  <Event>
    <Absolute>12544</Absolute>
    <NoteOn Channel="4" Note="59" Velocity="93"/>
  </Event>
  <Event>
    <Absolute>12672</Absolute>
    <NoteOff Channel="4" Note="59" Velocity="0"/>
  </Event>
  <Event>
    <Absolute>12672</Absolute>
    <NoteOn Channel="4" Note="60" Velocity="102"/>
  </Event>
  <Event>
    <Absolute>12800</Absolute>
    <NoteOff Channel="4" Note="60" Velocity="0"/>
  </Event>
  <Event>
    <Absolute>12800</Absolute>
    <NoteOn Channel="4" Note="57" Velocity="92"/>
  </Event>
  <Event>
    <Absolute>13056</Absolute>
    <NoteOff Channel="4" Note="57" Velocity="0"/>
  </Event>
  <Event>
    <Absolute>13056</Absolute>
    <NoteOn Channel="4" Note="60" Velocity="114"/>
  </Event>
  <Event>
    <Absolute>13312</Absolute>
    <NoteOff Channel="4" Note="60" Velocity="0"/>
  </Event>
  <Event>
    <Absolute>13312</Absolute>
    <NoteOn Channel="4" Note="59" Velocity="107"/>
  </Event>
  <Event>
    <Absolute>13440</Absolute>
    <NoteOff Channel="4" Note="59" Velocity="0"/>
  </Event>
  <Event>
    <Absolute>13440</Absolute>
    <NoteOn Channel="4" Note="60" Velocity="110"/>
  </Event>
  <Event>
    <Absolute>13568</Absolute>
    <NoteOff Channel="4" Note="60" Velocity="0"/>
  </Event>
  <Event>
    <Absolute>13568</Absolute>
    <NoteOn Channel="4" Note="57" Velocity="99"/>
  </Event>
  <Event>
    <Absolute>13824</Absolute>
    <NoteOff Channel="4" Note="57" Velocity="0"/>
  </Event>
  <Event>
    <Absolute>13824</Absolute>
    <NoteOn Channel="4" Note="60" Velocity="123"/>
  </Event>
  <Event>
    <Absolute>14080</Absolute>
    <NoteOff Channel="4" Note="60" Velocity="0"/>
  </Event>
  <Event>
    <Absolute>14080</Absolute>
    <NoteOn Channel="4" Note="59" Velocity="112"/>
  </Event>
  <Event>
    <Absolute>14208</Absolute>
    <NoteOff Channel="4" Note="59" Velocity="0"/>
  </Event>
  <Event>
    <Absolute>14208</Absolute>
    <NoteOn Channel="4" Note="60" Velocity="118"/>
  </Event>
  <Event>
    <Absolute>14336</Absolute>
    <NoteOff Channel="4" Note="60" Velocity="0"/>
  </Event>
  <Event>
    <Absolute>14336</Absolute>
    <NoteOn Channel="4" Note="57" Velocity="107"/>
  </Event>
  <Event>
    <Absolute>14592</Absolute>
    <NoteOff Channel="4" Note="57" Velocity="0"/>
  </Event>
  <Event>
    <Absolute>14592</Absolute>
    <NoteOn Channel="4" Note="60" Velocity="124"/>
  </Event>
  <Event>
    <Absolute>14848</Absolute>
    <NoteOff Channel="4" Note="60" Velocity="0"/>
  </Event>
  <Event>
    <Absolute>14848</Absolute>
    <NoteOn Channel="4" Note="59" Velocity="113"/>
  </Event>
  <Event>
    <Absolute>14976</Absolute>
    <NoteOff Channel="4" Note="59" Velocity="0"/>
  </Event>
  <Event>
    <Absolute>14976</Absolute>
    <NoteOn Channel="4" Note="60" Velocity="122"/>
  </Event>
  <Event>
    <Absolute>15104</Absolute>
    <NoteOff Channel="4" Note="60" Velocity="0"/>
  </Event>
  <Event>
    <Absolute>15104</Absolute>
    <NoteOn Channel="4" Note="57" Velocity="109"/>
  </Event>
  <Event>
    <Absolute>15360</Absolute>
    <NoteOff Channel="4" Note="57" Velocity="0"/>
  </Event>
  <Event>
    <Absolute>15360</Absolute>
    <NoteOn Channel="4" Note="60" Velocity="124"/>
  </Event>
  <Event>
    <Absolute>15616</Absolute>
    <NoteOff Channel="4" Note="60" Velocity="0"/>
  </Event>
  <Event>
    <Absolute>15616</Absolute>
    <NoteOn Channel="4" Note="59" Velocity="109"/>
  </Event>
  <Event>
    <Absolute>15744</Absolute>
    <NoteOff Channel="4" Note="59" Velocity="0"/>
  </Event>
  <Event>
    <Absolute>15744</Absolute>
    <NoteOn Channel="4" Note="60" Velocity="117"/>
  </Event>
  <Event>
    <Absolute>15872</Absolute>
    <NoteOff Channel="4" Note="60" Velocity="0"/>
  </Event>
  <Event>
    <Absolute>15872</Absolute>
    <NoteOn Channel="4" Note="57" Velocity="109"/>
  </Event>
  <Event>
    <Absolute>16128</Absolute>
    <NoteOff Channel="4" Note="57" Velocity="0"/>
  </Event>
  <Event>
    <Absolute>16128</Absolute>
    <NoteOn Channel="4" Note="60" Velocity="119"/>
  </Event>
  <Event>
    <Absolute>16384</Absolute>
    <NoteOff Channel="4" Note="60" Velocity="0"/>
  </Event>
  <Event>
    <Absolute>16384</Absolute>
    <NoteOn Channel="4" Note="59" Velocity="108"/>
  </Event>
  <Event>
    <Absolute>16512</Absolute>
    <NoteOff Channel="4" Note="59" Velocity="0"/>
  </Event>
  <Event>
    <Absolute>16512</Absolute>
    <NoteOn Channel="4" Note="60" Velocity="113"/>
  </Event>
  <Event>
    <Absolute>16640</Absolute>
    <NoteOff Channel="4" Note="60" Velocity="0"/>
  </Event>
  <Event>
    <Absolute>16640</Absolute>
    <NoteOn Channel="4" Note="57" Velocity="109"/>
  </Event>
  <Event>
    <Absolute>16896</Absolute>
    <NoteOff Channel="4" Note="57" Velocity="0"/>
  </Event>
  <Event>
    <Absolute>16896</Absolute>
    <NoteOn Channel="4" Note="60" Velocity="116"/>
  </Event>
  <Event>
    <Absolute>17152</Absolute>
    <NoteOff Channel="4" Note="60" Velocity="0"/>
  </Event>
  <Event>
    <Absolute>17152</Absolute>
    <NoteOn Channel="4" Note="59" Velocity="112"/>
  </Event>
  <Event>
    <Absolute>17280</Absolute>
    <NoteOff Channel="4" Note="59" Velocity="0"/>
  </Event>
  <Event>
    <Absolute>17280</Absolute>
    <NoteOn Channel="4" Note="60" Velocity="116"/>
  </Event>
  <Event>
    <Absolute>17408</Absolute>
    <NoteOff Channel="4" Note="60" Velocity="0"/>
  </Event>
  <Event>
    <Absolute>17408</Absolute>
    <NoteOn Channel="4" Note="57" Velocity="109"/>
  </Event>
  <Event>
    <Absolute>17664</Absolute>
    <NoteOff Channel="4" Note="57" Velocity="0"/>
  </Event>
  <Event>
    <Absolute>17664</Absolute>
    <NoteOn Channel="4" Note="60" Velocity="121"/>
  </Event>
  <Event>
    <Absolute>17920</Absolute>
    <NoteOff Channel="4" Note="60" Velocity="0"/>
  </Event>
  <Event>
    <Absolute>17920</Absolute>
    <NoteOn Channel="4" Note="59" Velocity="112"/>
  </Event>
  <Event>
    <Absolute>18048</Absolute>
    <NoteOff Channel="4" Note="59" Velocity="0"/>
  </Event>
  <Event>
    <Absolute>18048</Absolute>
    <NoteOn Channel="4" Note="60" Velocity="117"/>
  </Event>
  <Event>
    <Absolute>18176</Absolute>
    <NoteOff Channel="4" Note="60" Velocity="0"/>
  </Event>
  <Event>
    <Absolute>18176</Absolute>
    <NoteOn Channel="4" Note="57" Velocity="105"/>
  </Event>
  <Event>
    <Absolute>18432</Absolute>
    <NoteOff Channel="4" Note="57" Velocity="0"/>
  </Event>
  <Event>
    <Absolute>18432</Absolute>
    <NoteOn Channel="4" Note="52" Velocity="73"/>
  </Event>
  <Event>
    <Absolute>18560</Absolute>
    <NoteOn Channel="4" Note="54" Velocity="77"/>
  </Event>
  <Event>
    <Absolute>18562</Absolute>
    <NoteOff Channel="4" Note="52" Velocity="0"/>
  </Event>
  <Event>
    <Absolute>18688</Absolute>
    <NoteOn Channel="4" Note="56" Velocity="86"/>
  </Event>
  <Event>
    <Absolute>18690</Absolute>
    <NoteOff Channel="4" Note="54" Velocity="0"/>
  </Event>
  <Event>
    <Absolute>18816</Absolute>
    <NoteOn Channel="4" Note="57" Velocity="83"/>
  </Event>
  <Event>
    <Absolute>18818</Absolute>
    <NoteOff Channel="4" Note="56" Velocity="0"/>
  </Event>
  <Event>
    <Absolute>18944</Absolute>
    <NoteOn Channel="4" Note="59" Velocity="83"/>
  </Event>
  <Event>
    <Absolute>18946</Absolute>
    <NoteOff Channel="4" Note="57" Velocity="0"/>
  </Event>
  <Event>
    <Absolute>19072</Absolute>
    <NoteOn Channel="4" Note="60" Velocity="95"/>
  </Event>
  <Event>
    <Absolute>19074</Absolute>
    <NoteOff Channel="4" Note="59" Velocity="0"/>
  </Event>
  <Event>
    <Absolute>19200</Absolute>
    <NoteOn Channel="4" Note="62" Velocity="100"/>
  </Event>
  <Event>
    <Absolute>19202</Absolute>
    <NoteOff Channel="4" Note="60" Velocity="0"/>
  </Event>
  <Event>
    <Absolute>19328</Absolute>
    <NoteOn Channel="4" Note="64" Velocity="101"/>
  </Event>
  <Event>
    <Absolute>19330</Absolute>
    <NoteOff Channel="4" Note="62" Velocity="0"/>
  </Event>
  <Event>
    <Absolute>19456</Absolute>
    <NoteOn Channel="4" Note="62" Velocity="96"/>
  </Event>
  <Event>
    <Absolute>19458</Absolute>
    <NoteOff Channel="4" Note="64" Velocity="0"/>
  </Event>
  <Event>
    <Absolute>19712</Absolute>
    <NoteOn Channel="4" Note="60" Velocity="85"/>
  </Event>
  <Event>
    <Absolute>19717</Absolute>
    <NoteOff Channel="4" Note="62" Velocity="0"/>
  </Event>
  <Event>
    <Absolute>19955</Absolute>
    <NoteOff Channel="4" Note="60" Velocity="0"/>
  </Event>
  <Event>
    <Absolute>19968</Absolute>
    <NoteOn Channel="4" Note="52" Velocity="73"/>
  </Event>
  <Event>
    <Absolute>20096</Absolute>
    <NoteOn Channel="4" Note="54" Velocity="75"/>
  </Event>
  <Event>
    <Absolute>20098</Absolute>
    <NoteOff Channel="4" Note="52" Velocity="0"/>
  </Event>
  <Event>
    <Absolute>20224</Absolute>
    <NoteOn Channel="4" Note="56" Velocity="82"/>
  </Event>
  <Event>
    <Absolute>20226</Absolute>
    <NoteOff Channel="4" Note="54" Velocity="0"/>
  </Event>
  <Event>
    <Absolute>20352</Absolute>
    <NoteOn Channel="4" Note="57" Velocity="86"/>
  </Event>
  <Event>
    <Absolute>20354</Absolute>
    <NoteOff Channel="4" Note="56" Velocity="0"/>
  </Event>
  <Event>
    <Absolute>20480</Absolute>
    <NoteOn Channel="4" Note="59" Velocity="91"/>
  </Event>
  <Event>
    <Absolute>20482</Absolute>
    <NoteOff Channel="4" Note="57" Velocity="0"/>
  </Event>
  <Event>
    <Absolute>20608</Absolute>
    <NoteOn Channel="4" Note="60" Velocity="90"/>
  </Event>
  <Event>
    <Absolute>20610</Absolute>
    <NoteOff Channel="4" Note="59" Velocity="0"/>
  </Event>
  <Event>
    <Absolute>20736</Absolute>
    <NoteOn Channel="4" Note="62" Velocity="101"/>
  </Event>
  <Event>
    <Absolute>20738</Absolute>
    <NoteOff Channel="4" Note="60" Velocity="0"/>
  </Event>
  <Event>
    <Absolute>20864</Absolute>
    <NoteOn Channel="4" Note="64" Velocity="103"/>
  </Event>
  <Event>
    <Absolute>20866</Absolute>
    <NoteOff Channel="4" Note="62" Velocity="0"/>
  </Event>
  <Event>
    <Absolute>20992</Absolute>
    <NoteOn Channel="4" Note="62" Velocity="91"/>
  </Event>
  <Event>
    <Absolute>20994</Absolute>
    <NoteOff Channel="4" Note="64" Velocity="0"/>
  </Event>
  <Event>
    <Absolute>21248</Absolute>
    <NoteOn Channel="4" Note="60" Velocity="69"/>
  </Event>
  <Event>
    <Absolute>21253</Absolute>
    <NoteOff Channel="4" Note="62" Velocity="0"/>
  </Event>
  <Event>
    <Absolute>21491</Absolute>
    <NoteOff Channel="4" Note="60" Velocity="0"/>
  </Event>
  <Event>
    <Absolute>21504</Absolute>
    <NoteOn Channel="4" Note="55" Velocity="48"/>
  </Event>
  <Event>
    <Absolute>22272</Absolute>
    <NoteOff Channel="4" Note="55" Velocity="0"/>
  </Event>
  <Event>
    <Absolute>22272</Absolute>
    <NoteOn Channel="4" Note="53" Velocity="44"/>
  </Event>
  <Event>
    <Absolute>23040</Absolute>
    <NoteOff Channel="4" Note="53" Velocity="0"/>
  </Event>
  <Event>
    <Absolute>23040</Absolute>
    <NoteOn Channel="4" Note="52" Velocity="47"/>
  </Event>
  <Event>
    <Absolute>23808</Absolute>
    <NoteOff Channel="4" Note="52" Velocity="0"/>
  </Event>
  <Event>
    <Absolute>23808</Absolute>
    <NoteOn Channel="4" Note="50" Velocity="44"/>
  </Event>
  <Event>
    <Absolute>24576</Absolute>
    <NoteOff Channel="4" Note="50" Velocity="0"/>
  </Event>
  <Event>
    <Absolute>24576</Absolute>
    <NoteOn Channel="4" Note="45" Velocity="45"/>
  </Event>
  <Event>
    <Absolute>27648</Absolute>
    <NoteOff Channel="4" Note="45" Velocity="0"/>
  </Event>
  <Event>
    <Absolute>33792</Absolute>
    <NoteOn Channel="4" Note="60" Velocity="103"/>
  </Event>
  <Event>
    <Absolute>34048</Absolute>
    <NoteOff Channel="4" Note="60" Velocity="0"/>
  </Event>
  <Event>
    <Absolute>34048</Absolute>
    <NoteOn Channel="4" Note="59" Velocity="85"/>
  </Event>
  <Event>
    <Absolute>34176</Absolute>
    <NoteOff Channel="4" Note="59" Velocity="0"/>
  </Event>
  <Event>
    <Absolute>34176</Absolute>
    <NoteOn Channel="4" Note="60" Velocity="89"/>
  </Event>
  <Event>
    <Absolute>34304</Absolute>
    <NoteOff Channel="4" Note="60" Velocity="0"/>
  </Event>
  <Event>
    <Absolute>34304</Absolute>
    <NoteOn Channel="4" Note="57" Velocity="88"/>
  </Event>
  <Event>
    <Absolute>34560</Absolute>
    <NoteOff Channel="4" Note="57" Velocity="0"/>
  </Event>
  <Event>
    <Absolute>34560</Absolute>
    <NoteOn Channel="4" Note="60" Velocity="109"/>
  </Event>
  <Event>
    <Absolute>34816</Absolute>
    <NoteOff Channel="4" Note="60" Velocity="0"/>
  </Event>
  <Event>
    <Absolute>34816</Absolute>
    <NoteOn Channel="4" Note="59" Velocity="94"/>
  </Event>
  <Event>
    <Absolute>34944</Absolute>
    <NoteOff Channel="4" Note="59" Velocity="0"/>
  </Event>
  <Event>
    <Absolute>34944</Absolute>
    <NoteOn Channel="4" Note="60" Velocity="100"/>
  </Event>
  <Event>
    <Absolute>35072</Absolute>
    <NoteOff Channel="4" Note="60" Velocity="0"/>
  </Event>
  <Event>
    <Absolute>35072</Absolute>
    <NoteOn Channel="4" Note="57" Velocity="94"/>
  </Event>
  <Event>
    <Absolute>35328</Absolute>
    <NoteOff Channel="4" Note="57" Velocity="0"/>
  </Event>
  <Event>
    <Absolute>35328</Absolute>
    <NoteOn Channel="4" Note="60" Velocity="105"/>
  </Event>
  <Event>
    <Absolute>35584</Absolute>
    <NoteOff Channel="4" Note="60" Velocity="0"/>
  </Event>
  <Event>
    <Absolute>35584</Absolute>
    <NoteOn Channel="4" Note="59" Velocity="97"/>
  </Event>
  <Event>
    <Absolute>35712</Absolute>
    <NoteOff Channel="4" Note="59" Velocity="0"/>
  </Event>
  <Event>
    <Absolute>35712</Absolute>
    <NoteOn Channel="4" Note="60" Velocity="100"/>
  </Event>
  <Event>
    <Absolute>35840</Absolute>
    <NoteOff Channel="4" Note="60" Velocity="0"/>
  </Event>
  <Event>
    <Absolute>35840</Absolute>
    <NoteOn Channel="4" Note="57" Velocity="91"/>
  </Event>
  <Event>
    <Absolute>36096</Absolute>
    <NoteOff Channel="4" Note="57" Velocity="0"/>
  </Event>
  <Event>
    <Absolute>36096</Absolute>
    <NoteOn Channel="4" Note="60" Velocity="104"/>
  </Event>
  <Event>
    <Absolute>36352</Absolute>
    <NoteOff Channel="4" Note="60" Velocity="0"/>
  </Event>
  <Event>
    <Absolute>36352</Absolute>
    <NoteOn Channel="4" Note="59" Velocity="95"/>
  </Event>
  <Event>
    <Absolute>36480</Absolute>
    <NoteOff Channel="4" Note="59" Velocity="0"/>
  </Event>
  <Event>
    <Absolute>36480</Absolute>
    <NoteOn Channel="4" Note="60" Velocity="102"/>
  </Event>
  <Event>
    <Absolute>36608</Absolute>
    <NoteOff Channel="4" Note="60" Velocity="0"/>
  </Event>
  <Event>
    <Absolute>36608</Absolute>
    <NoteOn Channel="4" Note="57" Velocity="98"/>
  </Event>
  <Event>
    <Absolute>36864</Absolute>
    <NoteOff Channel="4" Note="57" Velocity="0"/>
  </Event>
  <Event>
    <Absolute>36864</Absolute>
    <NoteOn Channel="4" Note="60" Velocity="105"/>
  </Event>
  <Event>
    <Absolute>37120</Absolute>
    <NoteOff Channel="4" Note="60" Velocity="0"/>
  </Event>
  <Event>
    <Absolute>37120</Absolute>
    <NoteOn Channel="4" Note="59" Velocity="98"/>
  </Event>
  <Event>
    <Absolute>37248</Absolute>
    <NoteOff Channel="4" Note="59" Velocity="0"/>
  </Event>
  <Event>
    <Absolute>37248</Absolute>
    <NoteOn Channel="4" Note="60" Velocity="100"/>
  </Event>
  <Event>
    <Absolute>37376</Absolute>
    <NoteOff Channel="4" Note="60" Velocity="0"/>
  </Event>
  <Event>
    <Absolute>37376</Absolute>
    <NoteOn Channel="4" Note="57" Velocity="94"/>
  </Event>
  <Event>
    <Absolute>37632</Absolute>
    <NoteOff Channel="4" Note="57" Velocity="0"/>
  </Event>
  <Event>
    <Absolute>37632</Absolute>
    <NoteOn Channel="4" Note="60" Velocity="105"/>
  </Event>
  <Event>
    <Absolute>37888</Absolute>
    <NoteOff Channel="4" Note="60" Velocity="0"/>
  </Event>
  <Event>
    <Absolute>37888</Absolute>
    <NoteOn Channel="4" Note="59" Velocity="109"/>
  </Event>
  <Event>
    <Absolute>38016</Absolute>
    <NoteOff Channel="4" Note="59" Velocity="0"/>
  </Event>
  <Event>
    <Absolute>38016</Absolute>
    <NoteOn Channel="4" Note="60" Velocity="114"/>
  </Event>
  <Event>
    <Absolute>38144</Absolute>
    <NoteOff Channel="4" Note="60" Velocity="0"/>
  </Event>
  <Event>
    <Absolute>38144</Absolute>
    <NoteOn Channel="4" Note="57" Velocity="108"/>
  </Event>
  <Event>
    <Absolute>38400</Absolute>
    <NoteOff Channel="4" Note="57" Velocity="0"/>
  </Event>
  <Event>
    <Absolute>38400</Absolute>
    <NoteOn Channel="4" Note="60" Velocity="122"/>
  </Event>
  <Event>
    <Absolute>38656</Absolute>
    <NoteOff Channel="4" Note="60" Velocity="0"/>
  </Event>
  <Event>
    <Absolute>38656</Absolute>
    <NoteOn Channel="4" Note="59" Velocity="110"/>
  </Event>
  <Event>
    <Absolute>38784</Absolute>
    <NoteOff Channel="4" Note="59" Velocity="0"/>
  </Event>
  <Event>
    <Absolute>38784</Absolute>
    <NoteOn Channel="4" Note="60" Velocity="119"/>
  </Event>
  <Event>
    <Absolute>38912</Absolute>
    <NoteOff Channel="4" Note="60" Velocity="0"/>
  </Event>
  <Event>
    <Absolute>38912</Absolute>
    <NoteOn Channel="4" Note="57" Velocity="108"/>
  </Event>
  <Event>
    <Absolute>39168</Absolute>
    <NoteOff Channel="4" Note="57" Velocity="0"/>
  </Event>
  <Event>
    <Absolute>39168</Absolute>
    <NoteOn Channel="4" Note="60" Velocity="124"/>
  </Event>
  <Event>
    <Absolute>39424</Absolute>
    <NoteOff Channel="4" Note="60" Velocity="0"/>
  </Event>
  <Event>
    <Absolute>39424</Absolute>
    <NoteOn Channel="4" Note="59" Velocity="110"/>
  </Event>
  <Event>
    <Absolute>39552</Absolute>
    <NoteOff Channel="4" Note="59" Velocity="0"/>
  </Event>
  <Event>
    <Absolute>39552</Absolute>
    <NoteOn Channel="4" Note="60" Velocity="114"/>
  </Event>
  <Event>
    <Absolute>39680</Absolute>
    <NoteOff Channel="4" Note="60" Velocity="0"/>
  </Event>
  <Event>
    <Absolute>39680</Absolute>
    <NoteOn Channel="4" Note="57" Velocity="107"/>
  </Event>
  <Event>
    <Absolute>39936</Absolute>
    <NoteOff Channel="4" Note="57" Velocity="0"/>
  </Event>
  <Event>
    <Absolute>39936</Absolute>
    <NoteOn Channel="4" Note="60" Velocity="120"/>
  </Event>
  <Event>
    <Absolute>40192</Absolute>
    <NoteOff Channel="4" Note="60" Velocity="0"/>
  </Event>
  <Event>
    <Absolute>40192</Absolute>
    <NoteOn Channel="4" Note="59" Velocity="113"/>
  </Event>
  <Event>
    <Absolute>40320</Absolute>
    <NoteOff Channel="4" Note="59" Velocity="0"/>
  </Event>
  <Event>
    <Absolute>40320</Absolute>
    <NoteOn Channel="4" Note="60" Velocity="121"/>
  </Event>
  <Event>
    <Absolute>40448</Absolute>
    <NoteOff Channel="4" Note="60" Velocity="0"/>
  </Event>
  <Event>
    <Absolute>40448</Absolute>
    <NoteOn Channel="4" Note="57" Velocity="109"/>
  </Event>
  <Event>
    <Absolute>40704</Absolute>
    <NoteOff Channel="4" Note="57" Velocity="0"/>
  </Event>
  <Event>
    <Absolute>40704</Absolute>
    <NoteOn Channel="4" Note="60" Velocity="121"/>
  </Event>
  <Event>
    <Absolute>40960</Absolute>
    <NoteOff Channel="4" Note="60" Velocity="0"/>
  </Event>
  <Event>
    <Absolute>40960</Absolute>
    <NoteOn Channel="4" Note="59" Velocity="110"/>
  </Event>
  <Event>
    <Absolute>41088</Absolute>
    <NoteOff Channel="4" Note="59" Velocity="0"/>
  </Event>
  <Event>
    <Absolute>41088</Absolute>
    <NoteOn Channel="4" Note="60" Velocity="116"/>
  </Event>
  <Event>
    <Absolute>41216</Absolute>
    <NoteOff Channel="4" Note="60" Velocity="0"/>
  </Event>
  <Event>
    <Absolute>41216</Absolute>
    <NoteOn Channel="4" Note="57" Velocity="111"/>
  </Event>
  <Event>
    <Absolute>41472</Absolute>
    <NoteOff Channel="4" Note="57" Velocity="0"/>
  </Event>
  <Event>
    <Absolute>41472</Absolute>
    <NoteOn Channel="4" Note="60" Velocity="116"/>
  </Event>
  <Event>
    <Absolute>41728</Absolute>
    <NoteOff Channel="4" Note="60" Velocity="0"/>
  </Event>
  <Event>
    <Absolute>41728</Absolute>
    <NoteOn Channel="4" Note="59" Velocity="111"/>
  </Event>
  <Event>
    <Absolute>41856</Absolute>
    <NoteOff Channel="4" Note="59" Velocity="0"/>
  </Event>
  <Event>
    <Absolute>41856</Absolute>
    <NoteOn Channel="4" Note="60" Velocity="119"/>
  </Event>
  <Event>
    <Absolute>41984</Absolute>
    <NoteOff Channel="4" Note="60" Velocity="0"/>
  </Event>
  <Event>
    <Absolute>41984</Absolute>
    <NoteOn Channel="4" Note="57" Velocity="109"/>
  </Event>
  <Event>
    <Absolute>42240</Absolute>
    <NoteOff Channel="4" Note="57" Velocity="0"/>
  </Event>
  <Event>
    <Absolute>42240</Absolute>
    <NoteOn Channel="4" Note="60" Velocity="121"/>
  </Event>
  <Event>
    <Absolute>42496</Absolute>
    <NoteOff Channel="4" Note="60" Velocity="0"/>
  </Event>
  <Event>
    <Absolute>42496</Absolute>
    <NoteOn Channel="4" Note="59" Velocity="112"/>
  </Event>
  <Event>
    <Absolute>42624</Absolute>
    <NoteOff Channel="4" Note="59" Velocity="0"/>
  </Event>
  <Event>
    <Absolute>42624</Absolute>
    <NoteOn Channel="4" Note="60" Velocity="111"/>
  </Event>
  <Event>
    <Absolute>42752</Absolute>
    <NoteOff Channel="4" Note="60" Velocity="0"/>
  </Event>
  <Event>
    <Absolute>42752</Absolute>
    <NoteOn Channel="4" Note="57" Velocity="107"/>
  </Event>
  <Event>
    <Absolute>43008</Absolute>
    <NoteOff Channel="4" Note="57" Velocity="0"/>
  </Event>
  <Event>
    <Absolute>43008</Absolute>
    <NoteOn Channel="4" Note="52" Velocity="73"/>
  </Event>
  <Event>
    <Absolute>43136</Absolute>
    <NoteOn Channel="4" Note="54" Velocity="74"/>
  </Event>
  <Event>
    <Absolute>43138</Absolute>
    <NoteOff Channel="4" Note="52" Velocity="0"/>
  </Event>
  <Event>
    <Absolute>43264</Absolute>
    <NoteOn Channel="4" Note="56" Velocity="81"/>
  </Event>
  <Event>
    <Absolute>43266</Absolute>
    <NoteOff Channel="4" Note="54" Velocity="0"/>
  </Event>
  <Event>
    <Absolute>43392</Absolute>
    <NoteOn Channel="4" Note="57" Velocity="82"/>
  </Event>
  <Event>
    <Absolute>43394</Absolute>
    <NoteOff Channel="4" Note="56" Velocity="0"/>
  </Event>
  <Event>
    <Absolute>43520</Absolute>
    <NoteOn Channel="4" Note="59" Velocity="87"/>
  </Event>
  <Event>
    <Absolute>43522</Absolute>
    <NoteOff Channel="4" Note="57" Velocity="0"/>
  </Event>
  <Event>
    <Absolute>43648</Absolute>
    <NoteOn Channel="4" Note="60" Velocity="93"/>
  </Event>
  <Event>
    <Absolute>43650</Absolute>
    <NoteOff Channel="4" Note="59" Velocity="0"/>
  </Event>
  <Event>
    <Absolute>43776</Absolute>
    <NoteOn Channel="4" Note="62" Velocity="98"/>
  </Event>
  <Event>
    <Absolute>43778</Absolute>
    <NoteOff Channel="4" Note="60" Velocity="0"/>
  </Event>
  <Event>
    <Absolute>43904</Absolute>
    <NoteOn Channel="4" Note="64" Velocity="105"/>
  </Event>
  <Event>
    <Absolute>43906</Absolute>
    <NoteOff Channel="4" Note="62" Velocity="0"/>
  </Event>
  <Event>
    <Absolute>44032</Absolute>
    <NoteOn Channel="4" Note="62" Velocity="93"/>
  </Event>
  <Event>
    <Absolute>44034</Absolute>
    <NoteOff Channel="4" Note="64" Velocity="0"/>
  </Event>
  <Event>
    <Absolute>44288</Absolute>
    <NoteOn Channel="4" Note="60" Velocity="85"/>
  </Event>
  <Event>
    <Absolute>44293</Absolute>
    <NoteOff Channel="4" Note="62" Velocity="0"/>
  </Event>
  <Event>
    <Absolute>44531</Absolute>
    <NoteOff Channel="4" Note="60" Velocity="0"/>
  </Event>
  <Event>
    <Absolute>44544</Absolute>
    <NoteOn Channel="4" Note="52" Velocity="75"/>
  </Event>
  <Event>
    <Absolute>44672</Absolute>
    <NoteOn Channel="4" Note="54" Velocity="78"/>
  </Event>
  <Event>
    <Absolute>44674</Absolute>
    <NoteOff Channel="4" Note="52" Velocity="0"/>
  </Event>
  <Event>
    <Absolute>44800</Absolute>
    <NoteOn Channel="4" Note="56" Velocity="86"/>
  </Event>
  <Event>
    <Absolute>44802</Absolute>
    <NoteOff Channel="4" Note="54" Velocity="0"/>
  </Event>
  <Event>
    <Absolute>44928</Absolute>
    <NoteOn Channel="4" Note="57" Velocity="89"/>
  </Event>
  <Event>
    <Absolute>44930</Absolute>
    <NoteOff Channel="4" Note="56" Velocity="0"/>
  </Event>
  <Event>
    <Absolute>45056</Absolute>
    <NoteOn Channel="4" Note="59" Velocity="88"/>
  </Event>
  <Event>
    <Absolute>45058</Absolute>
    <NoteOff Channel="4" Note="57" Velocity="0"/>
  </Event>
  <Event>
    <Absolute>45184</Absolute>
    <NoteOn Channel="4" Note="60" Velocity="98"/>
  </Event>
  <Event>
    <Absolute>45186</Absolute>
    <NoteOff Channel="4" Note="59" Velocity="0"/>
  </Event>
  <Event>
    <Absolute>45312</Absolute>
    <NoteOn Channel="4" Note="62" Velocity="101"/>
  </Event>
  <Event>
    <Absolute>45314</Absolute>
    <NoteOff Channel="4" Note="60" Velocity="0"/>
  </Event>
  <Event>
    <Absolute>45440</Absolute>
    <NoteOn Channel="4" Note="64" Velocity="103"/>
  </Event>
  <Event>
    <Absolute>45442</Absolute>
    <NoteOff Channel="4" Note="62" Velocity="0"/>
  </Event>
  <Event>
    <Absolute>45568</Absolute>
    <NoteOn Channel="4" Note="62" Velocity="89"/>
  </Event>
  <Event>
    <Absolute>45570</Absolute>
    <NoteOff Channel="4" Note="64" Velocity="0"/>
  </Event>
  <Event>
    <Absolute>45824</Absolute>
    <NoteOn Channel="4" Note="60" Velocity="64"/>
  </Event>
  <Event>
    <Absolute>45829</Absolute>
    <NoteOff Channel="4" Note="62" Velocity="0"/>
  </Event>
  <Event>
    <Absolute>46067</Absolute>
    <NoteOff Channel="4" Note="60" Velocity="0"/>
  </Event>
  <Event>
    <Absolute>46080</Absolute>
    <NoteOn Channel="4" Note="55" Velocity="46"/>
  </Event>
  <Event>
    <Absolute>46848</Absolute>
    <NoteOff Channel="4" Note="55" Velocity="0"/>
  </Event>
  <Event>
    <Absolute>46848</Absolute>
    <NoteOn Channel="4" Note="53" Velocity="51"/>
  </Event>
  <Event>
    <Absolute>47616</Absolute>
    <NoteOff Channel="4" Note="53" Velocity="0"/>
  </Event>
  <Event>
    <Absolute>47616</Absolute>
    <NoteOn Channel="4" Note="52" Velocity="46"/>
  </Event>
  <Event>
    <Absolute>48384</Absolute>
    <NoteOff Channel="4" Note="52" Velocity="0"/>
  </Event>
  <Event>
    <Absolute>48384</Absolute>
    <NoteOn Channel="4" Note="50" Velocity="47"/>
  </Event>
  <Event>
    <Absolute>49152</Absolute>
    <NoteOff Channel="4" Note="50" Velocity="0"/>
  </Event>
  <Event>
    <Absolute>49152</Absolute>
    <NoteOn Channel="4" Note="45" Velocity="47"/>
  </Event>
  <Event>
    <Absolute>53376</Absolute>
    <NoteOff Channel="4" Note="45" Velocity="0"/>
  </Event>
  <Event>
    <Absolute>53377</Absolute>
    <EndOfTrack/>
  </Event>
</Track>
<Track Number="5">
  <Event>
    <Absolute>0</Absolute>
    <ControlChange Channel="5" Control="121" Value="0"/>
  </Event>
  <Event>
    <Absolute>0</Absolute>
    <ControlChange Channel="5" Control="64" Value="0"/>
  </Event>
  <Event>
    <Absolute>0</Absolute>
    <ControlChange Channel="5" Control="91" Value="62"/>
  </Event>
  <Event>
    <Absolute>0</Absolute>
    <ControlChange Channel="5" Control="10" Value="46"/>
  </Event>
  <Event>
    <Absolute>0</Absolute>
    <ControlChange Channel="5" Control="7" Value="105"/>
  </Event>
  <Event>
    <Absolute>0</Absolute>
    <TrackName>Horn in F</TrackName>
  </Event>
  <Event>
    <Absolute>3072</Absolute>
    <NoteOn Channel="5" Note="69" Velocity="96"/>
  </Event>
  <Event>
    <Absolute>3840</Absolute>
    <NoteOff Channel="5" Note="69" Velocity="0"/>
  </Event>
  <Event>
    <Absolute>3840</Absolute>
    <NoteOn Channel="5" Note="67" Velocity="98"/>
  </Event>
  <Event>
    <Absolute>4608</Absolute>
    <NoteOff Channel="5" Note="67" Velocity="0"/>
  </Event>
  <Event>
    <Absolute>4608</Absolute>
    <NoteOn Channel="5" Note="65" Velocity="64"/>
  </Event>
  <Event>
    <Absolute>5376</Absolute>
    <NoteOff Channel="5" Note="65" Velocity="0"/>
  </Event>
  <Event>
    <Absolute>5376</Absolute>
    <NoteOn Channel="5" Note="64" Velocity="55"/>
  </Event>
  <Event>
    <Absolute>6144</Absolute>
    <NoteOff Channel="5" Note="64" Velocity="0"/>
  </Event>
  <Event>
    <Absolute>6144</Absolute>
    <NoteOn Channel="5" Note="65" Velocity="63"/>
  </Event>
  <Event>
    <Absolute>6912</Absolute>
    <NoteOff Channel="5" Note="65" Velocity="0"/>
  </Event>
  <Event>
    <Absolute>6912</Absolute>
    <NoteOn Channel="5" Note="64" Velocity="65"/>
  </Event>
  <Event>
    <Absolute>7680</Absolute>
    <NoteOff Channel="5" Note="64" Velocity="0"/>
  </Event>
  <Event>
    <Absolute>7680</Absolute>
    <NoteOn Channel="5" Note="62" Velocity="55"/>
  </Event>
  <Event>
    <Absolute>8448</Absolute>
    <NoteOff Channel="5" Note="62" Velocity="0"/>
  </Event>
  <Event>
    <Absolute>8448</Absolute>
    <NoteOn Channel="5" Note="57" Velocity="57"/>
  </Event>
  <Event>
    <Absolute>9216</Absolute>
    <NoteOff Channel="5" Note="57" Velocity="0"/>
  </Event>
  <Event>
    <Absolute>9216</Absolute>
    <NoteOn Channel="5" Note="53" Velocity="76"/>
  </Event>
  <Event>
    <Absolute>9984</Absolute>
    <NoteOff Channel="5" Note="53" Velocity="0"/>
  </Event>
  <Event>
    <Absolute>9984</Absolute>
    <NoteOn Channel="5" Note="57" Velocity="97"/>
  </Event>
  <Event>
    <Absolute>10752</Absolute>
    <NoteOff Channel="5" Note="57" Velocity="0"/>
  </Event>
  <Event>
    <Absolute>10752</Absolute>
    <NoteOn Channel="5" Note="57" Velocity="97"/>
  </Event>
  <Event>
    <Absolute>11520</Absolute>
    <NoteOff Channel="5" Note="57" Velocity="0"/>
  </Event>
  <Event>
    <Absolute>11520</Absolute>
    <NoteOn Channel="5" Note="57" Velocity="98"/>
  </Event>
  <Event>
    <Absolute>12288</Absolute>
    <NoteOff Channel="5" Note="57" Velocity="0"/>
  </Event>
  <Event>
    <Absolute>12288</Absolute>
    <NoteOn Channel="5" Note="64" Velocity="117"/>
  </Event>
  <Event>
    <Absolute>13056</Absolute>
    <NoteOn Channel="5" Note="66" Velocity="110"/>
  </Event>
  <Event>
    <Absolute>13071</Absolute>
    <NoteOff Channel="5" Note="64" Velocity="0"/>
  </Event>
  <Event>
    <Absolute>13785</Absolute>
    <NoteOff Channel="5" Note="66" Velocity="0"/>
  </Event>
  <Event>
    <Absolute>13824</Absolute>
    <NoteOn Channel="5" Note="67" Velocity="119"/>
  </Event>
  <Event>
    <Absolute>14080</Absolute>
    <NoteOn Channel="5" Note="65" Velocity="107"/>
  </Event>
  <Event>
    <Absolute>14085</Absolute>
    <NoteOff Channel="5" Note="67" Velocity="0"/>
  </Event>
  <Event>
    <Absolute>14323</Absolute>
    <NoteOff Channel="5" Note="65" Velocity="0"/>
  </Event>
  <Event>
    <Absolute>14336</Absolute>
    <NoteOn Channel="5" Note="64" Velocity="106"/>
  </Event>
  <Event>
    <Absolute>14592</Absolute>
    <NoteOff Channel="5" Note="64" Velocity="0"/>
  </Event>
  <Event>
    <Absolute>14592</Absolute>
    <NoteOn Channel="5" Note="69" Velocity="127"/>
  </Event>
  <Event>
    <Absolute>14720</Absolute>
    <NoteOn Channel="5" Note="67" Velocity="120"/>
  </Event>
  <Event>
    <Absolute>14722</Absolute>
    <NoteOff Channel="5" Note="69" Velocity="0"/>
  </Event>
  <Event>
    <Absolute>14848</Absolute>
    <NoteOn Channel="5" Note="65" Velocity="105"/>
  </Event>
  <Event>
    <Absolute>14850</Absolute>
    <NoteOff Channel="5" Note="67" Velocity="0"/>
  </Event>
  <Event>
    <Absolute>15104</Absolute>
    <NoteOn Channel="5" Note="64" Velocity="98"/>
  </Event>
  <Event>
    <Absolute>15109</Absolute>
    <NoteOff Channel="5" Note="65" Velocity="0"/>
  </Event>
  <Event>
    <Absolute>15347</Absolute>
    <NoteOff Channel="5" Note="64" Velocity="0"/>
  </Event>
  <Event>
    <Absolute>15360</Absolute>
    <NoteOn Channel="5" Note="64" Velocity="111"/>
  </Event>
  <Event>
    <Absolute>15616</Absolute>
    <NoteOff Channel="5" Note="64" Velocity="0"/>
  </Event>
  <Event>
    <Absolute>15616</Absolute>
    <NoteOn Channel="5" Note="64" Velocity="109"/>
  </Event>
  <Event>
    <Absolute>15744</Absolute>
    <NoteOff Channel="5" Note="64" Velocity="0"/>
  </Event>
  <Event>
    <Absolute>15744</Absolute>
    <NoteOn Channel="5" Note="64" Velocity="111"/>
  </Event>
  <Event>
    <Absolute>15872</Absolute>
    <NoteOff Channel="5" Note="64" Velocity="0"/>
  </Event>
  <Event>
    <Absolute>15872</Absolute>
    <NoteOn Channel="5" Note="64" Velocity="115"/>
  </Event>
  <Event>
    <Absolute>16000</Absolute>
    <NoteOn Channel="5" Note="62" Velocity="104"/>
  </Event>
  <Event>
    <Absolute>16002</Absolute>
    <NoteOff Channel="5" Note="64" Velocity="0"/>
  </Event>
  <Event>
    <Absolute>16121</Absolute>
    <NoteOff Channel="5" Note="62" Velocity="0"/>
  </Event>
  <Event>
    <Absolute>16128</Absolute>
    <NoteOn Channel="5" Note="60" Velocity="106"/>
  </Event>
  <Event>
    <Absolute>16384</Absolute>
    <NoteOff Channel="5" Note="60" Velocity="0"/>
  </Event>
  <Event>
    <Absolute>16384</Absolute>
    <NoteOn Channel="5" Note="60" Velocity="109"/>
  </Event>
  <Event>
    <Absolute>16512</Absolute>
    <NoteOff Channel="5" Note="60" Velocity="0"/>
  </Event>
  <Event>
    <Absolute>16512</Absolute>
    <NoteOn Channel="5" Note="60" Velocity="114"/>
  </Event>
  <Event>
    <Absolute>16640</Absolute>
    <NoteOff Channel="5" Note="60" Velocity="0"/>
  </Event>
  <Event>
    <Absolute>16640</Absolute>
    <NoteOn Channel="5" Note="59" Velocity="109"/>
  </Event>
  <Event>
    <Absolute>16768</Absolute>
    <NoteOn Channel="5" Note="57" Velocity="106"/>
  </Event>
  <Event>
    <Absolute>16770</Absolute>
    <NoteOff Channel="5" Note="59" Velocity="0"/>
  </Event>
  <Event>
    <Absolute>16889</Absolute>
    <NoteOff Channel="5" Note="57" Velocity="0"/>
  </Event>
  <Event>
    <Absolute>16896</Absolute>
    <NoteOn Channel="5" Note="57" Velocity="115"/>
  </Event>
  <Event>
    <Absolute>17152</Absolute>
    <NoteOff Channel="5" Note="57" Velocity="0"/>
  </Event>
  <Event>
    <Absolute>17152</Absolute>
    <NoteOn Channel="5" Note="57" Velocity="114"/>
  </Event>
  <Event>
    <Absolute>17280</Absolute>
    <NoteOff Channel="5" Note="57" Velocity="0"/>
  </Event>
  <Event>
    <Absolute>17280</Absolute>
    <NoteOn Channel="5" Note="57" Velocity="112"/>
  </Event>
  <Event>
    <Absolute>17408</Absolute>
    <NoteOff Channel="5" Note="57" Velocity="0"/>
  </Event>
  <Event>
    <Absolute>17408</Absolute>
    <NoteOn Channel="5" Note="60" Velocity="123"/>
  </Event>
  <Event>
    <Absolute>17536</Absolute>
    <NoteOn Channel="5" Note="59" Velocity="123"/>
  </Event>
  <Event>
    <Absolute>17538</Absolute>
    <NoteOff Channel="5" Note="60" Velocity="0"/>
  </Event>
  <Event>
    <Absolute>17657</Absolute>
    <NoteOff Channel="5" Note="59" Velocity="0"/>
  </Event>
  <Event>
    <Absolute>17664</Absolute>
    <NoteOn Channel="5" Note="57" Velocity="110"/>
  </Event>
  <Event>
    <Absolute>17920</Absolute>
    <NoteOff Channel="5" Note="57" Velocity="0"/>
  </Event>
  <Event>
    <Absolute>17920</Absolute>
    <NoteOn Channel="5" Note="59" Velocity="113"/>
  </Event>
  <Event>
    <Absolute>18048</Absolute>
    <NoteOff Channel="5" Note="59" Velocity="0"/>
  </Event>
  <Event>
    <Absolute>18048</Absolute>
    <NoteOn Channel="5" Note="57" Velocity="106"/>
  </Event>
  <Event>
    <Absolute>18176</Absolute>
    <NoteOff Channel="5" Note="57" Velocity="0"/>
  </Event>
  <Event>
    <Absolute>18176</Absolute>
    <NoteOn Channel="5" Note="52" Velocity="104"/>
  </Event>
  <Event>
    <Absolute>18432</Absolute>
    <NoteOff Channel="5" Note="52" Velocity="0"/>
  </Event>
  <Event>
    <Absolute>18432</Absolute>
    <NoteOn Channel="5" Note="52" Velocity="78"/>
  </Event>
  <Event>
    <Absolute>19200</Absolute>
    <NoteOn Channel="5" Note="54" Velocity="81"/>
  </Event>
  <Event>
    <Absolute>19215</Absolute>
    <NoteOff Channel="5" Note="52" Velocity="0"/>
  </Event>
  <Event>
    <Absolute>19456</Absolute>
    <NoteOn Channel="5" Note="56" Velocity="79"/>
  </Event>
  <Event>
    <Absolute>19461</Absolute>
    <NoteOff Channel="5" Note="54" Velocity="0"/>
  </Event>
  <Event>
    <Absolute>19712</Absolute>
    <NoteOn Channel="5" Note="57" Velocity="81"/>
  </Event>
  <Event>
    <Absolute>19717</Absolute>
    <NoteOff Channel="5" Note="56" Velocity="0"/>
  </Event>
  <Event>
    <Absolute>19955</Absolute>
    <NoteOff Channel="5" Note="57" Velocity="0"/>
  </Event>
  <Event>
    <Absolute>19968</Absolute>
    <NoteOn Channel="5" Note="52" Velocity="71"/>
  </Event>
  <Event>
    <Absolute>20736</Absolute>
    <NoteOn Channel="5" Note="54" Velocity="72"/>
  </Event>
  <Event>
    <Absolute>20751</Absolute>
    <NoteOff Channel="5" Note="52" Velocity="0"/>
  </Event>
  <Event>
    <Absolute>20992</Absolute>
    <NoteOn Channel="5" Note="56" Velocity="88"/>
  </Event>
  <Event>
    <Absolute>20997</Absolute>
    <NoteOff Channel="5" Note="54" Velocity="0"/>
  </Event>
  <Event>
    <Absolute>21248</Absolute>
    <NoteOn Channel="5" Note="57" Velocity="89"/>
  </Event>
  <Event>
    <Absolute>21253</Absolute>
    <NoteOff Channel="5" Note="56" Velocity="0"/>
  </Event>
  <Event>
    <Absolute>21491</Absolute>
    <NoteOff Channel="5" Note="57" Velocity="0"/>
  </Event>
  <Event>
    <Absolute>21504</Absolute>
    <NoteOn Channel="5" Note="57" Velocity="41"/>
  </Event>
  <Event>
    <Absolute>22272</Absolute>
    <NoteOff Channel="5" Note="57" Velocity="0"/>
  </Event>
  <Event>
    <Absolute>22272</Absolute>
    <NoteOn Channel="5" Note="57" Velocity="50"/>
  </Event>
  <Event>
    <Absolute>23040</Absolute>
    <NoteOff Channel="5" Note="57" Velocity="0"/>
  </Event>
  <Event>
    <Absolute>23040</Absolute>
    <NoteOn Channel="5" Note="57" Velocity="45"/>
  </Event>
  <Event>
    <Absolute>23808</Absolute>
    <NoteOff Channel="5" Note="57" Velocity="0"/>
  </Event>
  <Event>
    <Absolute>23808</Absolute>
    <NoteOn Channel="5" Note="57" Velocity="46"/>
  </Event>
  <Event>
    <Absolute>24576</Absolute>
    <NoteOff Channel="5" Note="57" Velocity="0"/>
  </Event>
  <Event>
    <Absolute>24576</Absolute>
    <NoteOn Channel="5" Note="57" Velocity="49"/>
  </Event>
  <Event>
    <Absolute>27648</Absolute>
    <NoteOff Channel="5" Note="57" Velocity="0"/>
  </Event>
  <Event>
    <Absolute>27648</Absolute>
    <NoteOn Channel="5" Note="69" Velocity="127"/>
  </Event>
  <Event>
    <Absolute>28416</Absolute>
    <NoteOff Channel="5" Note="69" Velocity="0"/>
  </Event>
  <Event>
    <Absolute>28416</Absolute>
    <NoteOn Channel="5" Note="67" Velocity="106"/>
  </Event>
  <Event>
    <Absolute>29184</Absolute>
    <NoteOff Channel="5" Note="67" Velocity="0"/>
  </Event>
  <Event>
    <Absolute>29184</Absolute>
    <NoteOn Channel="5" Note="65" Velocity="70"/>
  </Event>
  <Event>
    <Absolute>29952</Absolute>
    <NoteOff Channel="5" Note="65" Velocity="0"/>
  </Event>
  <Event>
    <Absolute>29952</Absolute>
    <NoteOn Channel="5" Note="64" Velocity="60"/>
  </Event>
  <Event>
    <Absolute>30720</Absolute>
    <NoteOff Channel="5" Note="64" Velocity="0"/>
  </Event>
  <Event>
    <Absolute>30720</Absolute>
    <NoteOn Channel="5" Note="65" Velocity="63"/>
  </Event>
  <Event>
    <Absolute>31488</Absolute>
    <NoteOff Channel="5" Note="65" Velocity="0"/>
  </Event>
  <Event>
    <Absolute>31488</Absolute>
    <NoteOn Channel="5" Note="64" Velocity="53"/>
  </Event>
  <Event>
    <Absolute>32256</Absolute>
    <NoteOff Channel="5" Note="64" Velocity="0"/>
  </Event>
  <Event>
    <Absolute>32256</Absolute>
    <NoteOn Channel="5" Note="62" Velocity="56"/>
  </Event>
  <Event>
    <Absolute>33024</Absolute>
    <NoteOff Channel="5" Note="62" Velocity="0"/>
  </Event>
  <Event>
    <Absolute>33024</Absolute>
    <NoteOn Channel="5" Note="57" Velocity="58"/>
  </Event>
  <Event>
    <Absolute>33792</Absolute>
    <NoteOff Channel="5" Note="57" Velocity="0"/>
  </Event>
  <Event>
    <Absolute>33792</Absolute>
    <NoteOn Channel="5" Note="53" Velocity="77"/>
  </Event>
  <Event>
    <Absolute>34560</Absolute>
    <NoteOff Channel="5" Note="53" Velocity="0"/>
  </Event>
  <Event>
    <Absolute>34560</Absolute>
    <NoteOn Channel="5" Note="57" Velocity="106"/>
  </Event>
  <Event>
    <Absolute>35328</Absolute>
    <NoteOff Channel="5" Note="57" Velocity="0"/>
  </Event>
  <Event>
    <Absolute>35328</Absolute>
    <NoteOn Channel="5" Note="57" Velocity="96"/>
  </Event>
  <Event>
    <Absolute>36096</Absolute>
    <NoteOff Channel="5" Note="57" Velocity="0"/>
  </Event>
  <Event>
    <Absolute>36096</Absolute>
    <NoteOn Channel="5" Note="57" Velocity="98"/>
  </Event>
  <Event>
    <Absolute>36864</Absolute>
    <NoteOff Channel="5" Note="57" Velocity="0"/>
  </Event>
  <Event>
    <Absolute>36864</Absolute>
    <NoteOn Channel="5" Note="64" Velocity="116"/>
  </Event>
  <Event>
    <Absolute>37632</Absolute>
    <NoteOn Channel="5" Note="66" Velocity="106"/>
  </Event>
  <Event>
    <Absolute>37647</Absolute>
    <NoteOff Channel="5" Note="64" Velocity="0"/>
  </Event>
  <Event>
    <Absolute>38361</Absolute>
    <NoteOff Channel="5" Note="66" Velocity="0"/>
  </Event>
  <Event>
    <Absolute>38400</Absolute>
    <NoteOn Channel="5" Note="67" Velocity="114"/>
  </Event>
  <Event>
    <Absolute>38656</Absolute>
    <NoteOn Channel="5" Note="65" Velocity="104"/>
  </Event>
  <Event>
    <Absolute>38661</Absolute>
    <NoteOff Channel="5" Note="67" Velocity="0"/>
  </Event>
  <Event>
    <Absolute>38899</Absolute>
    <NoteOff Channel="5" Note="65" Velocity="0"/>
  </Event>
  <Event>
    <Absolute>38912</Absolute>
    <NoteOn Channel="5" Note="64" Velocity="104"/>
  </Event>
  <Event>
    <Absolute>39168</Absolute>
    <NoteOff Channel="5" Note="64" Velocity="0"/>
  </Event>
  <Event>
    <Absolute>39168</Absolute>
    <NoteOn Channel="5" Note="69" Velocity="126"/>
  </Event>
  <Event>
    <Absolute>39296</Absolute>
    <NoteOn Channel="5" Note="67" Velocity="124"/>
  </Event>
  <Event>
    <Absolute>39298</Absolute>
    <NoteOff Channel="5" Note="69" Velocity="0"/>
  </Event>
  <Event>
    <Absolute>39424</Absolute>
    <NoteOn Channel="5" Note="65" Velocity="104"/>
  </Event>
  <Event>
    <Absolute>39426</Absolute>
    <NoteOff Channel="5" Note="67" Velocity="0"/>
  </Event>
  <Event>
    <Absolute>39680</Absolute>
    <NoteOn Channel="5" Note="64" Velocity="103"/>
  </Event>
  <Event>
    <Absolute>39685</Absolute>
    <NoteOff Channel="5" Note="65" Velocity="0"/>
  </Event>
  <Event>
    <Absolute>39923</Absolute>
    <NoteOff Channel="5" Note="64" Velocity="0"/>
  </Event>
  <Event>
    <Absolute>39936</Absolute>
    <NoteOn Channel="5" Note="64" Velocity="111"/>
  </Event>
  <Event>
    <Absolute>40192</Absolute>
    <NoteOff Channel="5" Note="64" Velocity="0"/>
  </Event>
  <Event>
    <Absolute>40192</Absolute>
    <NoteOn Channel="5" Note="64" Velocity="111"/>
  </Event>
  <Event>
    <Absolute>40320</Absolute>
    <NoteOff Channel="5" Note="64" Velocity="0"/>
  </Event>
  <Event>
    <Absolute>40320</Absolute>
    <NoteOn Channel="5" Note="64" Velocity="114"/>
  </Event>
  <Event>
    <Absolute>40448</Absolute>
    <NoteOff Channel="5" Note="64" Velocity="0"/>
  </Event>
  <Event>
    <Absolute>40448</Absolute>
    <NoteOn Channel="5" Note="64" Velocity="112"/>
  </Event>
  <Event>
    <Absolute>40576</Absolute>
    <NoteOn Channel="5" Note="62" Velocity="105"/>
  </Event>
  <Event>
    <Absolute>40578</Absolute>
    <NoteOff Channel="5" Note="64" Velocity="0"/>
  </Event>
  <Event>
    <Absolute>40697</Absolute>
    <NoteOff Channel="5" Note="62" Velocity="0"/>
  </Event>
  <Event>
    <Absolute>40704</Absolute>
    <NoteOn Channel="5" Note="60" Velocity="110"/>
  </Event>
  <Event>
    <Absolute>40960</Absolute>
    <NoteOff Channel="5" Note="60" Velocity="0"/>
  </Event>
  <Event>
    <Absolute>40960</Absolute>
    <NoteOn Channel="5" Note="60" Velocity="108"/>
  </Event>
  <Event>
    <Absolute>41088</Absolute>
    <NoteOff Channel="5" Note="60" Velocity="0"/>
  </Event>
  <Event>
    <Absolute>41088</Absolute>
    <NoteOn Channel="5" Note="60" Velocity="114"/>
  </Event>
  <Event>
    <Absolute>41216</Absolute>
    <NoteOff Channel="5" Note="60" Velocity="0"/>
  </Event>
  <Event>
    <Absolute>41216</Absolute>
    <NoteOn Channel="5" Note="59" Velocity="113"/>
  </Event>
  <Event>
    <Absolute>41344</Absolute>
    <NoteOn Channel="5" Note="57" Velocity="107"/>
  </Event>
  <Event>
    <Absolute>41346</Absolute>
    <NoteOff Channel="5" Note="59" Velocity="0"/>
  </Event>
  <Event>
    <Absolute>41465</Absolute>
    <NoteOff Channel="5" Note="57" Velocity="0"/>
  </Event>
  <Event>
    <Absolute>41472</Absolute>
    <NoteOn Channel="5" Note="57" Velocity="111"/>
  </Event>
  <Event>
    <Absolute>41728</Absolute>
    <NoteOff Channel="5" Note="57" Velocity="0"/>
  </Event>
  <Event>
    <Absolute>41728</Absolute>
    <NoteOn Channel="5" Note="57" Velocity="112"/>
  </Event>
  <Event>
    <Absolute>41856</Absolute>
    <NoteOff Channel="5" Note="57" Velocity="0"/>
  </Event>
  <Event>
    <Absolute>41856</Absolute>
    <NoteOn Channel="5" Note="57" Velocity="115"/>
  </Event>
  <Event>
    <Absolute>41984</Absolute>
    <NoteOff Channel="5" Note="57" Velocity="0"/>
  </Event>
  <Event>
    <Absolute>41984</Absolute>
    <NoteOn Channel="5" Note="60" Velocity="121"/>
  </Event>
  <Event>
    <Absolute>42112</Absolute>
    <NoteOn Channel="5" Note="59" Velocity="122"/>
  </Event>
  <Event>
    <Absolute>42114</Absolute>
    <NoteOff Channel="5" Note="60" Velocity="0"/>
  </Event>
  <Event>
    <Absolute>42233</Absolute>
    <NoteOff Channel="5" Note="59" Velocity="0"/>
  </Event>
  <Event>
    <Absolute>42240</Absolute>
    <NoteOn Channel="5" Note="57" Velocity="107"/>
  </Event>
  <Event>
    <Absolute>42496</Absolute>
    <NoteOff Channel="5" Note="57" Velocity="0"/>
  </Event>
  <Event>
    <Absolute>42496</Absolute>
    <NoteOn Channel="5" Note="59" Velocity="115"/>
  </Event>
  <Event>
    <Absolute>42624</Absolute>
    <NoteOff Channel="5" Note="59" Velocity="0"/>
  </Event>
  <Event>
    <Absolute>42624</Absolute>
    <NoteOn Channel="5" Note="57" Velocity="106"/>
  </Event>
  <Event>
    <Absolute>42752</Absolute>
    <NoteOff Channel="5" Note="57" Velocity="0"/>
  </Event>
  <Event>
    <Absolute>42752</Absolute>
    <NoteOn Channel="5" Note="52" Velocity="101"/>
  </Event>
  <Event>
    <Absolute>43008</Absolute>
    <NoteOff Channel="5" Note="52" Velocity="0"/>
  </Event>
  <Event>
    <Absolute>43008</Absolute>
    <NoteOn Channel="5" Note="52" Velocity="82"/>
  </Event>
  <Event>
    <Absolute>43776</Absolute>
    <NoteOn Channel="5" Note="54" Velocity="85"/>
  </Event>
  <Event>
    <Absolute>43791</Absolute>
    <NoteOff Channel="5" Note="52" Velocity="0"/>
  </Event>
  <Event>
    <Absolute>44032</Absolute>
    <NoteOn Channel="5" Note="56" Velocity="82"/>
  </Event>
  <Event>
    <Absolute>44037</Absolute>
    <NoteOff Channel="5" Note="54" Velocity="0"/>
  </Event>
  <Event>
    <Absolute>44288</Absolute>
    <NoteOn Channel="5" Note="57" Velocity="83"/>
  </Event>
  <Event>
    <Absolute>44293</Absolute>
    <NoteOff Channel="5" Note="56" Velocity="0"/>
  </Event>
  <Event>
    <Absolute>44531</Absolute>
    <NoteOff Channel="5" Note="57" Velocity="0"/>
  </Event>
  <Event>
    <Absolute>44544</Absolute>
    <NoteOn Channel="5" Note="52" Velocity="73"/>
  </Event>
  <Event>
    <Absolute>45312</Absolute>
    <NoteOn Channel="5" Note="54" Velocity="76"/>
  </Event>
  <Event>
    <Absolute>45327</Absolute>
    <NoteOff Channel="5" Note="52" Velocity="0"/>
  </Event>
  <Event>
    <Absolute>45568</Absolute>
    <NoteOn Channel="5" Note="56" Velocity="81"/>
  </Event>
  <Event>
    <Absolute>45573</Absolute>
    <NoteOff Channel="5" Note="54" Velocity="0"/>
  </Event>
  <Event>
    <Absolute>45824</Absolute>
    <NoteOn Channel="5" Note="57" Velocity="83"/>
  </Event>
  <Event>
    <Absolute>45829</Absolute>
    <NoteOff Channel="5" Note="56" Velocity="0"/>
  </Event>
  <Event>
    <Absolute>46067</Absolute>
    <NoteOff Channel="5" Note="57" Velocity="0"/>
  </Event>
  <Event>
    <Absolute>46080</Absolute>
    <NoteOn Channel="5" Note="57" Velocity="47"/>
  </Event>
  <Event>
    <Absolute>46848</Absolute>
    <NoteOff Channel="5" Note="57" Velocity="0"/>
  </Event>
  <Event>
    <Absolute>46848</Absolute>
    <NoteOn Channel="5" Note="57" Velocity="46"/>
  </Event>
  <Event>
    <Absolute>47616</Absolute>
    <NoteOff Channel="5" Note="57" Velocity="0"/>
  </Event>
  <Event>
    <Absolute>47616</Absolute>
    <NoteOn Channel="5" Note="57" Velocity="44"/>
  </Event>
  <Event>
    <Absolute>48384</Absolute>
    <NoteOff Channel="5" Note="57" Velocity="0"/>
  </Event>
  <Event>
    <Absolute>48384</Absolute>
    <NoteOn Channel="5" Note="57" Velocity="51"/>
  </Event>
  <Event>
    <Absolute>49152</Absolute>
    <NoteOff Channel="5" Note="57" Velocity="0"/>
  </Event>
  <Event>
    <Absolute>49152</Absolute>
    <NoteOn Channel="5" Note="57" Velocity="48"/>
  </Event>
  <Event>
    <Absolute>53376</Absolute>
    <NoteOff Channel="5" Note="57" Velocity="0"/>
  </Event>
  <Event>
    <Absolute>53377</Absolute>
    <EndOfTrack/>
  </Event>
</Track>
<Track Number="6">
  <Event>
    <Absolute>0</Absolute>
    <ControlChange Channel="6" Control="121" Value="0"/>
  </Event>
  <Event>
    <Absolute>0</Absolute>
    <ControlChange Channel="6" Control="64" Value="0"/>
  </Event>
  <Event>
    <Absolute>0</Absolute>
    <ControlChange Channel="6" Control="91" Value="62"/>
  </Event>
  <Event>
    <Absolute>0</Absolute>
    <ControlChange Channel="6" Control="10" Value="81"/>
  </Event>
  <Event>
    <Absolute>0</Absolute>
    <ControlChange Channel="6" Control="7" Value="105"/>
  </Event>
  <Event>
    <Absolute>0</Absolute>
    <TrackName>Trumpet in Bb</TrackName>
  </Event>
  <Event>
    <Absolute>3072</Absolute>
    <NoteOn Channel="6" Note="69" Velocity="99"/>
  </Event>
  <Event>
    <Absolute>3840</Absolute>
    <NoteOff Channel="6" Note="69" Velocity="0"/>
  </Event>
  <Event>
    <Absolute>3840</Absolute>
    <NoteOn Channel="6" Note="67" Velocity="93"/>
  </Event>
  <Event>
    <Absolute>4608</Absolute>
    <NoteOff Channel="6" Note="67" Velocity="0"/>
  </Event>
  <Event>
    <Absolute>4608</Absolute>
    <NoteOn Channel="6" Note="65" Velocity="73"/>
  </Event>
  <Event>
    <Absolute>5376</Absolute>
    <NoteOff Channel="6" Note="65" Velocity="0"/>
  </Event>
  <Event>
    <Absolute>5376</Absolute>
    <NoteOn Channel="6" Note="64" Velocity="57"/>
  </Event>
  <Event>
    <Absolute>6144</Absolute>
    <NoteOff Channel="6" Note="64" Velocity="0"/>
  </Event>
  <Event>
    <Absolute>6144</Absolute>
    <NoteOn Channel="6" Note="69" Velocity="68"/>
  </Event>
  <Event>
    <Absolute>6912</Absolute>
    <NoteOff Channel="6" Note="69" Velocity="0"/>
  </Event>
  <Event>
    <Absolute>6912</Absolute>
    <NoteOn Channel="6" Note="67" Velocity="52"/>
  </Event>
  <Event>
    <Absolute>7680</Absolute>
    <NoteOff Channel="6" Note="67" Velocity="0"/>
  </Event>
  <Event>
    <Absolute>7680</Absolute>
    <NoteOn Channel="6" Note="65" Velocity="57"/>
  </Event>
  <Event>
    <Absolute>8448</Absolute>
    <NoteOff Channel="6" Note="65" Velocity="0"/>
  </Event>
  <Event>
    <Absolute>8448</Absolute>
    <NoteOn Channel="6" Note="64" Velocity="57"/>
  </Event>
  <Event>
    <Absolute>9216</Absolute>
    <NoteOff Channel="6" Note="64" Velocity="0"/>
  </Event>
  <Event>
    <Absolute>9216</Absolute>
    <NoteOn Channel="6" Note="65" Velocity="80"/>
  </Event>
  <Event>
    <Absolute>9984</Absolute>
    <NoteOff Channel="6" Note="65" Velocity="0"/>
  </Event>
  <Event>
    <Absolute>9984</Absolute>
    <NoteOn Channel="6" Note="69" Velocity="104"/>
  </Event>
  <Event>
    <Absolute>10752</Absolute>
    <NoteOff Channel="6" Note="69" Velocity="0"/>
  </Event>
  <Event>
    <Absolute>10752</Absolute>
    <NoteOn Channel="6" Note="69" Velocity="99"/>
  </Event>
  <Event>
    <Absolute>11520</Absolute>
    <NoteOff Channel="6" Note="69" Velocity="0"/>
  </Event>
  <Event>
    <Absolute>11520</Absolute>
    <NoteOn Channel="6" Note="69" Velocity="97"/>
  </Event>
  <Event>
    <Absolute>12288</Absolute>
    <NoteOff Channel="6" Note="69" Velocity="0"/>
  </Event>
  <Event>
    <Absolute>12288</Absolute>
    <NoteOn Channel="6" Note="64" Velocity="83"/>
  </Event>
  <Event>
    <Absolute>13056</Absolute>
    <NoteOn Channel="6" Note="66" Velocity="99"/>
  </Event>
  <Event>
    <Absolute>13071</Absolute>
    <NoteOff Channel="6" Note="64" Velocity="0"/>
  </Event>
  <Event>
    <Absolute>13785</Absolute>
    <NoteOff Channel="6" Note="66" Velocity="0"/>
  </Event>
  <Event>
    <Absolute>13824</Absolute>
    <NoteOn Channel="6" Note="67" Velocity="113"/>
  </Event>
  <Event>
    <Absolute>14080</Absolute>
    <NoteOn Channel="6" Note="65" Velocity="106"/>
  </Event>
  <Event>
    <Absolute>14085</Absolute>
    <NoteOff Channel="6" Note="67" Velocity="0"/>
  </Event>
  <Event>
    <Absolute>14323</Absolute>
    <NoteOff Channel="6" Note="65" Velocity="0"/>
  </Event>
  <Event>
    <Absolute>14336</Absolute>
    <NoteOn Channel="6" Note="64" Velocity="107"/>
  </Event>
  <Event>
    <Absolute>14592</Absolute>
    <NoteOff Channel="6" Note="64" Velocity="0"/>
  </Event>
  <Event>
    <Absolute>14592</Absolute>
    <NoteOn Channel="6" Note="69" Velocity="127"/>
  </Event>
  <Event>
    <Absolute>14720</Absolute>
    <NoteOn Channel="6" Note="67" Velocity="122"/>
  </Event>
  <Event>
    <Absolute>14722</Absolute>
    <NoteOff Channel="6" Note="69" Velocity="0"/>
  </Event>
  <Event>
    <Absolute>14848</Absolute>
    <NoteOn Channel="6" Note="65" Velocity="104"/>
  </Event>
  <Event>
    <Absolute>14850</Absolute>
    <NoteOff Channel="6" Note="67" Velocity="0"/>
  </Event>
  <Event>
    <Absolute>15104</Absolute>
    <NoteOn Channel="6" Note="64" Velocity="98"/>
  </Event>
  <Event>
    <Absolute>15109</Absolute>
    <NoteOff Channel="6" Note="65" Velocity="0"/>
  </Event>
  <Event>
    <Absolute>15347</Absolute>
    <NoteOff Channel="6" Note="64" Velocity="0"/>
  </Event>
  <Event>
    <Absolute>15360</Absolute>
    <NoteOn Channel="6" Note="69" Velocity="127"/>
  </Event>
  <Event>
    <Absolute>15616</Absolute>
    <NoteOff Channel="6" Note="69" Velocity="0"/>
  </Event>
  <Event>
    <Absolute>15616</Absolute>
    <NoteOn Channel="6" Note="69" Velocity="114"/>
  </Event>
  <Event>
    <Absolute>15744</Absolute>
    <NoteOff Channel="6" Note="69" Velocity="0"/>
  </Event>
  <Event>
    <Absolute>15744</Absolute>
    <NoteOn Channel="6" Note="69" Velocity="111"/>
  </Event>
  <Event>
    <Absolute>15872</Absolute>
    <NoteOff Channel="6" Note="69" Velocity="0"/>
  </Event>
  <Event>
    <Absolute>15872</Absolute>
    <NoteOn Channel="6" Note="67" Velocity="104"/>
  </Event>
  <Event>
    <Absolute>16000</Absolute>
    <NoteOn Channel="6" Note="65" Velocity="97"/>
  </Event>
  <Event>
    <Absolute>16002</Absolute>
    <NoteOff Channel="6" Note="67" Velocity="0"/>
  </Event>
  <Event>
    <Absolute>16121</Absolute>
    <NoteOff Channel="6" Note="65" Velocity="0"/>
  </Event>
  <Event>
    <Absolute>16128</Absolute>
    <NoteOn Channel="6" Note="64" Velocity="104"/>
  </Event>
  <Event>
    <Absolute>16384</Absolute>
    <NoteOff Channel="6" Note="64" Velocity="0"/>
  </Event>
  <Event>
    <Absolute>16384</Absolute>
    <NoteOn Channel="6" Note="64" Velocity="108"/>
  </Event>
  <Event>
    <Absolute>16512</Absolute>
    <NoteOff Channel="6" Note="64" Velocity="0"/>
  </Event>
  <Event>
    <Absolute>16512</Absolute>
    <NoteOn Channel="6" Note="64" Velocity="110"/>
  </Event>
  <Event>
    <Absolute>16640</Absolute>
    <NoteOff Channel="6" Note="64" Velocity="0"/>
  </Event>
  <Event>
    <Absolute>16640</Absolute>
    <NoteOn Channel="6" Note="62" Velocity="103"/>
  </Event>
  <Event>
    <Absolute>16768</Absolute>
    <NoteOn Channel="6" Note="60" Velocity="93"/>
  </Event>
  <Event>
    <Absolute>16770</Absolute>
    <NoteOff Channel="6" Note="62" Velocity="0"/>
  </Event>
  <Event>
    <Absolute>16889</Absolute>
    <NoteOff Channel="6" Note="60" Velocity="0"/>
  </Event>
  <Event>
    <Absolute>16896</Absolute>
    <NoteOn Channel="6" Note="62" Velocity="121"/>
  </Event>
  <Event>
    <Absolute>17152</Absolute>
    <NoteOff Channel="6" Note="62" Velocity="0"/>
  </Event>
  <Event>
    <Absolute>17152</Absolute>
    <NoteOn Channel="6" Note="62" Velocity="110"/>
  </Event>
  <Event>
    <Absolute>17280</Absolute>
    <NoteOff Channel="6" Note="62" Velocity="0"/>
  </Event>
  <Event>
    <Absolute>17280</Absolute>
    <NoteOn Channel="6" Note="62" Velocity="108"/>
  </Event>
  <Event>
    <Absolute>17408</Absolute>
    <NoteOff Channel="6" Note="62" Velocity="0"/>
  </Event>
  <Event>
    <Absolute>17408</Absolute>
    <NoteOn Channel="6" Note="64" Velocity="121"/>
  </Event>
  <Event>
    <Absolute>17536</Absolute>
    <NoteOn Channel="6" Note="62" Velocity="112"/>
  </Event>
  <Event>
    <Absolute>17538</Absolute>
    <NoteOff Channel="6" Note="64" Velocity="0"/>
  </Event>
  <Event>
    <Absolute>17657</Absolute>
    <NoteOff Channel="6" Note="62" Velocity="0"/>
  </Event>
  <Event>
    <Absolute>17664</Absolute>
    <NoteOn Channel="6" Note="60" Velocity="102"/>
  </Event>
  <Event>
    <Absolute>17920</Absolute>
    <NoteOff Channel="6" Note="60" Velocity="0"/>
  </Event>
  <Event>
    <Absolute>17920</Absolute>
    <NoteOn Channel="6" Note="59" Velocity="102"/>
  </Event>
  <Event>
    <Absolute>18048</Absolute>
    <NoteOff Channel="6" Note="59" Velocity="0"/>
  </Event>
  <Event>
    <Absolute>18048</Absolute>
    <NoteOn Channel="6" Note="60" Velocity="114"/>
  </Event>
  <Event>
    <Absolute>18176</Absolute>
    <NoteOff Channel="6" Note="60" Velocity="0"/>
  </Event>
  <Event>
    <Absolute>18176</Absolute>
    <NoteOn Channel="6" Note="57" Velocity="108"/>
  </Event>
  <Event>
    <Absolute>18432</Absolute>
    <NoteOff Channel="6" Note="57" Velocity="0"/>
  </Event>
  <Event>
    <Absolute>23040</Absolute>
    <NoteOn Channel="6" Note="67" Velocity="59"/>
  </Event>
  <Event>
    <Absolute>23808</Absolute>
    <NoteOff Channel="6" Note="67" Velocity="0"/>
  </Event>
  <Event>
    <Absolute>23808</Absolute>
    <NoteOn Channel="6" Note="65" Velocity="48"/>
  </Event>
  <Event>
    <Absolute>24576</Absolute>
    <NoteOff Channel="6" Note="65" Velocity="0"/>
  </Event>
  <Event>
    <Absolute>24576</Absolute>
    <NoteOn Channel="6" Note="64" Velocity="44"/>
  </Event>
  <Event>
    <Absolute>27648</Absolute>
    <NoteOff Channel="6" Note="64" Velocity="0"/>
  </Event>
  <Event>
    <Absolute>27648</Absolute>
    <NoteOn Channel="6" Note="69" Velocity="116"/>
  </Event>
  <Event>
    <Absolute>28416</Absolute>
    <NoteOff Channel="6" Note="69" Velocity="0"/>
  </Event>
  <Event>
    <Absolute>28416</Absolute>
    <NoteOn Channel="6" Note="67" Velocity="106"/>
  </Event>
  <Event>
    <Absolute>29184</Absolute>
    <NoteOff Channel="6" Note="67" Velocity="0"/>
  </Event>
  <Event>
    <Absolute>29184</Absolute>
    <NoteOn Channel="6" Note="65" Velocity="70"/>
  </Event>
  <Event>
    <Absolute>29952</Absolute>
    <NoteOff Channel="6" Note="65" Velocity="0"/>
  </Event>
  <Event>
    <Absolute>29952</Absolute>
    <NoteOn Channel="6" Note="64" Velocity="57"/>
  </Event>
  <Event>
    <Absolute>30720</Absolute>
    <NoteOff Channel="6" Note="64" Velocity="0"/>
  </Event>
  <Event>
    <Absolute>30720</Absolute>
    <NoteOn Channel="6" Note="69" Velocity="69"/>
  </Event>
  <Event>
    <Absolute>31488</Absolute>
    <NoteOff Channel="6" Note="69" Velocity="0"/>
  </Event>
  <Event>
    <Absolute>31488</Absolute>
    <NoteOn Channel="6" Note="67" Velocity="60"/>
  </Event>
  <Event>
    <Absolute>32256</Absolute>
    <NoteOff Channel="6" Note="67" Velocity="0"/>
  </Event>
  <Event>
    <Absolute>32256</Absolute>
    <NoteOn Channel="6" Note="65" Velocity="59"/>
  </Event>
  <Event>
    <Absolute>33024</Absolute>
    <NoteOff Channel="6" Note="65" Velocity="0"/>
  </Event>
  <Event>
    <Absolute>33024</Absolute>
    <NoteOn Channel="6" Note="64" Velocity="57"/>
  </Event>
  <Event>
    <Absolute>33792</Absolute>
    <NoteOff Channel="6" Note="64" Velocity="0"/>
  </Event>
  <Event>
    <Absolute>33792</Absolute>
    <NoteOn Channel="6" Note="65" Velocity="83"/>
  </Event>
  <Event>
    <Absolute>34560</Absolute>
    <NoteOff Channel="6" Note="65" Velocity="0"/>
  </Event>
  <Event>
    <Absolute>34560</Absolute>
    <NoteOn Channel="6" Note="69" Velocity="110"/>
  </Event>
  <Event>
    <Absolute>35328</Absolute>
    <NoteOff Channel="6" Note="69" Velocity="0"/>
  </Event>
  <Event>
    <Absolute>35328</Absolute>
    <NoteOn Channel="6" Note="69" Velocity="99"/>
  </Event>
  <Event>
    <Absolute>36096</Absolute>
    <NoteOff Channel="6" Note="69" Velocity="0"/>
  </Event>
  <Event>
    <Absolute>36096</Absolute>
    <NoteOn Channel="6" Note="69" Velocity="99"/>
  </Event>
  <Event>
    <Absolute>36864</Absolute>
    <NoteOff Channel="6" Note="69" Velocity="0"/>
  </Event>
  <Event>
    <Absolute>36864</Absolute>
    <NoteOn Channel="6" Note="64" Velocity="85"/>
  </Event>
  <Event>
    <Absolute>37632</Absolute>
    <NoteOn Channel="6" Note="66" Velocity="101"/>
  </Event>
  <Event>
    <Absolute>37647</Absolute>
    <NoteOff Channel="6" Note="64" Velocity="0"/>
  </Event>
  <Event>
    <Absolute>38361</Absolute>
    <NoteOff Channel="6" Note="66" Velocity="0"/>
  </Event>
  <Event>
    <Absolute>38400</Absolute>
    <NoteOn Channel="6" Note="67" Velocity="113"/>
  </Event>
  <Event>
    <Absolute>38656</Absolute>
    <NoteOn Channel="6" Note="65" Velocity="109"/>
  </Event>
  <Event>
    <Absolute>38661</Absolute>
    <NoteOff Channel="6" Note="67" Velocity="0"/>
  </Event>
  <Event>
    <Absolute>38899</Absolute>
    <NoteOff Channel="6" Note="65" Velocity="0"/>
  </Event>
  <Event>
    <Absolute>38912</Absolute>
    <NoteOn Channel="6" Note="64" Velocity="105"/>
  </Event>
  <Event>
    <Absolute>39168</Absolute>
    <NoteOff Channel="6" Note="64" Velocity="0"/>
  </Event>
  <Event>
    <Absolute>39168</Absolute>
    <NoteOn Channel="6" Note="69" Velocity="125"/>
  </Event>
  <Event>
    <Absolute>39296</Absolute>
    <NoteOn Channel="6" Note="67" Velocity="114"/>
  </Event>
  <Event>
    <Absolute>39298</Absolute>
    <NoteOff Channel="6" Note="69" Velocity="0"/>
  </Event>
  <Event>
    <Absolute>39424</Absolute>
    <NoteOn Channel="6" Note="65" Velocity="105"/>
  </Event>
  <Event>
    <Absolute>39426</Absolute>
    <NoteOff Channel="6" Note="67" Velocity="0"/>
  </Event>
  <Event>
    <Absolute>39680</Absolute>
    <NoteOn Channel="6" Note="64" Velocity="101"/>
  </Event>
  <Event>
    <Absolute>39685</Absolute>
    <NoteOff Channel="6" Note="65" Velocity="0"/>
  </Event>
  <Event>
    <Absolute>39923</Absolute>
    <NoteOff Channel="6" Note="64" Velocity="0"/>
  </Event>
  <Event>
    <Absolute>39936</Absolute>
    <NoteOn Channel="6" Note="69" Velocity="127"/>
  </Event>
  <Event>
    <Absolute>40192</Absolute>
    <NoteOff Channel="6" Note="69" Velocity="0"/>
  </Event>
  <Event>
    <Absolute>40192</Absolute>
    <NoteOn Channel="6" Note="69" Velocity="114"/>
  </Event>
  <Event>
    <Absolute>40320</Absolute>
    <NoteOff Channel="6" Note="69" Velocity="0"/>
  </Event>
  <Event>
    <Absolute>40320</Absolute>
    <NoteOn Channel="6" Note="69" Velocity="116"/>
  </Event>
  <Event>
    <Absolute>40448</Absolute>
    <NoteOff Channel="6" Note="69" Velocity="0"/>
  </Event>
  <Event>
    <Absolute>40448</Absolute>
    <NoteOn Channel="6" Note="67" Velocity="105"/>
  </Event>
  <Event>
    <Absolute>40576</Absolute>
    <NoteOn Channel="6" Note="65" Velocity="98"/>
  </Event>
  <Event>
    <Absolute>40578</Absolute>
    <NoteOff Channel="6" Note="67" Velocity="0"/>
  </Event>
  <Event>
    <Absolute>40697</Absolute>
    <NoteOff Channel="6" Note="65" Velocity="0"/>
  </Event>
  <Event>
    <Absolute>40704</Absolute>
    <NoteOn Channel="6" Note="64" Velocity="113"/>
  </Event>
  <Event>
    <Absolute>40960</Absolute>
    <NoteOff Channel="6" Note="64" Velocity="0"/>
  </Event>
  <Event>
    <Absolute>40960</Absolute>
    <NoteOn Channel="6" Note="64" Velocity="113"/>
  </Event>
  <Event>
    <Absolute>41088</Absolute>
    <NoteOff Channel="6" Note="64" Velocity="0"/>
  </Event>
  <Event>
    <Absolute>41088</Absolute>
    <NoteOn Channel="6" Note="64" Velocity="109"/>
  </Event>
  <Event>
    <Absolute>41216</Absolute>
    <NoteOff Channel="6" Note="64" Velocity="0"/>
  </Event>
  <Event>
    <Absolute>41216</Absolute>
    <NoteOn Channel="6" Note="62" Velocity="103"/>
  </Event>
  <Event>
    <Absolute>41344</Absolute>
    <NoteOn Channel="6" Note="60" Velocity="99"/>
  </Event>
  <Event>
    <Absolute>41346</Absolute>
    <NoteOff Channel="6" Note="62" Velocity="0"/>
  </Event>
  <Event>
    <Absolute>41465</Absolute>
    <NoteOff Channel="6" Note="60" Velocity="0"/>
  </Event>
  <Event>
    <Absolute>41472</Absolute>
    <NoteOn Channel="6" Note="62" Velocity="116"/>
  </Event>
  <Event>
    <Absolute>41728</Absolute>
    <NoteOff Channel="6" Note="62" Velocity="0"/>
  </Event>
  <Event>
    <Absolute>41728</Absolute>
    <NoteOn Channel="6" Note="62" Velocity="115"/>
  </Event>
  <Event>
    <Absolute>41856</Absolute>
    <NoteOff Channel="6" Note="62" Velocity="0"/>
  </Event>
  <Event>
    <Absolute>41856</Absolute>
    <NoteOn Channel="6" Note="62" Velocity="112"/>
  </Event>
  <Event>
    <Absolute>41984</Absolute>
    <NoteOff Channel="6" Note="62" Velocity="0"/>
  </Event>
  <Event>
    <Absolute>41984</Absolute>
    <NoteOn Channel="6" Note="64" Velocity="115"/>
  </Event>
  <Event>
    <Absolute>42112</Absolute>
    <NoteOn Channel="6" Note="62" Velocity="103"/>
  </Event>
  <Event>
    <Absolute>42114</Absolute>
    <NoteOff Channel="6" Note="64" Velocity="0"/>
  </Event>
  <Event>
    <Absolute>42233</Absolute>
    <NoteOff Channel="6" Note="62" Velocity="0"/>
  </Event>
  <Event>
    <Absolute>42240</Absolute>
    <NoteOn Channel="6" Note="60" Velocity="106"/>
  </Event>
  <Event>
    <Absolute>42496</Absolute>
    <NoteOff Channel="6" Note="60" Velocity="0"/>
  </Event>
  <Event>
    <Absolute>42496</Absolute>
    <NoteOn Channel="6" Note="59" Velocity="106"/>
  </Event>
  <Event>
    <Absolute>42624</Absolute>
    <NoteOff Channel="6" Note="59" Velocity="0"/>
  </Event>
  <Event>
    <Absolute>42624</Absolute>
    <NoteOn Channel="6" Note="60" Velocity="118"/>
  </Event>
  <Event>
    <Absolute>42752</Absolute>
    <NoteOff Channel="6" Note="60" Velocity="0"/>
  </Event>
  <Event>
    <Absolute>42752</Absolute>
    <NoteOn Channel="6" Note="57" Velocity="108"/>
  </Event>
  <Event>
    <Absolute>43008</Absolute>
    <NoteOff Channel="6" Note="57" Velocity="0"/>
  </Event>
  <Event>
    <Absolute>47616</Absolute>
    <NoteOn Channel="6" Note="67" Velocity="61"/>
  </Event>
  <Event>
    <Absolute>48384</Absolute>
    <NoteOff Channel="6" Note="67" Velocity="0"/>
  </Event>
  <Event>
    <Absolute>48384</Absolute>
    <NoteOn Channel="6" Note="65" Velocity="46"/>
  </Event>
  <Event>
    <Absolute>49152</Absolute>
    <NoteOff Channel="6" Note="65" Velocity="0"/>
  </Event>
  <Event>
    <Absolute>49152</Absolute>
    <NoteOn Channel="6" Note="64" Velocity="49"/>
  </Event>
  <Event>
    <Absolute>53376</Absolute>
    <NoteOff Channel="6" Note="64" Velocity="0"/>
  </Event>
  <Event>
    <Absolute>53377</Absolute>
    <EndOfTrack/>
  </Event>
</Track>
<Track Number="7">
  <Event>
    <Absolute>0</Absolute>
    <ControlChange Channel="7" Control="121" Value="0"/>
  </Event>
  <Event>
    <Absolute>0</Absolute>
    <ControlChange Channel="7" Control="64" Value="0"/>
  </Event>
  <Event>
    <Absolute>0</Absolute>
    <ControlChange Channel="7" Control="91" Value="67"/>
  </Event>
  <Event>
    <Absolute>0</Absolute>
    <ControlChange Channel="7" Control="10" Value="74"/>
  </Event>
  <Event>
    <Absolute>0</Absolute>
    <ControlChange Channel="7" Control="7" Value="105"/>
  </Event>
  <Event>
    <Absolute>0</Absolute>
    <TrackName>Trombone</TrackName>
  </Event>
  <Event>
    <Absolute>6144</Absolute>
    <NoteOn Channel="7" Note="65" Velocity="96"/>
  </Event>
  <Event>
    <Absolute>6912</Absolute>
    <NoteOff Channel="7" Note="65" Velocity="0"/>
  </Event>
  <Event>
    <Absolute>6912</Absolute>
    <NoteOn Channel="7" Note="64" Velocity="73"/>
  </Event>
  <Event>
    <Absolute>7680</Absolute>
    <NoteOff Channel="7" Note="64" Velocity="0"/>
  </Event>
  <Event>
    <Absolute>7680</Absolute>
    <NoteOn Channel="7" Note="62" Velocity="55"/>
  </Event>
  <Event>
    <Absolute>8448</Absolute>
    <NoteOff Channel="7" Note="62" Velocity="0"/>
  </Event>
  <Event>
    <Absolute>8448</Absolute>
    <NoteOn Channel="7" Note="57" Velocity="57"/>
  </Event>
  <Event>
    <Absolute>9216</Absolute>
    <NoteOff Channel="7" Note="57" Velocity="0"/>
  </Event>
  <Event>
    <Absolute>9216</Absolute>
    <NoteOn Channel="7" Note="41" Velocity="62"/>
  </Event>
  <Event>
    <Absolute>9984</Absolute>
    <NoteOff Channel="7" Note="41" Velocity="0"/>
  </Event>
  <Event>
    <Absolute>9984</Absolute>
    <NoteOn Channel="7" Note="45" Velocity="102"/>
  </Event>
  <Event>
    <Absolute>10752</Absolute>
    <NoteOff Channel="7" Note="45" Velocity="0"/>
  </Event>
  <Event>
    <Absolute>10752</Absolute>
    <NoteOn Channel="7" Note="50" Velocity="103"/>
  </Event>
  <Event>
    <Absolute>11520</Absolute>
    <NoteOff Channel="7" Note="50" Velocity="0"/>
  </Event>
  <Event>
    <Absolute>11520</Absolute>
    <NoteOn Channel="7" Note="45" Velocity="95"/>
  </Event>
  <Event>
    <Absolute>12288</Absolute>
    <NoteOff Channel="7" Note="45" Velocity="0"/>
  </Event>
  <Event>
    <Absolute>12288</Absolute>
    <NoteOn Channel="7" Note="57" Velocity="102"/>
  </Event>
  <Event>
    <Absolute>13056</Absolute>
    <NoteOff Channel="7" Note="57" Velocity="0"/>
  </Event>
  <Event>
    <Absolute>13056</Absolute>
    <NoteOn Channel="7" Note="57" Velocity="97"/>
  </Event>
  <Event>
    <Absolute>13824</Absolute>
    <NoteOff Channel="7" Note="57" Velocity="0"/>
  </Event>
  <Event>
    <Absolute>13824</Absolute>
    <NoteOn Channel="7" Note="57" Velocity="108"/>
  </Event>
  <Event>
    <Absolute>14592</Absolute>
    <NoteOff Channel="7" Note="57" Velocity="0"/>
  </Event>
  <Event>
    <Absolute>14592</Absolute>
    <NoteOn Channel="7" Note="57" Velocity="110"/>
  </Event>
  <Event>
    <Absolute>15360</Absolute>
    <NoteOff Channel="7" Note="57" Velocity="0"/>
  </Event>
  <Event>
    <Absolute>15360</Absolute>
    <NoteOn Channel="7" Note="60" Velocity="121"/>
  </Event>
  <Event>
    <Absolute>15616</Absolute>
    <NoteOff Channel="7" Note="60" Velocity="0"/>
  </Event>
  <Event>
    <Absolute>15616</Absolute>
    <NoteOn Channel="7" Note="59" Velocity="106"/>
  </Event>
  <Event>
    <Absolute>15744</Absolute>
    <NoteOff Channel="7" Note="59" Velocity="0"/>
  </Event>
  <Event>
    <Absolute>15744</Absolute>
    <NoteOn Channel="7" Note="60" Velocity="119"/>
  </Event>
  <Event>
    <Absolute>15872</Absolute>
    <NoteOff Channel="7" Note="60" Velocity="0"/>
  </Event>
  <Event>
    <Absolute>15872</Absolute>
    <NoteOn Channel="7" Note="57" Velocity="110"/>
  </Event>
  <Event>
    <Absolute>16128</Absolute>
    <NoteOff Channel="7" Note="57" Velocity="0"/>
  </Event>
  <Event>
    <Absolute>16128</Absolute>
    <NoteOn Channel="7" Note="60" Velocity="124"/>
  </Event>
  <Event>
    <Absolute>16384</Absolute>
    <NoteOff Channel="7" Note="60" Velocity="0"/>
  </Event>
  <Event>
    <Absolute>16384</Absolute>
    <NoteOn Channel="7" Note="59" Velocity="109"/>
  </Event>
  <Event>
    <Absolute>16512</Absolute>
    <NoteOff Channel="7" Note="59" Velocity="0"/>
  </Event>
  <Event>
    <Absolute>16512</Absolute>
    <NoteOn Channel="7" Note="60" Velocity="119"/>
  </Event>
  <Event>
    <Absolute>16640</Absolute>
    <NoteOff Channel="7" Note="60" Velocity="0"/>
  </Event>
  <Event>
    <Absolute>16640</Absolute>
    <NoteOn Channel="7" Note="57" Velocity="107"/>
  </Event>
  <Event>
    <Absolute>16896</Absolute>
    <NoteOff Channel="7" Note="57" Velocity="0"/>
  </Event>
  <Event>
    <Absolute>16896</Absolute>
    <NoteOn Channel="7" Note="60" Velocity="119"/>
  </Event>
  <Event>
    <Absolute>17152</Absolute>
    <NoteOff Channel="7" Note="60" Velocity="0"/>
  </Event>
  <Event>
    <Absolute>17152</Absolute>
    <NoteOn Channel="7" Note="59" Velocity="107"/>
  </Event>
  <Event>
    <Absolute>17280</Absolute>
    <NoteOff Channel="7" Note="59" Velocity="0"/>
  </Event>
  <Event>
    <Absolute>17280</Absolute>
    <NoteOn Channel="7" Note="60" Velocity="115"/>
  </Event>
  <Event>
    <Absolute>17408</Absolute>
    <NoteOff Channel="7" Note="60" Velocity="0"/>
  </Event>
  <Event>
    <Absolute>17408</Absolute>
    <NoteOn Channel="7" Note="57" Velocity="103"/>
  </Event>
  <Event>
    <Absolute>17664</Absolute>
    <NoteOff Channel="7" Note="57" Velocity="0"/>
  </Event>
  <Event>
    <Absolute>17664</Absolute>
    <NoteOn Channel="7" Note="60" Velocity="126"/>
  </Event>
  <Event>
    <Absolute>17920</Absolute>
    <NoteOff Channel="7" Note="60" Velocity="0"/>
  </Event>
  <Event>
    <Absolute>17920</Absolute>
    <NoteOn Channel="7" Note="59" Velocity="112"/>
  </Event>
  <Event>
    <Absolute>18048</Absolute>
    <NoteOff Channel="7" Note="59" Velocity="0"/>
  </Event>
  <Event>
    <Absolute>18048</Absolute>
    <NoteOn Channel="7" Note="60" Velocity="117"/>
  </Event>
  <Event>
    <Absolute>18176</Absolute>
    <NoteOff Channel="7" Note="60" Velocity="0"/>
  </Event>
  <Event>
    <Absolute>18176</Absolute>
    <NoteOn Channel="7" Note="57" Velocity="108"/>
  </Event>
  <Event>
    <Absolute>18432</Absolute>
    <NoteOff Channel="7" Note="57" Velocity="0"/>
  </Event>
  <Event>
    <Absolute>21504</Absolute>
    <NoteOn Channel="7" Note="55" Velocity="47"/>
  </Event>
  <Event>
    <Absolute>22272</Absolute>
    <NoteOff Channel="7" Note="55" Velocity="0"/>
  </Event>
  <Event>
    <Absolute>22272</Absolute>
    <NoteOn Channel="7" Note="53" Velocity="49"/>
  </Event>
  <Event>
    <Absolute>23040</Absolute>
    <NoteOff Channel="7" Note="53" Velocity="0"/>
  </Event>
  <Event>
    <Absolute>23040</Absolute>
    <NoteOn Channel="7" Note="52" Velocity="51"/>
  </Event>
  <Event>
    <Absolute>23808</Absolute>
    <NoteOff Channel="7" Note="52" Velocity="0"/>
  </Event>
  <Event>
    <Absolute>23808</Absolute>
    <NoteOn Channel="7" Note="50" Velocity="48"/>
  </Event>
  <Event>
    <Absolute>24576</Absolute>
    <NoteOff Channel="7" Note="50" Velocity="0"/>
  </Event>
  <Event>
    <Absolute>24576</Absolute>
    <NoteOn Channel="7" Note="45" Velocity="44"/>
  </Event>
  <Event>
    <Absolute>27648</Absolute>
    <NoteOff Channel="7" Note="45" Velocity="0"/>
  </Event>
  <Event>
    <Absolute>30720</Absolute>
    <NoteOn Channel="7" Note="65" Velocity="127"/>
  </Event>
  <Event>
    <Absolute>31488</Absolute>
    <NoteOff Channel="7" Note="65" Velocity="0"/>
  </Event>
  <Event>
    <Absolute>31488</Absolute>
    <NoteOn Channel="7" Note="64" Velocity="76"/>
  </Event>
  <Event>
    <Absolute>32256</Absolute>
    <NoteOff Channel="7" Note="64" Velocity="0"/>
  </Event>
  <Event>
    <Absolute>32256</Absolute>
    <NoteOn Channel="7" Note="62" Velocity="59"/>
  </Event>
  <Event>
    <Absolute>33024</Absolute>
    <NoteOff Channel="7" Note="62" Velocity="0"/>
  </Event>
  <Event>
    <Absolute>33024</Absolute>
    <NoteOn Channel="7" Note="57" Velocity="58"/>
  </Event>
  <Event>
    <Absolute>33792</Absolute>
    <NoteOff Channel="7" Note="57" Velocity="0"/>
  </Event>
  <Event>
    <Absolute>33792</Absolute>
    <NoteOn Channel="7" Note="41" Velocity="63"/>
  </Event>
  <Event>
    <Absolute>34560</Absolute>
    <NoteOff Channel="7" Note="41" Velocity="0"/>
  </Event>
  <Event>
    <Absolute>34560</Absolute>
    <NoteOn Channel="7" Note="45" Velocity="95"/>
  </Event>
  <Event>
    <Absolute>35328</Absolute>
    <NoteOff Channel="7" Note="45" Velocity="0"/>
  </Event>
  <Event>
    <Absolute>35328</Absolute>
    <NoteOn Channel="7" Note="50" Velocity="106"/>
  </Event>
  <Event>
    <Absolute>36096</Absolute>
    <NoteOff Channel="7" Note="50" Velocity="0"/>
  </Event>
  <Event>
    <Absolute>36096</Absolute>
    <NoteOn Channel="7" Note="45" Velocity="95"/>
  </Event>
  <Event>
    <Absolute>36864</Absolute>
    <NoteOff Channel="7" Note="45" Velocity="0"/>
  </Event>
  <Event>
    <Absolute>36864</Absolute>
    <NoteOn Channel="7" Note="57" Velocity="107"/>
  </Event>
  <Event>
    <Absolute>37632</Absolute>
    <NoteOff Channel="7" Note="57" Velocity="0"/>
  </Event>
  <Event>
    <Absolute>37632</Absolute>
    <NoteOn Channel="7" Note="57" Velocity="95"/>
  </Event>
  <Event>
    <Absolute>38400</Absolute>
    <NoteOff Channel="7" Note="57" Velocity="0"/>
  </Event>
  <Event>
    <Absolute>38400</Absolute>
    <NoteOn Channel="7" Note="57" Velocity="112"/>
  </Event>
  <Event>
    <Absolute>39168</Absolute>
    <NoteOff Channel="7" Note="57" Velocity="0"/>
  </Event>
  <Event>
    <Absolute>39168</Absolute>
    <NoteOn Channel="7" Note="57" Velocity="110"/>
  </Event>
  <Event>
    <Absolute>39936</Absolute>
    <NoteOff Channel="7" Note="57" Velocity="0"/>
  </Event>
  <Event>
    <Absolute>39936</Absolute>
    <NoteOn Channel="7" Note="60" Velocity="124"/>
  </Event>
  <Event>
    <Absolute>40192</Absolute>
    <NoteOff Channel="7" Note="60" Velocity="0"/>
  </Event>
  <Event>
    <Absolute>40192</Absolute>
    <NoteOn Channel="7" Note="59" Velocity="109"/>
  </Event>
  <Event>
    <Absolute>40320</Absolute>
    <NoteOff Channel="7" Note="59" Velocity="0"/>
  </Event>
  <Event>
    <Absolute>40320</Absolute>
    <NoteOn Channel="7" Note="60" Velocity="120"/>
  </Event>
  <Event>
    <Absolute>40448</Absolute>
    <NoteOff Channel="7" Note="60" Velocity="0"/>
  </Event>
  <Event>
    <Absolute>40448</Absolute>
    <NoteOn Channel="7" Note="57" Velocity="111"/>
  </Event>
  <Event>
    <Absolute>40704</Absolute>
    <NoteOff Channel="7" Note="57" Velocity="0"/>
  </Event>
  <Event>
    <Absolute>40704</Absolute>
    <NoteOn Channel="7" Note="60" Velocity="126"/>
  </Event>
  <Event>
    <Absolute>40960</Absolute>
    <NoteOff Channel="7" Note="60" Velocity="0"/>
  </Event>
  <Event>
    <Absolute>40960</Absolute>
    <NoteOn Channel="7" Note="59" Velocity="111"/>
  </Event>
  <Event>
    <Absolute>41088</Absolute>
    <NoteOff Channel="7" Note="59" Velocity="0"/>
  </Event>
  <Event>
    <Absolute>41088</Absolute>
    <NoteOn Channel="7" Note="60" Velocity="116"/>
  </Event>
  <Event>
    <Absolute>41216</Absolute>
    <NoteOff Channel="7" Note="60" Velocity="0"/>
  </Event>
  <Event>
    <Absolute>41216</Absolute>
    <NoteOn Channel="7" Note="57" Velocity="109"/>
  </Event>
  <Event>
    <Absolute>41472</Absolute>
    <NoteOff Channel="7" Note="57" Velocity="0"/>
  </Event>
  <Event>
    <Absolute>41472</Absolute>
    <NoteOn Channel="7" Note="60" Velocity="124"/>
  </Event>
  <Event>
    <Absolute>41728</Absolute>
    <NoteOff Channel="7" Note="60" Velocity="0"/>
  </Event>
  <Event>
    <Absolute>41728</Absolute>
    <NoteOn Channel="7" Note="59" Velocity="109"/>
  </Event>
  <Event>
    <Absolute>41856</Absolute>
    <NoteOff Channel="7" Note="59" Velocity="0"/>
  </Event>
  <Event>
    <Absolute>41856</Absolute>
    <NoteOn Channel="7" Note="60" Velocity="119"/>
  </Event>
  <Event>
    <Absolute>41984</Absolute>
    <NoteOff Channel="7" Note="60" Velocity="0"/>
  </Event>
  <Event>
    <Absolute>41984</Absolute>
    <NoteOn Channel="7" Note="57" Velocity="113"/>
  </Event>
  <Event>
    <Absolute>42240</Absolute>
    <NoteOff Channel="7" Note="57" Velocity="0"/>
  </Event>
  <Event>
    <Absolute>42240</Absolute>
    <NoteOn Channel="7" Note="60" Velocity="118"/>
  </Event>
  <Event>
    <Absolute>42496</Absolute>
    <NoteOff Channel="7" Note="60" Velocity="0"/>
  </Event>
  <Event>
    <Absolute>42496</Absolute>
    <NoteOn Channel="7" Note="59" Velocity="110"/>
  </Event>
  <Event>
    <Absolute>42624</Absolute>
    <NoteOff Channel="7" Note="59" Velocity="0"/>
  </Event>
  <Event>
    <Absolute>42624</Absolute>
    <NoteOn Channel="7" Note="60" Velocity="113"/>
  </Event>
  <Event>
    <Absolute>42752</Absolute>
    <NoteOff Channel="7" Note="60" Velocity="0"/>
  </Event>
  <Event>
    <Absolute>42752</Absolute>
    <NoteOn Channel="7" Note="57" Velocity="109"/>
  </Event>
  <Event>
    <Absolute>43008</Absolute>
    <NoteOff Channel="7" Note="57" Velocity="0"/>
  </Event>
  <Event>
    <Absolute>46080</Absolute>
    <NoteOn Channel="7" Note="55" Velocity="46"/>
  </Event>
  <Event>
    <Absolute>46848</Absolute>
    <NoteOff Channel="7" Note="55" Velocity="0"/>
  </Event>
  <Event>
    <Absolute>46848</Absolute>
    <NoteOn Channel="7" Note="53" Velocity="41"/>
  </Event>
  <Event>
    <Absolute>47616</Absolute>
    <NoteOff Channel="7" Note="53" Velocity="0"/>
  </Event>
  <Event>
    <Absolute>47616</Absolute>
    <NoteOn Channel="7" Note="52" Velocity="48"/>
  </Event>
  <Event>
    <Absolute>48384</Absolute>
    <NoteOff Channel="7" Note="52" Velocity="0"/>
  </Event>
  <Event>
    <Absolute>48384</Absolute>
    <NoteOn Channel="7" Note="50" Velocity="46"/>
  </Event>
  <Event>
    <Absolute>49152</Absolute>
    <NoteOff Channel="7" Note="50" Velocity="0"/>
  </Event>
  <Event>
    <Absolute>49152</Absolute>
    <NoteOn Channel="7" Note="45" Velocity="47"/>
  </Event>
  <Event>
    <Absolute>53376</Absolute>
    <NoteOff Channel="7" Note="45" Velocity="0"/>
  </Event>
  <Event>
    <Absolute>53377</Absolute>
    <EndOfTrack/>
  </Event>
</Track>
<Track Number="8">
  <Event>
    <Absolute>0</Absolute>
    <ControlChange Channel="8" Control="121" Value="0"/>
  </Event>
  <Event>
    <Absolute>0</Absolute>
    <ControlChange Channel="8" Control="64" Value="0"/>
  </Event>
  <Event>
    <Absolute>0</Absolute>
    <ControlChange Channel="8" Control="91" Value="48"/>
  </Event>
  <Event>
    <Absolute>0</Absolute>
    <ControlChange Channel="8" Control="10" Value="16"/>
  </Event>
  <Event>
    <Absolute>0</Absolute>
    <ControlChange Channel="8" Control="7" Value="100"/>
  </Event>
  <Event>
    <Absolute>0</Absolute>
    <TrackName>Violin 1</TrackName>
  </Event>
  <Event>
    <Absolute>0</Absolute>
    <NoteOn Channel="8" Note="72" Velocity="59"/>
  </Event>
  <Event>
    <Absolute>256</Absolute>
    <NoteOff Channel="8" Note="72" Velocity="0"/>
  </Event>
  <Event>
    <Absolute>256</Absolute>
    <NoteOn Channel="8" Note="71" Velocity="58"/>
  </Event>
  <Event>
    <Absolute>384</Absolute>
    <NoteOff Channel="8" Note="71" Velocity="0"/>
  </Event>
  <Event>
    <Absolute>384</Absolute>
    <NoteOn Channel="8" Note="72" Velocity="64"/>
  </Event>
  <Event>
    <Absolute>512</Absolute>
    <NoteOff Channel="8" Note="72" Velocity="0"/>
  </Event>
  <Event>
    <Absolute>512</Absolute>
    <NoteOn Channel="8" Note="69" Velocity="60"/>
  </Event>
  <Event>
    <Absolute>768</Absolute>
    <NoteOff Channel="8" Note="69" Velocity="0"/>
  </Event>
  <Event>
    <Absolute>768</Absolute>
    <NoteOn Channel="8" Note="72" Velocity="69"/>
  </Event>
  <Event>
    <Absolute>1024</Absolute>
    <NoteOff Channel="8" Note="72" Velocity="0"/>
  </Event>
  <Event>
    <Absolute>1024</Absolute>
    <NoteOn Channel="8" Note="71" Velocity="62"/>
  </Event>
  <Event>
    <Absolute>1152</Absolute>
    <NoteOff Channel="8" Note="71" Velocity="0"/>
  </Event>
  <Event>
    <Absolute>1152</Absolute>
    <NoteOn Channel="8" Note="72" Velocity="69"/>
  </Event>
  <Event>
    <Absolute>1280</Absolute>
    <NoteOff Channel="8" Note="72" Velocity="0"/>
  </Event>
  <Event>
    <Absolute>1280</Absolute>
    <NoteOn Channel="8" Note="69" Velocity="58"/>
  </Event>
  <Event>
    <Absolute>1536</Absolute>
    <NoteOff Channel="8" Note="69" Velocity="0"/>
  </Event>
  <Event>
    <Absolute>1536</Absolute>
    <NoteOn Channel="8" Note="72" Velocity="68"/>
  </Event>
  <Event>
    <Absolute>1792</Absolute>
    <NoteOff Channel="8" Note="72" Velocity="0"/>
  </Event>
  <Event>
    <Absolute>1792</Absolute>
    <NoteOn Channel="8" Note="71" Velocity="58"/>
  </Event>
  <Event>
    <Absolute>1920</Absolute>
    <NoteOff Channel="8" Note="71" Velocity="0"/>
  </Event>
  <Event>
    <Absolute>1920</Absolute>
    <NoteOn Channel="8" Note="72" Velocity="67"/>
  </Event>
  <Event>
    <Absolute>2048</Absolute>
    <NoteOff Channel="8" Note="72" Velocity="0"/>
  </Event>
  <Event>
    <Absolute>2048</Absolute>
    <NoteOn Channel="8" Note="69" Velocity="59"/>
  </Event>
  <Event>
    <Absolute>2304</Absolute>
    <NoteOff Channel="8" Note="69" Velocity="0"/>
  </Event>
  <Event>
    <Absolute>2304</Absolute>
    <NoteOn Channel="8" Note="72" Velocity="65"/>
  </Event>
  <Event>
    <Absolute>2560</Absolute>
    <NoteOff Channel="8" Note="72" Velocity="0"/>
  </Event>
  <Event>
    <Absolute>2560</Absolute>
    <NoteOn Channel="8" Note="71" Velocity="61"/>
  </Event>
  <Event>
    <Absolute>2688</Absolute>
    <NoteOff Channel="8" Note="71" Velocity="0"/>
  </Event>
  <Event>
    <Absolute>2688</Absolute>
    <NoteOn Channel="8" Note="72" Velocity="68"/>
  </Event>
  <Event>
    <Absolute>2816</Absolute>
    <NoteOff Channel="8" Note="72" Velocity="0"/>
  </Event>
  <Event>
    <Absolute>2816</Absolute>
    <NoteOn Channel="8" Note="69" Velocity="56"/>
  </Event>
  <Event>
    <Absolute>3072</Absolute>
    <NoteOff Channel="8" Note="69" Velocity="0"/>
  </Event>
  <Event>
    <Absolute>3072</Absolute>
    <NoteOn Channel="8" Note="72" Velocity="70"/>
  </Event>
  <Event>
    <Absolute>3328</Absolute>
    <NoteOff Channel="8" Note="72" Velocity="0"/>
  </Event>
  <Event>
    <Absolute>3328</Absolute>
    <NoteOn Channel="8" Note="71" Velocity="64"/>
  </Event>
  <Event>
    <Absolute>3456</Absolute>
    <NoteOff Channel="8" Note="71" Velocity="0"/>
  </Event>
  <Event>
    <Absolute>3456</Absolute>
    <NoteOn Channel="8" Note="72" Velocity="62"/>
  </Event>
  <Event>
    <Absolute>3584</Absolute>
    <NoteOff Channel="8" Note="72" Velocity="0"/>
  </Event>
  <Event>
    <Absolute>3584</Absolute>
    <NoteOn Channel="8" Note="69" Velocity="55"/>
  </Event>
  <Event>
    <Absolute>3840</Absolute>
    <NoteOff Channel="8" Note="69" Velocity="0"/>
  </Event>
  <Event>
    <Absolute>3840</Absolute>
    <NoteOn Channel="8" Note="72" Velocity="71"/>
  </Event>
  <Event>
    <Absolute>4096</Absolute>
    <NoteOff Channel="8" Note="72" Velocity="0"/>
  </Event>
  <Event>
    <Absolute>4096</Absolute>
    <NoteOn Channel="8" Note="71" Velocity="59"/>
  </Event>
  <Event>
    <Absolute>4224</Absolute>
    <NoteOff Channel="8" Note="71" Velocity="0"/>
  </Event>
  <Event>
    <Absolute>4224</Absolute>
    <NoteOn Channel="8" Note="72" Velocity="69"/>
  </Event>
  <Event>
    <Absolute>4352</Absolute>
    <NoteOff Channel="8" Note="72" Velocity="0"/>
  </Event>
  <Event>
    <Absolute>4352</Absolute>
    <NoteOn Channel="8" Note="69" Velocity="59"/>
  </Event>
  <Event>
    <Absolute>4608</Absolute>
    <NoteOff Channel="8" Note="69" Velocity="0"/>
  </Event>
  <Event>
    <Absolute>4608</Absolute>
    <NoteOn Channel="8" Note="72" Velocity="69"/>
  </Event>
  <Event>
    <Absolute>4864</Absolute>
    <NoteOff Channel="8" Note="72" Velocity="0"/>
  </Event>
  <Event>
    <Absolute>4864</Absolute>
    <NoteOn Channel="8" Note="71" Velocity="63"/>
  </Event>
  <Event>
    <Absolute>4992</Absolute>
    <NoteOff Channel="8" Note="71" Velocity="0"/>
  </Event>
  <Event>
    <Absolute>4992</Absolute>
    <NoteOn Channel="8" Note="72" Velocity="66"/>
  </Event>
  <Event>
    <Absolute>5120</Absolute>
    <NoteOff Channel="8" Note="72" Velocity="0"/>
  </Event>
  <Event>
    <Absolute>5120</Absolute>
    <NoteOn Channel="8" Note="69" Velocity="55"/>
  </Event>
  <Event>
    <Absolute>5376</Absolute>
    <NoteOff Channel="8" Note="69" Velocity="0"/>
  </Event>
  <Event>
    <Absolute>5376</Absolute>
    <NoteOn Channel="8" Note="72" Velocity="64"/>
  </Event>
  <Event>
    <Absolute>5632</Absolute>
    <NoteOff Channel="8" Note="72" Velocity="0"/>
  </Event>
  <Event>
    <Absolute>5632</Absolute>
    <NoteOn Channel="8" Note="71" Velocity="60"/>
  </Event>
  <Event>
    <Absolute>5760</Absolute>
    <NoteOff Channel="8" Note="71" Velocity="0"/>
  </Event>
  <Event>
    <Absolute>5760</Absolute>
    <NoteOn Channel="8" Note="72" Velocity="74"/>
  </Event>
  <Event>
    <Absolute>5888</Absolute>
    <NoteOff Channel="8" Note="72" Velocity="0"/>
  </Event>
  <Event>
    <Absolute>5888</Absolute>
    <NoteOn Channel="8" Note="69" Velocity="61"/>
  </Event>
  <Event>
    <Absolute>6144</Absolute>
    <NoteOff Channel="8" Note="69" Velocity="0"/>
  </Event>
  <Event>
    <Absolute>6144</Absolute>
    <NoteOn Channel="8" Note="72" Velocity="65"/>
  </Event>
  <Event>
    <Absolute>6400</Absolute>
    <NoteOff Channel="8" Note="72" Velocity="0"/>
  </Event>
  <Event>
    <Absolute>6400</Absolute>
    <NoteOn Channel="8" Note="71" Velocity="61"/>
  </Event>
  <Event>
    <Absolute>6528</Absolute>
    <NoteOff Channel="8" Note="71" Velocity="0"/>
  </Event>
  <Event>
    <Absolute>6528</Absolute>
    <NoteOn Channel="8" Note="72" Velocity="65"/>
  </Event>
  <Event>
    <Absolute>6656</Absolute>
    <NoteOff Channel="8" Note="72" Velocity="0"/>
  </Event>
  <Event>
    <Absolute>6656</Absolute>
    <NoteOn Channel="8" Note="69" Velocity="56"/>
  </Event>
  <Event>
    <Absolute>6912</Absolute>
    <NoteOff Channel="8" Note="69" Velocity="0"/>
  </Event>
  <Event>
    <Absolute>6912</Absolute>
    <NoteOn Channel="8" Note="72" Velocity="67"/>
  </Event>
  <Event>
    <Absolute>7168</Absolute>
    <NoteOff Channel="8" Note="72" Velocity="0"/>
  </Event>
  <Event>
    <Absolute>7168</Absolute>
    <NoteOn Channel="8" Note="71" Velocity="60"/>
  </Event>
  <Event>
    <Absolute>7296</Absolute>
    <NoteOff Channel="8" Note="71" Velocity="0"/>
  </Event>
  <Event>
    <Absolute>7296</Absolute>
    <NoteOn Channel="8" Note="72" Velocity="69"/>
  </Event>
  <Event>
    <Absolute>7424</Absolute>
    <NoteOff Channel="8" Note="72" Velocity="0"/>
  </Event>
  <Event>
    <Absolute>7424</Absolute>
    <NoteOn Channel="8" Note="69" Velocity="61"/>
  </Event>
  <Event>
    <Absolute>7680</Absolute>
    <NoteOff Channel="8" Note="69" Velocity="0"/>
  </Event>
  <Event>
    <Absolute>7680</Absolute>
    <NoteOn Channel="8" Note="72" Velocity="71"/>
  </Event>
  <Event>
    <Absolute>7936</Absolute>
    <NoteOff Channel="8" Note="72" Velocity="0"/>
  </Event>
  <Event>
    <Absolute>7936</Absolute>
    <NoteOn Channel="8" Note="71" Velocity="60"/>
  </Event>
  <Event>
    <Absolute>8064</Absolute>
    <NoteOff Channel="8" Note="71" Velocity="0"/>
  </Event>
  <Event>
    <Absolute>8064</Absolute>
    <NoteOn Channel="8" Note="72" Velocity="65"/>
  </Event>
  <Event>
    <Absolute>8192</Absolute>
    <NoteOff Channel="8" Note="72" Velocity="0"/>
  </Event>
  <Event>
    <Absolute>8192</Absolute>
    <NoteOn Channel="8" Note="69" Velocity="61"/>
  </Event>
  <Event>
    <Absolute>8448</Absolute>
    <NoteOff Channel="8" Note="69" Velocity="0"/>
  </Event>
  <Event>
    <Absolute>8448</Absolute>
    <NoteOn Channel="8" Note="72" Velocity="70"/>
  </Event>
  <Event>
    <Absolute>8704</Absolute>
    <NoteOff Channel="8" Note="72" Velocity="0"/>
  </Event>
  <Event>
    <Absolute>8704</Absolute>
    <NoteOn Channel="8" Note="71" Velocity="61"/>
  </Event>
  <Event>
    <Absolute>8832</Absolute>
    <NoteOff Channel="8" Note="71" Velocity="0"/>
  </Event>
  <Event>
    <Absolute>8832</Absolute>
    <NoteOn Channel="8" Note="72" Velocity="69"/>
  </Event>
  <Event>
    <Absolute>8960</Absolute>
    <NoteOff Channel="8" Note="72" Velocity="0"/>
  </Event>
  <Event>
    <Absolute>8960</Absolute>
    <NoteOn Channel="8" Note="69" Velocity="61"/>
  </Event>
  <Event>
    <Absolute>9216</Absolute>
    <NoteOff Channel="8" Note="69" Velocity="0"/>
  </Event>
  <Event>
    <Absolute>9216</Absolute>
    <NoteOn Channel="8" Note="72" Velocity="89"/>
  </Event>
  <Event>
    <Absolute>9472</Absolute>
    <NoteOff Channel="8" Note="72" Velocity="0"/>
  </Event>
  <Event>
    <Absolute>9472</Absolute>
    <NoteOn Channel="8" Note="71" Velocity="79"/>
  </Event>
  <Event>
    <Absolute>9600</Absolute>
    <NoteOff Channel="8" Note="71" Velocity="0"/>
  </Event>
  <Event>
    <Absolute>9600</Absolute>
    <NoteOn Channel="8" Note="72" Velocity="84"/>
  </Event>
  <Event>
    <Absolute>9728</Absolute>
    <NoteOff Channel="8" Note="72" Velocity="0"/>
  </Event>
  <Event>
    <Absolute>9728</Absolute>
    <NoteOn Channel="8" Note="69" Velocity="83"/>
  </Event>
  <Event>
    <Absolute>9984</Absolute>
    <NoteOff Channel="8" Note="69" Velocity="0"/>
  </Event>
  <Event>
    <Absolute>9984</Absolute>
    <NoteOn Channel="8" Note="72" Velocity="104"/>
  </Event>
  <Event>
    <Absolute>10240</Absolute>
    <NoteOff Channel="8" Note="72" Velocity="0"/>
  </Event>
  <Event>
    <Absolute>10240</Absolute>
    <NoteOn Channel="8" Note="71" Velocity="92"/>
  </Event>
  <Event>
    <Absolute>10368</Absolute>
    <NoteOff Channel="8" Note="71" Velocity="0"/>
  </Event>
  <Event>
    <Absolute>10368</Absolute>
    <NoteOn Channel="8" Note="72" Velocity="98"/>
  </Event>
  <Event>
    <Absolute>10496</Absolute>
    <NoteOff Channel="8" Note="72" Velocity="0"/>
  </Event>
  <Event>
    <Absolute>10496</Absolute>
    <NoteOn Channel="8" Note="69" Velocity="84"/>
  </Event>
  <Event>
    <Absolute>10752</Absolute>
    <NoteOff Channel="8" Note="69" Velocity="0"/>
  </Event>
  <Event>
    <Absolute>10752</Absolute>
    <NoteOn Channel="8" Note="72" Velocity="106"/>
  </Event>
  <Event>
    <Absolute>11008</Absolute>
    <NoteOff Channel="8" Note="72" Velocity="0"/>
  </Event>
  <Event>
    <Absolute>11008</Absolute>
    <NoteOn Channel="8" Note="71" Velocity="89"/>
  </Event>
  <Event>
    <Absolute>11136</Absolute>
    <NoteOff Channel="8" Note="71" Velocity="0"/>
  </Event>
  <Event>
    <Absolute>11136</Absolute>
    <NoteOn Channel="8" Note="72" Velocity="106"/>
  </Event>
  <Event>
    <Absolute>11264</Absolute>
    <NoteOff Channel="8" Note="72" Velocity="0"/>
  </Event>
  <Event>
    <Absolute>11264</Absolute>
    <NoteOn Channel="8" Note="69" Velocity="92"/>
  </Event>
  <Event>
    <Absolute>11520</Absolute>
    <NoteOff Channel="8" Note="69" Velocity="0"/>
  </Event>
  <Event>
    <Absolute>11520</Absolute>
    <NoteOn Channel="8" Note="72" Velocity="102"/>
  </Event>
  <Event>
    <Absolute>11776</Absolute>
    <NoteOff Channel="8" Note="72" Velocity="0"/>
  </Event>
  <Event>
    <Absolute>11776</Absolute>
    <NoteOn Channel="8" Note="71" Velocity="95"/>
  </Event>
  <Event>
    <Absolute>11904</Absolute>
    <NoteOff Channel="8" Note="71" Velocity="0"/>
  </Event>
  <Event>
    <Absolute>11904</Absolute>
    <NoteOn Channel="8" Note="72" Velocity="100"/>
  </Event>
  <Event>
    <Absolute>12032</Absolute>
    <NoteOff Channel="8" Note="72" Velocity="0"/>
  </Event>
  <Event>
    <Absolute>12032</Absolute>
    <NoteOn Channel="8" Note="69" Velocity="91"/>
  </Event>
  <Event>
    <Absolute>12288</Absolute>
    <NoteOff Channel="8" Note="69" Velocity="0"/>
  </Event>
  <Event>
    <Absolute>12288</Absolute>
    <NoteOn Channel="8" Note="76" Velocity="111"/>
  </Event>
  <Event>
    <Absolute>12544</Absolute>
    <NoteOff Channel="8" Note="76" Velocity="0"/>
  </Event>
  <Event>
    <Absolute>12544</Absolute>
    <NoteOn Channel="8" Note="74" Velocity="96"/>
  </Event>
  <Event>
    <Absolute>12672</Absolute>
    <NoteOff Channel="8" Note="74" Velocity="0"/>
  </Event>
  <Event>
    <Absolute>12672</Absolute>
    <NoteOn Channel="8" Note="76" Velocity="104"/>
  </Event>
  <Event>
    <Absolute>12800</Absolute>
    <NoteOff Channel="8" Note="76" Velocity="0"/>
  </Event>
  <Event>
    <Absolute>12800</Absolute>
    <NoteOn Channel="8" Note="72" Velocity="92"/>
  </Event>
  <Event>
    <Absolute>13056</Absolute>
    <NoteOff Channel="8" Note="72" Velocity="0"/>
  </Event>
  <Event>
    <Absolute>13056</Absolute>
    <NoteOn Channel="8" Note="76" Velocity="115"/>
  </Event>
  <Event>
    <Absolute>13312</Absolute>
    <NoteOff Channel="8" Note="76" Velocity="0"/>
  </Event>
  <Event>
    <Absolute>13312</Absolute>
    <NoteOn Channel="8" Note="74" Velocity="98"/>
  </Event>
  <Event>
    <Absolute>13440</Absolute>
    <NoteOff Channel="8" Note="74" Velocity="0"/>
  </Event>
  <Event>
    <Absolute>13440</Absolute>
    <NoteOn Channel="8" Note="76" Velocity="112"/>
  </Event>
  <Event>
    <Absolute>13568</Absolute>
    <NoteOff Channel="8" Note="76" Velocity="0"/>
  </Event>
  <Event>
    <Absolute>13568</Absolute>
    <NoteOn Channel="8" Note="72" Velocity="99"/>
  </Event>
  <Event>
    <Absolute>13824</Absolute>
    <NoteOff Channel="8" Note="72" Velocity="0"/>
  </Event>
  <Event>
    <Absolute>13824</Absolute>
    <NoteOn Channel="8" Note="76" Velocity="123"/>
  </Event>
  <Event>
    <Absolute>14080</Absolute>
    <NoteOff Channel="8" Note="76" Velocity="0"/>
  </Event>
  <Event>
    <Absolute>14080</Absolute>
    <NoteOn Channel="8" Note="74" Velocity="109"/>
  </Event>
  <Event>
    <Absolute>14208</Absolute>
    <NoteOff Channel="8" Note="74" Velocity="0"/>
  </Event>
  <Event>
    <Absolute>14208</Absolute>
    <NoteOn Channel="8" Note="76" Velocity="118"/>
  </Event>
  <Event>
    <Absolute>14336</Absolute>
    <NoteOff Channel="8" Note="76" Velocity="0"/>
  </Event>
  <Event>
    <Absolute>14336</Absolute>
    <NoteOn Channel="8" Note="72" Velocity="100"/>
  </Event>
  <Event>
    <Absolute>14592</Absolute>
    <NoteOff Channel="8" Note="72" Velocity="0"/>
  </Event>
  <Event>
    <Absolute>14592</Absolute>
    <NoteOn Channel="8" Note="76" Velocity="127"/>
  </Event>
  <Event>
    <Absolute>14848</Absolute>
    <NoteOff Channel="8" Note="76" Velocity="0"/>
  </Event>
  <Event>
    <Absolute>14848</Absolute>
    <NoteOn Channel="8" Note="74" Velocity="109"/>
  </Event>
  <Event>
    <Absolute>14976</Absolute>
    <NoteOff Channel="8" Note="74" Velocity="0"/>
  </Event>
  <Event>
    <Absolute>14976</Absolute>
    <NoteOn Channel="8" Note="76" Velocity="120"/>
  </Event>
  <Event>
    <Absolute>15104</Absolute>
    <NoteOff Channel="8" Note="76" Velocity="0"/>
  </Event>
  <Event>
    <Absolute>15104</Absolute>
    <NoteOn Channel="8" Note="72" Velocity="98"/>
  </Event>
  <Event>
    <Absolute>15360</Absolute>
    <NoteOff Channel="8" Note="72" Velocity="0"/>
  </Event>
  <Event>
    <Absolute>15360</Absolute>
    <NoteOn Channel="8" Note="81" Velocity="127"/>
  </Event>
  <Event>
    <Absolute>15616</Absolute>
    <NoteOff Channel="8" Note="81" Velocity="0"/>
  </Event>
  <Event>
    <Absolute>15616</Absolute>
    <NoteOn Channel="8" Note="81" Velocity="112"/>
  </Event>
  <Event>
    <Absolute>15744</Absolute>
    <NoteOff Channel="8" Note="81" Velocity="0"/>
  </Event>
  <Event>
    <Absolute>15744</Absolute>
    <NoteOn Channel="8" Note="81" Velocity="109"/>
  </Event>
  <Event>
    <Absolute>15872</Absolute>
    <NoteOff Channel="8" Note="81" Velocity="0"/>
  </Event>
  <Event>
    <Absolute>15872</Absolute>
    <NoteOn Channel="8" Note="79" Velocity="105"/>
  </Event>
  <Event>
    <Absolute>16000</Absolute>
    <NoteOn Channel="8" Note="77" Velocity="99"/>
  </Event>
  <Event>
    <Absolute>16002</Absolute>
    <NoteOff Channel="8" Note="79" Velocity="0"/>
  </Event>
  <Event>
    <Absolute>16121</Absolute>
    <NoteOff Channel="8" Note="77" Velocity="0"/>
  </Event>
  <Event>
    <Absolute>16128</Absolute>
    <NoteOn Channel="8" Note="76" Velocity="104"/>
  </Event>
  <Event>
    <Absolute>16384</Absolute>
    <NoteOff Channel="8" Note="76" Velocity="0"/>
  </Event>
  <Event>
    <Absolute>16384</Absolute>
    <NoteOn Channel="8" Note="76" Velocity="109"/>
  </Event>
  <Event>
    <Absolute>16512</Absolute>
    <NoteOff Channel="8" Note="76" Velocity="0"/>
  </Event>
  <Event>
    <Absolute>16512</Absolute>
    <NoteOn Channel="8" Note="76" Velocity="112"/>
  </Event>
  <Event>
    <Absolute>16640</Absolute>
    <NoteOff Channel="8" Note="76" Velocity="0"/>
  </Event>
  <Event>
    <Absolute>16640</Absolute>
    <NoteOn Channel="8" Note="74" Velocity="104"/>
  </Event>
  <Event>
    <Absolute>16768</Absolute>
    <NoteOn Channel="8" Note="72" Velocity="93"/>
  </Event>
  <Event>
    <Absolute>16770</Absolute>
    <NoteOff Channel="8" Note="74" Velocity="0"/>
  </Event>
  <Event>
    <Absolute>16889</Absolute>
    <NoteOff Channel="8" Note="72" Velocity="0"/>
  </Event>
  <Event>
    <Absolute>16896</Absolute>
    <NoteOn Channel="8" Note="74" Velocity="119"/>
  </Event>
  <Event>
    <Absolute>17152</Absolute>
    <NoteOff Channel="8" Note="74" Velocity="0"/>
  </Event>
  <Event>
    <Absolute>17152</Absolute>
    <NoteOn Channel="8" Note="74" Velocity="115"/>
  </Event>
  <Event>
    <Absolute>17280</Absolute>
    <NoteOff Channel="8" Note="74" Velocity="0"/>
  </Event>
  <Event>
    <Absolute>17280</Absolute>
    <NoteOn Channel="8" Note="74" Velocity="109"/>
  </Event>
  <Event>
    <Absolute>17408</Absolute>
    <NoteOff Channel="8" Note="74" Velocity="0"/>
  </Event>
  <Event>
    <Absolute>17408</Absolute>
    <NoteOn Channel="8" Note="76" Velocity="118"/>
  </Event>
  <Event>
    <Absolute>17536</Absolute>
    <NoteOn Channel="8" Note="74" Velocity="113"/>
  </Event>
  <Event>
    <Absolute>17538</Absolute>
    <NoteOff Channel="8" Note="76" Velocity="0"/>
  </Event>
  <Event>
    <Absolute>17657</Absolute>
    <NoteOff Channel="8" Note="74" Velocity="0"/>
  </Event>
  <Event>
    <Absolute>17664</Absolute>
    <NoteOn Channel="8" Note="72" Velocity="106"/>
  </Event>
  <Event>
    <Absolute>17920</Absolute>
    <NoteOff Channel="8" Note="72" Velocity="0"/>
  </Event>
  <Event>
    <Absolute>17920</Absolute>
    <NoteOn Channel="8" Note="71" Velocity="107"/>
  </Event>
  <Event>
    <Absolute>18048</Absolute>
    <NoteOff Channel="8" Note="71" Velocity="0"/>
  </Event>
  <Event>
    <Absolute>18048</Absolute>
    <NoteOn Channel="8" Note="72" Velocity="114"/>
  </Event>
  <Event>
    <Absolute>18176</Absolute>
    <NoteOff Channel="8" Note="72" Velocity="0"/>
  </Event>
  <Event>
    <Absolute>18176</Absolute>
    <NoteOn Channel="8" Note="69" Velocity="101"/>
  </Event>
  <Event>
    <Absolute>18432</Absolute>
    <NoteOff Channel="8" Note="69" Velocity="0"/>
  </Event>
  <Event>
    <Absolute>18432</Absolute>
    <NoteOn Channel="8" Note="64" Velocity="69"/>
  </Event>
  <Event>
    <Absolute>18560</Absolute>
    <NoteOn Channel="8" Note="66" Velocity="74"/>
  </Event>
  <Event>
    <Absolute>18562</Absolute>
    <NoteOff Channel="8" Note="64" Velocity="0"/>
  </Event>
  <Event>
    <Absolute>18681</Absolute>
    <NoteOff Channel="8" Note="66" Velocity="0"/>
  </Event>
  <Event>
    <Absolute>18688</Absolute>
    <NoteOn Channel="8" Note="68" Velocity="89"/>
  </Event>
  <Event>
    <Absolute>18816</Absolute>
    <NoteOn Channel="8" Note="69" Velocity="89"/>
  </Event>
  <Event>
    <Absolute>18818</Absolute>
    <NoteOff Channel="8" Note="68" Velocity="0"/>
  </Event>
  <Event>
    <Absolute>18937</Absolute>
    <NoteOff Channel="8" Note="69" Velocity="0"/>
  </Event>
  <Event>
    <Absolute>18944</Absolute>
    <NoteOn Channel="8" Note="71" Velocity="90"/>
  </Event>
  <Event>
    <Absolute>19072</Absolute>
    <NoteOn Channel="8" Note="72" Velocity="92"/>
  </Event>
  <Event>
    <Absolute>19074</Absolute>
    <NoteOff Channel="8" Note="71" Velocity="0"/>
  </Event>
  <Event>
    <Absolute>19193</Absolute>
    <NoteOff Channel="8" Note="72" Velocity="0"/>
  </Event>
  <Event>
    <Absolute>19200</Absolute>
    <NoteOn Channel="8" Note="74" Velocity="100"/>
  </Event>
  <Event>
    <Absolute>19328</Absolute>
    <NoteOn Channel="8" Note="76" Velocity="100"/>
  </Event>
  <Event>
    <Absolute>19330</Absolute>
    <NoteOff Channel="8" Note="74" Velocity="0"/>
  </Event>
  <Event>
    <Absolute>19449</Absolute>
    <NoteOff Channel="8" Note="76" Velocity="0"/>
  </Event>
  <Event>
    <Absolute>19456</Absolute>
    <NoteOn Channel="8" Note="74" Velocity="95"/>
  </Event>
  <Event>
    <Absolute>19712</Absolute>
    <NoteOff Channel="8" Note="74" Velocity="0"/>
  </Event>
  <Event>
    <Absolute>19712</Absolute>
    <NoteOn Channel="8" Note="72" Velocity="86"/>
  </Event>
  <Event>
    <Absolute>19968</Absolute>
    <NoteOff Channel="8" Note="72" Velocity="0"/>
  </Event>
  <Event>
    <Absolute>19968</Absolute>
    <NoteOn Channel="8" Note="64" Velocity="67"/>
  </Event>
  <Event>
    <Absolute>20096</Absolute>
    <NoteOn Channel="8" Note="66" Velocity="85"/>
  </Event>
  <Event>
    <Absolute>20098</Absolute>
    <NoteOff Channel="8" Note="64" Velocity="0"/>
  </Event>
  <Event>
    <Absolute>20217</Absolute>
    <NoteOff Channel="8" Note="66" Velocity="0"/>
  </Event>
  <Event>
    <Absolute>20224</Absolute>
    <NoteOn Channel="8" Note="68" Velocity="89"/>
  </Event>
  <Event>
    <Absolute>20352</Absolute>
    <NoteOn Channel="8" Note="69" Velocity="92"/>
  </Event>
  <Event>
    <Absolute>20354</Absolute>
    <NoteOff Channel="8" Note="68" Velocity="0"/>
  </Event>
  <Event>
    <Absolute>20473</Absolute>
    <NoteOff Channel="8" Note="69" Velocity="0"/>
  </Event>
  <Event>
    <Absolute>20480</Absolute>
    <NoteOn Channel="8" Note="71" Velocity="95"/>
  </Event>
  <Event>
    <Absolute>20608</Absolute>
    <NoteOn Channel="8" Note="72" Velocity="103"/>
  </Event>
  <Event>
    <Absolute>20610</Absolute>
    <NoteOff Channel="8" Note="71" Velocity="0"/>
  </Event>
  <Event>
    <Absolute>20729</Absolute>
    <NoteOff Channel="8" Note="72" Velocity="0"/>
  </Event>
  <Event>
    <Absolute>20736</Absolute>
    <NoteOn Channel="8" Note="74" Velocity="104"/>
  </Event>
  <Event>
    <Absolute>20864</Absolute>
    <NoteOn Channel="8" Note="76" Velocity="103"/>
  </Event>
  <Event>
    <Absolute>20866</Absolute>
    <NoteOff Channel="8" Note="74" Velocity="0"/>
  </Event>
  <Event>
    <Absolute>20985</Absolute>
    <NoteOff Channel="8" Note="76" Velocity="0"/>
  </Event>
  <Event>
    <Absolute>20992</Absolute>
    <NoteOn Channel="8" Note="74" Velocity="82"/>
  </Event>
  <Event>
    <Absolute>21248</Absolute>
    <NoteOff Channel="8" Note="74" Velocity="0"/>
  </Event>
  <Event>
    <Absolute>21248</Absolute>
    <NoteOn Channel="8" Note="72" Velocity="54"/>
  </Event>
  <Event>
    <Absolute>21504</Absolute>
    <NoteOff Channel="8" Note="72" Velocity="0"/>
  </Event>
  <Event>
    <Absolute>21504</Absolute>
    <NoteOn Channel="8" Note="72" Velocity="50"/>
  </Event>
  <Event>
    <Absolute>21760</Absolute>
    <NoteOff Channel="8" Note="72" Velocity="0"/>
  </Event>
  <Event>
    <Absolute>21760</Absolute>
    <NoteOn Channel="8" Note="71" Velocity="43"/>
  </Event>
  <Event>
    <Absolute>21888</Absolute>
    <NoteOff Channel="8" Note="71" Velocity="0"/>
  </Event>
  <Event>
    <Absolute>21888</Absolute>
    <NoteOn Channel="8" Note="72" Velocity="50"/>
  </Event>
  <Event>
    <Absolute>22016</Absolute>
    <NoteOff Channel="8" Note="72" Velocity="0"/>
  </Event>
  <Event>
    <Absolute>22016</Absolute>
    <NoteOn Channel="8" Note="69" Velocity="40"/>
  </Event>
  <Event>
    <Absolute>22272</Absolute>
    <NoteOff Channel="8" Note="69" Velocity="0"/>
  </Event>
  <Event>
    <Absolute>22272</Absolute>
    <NoteOn Channel="8" Note="72" Velocity="52"/>
  </Event>
  <Event>
    <Absolute>22528</Absolute>
    <NoteOff Channel="8" Note="72" Velocity="0"/>
  </Event>
  <Event>
    <Absolute>22528</Absolute>
    <NoteOn Channel="8" Note="71" Velocity="44"/>
  </Event>
  <Event>
    <Absolute>22656</Absolute>
    <NoteOff Channel="8" Note="71" Velocity="0"/>
  </Event>
  <Event>
    <Absolute>22656</Absolute>
    <NoteOn Channel="8" Note="72" Velocity="54"/>
  </Event>
  <Event>
    <Absolute>22784</Absolute>
    <NoteOff Channel="8" Note="72" Velocity="0"/>
  </Event>
  <Event>
    <Absolute>22784</Absolute>
    <NoteOn Channel="8" Note="69" Velocity="43"/>
  </Event>
  <Event>
    <Absolute>23040</Absolute>
    <NoteOff Channel="8" Note="69" Velocity="0"/>
  </Event>
  <Event>
    <Absolute>23040</Absolute>
    <NoteOn Channel="8" Note="72" Velocity="54"/>
  </Event>
  <Event>
    <Absolute>23296</Absolute>
    <NoteOff Channel="8" Note="72" Velocity="0"/>
  </Event>
  <Event>
    <Absolute>23296</Absolute>
    <NoteOn Channel="8" Note="71" Velocity="48"/>
  </Event>
  <Event>
    <Absolute>23424</Absolute>
    <NoteOff Channel="8" Note="71" Velocity="0"/>
  </Event>
  <Event>
    <Absolute>23424</Absolute>
    <NoteOn Channel="8" Note="72" Velocity="54"/>
  </Event>
  <Event>
    <Absolute>23552</Absolute>
    <NoteOff Channel="8" Note="72" Velocity="0"/>
  </Event>
  <Event>
    <Absolute>23552</Absolute>
    <NoteOn Channel="8" Note="69" Velocity="45"/>
  </Event>
  <Event>
    <Absolute>23808</Absolute>
    <NoteOff Channel="8" Note="69" Velocity="0"/>
  </Event>
  <Event>
    <Absolute>23808</Absolute>
    <NoteOn Channel="8" Note="72" Velocity="55"/>
  </Event>
  <Event>
    <Absolute>24064</Absolute>
    <NoteOff Channel="8" Note="72" Velocity="0"/>
  </Event>
  <Event>
    <Absolute>24064</Absolute>
    <NoteOn Channel="8" Note="71" Velocity="44"/>
  </Event>
  <Event>
    <Absolute>24192</Absolute>
    <NoteOff Channel="8" Note="71" Velocity="0"/>
  </Event>
  <Event>
    <Absolute>24192</Absolute>
    <NoteOn Channel="8" Note="72" Velocity="56"/>
  </Event>
  <Event>
    <Absolute>24320</Absolute>
    <NoteOff Channel="8" Note="72" Velocity="0"/>
  </Event>
  <Event>
    <Absolute>24320</Absolute>
    <NoteOn Channel="8" Note="69" Velocity="42"/>
  </Event>
  <Event>
    <Absolute>24576</Absolute>
    <NoteOff Channel="8" Note="69" Velocity="0"/>
  </Event>
  <Event>
    <Absolute>24576</Absolute>
    <NoteOn Channel="8" Note="72" Velocity="47"/>
  </Event>
  <Event>
    <Absolute>24832</Absolute>
    <NoteOff Channel="8" Note="72" Velocity="0"/>
  </Event>
  <Event>
    <Absolute>24832</Absolute>
    <NoteOn Channel="8" Note="71" Velocity="51"/>
  </Event>
  <Event>
    <Absolute>24960</Absolute>
    <NoteOff Channel="8" Note="71" Velocity="0"/>
  </Event>
  <Event>
    <Absolute>24960</Absolute>
    <NoteOn Channel="8" Note="72" Velocity="49"/>
  </Event>
  <Event>
    <Absolute>25088</Absolute>
    <NoteOff Channel="8" Note="72" Velocity="0"/>
  </Event>
  <Event>
    <Absolute>25088</Absolute>
    <NoteOn Channel="8" Note="69" Velocity="46"/>
  </Event>
  <Event>
    <Absolute>25344</Absolute>
    <NoteOff Channel="8" Note="69" Velocity="0"/>
  </Event>
  <Event>
    <Absolute>25344</Absolute>
    <NoteOn Channel="8" Note="72" Velocity="51"/>
  </Event>
  <Event>
    <Absolute>25600</Absolute>
    <NoteOff Channel="8" Note="72" Velocity="0"/>
  </Event>
  <Event>
    <Absolute>25600</Absolute>
    <NoteOn Channel="8" Note="71" Velocity="48"/>
  </Event>
  <Event>
    <Absolute>25728</Absolute>
    <NoteOff Channel="8" Note="71" Velocity="0"/>
  </Event>
  <Event>
    <Absolute>25728</Absolute>
    <NoteOn Channel="8" Note="72" Velocity="45"/>
  </Event>
  <Event>
    <Absolute>25856</Absolute>
    <NoteOff Channel="8" Note="72" Velocity="0"/>
  </Event>
  <Event>
    <Absolute>25856</Absolute>
    <NoteOn Channel="8" Note="69" Velocity="40"/>
  </Event>
  <Event>
    <Absolute>26112</Absolute>
    <NoteOff Channel="8" Note="69" Velocity="0"/>
  </Event>
  <Event>
    <Absolute>26112</Absolute>
    <NoteOn Channel="8" Note="72" Velocity="54"/>
  </Event>
  <Event>
    <Absolute>26368</Absolute>
    <NoteOff Channel="8" Note="72" Velocity="0"/>
  </Event>
  <Event>
    <Absolute>26368</Absolute>
    <NoteOn Channel="8" Note="71" Velocity="47"/>
  </Event>
  <Event>
    <Absolute>26496</Absolute>
    <NoteOff Channel="8" Note="71" Velocity="0"/>
  </Event>
  <Event>
    <Absolute>26496</Absolute>
    <NoteOn Channel="8" Note="72" Velocity="57"/>
  </Event>
  <Event>
    <Absolute>26624</Absolute>
    <NoteOff Channel="8" Note="72" Velocity="0"/>
  </Event>
  <Event>
    <Absolute>26624</Absolute>
    <NoteOn Channel="8" Note="69" Velocity="49"/>
  </Event>
  <Event>
    <Absolute>26880</Absolute>
    <NoteOff Channel="8" Note="69" Velocity="0"/>
  </Event>
  <Event>
    <Absolute>26880</Absolute>
    <NoteOn Channel="8" Note="72" Velocity="52"/>
  </Event>
  <Event>
    <Absolute>27136</Absolute>
    <NoteOff Channel="8" Note="72" Velocity="0"/>
  </Event>
  <Event>
    <Absolute>27136</Absolute>
    <NoteOn Channel="8" Note="71" Velocity="44"/>
  </Event>
  <Event>
    <Absolute>27264</Absolute>
    <NoteOff Channel="8" Note="71" Velocity="0"/>
  </Event>
  <Event>
    <Absolute>27264</Absolute>
    <NoteOn Channel="8" Note="72" Velocity="49"/>
  </Event>
  <Event>
    <Absolute>27392</Absolute>
    <NoteOff Channel="8" Note="72" Velocity="0"/>
  </Event>
  <Event>
    <Absolute>27392</Absolute>
    <NoteOn Channel="8" Note="69" Velocity="44"/>
  </Event>
  <Event>
    <Absolute>27648</Absolute>
    <NoteOff Channel="8" Note="69" Velocity="0"/>
  </Event>
  <Event>
    <Absolute>27648</Absolute>
    <NoteOn Channel="8" Note="72" Velocity="51"/>
  </Event>
  <Event>
    <Absolute>27904</Absolute>
    <NoteOff Channel="8" Note="72" Velocity="0"/>
  </Event>
  <Event>
    <Absolute>27904</Absolute>
    <NoteOn Channel="8" Note="71" Velocity="50"/>
  </Event>
  <Event>
    <Absolute>28032</Absolute>
    <NoteOff Channel="8" Note="71" Velocity="0"/>
  </Event>
  <Event>
    <Absolute>28032</Absolute>
    <NoteOn Channel="8" Note="72" Velocity="49"/>
  </Event>
  <Event>
    <Absolute>28160</Absolute>
    <NoteOff Channel="8" Note="72" Velocity="0"/>
  </Event>
  <Event>
    <Absolute>28160</Absolute>
    <NoteOn Channel="8" Note="69" Velocity="45"/>
  </Event>
  <Event>
    <Absolute>28416</Absolute>
    <NoteOff Channel="8" Note="69" Velocity="0"/>
  </Event>
  <Event>
    <Absolute>28416</Absolute>
    <NoteOn Channel="8" Note="72" Velocity="52"/>
  </Event>
  <Event>
    <Absolute>28672</Absolute>
    <NoteOff Channel="8" Note="72" Velocity="0"/>
  </Event>
  <Event>
    <Absolute>28672</Absolute>
    <NoteOn Channel="8" Note="71" Velocity="47"/>
  </Event>
  <Event>
    <Absolute>28800</Absolute>
    <NoteOff Channel="8" Note="71" Velocity="0"/>
  </Event>
  <Event>
    <Absolute>28800</Absolute>
    <NoteOn Channel="8" Note="72" Velocity="49"/>
  </Event>
  <Event>
    <Absolute>28928</Absolute>
    <NoteOff Channel="8" Note="72" Velocity="0"/>
  </Event>
  <Event>
    <Absolute>28928</Absolute>
    <NoteOn Channel="8" Note="69" Velocity="44"/>
  </Event>
  <Event>
    <Absolute>29184</Absolute>
    <NoteOff Channel="8" Note="69" Velocity="0"/>
  </Event>
  <Event>
    <Absolute>29184</Absolute>
    <NoteOn Channel="8" Note="72" Velocity="53"/>
  </Event>
  <Event>
    <Absolute>29440</Absolute>
    <NoteOff Channel="8" Note="72" Velocity="0"/>
  </Event>
  <Event>
    <Absolute>29440</Absolute>
    <NoteOn Channel="8" Note="71" Velocity="49"/>
  </Event>
  <Event>
    <Absolute>29568</Absolute>
    <NoteOff Channel="8" Note="71" Velocity="0"/>
  </Event>
  <Event>
    <Absolute>29568</Absolute>
    <NoteOn Channel="8" Note="72" Velocity="50"/>
  </Event>
  <Event>
    <Absolute>29696</Absolute>
    <NoteOff Channel="8" Note="72" Velocity="0"/>
  </Event>
  <Event>
    <Absolute>29696</Absolute>
    <NoteOn Channel="8" Note="69" Velocity="44"/>
  </Event>
  <Event>
    <Absolute>29952</Absolute>
    <NoteOff Channel="8" Note="69" Velocity="0"/>
  </Event>
  <Event>
    <Absolute>29952</Absolute>
    <NoteOn Channel="8" Note="72" Velocity="48"/>
  </Event>
  <Event>
    <Absolute>30208</Absolute>
    <NoteOff Channel="8" Note="72" Velocity="0"/>
  </Event>
  <Event>
    <Absolute>30208</Absolute>
    <NoteOn Channel="8" Note="71" Velocity="44"/>
  </Event>
  <Event>
    <Absolute>30336</Absolute>
    <NoteOff Channel="8" Note="71" Velocity="0"/>
  </Event>
  <Event>
    <Absolute>30336</Absolute>
    <NoteOn Channel="8" Note="72" Velocity="54"/>
  </Event>
  <Event>
    <Absolute>30464</Absolute>
    <NoteOff Channel="8" Note="72" Velocity="0"/>
  </Event>
  <Event>
    <Absolute>30464</Absolute>
    <NoteOn Channel="8" Note="69" Velocity="45"/>
  </Event>
  <Event>
    <Absolute>30720</Absolute>
    <NoteOff Channel="8" Note="69" Velocity="0"/>
  </Event>
  <Event>
    <Absolute>30720</Absolute>
    <NoteOn Channel="8" Note="72" Velocity="52"/>
  </Event>
  <Event>
    <Absolute>30976</Absolute>
    <NoteOff Channel="8" Note="72" Velocity="0"/>
  </Event>
  <Event>
    <Absolute>30976</Absolute>
    <NoteOn Channel="8" Note="71" Velocity="47"/>
  </Event>
  <Event>
    <Absolute>31104</Absolute>
    <NoteOff Channel="8" Note="71" Velocity="0"/>
  </Event>
  <Event>
    <Absolute>31104</Absolute>
    <NoteOn Channel="8" Note="72" Velocity="52"/>
  </Event>
  <Event>
    <Absolute>31232</Absolute>
    <NoteOff Channel="8" Note="72" Velocity="0"/>
  </Event>
  <Event>
    <Absolute>31232</Absolute>
    <NoteOn Channel="8" Note="69" Velocity="45"/>
  </Event>
  <Event>
    <Absolute>31488</Absolute>
    <NoteOff Channel="8" Note="69" Velocity="0"/>
  </Event>
  <Event>
    <Absolute>31488</Absolute>
    <NoteOn Channel="8" Note="72" Velocity="48"/>
  </Event>
  <Event>
    <Absolute>31744</Absolute>
    <NoteOff Channel="8" Note="72" Velocity="0"/>
  </Event>
  <Event>
    <Absolute>31744</Absolute>
    <NoteOn Channel="8" Note="71" Velocity="50"/>
  </Event>
  <Event>
    <Absolute>31872</Absolute>
    <NoteOff Channel="8" Note="71" Velocity="0"/>
  </Event>
  <Event>
    <Absolute>31872</Absolute>
    <NoteOn Channel="8" Note="72" Velocity="50"/>
  </Event>
  <Event>
    <Absolute>32000</Absolute>
    <NoteOff Channel="8" Note="72" Velocity="0"/>
  </Event>
  <Event>
    <Absolute>32000</Absolute>
    <NoteOn Channel="8" Note="69" Velocity="46"/>
  </Event>
  <Event>
    <Absolute>32256</Absolute>
    <NoteOff Channel="8" Note="69" Velocity="0"/>
  </Event>
  <Event>
    <Absolute>32256</Absolute>
    <NoteOn Channel="8" Note="72" Velocity="54"/>
  </Event>
  <Event>
    <Absolute>32512</Absolute>
    <NoteOff Channel="8" Note="72" Velocity="0"/>
  </Event>
  <Event>
    <Absolute>32512</Absolute>
    <NoteOn Channel="8" Note="71" Velocity="41"/>
  </Event>
  <Event>
    <Absolute>32640</Absolute>
    <NoteOff Channel="8" Note="71" Velocity="0"/>
  </Event>
  <Event>
    <Absolute>32640</Absolute>
    <NoteOn Channel="8" Note="72" Velocity="48"/>
  </Event>
  <Event>
    <Absolute>32768</Absolute>
    <NoteOff Channel="8" Note="72" Velocity="0"/>
  </Event>
  <Event>
    <Absolute>32768</Absolute>
    <NoteOn Channel="8" Note="69" Velocity="43"/>
  </Event>
  <Event>
    <Absolute>33024</Absolute>
    <NoteOff Channel="8" Note="69" Velocity="0"/>
  </Event>
  <Event>
    <Absolute>33024</Absolute>
    <NoteOn Channel="8" Note="72" Velocity="52"/>
  </Event>
  <Event>
    <Absolute>33280</Absolute>
    <NoteOff Channel="8" Note="72" Velocity="0"/>
  </Event>
  <Event>
    <Absolute>33280</Absolute>
    <NoteOn Channel="8" Note="71" Velocity="47"/>
  </Event>
  <Event>
    <Absolute>33408</Absolute>
    <NoteOff Channel="8" Note="71" Velocity="0"/>
  </Event>
  <Event>
    <Absolute>33408</Absolute>
    <NoteOn Channel="8" Note="72" Velocity="51"/>
  </Event>
  <Event>
    <Absolute>33536</Absolute>
    <NoteOff Channel="8" Note="72" Velocity="0"/>
  </Event>
  <Event>
    <Absolute>33536</Absolute>
    <NoteOn Channel="8" Note="69" Velocity="44"/>
  </Event>
  <Event>
    <Absolute>33792</Absolute>
    <NoteOff Channel="8" Note="69" Velocity="0"/>
  </Event>
  <Event>
    <Absolute>33792</Absolute>
    <NoteOn Channel="8" Note="72" Velocity="87"/>
  </Event>
  <Event>
    <Absolute>34048</Absolute>
    <NoteOff Channel="8" Note="72" Velocity="0"/>
  </Event>
  <Event>
    <Absolute>34048</Absolute>
    <NoteOn Channel="8" Note="71" Velocity="81"/>
  </Event>
  <Event>
    <Absolute>34176</Absolute>
    <NoteOff Channel="8" Note="71" Velocity="0"/>
  </Event>
  <Event>
    <Absolute>34176</Absolute>
    <NoteOn Channel="8" Note="72" Velocity="96"/>
  </Event>
  <Event>
    <Absolute>34304</Absolute>
    <NoteOff Channel="8" Note="72" Velocity="0"/>
  </Event>
  <Event>
    <Absolute>34304</Absolute>
    <NoteOn Channel="8" Note="69" Velocity="74"/>
  </Event>
  <Event>
    <Absolute>34560</Absolute>
    <NoteOff Channel="8" Note="69" Velocity="0"/>
  </Event>
  <Event>
    <Absolute>34560</Absolute>
    <NoteOn Channel="8" Note="72" Velocity="104"/>
  </Event>
  <Event>
    <Absolute>34816</Absolute>
    <NoteOff Channel="8" Note="72" Velocity="0"/>
  </Event>
  <Event>
    <Absolute>34816</Absolute>
    <NoteOn Channel="8" Note="71" Velocity="96"/>
  </Event>
  <Event>
    <Absolute>34944</Absolute>
    <NoteOff Channel="8" Note="71" Velocity="0"/>
  </Event>
  <Event>
    <Absolute>34944</Absolute>
    <NoteOn Channel="8" Note="72" Velocity="102"/>
  </Event>
  <Event>
    <Absolute>35072</Absolute>
    <NoteOff Channel="8" Note="72" Velocity="0"/>
  </Event>
  <Event>
    <Absolute>35072</Absolute>
    <NoteOn Channel="8" Note="69" Velocity="89"/>
  </Event>
  <Event>
    <Absolute>35328</Absolute>
    <NoteOff Channel="8" Note="69" Velocity="0"/>
  </Event>
  <Event>
    <Absolute>35328</Absolute>
    <NoteOn Channel="8" Note="72" Velocity="105"/>
  </Event>
  <Event>
    <Absolute>35584</Absolute>
    <NoteOff Channel="8" Note="72" Velocity="0"/>
  </Event>
  <Event>
    <Absolute>35584</Absolute>
    <NoteOn Channel="8" Note="71" Velocity="89"/>
  </Event>
  <Event>
    <Absolute>35712</Absolute>
    <NoteOff Channel="8" Note="71" Velocity="0"/>
  </Event>
  <Event>
    <Absolute>35712</Absolute>
    <NoteOn Channel="8" Note="72" Velocity="101"/>
  </Event>
  <Event>
    <Absolute>35840</Absolute>
    <NoteOff Channel="8" Note="72" Velocity="0"/>
  </Event>
  <Event>
    <Absolute>35840</Absolute>
    <NoteOn Channel="8" Note="69" Velocity="89"/>
  </Event>
  <Event>
    <Absolute>36096</Absolute>
    <NoteOff Channel="8" Note="69" Velocity="0"/>
  </Event>
  <Event>
    <Absolute>36096</Absolute>
    <NoteOn Channel="8" Note="72" Velocity="105"/>
  </Event>
  <Event>
    <Absolute>36352</Absolute>
    <NoteOff Channel="8" Note="72" Velocity="0"/>
  </Event>
  <Event>
    <Absolute>36352</Absolute>
    <NoteOn Channel="8" Note="71" Velocity="97"/>
  </Event>
  <Event>
    <Absolute>36480</Absolute>
    <NoteOff Channel="8" Note="71" Velocity="0"/>
  </Event>
  <Event>
    <Absolute>36480</Absolute>
    <NoteOn Channel="8" Note="72" Velocity="101"/>
  </Event>
  <Event>
    <Absolute>36608</Absolute>
    <NoteOff Channel="8" Note="72" Velocity="0"/>
  </Event>
  <Event>
    <Absolute>36608</Absolute>
    <NoteOn Channel="8" Note="69" Velocity="94"/>
  </Event>
  <Event>
    <Absolute>36864</Absolute>
    <NoteOff Channel="8" Note="69" Velocity="0"/>
  </Event>
  <Event>
    <Absolute>36864</Absolute>
    <NoteOn Channel="8" Note="76" Velocity="112"/>
  </Event>
  <Event>
    <Absolute>37120</Absolute>
    <NoteOff Channel="8" Note="76" Velocity="0"/>
  </Event>
  <Event>
    <Absolute>37120</Absolute>
    <NoteOn Channel="8" Note="74" Velocity="90"/>
  </Event>
  <Event>
    <Absolute>37248</Absolute>
    <NoteOff Channel="8" Note="74" Velocity="0"/>
  </Event>
  <Event>
    <Absolute>37248</Absolute>
    <NoteOn Channel="8" Note="76" Velocity="102"/>
  </Event>
  <Event>
    <Absolute>37376</Absolute>
    <NoteOff Channel="8" Note="76" Velocity="0"/>
  </Event>
  <Event>
    <Absolute>37376</Absolute>
    <NoteOn Channel="8" Note="72" Velocity="87"/>
  </Event>
  <Event>
    <Absolute>37632</Absolute>
    <NoteOff Channel="8" Note="72" Velocity="0"/>
  </Event>
  <Event>
    <Absolute>37632</Absolute>
    <NoteOn Channel="8" Note="76" Velocity="116"/>
  </Event>
  <Event>
    <Absolute>37888</Absolute>
    <NoteOff Channel="8" Note="76" Velocity="0"/>
  </Event>
  <Event>
    <Absolute>37888</Absolute>
    <NoteOn Channel="8" Note="74" Velocity="102"/>
  </Event>
  <Event>
    <Absolute>38016</Absolute>
    <NoteOff Channel="8" Note="74" Velocity="0"/>
  </Event>
  <Event>
    <Absolute>38016</Absolute>
    <NoteOn Channel="8" Note="76" Velocity="121"/>
  </Event>
  <Event>
    <Absolute>38144</Absolute>
    <NoteOff Channel="8" Note="76" Velocity="0"/>
  </Event>
  <Event>
    <Absolute>38144</Absolute>
    <NoteOn Channel="8" Note="72" Velocity="100"/>
  </Event>
  <Event>
    <Absolute>38400</Absolute>
    <NoteOff Channel="8" Note="72" Velocity="0"/>
  </Event>
  <Event>
    <Absolute>38400</Absolute>
    <NoteOn Channel="8" Note="76" Velocity="119"/>
  </Event>
  <Event>
    <Absolute>38656</Absolute>
    <NoteOff Channel="8" Note="76" Velocity="0"/>
  </Event>
  <Event>
    <Absolute>38656</Absolute>
    <NoteOn Channel="8" Note="74" Velocity="107"/>
  </Event>
  <Event>
    <Absolute>38784</Absolute>
    <NoteOff Channel="8" Note="74" Velocity="0"/>
  </Event>
  <Event>
    <Absolute>38784</Absolute>
    <NoteOn Channel="8" Note="76" Velocity="119"/>
  </Event>
  <Event>
    <Absolute>38912</Absolute>
    <NoteOff Channel="8" Note="76" Velocity="0"/>
  </Event>
  <Event>
    <Absolute>38912</Absolute>
    <NoteOn Channel="8" Note="72" Velocity="97"/>
  </Event>
  <Event>
    <Absolute>39168</Absolute>
    <NoteOff Channel="8" Note="72" Velocity="0"/>
  </Event>
  <Event>
    <Absolute>39168</Absolute>
    <NoteOn Channel="8" Note="76" Velocity="125"/>
  </Event>
  <Event>
    <Absolute>39424</Absolute>
    <NoteOff Channel="8" Note="76" Velocity="0"/>
  </Event>
  <Event>
    <Absolute>39424</Absolute>
    <NoteOn Channel="8" Note="74" Velocity="106"/>
  </Event>
  <Event>
    <Absolute>39552</Absolute>
    <NoteOff Channel="8" Note="74" Velocity="0"/>
  </Event>
  <Event>
    <Absolute>39552</Absolute>
    <NoteOn Channel="8" Note="76" Velocity="120"/>
  </Event>
  <Event>
    <Absolute>39680</Absolute>
    <NoteOff Channel="8" Note="76" Velocity="0"/>
  </Event>
  <Event>
    <Absolute>39680</Absolute>
    <NoteOn Channel="8" Note="72" Velocity="101"/>
  </Event>
  <Event>
    <Absolute>39936</Absolute>
    <NoteOff Channel="8" Note="72" Velocity="0"/>
  </Event>
  <Event>
    <Absolute>39936</Absolute>
    <NoteOn Channel="8" Note="81" Velocity="127"/>
  </Event>
  <Event>
    <Absolute>40192</Absolute>
    <NoteOff Channel="8" Note="81" Velocity="0"/>
  </Event>
  <Event>
    <Absolute>40192</Absolute>
    <NoteOn Channel="8" Note="81" Velocity="113"/>
  </Event>
  <Event>
    <Absolute>40320</Absolute>
    <NoteOff Channel="8" Note="81" Velocity="0"/>
  </Event>
  <Event>
    <Absolute>40320</Absolute>
    <NoteOn Channel="8" Note="81" Velocity="112"/>
  </Event>
  <Event>
    <Absolute>40448</Absolute>
    <NoteOff Channel="8" Note="81" Velocity="0"/>
  </Event>
  <Event>
    <Absolute>40448</Absolute>
    <NoteOn Channel="8" Note="79" Velocity="104"/>
  </Event>
  <Event>
    <Absolute>40576</Absolute>
    <NoteOn Channel="8" Note="77" Velocity="97"/>
  </Event>
  <Event>
    <Absolute>40578</Absolute>
    <NoteOff Channel="8" Note="79" Velocity="0"/>
  </Event>
  <Event>
    <Absolute>40697</Absolute>
    <NoteOff Channel="8" Note="77" Velocity="0"/>
  </Event>
  <Event>
    <Absolute>40704</Absolute>
    <NoteOn Channel="8" Note="76" Velocity="106"/>
  </Event>
  <Event>
    <Absolute>40960</Absolute>
    <NoteOff Channel="8" Note="76" Velocity="0"/>
  </Event>
  <Event>
    <Absolute>40960</Absolute>
    <NoteOn Channel="8" Note="76" Velocity="117"/>
  </Event>
  <Event>
    <Absolute>41088</Absolute>
    <NoteOff Channel="8" Note="76" Velocity="0"/>
  </Event>
  <Event>
    <Absolute>41088</Absolute>
    <NoteOn Channel="8" Note="76" Velocity="115"/>
  </Event>
  <Event>
    <Absolute>41216</Absolute>
    <NoteOff Channel="8" Note="76" Velocity="0"/>
  </Event>
  <Event>
    <Absolute>41216</Absolute>
    <NoteOn Channel="8" Note="74" Velocity="106"/>
  </Event>
  <Event>
    <Absolute>41344</Absolute>
    <NoteOn Channel="8" Note="72" Velocity="97"/>
  </Event>
  <Event>
    <Absolute>41346</Absolute>
    <NoteOff Channel="8" Note="74" Velocity="0"/>
  </Event>
  <Event>
    <Absolute>41465</Absolute>
    <NoteOff Channel="8" Note="72" Velocity="0"/>
  </Event>
  <Event>
    <Absolute>41472</Absolute>
    <NoteOn Channel="8" Note="74" Velocity="117"/>
  </Event>
  <Event>
    <Absolute>41728</Absolute>
    <NoteOff Channel="8" Note="74" Velocity="0"/>
  </Event>
  <Event>
    <Absolute>41728</Absolute>
    <NoteOn Channel="8" Note="74" Velocity="116"/>
  </Event>
  <Event>
    <Absolute>41856</Absolute>
    <NoteOff Channel="8" Note="74" Velocity="0"/>
  </Event>
  <Event>
    <Absolute>41856</Absolute>
    <NoteOn Channel="8" Note="74" Velocity="112"/>
  </Event>
  <Event>
    <Absolute>41984</Absolute>
    <NoteOff Channel="8" Note="74" Velocity="0"/>
  </Event>
  <Event>
    <Absolute>41984</Absolute>
    <NoteOn Channel="8" Note="76" Velocity="119"/>
  </Event>
  <Event>
    <Absolute>42112</Absolute>
    <NoteOn Channel="8" Note="74" Velocity="111"/>
  </Event>
  <Event>
    <Absolute>42114</Absolute>
    <NoteOff Channel="8" Note="76" Velocity="0"/>
  </Event>
  <Event>
    <Absolute>42233</Absolute>
    <NoteOff Channel="8" Note="74" Velocity="0"/>
  </Event>
  <Event>
    <Absolute>42240</Absolute>
    <NoteOn Channel="8" Note="72" Velocity="101"/>
  </Event>
  <Event>
    <Absolute>42496</Absolute>
    <NoteOff Channel="8" Note="72" Velocity="0"/>
  </Event>
  <Event>
    <Absolute>42496</Absolute>
    <NoteOn Channel="8" Note="71" Velocity="107"/>
  </Event>
  <Event>
    <Absolute>42624</Absolute>
    <NoteOff Channel="8" Note="71" Velocity="0"/>
  </Event>
  <Event>
    <Absolute>42624</Absolute>
    <NoteOn Channel="8" Note="72" Velocity="110"/>
  </Event>
  <Event>
    <Absolute>42752</Absolute>
    <NoteOff Channel="8" Note="72" Velocity="0"/>
  </Event>
  <Event>
    <Absolute>42752</Absolute>
    <NoteOn Channel="8" Note="69" Velocity="103"/>
  </Event>
  <Event>
    <Absolute>43008</Absolute>
    <NoteOff Channel="8" Note="69" Velocity="0"/>
  </Event>
  <Event>
    <Absolute>43008</Absolute>
    <NoteOn Channel="8" Note="64" Velocity="72"/>
  </Event>
  <Event>
    <Absolute>43136</Absolute>
    <NoteOn Channel="8" Note="66" Velocity="76"/>
  </Event>
  <Event>
    <Absolute>43138</Absolute>
    <NoteOff Channel="8" Note="64" Velocity="0"/>
  </Event>
  <Event>
    <Absolute>43257</Absolute>
    <NoteOff Channel="8" Note="66" Velocity="0"/>
  </Event>
  <Event>
    <Absolute>43264</Absolute>
    <NoteOn Channel="8" Note="68" Velocity="88"/>
  </Event>
  <Event>
    <Absolute>43392</Absolute>
    <NoteOn Channel="8" Note="69" Velocity="92"/>
  </Event>
  <Event>
    <Absolute>43394</Absolute>
    <NoteOff Channel="8" Note="68" Velocity="0"/>
  </Event>
  <Event>
    <Absolute>43513</Absolute>
    <NoteOff Channel="8" Note="69" Velocity="0"/>
  </Event>
  <Event>
    <Absolute>43520</Absolute>
    <NoteOn Channel="8" Note="71" Velocity="94"/>
  </Event>
  <Event>
    <Absolute>43648</Absolute>
    <NoteOn Channel="8" Note="72" Velocity="89"/>
  </Event>
  <Event>
    <Absolute>43650</Absolute>
    <NoteOff Channel="8" Note="71" Velocity="0"/>
  </Event>
  <Event>
    <Absolute>43769</Absolute>
    <NoteOff Channel="8" Note="72" Velocity="0"/>
  </Event>
  <Event>
    <Absolute>43776</Absolute>
    <NoteOn Channel="8" Note="74" Velocity="98"/>
  </Event>
  <Event>
    <Absolute>43904</Absolute>
    <NoteOn Channel="8" Note="76" Velocity="100"/>
  </Event>
  <Event>
    <Absolute>43906</Absolute>
    <NoteOff Channel="8" Note="74" Velocity="0"/>
  </Event>
  <Event>
    <Absolute>44025</Absolute>
    <NoteOff Channel="8" Note="76" Velocity="0"/>
  </Event>
  <Event>
    <Absolute>44032</Absolute>
    <NoteOn Channel="8" Note="74" Velocity="90"/>
  </Event>
  <Event>
    <Absolute>44288</Absolute>
    <NoteOff Channel="8" Note="74" Velocity="0"/>
  </Event>
  <Event>
    <Absolute>44288</Absolute>
    <NoteOn Channel="8" Note="72" Velocity="83"/>
  </Event>
  <Event>
    <Absolute>44544</Absolute>
    <NoteOff Channel="8" Note="72" Velocity="0"/>
  </Event>
  <Event>
    <Absolute>44544</Absolute>
    <NoteOn Channel="8" Note="64" Velocity="68"/>
  </Event>
  <Event>
    <Absolute>44672</Absolute>
    <NoteOn Channel="8" Note="66" Velocity="84"/>
  </Event>
  <Event>
    <Absolute>44674</Absolute>
    <NoteOff Channel="8" Note="64" Velocity="0"/>
  </Event>
  <Event>
    <Absolute>44793</Absolute>
    <NoteOff Channel="8" Note="66" Velocity="0"/>
  </Event>
  <Event>
    <Absolute>44800</Absolute>
    <NoteOn Channel="8" Note="68" Velocity="91"/>
  </Event>
  <Event>
    <Absolute>44928</Absolute>
    <NoteOn Channel="8" Note="69" Velocity="100"/>
  </Event>
  <Event>
    <Absolute>44930</Absolute>
    <NoteOff Channel="8" Note="68" Velocity="0"/>
  </Event>
  <Event>
    <Absolute>45049</Absolute>
    <NoteOff Channel="8" Note="69" Velocity="0"/>
  </Event>
  <Event>
    <Absolute>45056</Absolute>
    <NoteOn Channel="8" Note="71" Velocity="98"/>
  </Event>
  <Event>
    <Absolute>45184</Absolute>
    <NoteOn Channel="8" Note="72" Velocity="102"/>
  </Event>
  <Event>
    <Absolute>45186</Absolute>
    <NoteOff Channel="8" Note="71" Velocity="0"/>
  </Event>
  <Event>
    <Absolute>45305</Absolute>
    <NoteOff Channel="8" Note="72" Velocity="0"/>
  </Event>
  <Event>
    <Absolute>45312</Absolute>
    <NoteOn Channel="8" Note="74" Velocity="99"/>
  </Event>
  <Event>
    <Absolute>45440</Absolute>
    <NoteOn Channel="8" Note="76" Velocity="105"/>
  </Event>
  <Event>
    <Absolute>45442</Absolute>
    <NoteOff Channel="8" Note="74" Velocity="0"/>
  </Event>
  <Event>
    <Absolute>45561</Absolute>
    <NoteOff Channel="8" Note="76" Velocity="0"/>
  </Event>
  <Event>
    <Absolute>45568</Absolute>
    <NoteOn Channel="8" Note="74" Velocity="78"/>
  </Event>
  <Event>
    <Absolute>45824</Absolute>
    <NoteOff Channel="8" Note="74" Velocity="0"/>
  </Event>
  <Event>
    <Absolute>45824</Absolute>
    <NoteOn Channel="8" Note="72" Velocity="52"/>
  </Event>
  <Event>
    <Absolute>46080</Absolute>
    <NoteOff Channel="8" Note="72" Velocity="0"/>
  </Event>
  <Event>
    <Absolute>46080</Absolute>
    <NoteOn Channel="8" Note="72" Velocity="46"/>
  </Event>
  <Event>
    <Absolute>46336</Absolute>
    <NoteOff Channel="8" Note="72" Velocity="0"/>
  </Event>
  <Event>
    <Absolute>46336</Absolute>
    <NoteOn Channel="8" Note="71" Velocity="47"/>
  </Event>
  <Event>
    <Absolute>46464</Absolute>
    <NoteOff Channel="8" Note="71" Velocity="0"/>
  </Event>
  <Event>
    <Absolute>46464</Absolute>
    <NoteOn Channel="8" Note="72" Velocity="54"/>
  </Event>
  <Event>
    <Absolute>46592</Absolute>
    <NoteOff Channel="8" Note="72" Velocity="0"/>
  </Event>
  <Event>
    <Absolute>46592</Absolute>
    <NoteOn Channel="8" Note="69" Velocity="43"/>
  </Event>
  <Event>
    <Absolute>46848</Absolute>
    <NoteOff Channel="8" Note="69" Velocity="0"/>
  </Event>
  <Event>
    <Absolute>46848</Absolute>
    <NoteOn Channel="8" Note="72" Velocity="47"/>
  </Event>
  <Event>
    <Absolute>47104</Absolute>
    <NoteOff Channel="8" Note="72" Velocity="0"/>
  </Event>
  <Event>
    <Absolute>47104</Absolute>
    <NoteOn Channel="8" Note="71" Velocity="49"/>
  </Event>
  <Event>
    <Absolute>47232</Absolute>
    <NoteOff Channel="8" Note="71" Velocity="0"/>
  </Event>
  <Event>
    <Absolute>47232</Absolute>
    <NoteOn Channel="8" Note="72" Velocity="50"/>
  </Event>
  <Event>
    <Absolute>47360</Absolute>
    <NoteOff Channel="8" Note="72" Velocity="0"/>
  </Event>
  <Event>
    <Absolute>47360</Absolute>
    <NoteOn Channel="8" Note="69" Velocity="42"/>
  </Event>
  <Event>
    <Absolute>47616</Absolute>
    <NoteOff Channel="8" Note="69" Velocity="0"/>
  </Event>
  <Event>
    <Absolute>47616</Absolute>
    <NoteOn Channel="8" Note="72" Velocity="51"/>
  </Event>
  <Event>
    <Absolute>47872</Absolute>
    <NoteOff Channel="8" Note="72" Velocity="0"/>
  </Event>
  <Event>
    <Absolute>47872</Absolute>
    <NoteOn Channel="8" Note="71" Velocity="47"/>
  </Event>
  <Event>
    <Absolute>48000</Absolute>
    <NoteOff Channel="8" Note="71" Velocity="0"/>
  </Event>
  <Event>
    <Absolute>48000</Absolute>
    <NoteOn Channel="8" Note="72" Velocity="52"/>
  </Event>
  <Event>
    <Absolute>48128</Absolute>
    <NoteOff Channel="8" Note="72" Velocity="0"/>
  </Event>
  <Event>
    <Absolute>48128</Absolute>
    <NoteOn Channel="8" Note="69" Velocity="41"/>
  </Event>
  <Event>
    <Absolute>48384</Absolute>
    <NoteOff Channel="8" Note="69" Velocity="0"/>
  </Event>
  <Event>
    <Absolute>48384</Absolute>
    <NoteOn Channel="8" Note="72" Velocity="54"/>
  </Event>
  <Event>
    <Absolute>48640</Absolute>
    <NoteOff Channel="8" Note="72" Velocity="0"/>
  </Event>
  <Event>
    <Absolute>48640</Absolute>
    <NoteOn Channel="8" Note="71" Velocity="47"/>
  </Event>
  <Event>
    <Absolute>48768</Absolute>
    <NoteOff Channel="8" Note="71" Velocity="0"/>
  </Event>
  <Event>
    <Absolute>48768</Absolute>
    <NoteOn Channel="8" Note="72" Velocity="47"/>
  </Event>
  <Event>
    <Absolute>48896</Absolute>
    <NoteOff Channel="8" Note="72" Velocity="0"/>
  </Event>
  <Event>
    <Absolute>48896</Absolute>
    <NoteOn Channel="8" Note="69" Velocity="45"/>
  </Event>
  <Event>
    <Absolute>49152</Absolute>
    <NoteOff Channel="8" Note="69" Velocity="0"/>
  </Event>
  <Event>
    <Absolute>49152</Absolute>
    <NoteOn Channel="8" Note="72" Velocity="53"/>
  </Event>
  <Event>
    <Absolute>49408</Absolute>
    <NoteOff Channel="8" Note="72" Velocity="0"/>
  </Event>
  <Event>
    <Absolute>49408</Absolute>
    <NoteOn Channel="8" Note="71" Velocity="46"/>
  </Event>
  <Event>
    <Absolute>49536</Absolute>
    <NoteOff Channel="8" Note="71" Velocity="0"/>
  </Event>
  <Event>
    <Absolute>49536</Absolute>
    <NoteOn Channel="8" Note="72" Velocity="50"/>
  </Event>
  <Event>
    <Absolute>49664</Absolute>
    <NoteOff Channel="8" Note="72" Velocity="0"/>
  </Event>
  <Event>
    <Absolute>49664</Absolute>
    <NoteOn Channel="8" Note="69" Velocity="46"/>
  </Event>
  <Event>
    <Absolute>49920</Absolute>
    <NoteOff Channel="8" Note="69" Velocity="0"/>
  </Event>
  <Event>
    <Absolute>49920</Absolute>
    <NoteOn Channel="8" Note="72" Velocity="53"/>
  </Event>
  <Event>
    <Absolute>50176</Absolute>
    <NoteOff Channel="8" Note="72" Velocity="0"/>
  </Event>
  <Event>
    <Absolute>50176</Absolute>
    <NoteOn Channel="8" Note="71" Velocity="44"/>
  </Event>
  <Event>
    <Absolute>50304</Absolute>
    <NoteOff Channel="8" Note="71" Velocity="0"/>
  </Event>
  <Event>
    <Absolute>50304</Absolute>
    <NoteOn Channel="8" Note="72" Velocity="53"/>
  </Event>
  <Event>
    <Absolute>50432</Absolute>
    <NoteOff Channel="8" Note="72" Velocity="0"/>
  </Event>
  <Event>
    <Absolute>50432</Absolute>
    <NoteOn Channel="8" Note="69" Velocity="45"/>
  </Event>
  <Event>
    <Absolute>50688</Absolute>
    <NoteOff Channel="8" Note="69" Velocity="0"/>
  </Event>
  <Event>
    <Absolute>50688</Absolute>
    <NoteOn Channel="8" Note="72" Velocity="52"/>
  </Event>
  <Event>
    <Absolute>50944</Absolute>
    <NoteOff Channel="8" Note="72" Velocity="0"/>
  </Event>
  <Event>
    <Absolute>50944</Absolute>
    <NoteOn Channel="8" Note="71" Velocity="48"/>
  </Event>
  <Event>
    <Absolute>51072</Absolute>
    <NoteOff Channel="8" Note="71" Velocity="0"/>
  </Event>
  <Event>
    <Absolute>51072</Absolute>
    <NoteOn Channel="8" Note="72" Velocity="52"/>
  </Event>
  <Event>
    <Absolute>51200</Absolute>
    <NoteOff Channel="8" Note="72" Velocity="0"/>
  </Event>
  <Event>
    <Absolute>51200</Absolute>
    <NoteOn Channel="8" Note="69" Velocity="46"/>
  </Event>
  <Event>
    <Absolute>51456</Absolute>
    <NoteOff Channel="8" Note="69" Velocity="0"/>
  </Event>
  <Event>
    <Absolute>51456</Absolute>
    <NoteOn Channel="8" Note="72" Velocity="52"/>
  </Event>
  <Event>
    <Absolute>51712</Absolute>
    <NoteOff Channel="8" Note="72" Velocity="0"/>
  </Event>
  <Event>
    <Absolute>51712</Absolute>
    <NoteOn Channel="8" Note="71" Velocity="44"/>
  </Event>
  <Event>
    <Absolute>51840</Absolute>
    <NoteOff Channel="8" Note="71" Velocity="0"/>
  </Event>
  <Event>
    <Absolute>51840</Absolute>
    <NoteOn Channel="8" Note="72" Velocity="51"/>
  </Event>
  <Event>
    <Absolute>51968</Absolute>
    <NoteOff Channel="8" Note="72" Velocity="0"/>
  </Event>
  <Event>
    <Absolute>51968</Absolute>
    <NoteOn Channel="8" Note="69" Velocity="43"/>
  </Event>
  <Event>
    <Absolute>53376</Absolute>
    <NoteOff Channel="8" Note="69" Velocity="0"/>
  </Event>
  <Event>
    <Absolute>53377</Absolute>
    <EndOfTrack/>
  </Event>
</Track>
<Track Number="9">
  <Event>
    <Absolute>0</Absolute>
    <ControlChange Channel="13" Control="121" Value="0"/>
  </Event>
  <Event>
    <Absolute>0</Absolute>
    <ControlChange Channel="13" Control="64" Value="0"/>
  </Event>
  <Event>
    <Absolute>0</Absolute>
    <ControlChange Channel="13" Control="91" Value="48"/>
  </Event>
  <Event>
    <Absolute>0</Absolute>
    <ControlChange Channel="13" Control="10" Value="111"/>
  </Event>
  <Event>
    <Absolute>0</Absolute>
    <ControlChange Channel="13" Control="7" Value="95"/>
  </Event>
  <Event>
    <Absolute>0</Absolute>
    <TrackName>Violin 2</TrackName>
  </Event>
  <Event>
    <Absolute>0</Absolute>
    <NoteOn Channel="13" Note="72" Velocity="58"/>
  </Event>
  <Event>
    <Absolute>256</Absolute>
    <NoteOff Channel="13" Note="72" Velocity="0"/>
  </Event>
  <Event>
    <Absolute>256</Absolute>
    <NoteOn Channel="13" Note="71" Velocity="58"/>
  </Event>
  <Event>
    <Absolute>384</Absolute>
    <NoteOff Channel="13" Note="71" Velocity="0"/>
  </Event>
  <Event>
    <Absolute>384</Absolute>
    <NoteOn Channel="13" Note="72" Velocity="64"/>
  </Event>
  <Event>
    <Absolute>512</Absolute>
    <NoteOff Channel="13" Note="72" Velocity="0"/>
  </Event>
  <Event>
    <Absolute>512</Absolute>
    <NoteOn Channel="13" Note="69" Velocity="59"/>
  </Event>
  <Event>
    <Absolute>768</Absolute>
    <NoteOff Channel="13" Note="69" Velocity="0"/>
  </Event>
  <Event>
    <Absolute>768</Absolute>
    <NoteOn Channel="13" Note="72" Velocity="62"/>
  </Event>
  <Event>
    <Absolute>1024</Absolute>
    <NoteOff Channel="13" Note="72" Velocity="0"/>
  </Event>
  <Event>
    <Absolute>1024</Absolute>
    <NoteOn Channel="13" Note="71" Velocity="57"/>
  </Event>
  <Event>
    <Absolute>1152</Absolute>
    <NoteOff Channel="13" Note="71" Velocity="0"/>
  </Event>
  <Event>
    <Absolute>1152</Absolute>
    <NoteOn Channel="13" Note="72" Velocity="70"/>
  </Event>
  <Event>
    <Absolute>1280</Absolute>
    <NoteOff Channel="13" Note="72" Velocity="0"/>
  </Event>
  <Event>
    <Absolute>1280</Absolute>
    <NoteOn Channel="13" Note="69" Velocity="58"/>
  </Event>
  <Event>
    <Absolute>1536</Absolute>
    <NoteOff Channel="13" Note="69" Velocity="0"/>
  </Event>
  <Event>
    <Absolute>1536</Absolute>
    <NoteOn Channel="13" Note="72" Velocity="71"/>
  </Event>
  <Event>
    <Absolute>1792</Absolute>
    <NoteOff Channel="13" Note="72" Velocity="0"/>
  </Event>
  <Event>
    <Absolute>1792</Absolute>
    <NoteOn Channel="13" Note="71" Velocity="66"/>
  </Event>
  <Event>
    <Absolute>1920</Absolute>
    <NoteOff Channel="13" Note="71" Velocity="0"/>
  </Event>
  <Event>
    <Absolute>1920</Absolute>
    <NoteOn Channel="13" Note="72" Velocity="65"/>
  </Event>
  <Event>
    <Absolute>2048</Absolute>
    <NoteOff Channel="13" Note="72" Velocity="0"/>
  </Event>
  <Event>
    <Absolute>2048</Absolute>
    <NoteOn Channel="13" Note="69" Velocity="58"/>
  </Event>
  <Event>
    <Absolute>2304</Absolute>
    <NoteOff Channel="13" Note="69" Velocity="0"/>
  </Event>
  <Event>
    <Absolute>2304</Absolute>
    <NoteOn Channel="13" Note="72" Velocity="70"/>
  </Event>
  <Event>
    <Absolute>2560</Absolute>
    <NoteOff Channel="13" Note="72" Velocity="0"/>
  </Event>
  <Event>
    <Absolute>2560</Absolute>
    <NoteOn Channel="13" Note="71" Velocity="60"/>
  </Event>
  <Event>
    <Absolute>2688</Absolute>
    <NoteOff Channel="13" Note="71" Velocity="0"/>
  </Event>
  <Event>
    <Absolute>2688</Absolute>
    <NoteOn Channel="13" Note="72" Velocity="69"/>
  </Event>
  <Event>
    <Absolute>2816</Absolute>
    <NoteOff Channel="13" Note="72" Velocity="0"/>
  </Event>
  <Event>
    <Absolute>2816</Absolute>
    <NoteOn Channel="13" Note="69" Velocity="60"/>
  </Event>
  <Event>
    <Absolute>3072</Absolute>
    <NoteOff Channel="13" Note="69" Velocity="0"/>
  </Event>
  <Event>
    <Absolute>3072</Absolute>
    <NoteOn Channel="13" Note="72" Velocity="69"/>
  </Event>
  <Event>
    <Absolute>3328</Absolute>
    <NoteOff Channel="13" Note="72" Velocity="0"/>
  </Event>
  <Event>
    <Absolute>3328</Absolute>
    <NoteOn Channel="13" Note="71" Velocity="61"/>
  </Event>
  <Event>
    <Absolute>3456</Absolute>
    <NoteOff Channel="13" Note="71" Velocity="0"/>
  </Event>
  <Event>
    <Absolute>3456</Absolute>
    <NoteOn Channel="13" Note="72" Velocity="65"/>
  </Event>
  <Event>
    <Absolute>3584</Absolute>
    <NoteOff Channel="13" Note="72" Velocity="0"/>
  </Event>
  <Event>
    <Absolute>3584</Absolute>
    <NoteOn Channel="13" Note="69" Velocity="59"/>
  </Event>
  <Event>
    <Absolute>3840</Absolute>
    <NoteOff Channel="13" Note="69" Velocity="0"/>
  </Event>
  <Event>
    <Absolute>3840</Absolute>
    <NoteOn Channel="13" Note="72" Velocity="73"/>
  </Event>
  <Event>
    <Absolute>4096</Absolute>
    <NoteOff Channel="13" Note="72" Velocity="0"/>
  </Event>
  <Event>
    <Absolute>4096</Absolute>
    <NoteOn Channel="13" Note="71" Velocity="63"/>
  </Event>
  <Event>
    <Absolute>4224</Absolute>
    <NoteOff Channel="13" Note="71" Velocity="0"/>
  </Event>
  <Event>
    <Absolute>4224</Absolute>
    <NoteOn Channel="13" Note="72" Velocity="70"/>
  </Event>
  <Event>
    <Absolute>4352</Absolute>
    <NoteOff Channel="13" Note="72" Velocity="0"/>
  </Event>
  <Event>
    <Absolute>4352</Absolute>
    <NoteOn Channel="13" Note="69" Velocity="61"/>
  </Event>
  <Event>
    <Absolute>4608</Absolute>
    <NoteOff Channel="13" Note="69" Velocity="0"/>
  </Event>
  <Event>
    <Absolute>4608</Absolute>
    <NoteOn Channel="13" Note="72" Velocity="71"/>
  </Event>
  <Event>
    <Absolute>4864</Absolute>
    <NoteOff Channel="13" Note="72" Velocity="0"/>
  </Event>
  <Event>
    <Absolute>4864</Absolute>
    <NoteOn Channel="13" Note="71" Velocity="61"/>
  </Event>
  <Event>
    <Absolute>4992</Absolute>
    <NoteOff Channel="13" Note="71" Velocity="0"/>
  </Event>
  <Event>
    <Absolute>4992</Absolute>
    <NoteOn Channel="13" Note="72" Velocity="64"/>
  </Event>
  <Event>
    <Absolute>5120</Absolute>
    <NoteOff Channel="13" Note="72" Velocity="0"/>
  </Event>
  <Event>
    <Absolute>5120</Absolute>
    <NoteOn Channel="13" Note="69" Velocity="54"/>
  </Event>
  <Event>
    <Absolute>5376</Absolute>
    <NoteOff Channel="13" Note="69" Velocity="0"/>
  </Event>
  <Event>
    <Absolute>5376</Absolute>
    <NoteOn Channel="13" Note="72" Velocity="73"/>
  </Event>
  <Event>
    <Absolute>5632</Absolute>
    <NoteOff Channel="13" Note="72" Velocity="0"/>
  </Event>
  <Event>
    <Absolute>5632</Absolute>
    <NoteOn Channel="13" Note="71" Velocity="64"/>
  </Event>
  <Event>
    <Absolute>5760</Absolute>
    <NoteOff Channel="13" Note="71" Velocity="0"/>
  </Event>
  <Event>
    <Absolute>5760</Absolute>
    <NoteOn Channel="13" Note="72" Velocity="67"/>
  </Event>
  <Event>
    <Absolute>5888</Absolute>
    <NoteOff Channel="13" Note="72" Velocity="0"/>
  </Event>
  <Event>
    <Absolute>5888</Absolute>
    <NoteOn Channel="13" Note="69" Velocity="58"/>
  </Event>
  <Event>
    <Absolute>6144</Absolute>
    <NoteOff Channel="13" Note="69" Velocity="0"/>
  </Event>
  <Event>
    <Absolute>6144</Absolute>
    <NoteOn Channel="13" Note="69" Velocity="102"/>
  </Event>
  <Event>
    <Absolute>6912</Absolute>
    <NoteOff Channel="13" Note="69" Velocity="0"/>
  </Event>
  <Event>
    <Absolute>6912</Absolute>
    <NoteOn Channel="13" Note="67" Velocity="66"/>
  </Event>
  <Event>
    <Absolute>7680</Absolute>
    <NoteOff Channel="13" Note="67" Velocity="0"/>
  </Event>
  <Event>
    <Absolute>7680</Absolute>
    <NoteOn Channel="13" Note="65" Velocity="59"/>
  </Event>
  <Event>
    <Absolute>8448</Absolute>
    <NoteOff Channel="13" Note="65" Velocity="0"/>
  </Event>
  <Event>
    <Absolute>8448</Absolute>
    <NoteOn Channel="13" Note="64" Velocity="53"/>
  </Event>
  <Event>
    <Absolute>9216</Absolute>
    <NoteOff Channel="13" Note="64" Velocity="0"/>
  </Event>
  <Event>
    <Absolute>9216</Absolute>
    <NoteOn Channel="13" Note="69" Velocity="88"/>
  </Event>
  <Event>
    <Absolute>9472</Absolute>
    <NoteOff Channel="13" Note="69" Velocity="0"/>
  </Event>
  <Event>
    <Absolute>9472</Absolute>
    <NoteOn Channel="13" Note="69" Velocity="83"/>
  </Event>
  <Event>
    <Absolute>9600</Absolute>
    <NoteOff Channel="13" Note="69" Velocity="0"/>
  </Event>
  <Event>
    <Absolute>9600</Absolute>
    <NoteOn Channel="13" Note="69" Velocity="84"/>
  </Event>
  <Event>
    <Absolute>9728</Absolute>
    <NoteOff Channel="13" Note="69" Velocity="0"/>
  </Event>
  <Event>
    <Absolute>9728</Absolute>
    <NoteOn Channel="13" Note="69" Velocity="86"/>
  </Event>
  <Event>
    <Absolute>9984</Absolute>
    <NoteOff Channel="13" Note="69" Velocity="0"/>
  </Event>
  <Event>
    <Absolute>9984</Absolute>
    <NoteOn Channel="13" Note="69" Velocity="97"/>
  </Event>
  <Event>
    <Absolute>10240</Absolute>
    <NoteOff Channel="13" Note="69" Velocity="0"/>
  </Event>
  <Event>
    <Absolute>10240</Absolute>
    <NoteOn Channel="13" Note="69" Velocity="102"/>
  </Event>
  <Event>
    <Absolute>10368</Absolute>
    <NoteOff Channel="13" Note="69" Velocity="0"/>
  </Event>
  <Event>
    <Absolute>10368</Absolute>
    <NoteOn Channel="13" Note="69" Velocity="98"/>
  </Event>
  <Event>
    <Absolute>10496</Absolute>
    <NoteOff Channel="13" Note="69" Velocity="0"/>
  </Event>
  <Event>
    <Absolute>10496</Absolute>
    <NoteOn Channel="13" Note="69" Velocity="98"/>
  </Event>
  <Event>
    <Absolute>10752</Absolute>
    <NoteOff Channel="13" Note="69" Velocity="0"/>
  </Event>
  <Event>
    <Absolute>10752</Absolute>
    <NoteOn Channel="13" Note="69" Velocity="97"/>
  </Event>
  <Event>
    <Absolute>11008</Absolute>
    <NoteOff Channel="13" Note="69" Velocity="0"/>
  </Event>
  <Event>
    <Absolute>11008</Absolute>
    <NoteOn Channel="13" Note="69" Velocity="94"/>
  </Event>
  <Event>
    <Absolute>11136</Absolute>
    <NoteOff Channel="13" Note="69" Velocity="0"/>
  </Event>
  <Event>
    <Absolute>11136</Absolute>
    <NoteOn Channel="13" Note="69" Velocity="98"/>
  </Event>
  <Event>
    <Absolute>11264</Absolute>
    <NoteOff Channel="13" Note="69" Velocity="0"/>
  </Event>
  <Event>
    <Absolute>11264</Absolute>
    <NoteOn Channel="13" Note="69" Velocity="98"/>
  </Event>
  <Event>
    <Absolute>11520</Absolute>
    <NoteOff Channel="13" Note="69" Velocity="0"/>
  </Event>
  <Event>
    <Absolute>11520</Absolute>
    <NoteOn Channel="13" Note="69" Velocity="98"/>
  </Event>
  <Event>
    <Absolute>11776</Absolute>
    <NoteOff Channel="13" Note="69" Velocity="0"/>
  </Event>
  <Event>
    <Absolute>11776</Absolute>
    <NoteOn Channel="13" Note="69" Velocity="97"/>
  </Event>
  <Event>
    <Absolute>11904</Absolute>
    <NoteOff Channel="13" Note="69" Velocity="0"/>
  </Event>
  <Event>
    <Absolute>11904</Absolute>
    <NoteOn Channel="13" Note="69" Velocity="96"/>
  </Event>
  <Event>
    <Absolute>12032</Absolute>
    <NoteOff Channel="13" Note="69" Velocity="0"/>
  </Event>
  <Event>
    <Absolute>12032</Absolute>
    <NoteOn Channel="13" Note="69" Velocity="98"/>
  </Event>
  <Event>
    <Absolute>12288</Absolute>
    <NoteOff Channel="13" Note="69" Velocity="0"/>
  </Event>
  <Event>
    <Absolute>12288</Absolute>
    <NoteOn Channel="13" Note="72" Velocity="108"/>
  </Event>
  <Event>
    <Absolute>12544</Absolute>
    <NoteOff Channel="13" Note="72" Velocity="0"/>
  </Event>
  <Event>
    <Absolute>12544</Absolute>
    <NoteOn Channel="13" Note="71" Velocity="93"/>
  </Event>
  <Event>
    <Absolute>12672</Absolute>
    <NoteOff Channel="13" Note="71" Velocity="0"/>
  </Event>
  <Event>
    <Absolute>12672</Absolute>
    <NoteOn Channel="13" Note="72" Velocity="100"/>
  </Event>
  <Event>
    <Absolute>12800</Absolute>
    <NoteOff Channel="13" Note="72" Velocity="0"/>
  </Event>
  <Event>
    <Absolute>12800</Absolute>
    <NoteOn Channel="13" Note="69" Velocity="90"/>
  </Event>
  <Event>
    <Absolute>13056</Absolute>
    <NoteOff Channel="13" Note="69" Velocity="0"/>
  </Event>
  <Event>
    <Absolute>13056</Absolute>
    <NoteOn Channel="13" Note="72" Velocity="114"/>
  </Event>
  <Event>
    <Absolute>13312</Absolute>
    <NoteOff Channel="13" Note="72" Velocity="0"/>
  </Event>
  <Event>
    <Absolute>13312</Absolute>
    <NoteOn Channel="13" Note="71" Velocity="102"/>
  </Event>
  <Event>
    <Absolute>13440</Absolute>
    <NoteOff Channel="13" Note="71" Velocity="0"/>
  </Event>
  <Event>
    <Absolute>13440</Absolute>
    <NoteOn Channel="13" Note="72" Velocity="112"/>
  </Event>
  <Event>
    <Absolute>13568</Absolute>
    <NoteOff Channel="13" Note="72" Velocity="0"/>
  </Event>
  <Event>
    <Absolute>13568</Absolute>
    <NoteOn Channel="13" Note="69" Velocity="104"/>
  </Event>
  <Event>
    <Absolute>13824</Absolute>
    <NoteOff Channel="13" Note="69" Velocity="0"/>
  </Event>
  <Event>
    <Absolute>13824</Absolute>
    <NoteOn Channel="13" Note="72" Velocity="122"/>
  </Event>
  <Event>
    <Absolute>14080</Absolute>
    <NoteOff Channel="13" Note="72" Velocity="0"/>
  </Event>
  <Event>
    <Absolute>14080</Absolute>
    <NoteOn Channel="13" Note="71" Velocity="107"/>
  </Event>
  <Event>
    <Absolute>14208</Absolute>
    <NoteOff Channel="13" Note="71" Velocity="0"/>
  </Event>
  <Event>
    <Absolute>14208</Absolute>
    <NoteOn Channel="13" Note="72" Velocity="121"/>
  </Event>
  <Event>
    <Absolute>14336</Absolute>
    <NoteOff Channel="13" Note="72" Velocity="0"/>
  </Event>
  <Event>
    <Absolute>14336</Absolute>
    <NoteOn Channel="13" Note="69" Velocity="104"/>
  </Event>
  <Event>
    <Absolute>14592</Absolute>
    <NoteOff Channel="13" Note="69" Velocity="0"/>
  </Event>
  <Event>
    <Absolute>14592</Absolute>
    <NoteOn Channel="13" Note="72" Velocity="119"/>
  </Event>
  <Event>
    <Absolute>14848</Absolute>
    <NoteOff Channel="13" Note="72" Velocity="0"/>
  </Event>
  <Event>
    <Absolute>14848</Absolute>
    <NoteOn Channel="13" Note="71" Velocity="109"/>
  </Event>
  <Event>
    <Absolute>14976</Absolute>
    <NoteOff Channel="13" Note="71" Velocity="0"/>
  </Event>
  <Event>
    <Absolute>14976</Absolute>
    <NoteOn Channel="13" Note="72" Velocity="115"/>
  </Event>
  <Event>
    <Absolute>15104</Absolute>
    <NoteOff Channel="13" Note="72" Velocity="0"/>
  </Event>
  <Event>
    <Absolute>15104</Absolute>
    <NoteOn Channel="13" Note="69" Velocity="101"/>
  </Event>
  <Event>
    <Absolute>15360</Absolute>
    <NoteOff Channel="13" Note="69" Velocity="0"/>
  </Event>
  <Event>
    <Absolute>15360</Absolute>
    <NoteOn Channel="13" Note="76" Velocity="124"/>
  </Event>
  <Event>
    <Absolute>15616</Absolute>
    <NoteOff Channel="13" Note="76" Velocity="0"/>
  </Event>
  <Event>
    <Absolute>15616</Absolute>
    <NoteOn Channel="13" Note="76" Velocity="114"/>
  </Event>
  <Event>
    <Absolute>15744</Absolute>
    <NoteOff Channel="13" Note="76" Velocity="0"/>
  </Event>
  <Event>
    <Absolute>15744</Absolute>
    <NoteOn Channel="13" Note="76" Velocity="115"/>
  </Event>
  <Event>
    <Absolute>15872</Absolute>
    <NoteOff Channel="13" Note="76" Velocity="0"/>
  </Event>
  <Event>
    <Absolute>15872</Absolute>
    <NoteOn Channel="13" Note="76" Velocity="118"/>
  </Event>
  <Event>
    <Absolute>16000</Absolute>
    <NoteOn Channel="13" Note="74" Velocity="110"/>
  </Event>
  <Event>
    <Absolute>16002</Absolute>
    <NoteOff Channel="13" Note="76" Velocity="0"/>
  </Event>
  <Event>
    <Absolute>16121</Absolute>
    <NoteOff Channel="13" Note="74" Velocity="0"/>
  </Event>
  <Event>
    <Absolute>16128</Absolute>
    <NoteOn Channel="13" Note="72" Velocity="105"/>
  </Event>
  <Event>
    <Absolute>16384</Absolute>
    <NoteOff Channel="13" Note="72" Velocity="0"/>
  </Event>
  <Event>
    <Absolute>16384</Absolute>
    <NoteOn Channel="13" Note="72" Velocity="110"/>
  </Event>
  <Event>
    <Absolute>16512</Absolute>
    <NoteOff Channel="13" Note="72" Velocity="0"/>
  </Event>
  <Event>
    <Absolute>16512</Absolute>
    <NoteOn Channel="13" Note="72" Velocity="106"/>
  </Event>
  <Event>
    <Absolute>16640</Absolute>
    <NoteOff Channel="13" Note="72" Velocity="0"/>
  </Event>
  <Event>
    <Absolute>16640</Absolute>
    <NoteOn Channel="13" Note="71" Velocity="111"/>
  </Event>
  <Event>
    <Absolute>16768</Absolute>
    <NoteOn Channel="13" Note="69" Velocity="102"/>
  </Event>
  <Event>
    <Absolute>16770</Absolute>
    <NoteOff Channel="13" Note="71" Velocity="0"/>
  </Event>
  <Event>
    <Absolute>16889</Absolute>
    <NoteOff Channel="13" Note="69" Velocity="0"/>
  </Event>
  <Event>
    <Absolute>16896</Absolute>
    <NoteOn Channel="13" Note="69" Velocity="111"/>
  </Event>
  <Event>
    <Absolute>17152</Absolute>
    <NoteOff Channel="13" Note="69" Velocity="0"/>
  </Event>
  <Event>
    <Absolute>17152</Absolute>
    <NoteOn Channel="13" Note="69" Velocity="115"/>
  </Event>
  <Event>
    <Absolute>17280</Absolute>
    <NoteOff Channel="13" Note="69" Velocity="0"/>
  </Event>
  <Event>
    <Absolute>17280</Absolute>
    <NoteOn Channel="13" Note="69" Velocity="112"/>
  </Event>
  <Event>
    <Absolute>17408</Absolute>
    <NoteOff Channel="13" Note="69" Velocity="0"/>
  </Event>
  <Event>
    <Absolute>17408</Absolute>
    <NoteOn Channel="13" Note="72" Velocity="122"/>
  </Event>
  <Event>
    <Absolute>17536</Absolute>
    <NoteOn Channel="13" Note="71" Velocity="120"/>
  </Event>
  <Event>
    <Absolute>17538</Absolute>
    <NoteOff Channel="13" Note="72" Velocity="0"/>
  </Event>
  <Event>
    <Absolute>17657</Absolute>
    <NoteOff Channel="13" Note="71" Velocity="0"/>
  </Event>
  <Event>
    <Absolute>17664</Absolute>
    <NoteOn Channel="13" Note="69" Velocity="105"/>
  </Event>
  <Event>
    <Absolute>17920</Absolute>
    <NoteOff Channel="13" Note="69" Velocity="0"/>
  </Event>
  <Event>
    <Absolute>17920</Absolute>
    <NoteOn Channel="13" Note="71" Velocity="116"/>
  </Event>
  <Event>
    <Absolute>18048</Absolute>
    <NoteOff Channel="13" Note="71" Velocity="0"/>
  </Event>
  <Event>
    <Absolute>18048</Absolute>
    <NoteOn Channel="13" Note="69" Velocity="105"/>
  </Event>
  <Event>
    <Absolute>18176</Absolute>
    <NoteOff Channel="13" Note="69" Velocity="0"/>
  </Event>
  <Event>
    <Absolute>18176</Absolute>
    <NoteOn Channel="13" Note="64" Velocity="99"/>
  </Event>
  <Event>
    <Absolute>18432</Absolute>
    <NoteOff Channel="13" Note="64" Velocity="0"/>
  </Event>
  <Event>
    <Absolute>18432</Absolute>
    <NoteOn Channel="13" Note="64" Velocity="81"/>
  </Event>
  <Event>
    <Absolute>19200</Absolute>
    <NoteOn Channel="13" Note="66" Velocity="88"/>
  </Event>
  <Event>
    <Absolute>19215</Absolute>
    <NoteOff Channel="13" Note="64" Velocity="0"/>
  </Event>
  <Event>
    <Absolute>19456</Absolute>
    <NoteOn Channel="13" Note="68" Velocity="85"/>
  </Event>
  <Event>
    <Absolute>19461</Absolute>
    <NoteOff Channel="13" Note="66" Velocity="0"/>
  </Event>
  <Event>
    <Absolute>19712</Absolute>
    <NoteOn Channel="13" Note="69" Velocity="92"/>
  </Event>
  <Event>
    <Absolute>19717</Absolute>
    <NoteOff Channel="13" Note="68" Velocity="0"/>
  </Event>
  <Event>
    <Absolute>19955</Absolute>
    <NoteOff Channel="13" Note="69" Velocity="0"/>
  </Event>
  <Event>
    <Absolute>19968</Absolute>
    <NoteOn Channel="13" Note="64" Velocity="72"/>
  </Event>
  <Event>
    <Absolute>20736</Absolute>
    <NoteOn Channel="13" Note="66" Velocity="73"/>
  </Event>
  <Event>
    <Absolute>20751</Absolute>
    <NoteOff Channel="13" Note="64" Velocity="0"/>
  </Event>
  <Event>
    <Absolute>20992</Absolute>
    <NoteOn Channel="13" Note="68" Velocity="85"/>
  </Event>
  <Event>
    <Absolute>20997</Absolute>
    <NoteOff Channel="13" Note="66" Velocity="0"/>
  </Event>
  <Event>
    <Absolute>21248</Absolute>
    <NoteOn Channel="13" Note="69" Velocity="89"/>
  </Event>
  <Event>
    <Absolute>21253</Absolute>
    <NoteOff Channel="13" Note="68" Velocity="0"/>
  </Event>
  <Event>
    <Absolute>21491</Absolute>
    <NoteOff Channel="13" Note="69" Velocity="0"/>
  </Event>
  <Event>
    <Absolute>23040</Absolute>
    <NoteOn Channel="13" Note="67" Velocity="49"/>
  </Event>
  <Event>
    <Absolute>23808</Absolute>
    <NoteOff Channel="13" Note="67" Velocity="0"/>
  </Event>
  <Event>
    <Absolute>23808</Absolute>
    <NoteOn Channel="13" Note="65" Velocity="43"/>
  </Event>
  <Event>
    <Absolute>24576</Absolute>
    <NoteOff Channel="13" Note="65" Velocity="0"/>
  </Event>
  <Event>
    <Absolute>24576</Absolute>
    <NoteOn Channel="13" Note="64" Velocity="46"/>
  </Event>
  <Event>
    <Absolute>27648</Absolute>
    <NoteOff Channel="13" Note="64" Velocity="0"/>
  </Event>
  <Event>
    <Absolute>27648</Absolute>
    <NoteOn Channel="13" Note="72" Velocity="57"/>
  </Event>
  <Event>
    <Absolute>27904</Absolute>
    <NoteOff Channel="13" Note="72" Velocity="0"/>
  </Event>
  <Event>
    <Absolute>27904</Absolute>
    <NoteOn Channel="13" Note="71" Velocity="48"/>
  </Event>
  <Event>
    <Absolute>28032</Absolute>
    <NoteOff Channel="13" Note="71" Velocity="0"/>
  </Event>
  <Event>
    <Absolute>28032</Absolute>
    <NoteOn Channel="13" Note="72" Velocity="50"/>
  </Event>
  <Event>
    <Absolute>28160</Absolute>
    <NoteOff Channel="13" Note="72" Velocity="0"/>
  </Event>
  <Event>
    <Absolute>28160</Absolute>
    <NoteOn Channel="13" Note="69" Velocity="44"/>
  </Event>
  <Event>
    <Absolute>28416</Absolute>
    <NoteOff Channel="13" Note="69" Velocity="0"/>
  </Event>
  <Event>
    <Absolute>28416</Absolute>
    <NoteOn Channel="13" Note="72" Velocity="45"/>
  </Event>
  <Event>
    <Absolute>28672</Absolute>
    <NoteOff Channel="13" Note="72" Velocity="0"/>
  </Event>
  <Event>
    <Absolute>28672</Absolute>
    <NoteOn Channel="13" Note="71" Velocity="49"/>
  </Event>
  <Event>
    <Absolute>28800</Absolute>
    <NoteOff Channel="13" Note="71" Velocity="0"/>
  </Event>
  <Event>
    <Absolute>28800</Absolute>
    <NoteOn Channel="13" Note="72" Velocity="51"/>
  </Event>
  <Event>
    <Absolute>28928</Absolute>
    <NoteOff Channel="13" Note="72" Velocity="0"/>
  </Event>
  <Event>
    <Absolute>28928</Absolute>
    <NoteOn Channel="13" Note="69" Velocity="44"/>
  </Event>
  <Event>
    <Absolute>29184</Absolute>
    <NoteOff Channel="13" Note="69" Velocity="0"/>
  </Event>
  <Event>
    <Absolute>29184</Absolute>
    <NoteOn Channel="13" Note="72" Velocity="52"/>
  </Event>
  <Event>
    <Absolute>29440</Absolute>
    <NoteOff Channel="13" Note="72" Velocity="0"/>
  </Event>
  <Event>
    <Absolute>29440</Absolute>
    <NoteOn Channel="13" Note="71" Velocity="47"/>
  </Event>
  <Event>
    <Absolute>29568</Absolute>
    <NoteOff Channel="13" Note="71" Velocity="0"/>
  </Event>
  <Event>
    <Absolute>29568</Absolute>
    <NoteOn Channel="13" Note="72" Velocity="49"/>
  </Event>
  <Event>
    <Absolute>29696</Absolute>
    <NoteOff Channel="13" Note="72" Velocity="0"/>
  </Event>
  <Event>
    <Absolute>29696</Absolute>
    <NoteOn Channel="13" Note="69" Velocity="45"/>
  </Event>
  <Event>
    <Absolute>29952</Absolute>
    <NoteOff Channel="13" Note="69" Velocity="0"/>
  </Event>
  <Event>
    <Absolute>29952</Absolute>
    <NoteOn Channel="13" Note="72" Velocity="56"/>
  </Event>
  <Event>
    <Absolute>30208</Absolute>
    <NoteOff Channel="13" Note="72" Velocity="0"/>
  </Event>
  <Event>
    <Absolute>30208</Absolute>
    <NoteOn Channel="13" Note="71" Velocity="43"/>
  </Event>
  <Event>
    <Absolute>30336</Absolute>
    <NoteOff Channel="13" Note="71" Velocity="0"/>
  </Event>
  <Event>
    <Absolute>30336</Absolute>
    <NoteOn Channel="13" Note="72" Velocity="50"/>
  </Event>
  <Event>
    <Absolute>30464</Absolute>
    <NoteOff Channel="13" Note="72" Velocity="0"/>
  </Event>
  <Event>
    <Absolute>30464</Absolute>
    <NoteOn Channel="13" Note="69" Velocity="47"/>
  </Event>
  <Event>
    <Absolute>30720</Absolute>
    <NoteOff Channel="13" Note="69" Velocity="0"/>
  </Event>
  <Event>
    <Absolute>30720</Absolute>
    <NoteOn Channel="13" Note="69" Velocity="105"/>
  </Event>
  <Event>
    <Absolute>31488</Absolute>
    <NoteOff Channel="13" Note="69" Velocity="0"/>
  </Event>
  <Event>
    <Absolute>31488</Absolute>
    <NoteOn Channel="13" Note="67" Velocity="72"/>
  </Event>
  <Event>
    <Absolute>32256</Absolute>
    <NoteOff Channel="13" Note="67" Velocity="0"/>
  </Event>
  <Event>
    <Absolute>32256</Absolute>
    <NoteOn Channel="13" Note="65" Velocity="62"/>
  </Event>
  <Event>
    <Absolute>33024</Absolute>
    <NoteOff Channel="13" Note="65" Velocity="0"/>
  </Event>
  <Event>
    <Absolute>33024</Absolute>
    <NoteOn Channel="13" Note="64" Velocity="56"/>
  </Event>
  <Event>
    <Absolute>33792</Absolute>
    <NoteOff Channel="13" Note="64" Velocity="0"/>
  </Event>
  <Event>
    <Absolute>33792</Absolute>
    <NoteOn Channel="13" Note="69" Velocity="88"/>
  </Event>
  <Event>
    <Absolute>34048</Absolute>
    <NoteOff Channel="13" Note="69" Velocity="0"/>
  </Event>
  <Event>
    <Absolute>34048</Absolute>
    <NoteOn Channel="13" Note="69" Velocity="85"/>
  </Event>
  <Event>
    <Absolute>34176</Absolute>
    <NoteOff Channel="13" Note="69" Velocity="0"/>
  </Event>
  <Event>
    <Absolute>34176</Absolute>
    <NoteOn Channel="13" Note="69" Velocity="86"/>
  </Event>
  <Event>
    <Absolute>34304</Absolute>
    <NoteOff Channel="13" Note="69" Velocity="0"/>
  </Event>
  <Event>
    <Absolute>34304</Absolute>
    <NoteOn Channel="13" Note="69" Velocity="90"/>
  </Event>
  <Event>
    <Absolute>34560</Absolute>
    <NoteOff Channel="13" Note="69" Velocity="0"/>
  </Event>
  <Event>
    <Absolute>34560</Absolute>
    <NoteOn Channel="13" Note="69" Velocity="95"/>
  </Event>
  <Event>
    <Absolute>34816</Absolute>
    <NoteOff Channel="13" Note="69" Velocity="0"/>
  </Event>
  <Event>
    <Absolute>34816</Absolute>
    <NoteOn Channel="13" Note="69" Velocity="102"/>
  </Event>
  <Event>
    <Absolute>34944</Absolute>
    <NoteOff Channel="13" Note="69" Velocity="0"/>
  </Event>
  <Event>
    <Absolute>34944</Absolute>
    <NoteOn Channel="13" Note="69" Velocity="98"/>
  </Event>
  <Event>
    <Absolute>35072</Absolute>
    <NoteOff Channel="13" Note="69" Velocity="0"/>
  </Event>
  <Event>
    <Absolute>35072</Absolute>
    <NoteOn Channel="13" Note="69" Velocity="94"/>
  </Event>
  <Event>
    <Absolute>35328</Absolute>
    <NoteOff Channel="13" Note="69" Velocity="0"/>
  </Event>
  <Event>
    <Absolute>35328</Absolute>
    <NoteOn Channel="13" Note="69" Velocity="96"/>
  </Event>
  <Event>
    <Absolute>35584</Absolute>
    <NoteOff Channel="13" Note="69" Velocity="0"/>
  </Event>
  <Event>
    <Absolute>35584</Absolute>
    <NoteOn Channel="13" Note="69" Velocity="98"/>
  </Event>
  <Event>
    <Absolute>35712</Absolute>
    <NoteOff Channel="13" Note="69" Velocity="0"/>
  </Event>
  <Event>
    <Absolute>35712</Absolute>
    <NoteOn Channel="13" Note="69" Velocity="94"/>
  </Event>
  <Event>
    <Absolute>35840</Absolute>
    <NoteOff Channel="13" Note="69" Velocity="0"/>
  </Event>
  <Event>
    <Absolute>35840</Absolute>
    <NoteOn Channel="13" Note="69" Velocity="98"/>
  </Event>
  <Event>
    <Absolute>36096</Absolute>
    <NoteOff Channel="13" Note="69" Velocity="0"/>
  </Event>
  <Event>
    <Absolute>36096</Absolute>
    <NoteOn Channel="13" Note="69" Velocity="96"/>
  </Event>
  <Event>
    <Absolute>36352</Absolute>
    <NoteOff Channel="13" Note="69" Velocity="0"/>
  </Event>
  <Event>
    <Absolute>36352</Absolute>
    <NoteOn Channel="13" Note="69" Velocity="97"/>
  </Event>
  <Event>
    <Absolute>36480</Absolute>
    <NoteOff Channel="13" Note="69" Velocity="0"/>
  </Event>
  <Event>
    <Absolute>36480</Absolute>
    <NoteOn Channel="13" Note="69" Velocity="94"/>
  </Event>
  <Event>
    <Absolute>36608</Absolute>
    <NoteOff Channel="13" Note="69" Velocity="0"/>
  </Event>
  <Event>
    <Absolute>36608</Absolute>
    <NoteOn Channel="13" Note="69" Velocity="94"/>
  </Event>
  <Event>
    <Absolute>36864</Absolute>
    <NoteOff Channel="13" Note="69" Velocity="0"/>
  </Event>
  <Event>
    <Absolute>36864</Absolute>
    <NoteOn Channel="13" Note="72" Velocity="105"/>
  </Event>
  <Event>
    <Absolute>37120</Absolute>
    <NoteOff Channel="13" Note="72" Velocity="0"/>
  </Event>
  <Event>
    <Absolute>37120</Absolute>
    <NoteOn Channel="13" Note="71" Velocity="92"/>
  </Event>
  <Event>
    <Absolute>37248</Absolute>
    <NoteOff Channel="13" Note="71" Velocity="0"/>
  </Event>
  <Event>
    <Absolute>37248</Absolute>
    <NoteOn Channel="13" Note="72" Velocity="97"/>
  </Event>
  <Event>
    <Absolute>37376</Absolute>
    <NoteOff Channel="13" Note="72" Velocity="0"/>
  </Event>
  <Event>
    <Absolute>37376</Absolute>
    <NoteOn Channel="13" Note="69" Velocity="90"/>
  </Event>
  <Event>
    <Absolute>37632</Absolute>
    <NoteOff Channel="13" Note="69" Velocity="0"/>
  </Event>
  <Event>
    <Absolute>37632</Absolute>
    <NoteOn Channel="13" Note="72" Velocity="110"/>
  </Event>
  <Event>
    <Absolute>37888</Absolute>
    <NoteOff Channel="13" Note="72" Velocity="0"/>
  </Event>
  <Event>
    <Absolute>37888</Absolute>
    <NoteOn Channel="13" Note="71" Velocity="104"/>
  </Event>
  <Event>
    <Absolute>38016</Absolute>
    <NoteOff Channel="13" Note="71" Velocity="0"/>
  </Event>
  <Event>
    <Absolute>38016</Absolute>
    <NoteOn Channel="13" Note="72" Velocity="105"/>
  </Event>
  <Event>
    <Absolute>38144</Absolute>
    <NoteOff Channel="13" Note="72" Velocity="0"/>
  </Event>
  <Event>
    <Absolute>38144</Absolute>
    <NoteOn Channel="13" Note="69" Velocity="99"/>
  </Event>
  <Event>
    <Absolute>38400</Absolute>
    <NoteOff Channel="13" Note="69" Velocity="0"/>
  </Event>
  <Event>
    <Absolute>38400</Absolute>
    <NoteOn Channel="13" Note="72" Velocity="120"/>
  </Event>
  <Event>
    <Absolute>38656</Absolute>
    <NoteOff Channel="13" Note="72" Velocity="0"/>
  </Event>
  <Event>
    <Absolute>38656</Absolute>
    <NoteOn Channel="13" Note="71" Velocity="111"/>
  </Event>
  <Event>
    <Absolute>38784</Absolute>
    <NoteOff Channel="13" Note="71" Velocity="0"/>
  </Event>
  <Event>
    <Absolute>38784</Absolute>
    <NoteOn Channel="13" Note="72" Velocity="118"/>
  </Event>
  <Event>
    <Absolute>38912</Absolute>
    <NoteOff Channel="13" Note="72" Velocity="0"/>
  </Event>
  <Event>
    <Absolute>38912</Absolute>
    <NoteOn Channel="13" Note="69" Velocity="104"/>
  </Event>
  <Event>
    <Absolute>39168</Absolute>
    <NoteOff Channel="13" Note="69" Velocity="0"/>
  </Event>
  <Event>
    <Absolute>39168</Absolute>
    <NoteOn Channel="13" Note="72" Velocity="121"/>
  </Event>
  <Event>
    <Absolute>39424</Absolute>
    <NoteOff Channel="13" Note="72" Velocity="0"/>
  </Event>
  <Event>
    <Absolute>39424</Absolute>
    <NoteOn Channel="13" Note="71" Velocity="108"/>
  </Event>
  <Event>
    <Absolute>39552</Absolute>
    <NoteOff Channel="13" Note="71" Velocity="0"/>
  </Event>
  <Event>
    <Absolute>39552</Absolute>
    <NoteOn Channel="13" Note="72" Velocity="119"/>
  </Event>
  <Event>
    <Absolute>39680</Absolute>
    <NoteOff Channel="13" Note="72" Velocity="0"/>
  </Event>
  <Event>
    <Absolute>39680</Absolute>
    <NoteOn Channel="13" Note="69" Velocity="100"/>
  </Event>
  <Event>
    <Absolute>39936</Absolute>
    <NoteOff Channel="13" Note="69" Velocity="0"/>
  </Event>
  <Event>
    <Absolute>39936</Absolute>
    <NoteOn Channel="13" Note="76" Velocity="127"/>
  </Event>
  <Event>
    <Absolute>40192</Absolute>
    <NoteOff Channel="13" Note="76" Velocity="0"/>
  </Event>
  <Event>
    <Absolute>40192</Absolute>
    <NoteOn Channel="13" Note="76" Velocity="111"/>
  </Event>
  <Event>
    <Absolute>40320</Absolute>
    <NoteOff Channel="13" Note="76" Velocity="0"/>
  </Event>
  <Event>
    <Absolute>40320</Absolute>
    <NoteOn Channel="13" Note="76" Velocity="117"/>
  </Event>
  <Event>
    <Absolute>40448</Absolute>
    <NoteOff Channel="13" Note="76" Velocity="0"/>
  </Event>
  <Event>
    <Absolute>40448</Absolute>
    <NoteOn Channel="13" Note="76" Velocity="112"/>
  </Event>
  <Event>
    <Absolute>40576</Absolute>
    <NoteOn Channel="13" Note="74" Velocity="106"/>
  </Event>
  <Event>
    <Absolute>40578</Absolute>
    <NoteOff Channel="13" Note="76" Velocity="0"/>
  </Event>
  <Event>
    <Absolute>40697</Absolute>
    <NoteOff Channel="13" Note="74" Velocity="0"/>
  </Event>
  <Event>
    <Absolute>40704</Absolute>
    <NoteOn Channel="13" Note="72" Velocity="99"/>
  </Event>
  <Event>
    <Absolute>40960</Absolute>
    <NoteOff Channel="13" Note="72" Velocity="0"/>
  </Event>
  <Event>
    <Absolute>40960</Absolute>
    <NoteOn Channel="13" Note="72" Velocity="114"/>
  </Event>
  <Event>
    <Absolute>41088</Absolute>
    <NoteOff Channel="13" Note="72" Velocity="0"/>
  </Event>
  <Event>
    <Absolute>41088</Absolute>
    <NoteOn Channel="13" Note="72" Velocity="117"/>
  </Event>
  <Event>
    <Absolute>41216</Absolute>
    <NoteOff Channel="13" Note="72" Velocity="0"/>
  </Event>
  <Event>
    <Absolute>41216</Absolute>
    <NoteOn Channel="13" Note="71" Velocity="103"/>
  </Event>
  <Event>
    <Absolute>41344</Absolute>
    <NoteOn Channel="13" Note="69" Velocity="94"/>
  </Event>
  <Event>
    <Absolute>41346</Absolute>
    <NoteOff Channel="13" Note="71" Velocity="0"/>
  </Event>
  <Event>
    <Absolute>41465</Absolute>
    <NoteOff Channel="13" Note="69" Velocity="0"/>
  </Event>
  <Event>
    <Absolute>41472</Absolute>
    <NoteOn Channel="13" Note="69" Velocity="112"/>
  </Event>
  <Event>
    <Absolute>41728</Absolute>
    <NoteOff Channel="13" Note="69" Velocity="0"/>
  </Event>
  <Event>
    <Absolute>41728</Absolute>
    <NoteOn Channel="13" Note="69" Velocity="110"/>
  </Event>
  <Event>
    <Absolute>41856</Absolute>
    <NoteOff Channel="13" Note="69" Velocity="0"/>
  </Event>
  <Event>
    <Absolute>41856</Absolute>
    <NoteOn Channel="13" Note="69" Velocity="112"/>
  </Event>
  <Event>
    <Absolute>41984</Absolute>
    <NoteOff Channel="13" Note="69" Velocity="0"/>
  </Event>
  <Event>
    <Absolute>41984</Absolute>
    <NoteOn Channel="13" Note="72" Velocity="123"/>
  </Event>
  <Event>
    <Absolute>42112</Absolute>
    <NoteOn Channel="13" Note="71" Velocity="121"/>
  </Event>
  <Event>
    <Absolute>42114</Absolute>
    <NoteOff Channel="13" Note="72" Velocity="0"/>
  </Event>
  <Event>
    <Absolute>42233</Absolute>
    <NoteOff Channel="13" Note="71" Velocity="0"/>
  </Event>
  <Event>
    <Absolute>42240</Absolute>
    <NoteOn Channel="13" Note="69" Velocity="103"/>
  </Event>
  <Event>
    <Absolute>42496</Absolute>
    <NoteOff Channel="13" Note="69" Velocity="0"/>
  </Event>
  <Event>
    <Absolute>42496</Absolute>
    <NoteOn Channel="13" Note="71" Velocity="121"/>
  </Event>
  <Event>
    <Absolute>42624</Absolute>
    <NoteOff Channel="13" Note="71" Velocity="0"/>
  </Event>
  <Event>
    <Absolute>42624</Absolute>
    <NoteOn Channel="13" Note="69" Velocity="106"/>
  </Event>
  <Event>
    <Absolute>42752</Absolute>
    <NoteOff Channel="13" Note="69" Velocity="0"/>
  </Event>
  <Event>
    <Absolute>42752</Absolute>
    <NoteOn Channel="13" Note="64" Velocity="93"/>
  </Event>
  <Event>
    <Absolute>43008</Absolute>
    <NoteOff Channel="13" Note="64" Velocity="0"/>
  </Event>
  <Event>
    <Absolute>43008</Absolute>
    <NoteOn Channel="13" Note="64" Velocity="78"/>
  </Event>
  <Event>
    <Absolute>43776</Absolute>
    <NoteOn Channel="13" Note="66" Velocity="86"/>
  </Event>
  <Event>
    <Absolute>43791</Absolute>
    <NoteOff Channel="13" Note="64" Velocity="0"/>
  </Event>
  <Event>
    <Absolute>44032</Absolute>
    <NoteOn Channel="13" Note="68" Velocity="91"/>
  </Event>
  <Event>
    <Absolute>44037</Absolute>
    <NoteOff Channel="13" Note="66" Velocity="0"/>
  </Event>
  <Event>
    <Absolute>44288</Absolute>
    <NoteOn Channel="13" Note="69" Velocity="95"/>
  </Event>
  <Event>
    <Absolute>44293</Absolute>
    <NoteOff Channel="13" Note="68" Velocity="0"/>
  </Event>
  <Event>
    <Absolute>44531</Absolute>
    <NoteOff Channel="13" Note="69" Velocity="0"/>
  </Event>
  <Event>
    <Absolute>44544</Absolute>
    <NoteOn Channel="13" Note="64" Velocity="70"/>
  </Event>
  <Event>
    <Absolute>45312</Absolute>
    <NoteOn Channel="13" Note="66" Velocity="68"/>
  </Event>
  <Event>
    <Absolute>45327</Absolute>
    <NoteOff Channel="13" Note="64" Velocity="0"/>
  </Event>
  <Event>
    <Absolute>45568</Absolute>
    <NoteOn Channel="13" Note="68" Velocity="85"/>
  </Event>
  <Event>
    <Absolute>45573</Absolute>
    <NoteOff Channel="13" Note="66" Velocity="0"/>
  </Event>
  <Event>
    <Absolute>45824</Absolute>
    <NoteOn Channel="13" Note="69" Velocity="93"/>
  </Event>
  <Event>
    <Absolute>45829</Absolute>
    <NoteOff Channel="13" Note="68" Velocity="0"/>
  </Event>
  <Event>
    <Absolute>46067</Absolute>
    <NoteOff Channel="13" Note="69" Velocity="0"/>
  </Event>
  <Event>
    <Absolute>47616</Absolute>
    <NoteOn Channel="13" Note="67" Velocity="44"/>
  </Event>
  <Event>
    <Absolute>48384</Absolute>
    <NoteOff Channel="13" Note="67" Velocity="0"/>
  </Event>
  <Event>
    <Absolute>48384</Absolute>
    <NoteOn Channel="13" Note="65" Velocity="47"/>
  </Event>
  <Event>
    <Absolute>49152</Absolute>
    <NoteOff Channel="13" Note="65" Velocity="0"/>
  </Event>
  <Event>
    <Absolute>49152</Absolute>
    <NoteOn Channel="13" Note="64" Velocity="46"/>
  </Event>
  <Event>
    <Absolute>53376</Absolute>
    <NoteOff Channel="13" Note="64" Velocity="0"/>
  </Event>
  <Event>
    <Absolute>53377</Absolute>
    <EndOfTrack/>
  </Event>
</Track>
<Track Number="10">
  <Event>
    <Absolute>0</Absolute>
    <ControlChange Channel="9" Control="121" Value="0"/>
  </Event>
  <Event>
    <Absolute>0</Absolute>
    <ControlChange Channel="9" Control="64" Value="0"/>
  </Event>
  <Event>
    <Absolute>0</Absolute>
    <ControlChange Channel="9" Control="91" Value="60"/>
  </Event>
  <Event>
    <Absolute>0</Absolute>
    <ControlChange Channel="9" Control="10" Value="32"/>
  </Event>
  <Event>
    <Absolute>0</Absolute>
    <ControlChange Channel="9" Control="7" Value="90"/>
  </Event>
  <Event>
    <Absolute>0</Absolute>
    <TrackName>Viola</TrackName>
  </Event>
  <Event>
    <Absolute>3072</Absolute>
    <NoteOn Channel="9" Note="69" Velocity="92"/>
  </Event>
  <Event>
    <Absolute>3840</Absolute>
    <NoteOff Channel="9" Note="69" Velocity="0"/>
  </Event>
  <Event>
    <Absolute>3840</Absolute>
    <NoteOn Channel="9" Note="67" Velocity="102"/>
  </Event>
  <Event>
    <Absolute>4608</Absolute>
    <NoteOff Channel="9" Note="67" Velocity="0"/>
  </Event>
  <Event>
    <Absolute>4608</Absolute>
    <NoteOn Channel="9" Note="65" Velocity="71"/>
  </Event>
  <Event>
    <Absolute>5376</Absolute>
    <NoteOff Channel="9" Note="65" Velocity="0"/>
  </Event>
  <Event>
    <Absolute>5376</Absolute>
    <NoteOn Channel="9" Note="64" Velocity="56"/>
  </Event>
  <Event>
    <Absolute>6144</Absolute>
    <NoteOff Channel="9" Note="64" Velocity="0"/>
  </Event>
  <Event>
    <Absolute>6144</Absolute>
    <NoteOn Channel="9" Note="65" Velocity="65"/>
  </Event>
  <Event>
    <Absolute>6912</Absolute>
    <NoteOff Channel="9" Note="65" Velocity="0"/>
  </Event>
  <Event>
    <Absolute>6912</Absolute>
    <NoteOn Channel="9" Note="64" Velocity="60"/>
  </Event>
  <Event>
    <Absolute>7680</Absolute>
    <NoteOff Channel="9" Note="64" Velocity="0"/>
  </Event>
  <Event>
    <Absolute>7680</Absolute>
    <NoteOn Channel="9" Note="62" Velocity="57"/>
  </Event>
  <Event>
    <Absolute>8448</Absolute>
    <NoteOff Channel="9" Note="62" Velocity="0"/>
  </Event>
  <Event>
    <Absolute>8448</Absolute>
    <NoteOn Channel="9" Note="57" Velocity="55"/>
  </Event>
  <Event>
    <Absolute>9216</Absolute>
    <NoteOff Channel="9" Note="57" Velocity="0"/>
  </Event>
  <Event>
    <Absolute>9216</Absolute>
    <NoteOn Channel="9" Note="62" Velocity="92"/>
  </Event>
  <Event>
    <Absolute>9472</Absolute>
    <NoteOff Channel="9" Note="62" Velocity="0"/>
  </Event>
  <Event>
    <Absolute>9472</Absolute>
    <NoteOn Channel="9" Note="62" Velocity="89"/>
  </Event>
  <Event>
    <Absolute>9600</Absolute>
    <NoteOff Channel="9" Note="62" Velocity="0"/>
  </Event>
  <Event>
    <Absolute>9600</Absolute>
    <NoteOn Channel="9" Note="62" Velocity="93"/>
  </Event>
  <Event>
    <Absolute>9728</Absolute>
    <NoteOff Channel="9" Note="62" Velocity="0"/>
  </Event>
  <Event>
    <Absolute>9728</Absolute>
    <NoteOn Channel="9" Note="62" Velocity="91"/>
  </Event>
  <Event>
    <Absolute>9984</Absolute>
    <NoteOff Channel="9" Note="62" Velocity="0"/>
  </Event>
  <Event>
    <Absolute>9984</Absolute>
    <NoteOn Channel="9" Note="64" Velocity="103"/>
  </Event>
  <Event>
    <Absolute>10240</Absolute>
    <NoteOff Channel="9" Note="64" Velocity="0"/>
  </Event>
  <Event>
    <Absolute>10240</Absolute>
    <NoteOn Channel="9" Note="64" Velocity="95"/>
  </Event>
  <Event>
    <Absolute>10368</Absolute>
    <NoteOff Channel="9" Note="64" Velocity="0"/>
  </Event>
  <Event>
    <Absolute>10368</Absolute>
    <NoteOn Channel="9" Note="64" Velocity="97"/>
  </Event>
  <Event>
    <Absolute>10496</Absolute>
    <NoteOff Channel="9" Note="64" Velocity="0"/>
  </Event>
  <Event>
    <Absolute>10496</Absolute>
    <NoteOn Channel="9" Note="64" Velocity="97"/>
  </Event>
  <Event>
    <Absolute>10752</Absolute>
    <NoteOff Channel="9" Note="64" Velocity="0"/>
  </Event>
  <Event>
    <Absolute>10752</Absolute>
    <NoteOn Channel="9" Note="65" Velocity="102"/>
  </Event>
  <Event>
    <Absolute>11008</Absolute>
    <NoteOff Channel="9" Note="65" Velocity="0"/>
  </Event>
  <Event>
    <Absolute>11008</Absolute>
    <NoteOn Channel="9" Note="65" Velocity="97"/>
  </Event>
  <Event>
    <Absolute>11136</Absolute>
    <NoteOff Channel="9" Note="65" Velocity="0"/>
  </Event>
  <Event>
    <Absolute>11136</Absolute>
    <NoteOn Channel="9" Note="65" Velocity="97"/>
  </Event>
  <Event>
    <Absolute>11264</Absolute>
    <NoteOff Channel="9" Note="65" Velocity="0"/>
  </Event>
  <Event>
    <Absolute>11264</Absolute>
    <NoteOn Channel="9" Note="65" Velocity="99"/>
  </Event>
  <Event>
    <Absolute>11520</Absolute>
    <NoteOff Channel="9" Note="65" Velocity="0"/>
  </Event>
  <Event>
    <Absolute>11520</Absolute>
    <NoteOn Channel="9" Note="60" Velocity="81"/>
  </Event>
  <Event>
    <Absolute>11776</Absolute>
    <NoteOff Channel="9" Note="60" Velocity="0"/>
  </Event>
  <Event>
    <Absolute>11776</Absolute>
    <NoteOn Channel="9" Note="60" Velocity="92"/>
  </Event>
  <Event>
    <Absolute>11904</Absolute>
    <NoteOff Channel="9" Note="60" Velocity="0"/>
  </Event>
  <Event>
    <Absolute>11904</Absolute>
    <NoteOn Channel="9" Note="60" Velocity="93"/>
  </Event>
  <Event>
    <Absolute>12032</Absolute>
    <NoteOff Channel="9" Note="60" Velocity="0"/>
  </Event>
  <Event>
    <Absolute>12032</Absolute>
    <NoteOn Channel="9" Note="60" Velocity="95"/>
  </Event>
  <Event>
    <Absolute>12288</Absolute>
    <NoteOff Channel="9" Note="60" Velocity="0"/>
  </Event>
  <Event>
    <Absolute>12288</Absolute>
    <NoteOn Channel="9" Note="64" Velocity="104"/>
  </Event>
  <Event>
    <Absolute>13056</Absolute>
    <NoteOn Channel="9" Note="66" Velocity="104"/>
  </Event>
  <Event>
    <Absolute>13071</Absolute>
    <NoteOff Channel="9" Note="64" Velocity="0"/>
  </Event>
  <Event>
    <Absolute>13785</Absolute>
    <NoteOff Channel="9" Note="66" Velocity="0"/>
  </Event>
  <Event>
    <Absolute>13824</Absolute>
    <NoteOn Channel="9" Note="67" Velocity="113"/>
  </Event>
  <Event>
    <Absolute>14080</Absolute>
    <NoteOn Channel="9" Note="65" Velocity="105"/>
  </Event>
  <Event>
    <Absolute>14085</Absolute>
    <NoteOff Channel="9" Note="67" Velocity="0"/>
  </Event>
  <Event>
    <Absolute>14323</Absolute>
    <NoteOff Channel="9" Note="65" Velocity="0"/>
  </Event>
  <Event>
    <Absolute>14336</Absolute>
    <NoteOn Channel="9" Note="64" Velocity="108"/>
  </Event>
  <Event>
    <Absolute>14592</Absolute>
    <NoteOff Channel="9" Note="64" Velocity="0"/>
  </Event>
  <Event>
    <Absolute>14592</Absolute>
    <NoteOn Channel="9" Note="69" Velocity="127"/>
  </Event>
  <Event>
    <Absolute>14720</Absolute>
    <NoteOn Channel="9" Note="67" Velocity="118"/>
  </Event>
  <Event>
    <Absolute>14722</Absolute>
    <NoteOff Channel="9" Note="69" Velocity="0"/>
  </Event>
  <Event>
    <Absolute>14848</Absolute>
    <NoteOn Channel="9" Note="65" Velocity="106"/>
  </Event>
  <Event>
    <Absolute>14850</Absolute>
    <NoteOff Channel="9" Note="67" Velocity="0"/>
  </Event>
  <Event>
    <Absolute>15104</Absolute>
    <NoteOn Channel="9" Note="64" Velocity="102"/>
  </Event>
  <Event>
    <Absolute>15109</Absolute>
    <NoteOff Channel="9" Note="65" Velocity="0"/>
  </Event>
  <Event>
    <Absolute>15347</Absolute>
    <NoteOff Channel="9" Note="64" Velocity="0"/>
  </Event>
  <Event>
    <Absolute>15360</Absolute>
    <NoteOn Channel="9" Note="64" Velocity="110"/>
  </Event>
  <Event>
    <Absolute>15616</Absolute>
    <NoteOff Channel="9" Note="64" Velocity="0"/>
  </Event>
  <Event>
    <Absolute>15616</Absolute>
    <NoteOn Channel="9" Note="64" Velocity="109"/>
  </Event>
  <Event>
    <Absolute>15744</Absolute>
    <NoteOff Channel="9" Note="64" Velocity="0"/>
  </Event>
  <Event>
    <Absolute>15744</Absolute>
    <NoteOn Channel="9" Note="64" Velocity="112"/>
  </Event>
  <Event>
    <Absolute>15872</Absolute>
    <NoteOff Channel="9" Note="64" Velocity="0"/>
  </Event>
  <Event>
    <Absolute>15872</Absolute>
    <NoteOn Channel="9" Note="64" Velocity="111"/>
  </Event>
  <Event>
    <Absolute>16128</Absolute>
    <NoteOff Channel="9" Note="64" Velocity="0"/>
  </Event>
  <Event>
    <Absolute>16128</Absolute>
    <NoteOn Channel="9" Note="64" Velocity="107"/>
  </Event>
  <Event>
    <Absolute>16384</Absolute>
    <NoteOff Channel="9" Note="64" Velocity="0"/>
  </Event>
  <Event>
    <Absolute>16384</Absolute>
    <NoteOn Channel="9" Note="62" Velocity="105"/>
  </Event>
  <Event>
    <Absolute>16512</Absolute>
    <NoteOff Channel="9" Note="62" Velocity="0"/>
  </Event>
  <Event>
    <Absolute>16512</Absolute>
    <NoteOn Channel="9" Note="64" Velocity="119"/>
  </Event>
  <Event>
    <Absolute>16640</Absolute>
    <NoteOff Channel="9" Note="64" Velocity="0"/>
  </Event>
  <Event>
    <Absolute>16640</Absolute>
    <NoteOn Channel="9" Note="60" Velocity="99"/>
  </Event>
  <Event>
    <Absolute>16896</Absolute>
    <NoteOff Channel="9" Note="60" Velocity="0"/>
  </Event>
  <Event>
    <Absolute>16896</Absolute>
    <NoteOn Channel="9" Note="65" Velocity="125"/>
  </Event>
  <Event>
    <Absolute>17152</Absolute>
    <NoteOff Channel="9" Note="65" Velocity="0"/>
  </Event>
  <Event>
    <Absolute>17152</Absolute>
    <NoteOn Channel="9" Note="65" Velocity="112"/>
  </Event>
  <Event>
    <Absolute>17280</Absolute>
    <NoteOff Channel="9" Note="65" Velocity="0"/>
  </Event>
  <Event>
    <Absolute>17280</Absolute>
    <NoteOn Channel="9" Note="65" Velocity="110"/>
  </Event>
  <Event>
    <Absolute>17408</Absolute>
    <NoteOff Channel="9" Note="65" Velocity="0"/>
  </Event>
  <Event>
    <Absolute>17408</Absolute>
    <NoteOn Channel="9" Note="65" Velocity="115"/>
  </Event>
  <Event>
    <Absolute>17664</Absolute>
    <NoteOff Channel="9" Note="65" Velocity="0"/>
  </Event>
  <Event>
    <Absolute>17664</Absolute>
    <NoteOn Channel="9" Note="64" Velocity="101"/>
  </Event>
  <Event>
    <Absolute>17920</Absolute>
    <NoteOff Channel="9" Note="64" Velocity="0"/>
  </Event>
  <Event>
    <Absolute>17920</Absolute>
    <NoteOn Channel="9" Note="64" Velocity="112"/>
  </Event>
  <Event>
    <Absolute>18048</Absolute>
    <NoteOff Channel="9" Note="64" Velocity="0"/>
  </Event>
  <Event>
    <Absolute>18048</Absolute>
    <NoteOn Channel="9" Note="64" Velocity="111"/>
  </Event>
  <Event>
    <Absolute>18176</Absolute>
    <NoteOff Channel="9" Note="64" Velocity="0"/>
  </Event>
  <Event>
    <Absolute>18176</Absolute>
    <NoteOn Channel="9" Note="64" Velocity="112"/>
  </Event>
  <Event>
    <Absolute>18432</Absolute>
    <NoteOff Channel="9" Note="64" Velocity="0"/>
  </Event>
  <Event>
    <Absolute>18432</Absolute>
    <NoteOn Channel="9" Note="60" Velocity="71"/>
  </Event>
  <Event>
    <Absolute>18688</Absolute>
    <NoteOff Channel="9" Note="60" Velocity="0"/>
  </Event>
  <Event>
    <Absolute>18688</Absolute>
    <NoteOn Channel="9" Note="59" Velocity="79"/>
  </Event>
  <Event>
    <Absolute>18816</Absolute>
    <NoteOff Channel="9" Note="59" Velocity="0"/>
  </Event>
  <Event>
    <Absolute>18816</Absolute>
    <NoteOn Channel="9" Note="60" Velocity="82"/>
  </Event>
  <Event>
    <Absolute>18944</Absolute>
    <NoteOff Channel="9" Note="60" Velocity="0"/>
  </Event>
  <Event>
    <Absolute>18944</Absolute>
    <NoteOn Channel="9" Note="57" Velocity="80"/>
  </Event>
  <Event>
    <Absolute>19200</Absolute>
    <NoteOff Channel="9" Note="57" Velocity="0"/>
  </Event>
  <Event>
    <Absolute>19200</Absolute>
    <NoteOn Channel="9" Note="60" Velocity="89"/>
  </Event>
  <Event>
    <Absolute>19456</Absolute>
    <NoteOff Channel="9" Note="60" Velocity="0"/>
  </Event>
  <Event>
    <Absolute>19456</Absolute>
    <NoteOn Channel="9" Note="59" Velocity="79"/>
  </Event>
  <Event>
    <Absolute>19584</Absolute>
    <NoteOff Channel="9" Note="59" Velocity="0"/>
  </Event>
  <Event>
    <Absolute>19584</Absolute>
    <NoteOn Channel="9" Note="60" Velocity="84"/>
  </Event>
  <Event>
    <Absolute>19712</Absolute>
    <NoteOff Channel="9" Note="60" Velocity="0"/>
  </Event>
  <Event>
    <Absolute>19712</Absolute>
    <NoteOn Channel="9" Note="57" Velocity="77"/>
  </Event>
  <Event>
    <Absolute>19968</Absolute>
    <NoteOff Channel="9" Note="57" Velocity="0"/>
  </Event>
  <Event>
    <Absolute>19968</Absolute>
    <NoteOn Channel="9" Note="60" Velocity="82"/>
  </Event>
  <Event>
    <Absolute>20224</Absolute>
    <NoteOff Channel="9" Note="60" Velocity="0"/>
  </Event>
  <Event>
    <Absolute>20224</Absolute>
    <NoteOn Channel="9" Note="59" Velocity="74"/>
  </Event>
  <Event>
    <Absolute>20352</Absolute>
    <NoteOff Channel="9" Note="59" Velocity="0"/>
  </Event>
  <Event>
    <Absolute>20352</Absolute>
    <NoteOn Channel="9" Note="60" Velocity="78"/>
  </Event>
  <Event>
    <Absolute>20480</Absolute>
    <NoteOff Channel="9" Note="60" Velocity="0"/>
  </Event>
  <Event>
    <Absolute>20480</Absolute>
    <NoteOn Channel="9" Note="57" Velocity="78"/>
  </Event>
  <Event>
    <Absolute>20736</Absolute>
    <NoteOff Channel="9" Note="57" Velocity="0"/>
  </Event>
  <Event>
    <Absolute>20736</Absolute>
    <NoteOn Channel="9" Note="60" Velocity="88"/>
  </Event>
  <Event>
    <Absolute>20992</Absolute>
    <NoteOff Channel="9" Note="60" Velocity="0"/>
  </Event>
  <Event>
    <Absolute>20992</Absolute>
    <NoteOn Channel="9" Note="59" Velocity="82"/>
  </Event>
  <Event>
    <Absolute>21120</Absolute>
    <NoteOff Channel="9" Note="59" Velocity="0"/>
  </Event>
  <Event>
    <Absolute>21120</Absolute>
    <NoteOn Channel="9" Note="60" Velocity="89"/>
  </Event>
  <Event>
    <Absolute>21248</Absolute>
    <NoteOff Channel="9" Note="60" Velocity="0"/>
  </Event>
  <Event>
    <Absolute>21248</Absolute>
    <NoteOn Channel="9" Note="57" Velocity="72"/>
  </Event>
  <Event>
    <Absolute>21504</Absolute>
    <NoteOff Channel="9" Note="57" Velocity="0"/>
  </Event>
  <Event>
    <Absolute>21504</Absolute>
    <NoteOn Channel="9" Note="57" Velocity="48"/>
  </Event>
  <Event>
    <Absolute>22272</Absolute>
    <NoteOff Channel="9" Note="57" Velocity="0"/>
  </Event>
  <Event>
    <Absolute>22272</Absolute>
    <NoteOn Channel="9" Note="57" Velocity="47"/>
  </Event>
  <Event>
    <Absolute>23040</Absolute>
    <NoteOff Channel="9" Note="57" Velocity="0"/>
  </Event>
  <Event>
    <Absolute>23040</Absolute>
    <NoteOn Channel="9" Note="57" Velocity="46"/>
  </Event>
  <Event>
    <Absolute>23808</Absolute>
    <NoteOff Channel="9" Note="57" Velocity="0"/>
  </Event>
  <Event>
    <Absolute>23808</Absolute>
    <NoteOn Channel="9" Note="57" Velocity="48"/>
  </Event>
  <Event>
    <Absolute>24576</Absolute>
    <NoteOff Channel="9" Note="57" Velocity="0"/>
  </Event>
  <Event>
    <Absolute>24576</Absolute>
    <NoteOn Channel="9" Note="57" Velocity="44"/>
  </Event>
  <Event>
    <Absolute>27648</Absolute>
    <NoteOff Channel="9" Note="57" Velocity="0"/>
  </Event>
  <Event>
    <Absolute>27648</Absolute>
    <NoteOn Channel="9" Note="69" Velocity="127"/>
  </Event>
  <Event>
    <Absolute>28416</Absolute>
    <NoteOff Channel="9" Note="69" Velocity="0"/>
  </Event>
  <Event>
    <Absolute>28416</Absolute>
    <NoteOn Channel="9" Note="67" Velocity="107"/>
  </Event>
  <Event>
    <Absolute>29184</Absolute>
    <NoteOff Channel="9" Note="67" Velocity="0"/>
  </Event>
  <Event>
    <Absolute>29184</Absolute>
    <NoteOn Channel="9" Note="65" Velocity="68"/>
  </Event>
  <Event>
    <Absolute>29952</Absolute>
    <NoteOff Channel="9" Note="65" Velocity="0"/>
  </Event>
  <Event>
    <Absolute>29952</Absolute>
    <NoteOn Channel="9" Note="64" Velocity="54"/>
  </Event>
  <Event>
    <Absolute>30720</Absolute>
    <NoteOff Channel="9" Note="64" Velocity="0"/>
  </Event>
  <Event>
    <Absolute>30720</Absolute>
    <NoteOn Channel="9" Note="65" Velocity="59"/>
  </Event>
  <Event>
    <Absolute>31488</Absolute>
    <NoteOff Channel="9" Note="65" Velocity="0"/>
  </Event>
  <Event>
    <Absolute>31488</Absolute>
    <NoteOn Channel="9" Note="64" Velocity="56"/>
  </Event>
  <Event>
    <Absolute>32256</Absolute>
    <NoteOff Channel="9" Note="64" Velocity="0"/>
  </Event>
  <Event>
    <Absolute>32256</Absolute>
    <NoteOn Channel="9" Note="62" Velocity="58"/>
  </Event>
  <Event>
    <Absolute>33024</Absolute>
    <NoteOff Channel="9" Note="62" Velocity="0"/>
  </Event>
  <Event>
    <Absolute>33024</Absolute>
    <NoteOn Channel="9" Note="57" Velocity="53"/>
  </Event>
  <Event>
    <Absolute>33792</Absolute>
    <NoteOff Channel="9" Note="57" Velocity="0"/>
  </Event>
  <Event>
    <Absolute>33792</Absolute>
    <NoteOn Channel="9" Note="62" Velocity="90"/>
  </Event>
  <Event>
    <Absolute>34048</Absolute>
    <NoteOff Channel="9" Note="62" Velocity="0"/>
  </Event>
  <Event>
    <Absolute>34048</Absolute>
    <NoteOn Channel="9" Note="62" Velocity="92"/>
  </Event>
  <Event>
    <Absolute>34176</Absolute>
    <NoteOff Channel="9" Note="62" Velocity="0"/>
  </Event>
  <Event>
    <Absolute>34176</Absolute>
    <NoteOn Channel="9" Note="62" Velocity="93"/>
  </Event>
  <Event>
    <Absolute>34304</Absolute>
    <NoteOff Channel="9" Note="62" Velocity="0"/>
  </Event>
  <Event>
    <Absolute>34304</Absolute>
    <NoteOn Channel="9" Note="62" Velocity="92"/>
  </Event>
  <Event>
    <Absolute>34560</Absolute>
    <NoteOff Channel="9" Note="62" Velocity="0"/>
  </Event>
  <Event>
    <Absolute>34560</Absolute>
    <NoteOn Channel="9" Note="64" Velocity="105"/>
  </Event>
  <Event>
    <Absolute>34816</Absolute>
    <NoteOff Channel="9" Note="64" Velocity="0"/>
  </Event>
  <Event>
    <Absolute>34816</Absolute>
    <NoteOn Channel="9" Note="64" Velocity="94"/>
  </Event>
  <Event>
    <Absolute>34944</Absolute>
    <NoteOff Channel="9" Note="64" Velocity="0"/>
  </Event>
  <Event>
    <Absolute>34944</Absolute>
    <NoteOn Channel="9" Note="64" Velocity="100"/>
  </Event>
  <Event>
    <Absolute>35072</Absolute>
    <NoteOff Channel="9" Note="64" Velocity="0"/>
  </Event>
  <Event>
    <Absolute>35072</Absolute>
    <NoteOn Channel="9" Note="64" Velocity="95"/>
  </Event>
  <Event>
    <Absolute>35328</Absolute>
    <NoteOff Channel="9" Note="64" Velocity="0"/>
  </Event>
  <Event>
    <Absolute>35328</Absolute>
    <NoteOn Channel="9" Note="65" Velocity="100"/>
  </Event>
  <Event>
    <Absolute>35584</Absolute>
    <NoteOff Channel="9" Note="65" Velocity="0"/>
  </Event>
  <Event>
    <Absolute>35584</Absolute>
    <NoteOn Channel="9" Note="65" Velocity="92"/>
  </Event>
  <Event>
    <Absolute>35712</Absolute>
    <NoteOff Channel="9" Note="65" Velocity="0"/>
  </Event>
  <Event>
    <Absolute>35712</Absolute>
    <NoteOn Channel="9" Note="65" Velocity="97"/>
  </Event>
  <Event>
    <Absolute>35840</Absolute>
    <NoteOff Channel="9" Note="65" Velocity="0"/>
  </Event>
  <Event>
    <Absolute>35840</Absolute>
    <NoteOn Channel="9" Note="65" Velocity="99"/>
  </Event>
  <Event>
    <Absolute>36096</Absolute>
    <NoteOff Channel="9" Note="65" Velocity="0"/>
  </Event>
  <Event>
    <Absolute>36096</Absolute>
    <NoteOn Channel="9" Note="60" Velocity="80"/>
  </Event>
  <Event>
    <Absolute>36352</Absolute>
    <NoteOff Channel="9" Note="60" Velocity="0"/>
  </Event>
  <Event>
    <Absolute>36352</Absolute>
    <NoteOn Channel="9" Note="60" Velocity="93"/>
  </Event>
  <Event>
    <Absolute>36480</Absolute>
    <NoteOff Channel="9" Note="60" Velocity="0"/>
  </Event>
  <Event>
    <Absolute>36480</Absolute>
    <NoteOn Channel="9" Note="60" Velocity="95"/>
  </Event>
  <Event>
    <Absolute>36608</Absolute>
    <NoteOff Channel="9" Note="60" Velocity="0"/>
  </Event>
  <Event>
    <Absolute>36608</Absolute>
    <NoteOn Channel="9" Note="60" Velocity="99"/>
  </Event>
  <Event>
    <Absolute>36864</Absolute>
    <NoteOff Channel="9" Note="60" Velocity="0"/>
  </Event>
  <Event>
    <Absolute>36864</Absolute>
    <NoteOn Channel="9" Note="64" Velocity="108"/>
  </Event>
  <Event>
    <Absolute>37632</Absolute>
    <NoteOn Channel="9" Note="66" Velocity="104"/>
  </Event>
  <Event>
    <Absolute>37647</Absolute>
    <NoteOff Channel="9" Note="64" Velocity="0"/>
  </Event>
  <Event>
    <Absolute>38361</Absolute>
    <NoteOff Channel="9" Note="66" Velocity="0"/>
  </Event>
  <Event>
    <Absolute>38400</Absolute>
    <NoteOn Channel="9" Note="67" Velocity="117"/>
  </Event>
  <Event>
    <Absolute>38656</Absolute>
    <NoteOn Channel="9" Note="65" Velocity="108"/>
  </Event>
  <Event>
    <Absolute>38661</Absolute>
    <NoteOff Channel="9" Note="67" Velocity="0"/>
  </Event>
  <Event>
    <Absolute>38899</Absolute>
    <NoteOff Channel="9" Note="65" Velocity="0"/>
  </Event>
  <Event>
    <Absolute>38912</Absolute>
    <NoteOn Channel="9" Note="64" Velocity="107"/>
  </Event>
  <Event>
    <Absolute>39168</Absolute>
    <NoteOff Channel="9" Note="64" Velocity="0"/>
  </Event>
  <Event>
    <Absolute>39168</Absolute>
    <NoteOn Channel="9" Note="69" Velocity="126"/>
  </Event>
  <Event>
    <Absolute>39296</Absolute>
    <NoteOn Channel="9" Note="67" Velocity="116"/>
  </Event>
  <Event>
    <Absolute>39298</Absolute>
    <NoteOff Channel="9" Note="69" Velocity="0"/>
  </Event>
  <Event>
    <Absolute>39424</Absolute>
    <NoteOn Channel="9" Note="65" Velocity="107"/>
  </Event>
  <Event>
    <Absolute>39426</Absolute>
    <NoteOff Channel="9" Note="67" Velocity="0"/>
  </Event>
  <Event>
    <Absolute>39680</Absolute>
    <NoteOn Channel="9" Note="64" Velocity="103"/>
  </Event>
  <Event>
    <Absolute>39685</Absolute>
    <NoteOff Channel="9" Note="65" Velocity="0"/>
  </Event>
  <Event>
    <Absolute>39923</Absolute>
    <NoteOff Channel="9" Note="64" Velocity="0"/>
  </Event>
  <Event>
    <Absolute>39936</Absolute>
    <NoteOn Channel="9" Note="64" Velocity="115"/>
  </Event>
  <Event>
    <Absolute>40192</Absolute>
    <NoteOff Channel="9" Note="64" Velocity="0"/>
  </Event>
  <Event>
    <Absolute>40192</Absolute>
    <NoteOn Channel="9" Note="64" Velocity="113"/>
  </Event>
  <Event>
    <Absolute>40320</Absolute>
    <NoteOff Channel="9" Note="64" Velocity="0"/>
  </Event>
  <Event>
    <Absolute>40320</Absolute>
    <NoteOn Channel="9" Note="64" Velocity="110"/>
  </Event>
  <Event>
    <Absolute>40448</Absolute>
    <NoteOff Channel="9" Note="64" Velocity="0"/>
  </Event>
  <Event>
    <Absolute>40448</Absolute>
    <NoteOn Channel="9" Note="64" Velocity="109"/>
  </Event>
  <Event>
    <Absolute>40704</Absolute>
    <NoteOff Channel="9" Note="64" Velocity="0"/>
  </Event>
  <Event>
    <Absolute>40704</Absolute>
    <NoteOn Channel="9" Note="64" Velocity="112"/>
  </Event>
  <Event>
    <Absolute>40960</Absolute>
    <NoteOff Channel="9" Note="64" Velocity="0"/>
  </Event>
  <Event>
    <Absolute>40960</Absolute>
    <NoteOn Channel="9" Note="62" Velocity="107"/>
  </Event>
  <Event>
    <Absolute>41088</Absolute>
    <NoteOff Channel="9" Note="62" Velocity="0"/>
  </Event>
  <Event>
    <Absolute>41088</Absolute>
    <NoteOn Channel="9" Note="64" Velocity="112"/>
  </Event>
  <Event>
    <Absolute>41216</Absolute>
    <NoteOff Channel="9" Note="64" Velocity="0"/>
  </Event>
  <Event>
    <Absolute>41216</Absolute>
    <NoteOn Channel="9" Note="60" Velocity="102"/>
  </Event>
  <Event>
    <Absolute>41472</Absolute>
    <NoteOff Channel="9" Note="60" Velocity="0"/>
  </Event>
  <Event>
    <Absolute>41472</Absolute>
    <NoteOn Channel="9" Note="65" Velocity="123"/>
  </Event>
  <Event>
    <Absolute>41728</Absolute>
    <NoteOff Channel="9" Note="65" Velocity="0"/>
  </Event>
  <Event>
    <Absolute>41728</Absolute>
    <NoteOn Channel="9" Note="65" Velocity="113"/>
  </Event>
  <Event>
    <Absolute>41856</Absolute>
    <NoteOff Channel="9" Note="65" Velocity="0"/>
  </Event>
  <Event>
    <Absolute>41856</Absolute>
    <NoteOn Channel="9" Note="65" Velocity="116"/>
  </Event>
  <Event>
    <Absolute>41984</Absolute>
    <NoteOff Channel="9" Note="65" Velocity="0"/>
  </Event>
  <Event>
    <Absolute>41984</Absolute>
    <NoteOn Channel="9" Note="65" Velocity="109"/>
  </Event>
  <Event>
    <Absolute>42240</Absolute>
    <NoteOff Channel="9" Note="65" Velocity="0"/>
  </Event>
  <Event>
    <Absolute>42240</Absolute>
    <NoteOn Channel="9" Note="64" Velocity="108"/>
  </Event>
  <Event>
    <Absolute>42496</Absolute>
    <NoteOff Channel="9" Note="64" Velocity="0"/>
  </Event>
  <Event>
    <Absolute>42496</Absolute>
    <NoteOn Channel="9" Note="64" Velocity="112"/>
  </Event>
  <Event>
    <Absolute>42624</Absolute>
    <NoteOff Channel="9" Note="64" Velocity="0"/>
  </Event>
  <Event>
    <Absolute>42624</Absolute>
    <NoteOn Channel="9" Note="64" Velocity="110"/>
  </Event>
  <Event>
    <Absolute>42752</Absolute>
    <NoteOff Channel="9" Note="64" Velocity="0"/>
  </Event>
  <Event>
    <Absolute>42752</Absolute>
    <NoteOn Channel="9" Note="64" Velocity="113"/>
  </Event>
  <Event>
    <Absolute>43008</Absolute>
    <NoteOff Channel="9" Note="64" Velocity="0"/>
  </Event>
  <Event>
    <Absolute>43008</Absolute>
    <NoteOn Channel="9" Note="60" Velocity="72"/>
  </Event>
  <Event>
    <Absolute>43264</Absolute>
    <NoteOff Channel="9" Note="60" Velocity="0"/>
  </Event>
  <Event>
    <Absolute>43264</Absolute>
    <NoteOn Channel="9" Note="59" Velocity="80"/>
  </Event>
  <Event>
    <Absolute>43392</Absolute>
    <NoteOff Channel="9" Note="59" Velocity="0"/>
  </Event>
  <Event>
    <Absolute>43392</Absolute>
    <NoteOn Channel="9" Note="60" Velocity="84"/>
  </Event>
  <Event>
    <Absolute>43520</Absolute>
    <NoteOff Channel="9" Note="60" Velocity="0"/>
  </Event>
  <Event>
    <Absolute>43520</Absolute>
    <NoteOn Channel="9" Note="57" Velocity="84"/>
  </Event>
  <Event>
    <Absolute>43776</Absolute>
    <NoteOff Channel="9" Note="57" Velocity="0"/>
  </Event>
  <Event>
    <Absolute>43776</Absolute>
    <NoteOn Channel="9" Note="60" Velocity="89"/>
  </Event>
  <Event>
    <Absolute>44032</Absolute>
    <NoteOff Channel="9" Note="60" Velocity="0"/>
  </Event>
  <Event>
    <Absolute>44032</Absolute>
    <NoteOn Channel="9" Note="59" Velocity="81"/>
  </Event>
  <Event>
    <Absolute>44160</Absolute>
    <NoteOff Channel="9" Note="59" Velocity="0"/>
  </Event>
  <Event>
    <Absolute>44160</Absolute>
    <NoteOn Channel="9" Note="60" Velocity="82"/>
  </Event>
  <Event>
    <Absolute>44288</Absolute>
    <NoteOff Channel="9" Note="60" Velocity="0"/>
  </Event>
  <Event>
    <Absolute>44288</Absolute>
    <NoteOn Channel="9" Note="57" Velocity="81"/>
  </Event>
  <Event>
    <Absolute>44544</Absolute>
    <NoteOff Channel="9" Note="57" Velocity="0"/>
  </Event>
  <Event>
    <Absolute>44544</Absolute>
    <NoteOn Channel="9" Note="60" Velocity="86"/>
  </Event>
  <Event>
    <Absolute>44800</Absolute>
    <NoteOff Channel="9" Note="60" Velocity="0"/>
  </Event>
  <Event>
    <Absolute>44800</Absolute>
    <NoteOn Channel="9" Note="59" Velocity="81"/>
  </Event>
  <Event>
    <Absolute>44928</Absolute>
    <NoteOff Channel="9" Note="59" Velocity="0"/>
  </Event>
  <Event>
    <Absolute>44928</Absolute>
    <NoteOn Channel="9" Note="60" Velocity="84"/>
  </Event>
  <Event>
    <Absolute>45056</Absolute>
    <NoteOff Channel="9" Note="60" Velocity="0"/>
  </Event>
  <Event>
    <Absolute>45056</Absolute>
    <NoteOn Channel="9" Note="57" Velocity="77"/>
  </Event>
  <Event>
    <Absolute>45312</Absolute>
    <NoteOff Channel="9" Note="57" Velocity="0"/>
  </Event>
  <Event>
    <Absolute>45312</Absolute>
    <NoteOn Channel="9" Note="60" Velocity="88"/>
  </Event>
  <Event>
    <Absolute>45568</Absolute>
    <NoteOff Channel="9" Note="60" Velocity="0"/>
  </Event>
  <Event>
    <Absolute>45568</Absolute>
    <NoteOn Channel="9" Note="59" Velocity="80"/>
  </Event>
  <Event>
    <Absolute>45696</Absolute>
    <NoteOff Channel="9" Note="59" Velocity="0"/>
  </Event>
  <Event>
    <Absolute>45696</Absolute>
    <NoteOn Channel="9" Note="60" Velocity="80"/>
  </Event>
  <Event>
    <Absolute>45824</Absolute>
    <NoteOff Channel="9" Note="60" Velocity="0"/>
  </Event>
  <Event>
    <Absolute>45824</Absolute>
    <NoteOn Channel="9" Note="57" Velocity="79"/>
  </Event>
  <Event>
    <Absolute>46080</Absolute>
    <NoteOff Channel="9" Note="57" Velocity="0"/>
  </Event>
  <Event>
    <Absolute>46080</Absolute>
    <NoteOn Channel="9" Note="57" Velocity="46"/>
  </Event>
  <Event>
    <Absolute>46848</Absolute>
    <NoteOff Channel="9" Note="57" Velocity="0"/>
  </Event>
  <Event>
    <Absolute>46848</Absolute>
    <NoteOn Channel="9" Note="57" Velocity="48"/>
  </Event>
  <Event>
    <Absolute>47616</Absolute>
    <NoteOff Channel="9" Note="57" Velocity="0"/>
  </Event>
  <Event>
    <Absolute>47616</Absolute>
    <NoteOn Channel="9" Note="57" Velocity="50"/>
  </Event>
  <Event>
    <Absolute>48384</Absolute>
    <NoteOff Channel="9" Note="57" Velocity="0"/>
  </Event>
  <Event>
    <Absolute>48384</Absolute>
    <NoteOn Channel="9" Note="57" Velocity="43"/>
  </Event>
  <Event>
    <Absolute>49152</Absolute>
    <NoteOff Channel="9" Note="57" Velocity="0"/>
  </Event>
  <Event>
    <Absolute>49152</Absolute>
    <NoteOn Channel="9" Note="57" Velocity="48"/>
  </Event>
  <Event>
    <Absolute>53376</Absolute>
    <NoteOff Channel="9" Note="57" Velocity="0"/>
  </Event>
  <Event>
    <Absolute>53377</Absolute>
    <EndOfTrack/>
  </Event>
</Track>
<Track Number="11">
  <Event>
    <Absolute>0</Absolute>
    <ControlChange Channel="11" Control="121" Value="0"/>
  </Event>
  <Event>
    <Absolute>0</Absolute>
    <ControlChange Channel="11" Control="64" Value="0"/>
  </Event>
  <Event>
    <Absolute>0</Absolute>
    <ControlChange Channel="11" Control="91" Value="60"/>
  </Event>
  <Event>
    <Absolute>0</Absolute>
    <ControlChange Channel="11" Control="10" Value="95"/>
  </Event>
  <Event>
    <Absolute>0</Absolute>
    <ControlChange Channel="11" Control="7" Value="90"/>
  </Event>
  <Event>
    <Absolute>0</Absolute>
    <TrackName>Violoncello</TrackName>
  </Event>
  <Event>
    <Absolute>9216</Absolute>
    <NoteOn Channel="11" Note="53" Velocity="72"/>
  </Event>
  <Event>
    <Absolute>9472</Absolute>
    <NoteOff Channel="11" Note="53" Velocity="0"/>
  </Event>
  <Event>
    <Absolute>9472</Absolute>
    <NoteOn Channel="11" Note="53" Velocity="78"/>
  </Event>
  <Event>
    <Absolute>9600</Absolute>
    <NoteOff Channel="11" Note="53" Velocity="0"/>
  </Event>
  <Event>
    <Absolute>9600</Absolute>
    <NoteOn Channel="11" Note="53" Velocity="86"/>
  </Event>
  <Event>
    <Absolute>9728</Absolute>
    <NoteOff Channel="11" Note="53" Velocity="0"/>
  </Event>
  <Event>
    <Absolute>9728</Absolute>
    <NoteOn Channel="11" Note="53" Velocity="85"/>
  </Event>
  <Event>
    <Absolute>9984</Absolute>
    <NoteOff Channel="11" Note="53" Velocity="0"/>
  </Event>
  <Event>
    <Absolute>9984</Absolute>
    <NoteOn Channel="11" Note="57" Velocity="101"/>
  </Event>
  <Event>
    <Absolute>10240</Absolute>
    <NoteOff Channel="11" Note="57" Velocity="0"/>
  </Event>
  <Event>
    <Absolute>10240</Absolute>
    <NoteOn Channel="11" Note="57" Velocity="97"/>
  </Event>
  <Event>
    <Absolute>10368</Absolute>
    <NoteOff Channel="11" Note="57" Velocity="0"/>
  </Event>
  <Event>
    <Absolute>10368</Absolute>
    <NoteOn Channel="11" Note="57" Velocity="98"/>
  </Event>
  <Event>
    <Absolute>10496</Absolute>
    <NoteOff Channel="11" Note="57" Velocity="0"/>
  </Event>
  <Event>
    <Absolute>10496</Absolute>
    <NoteOn Channel="11" Note="57" Velocity="99"/>
  </Event>
  <Event>
    <Absolute>10752</Absolute>
    <NoteOff Channel="11" Note="57" Velocity="0"/>
  </Event>
  <Event>
    <Absolute>10752</Absolute>
    <NoteOn Channel="11" Note="62" Velocity="107"/>
  </Event>
  <Event>
    <Absolute>11008</Absolute>
    <NoteOff Channel="11" Note="62" Velocity="0"/>
  </Event>
  <Event>
    <Absolute>11008</Absolute>
    <NoteOn Channel="11" Note="62" Velocity="98"/>
  </Event>
  <Event>
    <Absolute>11136</Absolute>
    <NoteOff Channel="11" Note="62" Velocity="0"/>
  </Event>
  <Event>
    <Absolute>11136</Absolute>
    <NoteOn Channel="11" Note="62" Velocity="96"/>
  </Event>
  <Event>
    <Absolute>11264</Absolute>
    <NoteOff Channel="11" Note="62" Velocity="0"/>
  </Event>
  <Event>
    <Absolute>11264</Absolute>
    <NoteOn Channel="11" Note="62" Velocity="96"/>
  </Event>
  <Event>
    <Absolute>11520</Absolute>
    <NoteOff Channel="11" Note="62" Velocity="0"/>
  </Event>
  <Event>
    <Absolute>11520</Absolute>
    <NoteOn Channel="11" Note="57" Velocity="88"/>
  </Event>
  <Event>
    <Absolute>11776</Absolute>
    <NoteOff Channel="11" Note="57" Velocity="0"/>
  </Event>
  <Event>
    <Absolute>11776</Absolute>
    <NoteOn Channel="11" Note="57" Velocity="95"/>
  </Event>
  <Event>
    <Absolute>11904</Absolute>
    <NoteOff Channel="11" Note="57" Velocity="0"/>
  </Event>
  <Event>
    <Absolute>11904</Absolute>
    <NoteOn Channel="11" Note="57" Velocity="96"/>
  </Event>
  <Event>
    <Absolute>12032</Absolute>
    <NoteOff Channel="11" Note="57" Velocity="0"/>
  </Event>
  <Event>
    <Absolute>12032</Absolute>
    <NoteOn Channel="11" Note="57" Velocity="97"/>
  </Event>
  <Event>
    <Absolute>12288</Absolute>
    <NoteOff Channel="11" Note="57" Velocity="0"/>
  </Event>
  <Event>
    <Absolute>12288</Absolute>
    <NoteOn Channel="11" Note="57" Velocity="98"/>
  </Event>
  <Event>
    <Absolute>12544</Absolute>
    <NoteOff Channel="11" Note="57" Velocity="0"/>
  </Event>
  <Event>
    <Absolute>12544</Absolute>
    <NoteOn Channel="11" Note="57" Velocity="95"/>
  </Event>
  <Event>
    <Absolute>12672</Absolute>
    <NoteOff Channel="11" Note="57" Velocity="0"/>
  </Event>
  <Event>
    <Absolute>12672</Absolute>
    <NoteOn Channel="11" Note="57" Velocity="94"/>
  </Event>
  <Event>
    <Absolute>12800</Absolute>
    <NoteOff Channel="11" Note="57" Velocity="0"/>
  </Event>
  <Event>
    <Absolute>12800</Absolute>
    <NoteOn Channel="11" Note="57" Velocity="96"/>
  </Event>
  <Event>
    <Absolute>13056</Absolute>
    <NoteOff Channel="11" Note="57" Velocity="0"/>
  </Event>
  <Event>
    <Absolute>13056</Absolute>
    <NoteOn Channel="11" Note="57" Velocity="97"/>
  </Event>
  <Event>
    <Absolute>13312</Absolute>
    <NoteOff Channel="11" Note="57" Velocity="0"/>
  </Event>
  <Event>
    <Absolute>13312</Absolute>
    <NoteOn Channel="11" Note="57" Velocity="103"/>
  </Event>
  <Event>
    <Absolute>13440</Absolute>
    <NoteOff Channel="11" Note="57" Velocity="0"/>
  </Event>
  <Event>
    <Absolute>13440</Absolute>
    <NoteOn Channel="11" Note="57" Velocity="103"/>
  </Event>
  <Event>
    <Absolute>13568</Absolute>
    <NoteOff Channel="11" Note="57" Velocity="0"/>
  </Event>
  <Event>
    <Absolute>13568</Absolute>
    <NoteOn Channel="11" Note="57" Velocity="102"/>
  </Event>
  <Event>
    <Absolute>13824</Absolute>
    <NoteOff Channel="11" Note="57" Velocity="0"/>
  </Event>
  <Event>
    <Absolute>13824</Absolute>
    <NoteOn Channel="11" Note="57" Velocity="112"/>
  </Event>
  <Event>
    <Absolute>14080</Absolute>
    <NoteOff Channel="11" Note="57" Velocity="0"/>
  </Event>
  <Event>
    <Absolute>14080</Absolute>
    <NoteOn Channel="11" Note="57" Velocity="114"/>
  </Event>
  <Event>
    <Absolute>14208</Absolute>
    <NoteOff Channel="11" Note="57" Velocity="0"/>
  </Event>
  <Event>
    <Absolute>14208</Absolute>
    <NoteOn Channel="11" Note="57" Velocity="116"/>
  </Event>
  <Event>
    <Absolute>14336</Absolute>
    <NoteOff Channel="11" Note="57" Velocity="0"/>
  </Event>
  <Event>
    <Absolute>14336</Absolute>
    <NoteOn Channel="11" Note="57" Velocity="116"/>
  </Event>
  <Event>
    <Absolute>14592</Absolute>
    <NoteOff Channel="11" Note="57" Velocity="0"/>
  </Event>
  <Event>
    <Absolute>14592</Absolute>
    <NoteOn Channel="11" Note="57" Velocity="113"/>
  </Event>
  <Event>
    <Absolute>14848</Absolute>
    <NoteOff Channel="11" Note="57" Velocity="0"/>
  </Event>
  <Event>
    <Absolute>14848</Absolute>
    <NoteOn Channel="11" Note="57" Velocity="117"/>
  </Event>
  <Event>
    <Absolute>14976</Absolute>
    <NoteOff Channel="11" Note="57" Velocity="0"/>
  </Event>
  <Event>
    <Absolute>14976</Absolute>
    <NoteOn Channel="11" Note="57" Velocity="109"/>
  </Event>
  <Event>
    <Absolute>15104</Absolute>
    <NoteOff Channel="11" Note="57" Velocity="0"/>
  </Event>
  <Event>
    <Absolute>15104</Absolute>
    <NoteOn Channel="11" Note="57" Velocity="109"/>
  </Event>
  <Event>
    <Absolute>15360</Absolute>
    <NoteOff Channel="11" Note="57" Velocity="0"/>
  </Event>
  <Event>
    <Absolute>15360</Absolute>
    <NoteOn Channel="11" Note="60" Velocity="123"/>
  </Event>
  <Event>
    <Absolute>15616</Absolute>
    <NoteOff Channel="11" Note="60" Velocity="0"/>
  </Event>
  <Event>
    <Absolute>15616</Absolute>
    <NoteOn Channel="11" Note="59" Velocity="106"/>
  </Event>
  <Event>
    <Absolute>15744</Absolute>
    <NoteOff Channel="11" Note="59" Velocity="0"/>
  </Event>
  <Event>
    <Absolute>15744</Absolute>
    <NoteOn Channel="11" Note="60" Velocity="112"/>
  </Event>
  <Event>
    <Absolute>15872</Absolute>
    <NoteOff Channel="11" Note="60" Velocity="0"/>
  </Event>
  <Event>
    <Absolute>15872</Absolute>
    <NoteOn Channel="11" Note="57" Velocity="106"/>
  </Event>
  <Event>
    <Absolute>16128</Absolute>
    <NoteOff Channel="11" Note="57" Velocity="0"/>
  </Event>
  <Event>
    <Absolute>16128</Absolute>
    <NoteOn Channel="11" Note="60" Velocity="119"/>
  </Event>
  <Event>
    <Absolute>16384</Absolute>
    <NoteOff Channel="11" Note="60" Velocity="0"/>
  </Event>
  <Event>
    <Absolute>16384</Absolute>
    <NoteOn Channel="11" Note="59" Velocity="109"/>
  </Event>
  <Event>
    <Absolute>16512</Absolute>
    <NoteOff Channel="11" Note="59" Velocity="0"/>
  </Event>
  <Event>
    <Absolute>16512</Absolute>
    <NoteOn Channel="11" Note="60" Velocity="114"/>
  </Event>
  <Event>
    <Absolute>16640</Absolute>
    <NoteOff Channel="11" Note="60" Velocity="0"/>
  </Event>
  <Event>
    <Absolute>16640</Absolute>
    <NoteOn Channel="11" Note="57" Velocity="111"/>
  </Event>
  <Event>
    <Absolute>16896</Absolute>
    <NoteOff Channel="11" Note="57" Velocity="0"/>
  </Event>
  <Event>
    <Absolute>16896</Absolute>
    <NoteOn Channel="11" Note="60" Velocity="119"/>
  </Event>
  <Event>
    <Absolute>17152</Absolute>
    <NoteOff Channel="11" Note="60" Velocity="0"/>
  </Event>
  <Event>
    <Absolute>17152</Absolute>
    <NoteOn Channel="11" Note="59" Velocity="113"/>
  </Event>
  <Event>
    <Absolute>17280</Absolute>
    <NoteOff Channel="11" Note="59" Velocity="0"/>
  </Event>
  <Event>
    <Absolute>17280</Absolute>
    <NoteOn Channel="11" Note="60" Velocity="117"/>
  </Event>
  <Event>
    <Absolute>17408</Absolute>
    <NoteOff Channel="11" Note="60" Velocity="0"/>
  </Event>
  <Event>
    <Absolute>17408</Absolute>
    <NoteOn Channel="11" Note="57" Velocity="109"/>
  </Event>
  <Event>
    <Absolute>17664</Absolute>
    <NoteOff Channel="11" Note="57" Velocity="0"/>
  </Event>
  <Event>
    <Absolute>17664</Absolute>
    <NoteOn Channel="11" Note="60" Velocity="122"/>
  </Event>
  <Event>
    <Absolute>17920</Absolute>
    <NoteOff Channel="11" Note="60" Velocity="0"/>
  </Event>
  <Event>
    <Absolute>17920</Absolute>
    <NoteOn Channel="11" Note="59" Velocity="107"/>
  </Event>
  <Event>
    <Absolute>18048</Absolute>
    <NoteOff Channel="11" Note="59" Velocity="0"/>
  </Event>
  <Event>
    <Absolute>18048</Absolute>
    <NoteOn Channel="11" Note="60" Velocity="119"/>
  </Event>
  <Event>
    <Absolute>18176</Absolute>
    <NoteOff Channel="11" Note="60" Velocity="0"/>
  </Event>
  <Event>
    <Absolute>18176</Absolute>
    <NoteOn Channel="11" Note="57" Velocity="110"/>
  </Event>
  <Event>
    <Absolute>18432</Absolute>
    <NoteOff Channel="11" Note="57" Velocity="0"/>
  </Event>
  <Event>
    <Absolute>18432</Absolute>
    <NoteOn Channel="11" Note="52" Velocity="74"/>
  </Event>
  <Event>
    <Absolute>19968</Absolute>
    <NoteOff Channel="11" Note="52" Velocity="0"/>
  </Event>
  <Event>
    <Absolute>19968</Absolute>
    <NoteOn Channel="11" Note="52" Velocity="80"/>
  </Event>
  <Event>
    <Absolute>21504</Absolute>
    <NoteOff Channel="11" Note="52" Velocity="0"/>
  </Event>
  <Event>
    <Absolute>21504</Absolute>
    <NoteOn Channel="11" Note="55" Velocity="53"/>
  </Event>
  <Event>
    <Absolute>22272</Absolute>
    <NoteOff Channel="11" Note="55" Velocity="0"/>
  </Event>
  <Event>
    <Absolute>22272</Absolute>
    <NoteOn Channel="11" Note="53" Velocity="46"/>
  </Event>
  <Event>
    <Absolute>23040</Absolute>
    <NoteOff Channel="11" Note="53" Velocity="0"/>
  </Event>
  <Event>
    <Absolute>23040</Absolute>
    <NoteOn Channel="11" Note="52" Velocity="47"/>
  </Event>
  <Event>
    <Absolute>23808</Absolute>
    <NoteOff Channel="11" Note="52" Velocity="0"/>
  </Event>
  <Event>
    <Absolute>23808</Absolute>
    <NoteOn Channel="11" Note="50" Velocity="48"/>
  </Event>
  <Event>
    <Absolute>24576</Absolute>
    <NoteOff Channel="11" Note="50" Velocity="0"/>
  </Event>
  <Event>
    <Absolute>24576</Absolute>
    <NoteOn Channel="11" Note="45" Velocity="46"/>
  </Event>
  <Event>
    <Absolute>27648</Absolute>
    <NoteOff Channel="11" Note="45" Velocity="0"/>
  </Event>
  <Event>
    <Absolute>33792</Absolute>
    <NoteOn Channel="11" Note="53" Velocity="91"/>
  </Event>
  <Event>
    <Absolute>34048</Absolute>
    <NoteOff Channel="11" Note="53" Velocity="0"/>
  </Event>
  <Event>
    <Absolute>34048</Absolute>
    <NoteOn Channel="11" Note="53" Velocity="84"/>
  </Event>
  <Event>
    <Absolute>34176</Absolute>
    <NoteOff Channel="11" Note="53" Velocity="0"/>
  </Event>
  <Event>
    <Absolute>34176</Absolute>
    <NoteOn Channel="11" Note="53" Velocity="84"/>
  </Event>
  <Event>
    <Absolute>34304</Absolute>
    <NoteOff Channel="11" Note="53" Velocity="0"/>
  </Event>
  <Event>
    <Absolute>34304</Absolute>
    <NoteOn Channel="11" Note="53" Velocity="85"/>
  </Event>
  <Event>
    <Absolute>34560</Absolute>
    <NoteOff Channel="11" Note="53" Velocity="0"/>
  </Event>
  <Event>
    <Absolute>34560</Absolute>
    <NoteOn Channel="11" Note="57" Velocity="97"/>
  </Event>
  <Event>
    <Absolute>34816</Absolute>
    <NoteOff Channel="11" Note="57" Velocity="0"/>
  </Event>
  <Event>
    <Absolute>34816</Absolute>
    <NoteOn Channel="11" Note="57" Velocity="98"/>
  </Event>
  <Event>
    <Absolute>34944</Absolute>
    <NoteOff Channel="11" Note="57" Velocity="0"/>
  </Event>
  <Event>
    <Absolute>34944</Absolute>
    <NoteOn Channel="11" Note="57" Velocity="96"/>
  </Event>
  <Event>
    <Absolute>35072</Absolute>
    <NoteOff Channel="11" Note="57" Velocity="0"/>
  </Event>
  <Event>
    <Absolute>35072</Absolute>
    <NoteOn Channel="11" Note="57" Velocity="95"/>
  </Event>
  <Event>
    <Absolute>35328</Absolute>
    <NoteOff Channel="11" Note="57" Velocity="0"/>
  </Event>
  <Event>
    <Absolute>35328</Absolute>
    <NoteOn Channel="11" Note="62" Velocity="110"/>
  </Event>
  <Event>
    <Absolute>35584</Absolute>
    <NoteOff Channel="11" Note="62" Velocity="0"/>
  </Event>
  <Event>
    <Absolute>35584</Absolute>
    <NoteOn Channel="11" Note="62" Velocity="100"/>
  </Event>
  <Event>
    <Absolute>35712</Absolute>
    <NoteOff Channel="11" Note="62" Velocity="0"/>
  </Event>
  <Event>
    <Absolute>35712</Absolute>
    <NoteOn Channel="11" Note="62" Velocity="97"/>
  </Event>
  <Event>
    <Absolute>35840</Absolute>
    <NoteOff Channel="11" Note="62" Velocity="0"/>
  </Event>
  <Event>
    <Absolute>35840</Absolute>
    <NoteOn Channel="11" Note="62" Velocity="94"/>
  </Event>
  <Event>
    <Absolute>36096</Absolute>
    <NoteOff Channel="11" Note="62" Velocity="0"/>
  </Event>
  <Event>
    <Absolute>36096</Absolute>
    <NoteOn Channel="11" Note="57" Velocity="92"/>
  </Event>
  <Event>
    <Absolute>36352</Absolute>
    <NoteOff Channel="11" Note="57" Velocity="0"/>
  </Event>
  <Event>
    <Absolute>36352</Absolute>
    <NoteOn Channel="11" Note="57" Velocity="98"/>
  </Event>
  <Event>
    <Absolute>36480</Absolute>
    <NoteOff Channel="11" Note="57" Velocity="0"/>
  </Event>
  <Event>
    <Absolute>36480</Absolute>
    <NoteOn Channel="11" Note="57" Velocity="94"/>
  </Event>
  <Event>
    <Absolute>36608</Absolute>
    <NoteOff Channel="11" Note="57" Velocity="0"/>
  </Event>
  <Event>
    <Absolute>36608</Absolute>
    <NoteOn Channel="11" Note="57" Velocity="98"/>
  </Event>
  <Event>
    <Absolute>36864</Absolute>
    <NoteOff Channel="11" Note="57" Velocity="0"/>
  </Event>
  <Event>
    <Absolute>36864</Absolute>
    <NoteOn Channel="11" Note="57" Velocity="98"/>
  </Event>
  <Event>
    <Absolute>37120</Absolute>
    <NoteOff Channel="11" Note="57" Velocity="0"/>
  </Event>
  <Event>
    <Absolute>37120</Absolute>
    <NoteOn Channel="11" Note="57" Velocity="97"/>
  </Event>
  <Event>
    <Absolute>37248</Absolute>
    <NoteOff Channel="11" Note="57" Velocity="0"/>
  </Event>
  <Event>
    <Absolute>37248</Absolute>
    <NoteOn Channel="11" Note="57" Velocity="95"/>
  </Event>
  <Event>
    <Absolute>37376</Absolute>
    <NoteOff Channel="11" Note="57" Velocity="0"/>
  </Event>
  <Event>
    <Absolute>37376</Absolute>
    <NoteOn Channel="11" Note="57" Velocity="96"/>
  </Event>
  <Event>
    <Absolute>37632</Absolute>
    <NoteOff Channel="11" Note="57" Velocity="0"/>
  </Event>
  <Event>
    <Absolute>37632</Absolute>
    <NoteOn Channel="11" Note="57" Velocity="106"/>
  </Event>
  <Event>
    <Absolute>37888</Absolute>
    <NoteOff Channel="11" Note="57" Velocity="0"/>
  </Event>
  <Event>
    <Absolute>37888</Absolute>
    <NoteOn Channel="11" Note="57" Velocity="99"/>
  </Event>
  <Event>
    <Absolute>38016</Absolute>
    <NoteOff Channel="11" Note="57" Velocity="0"/>
  </Event>
  <Event>
    <Absolute>38016</Absolute>
    <NoteOn Channel="11" Note="57" Velocity="103"/>
  </Event>
  <Event>
    <Absolute>38144</Absolute>
    <NoteOff Channel="11" Note="57" Velocity="0"/>
  </Event>
  <Event>
    <Absolute>38144</Absolute>
    <NoteOn Channel="11" Note="57" Velocity="105"/>
  </Event>
  <Event>
    <Absolute>38400</Absolute>
    <NoteOff Channel="11" Note="57" Velocity="0"/>
  </Event>
  <Event>
    <Absolute>38400</Absolute>
    <NoteOn Channel="11" Note="57" Velocity="109"/>
  </Event>
  <Event>
    <Absolute>38656</Absolute>
    <NoteOff Channel="11" Note="57" Velocity="0"/>
  </Event>
  <Event>
    <Absolute>38656</Absolute>
    <NoteOn Channel="11" Note="57" Velocity="113"/>
  </Event>
  <Event>
    <Absolute>38784</Absolute>
    <NoteOff Channel="11" Note="57" Velocity="0"/>
  </Event>
  <Event>
    <Absolute>38784</Absolute>
    <NoteOn Channel="11" Note="57" Velocity="117"/>
  </Event>
  <Event>
    <Absolute>38912</Absolute>
    <NoteOff Channel="11" Note="57" Velocity="0"/>
  </Event>
  <Event>
    <Absolute>38912</Absolute>
    <NoteOn Channel="11" Note="57" Velocity="114"/>
  </Event>
  <Event>
    <Absolute>39168</Absolute>
    <NoteOff Channel="11" Note="57" Velocity="0"/>
  </Event>
  <Event>
    <Absolute>39168</Absolute>
    <NoteOn Channel="11" Note="57" Velocity="108"/>
  </Event>
  <Event>
    <Absolute>39424</Absolute>
    <NoteOff Channel="11" Note="57" Velocity="0"/>
  </Event>
  <Event>
    <Absolute>39424</Absolute>
    <NoteOn Channel="11" Note="57" Velocity="112"/>
  </Event>
  <Event>
    <Absolute>39552</Absolute>
    <NoteOff Channel="11" Note="57" Velocity="0"/>
  </Event>
  <Event>
    <Absolute>39552</Absolute>
    <NoteOn Channel="11" Note="57" Velocity="111"/>
  </Event>
  <Event>
    <Absolute>39680</Absolute>
    <NoteOff Channel="11" Note="57" Velocity="0"/>
  </Event>
  <Event>
    <Absolute>39680</Absolute>
    <NoteOn Channel="11" Note="57" Velocity="116"/>
  </Event>
  <Event>
    <Absolute>39936</Absolute>
    <NoteOff Channel="11" Note="57" Velocity="0"/>
  </Event>
  <Event>
    <Absolute>39936</Absolute>
    <NoteOn Channel="11" Note="60" Velocity="124"/>
  </Event>
  <Event>
    <Absolute>40192</Absolute>
    <NoteOff Channel="11" Note="60" Velocity="0"/>
  </Event>
  <Event>
    <Absolute>40192</Absolute>
    <NoteOn Channel="11" Note="59" Velocity="110"/>
  </Event>
  <Event>
    <Absolute>40320</Absolute>
    <NoteOff Channel="11" Note="59" Velocity="0"/>
  </Event>
  <Event>
    <Absolute>40320</Absolute>
    <NoteOn Channel="11" Note="60" Velocity="115"/>
  </Event>
  <Event>
    <Absolute>40448</Absolute>
    <NoteOff Channel="11" Note="60" Velocity="0"/>
  </Event>
  <Event>
    <Absolute>40448</Absolute>
    <NoteOn Channel="11" Note="57" Velocity="104"/>
  </Event>
  <Event>
    <Absolute>40704</Absolute>
    <NoteOff Channel="11" Note="57" Velocity="0"/>
  </Event>
  <Event>
    <Absolute>40704</Absolute>
    <NoteOn Channel="11" Note="60" Velocity="123"/>
  </Event>
  <Event>
    <Absolute>40960</Absolute>
    <NoteOff Channel="11" Note="60" Velocity="0"/>
  </Event>
  <Event>
    <Absolute>40960</Absolute>
    <NoteOn Channel="11" Note="59" Velocity="109"/>
  </Event>
  <Event>
    <Absolute>41088</Absolute>
    <NoteOff Channel="11" Note="59" Velocity="0"/>
  </Event>
  <Event>
    <Absolute>41088</Absolute>
    <NoteOn Channel="11" Note="60" Velocity="118"/>
  </Event>
  <Event>
    <Absolute>41216</Absolute>
    <NoteOff Channel="11" Note="60" Velocity="0"/>
  </Event>
  <Event>
    <Absolute>41216</Absolute>
    <NoteOn Channel="11" Note="57" Velocity="105"/>
  </Event>
  <Event>
    <Absolute>41472</Absolute>
    <NoteOff Channel="11" Note="57" Velocity="0"/>
  </Event>
  <Event>
    <Absolute>41472</Absolute>
    <NoteOn Channel="11" Note="60" Velocity="120"/>
  </Event>
  <Event>
    <Absolute>41728</Absolute>
    <NoteOff Channel="11" Note="60" Velocity="0"/>
  </Event>
  <Event>
    <Absolute>41728</Absolute>
    <NoteOn Channel="11" Note="59" Velocity="108"/>
  </Event>
  <Event>
    <Absolute>41856</Absolute>
    <NoteOff Channel="11" Note="59" Velocity="0"/>
  </Event>
  <Event>
    <Absolute>41856</Absolute>
    <NoteOn Channel="11" Note="60" Velocity="122"/>
  </Event>
  <Event>
    <Absolute>41984</Absolute>
    <NoteOff Channel="11" Note="60" Velocity="0"/>
  </Event>
  <Event>
    <Absolute>41984</Absolute>
    <NoteOn Channel="11" Note="57" Velocity="107"/>
  </Event>
  <Event>
    <Absolute>42240</Absolute>
    <NoteOff Channel="11" Note="57" Velocity="0"/>
  </Event>
  <Event>
    <Absolute>42240</Absolute>
    <NoteOn Channel="11" Note="60" Velocity="123"/>
  </Event>
  <Event>
    <Absolute>42496</Absolute>
    <NoteOff Channel="11" Note="60" Velocity="0"/>
  </Event>
  <Event>
    <Absolute>42496</Absolute>
    <NoteOn Channel="11" Note="59" Velocity="110"/>
  </Event>
  <Event>
    <Absolute>42624</Absolute>
    <NoteOff Channel="11" Note="59" Velocity="0"/>
  </Event>
  <Event>
    <Absolute>42624</Absolute>
    <NoteOn Channel="11" Note="60" Velocity="115"/>
  </Event>
  <Event>
    <Absolute>42752</Absolute>
    <NoteOff Channel="11" Note="60" Velocity="0"/>
  </Event>
  <Event>
    <Absolute>42752</Absolute>
    <NoteOn Channel="11" Note="57" Velocity="110"/>
  </Event>
  <Event>
    <Absolute>43008</Absolute>
    <NoteOff Channel="11" Note="57" Velocity="0"/>
  </Event>
  <Event>
    <Absolute>43008</Absolute>
    <NoteOn Channel="11" Note="52" Velocity="72"/>
  </Event>
  <Event>
    <Absolute>44544</Absolute>
    <NoteOff Channel="11" Note="52" Velocity="0"/>
  </Event>
  <Event>
    <Absolute>44544</Absolute>
    <NoteOn Channel="11" Note="52" Velocity="76"/>
  </Event>
  <Event>
    <Absolute>46080</Absolute>
    <NoteOff Channel="11" Note="52" Velocity="0"/>
  </Event>
  <Event>
    <Absolute>46080</Absolute>
    <NoteOn Channel="11" Note="55" Velocity="48"/>
  </Event>
  <Event>
    <Absolute>46848</Absolute>
    <NoteOff Channel="11" Note="55" Velocity="0"/>
  </Event>
  <Event>
    <Absolute>46848</Absolute>
    <NoteOn Channel="11" Note="53" Velocity="44"/>
  </Event>
  <Event>
    <Absolute>47616</Absolute>
    <NoteOff Channel="11" Note="53" Velocity="0"/>
  </Event>
  <Event>
    <Absolute>47616</Absolute>
    <NoteOn Channel="11" Note="52" Velocity="48"/>
  </Event>
  <Event>
    <Absolute>48384</Absolute>
    <NoteOff Channel="11" Note="52" Velocity="0"/>
  </Event>
  <Event>
    <Absolute>48384</Absolute>
    <NoteOn Channel="11" Note="50" Velocity="47"/>
  </Event>
  <Event>
    <Absolute>49152</Absolute>
    <NoteOff Channel="11" Note="50" Velocity="0"/>
  </Event>
  <Event>
    <Absolute>49152</Absolute>
    <NoteOn Channel="11" Note="45" Velocity="44"/>
  </Event>
  <Event>
    <Absolute>53376</Absolute>
    <NoteOff Channel="11" Note="45" Velocity="0"/>
  </Event>
  <Event>
    <Absolute>53377</Absolute>
    <EndOfTrack/>
  </Event>
</Track>
<Track Number="12">
  <Event>
    <Absolute>0</Absolute>
    <ControlChange Channel="12" Control="121" Value="0"/>
  </Event>
  <Event>
    <Absolute>0</Absolute>
    <ControlChange Channel="12" Control="64" Value="0"/>
  </Event>
  <Event>
    <Absolute>0</Absolute>
    <ControlChange Channel="12" Control="91" Value="72"/>
  </Event>
  <Event>
    <Absolute>0</Absolute>
    <ControlChange Channel="12" Control="10" Value="95"/>
  </Event>
  <Event>
    <Absolute>0</Absolute>
    <ControlChange Channel="12" Control="7" Value="90"/>
  </Event>
  <Event>
    <Absolute>0</Absolute>
    <TrackName>Contrabass</TrackName>
  </Event>
  <Event>
    <Absolute>9216</Absolute>
    <NoteOn Channel="12" Note="41" Velocity="71"/>
  </Event>
  <Event>
    <Absolute>9472</Absolute>
    <NoteOff Channel="12" Note="41" Velocity="0"/>
  </Event>
  <Event>
    <Absolute>9472</Absolute>
    <NoteOn Channel="12" Note="41" Velocity="81"/>
  </Event>
  <Event>
    <Absolute>9600</Absolute>
    <NoteOff Channel="12" Note="41" Velocity="0"/>
  </Event>
  <Event>
    <Absolute>9600</Absolute>
    <NoteOn Channel="12" Note="41" Velocity="86"/>
  </Event>
  <Event>
    <Absolute>9728</Absolute>
    <NoteOff Channel="12" Note="41" Velocity="0"/>
  </Event>
  <Event>
    <Absolute>9728</Absolute>
    <NoteOn Channel="12" Note="41" Velocity="91"/>
  </Event>
  <Event>
    <Absolute>9984</Absolute>
    <NoteOff Channel="12" Note="41" Velocity="0"/>
  </Event>
  <Event>
    <Absolute>9984</Absolute>
    <NoteOn Channel="12" Note="45" Velocity="104"/>
  </Event>
  <Event>
    <Absolute>10240</Absolute>
    <NoteOff Channel="12" Note="45" Velocity="0"/>
  </Event>
  <Event>
    <Absolute>10240</Absolute>
    <NoteOn Channel="12" Note="45" Velocity="99"/>
  </Event>
  <Event>
    <Absolute>10368</Absolute>
    <NoteOff Channel="12" Note="45" Velocity="0"/>
  </Event>
  <Event>
    <Absolute>10368</Absolute>
    <NoteOn Channel="12" Note="45" Velocity="98"/>
  </Event>
  <Event>
    <Absolute>10496</Absolute>
    <NoteOff Channel="12" Note="45" Velocity="0"/>
  </Event>
  <Event>
    <Absolute>10496</Absolute>
    <NoteOn Channel="12" Note="45" Velocity="96"/>
  </Event>
  <Event>
    <Absolute>10752</Absolute>
    <NoteOff Channel="12" Note="45" Velocity="0"/>
  </Event>
  <Event>
    <Absolute>10752</Absolute>
    <NoteOn Channel="12" Note="50" Velocity="104"/>
  </Event>
  <Event>
    <Absolute>11008</Absolute>
    <NoteOff Channel="12" Note="50" Velocity="0"/>
  </Event>
  <Event>
    <Absolute>11008</Absolute>
    <NoteOn Channel="12" Note="50" Velocity="97"/>
  </Event>
  <Event>
    <Absolute>11136</Absolute>
    <NoteOff Channel="12" Note="50" Velocity="0"/>
  </Event>
  <Event>
    <Absolute>11136</Absolute>
    <NoteOn Channel="12" Note="50" Velocity="96"/>
  </Event>
  <Event>
    <Absolute>11264</Absolute>
    <NoteOff Channel="12" Note="50" Velocity="0"/>
  </Event>
  <Event>
    <Absolute>11264</Absolute>
    <NoteOn Channel="12" Note="50" Velocity="99"/>
  </Event>
  <Event>
    <Absolute>11520</Absolute>
    <NoteOff Channel="12" Note="50" Velocity="0"/>
  </Event>
  <Event>
    <Absolute>11520</Absolute>
    <NoteOn Channel="12" Note="45" Velocity="93"/>
  </Event>
  <Event>
    <Absolute>11776</Absolute>
    <NoteOff Channel="12" Note="45" Velocity="0"/>
  </Event>
  <Event>
    <Absolute>11776</Absolute>
    <NoteOn Channel="12" Note="45" Velocity="94"/>
  </Event>
  <Event>
    <Absolute>11904</Absolute>
    <NoteOff Channel="12" Note="45" Velocity="0"/>
  </Event>
  <Event>
    <Absolute>11904</Absolute>
    <NoteOn Channel="12" Note="45" Velocity="97"/>
  </Event>
  <Event>
    <Absolute>12032</Absolute>
    <NoteOff Channel="12" Note="45" Velocity="0"/>
  </Event>
  <Event>
    <Absolute>12032</Absolute>
    <NoteOn Channel="12" Note="45" Velocity="96"/>
  </Event>
  <Event>
    <Absolute>12288</Absolute>
    <NoteOff Channel="12" Note="45" Velocity="0"/>
  </Event>
  <Event>
    <Absolute>12288</Absolute>
    <NoteOn Channel="12" Note="45" Velocity="99"/>
  </Event>
  <Event>
    <Absolute>12544</Absolute>
    <NoteOff Channel="12" Note="45" Velocity="0"/>
  </Event>
  <Event>
    <Absolute>12544</Absolute>
    <NoteOn Channel="12" Note="45" Velocity="91"/>
  </Event>
  <Event>
    <Absolute>12672</Absolute>
    <NoteOff Channel="12" Note="45" Velocity="0"/>
  </Event>
  <Event>
    <Absolute>12672</Absolute>
    <NoteOn Channel="12" Note="45" Velocity="97"/>
  </Event>
  <Event>
    <Absolute>12800</Absolute>
    <NoteOff Channel="12" Note="45" Velocity="0"/>
  </Event>
  <Event>
    <Absolute>12800</Absolute>
    <NoteOn Channel="12" Note="45" Velocity="98"/>
  </Event>
  <Event>
    <Absolute>13056</Absolute>
    <NoteOff Channel="12" Note="45" Velocity="0"/>
  </Event>
  <Event>
    <Absolute>13056</Absolute>
    <NoteOn Channel="12" Note="45" Velocity="100"/>
  </Event>
  <Event>
    <Absolute>13312</Absolute>
    <NoteOff Channel="12" Note="45" Velocity="0"/>
  </Event>
  <Event>
    <Absolute>13312</Absolute>
    <NoteOn Channel="12" Note="45" Velocity="105"/>
  </Event>
  <Event>
    <Absolute>13440</Absolute>
    <NoteOff Channel="12" Note="45" Velocity="0"/>
  </Event>
  <Event>
    <Absolute>13440</Absolute>
    <NoteOn Channel="12" Note="45" Velocity="103"/>
  </Event>
  <Event>
    <Absolute>13568</Absolute>
    <NoteOff Channel="12" Note="45" Velocity="0"/>
  </Event>
  <Event>
    <Absolute>13568</Absolute>
    <NoteOn Channel="12" Note="45" Velocity="107"/>
  </Event>
  <Event>
    <Absolute>13824</Absolute>
    <NoteOff Channel="12" Note="45" Velocity="0"/>
  </Event>
  <Event>
    <Absolute>13824</Absolute>
    <NoteOn Channel="12" Note="45" Velocity="112"/>
  </Event>
  <Event>
    <Absolute>14080</Absolute>
    <NoteOff Channel="12" Note="45" Velocity="0"/>
  </Event>
  <Event>
    <Absolute>14080</Absolute>
    <NoteOn Channel="12" Note="45" Velocity="107"/>
  </Event>
  <Event>
    <Absolute>14208</Absolute>
    <NoteOff Channel="12" Note="45" Velocity="0"/>
  </Event>
  <Event>
    <Absolute>14208</Absolute>
    <NoteOn Channel="12" Note="45" Velocity="113"/>
  </Event>
  <Event>
    <Absolute>14336</Absolute>
    <NoteOff Channel="12" Note="45" Velocity="0"/>
  </Event>
  <Event>
    <Absolute>14336</Absolute>
    <NoteOn Channel="12" Note="45" Velocity="110"/>
  </Event>
  <Event>
    <Absolute>14592</Absolute>
    <NoteOff Channel="12" Note="45" Velocity="0"/>
  </Event>
  <Event>
    <Absolute>14592</Absolute>
    <NoteOn Channel="12" Note="45" Velocity="105"/>
  </Event>
  <Event>
    <Absolute>14848</Absolute>
    <NoteOff Channel="12" Note="45" Velocity="0"/>
  </Event>
  <Event>
    <Absolute>14848</Absolute>
    <NoteOn Channel="12" Note="45" Velocity="110"/>
  </Event>
  <Event>
    <Absolute>14976</Absolute>
    <NoteOff Channel="12" Note="45" Velocity="0"/>
  </Event>
  <Event>
    <Absolute>14976</Absolute>
    <NoteOn Channel="12" Note="45" Velocity="116"/>
  </Event>
  <Event>
    <Absolute>15104</Absolute>
    <NoteOff Channel="12" Note="45" Velocity="0"/>
  </Event>
  <Event>
    <Absolute>15104</Absolute>
    <NoteOn Channel="12" Note="45" Velocity="112"/>
  </Event>
  <Event>
    <Absolute>15360</Absolute>
    <NoteOff Channel="12" Note="45" Velocity="0"/>
  </Event>
  <Event>
    <Absolute>15360</Absolute>
    <NoteOn Channel="12" Note="48" Velocity="119"/>
  </Event>
  <Event>
    <Absolute>15616</Absolute>
    <NoteOff Channel="12" Note="48" Velocity="0"/>
  </Event>
  <Event>
    <Absolute>15616</Absolute>
    <NoteOn Channel="12" Note="47" Velocity="112"/>
  </Event>
  <Event>
    <Absolute>15744</Absolute>
    <NoteOff Channel="12" Note="47" Velocity="0"/>
  </Event>
  <Event>
    <Absolute>15744</Absolute>
    <NoteOn Channel="12" Note="48" Velocity="115"/>
  </Event>
  <Event>
    <Absolute>15872</Absolute>
    <NoteOff Channel="12" Note="48" Velocity="0"/>
  </Event>
  <Event>
    <Absolute>15872</Absolute>
    <NoteOn Channel="12" Note="45" Velocity="108"/>
  </Event>
  <Event>
    <Absolute>16128</Absolute>
    <NoteOff Channel="12" Note="45" Velocity="0"/>
  </Event>
  <Event>
    <Absolute>16128</Absolute>
    <NoteOn Channel="12" Note="48" Velocity="119"/>
  </Event>
  <Event>
    <Absolute>16384</Absolute>
    <NoteOff Channel="12" Note="48" Velocity="0"/>
  </Event>
  <Event>
    <Absolute>16384</Absolute>
    <NoteOn Channel="12" Note="47" Velocity="108"/>
  </Event>
  <Event>
    <Absolute>16512</Absolute>
    <NoteOff Channel="12" Note="47" Velocity="0"/>
  </Event>
  <Event>
    <Absolute>16512</Absolute>
    <NoteOn Channel="12" Note="48" Velocity="117"/>
  </Event>
  <Event>
    <Absolute>16640</Absolute>
    <NoteOff Channel="12" Note="48" Velocity="0"/>
  </Event>
  <Event>
    <Absolute>16640</Absolute>
    <NoteOn Channel="12" Note="45" Velocity="108"/>
  </Event>
  <Event>
    <Absolute>16896</Absolute>
    <NoteOff Channel="12" Note="45" Velocity="0"/>
  </Event>
  <Event>
    <Absolute>16896</Absolute>
    <NoteOn Channel="12" Note="48" Velocity="121"/>
  </Event>
  <Event>
    <Absolute>17152</Absolute>
    <NoteOff Channel="12" Note="48" Velocity="0"/>
  </Event>
  <Event>
    <Absolute>17152</Absolute>
    <NoteOn Channel="12" Note="47" Velocity="112"/>
  </Event>
  <Event>
    <Absolute>17280</Absolute>
    <NoteOff Channel="12" Note="47" Velocity="0"/>
  </Event>
  <Event>
    <Absolute>17280</Absolute>
    <NoteOn Channel="12" Note="48" Velocity="112"/>
  </Event>
  <Event>
    <Absolute>17408</Absolute>
    <NoteOff Channel="12" Note="48" Velocity="0"/>
  </Event>
  <Event>
    <Absolute>17408</Absolute>
    <NoteOn Channel="12" Note="45" Velocity="106"/>
  </Event>
  <Event>
    <Absolute>17664</Absolute>
    <NoteOff Channel="12" Note="45" Velocity="0"/>
  </Event>
  <Event>
    <Absolute>17664</Absolute>
    <NoteOn Channel="12" Note="48" Velocity="113"/>
  </Event>
  <Event>
    <Absolute>17920</Absolute>
    <NoteOff Channel="12" Note="48" Velocity="0"/>
  </Event>
  <Event>
    <Absolute>17920</Absolute>
    <NoteOn Channel="12" Note="47" Velocity="108"/>
  </Event>
  <Event>
    <Absolute>18048</Absolute>
    <NoteOff Channel="12" Note="47" Velocity="0"/>
  </Event>
  <Event>
    <Absolute>18048</Absolute>
    <NoteOn Channel="12" Note="48" Velocity="115"/>
  </Event>
  <Event>
    <Absolute>18176</Absolute>
    <NoteOff Channel="12" Note="48" Velocity="0"/>
  </Event>
  <Event>
    <Absolute>18176</Absolute>
    <NoteOn Channel="12" Note="45" Velocity="108"/>
  </Event>
  <Event>
    <Absolute>18432</Absolute>
    <NoteOff Channel="12" Note="45" Velocity="0"/>
  </Event>
  <Event>
    <Absolute>18432</Absolute>
    <NoteOn Channel="12" Note="40" Velocity="75"/>
  </Event>
  <Event>
    <Absolute>19968</Absolute>
    <NoteOff Channel="12" Note="40" Velocity="0"/>
  </Event>
  <Event>
    <Absolute>19968</Absolute>
    <NoteOn Channel="12" Note="40" Velocity="84"/>
  </Event>
  <Event>
    <Absolute>21504</Absolute>
    <NoteOff Channel="12" Note="40" Velocity="0"/>
  </Event>
  <Event>
    <Absolute>21504</Absolute>
    <NoteOn Channel="12" Note="43" Velocity="48"/>
  </Event>
  <Event>
    <Absolute>22272</Absolute>
    <NoteOff Channel="12" Note="43" Velocity="0"/>
  </Event>
  <Event>
    <Absolute>22272</Absolute>
    <NoteOn Channel="12" Note="41" Velocity="50"/>
  </Event>
  <Event>
    <Absolute>23040</Absolute>
    <NoteOff Channel="12" Note="41" Velocity="0"/>
  </Event>
  <Event>
    <Absolute>23040</Absolute>
    <NoteOn Channel="12" Note="40" Velocity="46"/>
  </Event>
  <Event>
    <Absolute>23808</Absolute>
    <NoteOff Channel="12" Note="40" Velocity="0"/>
  </Event>
  <Event>
    <Absolute>23808</Absolute>
    <NoteOn Channel="12" Note="38" Velocity="47"/>
  </Event>
  <Event>
    <Absolute>24576</Absolute>
    <NoteOff Channel="12" Note="38" Velocity="0"/>
  </Event>
  <Event>
    <Absolute>24576</Absolute>
    <NoteOn Channel="12" Note="33" Velocity="52"/>
  </Event>
  <Event>
    <Absolute>27648</Absolute>
    <NoteOff Channel="12" Note="33" Velocity="0"/>
  </Event>
  <Event>
    <Absolute>33792</Absolute>
    <NoteOn Channel="12" Note="41" Velocity="83"/>
  </Event>
  <Event>
    <Absolute>34048</Absolute>
    <NoteOff Channel="12" Note="41" Velocity="0"/>
  </Event>
  <Event>
    <Absolute>34048</Absolute>
    <NoteOn Channel="12" Note="41" Velocity="83"/>
  </Event>
  <Event>
    <Absolute>34176</Absolute>
    <NoteOff Channel="12" Note="41" Velocity="0"/>
  </Event>
  <Event>
    <Absolute>34176</Absolute>
    <NoteOn Channel="12" Note="41" Velocity="83"/>
  </Event>
  <Event>
    <Absolute>34304</Absolute>
    <NoteOff Channel="12" Note="41" Velocity="0"/>
  </Event>
  <Event>
    <Absolute>34304</Absolute>
    <NoteOn Channel="12" Note="41" Velocity="88"/>
  </Event>
  <Event>
    <Absolute>34560</Absolute>
    <NoteOff Channel="12" Note="41" Velocity="0"/>
  </Event>
  <Event>
    <Absolute>34560</Absolute>
    <NoteOn Channel="12" Note="45" Velocity="104"/>
  </Event>
  <Event>
    <Absolute>34816</Absolute>
    <NoteOff Channel="12" Note="45" Velocity="0"/>
  </Event>
  <Event>
    <Absolute>34816</Absolute>
    <NoteOn Channel="12" Note="45" Velocity="99"/>
  </Event>
  <Event>
    <Absolute>34944</Absolute>
    <NoteOff Channel="12" Note="45" Velocity="0"/>
  </Event>
  <Event>
    <Absolute>34944</Absolute>
    <NoteOn Channel="12" Note="45" Velocity="99"/>
  </Event>
  <Event>
    <Absolute>35072</Absolute>
    <NoteOff Channel="12" Note="45" Velocity="0"/>
  </Event>
  <Event>
    <Absolute>35072</Absolute>
    <NoteOn Channel="12" Note="45" Velocity="96"/>
  </Event>
  <Event>
    <Absolute>35328</Absolute>
    <NoteOff Channel="12" Note="45" Velocity="0"/>
  </Event>
  <Event>
    <Absolute>35328</Absolute>
    <NoteOn Channel="12" Note="50" Velocity="108"/>
  </Event>
  <Event>
    <Absolute>35584</Absolute>
    <NoteOff Channel="12" Note="50" Velocity="0"/>
  </Event>
  <Event>
    <Absolute>35584</Absolute>
    <NoteOn Channel="12" Note="50" Velocity="96"/>
  </Event>
  <Event>
    <Absolute>35712</Absolute>
    <NoteOff Channel="12" Note="50" Velocity="0"/>
  </Event>
  <Event>
    <Absolute>35712</Absolute>
    <NoteOn Channel="12" Note="50" Velocity="99"/>
  </Event>
  <Event>
    <Absolute>35840</Absolute>
    <NoteOff Channel="12" Note="50" Velocity="0"/>
  </Event>
  <Event>
    <Absolute>35840</Absolute>
    <NoteOn Channel="12" Note="50" Velocity="100"/>
  </Event>
  <Event>
    <Absolute>36096</Absolute>
    <NoteOff Channel="12" Note="50" Velocity="0"/>
  </Event>
  <Event>
    <Absolute>36096</Absolute>
    <NoteOn Channel="12" Note="45" Velocity="93"/>
  </Event>
  <Event>
    <Absolute>36352</Absolute>
    <NoteOff Channel="12" Note="45" Velocity="0"/>
  </Event>
  <Event>
    <Absolute>36352</Absolute>
    <NoteOn Channel="12" Note="45" Velocity="96"/>
  </Event>
  <Event>
    <Absolute>36480</Absolute>
    <NoteOff Channel="12" Note="45" Velocity="0"/>
  </Event>
  <Event>
    <Absolute>36480</Absolute>
    <NoteOn Channel="12" Note="45" Velocity="97"/>
  </Event>
  <Event>
    <Absolute>36608</Absolute>
    <NoteOff Channel="12" Note="45" Velocity="0"/>
  </Event>
  <Event>
    <Absolute>36608</Absolute>
    <NoteOn Channel="12" Note="45" Velocity="94"/>
  </Event>
  <Event>
    <Absolute>36864</Absolute>
    <NoteOff Channel="12" Note="45" Velocity="0"/>
  </Event>
  <Event>
    <Absolute>36864</Absolute>
    <NoteOn Channel="12" Note="45" Velocity="97"/>
  </Event>
  <Event>
    <Absolute>37120</Absolute>
    <NoteOff Channel="12" Note="45" Velocity="0"/>
  </Event>
  <Event>
    <Absolute>37120</Absolute>
    <NoteOn Channel="12" Note="45" Velocity="97"/>
  </Event>
  <Event>
    <Absolute>37248</Absolute>
    <NoteOff Channel="12" Note="45" Velocity="0"/>
  </Event>
  <Event>
    <Absolute>37248</Absolute>
    <NoteOn Channel="12" Note="45" Velocity="100"/>
  </Event>
  <Event>
    <Absolute>37376</Absolute>
    <NoteOff Channel="12" Note="45" Velocity="0"/>
  </Event>
  <Event>
    <Absolute>37376</Absolute>
    <NoteOn Channel="12" Note="45" Velocity="94"/>
  </Event>
  <Event>
    <Absolute>37632</Absolute>
    <NoteOff Channel="12" Note="45" Velocity="0"/>
  </Event>
  <Event>
    <Absolute>37632</Absolute>
    <NoteOn Channel="12" Note="45" Velocity="103"/>
  </Event>
  <Event>
    <Absolute>37888</Absolute>
    <NoteOff Channel="12" Note="45" Velocity="0"/>
  </Event>
  <Event>
    <Absolute>37888</Absolute>
    <NoteOn Channel="12" Note="45" Velocity="101"/>
  </Event>
  <Event>
    <Absolute>38016</Absolute>
    <NoteOff Channel="12" Note="45" Velocity="0"/>
  </Event>
  <Event>
    <Absolute>38016</Absolute>
    <NoteOn Channel="12" Note="45" Velocity="103"/>
  </Event>
  <Event>
    <Absolute>38144</Absolute>
    <NoteOff Channel="12" Note="45" Velocity="0"/>
  </Event>
  <Event>
    <Absolute>38144</Absolute>
    <NoteOn Channel="12" Note="45" Velocity="110"/>
  </Event>
  <Event>
    <Absolute>38400</Absolute>
    <NoteOff Channel="12" Note="45" Velocity="0"/>
  </Event>
  <Event>
    <Absolute>38400</Absolute>
    <NoteOn Channel="12" Note="45" Velocity="111"/>
  </Event>
  <Event>
    <Absolute>38656</Absolute>
    <NoteOff Channel="12" Note="45" Velocity="0"/>
  </Event>
  <Event>
    <Absolute>38656</Absolute>
    <NoteOn Channel="12" Note="45" Velocity="112"/>
  </Event>
  <Event>
    <Absolute>38784</Absolute>
    <NoteOff Channel="12" Note="45" Velocity="0"/>
  </Event>
  <Event>
    <Absolute>38784</Absolute>
    <NoteOn Channel="12" Note="45" Velocity="113"/>
  </Event>
  <Event>
    <Absolute>38912</Absolute>
    <NoteOff Channel="12" Note="45" Velocity="0"/>
  </Event>
  <Event>
    <Absolute>38912</Absolute>
    <NoteOn Channel="12" Note="45" Velocity="109"/>
  </Event>
  <Event>
    <Absolute>39168</Absolute>
    <NoteOff Channel="12" Note="45" Velocity="0"/>
  </Event>
  <Event>
    <Absolute>39168</Absolute>
    <NoteOn Channel="12" Note="45" Velocity="115"/>
  </Event>
  <Event>
    <Absolute>39424</Absolute>
    <NoteOff Channel="12" Note="45" Velocity="0"/>
  </Event>
  <Event>
    <Absolute>39424</Absolute>
    <NoteOn Channel="12" Note="45" Velocity="115"/>
  </Event>
  <Event>
    <Absolute>39552</Absolute>
    <NoteOff Channel="12" Note="45" Velocity="0"/>
  </Event>
  <Event>
    <Absolute>39552</Absolute>
    <NoteOn Channel="12" Note="45" Velocity="110"/>
  </Event>
  <Event>
    <Absolute>39680</Absolute>
    <NoteOff Channel="12" Note="45" Velocity="0"/>
  </Event>
  <Event>
    <Absolute>39680</Absolute>
    <NoteOn Channel="12" Note="45" Velocity="108"/>
  </Event>
  <Event>
    <Absolute>39936</Absolute>
    <NoteOff Channel="12" Note="45" Velocity="0"/>
  </Event>
  <Event>
    <Absolute>39936</Absolute>
    <NoteOn Channel="12" Note="48" Velocity="118"/>
  </Event>
  <Event>
    <Absolute>40192</Absolute>
    <NoteOff Channel="12" Note="48" Velocity="0"/>
  </Event>
  <Event>
    <Absolute>40192</Absolute>
    <NoteOn Channel="12" Note="47" Velocity="109"/>
  </Event>
  <Event>
    <Absolute>40320</Absolute>
    <NoteOff Channel="12" Note="47" Velocity="0"/>
  </Event>
  <Event>
    <Absolute>40320</Absolute>
    <NoteOn Channel="12" Note="48" Velocity="114"/>
  </Event>
  <Event>
    <Absolute>40448</Absolute>
    <NoteOff Channel="12" Note="48" Velocity="0"/>
  </Event>
  <Event>
    <Absolute>40448</Absolute>
    <NoteOn Channel="12" Note="45" Velocity="109"/>
  </Event>
  <Event>
    <Absolute>40704</Absolute>
    <NoteOff Channel="12" Note="45" Velocity="0"/>
  </Event>
  <Event>
    <Absolute>40704</Absolute>
    <NoteOn Channel="12" Note="48" Velocity="116"/>
  </Event>
  <Event>
    <Absolute>40960</Absolute>
    <NoteOff Channel="12" Note="48" Velocity="0"/>
  </Event>
  <Event>
    <Absolute>40960</Absolute>
    <NoteOn Channel="12" Note="47" Velocity="108"/>
  </Event>
  <Event>
    <Absolute>41088</Absolute>
    <NoteOff Channel="12" Note="47" Velocity="0"/>
  </Event>
  <Event>
    <Absolute>41088</Absolute>
    <NoteOn Channel="12" Note="48" Velocity="115"/>
  </Event>
  <Event>
    <Absolute>41216</Absolute>
    <NoteOff Channel="12" Note="48" Velocity="0"/>
  </Event>
  <Event>
    <Absolute>41216</Absolute>
    <NoteOn Channel="12" Note="45" Velocity="104"/>
  </Event>
  <Event>
    <Absolute>41472</Absolute>
    <NoteOff Channel="12" Note="45" Velocity="0"/>
  </Event>
  <Event>
    <Absolute>41472</Absolute>
    <NoteOn Channel="12" Note="48" Velocity="114"/>
  </Event>
  <Event>
    <Absolute>41728</Absolute>
    <NoteOff Channel="12" Note="48" Velocity="0"/>
  </Event>
  <Event>
    <Absolute>41728</Absolute>
    <NoteOn Channel="12" Note="47" Velocity="104"/>
  </Event>
  <Event>
    <Absolute>41856</Absolute>
    <NoteOff Channel="12" Note="47" Velocity="0"/>
  </Event>
  <Event>
    <Absolute>41856</Absolute>
    <NoteOn Channel="12" Note="48" Velocity="112"/>
  </Event>
  <Event>
    <Absolute>41984</Absolute>
    <NoteOff Channel="12" Note="48" Velocity="0"/>
  </Event>
  <Event>
    <Absolute>41984</Absolute>
    <NoteOn Channel="12" Note="45" Velocity="104"/>
  </Event>
  <Event>
    <Absolute>42240</Absolute>
    <NoteOff Channel="12" Note="45" Velocity="0"/>
  </Event>
  <Event>
    <Absolute>42240</Absolute>
    <NoteOn Channel="12" Note="48" Velocity="116"/>
  </Event>
  <Event>
    <Absolute>42496</Absolute>
    <NoteOff Channel="12" Note="48" Velocity="0"/>
  </Event>
  <Event>
    <Absolute>42496</Absolute>
    <NoteOn Channel="12" Note="47" Velocity="109"/>
  </Event>
  <Event>
    <Absolute>42624</Absolute>
    <NoteOff Channel="12" Note="47" Velocity="0"/>
  </Event>
  <Event>
    <Absolute>42624</Absolute>
    <NoteOn Channel="12" Note="48" Velocity="113"/>
  </Event>
  <Event>
    <Absolute>42752</Absolute>
    <NoteOff Channel="12" Note="48" Velocity="0"/>
  </Event>
  <Event>
    <Absolute>42752</Absolute>
    <NoteOn Channel="12" Note="45" Velocity="105"/>
  </Event>
  <Event>
    <Absolute>43008</Absolute>
    <NoteOff Channel="12" Note="45" Velocity="0"/>
  </Event>
  <Event>
    <Absolute>43008</Absolute>
    <NoteOn Channel="12" Note="40" Velocity="73"/>
  </Event>
  <Event>
    <Absolute>44544</Absolute>
    <NoteOff Channel="12" Note="40" Velocity="0"/>
  </Event>
  <Event>
    <Absolute>44544</Absolute>
    <NoteOn Channel="12" Note="40" Velocity="79"/>
  </Event>
  <Event>
    <Absolute>46080</Absolute>
    <NoteOff Channel="12" Note="40" Velocity="0"/>
  </Event>
  <Event>
    <Absolute>46080</Absolute>
    <NoteOn Channel="12" Note="43" Velocity="53"/>
  </Event>
  <Event>
    <Absolute>46848</Absolute>
    <NoteOff Channel="12" Note="43" Velocity="0"/>
  </Event>
  <Event>
    <Absolute>46848</Absolute>
    <NoteOn Channel="12" Note="41" Velocity="47"/>
  </Event>
  <Event>
    <Absolute>47616</Absolute>
    <NoteOff Channel="12" Note="41" Velocity="0"/>
  </Event>
  <Event>
    <Absolute>47616</Absolute>
    <NoteOn Channel="12" Note="40" Velocity="46"/>
  </Event>
  <Event>
    <Absolute>48384</Absolute>
    <NoteOff Channel="12" Note="40" Velocity="0"/>
  </Event>
  <Event>
    <Absolute>48384</Absolute>
    <NoteOn Channel="12" Note="38" Velocity="47"/>
  </Event>
  <Event>
    <Absolute>49152</Absolute>
    <NoteOff Channel="12" Note="38" Velocity="0"/>
  </Event>
  <Event>
    <Absolute>49152</Absolute>
    <NoteOn Channel="12" Note="33" Velocity="48"/>
  </Event>
  <Event>
    <Absolute>53376</Absolute>
    <NoteOff Channel="12" Note="33" Velocity="0"/>
  </Event>
  <Event>
    <Absolute>53377</Absolute>
    <EndOfTrack/>
  </Event>
</Track>
</MIDIFile>