
<MIDIFile>
<Format>1</Format>
<TrackCount>13</TrackCount>
<TicksPerBeat>120</TicksPerBeat>
<TimestampType>Absolute</TimestampType>
<Track Number="0">
  <Event>
    <Absolute>0</Absolute>
    <TrackName>Star Wars</TrackName>
  </Event>
  <Event>
    <Absolute>0</Absolute>
    <TrackName>John Williams</TrackName>
  </Event>
  <Event>
    <Absolute>0</Absolute>
    <TimeSignature Numerator="4" LogDenominator="2" MIDIClocksPerMetronomeClick="24" ThirtySecondsPer24Clocks="8"/>
  </Event>
  <Event>
    <Absolute>0</Absolute>
    <KeySignature Fifths="0" Mode="0"/>
  </Event>
  <Event>
    <Absolute>0</Absolute>
    <SetTempo Value="582524"/>
  </Event>
  <Event>
    <Absolute>1800</Absolute>
    <SetTempo Value="447761"/>
  </Event>
  <Event>
    <Absolute>2040</Absolute>
    <SetTempo Value="576923"/>
  </Event>
  <Event>
    <Absolute>8640</Absolute>
    <SetTempo Value="576923"/>
  </Event>
  <Event>
    <Absolute>8725</Absolute>
    <SetTempo Value="576923"/>
  </Event>
  <Event>
    <Absolute>8730</Absolute>
    <SetTempo Value="571429"/>
  </Event>
  <Event>
    <Absolute>8815</Absolute>
    <SetTempo Value="566038"/>
  </Event>
  <Event>
    <Absolute>8820</Absolute>
    <SetTempo Value="560748"/>
  </Event>
  <Event>
    <Absolute>8905</Absolute>
    <SetTempo Value="555556"/>
  </Event>
  <Event>
    <Absolute>8910</Absolute>
    <SetTempo Value="550459"/>
  </Event>
  <Event>
    <Absolute>8995</Absolute>
    <SetTempo Value="550459"/>
  </Event>
  <Event>
    <Absolute>9000</Absolute>
    <SetTempo Value="540541"/>
  </Event>
  <Event>
    <Absolute>9235</Absolute>
    <SetTempo Value="540541"/>
  </Event>
  <Event>
    <Absolute>9240</Absolute>
    <SetTempo Value="512821"/>
  </Event>
  <Event>
    <Absolute>9360</Absolute>
    <SetTempo Value="504202"/>
  </Event>
  <Event>
    <Absolute>9570</Absolute>
    <SetTempo Value="504202"/>
  </Event>
  <Event>
    <Absolute>9575</Absolute>
    <SetTempo Value="495868"/>
  </Event>
  <Event>
    <Absolute>13920</Absolute>
    <SetTempo Value="576923"/>
  </Event>
  <Event>
    <Absolute>20880</Absolute>
    <SetTempo Value="625000"/>
  </Event>
  <Event>
    <Absolute>24730</Absolute>
    <SetTempo Value="631579"/>
  </Event>
  <Event>
    <Absolute>24735</Absolute>
    <SetTempo Value="631579"/>
  </Event>
  <Event>
    <Absolute>24830</Absolute>
    <SetTempo Value="638298"/>
  </Event>
  <Event>
    <Absolute>24835</Absolute>
    <SetTempo Value="645161"/>
  </Event>
  <Event>
    <Absolute>24930</Absolute>
    <SetTempo Value="652174"/>
  </Event>
  <Event>
    <Absolute>24935</Absolute>
    <SetTempo Value="659341"/>
  </Event>
  <Event>
    <Absolute>25025</Absolute>
    <SetTempo Value="674157"/>
  </Event>
  <Event>
    <Absolute>25030</Absolute>
    <SetTempo Value="674157"/>
  </Event>
  <Event>
    <Absolute>25115</Absolute>
    <SetTempo Value="689655"/>
  </Event>
  <Event>
    <Absolute>25120</Absolute>
    <SetTempo Value="689655"/>
  </Event>
  <Event>
    <Absolute>25200</Absolute>
    <SetTempo Value="697674"/>
  </Event>
  <Event>
    <Absolute>25205</Absolute>
    <SetTempo Value="705882"/>
  </Event>
  <Event>
    <Absolute>25280</Absolute>
    <SetTempo Value="705882"/>
  </Event>
  <Event>
    <Absolute>25285</Absolute>
    <SetTempo Value="714286"/>
  </Event>
  <Event>
    <Absolute>25360</Absolute>
    <SetTempo Value="722892"/>
  </Event>
  <Event>
    <Absolute>25365</Absolute>
    <SetTempo Value="731707"/>
  </Event>
  <Event>
    <Absolute>25435</Absolute>
    <SetTempo Value="740741"/>
  </Event>
  <Event>
    <Absolute>25440</Absolute>
    <SetTempo Value="750000"/>
  </Event>
  <Event>
    <Absolute>25505</Absolute>
    <SetTempo Value="750000"/>
  </Event>
  <Event>
    <Absolute>25510</Absolute>
    <SetTempo Value="759494"/>
  </Event>
  <Event>
    <Absolute>25575</Absolute>
    <SetTempo Value="769231"/>
  </Event>
  <Event>
    <Absolute>25580</Absolute>
    <SetTempo Value="779221"/>
  </Event>
  <Event>
    <Absolute>25645</Absolute>
    <SetTempo Value="789474"/>
  </Event>
  <Event>
    <Absolute>25650</Absolute>
    <SetTempo Value="789474"/>
  </Event>
  <Event>
    <Absolute>25705</Absolute>
    <SetTempo Value="800000"/>
  </Event>
  <Event>
    <Absolute>25710</Absolute>
    <SetTempo Value="810811"/>
  </Event>
  <Event>
    <Absolute>25770</Absolute>
    <SetTempo Value="821918"/>
  </Event>
  <Event>
    <Absolute>25775</Absolute>
    <SetTempo Value="821918"/>
  </Event>
  <Event>
    <Absolute>25830</Absolute>
    <SetTempo Value="845070"/>
  </Event>
  <Event>
    <Absolute>25835</Absolute>
    <SetTempo Value="845070"/>
  </Event>
  <Event>
    <Absolute>25885</Absolute>
    <SetTempo Value="845070"/>
  </Event>
  <Event>
    <Absolute>25890</Absolute>
    <SetTempo Value="857143"/>
  </Event>
  <Event>
    <Absolute>25930</Absolute>
    <SetTempo Value="535714"/>
  </Event>
  <Event>
    <Absolute>25935</Absolute>
    <SetTempo Value="454545"/>
  </Event>
  <Event>
    <Absolute>35465</Absolute>
    <SetTempo Value="454545"/>
  </Event>
  <Event>
    <Absolute>35470</Absolute>
    <SetTempo Value="447761"/>
  </Event>
  <Event>
    <Absolute>35520</Absolute>
    <TimeSignature Numerator="3" LogDenominator="2" MIDIClocksPerMetronomeClick="24" ThirtySecondsPer24Clocks="8"/>
  </Event>
  <Event>
    <Absolute>35640</Absolute>
    <SetTempo Value="441176"/>
  </Event>
  <Event>
    <Absolute>35645</Absolute>
    <SetTempo Value="441176"/>
  </Event>
  <Event>
    <Absolute>35680</Absolute>
    <SetTempo Value="441176"/>
  </Event>
  <Event>
    <Absolute>35685</Absolute>
    <SetTempo Value="441176"/>
  </Event>
  <Event>
    <Absolute>35770</Absolute>
    <SetTempo Value="437956"/>
  </Event>
  <Event>
    <Absolute>35775</Absolute>
    <SetTempo Value="437956"/>
  </Event>
  <Event>
    <Absolute>41650</Absolute>
    <SetTempo Value="458015"/>
  </Event>
  <Event>
    <Absolute>41655</Absolute>
    <SetTempo Value="461538"/>
  </Event>
  <Event>
    <Absolute>43090</Absolute>
    <SetTempo Value="759494"/>
  </Event>
  <Event>
    <Absolute>43095</Absolute>
    <SetTempo Value="833333"/>
  </Event>
  <Event>
    <Absolute>43330</Absolute>
    <SetTempo Value="555556"/>
  </Event>
  <Event>
    <Absolute>43335</Absolute>
    <SetTempo Value="487805"/>
  </Event>
  <Event>
    <Absolute>43335</Absolute>
    <EndOfTrack/>
  </Event>
</Track>
<Track Number="1">
  <Event>
    <Absolute>0</Absolute>
    <MIDIChannelPrefix Value="01"/>
  </Event>
  <Event>
    <Absolute>0</Absolute>
    <ProgramChange Channel="2" Number="70"/>
  </Event>
  <Event>
    <Absolute>0</Absolute>
    <ControlChange Channel="2" Control="7" Value="104"/>
  </Event>
  <Event>
    <Absolute>0</Absolute>
    <ControlChange Channel="2" Control="10" Value="72"/>
  </Event>
  <Event>
    <Absolute>5</Absolute>
    <ControlChange Channel="2" Control="18" Value="0"/>
  </Event>
  <Event>
    <Absolute>480</Absolute>
    <NoteOn Channel="2" Note="82" Velocity="70"/>
  </Event>
  <Event>
    <Absolute>480</Absolute>
    <NoteOn Channel="2" Note="70" Velocity="62"/>
  </Event>
  <Event>
    <Absolute>653</Absolute>
    <NoteOn Channel="2" Note="82" Velocity="0"/>
  </Event>
  <Event>
    <Absolute>655</Absolute>
    <NoteOn Channel="2" Note="70" Velocity="0"/>
  </Event>
  <Event>
    <Absolute>1317</Absolute>
    <NoteOn Channel="2" Note="68" Velocity="66"/>
  </Event>
  <Event>
    <Absolute>1318</Absolute>
    <NoteOn Channel="2" Note="63" Velocity="70"/>
  </Event>
  <Event>
    <Absolute>1329</Absolute>
    <NoteOn Channel="2" Note="68" Velocity="0"/>
  </Event>
  <Event>
    <Absolute>1331</Absolute>
    <NoteOn Channel="2" Note="63" Velocity="0"/>
  </Event>
  <Event>
    <Absolute>1355</Absolute>
    <NoteOn Channel="2" Note="63" Velocity="70"/>
  </Event>
  <Event>
    <Absolute>1355</Absolute>
    <NoteOn Channel="2" Note="68" Velocity="58"/>
  </Event>
  <Event>
    <Absolute>1365</Absolute>
    <NoteOn Channel="2" Note="68" Velocity="0"/>
  </Event>
  <Event>
    <Absolute>1366</Absolute>
    <NoteOn Channel="2" Note="63" Velocity="0"/>
  </Event>
  <Event>
    <Absolute>1396</Absolute>
    <NoteOn Channel="2" Note="63" Velocity="66"/>
  </Event>
  <Event>
    <Absolute>1396</Absolute>
    <NoteOn Channel="2" Note="68" Velocity="62"/>
  </Event>
  <Event>
    <Absolute>1405</Absolute>
    <NoteOn Channel="2" Note="68" Velocity="0"/>
  </Event>
  <Event>
    <Absolute>1406</Absolute>
    <NoteOn Channel="2" Note="63" Velocity="0"/>
  </Event>
  <Event>
    <Absolute>1438</Absolute>
    <NoteOn Channel="2" Note="65" Velocity="66"/>
  </Event>
  <Event>
    <Absolute>1438</Absolute>
    <NoteOn Channel="2" Note="63" Velocity="74"/>
  </Event>
  <Event>
    <Absolute>1531</Absolute>
    <NoteOn Channel="2" Note="65" Velocity="0"/>
  </Event>
  <Event>
    <Absolute>1534</Absolute>
    <NoteOn Channel="2" Note="63" Velocity="0"/>
  </Event>
  <Event>
    <Absolute>1561</Absolute>
    <NoteOn Channel="2" Note="63" Velocity="70"/>
  </Event>
  <Event>
    <Absolute>1561</Absolute>
    <NoteOn Channel="2" Note="65" Velocity="66"/>
  </Event>
  <Event>
    <Absolute>1572</Absolute>
    <NoteOn Channel="2" Note="65" Velocity="0"/>
  </Event>
  <Event>
    <Absolute>1572</Absolute>
    <NoteOn Channel="2" Note="63" Velocity="0"/>
  </Event>
  <Event>
    <Absolute>1601</Absolute>
    <NoteOn Channel="2" Note="63" Velocity="70"/>
  </Event>
  <Event>
    <Absolute>1602</Absolute>
    <NoteOn Channel="2" Note="65" Velocity="62"/>
  </Event>
  <Event>
    <Absolute>1611</Absolute>
    <NoteOn Channel="2" Note="63" Velocity="0"/>
  </Event>
  <Event>
    <Absolute>1612</Absolute>
    <NoteOn Channel="2" Note="65" Velocity="0"/>
  </Event>
  <Event>
    <Absolute>1641</Absolute>
    <NoteOn Channel="2" Note="65" Velocity="66"/>
  </Event>
  <Event>
    <Absolute>1641</Absolute>
    <NoteOn Channel="2" Note="63" Velocity="70"/>
  </Event>
  <Event>
    <Absolute>1652</Absolute>
    <NoteOn Channel="2" Note="65" Velocity="0"/>
  </Event>
  <Event>
    <Absolute>1654</Absolute>
    <NoteOn Channel="2" Note="63" Velocity="0"/>
  </Event>
  <Event>
    <Absolute>1685</Absolute>
    <NoteOn Channel="2" Note="65" Velocity="70"/>
  </Event>
  <Event>
    <Absolute>1686</Absolute>
    <NoteOn Channel="2" Note="63" Velocity="74"/>
  </Event>
  <Event>
    <Absolute>1695</Absolute>
    <NoteOn Channel="2" Note="65" Velocity="0"/>
  </Event>
  <Event>
    <Absolute>1700</Absolute>
    <NoteOn Channel="2" Note="63" Velocity="0"/>
  </Event>
  <Event>
    <Absolute>1838</Absolute>
    <NoteOn Channel="2" Note="69" Velocity="54"/>
  </Event>
  <Event>
    <Absolute>1858</Absolute>
    <NoteOn Channel="2" Note="70" Velocity="50"/>
  </Event>
  <Event>
    <Absolute>1859</Absolute>
    <NoteOn Channel="2" Note="69" Velocity="0"/>
  </Event>
  <Event>
    <Absolute>1881</Absolute>
    <NoteOn Channel="2" Note="70" Velocity="0"/>
  </Event>
  <Event>
    <Absolute>1885</Absolute>
    <NoteOn Channel="2" Note="72" Velocity="50"/>
  </Event>
  <Event>
    <Absolute>1906</Absolute>
    <NoteOn Channel="2" Note="72" Velocity="0"/>
  </Event>
  <Event>
    <Absolute>1906</Absolute>
    <NoteOn Channel="2" Note="73" Velocity="50"/>
  </Event>
  <Event>
    <Absolute>1930</Absolute>
    <NoteOn Channel="2" Note="75" Velocity="50"/>
  </Event>
  <Event>
    <Absolute>1931</Absolute>
    <NoteOn Channel="2" Note="73" Velocity="0"/>
  </Event>
  <Event>
    <Absolute>1952</Absolute>
    <NoteOn Channel="2" Note="75" Velocity="0"/>
  </Event>
  <Event>
    <Absolute>1953</Absolute>
    <NoteOn Channel="2" Note="77" Velocity="52"/>
  </Event>
  <Event>
    <Absolute>1978</Absolute>
    <NoteOn Channel="2" Note="77" Velocity="0"/>
  </Event>
  <Event>
    <Absolute>1980</Absolute>
    <NoteOn Channel="2" Note="79" Velocity="52"/>
  </Event>
  <Event>
    <Absolute>2001</Absolute>
    <NoteOn Channel="2" Note="79" Velocity="0"/>
  </Event>
  <Event>
    <Absolute>2003</Absolute>
    <NoteOn Channel="2" Note="81" Velocity="52"/>
  </Event>
  <Event>
    <Absolute>2033</Absolute>
    <NoteOn Channel="2" Note="82" Velocity="48"/>
  </Event>
  <Event>
    <Absolute>2034</Absolute>
    <NoteOn Channel="2" Note="81" Velocity="0"/>
  </Event>
  <Event>
    <Absolute>2318</Absolute>
    <NoteOn Channel="2" Note="82" Velocity="0"/>
  </Event>
  <Event>
    <Absolute>2318</Absolute>
    <EndOfTrack/>
  </Event>
</Track>
<Track Number="2">
  <Event>
    <Absolute>0</Absolute>
    <MIDIChannelPrefix Value="01"/>
  </Event>
  <Event>
    <Absolute>0</Absolute>
    <ProgramChange Channel="1" Number="73"/>
  </Event>
  <Event>
    <Absolute>0</Absolute>
    <ControlChange Channel="1" Control="7" Value="108"/>
  </Event>
  <Event>
    <Absolute>0</Absolute>
    <ControlChange Channel="1" Control="10" Value="55"/>
  </Event>
  <Event>
    <Absolute>1</Absolute>
    <ControlChange Channel="1" Control="18" Value="0"/>
  </Event>
  <Event>
    <Absolute>24733</Absolute>
    <NoteOn Channel="1" Note="81" Velocity="57"/>
  </Event>
  <Event>
    <Absolute>24797</Absolute>
    <NoteOn Channel="1" Note="80" Velocity="48"/>
  </Event>
  <Event>
    <Absolute>24799</Absolute>
    <NoteOn Channel="1" Note="81" Velocity="0"/>
  </Event>
  <Event>
    <Absolute>24855</Absolute>
    <NoteOn Channel="1" Note="81" Velocity="46"/>
  </Event>
  <Event>
    <Absolute>24857</Absolute>
    <NoteOn Channel="1" Note="80" Velocity="0"/>
  </Event>
  <Event>
    <Absolute>24923</Absolute>
    <NoteOn Channel="1" Note="80" Velocity="55"/>
  </Event>
  <Event>
    <Absolute>24928</Absolute>
    <NoteOn Channel="1" Note="81" Velocity="0"/>
  </Event>
  <Event>
    <Absolute>24983</Absolute>
    <NoteOn Channel="1" Note="80" Velocity="0"/>
  </Event>
  <Event>
    <Absolute>24983</Absolute>
    <NoteOn Channel="1" Note="81" Velocity="53"/>
  </Event>
  <Event>
    <Absolute>25040</Absolute>
    <NoteOn Channel="1" Note="80" Velocity="54"/>
  </Event>
  <Event>
    <Absolute>25043</Absolute>
    <NoteOn Channel="1" Note="81" Velocity="0"/>
  </Event>
  <Event>
    <Absolute>25103</Absolute>
    <NoteOn Channel="1" Note="80" Velocity="0"/>
  </Event>
  <Event>
    <Absolute>25103</Absolute>
    <NoteOn Channel="1" Note="81" Velocity="53"/>
  </Event>
  <Event>
    <Absolute>25161</Absolute>
    <NoteOn Channel="1" Note="77" Velocity="56"/>
  </Event>
  <Event>
    <Absolute>25168</Absolute>
    <NoteOn Channel="1" Note="81" Velocity="0"/>
  </Event>
  <Event>
    <Absolute>25226</Absolute>
    <NoteOn Channel="1" Note="77" Velocity="0"/>
  </Event>
  <Event>
    <Absolute>25226</Absolute>
    <NoteOn Channel="1" Note="80" Velocity="56"/>
  </Event>
  <Event>
    <Absolute>25284</Absolute>
    <NoteOn Channel="1" Note="80" Velocity="0"/>
  </Event>
  <Event>
    <Absolute>25284</Absolute>
    <NoteOn Channel="1" Note="77" Velocity="48"/>
  </Event>
  <Event>
    <Absolute>25343</Absolute>
    <NoteOn Channel="1" Note="80" Velocity="59"/>
  </Event>
  <Event>
    <Absolute>25344</Absolute>
    <NoteOn Channel="1" Note="77" Velocity="0"/>
  </Event>
  <Event>
    <Absolute>25401</Absolute>
    <NoteOn Channel="1" Note="80" Velocity="0"/>
  </Event>
  <Event>
    <Absolute>25403</Absolute>
    <NoteOn Channel="1" Note="77" Velocity="56"/>
  </Event>
  <Event>
    <Absolute>25465</Absolute>
    <NoteOn Channel="1" Note="77" Velocity="0"/>
  </Event>
  <Event>
    <Absolute>25465</Absolute>
    <NoteOn Channel="1" Note="80" Velocity="67"/>
  </Event>
  <Event>
    <Absolute>25521</Absolute>
    <NoteOn Channel="1" Note="80" Velocity="0"/>
  </Event>
  <Event>
    <Absolute>25522</Absolute>
    <NoteOn Channel="1" Note="77" Velocity="53"/>
  </Event>
  <Event>
    <Absolute>25584</Absolute>
    <NoteOn Channel="1" Note="80" Velocity="59"/>
  </Event>
  <Event>
    <Absolute>25585</Absolute>
    <NoteOn Channel="1" Note="77" Velocity="0"/>
  </Event>
  <Event>
    <Absolute>25645</Absolute>
    <NoteOn Channel="1" Note="80" Velocity="0"/>
  </Event>
  <Event>
    <Absolute>25646</Absolute>
    <NoteOn Channel="1" Note="77" Velocity="48"/>
  </Event>
  <Event>
    <Absolute>25709</Absolute>
    <NoteOn Channel="1" Note="77" Velocity="0"/>
  </Event>
  <Event>
    <Absolute>25710</Absolute>
    <NoteOn Channel="1" Note="80" Velocity="59"/>
  </Event>
  <Event>
    <Absolute>25763</Absolute>
    <NoteOn Channel="1" Note="80" Velocity="0"/>
  </Event>
  <Event>
    <Absolute>25765</Absolute>
    <NoteOn Channel="1" Note="77" Velocity="45"/>
  </Event>
  <Event>
    <Absolute>25825</Absolute>
    <NoteOn Channel="1" Note="77" Velocity="0"/>
  </Event>
  <Event>
    <Absolute>25825</Absolute>
    <NoteOn Channel="1" Note="81" Velocity="56"/>
  </Event>
  <Event>
    <Absolute>25884</Absolute>
    <NoteOn Channel="1" Note="81" Velocity="0"/>
  </Event>
  <Event>
    <Absolute>25885</Absolute>
    <NoteOn Channel="1" Note="77" Velocity="53"/>
  </Event>
  <Event>
    <Absolute>25946</Absolute>
    <NoteOn Channel="1" Note="77" Velocity="0"/>
  </Event>
  <Event>
    <Absolute>25946</Absolute>
    <EndOfTrack/>
  </Event>
</Track>
<Track Number="3">
  <Event>
    <Absolute>0</Absolute>
    <MIDIChannelPrefix Value="01"/>
  </Event>
  <Event>
    <Absolute>0</Absolute>
    <ProgramChange Channel="3" Number="60"/>
  </Event>
  <Event>
    <Absolute>0</Absolute>
    <ControlChange Channel="3" Control="7" Value="126"/>
  </Event>
  <Event>
    <Absolute>0</Absolute>
    <ControlChange Channel="3" Control="10" Value="73"/>
  </Event>
  <Event>
    <Absolute>6</Absolute>
    <ControlChange Channel="3" Control="18" Value="64"/>
  </Event>
  <Event>
    <Absolute>602</Absolute>
    <NoteOn Channel="3" Note="58" Velocity="114"/>
  </Event>
  <Event>
    <Absolute>765</Absolute>
    <NoteOn Channel="3" Note="58" Velocity="0"/>
  </Event>
  <Event>
    <Absolute>782</Absolute>
    <NoteOn Channel="3" Note="58" Velocity="114"/>
  </Event>
  <Event>
    <Absolute>804</Absolute>
    <NoteOn Channel="3" Note="58" Velocity="0"/>
  </Event>
  <Event>
    <Absolute>842</Absolute>
    <NoteOn Channel="3" Note="58" Velocity="114"/>
  </Event>
  <Event>
    <Absolute>867</Absolute>
    <NoteOn Channel="3" Note="58" Velocity="0"/>
  </Event>
  <Event>
    <Absolute>882</Absolute>
    <NoteOn Channel="3" Note="58" Velocity="114"/>
  </Event>
  <Event>
    <Absolute>899</Absolute>
    <NoteOn Channel="3" Note="58" Velocity="0"/>
  </Event>
  <Event>
    <Absolute>922</Absolute>
    <NoteOn Channel="3" Note="58" Velocity="114"/>
  </Event>
  <Event>
    <Absolute>938</Absolute>
    <NoteOn Channel="3" Note="58" Velocity="0"/>
  </Event>
  <Event>
    <Absolute>962</Absolute>
    <NoteOn Channel="3" Note="58" Velocity="114"/>
  </Event>
  <Event>
    <Absolute>1109</Absolute>
    <NoteOn Channel="3" Note="58" Velocity="0"/>
  </Event>
  <Event>
    <Absolute>1147</Absolute>
    <NoteOn Channel="3" Note="65" Velocity="114"/>
  </Event>
  <Event>
    <Absolute>1162</Absolute>
    <NoteOn Channel="3" Note="65" Velocity="0"/>
  </Event>
  <Event>
    <Absolute>1204</Absolute>
    <NoteOn Channel="3" Note="70" Velocity="114"/>
  </Event>
  <Event>
    <Absolute>1205</Absolute>
    <NoteOn Channel="3" Note="65" Velocity="114"/>
  </Event>
  <Event>
    <Absolute>1305</Absolute>
    <NoteOn Channel="3" Note="65" Velocity="0"/>
  </Event>
  <Event>
    <Absolute>1320</Absolute>
    <NoteOn Channel="3" Note="63" Velocity="114"/>
  </Event>
  <Event>
    <Absolute>1334</Absolute>
    <NoteOn Channel="3" Note="70" Velocity="0"/>
  </Event>
  <Event>
    <Absolute>1337</Absolute>
    <NoteOn Channel="3" Note="63" Velocity="0"/>
  </Event>
  <Event>
    <Absolute>1362</Absolute>
    <NoteOn Channel="3" Note="68" Velocity="114"/>
  </Event>
  <Event>
    <Absolute>1363</Absolute>
    <NoteOn Channel="3" Note="63" Velocity="114"/>
  </Event>
  <Event>
    <Absolute>1375</Absolute>
    <NoteOn Channel="3" Note="68" Velocity="0"/>
  </Event>
  <Event>
    <Absolute>1378</Absolute>
    <NoteOn Channel="3" Note="63" Velocity="0"/>
  </Event>
  <Event>
    <Absolute>1400</Absolute>
    <NoteOn Channel="3" Note="68" Velocity="114"/>
  </Event>
  <Event>
    <Absolute>1402</Absolute>
    <NoteOn Channel="3" Note="63" Velocity="114"/>
  </Event>
  <Event>
    <Absolute>1415</Absolute>
    <NoteOn Channel="3" Note="63" Velocity="0"/>
  </Event>
  <Event>
    <Absolute>1415</Absolute>
    <NoteOn Channel="3" Note="68" Velocity="0"/>
  </Event>
  <Event>
    <Absolute>1441</Absolute>
    <NoteOn Channel="3" Note="70" Velocity="114"/>
  </Event>
  <Event>
    <Absolute>1441</Absolute>
    <NoteOn Channel="3" Note="63" Velocity="114"/>
  </Event>
  <Event>
    <Absolute>1458</Absolute>
    <NoteOn Channel="3" Note="70" Velocity="0"/>
  </Event>
  <Event>
    <Absolute>1483</Absolute>
    <NoteOn Channel="3" Note="70" Velocity="114"/>
  </Event>
  <Event>
    <Absolute>1498</Absolute>
    <NoteOn Channel="3" Note="70" Velocity="0"/>
  </Event>
  <Event>
    <Absolute>1519</Absolute>
    <NoteOn Channel="3" Note="70" Velocity="114"/>
  </Event>
  <Event>
    <Absolute>1537</Absolute>
    <NoteOn Channel="3" Note="70" Velocity="0"/>
  </Event>
  <Event>
    <Absolute>1543</Absolute>
    <NoteOn Channel="3" Note="63" Velocity="0"/>
  </Event>
  <Event>
    <Absolute>1563</Absolute>
    <NoteOn Channel="3" Note="70" Velocity="114"/>
  </Event>
  <Event>
    <Absolute>1565</Absolute>
    <NoteOn Channel="3" Note="63" Velocity="114"/>
  </Event>
  <Event>
    <Absolute>1580</Absolute>
    <NoteOn Channel="3" Note="63" Velocity="0"/>
  </Event>
  <Event>
    <Absolute>1606</Absolute>
    <NoteOn Channel="3" Note="63" Velocity="114"/>
  </Event>
  <Event>
    <Absolute>1621</Absolute>
    <NoteOn Channel="3" Note="63" Velocity="0"/>
  </Event>
  <Event>
    <Absolute>1645</Absolute>
    <NoteOn Channel="3" Note="63" Velocity="114"/>
  </Event>
  <Event>
    <Absolute>1659</Absolute>
    <NoteOn Channel="3" Note="63" Velocity="0"/>
  </Event>
  <Event>
    <Absolute>1684</Absolute>
    <NoteOn Channel="3" Note="63" Velocity="114"/>
  </Event>
  <Event>
    <Absolute>1759</Absolute>
    <NoteOn Channel="3" Note="63" Velocity="0"/>
  </Event>
  <Event>
    <Absolute>1769</Absolute>
    <NoteOn Channel="3" Note="70" Velocity="0"/>
  </Event>
  <Event>
    <Absolute>3480</Absolute>
    <NoteOn Channel="3" Note="68" Velocity="114"/>
  </Event>
  <Event>
    <Absolute>3490</Absolute>
    <NoteOn Channel="3" Note="72" Velocity="114"/>
  </Event>
  <Event>
    <Absolute>3498</Absolute>
    <NoteOn Channel="3" Note="68" Velocity="0"/>
  </Event>
  <Event>
    <Absolute>3506</Absolute>
    <NoteOn Channel="3" Note="72" Velocity="0"/>
  </Event>
  <Event>
    <Absolute>3526</Absolute>
    <NoteOn Channel="3" Note="71" Velocity="114"/>
  </Event>
  <Event>
    <Absolute>3527</Absolute>
    <NoteOn Channel="3" Note="67" Velocity="114"/>
  </Event>
  <Event>
    <Absolute>3541</Absolute>
    <NoteOn Channel="3" Note="71" Velocity="0"/>
  </Event>
  <Event>
    <Absolute>3545</Absolute>
    <NoteOn Channel="3" Note="67" Velocity="0"/>
  </Event>
  <Event>
    <Absolute>3565</Absolute>
    <NoteOn Channel="3" Note="68" Velocity="114"/>
  </Event>
  <Event>
    <Absolute>3566</Absolute>
    <NoteOn Channel="3" Note="72" Velocity="114"/>
  </Event>
  <Event>
    <Absolute>3582</Absolute>
    <NoteOn Channel="3" Note="72" Velocity="0"/>
  </Event>
  <Event>
    <Absolute>3584</Absolute>
    <NoteOn Channel="3" Note="68" Velocity="0"/>
  </Event>
  <Event>
    <Absolute>3605</Absolute>
    <NoteOn Channel="3" Note="69" Velocity="114"/>
  </Event>
  <Event>
    <Absolute>3607</Absolute>
    <NoteOn Channel="3" Note="65" Velocity="114"/>
  </Event>
  <Event>
    <Absolute>3819</Absolute>
    <NoteOn Channel="3" Note="65" Velocity="0"/>
  </Event>
  <Event>
    <Absolute>3820</Absolute>
    <NoteOn Channel="3" Note="69" Velocity="0"/>
  </Event>
  <Event>
    <Absolute>3963</Absolute>
    <NoteOn Channel="3" Note="50" Velocity="87"/>
  </Event>
  <Event>
    <Absolute>4027</Absolute>
    <NoteOn Channel="3" Note="50" Velocity="0"/>
  </Event>
  <Event>
    <Absolute>4083</Absolute>
    <NoteOn Channel="3" Note="50" Velocity="87"/>
  </Event>
  <Event>
    <Absolute>4137</Absolute>
    <NoteOn Channel="3" Note="50" Velocity="0"/>
  </Event>
  <Event>
    <Absolute>4198</Absolute>
    <NoteOn Channel="3" Note="50" Velocity="87"/>
  </Event>
  <Event>
    <Absolute>4249</Absolute>
    <NoteOn Channel="3" Note="50" Velocity="0"/>
  </Event>
  <Event>
    <Absolute>4294</Absolute>
    <NoteOn Channel="3" Note="50" Velocity="87"/>
  </Event>
  <Event>
    <Absolute>4302</Absolute>
    <NoteOn Channel="3" Note="50" Velocity="0"/>
  </Event>
  <Event>
    <Absolute>4317</Absolute>
    <NoteOn Channel="3" Note="50" Velocity="87"/>
  </Event>
  <Event>
    <Absolute>4332</Absolute>
    <NoteOn Channel="3" Note="50" Velocity="0"/>
  </Event>
  <Event>
    <Absolute>4363</Absolute>
    <NoteOn Channel="3" Note="50" Velocity="87"/>
  </Event>
  <Event>
    <Absolute>4376</Absolute>
    <NoteOn Channel="3" Note="50" Velocity="0"/>
  </Event>
  <Event>
    <Absolute>4398</Absolute>
    <NoteOn Channel="3" Note="50" Velocity="87"/>
  </Event>
  <Event>
    <Absolute>4414</Absolute>
    <NoteOn Channel="3" Note="50" Velocity="0"/>
  </Event>
  <Event>
    <Absolute>4440</Absolute>
    <NoteOn Channel="3" Note="51" Velocity="87"/>
  </Event>
  <Event>
    <Absolute>4530</Absolute>
    <NoteOn Channel="3" Note="51" Velocity="0"/>
  </Event>
  <Event>
    <Absolute>4553</Absolute>
    <NoteOn Channel="3" Note="53" Velocity="87"/>
  </Event>
  <Event>
    <Absolute>4615</Absolute>
    <NoteOn Channel="3" Note="53" Velocity="0"/>
  </Event>
  <Event>
    <Absolute>4631</Absolute>
    <NoteOn Channel="3" Note="55" Velocity="87"/>
  </Event>
  <Event>
    <Absolute>4658</Absolute>
    <NoteOn Channel="3" Note="55" Velocity="0"/>
  </Event>
  <Event>
    <Absolute>4686</Absolute>
    <NoteOn Channel="3" Note="55" Velocity="87"/>
  </Event>
  <Event>
    <Absolute>4772</Absolute>
    <NoteOn Channel="3" Note="55" Velocity="0"/>
  </Event>
  <Event>
    <Absolute>4797</Absolute>
    <NoteOn Channel="3" Note="53" Velocity="87"/>
  </Event>
  <Event>
    <Absolute>4879</Absolute>
    <NoteOn Channel="3" Note="53" Velocity="0"/>
  </Event>
  <Event>
    <Absolute>4920</Absolute>
    <NoteOn Channel="3" Note="51" Velocity="87"/>
  </Event>
  <Event>
    <Absolute>5008</Absolute>
    <NoteOn Channel="3" Note="51" Velocity="0"/>
  </Event>
  <Event>
    <Absolute>5040</Absolute>
    <NoteOn Channel="3" Note="51" Velocity="87"/>
  </Event>
  <Event>
    <Absolute>5040</Absolute>
    <NoteOn Channel="3" Note="63" Velocity="87"/>
  </Event>
  <Event>
    <Absolute>5052</Absolute>
    <NoteOn Channel="3" Note="51" Velocity="0"/>
  </Event>
  <Event>
    <Absolute>5053</Absolute>
    <NoteOn Channel="3" Note="63" Velocity="0"/>
  </Event>
  <Event>
    <Absolute>5081</Absolute>
    <NoteOn Channel="3" Note="51" Velocity="87"/>
  </Event>
  <Event>
    <Absolute>5081</Absolute>
    <NoteOn Channel="3" Note="63" Velocity="87"/>
  </Event>
  <Event>
    <Absolute>5093</Absolute>
    <NoteOn Channel="3" Note="51" Velocity="0"/>
  </Event>
  <Event>
    <Absolute>5094</Absolute>
    <NoteOn Channel="3" Note="63" Velocity="0"/>
  </Event>
  <Event>
    <Absolute>5118</Absolute>
    <NoteOn Channel="3" Note="51" Velocity="87"/>
  </Event>
  <Event>
    <Absolute>5118</Absolute>
    <NoteOn Channel="3" Note="63" Velocity="87"/>
  </Event>
  <Event>
    <Absolute>5132</Absolute>
    <NoteOn Channel="3" Note="63" Velocity="0"/>
  </Event>
  <Event>
    <Absolute>5132</Absolute>
    <NoteOn Channel="3" Note="51" Velocity="0"/>
  </Event>
  <Event>
    <Absolute>5160</Absolute>
    <NoteOn Channel="3" Note="57" Velocity="87"/>
  </Event>
  <Event>
    <Absolute>5160</Absolute>
    <NoteOn Channel="3" Note="58" Velocity="87"/>
  </Event>
  <Event>
    <Absolute>5161</Absolute>
    <NoteOn Channel="3" Note="62" Velocity="87"/>
  </Event>
  <Event>
    <Absolute>5252</Absolute>
    <NoteOn Channel="3" Note="58" Velocity="0"/>
  </Event>
  <Event>
    <Absolute>5254</Absolute>
    <NoteOn Channel="3" Note="62" Velocity="0"/>
  </Event>
  <Event>
    <Absolute>5260</Absolute>
    <NoteOn Channel="3" Note="57" Velocity="0"/>
  </Event>
  <Event>
    <Absolute>5278</Absolute>
    <NoteOn Channel="3" Note="62" Velocity="87"/>
  </Event>
  <Event>
    <Absolute>5280</Absolute>
    <NoteOn Channel="3" Note="58" Velocity="87"/>
  </Event>
  <Event>
    <Absolute>5291</Absolute>
    <NoteOn Channel="3" Note="62" Velocity="0"/>
  </Event>
  <Event>
    <Absolute>5295</Absolute>
    <NoteOn Channel="3" Note="58" Velocity="0"/>
  </Event>
  <Event>
    <Absolute>5316</Absolute>
    <NoteOn Channel="3" Note="62" Velocity="87"/>
  </Event>
  <Event>
    <Absolute>5317</Absolute>
    <NoteOn Channel="3" Note="58" Velocity="87"/>
  </Event>
  <Event>
    <Absolute>5331</Absolute>
    <NoteOn Channel="3" Note="58" Velocity="0"/>
  </Event>
  <Event>
    <Absolute>5331</Absolute>
    <NoteOn Channel="3" Note="62" Velocity="0"/>
  </Event>
  <Event>
    <Absolute>5355</Absolute>
    <NoteOn Channel="3" Note="62" Velocity="87"/>
  </Event>
  <Event>
    <Absolute>5357</Absolute>
    <NoteOn Channel="3" Note="58" Velocity="87"/>
  </Event>
  <Event>
    <Absolute>5369</Absolute>
    <NoteOn Channel="3" Note="62" Velocity="0"/>
  </Event>
  <Event>
    <Absolute>5375</Absolute>
    <NoteOn Channel="3" Note="58" Velocity="0"/>
  </Event>
  <Event>
    <Absolute>5398</Absolute>
    <NoteOn Channel="3" Note="72" Velocity="87"/>
  </Event>
  <Event>
    <Absolute>5398</Absolute>
    <NoteOn Channel="3" Note="68" Velocity="87"/>
  </Event>
  <Event>
    <Absolute>5413</Absolute>
    <NoteOn Channel="3" Note="72" Velocity="0"/>
  </Event>
  <Event>
    <Absolute>5417</Absolute>
    <NoteOn Channel="3" Note="68" Velocity="0"/>
  </Event>
  <Event>
    <Absolute>5440</Absolute>
    <NoteOn Channel="3" Note="67" Velocity="87"/>
  </Event>
  <Event>
    <Absolute>5440</Absolute>
    <NoteOn Channel="3" Note="71" Velocity="87"/>
  </Event>
  <Event>
    <Absolute>5454</Absolute>
    <NoteOn Channel="3" Note="71" Velocity="0"/>
  </Event>
  <Event>
    <Absolute>5456</Absolute>
    <NoteOn Channel="3" Note="67" Velocity="0"/>
  </Event>
  <Event>
    <Absolute>5480</Absolute>
    <NoteOn Channel="3" Note="68" Velocity="87"/>
  </Event>
  <Event>
    <Absolute>5481</Absolute>
    <NoteOn Channel="3" Note="72" Velocity="87"/>
  </Event>
  <Event>
    <Absolute>5497</Absolute>
    <NoteOn Channel="3" Note="72" Velocity="0"/>
  </Event>
  <Event>
    <Absolute>5498</Absolute>
    <NoteOn Channel="3" Note="68" Velocity="0"/>
  </Event>
  <Event>
    <Absolute>5521</Absolute>
    <NoteOn Channel="3" Note="69" Velocity="87"/>
  </Event>
  <Event>
    <Absolute>5521</Absolute>
    <NoteOn Channel="3" Note="65" Velocity="87"/>
  </Event>
  <Event>
    <Absolute>5725</Absolute>
    <NoteOn Channel="3" Note="69" Velocity="0"/>
  </Event>
  <Event>
    <Absolute>5729</Absolute>
    <NoteOn Channel="3" Note="65" Velocity="0"/>
  </Event>
  <Event>
    <Absolute>5881</Absolute>
    <NoteOn Channel="3" Note="55" Velocity="49"/>
  </Event>
  <Event>
    <Absolute>5882</Absolute>
    <NoteOn Channel="3" Note="63" Velocity="38"/>
  </Event>
  <Event>
    <Absolute>5982</Absolute>
    <NoteOn Channel="3" Note="63" Velocity="0"/>
  </Event>
  <Event>
    <Absolute>5984</Absolute>
    <NoteOn Channel="3" Note="55" Velocity="0"/>
  </Event>
  <Event>
    <Absolute>6002</Absolute>
    <NoteOn Channel="3" Note="55" Velocity="51"/>
  </Event>
  <Event>
    <Absolute>6002</Absolute>
    <NoteOn Channel="3" Note="63" Velocity="50"/>
  </Event>
  <Event>
    <Absolute>6206</Absolute>
    <NoteOn Channel="3" Note="63" Velocity="0"/>
  </Event>
  <Event>
    <Absolute>6207</Absolute>
    <NoteOn Channel="3" Note="55" Velocity="0"/>
  </Event>
  <Event>
    <Absolute>6235</Absolute>
    <NoteOn Channel="3" Note="55" Velocity="50"/>
  </Event>
  <Event>
    <Absolute>6236</Absolute>
    <NoteOn Channel="3" Note="63" Velocity="54"/>
  </Event>
  <Event>
    <Absolute>6336</Absolute>
    <NoteOn Channel="3" Note="63" Velocity="0"/>
  </Event>
  <Event>
    <Absolute>6340</Absolute>
    <NoteOn Channel="3" Note="55" Velocity="0"/>
  </Event>
  <Event>
    <Absolute>6356</Absolute>
    <NoteOn Channel="3" Note="63" Velocity="56"/>
  </Event>
  <Event>
    <Absolute>6356</Absolute>
    <NoteOn Channel="3" Note="55" Velocity="54"/>
  </Event>
  <Event>
    <Absolute>6523</Absolute>
    <NoteOn Channel="3" Note="55" Velocity="0"/>
  </Event>
  <Event>
    <Absolute>6527</Absolute>
    <NoteOn Channel="3" Note="63" Velocity="0"/>
  </Event>
  <Event>
    <Absolute>6542</Absolute>
    <NoteOn Channel="3" Note="55" Velocity="65"/>
  </Event>
  <Event>
    <Absolute>6584</Absolute>
    <NoteOn Channel="3" Note="55" Velocity="0"/>
  </Event>
  <Event>
    <Absolute>6598</Absolute>
    <NoteOn Channel="3" Note="57" Velocity="63"/>
  </Event>
  <Event>
    <Absolute>6598</Absolute>
    <NoteOn Channel="3" Note="65" Velocity="66"/>
  </Event>
  <Event>
    <Absolute>6776</Absolute>
    <NoteOn Channel="3" Note="57" Velocity="0"/>
  </Event>
  <Event>
    <Absolute>6778</Absolute>
    <NoteOn Channel="3" Note="65" Velocity="0"/>
  </Event>
  <Event>
    <Absolute>6785</Absolute>
    <NoteOn Channel="3" Note="57" Velocity="68"/>
  </Event>
  <Event>
    <Absolute>6816</Absolute>
    <NoteOn Channel="3" Note="57" Velocity="0"/>
  </Event>
  <Event>
    <Absolute>6840</Absolute>
    <NoteOn Channel="3" Note="63" Velocity="71"/>
  </Event>
  <Event>
    <Absolute>6841</Absolute>
    <NoteOn Channel="3" Note="55" Velocity="71"/>
  </Event>
  <Event>
    <Absolute>6894</Absolute>
    <NoteOn Channel="3" Note="55" Velocity="0"/>
  </Event>
  <Event>
    <Absolute>6900</Absolute>
    <NoteOn Channel="3" Note="63" Velocity="0"/>
  </Event>
  <Event>
    <Absolute>6959</Absolute>
    <NoteOn Channel="3" Note="63" Velocity="75"/>
  </Event>
  <Event>
    <Absolute>6960</Absolute>
    <NoteOn Channel="3" Note="55" Velocity="75"/>
  </Event>
  <Event>
    <Absolute>7171</Absolute>
    <NoteOn Channel="3" Note="55" Velocity="0"/>
  </Event>
  <Event>
    <Absolute>7178</Absolute>
    <NoteOn Channel="3" Note="63" Velocity="0"/>
  </Event>
  <Event>
    <Absolute>7196</Absolute>
    <NoteOn Channel="3" Note="63" Velocity="79"/>
  </Event>
  <Event>
    <Absolute>7198</Absolute>
    <NoteOn Channel="3" Note="55" Velocity="81"/>
  </Event>
  <Event>
    <Absolute>7294</Absolute>
    <NoteOn Channel="3" Note="55" Velocity="0"/>
  </Event>
  <Event>
    <Absolute>7296</Absolute>
    <NoteOn Channel="3" Note="63" Velocity="0"/>
  </Event>
  <Event>
    <Absolute>7318</Absolute>
    <NoteOn Channel="3" Note="56" Velocity="83"/>
  </Event>
  <Event>
    <Absolute>7319</Absolute>
    <NoteOn Channel="3" Note="61" Velocity="83"/>
  </Event>
  <Event>
    <Absolute>7421</Absolute>
    <NoteOn Channel="3" Note="56" Velocity="0"/>
  </Event>
  <Event>
    <Absolute>7426</Absolute>
    <NoteOn Channel="3" Note="61" Velocity="0"/>
  </Event>
  <Event>
    <Absolute>7435</Absolute>
    <NoteOn Channel="3" Note="60" Velocity="86"/>
  </Event>
  <Event>
    <Absolute>7437</Absolute>
    <NoteOn Channel="3" Note="57" Velocity="86"/>
  </Event>
  <Event>
    <Absolute>7542</Absolute>
    <NoteOn Channel="3" Note="57" Velocity="0"/>
  </Event>
  <Event>
    <Absolute>7542</Absolute>
    <NoteOn Channel="3" Note="60" Velocity="0"/>
  </Event>
  <Event>
    <Absolute>7552</Absolute>
    <NoteOn Channel="3" Note="55" Velocity="88"/>
  </Event>
  <Event>
    <Absolute>7553</Absolute>
    <NoteOn Channel="3" Note="63" Velocity="88"/>
  </Event>
  <Event>
    <Absolute>7676</Absolute>
    <NoteOn Channel="3" Note="60" Velocity="92"/>
  </Event>
  <Event>
    <Absolute>7676</Absolute>
    <NoteOn Channel="3" Note="57" Velocity="92"/>
  </Event>
  <Event>
    <Absolute>7678</Absolute>
    <NoteOn Channel="3" Note="63" Velocity="0"/>
  </Event>
  <Event>
    <Absolute>7679</Absolute>
    <NoteOn Channel="3" Note="55" Velocity="0"/>
  </Event>
  <Event>
    <Absolute>7776</Absolute>
    <NoteOn Channel="3" Note="57" Velocity="0"/>
  </Event>
  <Event>
    <Absolute>7782</Absolute>
    <NoteOn Channel="3" Note="60" Velocity="0"/>
  </Event>
  <Event>
    <Absolute>7803</Absolute>
    <NoteOn Channel="3" Note="55" Velocity="95"/>
  </Event>
  <Event>
    <Absolute>7805</Absolute>
    <NoteOn Channel="3" Note="63" Velocity="95"/>
  </Event>
  <Event>
    <Absolute>7917</Absolute>
    <NoteOn Channel="3" Note="55" Velocity="0"/>
  </Event>
  <Event>
    <Absolute>7919</Absolute>
    <NoteOn Channel="3" Note="57" Velocity="98"/>
  </Event>
  <Event>
    <Absolute>7973</Absolute>
    <NoteOn Channel="3" Note="58" Velocity="99"/>
  </Event>
  <Event>
    <Absolute>7977</Absolute>
    <NoteOn Channel="3" Note="57" Velocity="0"/>
  </Event>
  <Event>
    <Absolute>8035</Absolute>
    <NoteOn Channel="3" Note="59" Velocity="100"/>
  </Event>
  <Event>
    <Absolute>8037</Absolute>
    <NoteOn Channel="3" Note="58" Velocity="0"/>
  </Event>
  <Event>
    <Absolute>8080</Absolute>
    <NoteOn Channel="3" Note="63" Velocity="0"/>
  </Event>
  <Event>
    <Absolute>8087</Absolute>
    <NoteOn Channel="3" Note="62" Velocity="101"/>
  </Event>
  <Event>
    <Absolute>8144</Absolute>
    <NoteOn Channel="3" Note="62" Velocity="0"/>
  </Event>
  <Event>
    <Absolute>8155</Absolute>
    <NoteOn Channel="3" Note="60" Velocity="103"/>
  </Event>
  <Event>
    <Absolute>8157</Absolute>
    <NoteOn Channel="3" Note="59" Velocity="0"/>
  </Event>
  <Event>
    <Absolute>8201</Absolute>
    <NoteOn Channel="3" Note="60" Velocity="0"/>
  </Event>
  <Event>
    <Absolute>8202</Absolute>
    <NoteOn Channel="3" Note="58" Velocity="104"/>
  </Event>
  <Event>
    <Absolute>8203</Absolute>
    <NoteOn Channel="3" Note="62" Velocity="104"/>
  </Event>
  <Event>
    <Absolute>8260</Absolute>
    <NoteOn Channel="3" Note="62" Velocity="0"/>
  </Event>
  <Event>
    <Absolute>8263</Absolute>
    <NoteOn Channel="3" Note="58" Velocity="0"/>
  </Event>
  <Event>
    <Absolute>8269</Absolute>
    <NoteOn Channel="3" Note="63" Velocity="104"/>
  </Event>
  <Event>
    <Absolute>8270</Absolute>
    <NoteOn Channel="3" Note="58" Velocity="104"/>
  </Event>
  <Event>
    <Absolute>8386</Absolute>
    <NoteOn Channel="3" Note="53" Velocity="104"/>
  </Event>
  <Event>
    <Absolute>8386</Absolute>
    <NoteOn Channel="3" Note="65" Velocity="104"/>
  </Event>
  <Event>
    <Absolute>8389</Absolute>
    <NoteOn Channel="3" Note="63" Velocity="0"/>
  </Event>
  <Event>
    <Absolute>8490</Absolute>
    <NoteOn Channel="3" Note="58" Velocity="0"/>
  </Event>
  <Event>
    <Absolute>8510</Absolute>
    <NoteOn Channel="3" Note="60" Velocity="104"/>
  </Event>
  <Event>
    <Absolute>8614</Absolute>
    <NoteOn Channel="3" Note="65" Velocity="0"/>
  </Event>
  <Event>
    <Absolute>8619</Absolute>
    <NoteOn Channel="3" Note="60" Velocity="0"/>
  </Event>
  <Event>
    <Absolute>8624</Absolute>
    <NoteOn Channel="3" Note="53" Velocity="0"/>
  </Event>
  <Event>
    <Absolute>8643</Absolute>
    <NoteOn Channel="3" Note="65" Velocity="103"/>
  </Event>
  <Event>
    <Absolute>8694</Absolute>
    <NoteOn Channel="3" Note="65" Velocity="0"/>
  </Event>
  <Event>
    <Absolute>8732</Absolute>
    <NoteOn Channel="3" Note="65" Velocity="103"/>
  </Event>
  <Event>
    <Absolute>8752</Absolute>
    <NoteOn Channel="3" Note="65" Velocity="0"/>
  </Event>
  <Event>
    <Absolute>8756</Absolute>
    <NoteOn Channel="3" Note="70" Velocity="103"/>
  </Event>
  <Event>
    <Absolute>8767</Absolute>
    <NoteOn Channel="3" Note="66" Velocity="103"/>
  </Event>
  <Event>
    <Absolute>8837</Absolute>
    <NoteOn Channel="3" Note="66" Velocity="0"/>
  </Event>
  <Event>
    <Absolute>8853</Absolute>
    <NoteOn Channel="3" Note="65" Velocity="103"/>
  </Event>
  <Event>
    <Absolute>8857</Absolute>
    <NoteOn Channel="3" Note="68" Velocity="103"/>
  </Event>
  <Event>
    <Absolute>8871</Absolute>
    <NoteOn Channel="3" Note="65" Velocity="0"/>
  </Event>
  <Event>
    <Absolute>8874</Absolute>
    <NoteOn Channel="3" Note="68" Velocity="0"/>
  </Event>
  <Event>
    <Absolute>8885</Absolute>
    <NoteOn Channel="3" Note="66" Velocity="103"/>
  </Event>
  <Event>
    <Absolute>8887</Absolute>
    <NoteOn Channel="3" Note="63" Velocity="103"/>
  </Event>
  <Event>
    <Absolute>8958</Absolute>
    <NoteOn Channel="3" Note="66" Velocity="0"/>
  </Event>
  <Event>
    <Absolute>8960</Absolute>
    <NoteOn Channel="3" Note="63" Velocity="0"/>
  </Event>
  <Event>
    <Absolute>8971</Absolute>
    <NoteOn Channel="3" Note="61" Velocity="103"/>
  </Event>
  <Event>
    <Absolute>8971</Absolute>
    <NoteOn Channel="3" Note="65" Velocity="103"/>
  </Event>
  <Event>
    <Absolute>8987</Absolute>
    <NoteOn Channel="3" Note="61" Velocity="0"/>
  </Event>
  <Event>
    <Absolute>8991</Absolute>
    <NoteOn Channel="3" Note="65" Velocity="0"/>
  </Event>
  <Event>
    <Absolute>9006</Absolute>
    <NoteOn Channel="3" Note="63" Velocity="103"/>
  </Event>
  <Event>
    <Absolute>9007</Absolute>
    <NoteOn Channel="3" Note="60" Velocity="103"/>
  </Event>
  <Event>
    <Absolute>9069</Absolute>
    <NoteOn Channel="3" Note="63" Velocity="0"/>
  </Event>
  <Event>
    <Absolute>9073</Absolute>
    <NoteOn Channel="3" Note="60" Velocity="0"/>
  </Event>
  <Event>
    <Absolute>9088</Absolute>
    <NoteOn Channel="3" Note="58" Velocity="103"/>
  </Event>
  <Event>
    <Absolute>9097</Absolute>
    <NoteOn Channel="3" Note="61" Velocity="103"/>
  </Event>
  <Event>
    <Absolute>9104</Absolute>
    <NoteOn Channel="3" Note="58" Velocity="0"/>
  </Event>
  <Event>
    <Absolute>9115</Absolute>
    <NoteOn Channel="3" Note="61" Velocity="0"/>
  </Event>
  <Event>
    <Absolute>9120</Absolute>
    <NoteOn Channel="3" Note="56" Velocity="103"/>
  </Event>
  <Event>
    <Absolute>9125</Absolute>
    <NoteOn Channel="3" Note="60" Velocity="103"/>
  </Event>
  <Event>
    <Absolute>9169</Absolute>
    <NoteOn Channel="3" Note="60" Velocity="0"/>
  </Event>
  <Event>
    <Absolute>9169</Absolute>
    <NoteOn Channel="3" Note="56" Velocity="0"/>
  </Event>
  <Event>
    <Absolute>9184</Absolute>
    <NoteOn Channel="3" Note="70" Velocity="0"/>
  </Event>
  <Event>
    <Absolute>9205</Absolute>
    <NoteOn Channel="3" Note="54" Velocity="103"/>
  </Event>
  <Event>
    <Absolute>9208</Absolute>
    <NoteOn Channel="3" Note="58" Velocity="103"/>
  </Event>
  <Event>
    <Absolute>9219</Absolute>
    <NoteOn Channel="3" Note="58" Velocity="0"/>
  </Event>
  <Event>
    <Absolute>9225</Absolute>
    <NoteOn Channel="3" Note="54" Velocity="0"/>
  </Event>
  <Event>
    <Absolute>12461</Absolute>
    <NoteOn Channel="3" Note="60" Velocity="121"/>
  </Event>
  <Event>
    <Absolute>12473</Absolute>
    <NoteOn Channel="3" Note="60" Velocity="0"/>
  </Event>
  <Event>
    <Absolute>12488</Absolute>
    <NoteOn Channel="3" Note="60" Velocity="112"/>
  </Event>
  <Event>
    <Absolute>12613</Absolute>
    <NoteOn Channel="3" Note="60" Velocity="0"/>
  </Event>
  <Event>
    <Absolute>12613</Absolute>
    <NoteOn Channel="3" Note="57" Velocity="127"/>
  </Event>
  <Event>
    <Absolute>12643</Absolute>
    <NoteOn Channel="3" Note="57" Velocity="0"/>
  </Event>
  <Event>
    <Absolute>12703</Absolute>
    <NoteOn Channel="3" Note="60" Velocity="112"/>
  </Event>
  <Event>
    <Absolute>12714</Absolute>
    <NoteOn Channel="3" Note="60" Velocity="0"/>
  </Event>
  <Event>
    <Absolute>12733</Absolute>
    <NoteOn Channel="3" Note="60" Velocity="118"/>
  </Event>
  <Event>
    <Absolute>12848</Absolute>
    <NoteOn Channel="3" Note="57" Velocity="126"/>
  </Event>
  <Event>
    <Absolute>12851</Absolute>
    <NoteOn Channel="3" Note="60" Velocity="0"/>
  </Event>
  <Event>
    <Absolute>12882</Absolute>
    <NoteOn Channel="3" Note="57" Velocity="0"/>
  </Event>
  <Event>
    <Absolute>12931</Absolute>
    <NoteOn Channel="3" Note="63" Velocity="112"/>
  </Event>
  <Event>
    <Absolute>12947</Absolute>
    <NoteOn Channel="3" Note="63" Velocity="0"/>
  </Event>
  <Event>
    <Absolute>12960</Absolute>
    <NoteOn Channel="3" Note="63" Velocity="96"/>
  </Event>
  <Event>
    <Absolute>13086</Absolute>
    <NoteOn Channel="3" Note="62" Velocity="107"/>
  </Event>
  <Event>
    <Absolute>13093</Absolute>
    <NoteOn Channel="3" Note="63" Velocity="0"/>
  </Event>
  <Event>
    <Absolute>13128</Absolute>
    <NoteOn Channel="3" Note="62" Velocity="0"/>
  </Event>
  <Event>
    <Absolute>13148</Absolute>
    <NoteOn Channel="3" Note="63" Velocity="101"/>
  </Event>
  <Event>
    <Absolute>13173</Absolute>
    <NoteOn Channel="3" Note="62" Velocity="102"/>
  </Event>
  <Event>
    <Absolute>13183</Absolute>
    <NoteOn Channel="3" Note="63" Velocity="0"/>
  </Event>
  <Event>
    <Absolute>13203</Absolute>
    <NoteOn Channel="3" Note="60" Velocity="121"/>
  </Event>
  <Event>
    <Absolute>13205</Absolute>
    <NoteOn Channel="3" Note="62" Velocity="0"/>
  </Event>
  <Event>
    <Absolute>13233</Absolute>
    <NoteOn Channel="3" Note="60" Velocity="0"/>
  </Event>
  <Event>
    <Absolute>13265</Absolute>
    <NoteOn Channel="3" Note="57" Velocity="124"/>
  </Event>
  <Event>
    <Absolute>13360</Absolute>
    <NoteOn Channel="3" Note="57" Velocity="0"/>
  </Event>
  <Event>
    <Absolute>13930</Absolute>
    <NoteOn Channel="3" Note="62" Velocity="43"/>
  </Event>
  <Event>
    <Absolute>13933</Absolute>
    <NoteOn Channel="3" Note="55" Velocity="126"/>
  </Event>
  <Event>
    <Absolute>14276</Absolute>
    <NoteOn Channel="3" Note="62" Velocity="0"/>
  </Event>
  <Event>
    <Absolute>14300</Absolute>
    <NoteOn Channel="3" Note="55" Velocity="0"/>
  </Event>
  <Event>
    <Absolute>16630</Absolute>
    <NoteOn Channel="3" Note="58" Velocity="108"/>
  </Event>
  <Event>
    <Absolute>16631</Absolute>
    <NoteOn Channel="3" Note="62" Velocity="127"/>
  </Event>
  <Event>
    <Absolute>16643</Absolute>
    <NoteOn Channel="3" Note="58" Velocity="0"/>
  </Event>
  <Event>
    <Absolute>16644</Absolute>
    <NoteOn Channel="3" Note="62" Velocity="0"/>
  </Event>
  <Event>
    <Absolute>16650</Absolute>
    <NoteOn Channel="3" Note="58" Velocity="103"/>
  </Event>
  <Event>
    <Absolute>16651</Absolute>
    <NoteOn Channel="3" Note="62" Velocity="127"/>
  </Event>
  <Event>
    <Absolute>16663</Absolute>
    <NoteOn Channel="3" Note="58" Velocity="0"/>
  </Event>
  <Event>
    <Absolute>16664</Absolute>
    <NoteOn Channel="3" Note="62" Velocity="0"/>
  </Event>
  <Event>
    <Absolute>16670</Absolute>
    <NoteOn Channel="3" Note="58" Velocity="114"/>
  </Event>
  <Event>
    <Absolute>16671</Absolute>
    <NoteOn Channel="3" Note="62" Velocity="127"/>
  </Event>
  <Event>
    <Absolute>16683</Absolute>
    <NoteOn Channel="3" Note="58" Velocity="0"/>
  </Event>
  <Event>
    <Absolute>16684</Absolute>
    <NoteOn Channel="3" Note="62" Velocity="0"/>
  </Event>
  <Event>
    <Absolute>16690</Absolute>
    <NoteOn Channel="3" Note="59" Velocity="108"/>
  </Event>
  <Event>
    <Absolute>16690</Absolute>
    <NoteOn Channel="3" Note="63" Velocity="127"/>
  </Event>
  <Event>
    <Absolute>16703</Absolute>
    <NoteOn Channel="3" Note="63" Velocity="0"/>
  </Event>
  <Event>
    <Absolute>16703</Absolute>
    <NoteOn Channel="3" Note="59" Velocity="0"/>
  </Event>
  <Event>
    <Absolute>16710</Absolute>
    <NoteOn Channel="3" Note="59" Velocity="114"/>
  </Event>
  <Event>
    <Absolute>16711</Absolute>
    <NoteOn Channel="3" Note="63" Velocity="127"/>
  </Event>
  <Event>
    <Absolute>16722</Absolute>
    <NoteOn Channel="3" Note="59" Velocity="0"/>
  </Event>
  <Event>
    <Absolute>16723</Absolute>
    <NoteOn Channel="3" Note="63" Velocity="0"/>
  </Event>
  <Event>
    <Absolute>16729</Absolute>
    <NoteOn Channel="3" Note="59" Velocity="127"/>
  </Event>
  <Event>
    <Absolute>16730</Absolute>
    <NoteOn Channel="3" Note="63" Velocity="127"/>
  </Event>
  <Event>
    <Absolute>16742</Absolute>
    <NoteOn Channel="3" Note="59" Velocity="0"/>
  </Event>
  <Event>
    <Absolute>16743</Absolute>
    <NoteOn Channel="3" Note="63" Velocity="0"/>
  </Event>
  <Event>
    <Absolute>16750</Absolute>
    <NoteOn Channel="3" Note="65" Velocity="127"/>
  </Event>
  <Event>
    <Absolute>16750</Absolute>
    <NoteOn Channel="3" Note="61" Velocity="108"/>
  </Event>
  <Event>
    <Absolute>16762</Absolute>
    <NoteOn Channel="3" Note="61" Velocity="0"/>
  </Event>
  <Event>
    <Absolute>16762</Absolute>
    <NoteOn Channel="3" Note="65" Velocity="0"/>
  </Event>
  <Event>
    <Absolute>16769</Absolute>
    <NoteOn Channel="3" Note="61" Velocity="108"/>
  </Event>
  <Event>
    <Absolute>16769</Absolute>
    <NoteOn Channel="3" Note="65" Velocity="127"/>
  </Event>
  <Event>
    <Absolute>16782</Absolute>
    <NoteOn Channel="3" Note="65" Velocity="0"/>
  </Event>
  <Event>
    <Absolute>16782</Absolute>
    <NoteOn Channel="3" Note="61" Velocity="0"/>
  </Event>
  <Event>
    <Absolute>16788</Absolute>
    <NoteOn Channel="3" Note="65" Velocity="127"/>
  </Event>
  <Event>
    <Absolute>16790</Absolute>
    <NoteOn Channel="3" Note="61" Velocity="108"/>
  </Event>
  <Event>
    <Absolute>16799</Absolute>
    <NoteOn Channel="3" Note="65" Velocity="0"/>
  </Event>
  <Event>
    <Absolute>16801</Absolute>
    <NoteOn Channel="3" Note="61" Velocity="0"/>
  </Event>
  <Event>
    <Absolute>20711</Absolute>
    <NoteOn Channel="3" Note="58" Velocity="93"/>
  </Event>
  <Event>
    <Absolute>20711</Absolute>
    <NoteOn Channel="3" Note="62" Velocity="127"/>
  </Event>
  <Event>
    <Absolute>20721</Absolute>
    <NoteOn Channel="3" Note="58" Velocity="0"/>
  </Event>
  <Event>
    <Absolute>20724</Absolute>
    <NoteOn Channel="3" Note="62" Velocity="0"/>
  </Event>
  <Event>
    <Absolute>20730</Absolute>
    <NoteOn Channel="3" Note="58" Velocity="109"/>
  </Event>
  <Event>
    <Absolute>20731</Absolute>
    <NoteOn Channel="3" Note="62" Velocity="127"/>
  </Event>
  <Event>
    <Absolute>20743</Absolute>
    <NoteOn Channel="3" Note="58" Velocity="0"/>
  </Event>
  <Event>
    <Absolute>20744</Absolute>
    <NoteOn Channel="3" Note="62" Velocity="0"/>
  </Event>
  <Event>
    <Absolute>20750</Absolute>
    <NoteOn Channel="3" Note="58" Velocity="112"/>
  </Event>
  <Event>
    <Absolute>20751</Absolute>
    <NoteOn Channel="3" Note="62" Velocity="127"/>
  </Event>
  <Event>
    <Absolute>20763</Absolute>
    <NoteOn Channel="3" Note="58" Velocity="0"/>
  </Event>
  <Event>
    <Absolute>20764</Absolute>
    <NoteOn Channel="3" Note="62" Velocity="0"/>
  </Event>
  <Event>
    <Absolute>20770</Absolute>
    <NoteOn Channel="3" Note="59" Velocity="114"/>
  </Event>
  <Event>
    <Absolute>20770</Absolute>
    <NoteOn Channel="3" Note="63" Velocity="127"/>
  </Event>
  <Event>
    <Absolute>20783</Absolute>
    <NoteOn Channel="3" Note="63" Velocity="0"/>
  </Event>
  <Event>
    <Absolute>20783</Absolute>
    <NoteOn Channel="3" Note="59" Velocity="0"/>
  </Event>
  <Event>
    <Absolute>20790</Absolute>
    <NoteOn Channel="3" Note="59" Velocity="117"/>
  </Event>
  <Event>
    <Absolute>20791</Absolute>
    <NoteOn Channel="3" Note="63" Velocity="127"/>
  </Event>
  <Event>
    <Absolute>20802</Absolute>
    <NoteOn Channel="3" Note="59" Velocity="0"/>
  </Event>
  <Event>
    <Absolute>20803</Absolute>
    <NoteOn Channel="3" Note="63" Velocity="0"/>
  </Event>
  <Event>
    <Absolute>20809</Absolute>
    <NoteOn Channel="3" Note="59" Velocity="119"/>
  </Event>
  <Event>
    <Absolute>20810</Absolute>
    <NoteOn Channel="3" Note="63" Velocity="127"/>
  </Event>
  <Event>
    <Absolute>20822</Absolute>
    <NoteOn Channel="3" Note="59" Velocity="0"/>
  </Event>
  <Event>
    <Absolute>20823</Absolute>
    <NoteOn Channel="3" Note="63" Velocity="0"/>
  </Event>
  <Event>
    <Absolute>20830</Absolute>
    <NoteOn Channel="3" Note="65" Velocity="127"/>
  </Event>
  <Event>
    <Absolute>20830</Absolute>
    <NoteOn Channel="3" Note="61" Velocity="121"/>
  </Event>
  <Event>
    <Absolute>20842</Absolute>
    <NoteOn Channel="3" Note="61" Velocity="0"/>
  </Event>
  <Event>
    <Absolute>20842</Absolute>
    <NoteOn Channel="3" Note="65" Velocity="0"/>
  </Event>
  <Event>
    <Absolute>20849</Absolute>
    <NoteOn Channel="3" Note="61" Velocity="123"/>
  </Event>
  <Event>
    <Absolute>20850</Absolute>
    <NoteOn Channel="3" Note="65" Velocity="127"/>
  </Event>
  <Event>
    <Absolute>20862</Absolute>
    <NoteOn Channel="3" Note="61" Velocity="0"/>
  </Event>
  <Event>
    <Absolute>20863</Absolute>
    <NoteOn Channel="3" Note="65" Velocity="0"/>
  </Event>
  <Event>
    <Absolute>20870</Absolute>
    <NoteOn Channel="3" Note="61" Velocity="126"/>
  </Event>
  <Event>
    <Absolute>20870</Absolute>
    <NoteOn Channel="3" Note="65" Velocity="127"/>
  </Event>
  <Event>
    <Absolute>20881</Absolute>
    <NoteOn Channel="3" Note="65" Velocity="0"/>
  </Event>
  <Event>
    <Absolute>20881</Absolute>
    <NoteOn Channel="3" Note="61" Velocity="0"/>
  </Event>
  <Event>
    <Absolute>26432</Absolute>
    <NoteOn Channel="3" Note="52" Velocity="88"/>
  </Event>
  <Event>
    <Absolute>26668</Absolute>
    <NoteOn Channel="3" Note="57" Velocity="99"/>
  </Event>
  <Event>
    <Absolute>26674</Absolute>
    <NoteOn Channel="3" Note="52" Velocity="0"/>
  </Event>
  <Event>
    <Absolute>27128</Absolute>
    <NoteOn Channel="3" Note="59" Velocity="112"/>
  </Event>
  <Event>
    <Absolute>27132</Absolute>
    <NoteOn Channel="3" Note="57" Velocity="0"/>
  </Event>
  <Event>
    <Absolute>27377</Absolute>
    <NoteOn Channel="3" Note="64" Velocity="76"/>
  </Event>
  <Event>
    <Absolute>27501</Absolute>
    <NoteOn Channel="3" Note="60" Velocity="99"/>
  </Event>
  <Event>
    <Absolute>27508</Absolute>
    <NoteOn Channel="3" Note="59" Velocity="0"/>
  </Event>
  <Event>
    <Absolute>27550</Absolute>
    <NoteOn Channel="3" Note="62" Velocity="88"/>
  </Event>
  <Event>
    <Absolute>27551</Absolute>
    <NoteOn Channel="3" Note="60" Velocity="0"/>
  </Event>
  <Event>
    <Absolute>27605</Absolute>
    <NoteOn Channel="3" Note="60" Velocity="99"/>
  </Event>
  <Event>
    <Absolute>27607</Absolute>
    <NoteOn Channel="3" Note="62" Velocity="0"/>
  </Event>
  <Event>
    <Absolute>27623</Absolute>
    <NoteOn Channel="3" Note="69" Velocity="85"/>
  </Event>
  <Event>
    <Absolute>27634</Absolute>
    <NoteOn Channel="3" Note="64" Velocity="0"/>
  </Event>
  <Event>
    <Absolute>28089</Absolute>
    <NoteOn Channel="3" Note="71" Velocity="72"/>
  </Event>
  <Event>
    <Absolute>28102</Absolute>
    <NoteOn Channel="3" Note="69" Velocity="0"/>
  </Event>
  <Event>
    <Absolute>28276</Absolute>
    <NoteOn Channel="3" Note="60" Velocity="0"/>
  </Event>
  <Event>
    <Absolute>28331</Absolute>
    <NoteOn Channel="3" Note="52" Velocity="127"/>
  </Event>
  <Event>
    <Absolute>28464</Absolute>
    <NoteOn Channel="3" Note="72" Velocity="68"/>
  </Event>
  <Event>
    <Absolute>28470</Absolute>
    <NoteOn Channel="3" Note="71" Velocity="0"/>
  </Event>
  <Event>
    <Absolute>28519</Absolute>
    <NoteOn Channel="3" Note="72" Velocity="0"/>
  </Event>
  <Event>
    <Absolute>28526</Absolute>
    <NoteOn Channel="3" Note="74" Velocity="83"/>
  </Event>
  <Event>
    <Absolute>28555</Absolute>
    <NoteOn Channel="3" Note="57" Velocity="108"/>
  </Event>
  <Event>
    <Absolute>28556</Absolute>
    <NoteOn Channel="3" Note="52" Velocity="0"/>
  </Event>
  <Event>
    <Absolute>28601</Absolute>
    <NoteOn Channel="3" Note="74" Velocity="0"/>
  </Event>
  <Event>
    <Absolute>28602</Absolute>
    <NoteOn Channel="3" Note="72" Velocity="67"/>
  </Event>
  <Event>
    <Absolute>28926</Absolute>
    <NoteOn Channel="3" Note="59" Velocity="87"/>
  </Event>
  <Event>
    <Absolute>28935</Absolute>
    <NoteOn Channel="3" Note="57" Velocity="0"/>
  </Event>
  <Event>
    <Absolute>28937</Absolute>
    <NoteOn Channel="3" Note="72" Velocity="0"/>
  </Event>
  <Event>
    <Absolute>28941</Absolute>
    <NoteOn Channel="3" Note="71" Velocity="73"/>
  </Event>
  <Event>
    <Absolute>29058</Absolute>
    <NoteOn Channel="3" Note="60" Velocity="100"/>
  </Event>
  <Event>
    <Absolute>29062</Absolute>
    <NoteOn Channel="3" Note="59" Velocity="0"/>
  </Event>
  <Event>
    <Absolute>29065</Absolute>
    <NoteOn Channel="3" Note="71" Velocity="0"/>
  </Event>
  <Event>
    <Absolute>29066</Absolute>
    <NoteOn Channel="3" Note="69" Velocity="63"/>
  </Event>
  <Event>
    <Absolute>29170</Absolute>
    <NoteOn Channel="3" Note="60" Velocity="0"/>
  </Event>
  <Event>
    <Absolute>29170</Absolute>
    <NoteOn Channel="3" Note="52" Velocity="100"/>
  </Event>
  <Event>
    <Absolute>29297</Absolute>
    <NoteOn Channel="3" Note="60" Velocity="87"/>
  </Event>
  <Event>
    <Absolute>29298</Absolute>
    <NoteOn Channel="3" Note="52" Velocity="0"/>
  </Event>
  <Event>
    <Absolute>29302</Absolute>
    <NoteOn Channel="3" Note="67" Velocity="39"/>
  </Event>
  <Event>
    <Absolute>29319</Absolute>
    <NoteOn Channel="3" Note="69" Velocity="0"/>
  </Event>
  <Event>
    <Absolute>29375</Absolute>
    <NoteOn Channel="3" Note="57" Velocity="100"/>
  </Event>
  <Event>
    <Absolute>29380</Absolute>
    <NoteOn Channel="3" Note="60" Velocity="0"/>
  </Event>
  <Event>
    <Absolute>29456</Absolute>
    <NoteOn Channel="3" Note="57" Velocity="0"/>
  </Event>
  <Event>
    <Absolute>29456</Absolute>
    <NoteOn Channel="3" Note="64" Velocity="100"/>
  </Event>
  <Event>
    <Absolute>29531</Absolute>
    <NoteOn Channel="3" Note="62" Velocity="113"/>
  </Event>
  <Event>
    <Absolute>29536</Absolute>
    <NoteOn Channel="3" Note="64" Velocity="0"/>
  </Event>
  <Event>
    <Absolute>29538</Absolute>
    <NoteOn Channel="3" Note="67" Velocity="0"/>
  </Event>
  <Event>
    <Absolute>29540</Absolute>
    <NoteOn Channel="3" Note="66" Velocity="39"/>
  </Event>
  <Event>
    <Absolute>30101</Absolute>
    <NoteOn Channel="3" Note="66" Velocity="0"/>
  </Event>
  <Event>
    <Absolute>30528</Absolute>
    <NoteOn Channel="3" Note="62" Velocity="0"/>
  </Event>
  <Event>
    <Absolute>31215</Absolute>
    <NoteOn Channel="3" Note="69" Velocity="121"/>
  </Event>
  <Event>
    <Absolute>31310</Absolute>
    <NoteOn Channel="3" Note="69" Velocity="0"/>
  </Event>
  <Event>
    <Absolute>31400</Absolute>
    <NoteOn Channel="3" Note="69" Velocity="86"/>
  </Event>
  <Event>
    <Absolute>31428</Absolute>
    <NoteOn Channel="3" Note="69" Velocity="0"/>
  </Event>
  <Event>
    <Absolute>31456</Absolute>
    <NoteOn Channel="3" Note="69" Velocity="114"/>
  </Event>
  <Event>
    <Absolute>31964</Absolute>
    <NoteOn Channel="3" Note="69" Velocity="0"/>
  </Event>
  <Event>
    <Absolute>32166</Absolute>
    <NoteOn Channel="3" Note="65" Velocity="91"/>
  </Event>
  <Event>
    <Absolute>32319</Absolute>
    <NoteOn Channel="3" Note="65" Velocity="0"/>
  </Event>
  <Event>
    <Absolute>32340</Absolute>
    <NoteOn Channel="3" Note="70" Velocity="91"/>
  </Event>
  <Event>
    <Absolute>32385</Absolute>
    <NoteOn Channel="3" Note="70" Velocity="0"/>
  </Event>
  <Event>
    <Absolute>32410</Absolute>
    <NoteOn Channel="3" Note="69" Velocity="101"/>
  </Event>
  <Event>
    <Absolute>32640</Absolute>
    <NoteOn Channel="3" Note="69" Velocity="0"/>
  </Event>
  <Event>
    <Absolute>32651</Absolute>
    <NoteOn Channel="3" Note="65" Velocity="101"/>
  </Event>
  <Event>
    <Absolute>32823</Absolute>
    <NoteOn Channel="3" Note="65" Velocity="0"/>
  </Event>
  <Event>
    <Absolute>32840</Absolute>
    <NoteOn Channel="3" Note="70" Velocity="111"/>
  </Event>
  <Event>
    <Absolute>32875</Absolute>
    <NoteOn Channel="3" Note="70" Velocity="0"/>
  </Event>
  <Event>
    <Absolute>32895</Absolute>
    <NoteOn Channel="3" Note="69" Velocity="91"/>
  </Event>
  <Event>
    <Absolute>33080</Absolute>
    <NoteOn Channel="3" Note="69" Velocity="0"/>
  </Event>
  <Event>
    <Absolute>33134</Absolute>
    <NoteOn Channel="3" Note="69" Velocity="120"/>
  </Event>
  <Event>
    <Absolute>33222</Absolute>
    <NoteOn Channel="3" Note="69" Velocity="0"/>
  </Event>
  <Event>
    <Absolute>33314</Absolute>
    <NoteOn Channel="3" Note="69" Velocity="109"/>
  </Event>
  <Event>
    <Absolute>33342</Absolute>
    <NoteOn Channel="3" Note="69" Velocity="0"/>
  </Event>
  <Event>
    <Absolute>33381</Absolute>
    <NoteOn Channel="3" Note="69" Velocity="99"/>
  </Event>
  <Event>
    <Absolute>34074</Absolute>
    <NoteOn Channel="3" Note="69" Velocity="0"/>
  </Event>
  <Event>
    <Absolute>34094</Absolute>
    <NoteOn Channel="3" Note="66" Velocity="96"/>
  </Event>
  <Event>
    <Absolute>34324</Absolute>
    <NoteOn Channel="3" Note="66" Velocity="0"/>
  </Event>
  <Event>
    <Absolute>34335</Absolute>
    <NoteOn Channel="3" Note="62" Velocity="108"/>
  </Event>
  <Event>
    <Absolute>34550</Absolute>
    <ControlChange Channel="3" Control="18" Value="63"/>
  </Event>
  <Event>
    <Absolute>35044</Absolute>
    <NoteOn Channel="3" Note="62" Velocity="0"/>
  </Event>
  <Event>
    <Absolute>35050</Absolute>
    <NoteOn Channel="3" Note="60" Velocity="96"/>
  </Event>
  <Event>
    <Absolute>35065</Absolute>
    <NoteOn Channel="3" Note="60" Velocity="0"/>
  </Event>
  <Event>
    <Absolute>35090</Absolute>
    <NoteOn Channel="3" Note="58" Velocity="105"/>
  </Event>
  <Event>
    <Absolute>35106</Absolute>
    <NoteOn Channel="3" Note="58" Velocity="0"/>
  </Event>
  <Event>
    <Absolute>35130</Absolute>
    <NoteOn Channel="3" Note="57" Velocity="80"/>
  </Event>
  <Event>
    <Absolute>35149</Absolute>
    <NoteOn Channel="3" Note="57" Velocity="0"/>
  </Event>
  <Event>
    <Absolute>35165</Absolute>
    <NoteOn Channel="3" Note="67" Velocity="96"/>
  </Event>
  <Event>
    <Absolute>35396</Absolute>
    <NoteOn Channel="3" Note="67" Velocity="0"/>
  </Event>
  <Event>
    <Absolute>35410</Absolute>
    <NoteOn Channel="3" Note="62" Velocity="98"/>
  </Event>
  <Event>
    <Absolute>35756</Absolute>
    <NoteOn Channel="3" Note="62" Velocity="0"/>
  </Event>
  <Event>
    <Absolute>35770</Absolute>
    <NoteOn Channel="3" Note="60" Velocity="98"/>
  </Event>
  <Event>
    <Absolute>35803</Absolute>
    <NoteOn Channel="3" Note="60" Velocity="0"/>
  </Event>
  <Event>
    <Absolute>35810</Absolute>
    <NoteOn Channel="3" Note="58" Velocity="92"/>
  </Event>
  <Event>
    <Absolute>35845</Absolute>
    <NoteOn Channel="3" Note="58" Velocity="0"/>
  </Event>
  <Event>
    <Absolute>35850</Absolute>
    <NoteOn Channel="3" Note="57" Velocity="83"/>
  </Event>
  <Event>
    <Absolute>35884</Absolute>
    <NoteOn Channel="3" Note="57" Velocity="0"/>
  </Event>
  <Event>
    <Absolute>35890</Absolute>
    <NoteOn Channel="3" Note="67" Velocity="92"/>
  </Event>
  <Event>
    <Absolute>36130</Absolute>
    <NoteOn Channel="3" Note="62" Velocity="98"/>
  </Event>
  <Event>
    <Absolute>36131</Absolute>
    <NoteOn Channel="3" Note="67" Velocity="0"/>
  </Event>
  <Event>
    <Absolute>36490</Absolute>
    <NoteOn Channel="3" Note="60" Velocity="89"/>
  </Event>
  <Event>
    <Absolute>36495</Absolute>
    <NoteOn Channel="3" Note="62" Velocity="0"/>
  </Event>
  <Event>
    <Absolute>36815</Absolute>
    <NoteOn Channel="3" Note="60" Velocity="0"/>
  </Event>
  <Event>
    <Absolute>36850</Absolute>
    <NoteOn Channel="3" Note="53" Velocity="116"/>
  </Event>
  <Event>
    <Absolute>36887</Absolute>
    <NoteOn Channel="3" Note="53" Velocity="0"/>
  </Event>
  <Event>
    <Absolute>36970</Absolute>
    <NoteOn Channel="3" Note="53" Velocity="101"/>
  </Event>
  <Event>
    <Absolute>37175</Absolute>
    <NoteOn Channel="3" Note="53" Velocity="0"/>
  </Event>
  <Event>
    <Absolute>37210</Absolute>
    <NoteOn Channel="3" Note="55" Velocity="106"/>
  </Event>
  <Event>
    <Absolute>37255</Absolute>
    <NoteOn Channel="3" Note="55" Velocity="0"/>
  </Event>
  <Event>
    <Absolute>37330</Absolute>
    <NoteOn Channel="3" Note="53" Velocity="105"/>
  </Event>
  <Event>
    <Absolute>37373</Absolute>
    <NoteOn Channel="3" Note="53" Velocity="0"/>
  </Event>
  <Event>
    <Absolute>37450</Absolute>
    <NoteOn Channel="3" Note="53" Velocity="101"/>
  </Event>
  <Event>
    <Absolute>37654</Absolute>
    <NoteOn Channel="3" Note="53" Velocity="0"/>
  </Event>
  <Event>
    <Absolute>37690</Absolute>
    <NoteOn Channel="3" Note="55" Velocity="99"/>
  </Event>
  <Event>
    <Absolute>37763</Absolute>
    <NoteOn Channel="3" Note="55" Velocity="0"/>
  </Event>
  <Event>
    <Absolute>37810</Absolute>
    <NoteOn Channel="3" Note="53" Velocity="109"/>
  </Event>
  <Event>
    <Absolute>37862</Absolute>
    <NoteOn Channel="3" Note="53" Velocity="0"/>
  </Event>
  <Event>
    <Absolute>37930</Absolute>
    <NoteOn Channel="3" Note="53" Velocity="106"/>
  </Event>
  <Event>
    <Absolute>38114</Absolute>
    <NoteOn Channel="3" Note="53" Velocity="0"/>
  </Event>
  <Event>
    <Absolute>38170</Absolute>
    <NoteOn Channel="3" Note="51" Velocity="106"/>
  </Event>
  <Event>
    <Absolute>38235</Absolute>
    <NoteOn Channel="3" Note="51" Velocity="0"/>
  </Event>
  <Event>
    <Absolute>38290</Absolute>
    <NoteOn Channel="3" Note="53" Velocity="109"/>
  </Event>
  <Event>
    <Absolute>38339</Absolute>
    <NoteOn Channel="3" Note="53" Velocity="0"/>
  </Event>
  <Event>
    <Absolute>38410</Absolute>
    <NoteOn Channel="3" Note="53" Velocity="110"/>
  </Event>
  <Event>
    <Absolute>38619</Absolute>
    <NoteOn Channel="3" Note="53" Velocity="0"/>
  </Event>
  <Event>
    <Absolute>38650</Absolute>
    <NoteOn Channel="3" Note="51" Velocity="111"/>
  </Event>
  <Event>
    <Absolute>38710</Absolute>
    <NoteOn Channel="3" Note="51" Velocity="0"/>
  </Event>
  <Event>
    <Absolute>42647</Absolute>
    <NoteOn Channel="3" Note="68" Velocity="127"/>
  </Event>
  <Event>
    <Absolute>42653</Absolute>
    <NoteOn Channel="3" Note="60" Velocity="127"/>
  </Event>
  <Event>
    <Absolute>42675</Absolute>
    <NoteOn Channel="3" Note="68" Velocity="0"/>
  </Event>
  <Event>
    <Absolute>42677</Absolute>
    <NoteOn Channel="3" Note="60" Velocity="0"/>
  </Event>
  <Event>
    <Absolute>42688</Absolute>
    <NoteOn Channel="3" Note="70" Velocity="127"/>
  </Event>
  <Event>
    <Absolute>42688</Absolute>
    <NoteOn Channel="3" Note="63" Velocity="127"/>
  </Event>
  <Event>
    <Absolute>42713</Absolute>
    <NoteOn Channel="3" Note="70" Velocity="0"/>
  </Event>
  <Event>
    <Absolute>42714</Absolute>
    <NoteOn Channel="3" Note="63" Velocity="0"/>
  </Event>
  <Event>
    <Absolute>42729</Absolute>
    <NoteOn Channel="3" Note="68" Velocity="127"/>
  </Event>
  <Event>
    <Absolute>42731</Absolute>
    <NoteOn Channel="3" Note="77" Velocity="127"/>
  </Event>
  <Event>
    <Absolute>42770</Absolute>
    <NoteOn Channel="3" Note="68" Velocity="0"/>
  </Event>
  <Event>
    <Absolute>42795</Absolute>
    <NoteOn Channel="3" Note="77" Velocity="0"/>
  </Event>
  <Event>
    <Absolute>42810</Absolute>
    <NoteOn Channel="3" Note="68" Velocity="127"/>
  </Event>
  <Event>
    <Absolute>42813</Absolute>
    <NoteOn Channel="3" Note="60" Velocity="127"/>
  </Event>
  <Event>
    <Absolute>42819</Absolute>
    <NoteOn Channel="3" Note="68" Velocity="0"/>
  </Event>
  <Event>
    <Absolute>42821</Absolute>
    <NoteOn Channel="3" Note="70" Velocity="127"/>
  </Event>
  <Event>
    <Absolute>42825</Absolute>
    <NoteOn Channel="3" Note="63" Velocity="127"/>
  </Event>
  <Event>
    <Absolute>42826</Absolute>
    <NoteOn Channel="3" Note="60" Velocity="0"/>
  </Event>
  <Event>
    <Absolute>42842</Absolute>
    <NoteOn Channel="3" Note="77" Velocity="127"/>
  </Event>
  <Event>
    <Absolute>42843</Absolute>
    <NoteOn Channel="3" Note="70" Velocity="0"/>
  </Event>
  <Event>
    <Absolute>42852</Absolute>
    <NoteOn Channel="3" Note="68" Velocity="127"/>
  </Event>
  <Event>
    <Absolute>42862</Absolute>
    <NoteOn Channel="3" Note="63" Velocity="0"/>
  </Event>
  <Event>
    <Absolute>42980</Absolute>
    <NoteOn Channel="3" Note="68" Velocity="0"/>
  </Event>
  <Event>
    <Absolute>43075</Absolute>
    <NoteOn Channel="3" Note="77" Velocity="0"/>
  </Event>
  <Event>
    <Absolute>43690</Absolute>
    <NoteOn Channel="3" Note="67" Velocity="127"/>
  </Event>
  <Event>
    <Absolute>43775</Absolute>
    <NoteOn Channel="3" Note="67" Velocity="0"/>
  </Event>
  <Event>
    <Absolute>43810</Absolute>
    <NoteOn Channel="3" Note="74" Velocity="127"/>
  </Event>
  <Event>
    <Absolute>43900</Absolute>
    <NoteOn Channel="3" Note="74" Velocity="0"/>
  </Event>
  <Event>
    <Absolute>43930</Absolute>
    <NoteOn Channel="3" Note="72" Velocity="127"/>
  </Event>
  <Event>
    <Absolute>43948</Absolute>
    <NoteOn Channel="3" Note="72" Velocity="0"/>
  </Event>
  <Event>
    <Absolute>43970</Absolute>
    <NoteOn Channel="3" Note="71" Velocity="127"/>
  </Event>
  <Event>
    <Absolute>43993</Absolute>
    <NoteOn Channel="3" Note="71" Velocity="0"/>
  </Event>
  <Event>
    <Absolute>44010</Absolute>
    <NoteOn Channel="3" Note="69" Velocity="127"/>
  </Event>
  <Event>
    <Absolute>44032</Absolute>
    <NoteOn Channel="3" Note="69" Velocity="0"/>
  </Event>
  <Event>
    <Absolute>44064</Absolute>
    <NoteOn Channel="3" Note="72" Velocity="127"/>
  </Event>
  <Event>
    <Absolute>44995</Absolute>
    <NoteOn Channel="3" Note="72" Velocity="0"/>
  </Event>
  <Event>
    <Absolute>45130</Absolute>
    <NoteOn Channel="3" Note="62" Velocity="127"/>
  </Event>
  <Event>
    <Absolute>45139</Absolute>
    <NoteOn Channel="3" Note="62" Velocity="0"/>
  </Event>
  <Event>
    <Absolute>45170</Absolute>
    <NoteOn Channel="3" Note="62" Velocity="127"/>
  </Event>
  <Event>
    <Absolute>45180</Absolute>
    <NoteOn Channel="3" Note="62" Velocity="0"/>
  </Event>
  <Event>
    <Absolute>45210</Absolute>
    <NoteOn Channel="3" Note="62" Velocity="127"/>
  </Event>
  <Event>
    <Absolute>45221</Absolute>
    <NoteOn Channel="3" Note="62" Velocity="0"/>
  </Event>
  <Event>
    <Absolute>45250</Absolute>
    <NoteOn Channel="3" Note="62" Velocity="127"/>
  </Event>
  <Event>
    <Absolute>45306</Absolute>
    <NoteOn Channel="3" Note="62" Velocity="0"/>
  </Event>
  <Event>
    <Absolute>45306</Absolute>
    <EndOfTrack/>
  </Event>
</Track>
<Track Number="4">
  <Event>
    <Absolute>0</Absolute>
    <MIDIChannelPrefix Value="01"/>
  </Event>
  <Event>
    <Absolute>0</Absolute>
    <ProgramChange Channel="4" Number="56"/>
  </Event>
  <Event>
    <Absolute>0</Absolute>
    <ControlChange Channel="4" Control="7" Value="126"/>
  </Event>
  <Event>
    <Absolute>0</Absolute>
    <ControlChange Channel="4" Control="10" Value="64"/>
  </Event>
  <Event>
    <Absolute>7</Absolute>
    <ControlChange Channel="4" Control="18" Value="64"/>
  </Event>
  <Event>
    <Absolute>1015</Absolute>
    <NoteOn Channel="4" Note="70" Velocity="114"/>
  </Event>
  <Event>
    <Absolute>1025</Absolute>
    <NoteOn Channel="4" Note="70" Velocity="0"/>
  </Event>
  <Event>
    <Absolute>1030</Absolute>
    <NoteOn Channel="4" Note="70" Velocity="114"/>
  </Event>
  <Event>
    <Absolute>1040</Absolute>
    <NoteOn Channel="4" Note="70" Velocity="0"/>
  </Event>
  <Event>
    <Absolute>1045</Absolute>
    <NoteOn Channel="4" Note="70" Velocity="114"/>
  </Event>
  <Event>
    <Absolute>1054</Absolute>
    <NoteOn Channel="4" Note="70" Velocity="0"/>
  </Event>
  <Event>
    <Absolute>1060</Absolute>
    <NoteOn Channel="4" Note="70" Velocity="114"/>
  </Event>
  <Event>
    <Absolute>1073</Absolute>
    <NoteOn Channel="4" Note="70" Velocity="0"/>
  </Event>
  <Event>
    <Absolute>1076</Absolute>
    <NoteOn Channel="4" Note="70" Velocity="114"/>
  </Event>
  <Event>
    <Absolute>1094</Absolute>
    <NoteOn Channel="4" Note="70" Velocity="0"/>
  </Event>
  <Event>
    <Absolute>1115</Absolute>
    <NoteOn Channel="4" Note="65" Velocity="114"/>
  </Event>
  <Event>
    <Absolute>1128</Absolute>
    <NoteOn Channel="4" Note="65" Velocity="0"/>
  </Event>
  <Event>
    <Absolute>1153</Absolute>
    <NoteOn Channel="4" Note="75" Velocity="114"/>
  </Event>
  <Event>
    <Absolute>1166</Absolute>
    <NoteOn Channel="4" Note="75" Velocity="0"/>
  </Event>
  <Event>
    <Absolute>1196</Absolute>
    <NoteOn Channel="4" Note="77" Velocity="114"/>
  </Event>
  <Event>
    <Absolute>1211</Absolute>
    <NoteOn Channel="4" Note="77" Velocity="0"/>
  </Event>
  <Event>
    <Absolute>1236</Absolute>
    <NoteOn Channel="4" Note="75" Velocity="114"/>
  </Event>
  <Event>
    <Absolute>1249</Absolute>
    <NoteOn Channel="4" Note="75" Velocity="0"/>
  </Event>
  <Event>
    <Absolute>1274</Absolute>
    <NoteOn Channel="4" Note="70" Velocity="114"/>
  </Event>
  <Event>
    <Absolute>1290</Absolute>
    <NoteOn Channel="4" Note="70" Velocity="0"/>
  </Event>
  <Event>
    <Absolute>1317</Absolute>
    <NoteOn Channel="4" Note="70" Velocity="114"/>
  </Event>
  <Event>
    <Absolute>1333</Absolute>
    <NoteOn Channel="4" Note="70" Velocity="0"/>
  </Event>
  <Event>
    <Absolute>1355</Absolute>
    <NoteOn Channel="4" Note="65" Velocity="114"/>
  </Event>
  <Event>
    <Absolute>1370</Absolute>
    <NoteOn Channel="4" Note="65" Velocity="0"/>
  </Event>
  <Event>
    <Absolute>1395</Absolute>
    <NoteOn Channel="4" Note="75" Velocity="114"/>
  </Event>
  <Event>
    <Absolute>1406</Absolute>
    <NoteOn Channel="4" Note="75" Velocity="0"/>
  </Event>
  <Event>
    <Absolute>1438</Absolute>
    <NoteOn Channel="4" Note="77" Velocity="114"/>
  </Event>
  <Event>
    <Absolute>1452</Absolute>
    <NoteOn Channel="4" Note="77" Velocity="0"/>
  </Event>
  <Event>
    <Absolute>1478</Absolute>
    <NoteOn Channel="4" Note="75" Velocity="114"/>
  </Event>
  <Event>
    <Absolute>1489</Absolute>
    <NoteOn Channel="4" Note="75" Velocity="0"/>
  </Event>
  <Event>
    <Absolute>1515</Absolute>
    <NoteOn Channel="4" Note="70" Velocity="114"/>
  </Event>
  <Event>
    <Absolute>1528</Absolute>
    <NoteOn Channel="4" Note="70" Velocity="0"/>
  </Event>
  <Event>
    <Absolute>1557</Absolute>
    <NoteOn Channel="4" Note="70" Velocity="114"/>
  </Event>
  <Event>
    <Absolute>1572</Absolute>
    <NoteOn Channel="4" Note="70" Velocity="0"/>
  </Event>
  <Event>
    <Absolute>1597</Absolute>
    <NoteOn Channel="4" Note="65" Velocity="114"/>
  </Event>
  <Event>
    <Absolute>1613</Absolute>
    <NoteOn Channel="4" Note="65" Velocity="0"/>
  </Event>
  <Event>
    <Absolute>1638</Absolute>
    <NoteOn Channel="4" Note="75" Velocity="114"/>
  </Event>
  <Event>
    <Absolute>1652</Absolute>
    <NoteOn Channel="4" Note="75" Velocity="0"/>
  </Event>
  <Event>
    <Absolute>1680</Absolute>
    <NoteOn Channel="4" Note="77" Velocity="114"/>
  </Event>
  <Event>
    <Absolute>1694</Absolute>
    <NoteOn Channel="4" Note="77" Velocity="0"/>
  </Event>
  <Event>
    <Absolute>1725</Absolute>
    <NoteOn Channel="4" Note="70" Velocity="114"/>
  </Event>
  <Event>
    <Absolute>1738</Absolute>
    <NoteOn Channel="4" Note="70" Velocity="0"/>
  </Event>
  <Event>
    <Absolute>1741</Absolute>
    <NoteOn Channel="4" Note="70" Velocity="114"/>
  </Event>
  <Event>
    <Absolute>1759</Absolute>
    <NoteOn Channel="4" Note="70" Velocity="0"/>
  </Event>
  <Event>
    <Absolute>1772</Absolute>
    <NoteOn Channel="4" Note="70" Velocity="114"/>
  </Event>
  <Event>
    <Absolute>1790</Absolute>
    <NoteOn Channel="4" Note="70" Velocity="0"/>
  </Event>
  <Event>
    <Absolute>1830</Absolute>
    <NoteOn Channel="4" Note="65" Velocity="113"/>
  </Event>
  <Event>
    <Absolute>1831</Absolute>
    <NoteOn Channel="4" Note="57" Velocity="113"/>
  </Event>
  <Event>
    <Absolute>1837</Absolute>
    <NoteOn Channel="4" Note="65" Velocity="113"/>
  </Event>
  <Event>
    <Absolute>1844</Absolute>
    <NoteOn Channel="4" Note="65" Velocity="0"/>
  </Event>
  <Event>
    <Absolute>1845</Absolute>
    <NoteOn Channel="4" Note="65" Velocity="0"/>
  </Event>
  <Event>
    <Absolute>1867</Absolute>
    <NoteOn Channel="4" Note="57" Velocity="0"/>
  </Event>
  <Event>
    <Absolute>1893</Absolute>
    <NoteOn Channel="4" Note="65" Velocity="113"/>
  </Event>
  <Event>
    <Absolute>1905</Absolute>
    <NoteOn Channel="4" Note="65" Velocity="113"/>
  </Event>
  <Event>
    <Absolute>1915</Absolute>
    <NoteOn Channel="4" Note="65" Velocity="0"/>
  </Event>
  <Event>
    <Absolute>1916</Absolute>
    <NoteOn Channel="4" Note="65" Velocity="0"/>
  </Event>
  <Event>
    <Absolute>1921</Absolute>
    <ControlChange Channel="4" Control="7" Value="124"/>
  </Event>
  <Event>
    <Absolute>1957</Absolute>
    <NoteOn Channel="4" Note="65" Velocity="113"/>
  </Event>
  <Event>
    <Absolute>1968</Absolute>
    <NoteOn Channel="4" Note="65" Velocity="113"/>
  </Event>
  <Event>
    <Absolute>1979</Absolute>
    <NoteOn Channel="4" Note="65" Velocity="0"/>
  </Event>
  <Event>
    <Absolute>1979</Absolute>
    <NoteOn Channel="4" Note="65" Velocity="0"/>
  </Event>
  <Event>
    <Absolute>2042</Absolute>
    <NoteOn Channel="4" Note="70" Velocity="113"/>
  </Event>
  <Event>
    <Absolute>2259</Absolute>
    <NoteOn Channel="4" Note="70" Velocity="0"/>
  </Event>
  <Event>
    <Absolute>2282</Absolute>
    <NoteOn Channel="4" Note="77" Velocity="113"/>
  </Event>
  <Event>
    <Absolute>2490</Absolute>
    <NoteOn Channel="4" Note="77" Velocity="0"/>
  </Event>
  <Event>
    <Absolute>2521</Absolute>
    <NoteOn Channel="4" Note="75" Velocity="113"/>
  </Event>
  <Event>
    <Absolute>2537</Absolute>
    <NoteOn Channel="4" Note="75" Velocity="0"/>
  </Event>
  <Event>
    <Absolute>2556</Absolute>
    <NoteOn Channel="4" Note="74" Velocity="113"/>
  </Event>
  <Event>
    <Absolute>2569</Absolute>
    <NoteOn Channel="4" Note="74" Velocity="0"/>
  </Event>
  <Event>
    <Absolute>2596</Absolute>
    <NoteOn Channel="4" Note="72" Velocity="113"/>
  </Event>
  <Event>
    <Absolute>2612</Absolute>
    <NoteOn Channel="4" Note="72" Velocity="0"/>
  </Event>
  <Event>
    <Absolute>2642</Absolute>
    <NoteOn Channel="4" Note="82" Velocity="113"/>
  </Event>
  <Event>
    <Absolute>2852</Absolute>
    <NoteOn Channel="4" Note="82" Velocity="0"/>
  </Event>
  <Event>
    <Absolute>2881</Absolute>
    <NoteOn Channel="4" Note="77" Velocity="113"/>
  </Event>
  <Event>
    <Absolute>2969</Absolute>
    <NoteOn Channel="4" Note="77" Velocity="0"/>
  </Event>
  <Event>
    <Absolute>2996</Absolute>
    <NoteOn Channel="4" Note="75" Velocity="113"/>
  </Event>
  <Event>
    <Absolute>3014</Absolute>
    <NoteOn Channel="4" Note="75" Velocity="0"/>
  </Event>
  <Event>
    <Absolute>3031</Absolute>
    <NoteOn Channel="4" Note="74" Velocity="113"/>
  </Event>
  <Event>
    <Absolute>3044</Absolute>
    <NoteOn Channel="4" Note="74" Velocity="0"/>
  </Event>
  <Event>
    <Absolute>3072</Absolute>
    <NoteOn Channel="4" Note="72" Velocity="113"/>
  </Event>
  <Event>
    <Absolute>3089</Absolute>
    <NoteOn Channel="4" Note="72" Velocity="0"/>
  </Event>
  <Event>
    <Absolute>3120</Absolute>
    <NoteOn Channel="4" Note="82" Velocity="113"/>
  </Event>
  <Event>
    <Absolute>3340</Absolute>
    <NoteOn Channel="4" Note="82" Velocity="0"/>
  </Event>
  <Event>
    <Absolute>3365</Absolute>
    <NoteOn Channel="4" Note="77" Velocity="113"/>
  </Event>
  <Event>
    <Absolute>3435</Absolute>
    <NoteOn Channel="4" Note="77" Velocity="0"/>
  </Event>
  <Event>
    <Absolute>3483</Absolute>
    <NoteOn Channel="4" Note="75" Velocity="114"/>
  </Event>
  <Event>
    <Absolute>3497</Absolute>
    <NoteOn Channel="4" Note="75" Velocity="0"/>
  </Event>
  <Event>
    <Absolute>3518</Absolute>
    <NoteOn Channel="4" Note="74" Velocity="114"/>
  </Event>
  <Event>
    <Absolute>3533</Absolute>
    <NoteOn Channel="4" Note="74" Velocity="0"/>
  </Event>
  <Event>
    <Absolute>3558</Absolute>
    <NoteOn Channel="4" Note="75" Velocity="114"/>
  </Event>
  <Event>
    <Absolute>3572</Absolute>
    <NoteOn Channel="4" Note="75" Velocity="0"/>
  </Event>
  <Event>
    <Absolute>3599</Absolute>
    <NoteOn Channel="4" Note="72" Velocity="114"/>
  </Event>
  <Event>
    <Absolute>3849</Absolute>
    <NoteOn Channel="4" Note="72" Velocity="0"/>
  </Event>
  <Event>
    <Absolute>3896</Absolute>
    <NoteOn Channel="4" Note="65" Velocity="114"/>
  </Event>
  <Event>
    <Absolute>3907</Absolute>
    <NoteOn Channel="4" Note="65" Velocity="0"/>
  </Event>
  <Event>
    <Absolute>3915</Absolute>
    <NoteOn Channel="4" Note="65" Velocity="114"/>
  </Event>
  <Event>
    <Absolute>3930</Absolute>
    <NoteOn Channel="4" Note="65" Velocity="0"/>
  </Event>
  <Event>
    <Absolute>3935</Absolute>
    <NoteOn Channel="4" Note="65" Velocity="114"/>
  </Event>
  <Event>
    <Absolute>3950</Absolute>
    <NoteOn Channel="4" Note="65" Velocity="0"/>
  </Event>
  <Event>
    <Absolute>3958</Absolute>
    <NoteOn Channel="4" Note="70" Velocity="114"/>
  </Event>
  <Event>
    <Absolute>4181</Absolute>
    <NoteOn Channel="4" Note="70" Velocity="0"/>
  </Event>
  <Event>
    <Absolute>4201</Absolute>
    <NoteOn Channel="4" Note="77" Velocity="114"/>
  </Event>
  <Event>
    <Absolute>4431</Absolute>
    <NoteOn Channel="4" Note="77" Velocity="0"/>
  </Event>
  <Event>
    <Absolute>4441</Absolute>
    <NoteOn Channel="4" Note="75" Velocity="114"/>
  </Event>
  <Event>
    <Absolute>4454</Absolute>
    <NoteOn Channel="4" Note="75" Velocity="0"/>
  </Event>
  <Event>
    <Absolute>4478</Absolute>
    <NoteOn Channel="4" Note="74" Velocity="114"/>
  </Event>
  <Event>
    <Absolute>4491</Absolute>
    <NoteOn Channel="4" Note="74" Velocity="0"/>
  </Event>
  <Event>
    <Absolute>4517</Absolute>
    <NoteOn Channel="4" Note="72" Velocity="114"/>
  </Event>
  <Event>
    <Absolute>4532</Absolute>
    <NoteOn Channel="4" Note="72" Velocity="0"/>
  </Event>
  <Event>
    <Absolute>4561</Absolute>
    <NoteOn Channel="4" Note="82" Velocity="114"/>
  </Event>
  <Event>
    <Absolute>4786</Absolute>
    <NoteOn Channel="4" Note="82" Velocity="0"/>
  </Event>
  <Event>
    <Absolute>4801</Absolute>
    <NoteOn Channel="4" Note="77" Velocity="114"/>
  </Event>
  <Event>
    <Absolute>4899</Absolute>
    <NoteOn Channel="4" Note="77" Velocity="0"/>
  </Event>
  <Event>
    <Absolute>4920</Absolute>
    <NoteOn Channel="4" Note="75" Velocity="114"/>
  </Event>
  <Event>
    <Absolute>4939</Absolute>
    <NoteOn Channel="4" Note="75" Velocity="0"/>
  </Event>
  <Event>
    <Absolute>4960</Absolute>
    <NoteOn Channel="4" Note="74" Velocity="114"/>
  </Event>
  <Event>
    <Absolute>4973</Absolute>
    <NoteOn Channel="4" Note="74" Velocity="0"/>
  </Event>
  <Event>
    <Absolute>4997</Absolute>
    <NoteOn Channel="4" Note="72" Velocity="114"/>
  </Event>
  <Event>
    <Absolute>5012</Absolute>
    <NoteOn Channel="4" Note="72" Velocity="0"/>
  </Event>
  <Event>
    <Absolute>5040</Absolute>
    <NoteOn Channel="4" Note="82" Velocity="114"/>
  </Event>
  <Event>
    <Absolute>5276</Absolute>
    <NoteOn Channel="4" Note="82" Velocity="0"/>
  </Event>
  <Event>
    <Absolute>5280</Absolute>
    <NoteOn Channel="4" Note="77" Velocity="114"/>
  </Event>
  <Event>
    <Absolute>5390</Absolute>
    <NoteOn Channel="4" Note="77" Velocity="0"/>
  </Event>
  <Event>
    <Absolute>5403</Absolute>
    <NoteOn Channel="4" Note="75" Velocity="114"/>
  </Event>
  <Event>
    <Absolute>5417</Absolute>
    <NoteOn Channel="4" Note="75" Velocity="0"/>
  </Event>
  <Event>
    <Absolute>5442</Absolute>
    <NoteOn Channel="4" Note="74" Velocity="114"/>
  </Event>
  <Event>
    <Absolute>5452</Absolute>
    <NoteOn Channel="4" Note="74" Velocity="0"/>
  </Event>
  <Event>
    <Absolute>5481</Absolute>
    <NoteOn Channel="4" Note="75" Velocity="114"/>
  </Event>
  <Event>
    <Absolute>5494</Absolute>
    <NoteOn Channel="4" Note="75" Velocity="0"/>
  </Event>
  <Event>
    <Absolute>5520</Absolute>
    <NoteOn Channel="4" Note="72" Velocity="114"/>
  </Event>
  <Event>
    <Absolute>5741</Absolute>
    <NoteOn Channel="4" Note="72" Velocity="0"/>
  </Event>
  <Event>
    <Absolute>8630</Absolute>
    <NoteOn Channel="4" Note="77" Velocity="114"/>
  </Event>
  <Event>
    <Absolute>8706</Absolute>
    <NoteOn Channel="4" Note="77" Velocity="0"/>
  </Event>
  <Event>
    <Absolute>8725</Absolute>
    <NoteOn Channel="4" Note="77" Velocity="103"/>
  </Event>
  <Event>
    <Absolute>8745</Absolute>
    <NoteOn Channel="4" Note="77" Velocity="0"/>
  </Event>
  <Event>
    <Absolute>8760</Absolute>
    <NoteOn Channel="4" Note="82" Velocity="103"/>
  </Event>
  <Event>
    <Absolute>8761</Absolute>
    <NoteOn Channel="4" Note="78" Velocity="103"/>
  </Event>
  <Event>
    <Absolute>8783</Absolute>
    <NoteOn Channel="4" Note="78" Velocity="0"/>
  </Event>
  <Event>
    <Absolute>8820</Absolute>
    <NoteOn Channel="4" Note="82" Velocity="0"/>
  </Event>
  <Event>
    <Absolute>8846</Absolute>
    <NoteOn Channel="4" Note="77" Velocity="103"/>
  </Event>
  <Event>
    <Absolute>8846</Absolute>
    <NoteOn Channel="4" Note="80" Velocity="103"/>
  </Event>
  <Event>
    <Absolute>8860</Absolute>
    <NoteOn Channel="4" Note="80" Velocity="0"/>
  </Event>
  <Event>
    <Absolute>8864</Absolute>
    <NoteOn Channel="4" Note="77" Velocity="0"/>
  </Event>
  <Event>
    <Absolute>8880</Absolute>
    <NoteOn Channel="4" Note="78" Velocity="103"/>
  </Event>
  <Event>
    <Absolute>8881</Absolute>
    <NoteOn Channel="4" Note="75" Velocity="103"/>
  </Event>
  <Event>
    <Absolute>8900</Absolute>
    <NoteOn Channel="4" Note="75" Velocity="0"/>
  </Event>
  <Event>
    <Absolute>8940</Absolute>
    <NoteOn Channel="4" Note="78" Velocity="0"/>
  </Event>
  <Event>
    <Absolute>8970</Absolute>
    <NoteOn Channel="4" Note="77" Velocity="103"/>
  </Event>
  <Event>
    <Absolute>8971</Absolute>
    <NoteOn Channel="4" Note="73" Velocity="103"/>
  </Event>
  <Event>
    <Absolute>8984</Absolute>
    <NoteOn Channel="4" Note="73" Velocity="0"/>
  </Event>
  <Event>
    <Absolute>8988</Absolute>
    <NoteOn Channel="4" Note="77" Velocity="0"/>
  </Event>
  <Event>
    <Absolute>9003</Absolute>
    <NoteOn Channel="4" Note="75" Velocity="103"/>
  </Event>
  <Event>
    <Absolute>9005</Absolute>
    <NoteOn Channel="4" Note="72" Velocity="103"/>
  </Event>
  <Event>
    <Absolute>9035</Absolute>
    <NoteOn Channel="4" Note="72" Velocity="0"/>
  </Event>
  <Event>
    <Absolute>9063</Absolute>
    <NoteOn Channel="4" Note="75" Velocity="0"/>
  </Event>
  <Event>
    <Absolute>9092</Absolute>
    <NoteOn Channel="4" Note="73" Velocity="103"/>
  </Event>
  <Event>
    <Absolute>9093</Absolute>
    <NoteOn Channel="4" Note="70" Velocity="103"/>
  </Event>
  <Event>
    <Absolute>9106</Absolute>
    <NoteOn Channel="4" Note="73" Velocity="0"/>
  </Event>
  <Event>
    <Absolute>9107</Absolute>
    <NoteOn Channel="4" Note="70" Velocity="0"/>
  </Event>
  <Event>
    <Absolute>9122</Absolute>
    <NoteOn Channel="4" Note="72" Velocity="103"/>
  </Event>
  <Event>
    <Absolute>9125</Absolute>
    <NoteOn Channel="4" Note="68" Velocity="103"/>
  </Event>
  <Event>
    <Absolute>9155</Absolute>
    <NoteOn Channel="4" Note="68" Velocity="0"/>
  </Event>
  <Event>
    <Absolute>9183</Absolute>
    <NoteOn Channel="4" Note="72" Velocity="0"/>
  </Event>
  <Event>
    <Absolute>9206</Absolute>
    <NoteOn Channel="4" Note="70" Velocity="103"/>
  </Event>
  <Event>
    <Absolute>9219</Absolute>
    <NoteOn Channel="4" Note="70" Velocity="0"/>
  </Event>
  <Event>
    <Absolute>9251</Absolute>
    <NoteOn Channel="4" Note="77" Velocity="111"/>
  </Event>
  <Event>
    <Absolute>9487</Absolute>
    <NoteOn Channel="4" Note="77" Velocity="0"/>
  </Event>
  <Event>
    <Absolute>9930</Absolute>
    <NoteOn Channel="4" Note="67" Velocity="127"/>
  </Event>
  <Event>
    <Absolute>9930</Absolute>
    <NoteOn Channel="4" Note="63" Velocity="127"/>
  </Event>
  <Event>
    <Absolute>9930</Absolute>
    <NoteOn Channel="4" Note="70" Velocity="127"/>
  </Event>
  <Event>
    <Absolute>9944</Absolute>
    <NoteOn Channel="4" Note="70" Velocity="0"/>
  </Event>
  <Event>
    <Absolute>9946</Absolute>
    <NoteOn Channel="4" Note="67" Velocity="0"/>
  </Event>
  <Event>
    <Absolute>9947</Absolute>
    <NoteOn Channel="4" Note="63" Velocity="0"/>
  </Event>
  <Event>
    <Absolute>9960</Absolute>
    <NoteOn Channel="4" Note="67" Velocity="127"/>
  </Event>
  <Event>
    <Absolute>9960</Absolute>
    <NoteOn Channel="4" Note="70" Velocity="127"/>
  </Event>
  <Event>
    <Absolute>9960</Absolute>
    <NoteOn Channel="4" Note="63" Velocity="127"/>
  </Event>
  <Event>
    <Absolute>10068</Absolute>
    <NoteOn Channel="4" Note="70" Velocity="0"/>
  </Event>
  <Event>
    <Absolute>10073</Absolute>
    <NoteOn Channel="4" Note="67" Velocity="0"/>
  </Event>
  <Event>
    <Absolute>10074</Absolute>
    <NoteOn Channel="4" Note="63" Velocity="0"/>
  </Event>
  <Event>
    <Absolute>10080</Absolute>
    <NoteOn Channel="4" Note="60" Velocity="112"/>
  </Event>
  <Event>
    <Absolute>10080</Absolute>
    <NoteOn Channel="4" Note="67" Velocity="117"/>
  </Event>
  <Event>
    <Absolute>10080</Absolute>
    <NoteOn Channel="4" Note="64" Velocity="127"/>
  </Event>
  <Event>
    <Absolute>10111</Absolute>
    <NoteOn Channel="4" Note="64" Velocity="0"/>
  </Event>
  <Event>
    <Absolute>10133</Absolute>
    <NoteOn Channel="4" Note="67" Velocity="0"/>
  </Event>
  <Event>
    <Absolute>10135</Absolute>
    <NoteOn Channel="4" Note="60" Velocity="0"/>
  </Event>
  <Event>
    <Absolute>10170</Absolute>
    <NoteOn Channel="4" Note="70" Velocity="127"/>
  </Event>
  <Event>
    <Absolute>10170</Absolute>
    <NoteOn Channel="4" Note="67" Velocity="127"/>
  </Event>
  <Event>
    <Absolute>10170</Absolute>
    <NoteOn Channel="4" Note="63" Velocity="127"/>
  </Event>
  <Event>
    <Absolute>10186</Absolute>
    <NoteOn Channel="4" Note="70" Velocity="0"/>
  </Event>
  <Event>
    <Absolute>10188</Absolute>
    <NoteOn Channel="4" Note="67" Velocity="0"/>
  </Event>
  <Event>
    <Absolute>10190</Absolute>
    <NoteOn Channel="4" Note="63" Velocity="0"/>
  </Event>
  <Event>
    <Absolute>10200</Absolute>
    <NoteOn Channel="4" Note="70" Velocity="127"/>
  </Event>
  <Event>
    <Absolute>10200</Absolute>
    <NoteOn Channel="4" Note="63" Velocity="123"/>
  </Event>
  <Event>
    <Absolute>10200</Absolute>
    <NoteOn Channel="4" Note="67" Velocity="127"/>
  </Event>
  <Event>
    <Absolute>10311</Absolute>
    <NoteOn Channel="4" Note="67" Velocity="0"/>
  </Event>
  <Event>
    <Absolute>10320</Absolute>
    <NoteOn Channel="4" Note="60" Velocity="116"/>
  </Event>
  <Event>
    <Absolute>10320</Absolute>
    <NoteOn Channel="4" Note="67" Velocity="127"/>
  </Event>
  <Event>
    <Absolute>10320</Absolute>
    <NoteOn Channel="4" Note="64" Velocity="127"/>
  </Event>
  <Event>
    <Absolute>10321</Absolute>
    <NoteOn Channel="4" Note="63" Velocity="0"/>
  </Event>
  <Event>
    <Absolute>10328</Absolute>
    <NoteOn Channel="4" Note="70" Velocity="0"/>
  </Event>
  <Event>
    <Absolute>10356</Absolute>
    <NoteOn Channel="4" Note="64" Velocity="0"/>
  </Event>
  <Event>
    <Absolute>10360</Absolute>
    <NoteOn Channel="4" Note="67" Velocity="0"/>
  </Event>
  <Event>
    <Absolute>10370</Absolute>
    <NoteOn Channel="4" Note="60" Velocity="0"/>
  </Event>
  <Event>
    <Absolute>10410</Absolute>
    <NoteOn Channel="4" Note="70" Velocity="127"/>
  </Event>
  <Event>
    <Absolute>10410</Absolute>
    <NoteOn Channel="4" Note="66" Velocity="127"/>
  </Event>
  <Event>
    <Absolute>10410</Absolute>
    <NoteOn Channel="4" Note="73" Velocity="127"/>
  </Event>
  <Event>
    <Absolute>10423</Absolute>
    <NoteOn Channel="4" Note="73" Velocity="0"/>
  </Event>
  <Event>
    <Absolute>10426</Absolute>
    <NoteOn Channel="4" Note="70" Velocity="0"/>
  </Event>
  <Event>
    <Absolute>10431</Absolute>
    <NoteOn Channel="4" Note="66" Velocity="0"/>
  </Event>
  <Event>
    <Absolute>10440</Absolute>
    <NoteOn Channel="4" Note="73" Velocity="127"/>
  </Event>
  <Event>
    <Absolute>10440</Absolute>
    <NoteOn Channel="4" Note="66" Velocity="116"/>
  </Event>
  <Event>
    <Absolute>10440</Absolute>
    <NoteOn Channel="4" Note="70" Velocity="127"/>
  </Event>
  <Event>
    <Absolute>10537</Absolute>
    <NoteOn Channel="4" Note="70" Velocity="0"/>
  </Event>
  <Event>
    <Absolute>10560</Absolute>
    <NoteOn Channel="4" Note="66" Velocity="0"/>
  </Event>
  <Event>
    <Absolute>10560</Absolute>
    <NoteOn Channel="4" Note="69" Velocity="127"/>
  </Event>
  <Event>
    <Absolute>10560</Absolute>
    <NoteOn Channel="4" Note="72" Velocity="127"/>
  </Event>
  <Event>
    <Absolute>10560</Absolute>
    <NoteOn Channel="4" Note="65" Velocity="127"/>
  </Event>
  <Event>
    <Absolute>10565</Absolute>
    <NoteOn Channel="4" Note="73" Velocity="0"/>
  </Event>
  <Event>
    <Absolute>10593</Absolute>
    <NoteOn Channel="4" Note="69" Velocity="0"/>
  </Event>
  <Event>
    <Absolute>10596</Absolute>
    <NoteOn Channel="4" Note="72" Velocity="0"/>
  </Event>
  <Event>
    <Absolute>10600</Absolute>
    <NoteOn Channel="4" Note="65" Velocity="0"/>
  </Event>
  <Event>
    <Absolute>10620</Absolute>
    <NoteOn Channel="4" Note="73" Velocity="126"/>
  </Event>
  <Event>
    <Absolute>10620</Absolute>
    <NoteOn Channel="4" Note="66" Velocity="117"/>
  </Event>
  <Event>
    <Absolute>10620</Absolute>
    <NoteOn Channel="4" Note="70" Velocity="127"/>
  </Event>
  <Event>
    <Absolute>10641</Absolute>
    <NoteOn Channel="4" Note="70" Velocity="0"/>
  </Event>
  <Event>
    <Absolute>10648</Absolute>
    <NoteOn Channel="4" Note="73" Velocity="0"/>
  </Event>
  <Event>
    <Absolute>10650</Absolute>
    <NoteOn Channel="4" Note="69" Velocity="127"/>
  </Event>
  <Event>
    <Absolute>10650</Absolute>
    <NoteOn Channel="4" Note="65" Velocity="110"/>
  </Event>
  <Event>
    <Absolute>10650</Absolute>
    <NoteOn Channel="4" Note="72" Velocity="123"/>
  </Event>
  <Event>
    <Absolute>10651</Absolute>
    <NoteOn Channel="4" Note="66" Velocity="0"/>
  </Event>
  <Event>
    <Absolute>10677</Absolute>
    <NoteOn Channel="4" Note="69" Velocity="0"/>
  </Event>
  <Event>
    <Absolute>10680</Absolute>
    <NoteOn Channel="4" Note="67" Velocity="127"/>
  </Event>
  <Event>
    <Absolute>10680</Absolute>
    <NoteOn Channel="4" Note="63" Velocity="127"/>
  </Event>
  <Event>
    <Absolute>10680</Absolute>
    <NoteOn Channel="4" Note="70" Velocity="116"/>
  </Event>
  <Event>
    <Absolute>10681</Absolute>
    <NoteOn Channel="4" Note="72" Velocity="0"/>
  </Event>
  <Event>
    <Absolute>10687</Absolute>
    <NoteOn Channel="4" Note="65" Velocity="0"/>
  </Event>
  <Event>
    <Absolute>10698</Absolute>
    <NoteOn Channel="4" Note="63" Velocity="0"/>
  </Event>
  <Event>
    <Absolute>10698</Absolute>
    <NoteOn Channel="4" Note="67" Velocity="0"/>
  </Event>
  <Event>
    <Absolute>10698</Absolute>
    <NoteOn Channel="4" Note="70" Velocity="0"/>
  </Event>
  <Event>
    <Absolute>10740</Absolute>
    <NoteOn Channel="4" Note="60" Velocity="127"/>
  </Event>
  <Event>
    <Absolute>10740</Absolute>
    <NoteOn Channel="4" Note="64" Velocity="127"/>
  </Event>
  <Event>
    <Absolute>10740</Absolute>
    <NoteOn Channel="4" Note="67" Velocity="127"/>
  </Event>
  <Event>
    <Absolute>11685</Absolute>
    <NoteOn Channel="4" Note="64" Velocity="0"/>
  </Event>
  <Event>
    <Absolute>11690</Absolute>
    <NoteOn Channel="4" Note="60" Velocity="0"/>
  </Event>
  <Event>
    <Absolute>11700</Absolute>
    <NoteOn Channel="4" Note="67" Velocity="0"/>
  </Event>
  <Event>
    <Absolute>12448</Absolute>
    <NoteOn Channel="4" Note="65" Velocity="127"/>
  </Event>
  <Event>
    <Absolute>12450</Absolute>
    <NoteOn Channel="4" Note="72" Velocity="127"/>
  </Event>
  <Event>
    <Absolute>12453</Absolute>
    <NoteOn Channel="4" Note="69" Velocity="123"/>
  </Event>
  <Event>
    <Absolute>12466</Absolute>
    <NoteOn Channel="4" Note="72" Velocity="0"/>
  </Event>
  <Event>
    <Absolute>12468</Absolute>
    <NoteOn Channel="4" Note="69" Velocity="0"/>
  </Event>
  <Event>
    <Absolute>12469</Absolute>
    <NoteOn Channel="4" Note="65" Velocity="0"/>
  </Event>
  <Event>
    <Absolute>12485</Absolute>
    <NoteOn Channel="4" Note="65" Velocity="116"/>
  </Event>
  <Event>
    <Absolute>12486</Absolute>
    <NoteOn Channel="4" Note="72" Velocity="116"/>
  </Event>
  <Event>
    <Absolute>12487</Absolute>
    <NoteOn Channel="4" Note="69" Velocity="124"/>
  </Event>
  <Event>
    <Absolute>12599</Absolute>
    <NoteOn Channel="4" Note="72" Velocity="0"/>
  </Event>
  <Event>
    <Absolute>12607</Absolute>
    <NoteOn Channel="4" Note="69" Velocity="0"/>
  </Event>
  <Event>
    <Absolute>12608</Absolute>
    <NoteOn Channel="4" Note="69" Velocity="124"/>
  </Event>
  <Event>
    <Absolute>12608</Absolute>
    <NoteOn Channel="4" Note="62" Velocity="127"/>
  </Event>
  <Event>
    <Absolute>12610</Absolute>
    <NoteOn Channel="4" Note="65" Velocity="0"/>
  </Event>
  <Event>
    <Absolute>12615</Absolute>
    <NoteOn Channel="4" Note="66" Velocity="127"/>
  </Event>
  <Event>
    <Absolute>12647</Absolute>
    <NoteOn Channel="4" Note="66" Velocity="0"/>
  </Event>
  <Event>
    <Absolute>12651</Absolute>
    <NoteOn Channel="4" Note="69" Velocity="0"/>
  </Event>
  <Event>
    <Absolute>12654</Absolute>
    <NoteOn Channel="4" Note="62" Velocity="0"/>
  </Event>
  <Event>
    <Absolute>12700</Absolute>
    <NoteOn Channel="4" Note="69" Velocity="127"/>
  </Event>
  <Event>
    <Absolute>12700</Absolute>
    <NoteOn Channel="4" Note="72" Velocity="127"/>
  </Event>
  <Event>
    <Absolute>12703</Absolute>
    <NoteOn Channel="4" Note="65" Velocity="81"/>
  </Event>
  <Event>
    <Absolute>12712</Absolute>
    <NoteOn Channel="4" Note="65" Velocity="0"/>
  </Event>
  <Event>
    <Absolute>12713</Absolute>
    <NoteOn Channel="4" Note="72" Velocity="0"/>
  </Event>
  <Event>
    <Absolute>12713</Absolute>
    <NoteOn Channel="4" Note="69" Velocity="0"/>
  </Event>
  <Event>
    <Absolute>12723</Absolute>
    <NoteOn Channel="4" Note="65" Velocity="107"/>
  </Event>
  <Event>
    <Absolute>12730</Absolute>
    <NoteOn Channel="4" Note="72" Velocity="127"/>
  </Event>
  <Event>
    <Absolute>12733</Absolute>
    <NoteOn Channel="4" Note="69" Velocity="127"/>
  </Event>
  <Event>
    <Absolute>12840</Absolute>
    <NoteOn Channel="4" Note="69" Velocity="124"/>
  </Event>
  <Event>
    <Absolute>12841</Absolute>
    <NoteOn Channel="4" Note="62" Velocity="121"/>
  </Event>
  <Event>
    <Absolute>12843</Absolute>
    <NoteOn Channel="4" Note="69" Velocity="0"/>
  </Event>
  <Event>
    <Absolute>12843</Absolute>
    <NoteOn Channel="4" Note="72" Velocity="0"/>
  </Event>
  <Event>
    <Absolute>12848</Absolute>
    <NoteOn Channel="4" Note="65" Velocity="0"/>
  </Event>
  <Event>
    <Absolute>12848</Absolute>
    <NoteOn Channel="4" Note="66" Velocity="121"/>
  </Event>
  <Event>
    <Absolute>12879</Absolute>
    <NoteOn Channel="4" Note="66" Velocity="0"/>
  </Event>
  <Event>
    <Absolute>12886</Absolute>
    <NoteOn Channel="4" Note="62" Velocity="0"/>
  </Event>
  <Event>
    <Absolute>12930</Absolute>
    <NoteOn Channel="4" Note="72" Velocity="126"/>
  </Event>
  <Event>
    <Absolute>12935</Absolute>
    <NoteOn Channel="4" Note="75" Velocity="116"/>
  </Event>
  <Event>
    <Absolute>12936</Absolute>
    <NoteOn Channel="4" Note="68" Velocity="127"/>
  </Event>
  <Event>
    <Absolute>12945</Absolute>
    <NoteOn Channel="4" Note="72" Velocity="0"/>
  </Event>
  <Event>
    <Absolute>12946</Absolute>
    <NoteOn Channel="4" Note="69" Velocity="0"/>
  </Event>
  <Event>
    <Absolute>12950</Absolute>
    <NoteOn Channel="4" Note="75" Velocity="0"/>
  </Event>
  <Event>
    <Absolute>12951</Absolute>
    <NoteOn Channel="4" Note="68" Velocity="0"/>
  </Event>
  <Event>
    <Absolute>12963</Absolute>
    <NoteOn Channel="4" Note="72" Velocity="116"/>
  </Event>
  <Event>
    <Absolute>12965</Absolute>
    <NoteOn Channel="4" Note="68" Velocity="117"/>
  </Event>
  <Event>
    <Absolute>12966</Absolute>
    <NoteOn Channel="4" Note="75" Velocity="112"/>
  </Event>
  <Event>
    <Absolute>13076</Absolute>
    <NoteOn Channel="4" Note="72" Velocity="0"/>
  </Event>
  <Event>
    <Absolute>13080</Absolute>
    <NoteOn Channel="4" Note="71" Velocity="126"/>
  </Event>
  <Event>
    <Absolute>13083</Absolute>
    <NoteOn Channel="4" Note="67" Velocity="123"/>
  </Event>
  <Event>
    <Absolute>13083</Absolute>
    <NoteOn Channel="4" Note="74" Velocity="116"/>
  </Event>
  <Event>
    <Absolute>13089</Absolute>
    <NoteOn Channel="4" Note="68" Velocity="0"/>
  </Event>
  <Event>
    <Absolute>13093</Absolute>
    <NoteOn Channel="4" Note="75" Velocity="0"/>
  </Event>
  <Event>
    <Absolute>13113</Absolute>
    <NoteOn Channel="4" Note="67" Velocity="0"/>
  </Event>
  <Event>
    <Absolute>13113</Absolute>
    <NoteOn Channel="4" Note="71" Velocity="0"/>
  </Event>
  <Event>
    <Absolute>13113</Absolute>
    <NoteOn Channel="4" Note="74" Velocity="0"/>
  </Event>
  <Event>
    <Absolute>13143</Absolute>
    <NoteOn Channel="4" Note="75" Velocity="109"/>
  </Event>
  <Event>
    <Absolute>13143</Absolute>
    <NoteOn Channel="4" Note="72" Velocity="123"/>
  </Event>
  <Event>
    <Absolute>13145</Absolute>
    <NoteOn Channel="4" Note="68" Velocity="121"/>
  </Event>
  <Event>
    <Absolute>13157</Absolute>
    <NoteOn Channel="4" Note="72" Velocity="0"/>
  </Event>
  <Event>
    <Absolute>13168</Absolute>
    <NoteOn Channel="4" Note="68" Velocity="0"/>
  </Event>
  <Event>
    <Absolute>13168</Absolute>
    <NoteOn Channel="4" Note="71" Velocity="93"/>
  </Event>
  <Event>
    <Absolute>13170</Absolute>
    <NoteOn Channel="4" Note="67" Velocity="110"/>
  </Event>
  <Event>
    <Absolute>13175</Absolute>
    <NoteOn Channel="4" Note="74" Velocity="90"/>
  </Event>
  <Event>
    <Absolute>13182</Absolute>
    <NoteOn Channel="4" Note="75" Velocity="0"/>
  </Event>
  <Event>
    <Absolute>13191</Absolute>
    <NoteOn Channel="4" Note="71" Velocity="0"/>
  </Event>
  <Event>
    <Absolute>13193</Absolute>
    <NoteOn Channel="4" Note="67" Velocity="0"/>
  </Event>
  <Event>
    <Absolute>13198</Absolute>
    <NoteOn Channel="4" Note="65" Velocity="127"/>
  </Event>
  <Event>
    <Absolute>13201</Absolute>
    <NoteOn Channel="4" Note="72" Velocity="127"/>
  </Event>
  <Event>
    <Absolute>13201</Absolute>
    <NoteOn Channel="4" Note="69" Velocity="127"/>
  </Event>
  <Event>
    <Absolute>13207</Absolute>
    <NoteOn Channel="4" Note="74" Velocity="0"/>
  </Event>
  <Event>
    <Absolute>13218</Absolute>
    <NoteOn Channel="4" Note="65" Velocity="0"/>
  </Event>
  <Event>
    <Absolute>13219</Absolute>
    <NoteOn Channel="4" Note="69" Velocity="0"/>
  </Event>
  <Event>
    <Absolute>13236</Absolute>
    <NoteOn Channel="4" Note="72" Velocity="0"/>
  </Event>
  <Event>
    <Absolute>13857</Absolute>
    <NoteOn Channel="4" Note="76" Velocity="98"/>
  </Event>
  <Event>
    <Absolute>13881</Absolute>
    <NoteOn Channel="4" Note="76" Velocity="0"/>
  </Event>
  <Event>
    <Absolute>13882</Absolute>
    <NoteOn Channel="4" Note="77" Velocity="101"/>
  </Event>
  <Event>
    <Absolute>13898</Absolute>
    <NoteOn Channel="4" Note="77" Velocity="0"/>
  </Event>
  <Event>
    <Absolute>13906</Absolute>
    <NoteOn Channel="4" Note="78" Velocity="111"/>
  </Event>
  <Event>
    <Absolute>13924</Absolute>
    <NoteOn Channel="4" Note="79" Velocity="125"/>
  </Event>
  <Event>
    <Absolute>13932</Absolute>
    <NoteOn Channel="4" Note="78" Velocity="0"/>
  </Event>
  <Event>
    <Absolute>13994</Absolute>
    <NoteOn Channel="4" Note="79" Velocity="0"/>
  </Event>
  <Event>
    <Absolute>14882</Absolute>
    <NoteOn Channel="4" Note="67" Velocity="117"/>
  </Event>
  <Event>
    <Absolute>14972</Absolute>
    <NoteOn Channel="4" Note="67" Velocity="0"/>
  </Event>
  <Event>
    <Absolute>15015</Absolute>
    <NoteOn Channel="4" Note="67" Velocity="123"/>
  </Event>
  <Event>
    <Absolute>15096</Absolute>
    <NoteOn Channel="4" Note="67" Velocity="0"/>
  </Event>
  <Event>
    <Absolute>15140</Absolute>
    <NoteOn Channel="4" Note="67" Velocity="123"/>
  </Event>
  <Event>
    <Absolute>15212</Absolute>
    <NoteOn Channel="4" Note="67" Velocity="0"/>
  </Event>
  <Event>
    <Absolute>15251</Absolute>
    <NoteOn Channel="4" Note="63" Velocity="123"/>
  </Event>
  <Event>
    <Absolute>15312</Absolute>
    <NoteOn Channel="4" Note="63" Velocity="0"/>
  </Event>
  <Event>
    <Absolute>15337</Absolute>
    <NoteOn Channel="4" Note="70" Velocity="123"/>
  </Event>
  <Event>
    <Absolute>15355</Absolute>
    <NoteOn Channel="4" Note="70" Velocity="0"/>
  </Event>
  <Event>
    <Absolute>15370</Absolute>
    <NoteOn Channel="4" Note="67" Velocity="123"/>
  </Event>
  <Event>
    <Absolute>15466</Absolute>
    <NoteOn Channel="4" Note="67" Velocity="0"/>
  </Event>
  <Event>
    <Absolute>15492</Absolute>
    <NoteOn Channel="4" Note="63" Velocity="123"/>
  </Event>
  <Event>
    <Absolute>15544</Absolute>
    <NoteOn Channel="4" Note="63" Velocity="0"/>
  </Event>
  <Event>
    <Absolute>15584</Absolute>
    <NoteOn Channel="4" Note="70" Velocity="123"/>
  </Event>
  <Event>
    <Absolute>15602</Absolute>
    <NoteOn Channel="4" Note="70" Velocity="0"/>
  </Event>
  <Event>
    <Absolute>15615</Absolute>
    <NoteOn Channel="4" Note="67" Velocity="123"/>
  </Event>
  <Event>
    <Absolute>15772</Absolute>
    <NoteOn Channel="4" Note="67" Velocity="0"/>
  </Event>
  <Event>
    <Absolute>15853</Absolute>
    <NoteOn Channel="4" Note="74" Velocity="123"/>
  </Event>
  <Event>
    <Absolute>15934</Absolute>
    <NoteOn Channel="4" Note="74" Velocity="0"/>
  </Event>
  <Event>
    <Absolute>15973</Absolute>
    <NoteOn Channel="4" Note="74" Velocity="123"/>
  </Event>
  <Event>
    <Absolute>16053</Absolute>
    <NoteOn Channel="4" Note="74" Velocity="0"/>
  </Event>
  <Event>
    <Absolute>16095</Absolute>
    <NoteOn Channel="4" Note="74" Velocity="123"/>
  </Event>
  <Event>
    <Absolute>16175</Absolute>
    <NoteOn Channel="4" Note="74" Velocity="0"/>
  </Event>
  <Event>
    <Absolute>16215</Absolute>
    <NoteOn Channel="4" Note="75" Velocity="123"/>
  </Event>
  <Event>
    <Absolute>16268</Absolute>
    <NoteOn Channel="4" Note="75" Velocity="0"/>
  </Event>
  <Event>
    <Absolute>16302</Absolute>
    <NoteOn Channel="4" Note="70" Velocity="123"/>
  </Event>
  <Event>
    <Absolute>16318</Absolute>
    <NoteOn Channel="4" Note="70" Velocity="0"/>
  </Event>
  <Event>
    <Absolute>16333</Absolute>
    <NoteOn Channel="4" Note="66" Velocity="123"/>
  </Event>
  <Event>
    <Absolute>16408</Absolute>
    <NoteOn Channel="4" Note="66" Velocity="0"/>
  </Event>
  <Event>
    <Absolute>16450</Absolute>
    <NoteOn Channel="4" Note="63" Velocity="123"/>
  </Event>
  <Event>
    <Absolute>16515</Absolute>
    <NoteOn Channel="4" Note="63" Velocity="0"/>
  </Event>
  <Event>
    <Absolute>16540</Absolute>
    <NoteOn Channel="4" Note="70" Velocity="123"/>
  </Event>
  <Event>
    <Absolute>16560</Absolute>
    <NoteOn Channel="4" Note="70" Velocity="0"/>
  </Event>
  <Event>
    <Absolute>16573</Absolute>
    <NoteOn Channel="4" Note="67" Velocity="123"/>
  </Event>
  <Event>
    <Absolute>16719</Absolute>
    <NoteOn Channel="4" Note="67" Velocity="0"/>
  </Event>
  <Event>
    <Absolute>16817</Absolute>
    <NoteOn Channel="4" Note="79" Velocity="123"/>
  </Event>
  <Event>
    <Absolute>16889</Absolute>
    <NoteOn Channel="4" Note="79" Velocity="0"/>
  </Event>
  <Event>
    <Absolute>16930</Absolute>
    <NoteOn Channel="4" Note="67" Velocity="123"/>
  </Event>
  <Event>
    <Absolute>16974</Absolute>
    <NoteOn Channel="4" Note="67" Velocity="0"/>
  </Event>
  <Event>
    <Absolute>17028</Absolute>
    <NoteOn Channel="4" Note="67" Velocity="123"/>
  </Event>
  <Event>
    <Absolute>17046</Absolute>
    <NoteOn Channel="4" Note="67" Velocity="0"/>
  </Event>
  <Event>
    <Absolute>17056</Absolute>
    <NoteOn Channel="4" Note="79" Velocity="123"/>
  </Event>
  <Event>
    <Absolute>17137</Absolute>
    <NoteOn Channel="4" Note="79" Velocity="0"/>
  </Event>
  <Event>
    <Absolute>17176</Absolute>
    <NoteOn Channel="4" Note="78" Velocity="123"/>
  </Event>
  <Event>
    <Absolute>17238</Absolute>
    <NoteOn Channel="4" Note="78" Velocity="0"/>
  </Event>
  <Event>
    <Absolute>17268</Absolute>
    <NoteOn Channel="4" Note="77" Velocity="123"/>
  </Event>
  <Event>
    <Absolute>17288</Absolute>
    <NoteOn Channel="4" Note="77" Velocity="0"/>
  </Event>
  <Event>
    <Absolute>17295</Absolute>
    <NoteOn Channel="4" Note="76" Velocity="123"/>
  </Event>
  <Event>
    <Absolute>17317</Absolute>
    <NoteOn Channel="4" Note="76" Velocity="0"/>
  </Event>
  <Event>
    <Absolute>17323</Absolute>
    <NoteOn Channel="4" Note="75" Velocity="123"/>
  </Event>
  <Event>
    <Absolute>17341</Absolute>
    <NoteOn Channel="4" Note="75" Velocity="0"/>
  </Event>
  <Event>
    <Absolute>17347</Absolute>
    <NoteOn Channel="4" Note="76" Velocity="123"/>
  </Event>
  <Event>
    <Absolute>17386</Absolute>
    <NoteOn Channel="4" Note="76" Velocity="0"/>
  </Event>
  <Event>
    <Absolute>17471</Absolute>
    <NoteOn Channel="4" Note="68" Velocity="123"/>
  </Event>
  <Event>
    <Absolute>17493</Absolute>
    <NoteOn Channel="4" Note="68" Velocity="0"/>
  </Event>
  <Event>
    <Absolute>17535</Absolute>
    <NoteOn Channel="4" Note="73" Velocity="123"/>
  </Event>
  <Event>
    <Absolute>17625</Absolute>
    <NoteOn Channel="4" Note="73" Velocity="0"/>
  </Event>
  <Event>
    <Absolute>17653</Absolute>
    <NoteOn Channel="4" Note="72" Velocity="123"/>
  </Event>
  <Event>
    <Absolute>17728</Absolute>
    <NoteOn Channel="4" Note="72" Velocity="0"/>
  </Event>
  <Event>
    <Absolute>17745</Absolute>
    <NoteOn Channel="4" Note="71" Velocity="123"/>
  </Event>
  <Event>
    <Absolute>17766</Absolute>
    <NoteOn Channel="4" Note="71" Velocity="0"/>
  </Event>
  <Event>
    <Absolute>17776</Absolute>
    <NoteOn Channel="4" Note="70" Velocity="123"/>
  </Event>
  <Event>
    <Absolute>17798</Absolute>
    <NoteOn Channel="4" Note="70" Velocity="0"/>
  </Event>
  <Event>
    <Absolute>17805</Absolute>
    <NoteOn Channel="4" Note="69" Velocity="123"/>
  </Event>
  <Event>
    <Absolute>17825</Absolute>
    <NoteOn Channel="4" Note="69" Velocity="0"/>
  </Event>
  <Event>
    <Absolute>17836</Absolute>
    <NoteOn Channel="4" Note="70" Velocity="123"/>
  </Event>
  <Event>
    <Absolute>17852</Absolute>
    <NoteOn Channel="4" Note="70" Velocity="0"/>
  </Event>
  <Event>
    <Absolute>17956</Absolute>
    <NoteOn Channel="4" Note="63" Velocity="123"/>
  </Event>
  <Event>
    <Absolute>17977</Absolute>
    <NoteOn Channel="4" Note="63" Velocity="0"/>
  </Event>
  <Event>
    <Absolute>18014</Absolute>
    <NoteOn Channel="4" Note="66" Velocity="123"/>
  </Event>
  <Event>
    <Absolute>18098</Absolute>
    <NoteOn Channel="4" Note="66" Velocity="0"/>
  </Event>
  <Event>
    <Absolute>18133</Absolute>
    <NoteOn Channel="4" Note="63" Velocity="123"/>
  </Event>
  <Event>
    <Absolute>18208</Absolute>
    <NoteOn Channel="4" Note="63" Velocity="0"/>
  </Event>
  <Event>
    <Absolute>18225</Absolute>
    <NoteOn Channel="4" Note="66" Velocity="123"/>
  </Event>
  <Event>
    <Absolute>18241</Absolute>
    <NoteOn Channel="4" Note="66" Velocity="0"/>
  </Event>
  <Event>
    <Absolute>18256</Absolute>
    <NoteOn Channel="4" Note="70" Velocity="123"/>
  </Event>
  <Event>
    <Absolute>18339</Absolute>
    <NoteOn Channel="4" Note="70" Velocity="0"/>
  </Event>
  <Event>
    <Absolute>18377</Absolute>
    <NoteOn Channel="4" Note="67" Velocity="123"/>
  </Event>
  <Event>
    <Absolute>18437</Absolute>
    <NoteOn Channel="4" Note="67" Velocity="0"/>
  </Event>
  <Event>
    <Absolute>18465</Absolute>
    <NoteOn Channel="4" Note="70" Velocity="123"/>
  </Event>
  <Event>
    <Absolute>18482</Absolute>
    <NoteOn Channel="4" Note="70" Velocity="0"/>
  </Event>
  <Event>
    <Absolute>18496</Absolute>
    <NoteOn Channel="4" Note="74" Velocity="123"/>
  </Event>
  <Event>
    <Absolute>18664</Absolute>
    <NoteOn Channel="4" Note="74" Velocity="0"/>
  </Event>
  <Event>
    <Absolute>18737</Absolute>
    <NoteOn Channel="4" Note="79" Velocity="123"/>
  </Event>
  <Event>
    <Absolute>18809</Absolute>
    <NoteOn Channel="4" Note="79" Velocity="0"/>
  </Event>
  <Event>
    <Absolute>18850</Absolute>
    <NoteOn Channel="4" Note="67" Velocity="123"/>
  </Event>
  <Event>
    <Absolute>18894</Absolute>
    <NoteOn Channel="4" Note="67" Velocity="0"/>
  </Event>
  <Event>
    <Absolute>18948</Absolute>
    <NoteOn Channel="4" Note="67" Velocity="123"/>
  </Event>
  <Event>
    <Absolute>18966</Absolute>
    <NoteOn Channel="4" Note="67" Velocity="0"/>
  </Event>
  <Event>
    <Absolute>18976</Absolute>
    <NoteOn Channel="4" Note="79" Velocity="123"/>
  </Event>
  <Event>
    <Absolute>19057</Absolute>
    <NoteOn Channel="4" Note="79" Velocity="0"/>
  </Event>
  <Event>
    <Absolute>19096</Absolute>
    <NoteOn Channel="4" Note="78" Velocity="123"/>
  </Event>
  <Event>
    <Absolute>19158</Absolute>
    <NoteOn Channel="4" Note="78" Velocity="0"/>
  </Event>
  <Event>
    <Absolute>19188</Absolute>
    <NoteOn Channel="4" Note="77" Velocity="123"/>
  </Event>
  <Event>
    <Absolute>19208</Absolute>
    <NoteOn Channel="4" Note="77" Velocity="0"/>
  </Event>
  <Event>
    <Absolute>19215</Absolute>
    <NoteOn Channel="4" Note="76" Velocity="123"/>
  </Event>
  <Event>
    <Absolute>19237</Absolute>
    <NoteOn Channel="4" Note="76" Velocity="0"/>
  </Event>
  <Event>
    <Absolute>19243</Absolute>
    <NoteOn Channel="4" Note="75" Velocity="123"/>
  </Event>
  <Event>
    <Absolute>19261</Absolute>
    <NoteOn Channel="4" Note="75" Velocity="0"/>
  </Event>
  <Event>
    <Absolute>19267</Absolute>
    <NoteOn Channel="4" Note="76" Velocity="123"/>
  </Event>
  <Event>
    <Absolute>19306</Absolute>
    <NoteOn Channel="4" Note="76" Velocity="0"/>
  </Event>
  <Event>
    <Absolute>19391</Absolute>
    <NoteOn Channel="4" Note="68" Velocity="123"/>
  </Event>
  <Event>
    <Absolute>19413</Absolute>
    <NoteOn Channel="4" Note="68" Velocity="0"/>
  </Event>
  <Event>
    <Absolute>19455</Absolute>
    <NoteOn Channel="4" Note="73" Velocity="123"/>
  </Event>
  <Event>
    <Absolute>19545</Absolute>
    <NoteOn Channel="4" Note="73" Velocity="0"/>
  </Event>
  <Event>
    <Absolute>19573</Absolute>
    <NoteOn Channel="4" Note="72" Velocity="123"/>
  </Event>
  <Event>
    <Absolute>19648</Absolute>
    <NoteOn Channel="4" Note="72" Velocity="0"/>
  </Event>
  <Event>
    <Absolute>19665</Absolute>
    <NoteOn Channel="4" Note="71" Velocity="123"/>
  </Event>
  <Event>
    <Absolute>19686</Absolute>
    <NoteOn Channel="4" Note="71" Velocity="0"/>
  </Event>
  <Event>
    <Absolute>19696</Absolute>
    <NoteOn Channel="4" Note="70" Velocity="123"/>
  </Event>
  <Event>
    <Absolute>19718</Absolute>
    <NoteOn Channel="4" Note="70" Velocity="0"/>
  </Event>
  <Event>
    <Absolute>19725</Absolute>
    <NoteOn Channel="4" Note="69" Velocity="123"/>
  </Event>
  <Event>
    <Absolute>19745</Absolute>
    <NoteOn Channel="4" Note="69" Velocity="0"/>
  </Event>
  <Event>
    <Absolute>19756</Absolute>
    <NoteOn Channel="4" Note="70" Velocity="123"/>
  </Event>
  <Event>
    <Absolute>19772</Absolute>
    <NoteOn Channel="4" Note="70" Velocity="0"/>
  </Event>
  <Event>
    <Absolute>19876</Absolute>
    <NoteOn Channel="4" Note="63" Velocity="123"/>
  </Event>
  <Event>
    <Absolute>19897</Absolute>
    <NoteOn Channel="4" Note="63" Velocity="0"/>
  </Event>
  <Event>
    <Absolute>19934</Absolute>
    <NoteOn Channel="4" Note="66" Velocity="123"/>
  </Event>
  <Event>
    <Absolute>20018</Absolute>
    <NoteOn Channel="4" Note="66" Velocity="0"/>
  </Event>
  <Event>
    <Absolute>20053</Absolute>
    <NoteOn Channel="4" Note="63" Velocity="123"/>
  </Event>
  <Event>
    <Absolute>20128</Absolute>
    <NoteOn Channel="4" Note="63" Velocity="0"/>
  </Event>
  <Event>
    <Absolute>20145</Absolute>
    <NoteOn Channel="4" Note="70" Velocity="123"/>
  </Event>
  <Event>
    <Absolute>20161</Absolute>
    <NoteOn Channel="4" Note="70" Velocity="0"/>
  </Event>
  <Event>
    <Absolute>20176</Absolute>
    <NoteOn Channel="4" Note="67" Velocity="123"/>
  </Event>
  <Event>
    <Absolute>20259</Absolute>
    <NoteOn Channel="4" Note="67" Velocity="0"/>
  </Event>
  <Event>
    <Absolute>20297</Absolute>
    <NoteOn Channel="4" Note="63" Velocity="123"/>
  </Event>
  <Event>
    <Absolute>20357</Absolute>
    <NoteOn Channel="4" Note="63" Velocity="0"/>
  </Event>
  <Event>
    <Absolute>20385</Absolute>
    <NoteOn Channel="4" Note="70" Velocity="123"/>
  </Event>
  <Event>
    <Absolute>20402</Absolute>
    <NoteOn Channel="4" Note="70" Velocity="0"/>
  </Event>
  <Event>
    <Absolute>20416</Absolute>
    <NoteOn Channel="4" Note="67" Velocity="123"/>
  </Event>
  <Event>
    <Absolute>20584</Absolute>
    <NoteOn Channel="4" Note="67" Velocity="0"/>
  </Event>
  <Event>
    <Absolute>21853</Absolute>
    <NoteOn Channel="4" Note="62" Velocity="122"/>
  </Event>
  <Event>
    <Absolute>21918</Absolute>
    <NoteOn Channel="4" Note="62" Velocity="0"/>
  </Event>
  <Event>
    <Absolute>22096</Absolute>
    <NoteOn Channel="4" Note="62" Velocity="127"/>
  </Event>
  <Event>
    <Absolute>22149</Absolute>
    <NoteOn Channel="4" Note="62" Velocity="0"/>
  </Event>
  <Event>
    <Absolute>22336</Absolute>
    <NoteOn Channel="4" Note="62" Velocity="127"/>
  </Event>
  <Event>
    <Absolute>22384</Absolute>
    <NoteOn Channel="4" Note="62" Velocity="0"/>
  </Event>
  <Event>
    <Absolute>23352</Absolute>
    <NoteOn Channel="4" Note="60" Velocity="109"/>
  </Event>
  <Event>
    <Absolute>23352</Absolute>
    <NoteOn Channel="4" Note="64" Velocity="106"/>
  </Event>
  <Event>
    <Absolute>23353</Absolute>
    <NoteOn Channel="4" Note="68" Velocity="112"/>
  </Event>
  <Event>
    <Absolute>23361</Absolute>
    <NoteOn Channel="4" Note="68" Velocity="0"/>
  </Event>
  <Event>
    <Absolute>23362</Absolute>
    <NoteOn Channel="4" Note="64" Velocity="0"/>
  </Event>
  <Event>
    <Absolute>23363</Absolute>
    <NoteOn Channel="4" Note="60" Velocity="0"/>
  </Event>
  <Event>
    <Absolute>23375</Absolute>
    <NoteOn Channel="4" Note="60" Velocity="101"/>
  </Event>
  <Event>
    <Absolute>23375</Absolute>
    <NoteOn Channel="4" Note="68" Velocity="112"/>
  </Event>
  <Event>
    <Absolute>23375</Absolute>
    <NoteOn Channel="4" Note="64" Velocity="86"/>
  </Event>
  <Event>
    <Absolute>23382</Absolute>
    <NoteOn Channel="4" Note="68" Velocity="0"/>
  </Event>
  <Event>
    <Absolute>23383</Absolute>
    <NoteOn Channel="4" Note="64" Velocity="0"/>
  </Event>
  <Event>
    <Absolute>23385</Absolute>
    <NoteOn Channel="4" Note="60" Velocity="0"/>
  </Event>
  <Event>
    <Absolute>23391</Absolute>
    <NoteOn Channel="4" Note="64" Velocity="91"/>
  </Event>
  <Event>
    <Absolute>23391</Absolute>
    <NoteOn Channel="4" Note="68" Velocity="86"/>
  </Event>
  <Event>
    <Absolute>23393</Absolute>
    <NoteOn Channel="4" Note="60" Velocity="91"/>
  </Event>
  <Event>
    <Absolute>23401</Absolute>
    <NoteOn Channel="4" Note="68" Velocity="0"/>
  </Event>
  <Event>
    <Absolute>23401</Absolute>
    <NoteOn Channel="4" Note="64" Velocity="0"/>
  </Event>
  <Event>
    <Absolute>23403</Absolute>
    <NoteOn Channel="4" Note="60" Velocity="0"/>
  </Event>
  <Event>
    <Absolute>23413</Absolute>
    <NoteOn Channel="4" Note="65" Velocity="70"/>
  </Event>
  <Event>
    <Absolute>23413</Absolute>
    <NoteOn Channel="4" Note="69" Velocity="78"/>
  </Event>
  <Event>
    <Absolute>23414</Absolute>
    <NoteOn Channel="4" Note="61" Velocity="112"/>
  </Event>
  <Event>
    <Absolute>23421</Absolute>
    <NoteOn Channel="4" Note="65" Velocity="0"/>
  </Event>
  <Event>
    <Absolute>23422</Absolute>
    <NoteOn Channel="4" Note="69" Velocity="0"/>
  </Event>
  <Event>
    <Absolute>23423</Absolute>
    <NoteOn Channel="4" Note="61" Velocity="0"/>
  </Event>
  <Event>
    <Absolute>23432</Absolute>
    <NoteOn Channel="4" Note="69" Velocity="75"/>
  </Event>
  <Event>
    <Absolute>23432</Absolute>
    <NoteOn Channel="4" Note="65" Velocity="75"/>
  </Event>
  <Event>
    <Absolute>23433</Absolute>
    <NoteOn Channel="4" Note="61" Velocity="109"/>
  </Event>
  <Event>
    <Absolute>23440</Absolute>
    <NoteOn Channel="4" Note="69" Velocity="0"/>
  </Event>
  <Event>
    <Absolute>23441</Absolute>
    <NoteOn Channel="4" Note="61" Velocity="0"/>
  </Event>
  <Event>
    <Absolute>23442</Absolute>
    <NoteOn Channel="4" Note="65" Velocity="0"/>
  </Event>
  <Event>
    <Absolute>23451</Absolute>
    <NoteOn Channel="4" Note="69" Velocity="78"/>
  </Event>
  <Event>
    <Absolute>23451</Absolute>
    <NoteOn Channel="4" Note="65" Velocity="78"/>
  </Event>
  <Event>
    <Absolute>23451</Absolute>
    <NoteOn Channel="4" Note="61" Velocity="121"/>
  </Event>
  <Event>
    <Absolute>23460</Absolute>
    <NoteOn Channel="4" Note="69" Velocity="0"/>
  </Event>
  <Event>
    <Absolute>23461</Absolute>
    <NoteOn Channel="4" Note="61" Velocity="0"/>
  </Event>
  <Event>
    <Absolute>23461</Absolute>
    <NoteOn Channel="4" Note="65" Velocity="0"/>
  </Event>
  <Event>
    <Absolute>23475</Absolute>
    <NoteOn Channel="4" Note="58" Velocity="101"/>
  </Event>
  <Event>
    <Absolute>23475</Absolute>
    <NoteOn Channel="4" Note="66" Velocity="124"/>
  </Event>
  <Event>
    <Absolute>23476</Absolute>
    <NoteOn Channel="4" Note="62" Velocity="99"/>
  </Event>
  <Event>
    <Absolute>23483</Absolute>
    <NoteOn Channel="4" Note="66" Velocity="0"/>
  </Event>
  <Event>
    <Absolute>23485</Absolute>
    <NoteOn Channel="4" Note="62" Velocity="0"/>
  </Event>
  <Event>
    <Absolute>23485</Absolute>
    <NoteOn Channel="4" Note="58" Velocity="0"/>
  </Event>
  <Event>
    <Absolute>23493</Absolute>
    <NoteOn Channel="4" Note="62" Velocity="65"/>
  </Event>
  <Event>
    <Absolute>23493</Absolute>
    <NoteOn Channel="4" Note="66" Velocity="106"/>
  </Event>
  <Event>
    <Absolute>23495</Absolute>
    <NoteOn Channel="4" Note="58" Velocity="121"/>
  </Event>
  <Event>
    <Absolute>23501</Absolute>
    <NoteOn Channel="4" Note="66" Velocity="0"/>
  </Event>
  <Event>
    <Absolute>23501</Absolute>
    <NoteOn Channel="4" Note="62" Velocity="0"/>
  </Event>
  <Event>
    <Absolute>23503</Absolute>
    <NoteOn Channel="4" Note="58" Velocity="0"/>
  </Event>
  <Event>
    <Absolute>23511</Absolute>
    <NoteOn Channel="4" Note="62" Velocity="75"/>
  </Event>
  <Event>
    <Absolute>23511</Absolute>
    <NoteOn Channel="4" Note="66" Velocity="119"/>
  </Event>
  <Event>
    <Absolute>23513</Absolute>
    <NoteOn Channel="4" Note="58" Velocity="105"/>
  </Event>
  <Event>
    <Absolute>23522</Absolute>
    <NoteOn Channel="4" Note="66" Velocity="0"/>
  </Event>
  <Event>
    <Absolute>23524</Absolute>
    <NoteOn Channel="4" Note="58" Velocity="0"/>
  </Event>
  <Event>
    <Absolute>23524</Absolute>
    <NoteOn Channel="4" Note="62" Velocity="0"/>
  </Event>
  <Event>
    <Absolute>23593</Absolute>
    <NoteOn Channel="4" Note="64" Velocity="96"/>
  </Event>
  <Event>
    <Absolute>23593</Absolute>
    <NoteOn Channel="4" Note="68" Velocity="127"/>
  </Event>
  <Event>
    <Absolute>23594</Absolute>
    <NoteOn Channel="4" Note="60" Velocity="96"/>
  </Event>
  <Event>
    <Absolute>23601</Absolute>
    <NoteOn Channel="4" Note="68" Velocity="0"/>
  </Event>
  <Event>
    <Absolute>23603</Absolute>
    <NoteOn Channel="4" Note="64" Velocity="0"/>
  </Event>
  <Event>
    <Absolute>23604</Absolute>
    <NoteOn Channel="4" Note="60" Velocity="0"/>
  </Event>
  <Event>
    <Absolute>23615</Absolute>
    <NoteOn Channel="4" Note="68" Velocity="95"/>
  </Event>
  <Event>
    <Absolute>23615</Absolute>
    <NoteOn Channel="4" Note="64" Velocity="96"/>
  </Event>
  <Event>
    <Absolute>23615</Absolute>
    <NoteOn Channel="4" Note="60" Velocity="101"/>
  </Event>
  <Event>
    <Absolute>23622</Absolute>
    <NoteOn Channel="4" Note="68" Velocity="0"/>
  </Event>
  <Event>
    <Absolute>23623</Absolute>
    <NoteOn Channel="4" Note="60" Velocity="0"/>
  </Event>
  <Event>
    <Absolute>23624</Absolute>
    <NoteOn Channel="4" Note="64" Velocity="0"/>
  </Event>
  <Event>
    <Absolute>23631</Absolute>
    <NoteOn Channel="4" Note="64" Velocity="96"/>
  </Event>
  <Event>
    <Absolute>23631</Absolute>
    <NoteOn Channel="4" Note="68" Velocity="96"/>
  </Event>
  <Event>
    <Absolute>23632</Absolute>
    <NoteOn Channel="4" Note="60" Velocity="80"/>
  </Event>
  <Event>
    <Absolute>23640</Absolute>
    <NoteOn Channel="4" Note="68" Velocity="0"/>
  </Event>
  <Event>
    <Absolute>23641</Absolute>
    <NoteOn Channel="4" Note="64" Velocity="0"/>
  </Event>
  <Event>
    <Absolute>23642</Absolute>
    <NoteOn Channel="4" Note="60" Velocity="0"/>
  </Event>
  <Event>
    <Absolute>23654</Absolute>
    <NoteOn Channel="4" Note="65" Velocity="91"/>
  </Event>
  <Event>
    <Absolute>23654</Absolute>
    <NoteOn Channel="4" Note="61" Velocity="127"/>
  </Event>
  <Event>
    <Absolute>23655</Absolute>
    <NoteOn Channel="4" Note="69" Velocity="94"/>
  </Event>
  <Event>
    <Absolute>23662</Absolute>
    <NoteOn Channel="4" Note="69" Velocity="0"/>
  </Event>
  <Event>
    <Absolute>23662</Absolute>
    <NoteOn Channel="4" Note="65" Velocity="0"/>
  </Event>
  <Event>
    <Absolute>23664</Absolute>
    <NoteOn Channel="4" Note="61" Velocity="0"/>
  </Event>
  <Event>
    <Absolute>23673</Absolute>
    <NoteOn Channel="4" Note="69" Velocity="86"/>
  </Event>
  <Event>
    <Absolute>23673</Absolute>
    <NoteOn Channel="4" Note="65" Velocity="80"/>
  </Event>
  <Event>
    <Absolute>23675</Absolute>
    <NoteOn Channel="4" Note="61" Velocity="109"/>
  </Event>
  <Event>
    <Absolute>23681</Absolute>
    <NoteOn Channel="4" Note="65" Velocity="0"/>
  </Event>
  <Event>
    <Absolute>23681</Absolute>
    <NoteOn Channel="4" Note="69" Velocity="0"/>
  </Event>
  <Event>
    <Absolute>23683</Absolute>
    <NoteOn Channel="4" Note="61" Velocity="0"/>
  </Event>
  <Event>
    <Absolute>23691</Absolute>
    <NoteOn Channel="4" Note="65" Velocity="80"/>
  </Event>
  <Event>
    <Absolute>23692</Absolute>
    <NoteOn Channel="4" Note="69" Velocity="96"/>
  </Event>
  <Event>
    <Absolute>23692</Absolute>
    <NoteOn Channel="4" Note="61" Velocity="121"/>
  </Event>
  <Event>
    <Absolute>23700</Absolute>
    <NoteOn Channel="4" Note="69" Velocity="0"/>
  </Event>
  <Event>
    <Absolute>23701</Absolute>
    <NoteOn Channel="4" Note="65" Velocity="0"/>
  </Event>
  <Event>
    <Absolute>23702</Absolute>
    <NoteOn Channel="4" Note="61" Velocity="0"/>
  </Event>
  <Event>
    <Absolute>23716</Absolute>
    <NoteOn Channel="4" Note="62" Velocity="101"/>
  </Event>
  <Event>
    <Absolute>23716</Absolute>
    <NoteOn Channel="4" Note="66" Velocity="127"/>
  </Event>
  <Event>
    <Absolute>23718</Absolute>
    <NoteOn Channel="4" Note="58" Velocity="127"/>
  </Event>
  <Event>
    <Absolute>23724</Absolute>
    <NoteOn Channel="4" Note="66" Velocity="0"/>
  </Event>
  <Event>
    <Absolute>23727</Absolute>
    <NoteOn Channel="4" Note="62" Velocity="0"/>
  </Event>
  <Event>
    <Absolute>23728</Absolute>
    <NoteOn Channel="4" Note="58" Velocity="0"/>
  </Event>
  <Event>
    <Absolute>23735</Absolute>
    <NoteOn Channel="4" Note="66" Velocity="124"/>
  </Event>
  <Event>
    <Absolute>23736</Absolute>
    <NoteOn Channel="4" Note="62" Velocity="80"/>
  </Event>
  <Event>
    <Absolute>23736</Absolute>
    <NoteOn Channel="4" Note="58" Velocity="101"/>
  </Event>
  <Event>
    <Absolute>23743</Absolute>
    <NoteOn Channel="4" Note="66" Velocity="0"/>
  </Event>
  <Event>
    <Absolute>23745</Absolute>
    <NoteOn Channel="4" Note="62" Velocity="0"/>
  </Event>
  <Event>
    <Absolute>23747</Absolute>
    <NoteOn Channel="4" Note="58" Velocity="0"/>
  </Event>
  <Event>
    <Absolute>23751</Absolute>
    <NoteOn Channel="4" Note="62" Velocity="75"/>
  </Event>
  <Event>
    <Absolute>23751</Absolute>
    <NoteOn Channel="4" Note="66" Velocity="119"/>
  </Event>
  <Event>
    <Absolute>23753</Absolute>
    <NoteOn Channel="4" Note="58" Velocity="105"/>
  </Event>
  <Event>
    <Absolute>23762</Absolute>
    <NoteOn Channel="4" Note="66" Velocity="0"/>
  </Event>
  <Event>
    <Absolute>23764</Absolute>
    <NoteOn Channel="4" Note="58" Velocity="0"/>
  </Event>
  <Event>
    <Absolute>23764</Absolute>
    <NoteOn Channel="4" Note="62" Velocity="0"/>
  </Event>
  <Event>
    <Absolute>23832</Absolute>
    <NoteOn Channel="4" Note="64" Velocity="109"/>
  </Event>
  <Event>
    <Absolute>23832</Absolute>
    <NoteOn Channel="4" Note="68" Velocity="106"/>
  </Event>
  <Event>
    <Absolute>23833</Absolute>
    <NoteOn Channel="4" Note="72" Velocity="112"/>
  </Event>
  <Event>
    <Absolute>23841</Absolute>
    <NoteOn Channel="4" Note="72" Velocity="0"/>
  </Event>
  <Event>
    <Absolute>23842</Absolute>
    <NoteOn Channel="4" Note="68" Velocity="0"/>
  </Event>
  <Event>
    <Absolute>23843</Absolute>
    <NoteOn Channel="4" Note="64" Velocity="0"/>
  </Event>
  <Event>
    <Absolute>23855</Absolute>
    <NoteOn Channel="4" Note="64" Velocity="101"/>
  </Event>
  <Event>
    <Absolute>23855</Absolute>
    <NoteOn Channel="4" Note="72" Velocity="112"/>
  </Event>
  <Event>
    <Absolute>23855</Absolute>
    <NoteOn Channel="4" Note="68" Velocity="86"/>
  </Event>
  <Event>
    <Absolute>23862</Absolute>
    <NoteOn Channel="4" Note="72" Velocity="0"/>
  </Event>
  <Event>
    <Absolute>23863</Absolute>
    <NoteOn Channel="4" Note="68" Velocity="0"/>
  </Event>
  <Event>
    <Absolute>23865</Absolute>
    <NoteOn Channel="4" Note="64" Velocity="0"/>
  </Event>
  <Event>
    <Absolute>23871</Absolute>
    <NoteOn Channel="4" Note="68" Velocity="91"/>
  </Event>
  <Event>
    <Absolute>23871</Absolute>
    <NoteOn Channel="4" Note="72" Velocity="86"/>
  </Event>
  <Event>
    <Absolute>23873</Absolute>
    <NoteOn Channel="4" Note="64" Velocity="91"/>
  </Event>
  <Event>
    <Absolute>23881</Absolute>
    <NoteOn Channel="4" Note="72" Velocity="0"/>
  </Event>
  <Event>
    <Absolute>23881</Absolute>
    <NoteOn Channel="4" Note="68" Velocity="0"/>
  </Event>
  <Event>
    <Absolute>23883</Absolute>
    <NoteOn Channel="4" Note="64" Velocity="0"/>
  </Event>
  <Event>
    <Absolute>23893</Absolute>
    <NoteOn Channel="4" Note="69" Velocity="70"/>
  </Event>
  <Event>
    <Absolute>23893</Absolute>
    <NoteOn Channel="4" Note="73" Velocity="78"/>
  </Event>
  <Event>
    <Absolute>23894</Absolute>
    <NoteOn Channel="4" Note="65" Velocity="112"/>
  </Event>
  <Event>
    <Absolute>23901</Absolute>
    <NoteOn Channel="4" Note="69" Velocity="0"/>
  </Event>
  <Event>
    <Absolute>23902</Absolute>
    <NoteOn Channel="4" Note="73" Velocity="0"/>
  </Event>
  <Event>
    <Absolute>23903</Absolute>
    <NoteOn Channel="4" Note="65" Velocity="0"/>
  </Event>
  <Event>
    <Absolute>23912</Absolute>
    <NoteOn Channel="4" Note="73" Velocity="75"/>
  </Event>
  <Event>
    <Absolute>23912</Absolute>
    <NoteOn Channel="4" Note="69" Velocity="75"/>
  </Event>
  <Event>
    <Absolute>23913</Absolute>
    <NoteOn Channel="4" Note="65" Velocity="109"/>
  </Event>
  <Event>
    <Absolute>23920</Absolute>
    <NoteOn Channel="4" Note="73" Velocity="0"/>
  </Event>
  <Event>
    <Absolute>23921</Absolute>
    <NoteOn Channel="4" Note="65" Velocity="0"/>
  </Event>
  <Event>
    <Absolute>23922</Absolute>
    <NoteOn Channel="4" Note="69" Velocity="0"/>
  </Event>
  <Event>
    <Absolute>23931</Absolute>
    <NoteOn Channel="4" Note="73" Velocity="78"/>
  </Event>
  <Event>
    <Absolute>23931</Absolute>
    <NoteOn Channel="4" Note="69" Velocity="78"/>
  </Event>
  <Event>
    <Absolute>23931</Absolute>
    <NoteOn Channel="4" Note="65" Velocity="121"/>
  </Event>
  <Event>
    <Absolute>23940</Absolute>
    <NoteOn Channel="4" Note="73" Velocity="0"/>
  </Event>
  <Event>
    <Absolute>23941</Absolute>
    <NoteOn Channel="4" Note="65" Velocity="0"/>
  </Event>
  <Event>
    <Absolute>23941</Absolute>
    <NoteOn Channel="4" Note="69" Velocity="0"/>
  </Event>
  <Event>
    <Absolute>23955</Absolute>
    <NoteOn Channel="4" Note="62" Velocity="101"/>
  </Event>
  <Event>
    <Absolute>23955</Absolute>
    <NoteOn Channel="4" Note="70" Velocity="124"/>
  </Event>
  <Event>
    <Absolute>23956</Absolute>
    <NoteOn Channel="4" Note="66" Velocity="99"/>
  </Event>
  <Event>
    <Absolute>23963</Absolute>
    <NoteOn Channel="4" Note="70" Velocity="0"/>
  </Event>
  <Event>
    <Absolute>23965</Absolute>
    <NoteOn Channel="4" Note="66" Velocity="0"/>
  </Event>
  <Event>
    <Absolute>23965</Absolute>
    <NoteOn Channel="4" Note="62" Velocity="0"/>
  </Event>
  <Event>
    <Absolute>23973</Absolute>
    <NoteOn Channel="4" Note="66" Velocity="65"/>
  </Event>
  <Event>
    <Absolute>23973</Absolute>
    <NoteOn Channel="4" Note="70" Velocity="106"/>
  </Event>
  <Event>
    <Absolute>23975</Absolute>
    <NoteOn Channel="4" Note="62" Velocity="121"/>
  </Event>
  <Event>
    <Absolute>23981</Absolute>
    <NoteOn Channel="4" Note="70" Velocity="0"/>
  </Event>
  <Event>
    <Absolute>23981</Absolute>
    <NoteOn Channel="4" Note="66" Velocity="0"/>
  </Event>
  <Event>
    <Absolute>23983</Absolute>
    <NoteOn Channel="4" Note="62" Velocity="0"/>
  </Event>
  <Event>
    <Absolute>23991</Absolute>
    <NoteOn Channel="4" Note="66" Velocity="75"/>
  </Event>
  <Event>
    <Absolute>23991</Absolute>
    <NoteOn Channel="4" Note="70" Velocity="119"/>
  </Event>
  <Event>
    <Absolute>23993</Absolute>
    <NoteOn Channel="4" Note="62" Velocity="105"/>
  </Event>
  <Event>
    <Absolute>24002</Absolute>
    <NoteOn Channel="4" Note="70" Velocity="0"/>
  </Event>
  <Event>
    <Absolute>24004</Absolute>
    <NoteOn Channel="4" Note="62" Velocity="0"/>
  </Event>
  <Event>
    <Absolute>24004</Absolute>
    <NoteOn Channel="4" Note="66" Velocity="0"/>
  </Event>
  <Event>
    <Absolute>24073</Absolute>
    <NoteOn Channel="4" Note="68" Velocity="96"/>
  </Event>
  <Event>
    <Absolute>24073</Absolute>
    <NoteOn Channel="4" Note="72" Velocity="127"/>
  </Event>
  <Event>
    <Absolute>24074</Absolute>
    <NoteOn Channel="4" Note="64" Velocity="96"/>
  </Event>
  <Event>
    <Absolute>24083</Absolute>
    <NoteOn Channel="4" Note="72" Velocity="0"/>
  </Event>
  <Event>
    <Absolute>24084</Absolute>
    <NoteOn Channel="4" Note="68" Velocity="0"/>
  </Event>
  <Event>
    <Absolute>24085</Absolute>
    <NoteOn Channel="4" Note="64" Velocity="0"/>
  </Event>
  <Event>
    <Absolute>24095</Absolute>
    <NoteOn Channel="4" Note="72" Velocity="95"/>
  </Event>
  <Event>
    <Absolute>24095</Absolute>
    <NoteOn Channel="4" Note="68" Velocity="96"/>
  </Event>
  <Event>
    <Absolute>24095</Absolute>
    <NoteOn Channel="4" Note="64" Velocity="101"/>
  </Event>
  <Event>
    <Absolute>24103</Absolute>
    <NoteOn Channel="4" Note="72" Velocity="0"/>
  </Event>
  <Event>
    <Absolute>24105</Absolute>
    <NoteOn Channel="4" Note="64" Velocity="0"/>
  </Event>
  <Event>
    <Absolute>24106</Absolute>
    <NoteOn Channel="4" Note="68" Velocity="0"/>
  </Event>
  <Event>
    <Absolute>24111</Absolute>
    <NoteOn Channel="4" Note="68" Velocity="96"/>
  </Event>
  <Event>
    <Absolute>24111</Absolute>
    <NoteOn Channel="4" Note="72" Velocity="96"/>
  </Event>
  <Event>
    <Absolute>24112</Absolute>
    <NoteOn Channel="4" Note="64" Velocity="80"/>
  </Event>
  <Event>
    <Absolute>24122</Absolute>
    <NoteOn Channel="4" Note="72" Velocity="0"/>
  </Event>
  <Event>
    <Absolute>24123</Absolute>
    <NoteOn Channel="4" Note="68" Velocity="0"/>
  </Event>
  <Event>
    <Absolute>24124</Absolute>
    <NoteOn Channel="4" Note="64" Velocity="0"/>
  </Event>
  <Event>
    <Absolute>24134</Absolute>
    <NoteOn Channel="4" Note="69" Velocity="91"/>
  </Event>
  <Event>
    <Absolute>24134</Absolute>
    <NoteOn Channel="4" Note="65" Velocity="127"/>
  </Event>
  <Event>
    <Absolute>24135</Absolute>
    <NoteOn Channel="4" Note="73" Velocity="94"/>
  </Event>
  <Event>
    <Absolute>24144</Absolute>
    <NoteOn Channel="4" Note="73" Velocity="0"/>
  </Event>
  <Event>
    <Absolute>24144</Absolute>
    <NoteOn Channel="4" Note="69" Velocity="0"/>
  </Event>
  <Event>
    <Absolute>24145</Absolute>
    <NoteOn Channel="4" Note="65" Velocity="0"/>
  </Event>
  <Event>
    <Absolute>24153</Absolute>
    <NoteOn Channel="4" Note="73" Velocity="86"/>
  </Event>
  <Event>
    <Absolute>24153</Absolute>
    <NoteOn Channel="4" Note="69" Velocity="80"/>
  </Event>
  <Event>
    <Absolute>24155</Absolute>
    <NoteOn Channel="4" Note="65" Velocity="109"/>
  </Event>
  <Event>
    <Absolute>24163</Absolute>
    <NoteOn Channel="4" Note="69" Velocity="0"/>
  </Event>
  <Event>
    <Absolute>24163</Absolute>
    <NoteOn Channel="4" Note="73" Velocity="0"/>
  </Event>
  <Event>
    <Absolute>24164</Absolute>
    <NoteOn Channel="4" Note="65" Velocity="0"/>
  </Event>
  <Event>
    <Absolute>24171</Absolute>
    <NoteOn Channel="4" Note="69" Velocity="80"/>
  </Event>
  <Event>
    <Absolute>24172</Absolute>
    <NoteOn Channel="4" Note="73" Velocity="96"/>
  </Event>
  <Event>
    <Absolute>24172</Absolute>
    <NoteOn Channel="4" Note="65" Velocity="121"/>
  </Event>
  <Event>
    <Absolute>24182</Absolute>
    <NoteOn Channel="4" Note="73" Velocity="0"/>
  </Event>
  <Event>
    <Absolute>24183</Absolute>
    <NoteOn Channel="4" Note="69" Velocity="0"/>
  </Event>
  <Event>
    <Absolute>24184</Absolute>
    <NoteOn Channel="4" Note="65" Velocity="0"/>
  </Event>
  <Event>
    <Absolute>24196</Absolute>
    <NoteOn Channel="4" Note="66" Velocity="101"/>
  </Event>
  <Event>
    <Absolute>24196</Absolute>
    <NoteOn Channel="4" Note="70" Velocity="127"/>
  </Event>
  <Event>
    <Absolute>24198</Absolute>
    <NoteOn Channel="4" Note="62" Velocity="127"/>
  </Event>
  <Event>
    <Absolute>24206</Absolute>
    <NoteOn Channel="4" Note="70" Velocity="0"/>
  </Event>
  <Event>
    <Absolute>24209</Absolute>
    <NoteOn Channel="4" Note="62" Velocity="0"/>
  </Event>
  <Event>
    <Absolute>24209</Absolute>
    <NoteOn Channel="4" Note="66" Velocity="0"/>
  </Event>
  <Event>
    <Absolute>24215</Absolute>
    <NoteOn Channel="4" Note="70" Velocity="124"/>
  </Event>
  <Event>
    <Absolute>24216</Absolute>
    <NoteOn Channel="4" Note="66" Velocity="80"/>
  </Event>
  <Event>
    <Absolute>24216</Absolute>
    <NoteOn Channel="4" Note="62" Velocity="101"/>
  </Event>
  <Event>
    <Absolute>24225</Absolute>
    <NoteOn Channel="4" Note="70" Velocity="0"/>
  </Event>
  <Event>
    <Absolute>24227</Absolute>
    <NoteOn Channel="4" Note="66" Velocity="0"/>
  </Event>
  <Event>
    <Absolute>24229</Absolute>
    <NoteOn Channel="4" Note="62" Velocity="0"/>
  </Event>
  <Event>
    <Absolute>24233</Absolute>
    <NoteOn Channel="4" Note="66" Velocity="96"/>
  </Event>
  <Event>
    <Absolute>24233</Absolute>
    <NoteOn Channel="4" Note="70" Velocity="114"/>
  </Event>
  <Event>
    <Absolute>24234</Absolute>
    <NoteOn Channel="4" Note="62" Velocity="127"/>
  </Event>
  <Event>
    <Absolute>24246</Absolute>
    <NoteOn Channel="4" Note="70" Velocity="0"/>
  </Event>
  <Event>
    <Absolute>24247</Absolute>
    <NoteOn Channel="4" Note="62" Velocity="0"/>
  </Event>
  <Event>
    <Absolute>24248</Absolute>
    <NoteOn Channel="4" Note="66" Velocity="0"/>
  </Event>
  <Event>
    <Absolute>24261</Absolute>
    <NoteOn Channel="4" Note="67" Velocity="112"/>
  </Event>
  <Event>
    <Absolute>24261</Absolute>
    <NoteOn Channel="4" Note="72" Velocity="119"/>
  </Event>
  <Event>
    <Absolute>24262</Absolute>
    <NoteOn Channel="4" Note="60" Velocity="109"/>
  </Event>
  <Event>
    <Absolute>24311</Absolute>
    <NoteOn Channel="4" Note="72" Velocity="0"/>
  </Event>
  <Event>
    <Absolute>24311</Absolute>
    <NoteOn Channel="4" Note="67" Velocity="0"/>
  </Event>
  <Event>
    <Absolute>24312</Absolute>
    <NoteOn Channel="4" Note="60" Velocity="0"/>
  </Event>
  <Event>
    <Absolute>24376</Absolute>
    <NoteOn Channel="4" Note="67" Velocity="127"/>
  </Event>
  <Event>
    <Absolute>24376</Absolute>
    <NoteOn Channel="4" Note="60" Velocity="114"/>
  </Event>
  <Event>
    <Absolute>24378</Absolute>
    <NoteOn Channel="4" Note="72" Velocity="114"/>
  </Event>
  <Event>
    <Absolute>24401</Absolute>
    <NoteOn Channel="4" Note="72" Velocity="0"/>
  </Event>
  <Event>
    <Absolute>24401</Absolute>
    <NoteOn Channel="4" Note="67" Velocity="0"/>
  </Event>
  <Event>
    <Absolute>24404</Absolute>
    <NoteOn Channel="4" Note="60" Velocity="0"/>
  </Event>
  <Event>
    <Absolute>24439</Absolute>
    <NoteOn Channel="4" Note="72" Velocity="121"/>
  </Event>
  <Event>
    <Absolute>24440</Absolute>
    <NoteOn Channel="4" Note="67" Velocity="105"/>
  </Event>
  <Event>
    <Absolute>24441</Absolute>
    <NoteOn Channel="4" Note="60" Velocity="122"/>
  </Event>
  <Event>
    <Absolute>24489</Absolute>
    <NoteOn Channel="4" Note="72" Velocity="0"/>
  </Event>
  <Event>
    <Absolute>24490</Absolute>
    <NoteOn Channel="4" Note="67" Velocity="0"/>
  </Event>
  <Event>
    <Absolute>24491</Absolute>
    <NoteOn Channel="4" Note="60" Velocity="0"/>
  </Event>
  <Event>
    <Absolute>24555</Absolute>
    <NoteOn Channel="4" Note="67" Velocity="124"/>
  </Event>
  <Event>
    <Absolute>24556</Absolute>
    <NoteOn Channel="4" Note="72" Velocity="127"/>
  </Event>
  <Event>
    <Absolute>24557</Absolute>
    <NoteOn Channel="4" Note="60" Velocity="112"/>
  </Event>
  <Event>
    <Absolute>24605</Absolute>
    <NoteOn Channel="4" Note="67" Velocity="0"/>
  </Event>
  <Event>
    <Absolute>24606</Absolute>
    <NoteOn Channel="4" Note="72" Velocity="0"/>
  </Event>
  <Event>
    <Absolute>24607</Absolute>
    <NoteOn Channel="4" Note="60" Velocity="0"/>
  </Event>
  <Event>
    <Absolute>24673</Absolute>
    <NoteOn Channel="4" Note="60" Velocity="127"/>
  </Event>
  <Event>
    <Absolute>24673</Absolute>
    <NoteOn Channel="4" Note="67" Velocity="127"/>
  </Event>
  <Event>
    <Absolute>24673</Absolute>
    <NoteOn Channel="4" Note="72" Velocity="127"/>
  </Event>
  <Event>
    <Absolute>24723</Absolute>
    <NoteOn Channel="4" Note="72" Velocity="0"/>
  </Event>
  <Event>
    <Absolute>24723</Absolute>
    <NoteOn Channel="4" Note="67" Velocity="0"/>
  </Event>
  <Event>
    <Absolute>24723</Absolute>
    <NoteOn Channel="4" Note="60" Velocity="0"/>
  </Event>
  <Event>
    <Absolute>31228</Absolute>
    <NoteOn Channel="4" Note="74" Velocity="97"/>
  </Event>
  <Event>
    <Absolute>31276</Absolute>
    <NoteOn Channel="4" Note="74" Velocity="0"/>
  </Event>
  <Event>
    <Absolute>31348</Absolute>
    <NoteOn Channel="4" Note="81" Velocity="95"/>
  </Event>
  <Event>
    <Absolute>31388</Absolute>
    <NoteOn Channel="4" Note="81" Velocity="0"/>
  </Event>
  <Event>
    <Absolute>31459</Absolute>
    <NoteOn Channel="4" Note="79" Velocity="81"/>
  </Event>
  <Event>
    <Absolute>31487</Absolute>
    <NoteOn Channel="4" Note="79" Velocity="0"/>
  </Event>
  <Event>
    <Absolute>31501</Absolute>
    <NoteOn Channel="4" Note="78" Velocity="73"/>
  </Event>
  <Event>
    <Absolute>31530</Absolute>
    <NoteOn Channel="4" Note="78" Velocity="0"/>
  </Event>
  <Event>
    <Absolute>31538</Absolute>
    <NoteOn Channel="4" Note="76" Velocity="84"/>
  </Event>
  <Event>
    <Absolute>31563</Absolute>
    <NoteOn Channel="4" Note="76" Velocity="0"/>
  </Event>
  <Event>
    <Absolute>31580</Absolute>
    <NoteOn Channel="4" Note="86" Velocity="107"/>
  </Event>
  <Event>
    <Absolute>31627</Absolute>
    <NoteOn Channel="4" Note="86" Velocity="0"/>
  </Event>
  <Event>
    <Absolute>31710</Absolute>
    <NoteOn Channel="4" Note="81" Velocity="88"/>
  </Event>
  <Event>
    <Absolute>32006</Absolute>
    <NoteOn Channel="4" Note="81" Velocity="0"/>
  </Event>
  <Event>
    <Absolute>32288</Absolute>
    <NoteOn Channel="4" Note="67" Velocity="117"/>
  </Event>
  <Event>
    <Absolute>32299</Absolute>
    <NoteOn Channel="4" Note="67" Velocity="0"/>
  </Event>
  <Event>
    <Absolute>32322</Absolute>
    <NoteOn Channel="4" Note="66" Velocity="100"/>
  </Event>
  <Event>
    <Absolute>32343</Absolute>
    <NoteOn Channel="4" Note="66" Velocity="0"/>
  </Event>
  <Event>
    <Absolute>32355</Absolute>
    <NoteOn Channel="4" Note="64" Velocity="110"/>
  </Event>
  <Event>
    <Absolute>32369</Absolute>
    <NoteOn Channel="4" Note="64" Velocity="0"/>
  </Event>
  <Event>
    <Absolute>32411</Absolute>
    <NoteOn Channel="4" Note="69" Velocity="119"/>
  </Event>
  <Event>
    <Absolute>32442</Absolute>
    <NoteOn Channel="4" Note="69" Velocity="0"/>
  </Event>
  <Event>
    <Absolute>32528</Absolute>
    <NoteOn Channel="4" Note="67" Velocity="117"/>
  </Event>
  <Event>
    <Absolute>32539</Absolute>
    <NoteOn Channel="4" Note="67" Velocity="0"/>
  </Event>
  <Event>
    <Absolute>32565</Absolute>
    <NoteOn Channel="4" Note="66" Velocity="97"/>
  </Event>
  <Event>
    <Absolute>32585</Absolute>
    <NoteOn Channel="4" Note="66" Velocity="0"/>
  </Event>
  <Event>
    <Absolute>32601</Absolute>
    <NoteOn Channel="4" Note="64" Velocity="103"/>
  </Event>
  <Event>
    <Absolute>32612</Absolute>
    <NoteOn Channel="4" Note="64" Velocity="0"/>
  </Event>
  <Event>
    <Absolute>32653</Absolute>
    <NoteOn Channel="4" Note="74" Velocity="96"/>
  </Event>
  <Event>
    <Absolute>32696</Absolute>
    <NoteOn Channel="4" Note="74" Velocity="0"/>
  </Event>
  <Event>
    <Absolute>32783</Absolute>
    <NoteOn Channel="4" Note="69" Velocity="117"/>
  </Event>
  <Event>
    <Absolute>32818</Absolute>
    <NoteOn Channel="4" Note="69" Velocity="0"/>
  </Event>
  <Event>
    <Absolute>32874</Absolute>
    <NoteOn Channel="4" Note="74" Velocity="70"/>
  </Event>
  <Event>
    <Absolute>32879</Absolute>
    <NoteOn Channel="4" Note="69" Velocity="102"/>
  </Event>
  <Event>
    <Absolute>32889</Absolute>
    <NoteOn Channel="4" Note="74" Velocity="0"/>
  </Event>
  <Event>
    <Absolute>32895</Absolute>
    <NoteOn Channel="4" Note="81" Velocity="96"/>
  </Event>
  <Event>
    <Absolute>32912</Absolute>
    <NoteOn Channel="4" Note="69" Velocity="0"/>
  </Event>
  <Event>
    <Absolute>32919</Absolute>
    <NoteOn Channel="4" Note="74" Velocity="106"/>
  </Event>
  <Event>
    <Absolute>32929</Absolute>
    <NoteOn Channel="4" Note="81" Velocity="0"/>
  </Event>
  <Event>
    <Absolute>32937</Absolute>
    <NoteOn Channel="4" Note="74" Velocity="0"/>
  </Event>
  <Event>
    <Absolute>33005</Absolute>
    <NoteOn Channel="4" Note="74" Velocity="62"/>
  </Event>
  <Event>
    <Absolute>33006</Absolute>
    <NoteOn Channel="4" Note="69" Velocity="92"/>
  </Event>
  <Event>
    <Absolute>33020</Absolute>
    <NoteOn Channel="4" Note="69" Velocity="0"/>
  </Event>
  <Event>
    <Absolute>33020</Absolute>
    <NoteOn Channel="4" Note="74" Velocity="0"/>
  </Event>
  <Event>
    <Absolute>33020</Absolute>
    <NoteOn Channel="4" Note="81" Velocity="95"/>
  </Event>
  <Event>
    <Absolute>33028</Absolute>
    <NoteOn Channel="4" Note="74" Velocity="110"/>
  </Event>
  <Event>
    <Absolute>33059</Absolute>
    <NoteOn Channel="4" Note="74" Velocity="0"/>
  </Event>
  <Event>
    <Absolute>33060</Absolute>
    <NoteOn Channel="4" Note="81" Velocity="0"/>
  </Event>
  <Event>
    <Absolute>33115</Absolute>
    <NoteOn Channel="4" Note="69" Velocity="63"/>
  </Event>
  <Event>
    <Absolute>33131</Absolute>
    <NoteOn Channel="4" Note="69" Velocity="0"/>
  </Event>
  <Event>
    <Absolute>33135</Absolute>
    <NoteOn Channel="4" Note="79" Velocity="80"/>
  </Event>
  <Event>
    <Absolute>33139</Absolute>
    <NoteOn Channel="4" Note="74" Velocity="94"/>
  </Event>
  <Event>
    <Absolute>33169</Absolute>
    <NoteOn Channel="4" Note="74" Velocity="0"/>
  </Event>
  <Event>
    <Absolute>33175</Absolute>
    <NoteOn Channel="4" Note="78" Velocity="88"/>
  </Event>
  <Event>
    <Absolute>33178</Absolute>
    <NoteOn Channel="4" Note="79" Velocity="0"/>
  </Event>
  <Event>
    <Absolute>33197</Absolute>
    <NoteOn Channel="4" Note="78" Velocity="0"/>
  </Event>
  <Event>
    <Absolute>33206</Absolute>
    <NoteOn Channel="4" Note="76" Velocity="88"/>
  </Event>
  <Event>
    <Absolute>33231</Absolute>
    <NoteOn Channel="4" Note="76" Velocity="0"/>
  </Event>
  <Event>
    <Absolute>33258</Absolute>
    <NoteOn Channel="4" Note="86" Velocity="110"/>
  </Event>
  <Event>
    <Absolute>33321</Absolute>
    <NoteOn Channel="4" Note="86" Velocity="0"/>
  </Event>
  <Event>
    <Absolute>33390</Absolute>
    <NoteOn Channel="4" Note="81" Velocity="80"/>
  </Event>
  <Event>
    <Absolute>33487</Absolute>
    <NoteOn Channel="4" Note="74" Velocity="56"/>
  </Event>
  <Event>
    <Absolute>33502</Absolute>
    <NoteOn Channel="4" Note="74" Velocity="0"/>
  </Event>
  <Event>
    <Absolute>33535</Absolute>
    <NoteOn Channel="4" Note="69" Velocity="114"/>
  </Event>
  <Event>
    <Absolute>33551</Absolute>
    <NoteOn Channel="4" Note="69" Velocity="0"/>
  </Event>
  <Event>
    <Absolute>33571</Absolute>
    <NoteOn Channel="4" Note="74" Velocity="112"/>
  </Event>
  <Event>
    <Absolute>33586</Absolute>
    <NoteOn Channel="4" Note="74" Velocity="0"/>
  </Event>
  <Event>
    <Absolute>33611</Absolute>
    <NoteOn Channel="4" Note="76" Velocity="105"/>
  </Event>
  <Event>
    <Absolute>33692</Absolute>
    <NoteOn Channel="4" Note="76" Velocity="0"/>
  </Event>
  <Event>
    <Absolute>33733</Absolute>
    <NoteOn Channel="4" Note="74" Velocity="127"/>
  </Event>
  <Event>
    <Absolute>33748</Absolute>
    <NoteOn Channel="4" Note="74" Velocity="0"/>
  </Event>
  <Event>
    <Absolute>33784</Absolute>
    <NoteOn Channel="4" Note="69" Velocity="95"/>
  </Event>
  <Event>
    <Absolute>33805</Absolute>
    <NoteOn Channel="4" Note="69" Velocity="0"/>
  </Event>
  <Event>
    <Absolute>33815</Absolute>
    <NoteOn Channel="4" Note="74" Velocity="113"/>
  </Event>
  <Event>
    <Absolute>33832</Absolute>
    <NoteOn Channel="4" Note="74" Velocity="0"/>
  </Event>
  <Event>
    <Absolute>33855</Absolute>
    <NoteOn Channel="4" Note="83" Velocity="109"/>
  </Event>
  <Event>
    <Absolute>33856</Absolute>
    <NoteOn Channel="4" Note="81" Velocity="0"/>
  </Event>
  <Event>
    <Absolute>33857</Absolute>
    <NoteOn Channel="4" Note="78" Velocity="123"/>
  </Event>
  <Event>
    <Absolute>34279</Absolute>
    <NoteOn Channel="4" Note="78" Velocity="0"/>
  </Event>
  <Event>
    <Absolute>34280</Absolute>
    <NoteOn Channel="4" Note="83" Velocity="0"/>
  </Event>
  <Event>
    <Absolute>36850</Absolute>
    <NoteOn Channel="4" Note="58" Velocity="121"/>
  </Event>
  <Event>
    <Absolute>36888</Absolute>
    <NoteOn Channel="4" Note="58" Velocity="0"/>
  </Event>
  <Event>
    <Absolute>36970</Absolute>
    <NoteOn Channel="4" Note="58" Velocity="103"/>
  </Event>
  <Event>
    <Absolute>37172</Absolute>
    <NoteOn Channel="4" Note="58" Velocity="0"/>
  </Event>
  <Event>
    <Absolute>37210</Absolute>
    <NoteOn Channel="4" Note="58" Velocity="110"/>
  </Event>
  <Event>
    <Absolute>37245</Absolute>
    <NoteOn Channel="4" Note="58" Velocity="0"/>
  </Event>
  <Event>
    <Absolute>37330</Absolute>
    <NoteOn Channel="4" Note="58" Velocity="111"/>
  </Event>
  <Event>
    <Absolute>37368</Absolute>
    <NoteOn Channel="4" Note="58" Velocity="0"/>
  </Event>
  <Event>
    <Absolute>37450</Absolute>
    <NoteOn Channel="4" Note="58" Velocity="110"/>
  </Event>
  <Event>
    <Absolute>37659</Absolute>
    <NoteOn Channel="4" Note="58" Velocity="0"/>
  </Event>
  <Event>
    <Absolute>37690</Absolute>
    <NoteOn Channel="4" Note="58" Velocity="113"/>
  </Event>
  <Event>
    <Absolute>37733</Absolute>
    <NoteOn Channel="4" Note="58" Velocity="0"/>
  </Event>
  <Event>
    <Absolute>37810</Absolute>
    <NoteOn Channel="4" Note="58" Velocity="111"/>
  </Event>
  <Event>
    <Absolute>37853</Absolute>
    <NoteOn Channel="4" Note="58" Velocity="0"/>
  </Event>
  <Event>
    <Absolute>37930</Absolute>
    <NoteOn Channel="4" Note="58" Velocity="109"/>
  </Event>
  <Event>
    <Absolute>38133</Absolute>
    <NoteOn Channel="4" Note="58" Velocity="0"/>
  </Event>
  <Event>
    <Absolute>38170</Absolute>
    <NoteOn Channel="4" Note="58" Velocity="112"/>
  </Event>
  <Event>
    <Absolute>38215</Absolute>
    <NoteOn Channel="4" Note="58" Velocity="0"/>
  </Event>
  <Event>
    <Absolute>38290</Absolute>
    <NoteOn Channel="4" Note="58" Velocity="110"/>
  </Event>
  <Event>
    <Absolute>38331</Absolute>
    <NoteOn Channel="4" Note="58" Velocity="0"/>
  </Event>
  <Event>
    <Absolute>38410</Absolute>
    <NoteOn Channel="4" Note="58" Velocity="106"/>
  </Event>
  <Event>
    <Absolute>38600</Absolute>
    <NoteOn Channel="4" Note="58" Velocity="0"/>
  </Event>
  <Event>
    <Absolute>38650</Absolute>
    <NoteOn Channel="4" Note="58" Velocity="111"/>
  </Event>
  <Event>
    <Absolute>38701</Absolute>
    <NoteOn Channel="4" Note="58" Velocity="0"/>
  </Event>
  <Event>
    <Absolute>42253</Absolute>
    <NoteOn Channel="4" Note="75" Velocity="127"/>
  </Event>
  <Event>
    <Absolute>42314</Absolute>
    <NoteOn Channel="4" Note="75" Velocity="0"/>
  </Event>
  <Event>
    <Absolute>42370</Absolute>
    <NoteOn Channel="4" Note="70" Velocity="127"/>
  </Event>
  <Event>
    <Absolute>42455</Absolute>
    <NoteOn Channel="4" Note="70" Velocity="0"/>
  </Event>
  <Event>
    <Absolute>42484</Absolute>
    <NoteOn Channel="4" Note="68" Velocity="127"/>
  </Event>
  <Event>
    <Absolute>42510</Absolute>
    <NoteOn Channel="4" Note="68" Velocity="0"/>
  </Event>
  <Event>
    <Absolute>42521</Absolute>
    <NoteOn Channel="4" Note="67" Velocity="127"/>
  </Event>
  <Event>
    <Absolute>42544</Absolute>
    <NoteOn Channel="4" Note="67" Velocity="0"/>
  </Event>
  <Event>
    <Absolute>42561</Absolute>
    <NoteOn Channel="4" Note="65" Velocity="127"/>
  </Event>
  <Event>
    <Absolute>42580</Absolute>
    <NoteOn Channel="4" Note="65" Velocity="0"/>
  </Event>
  <Event>
    <Absolute>42618</Absolute>
    <NoteOn Channel="4" Note="72" Velocity="127"/>
  </Event>
  <Event>
    <Absolute>42970</Absolute>
    <NoteOn Channel="4" Note="74" Velocity="127"/>
  </Event>
  <Event>
    <Absolute>42974</Absolute>
    <NoteOn Channel="4" Note="72" Velocity="0"/>
  </Event>
  <Event>
    <Absolute>43040</Absolute>
    <NoteOn Channel="4" Note="74" Velocity="0"/>
  </Event>
  <Event>
    <Absolute>43061</Absolute>
    <NoteOn Channel="4" Note="81" Velocity="127"/>
  </Event>
  <Event>
    <Absolute>43076</Absolute>
    <NoteOn Channel="4" Note="81" Velocity="0"/>
  </Event>
  <Event>
    <Absolute>43094</Absolute>
    <NoteOn Channel="4" Note="81" Velocity="127"/>
  </Event>
  <Event>
    <Absolute>43340</Absolute>
    <NoteOn Channel="4" Note="81" Velocity="0"/>
  </Event>
  <Event>
    <Absolute>44900</Absolute>
    <NoteOn Channel="4" Note="84" Velocity="127"/>
  </Event>
  <Event>
    <Absolute>44916</Absolute>
    <NoteOn Channel="4" Note="84" Velocity="0"/>
  </Event>
  <Event>
    <Absolute>44943</Absolute>
    <NoteOn Channel="4" Note="83" Velocity="127"/>
  </Event>
  <Event>
    <Absolute>44958</Absolute>
    <NoteOn Channel="4" Note="83" Velocity="0"/>
  </Event>
  <Event>
    <Absolute>44973</Absolute>
    <NoteOn Channel="4" Note="81" Velocity="127"/>
  </Event>
  <Event>
    <Absolute>44989</Absolute>
    <NoteOn Channel="4" Note="81" Velocity="0"/>
  </Event>
  <Event>
    <Absolute>45013</Absolute>
    <NoteOn Channel="4" Note="86" Velocity="127"/>
  </Event>
  <Event>
    <Absolute>45020</Absolute>
    <NoteOn Channel="4" Note="93" Velocity="100"/>
  </Event>
  <Event>
    <Absolute>45120</Absolute>
    <NoteOn Channel="4" Note="86" Velocity="0"/>
  </Event>
  <Event>
    <Absolute>45125</Absolute>
    <NoteOn Channel="4" Note="93" Velocity="0"/>
  </Event>
  <Event>
    <Absolute>45130</Absolute>
    <NoteOn Channel="4" Note="74" Velocity="127"/>
  </Event>
  <Event>
    <Absolute>45140</Absolute>
    <NoteOn Channel="4" Note="74" Velocity="0"/>
  </Event>
  <Event>
    <Absolute>45170</Absolute>
    <NoteOn Channel="4" Note="74" Velocity="127"/>
  </Event>
  <Event>
    <Absolute>45186</Absolute>
    <NoteOn Channel="4" Note="74" Velocity="0"/>
  </Event>
  <Event>
    <Absolute>45210</Absolute>
    <NoteOn Channel="4" Note="74" Velocity="127"/>
  </Event>
  <Event>
    <Absolute>45224</Absolute>
    <NoteOn Channel="4" Note="74" Velocity="0"/>
  </Event>
  <Event>
    <Absolute>45250</Absolute>
    <NoteOn Channel="4" Note="74" Velocity="127"/>
  </Event>
  <Event>
    <Absolute>45284</Absolute>
    <NoteOn Channel="4" Note="74" Velocity="0"/>
  </Event>
  <Event>
    <Absolute>45284</Absolute>
    <EndOfTrack/>
  </Event>
</Track>
<Track Number="5">
  <Event>
    <Absolute>0</Absolute>
    <MIDIChannelPrefix Value="01"/>
  </Event>
  <Event>
    <Absolute>0</Absolute>
    <ProgramChange Channel="5" Number="57"/>
  </Event>
  <Event>
    <Absolute>0</Absolute>
    <ControlChange Channel="5" Control="7" Value="125"/>
  </Event>
  <Event>
    <Absolute>0</Absolute>
    <ControlChange Channel="5" Control="10" Value="38"/>
  </Event>
  <Event>
    <Absolute>8</Absolute>
    <ControlChange Channel="5" Control="18" Value="64"/>
  </Event>
  <Event>
    <Absolute>480</Absolute>
    <NoteOn Channel="5" Note="58" Velocity="114"/>
  </Event>
  <Event>
    <Absolute>643</Absolute>
    <NoteOn Channel="5" Note="58" Velocity="0"/>
  </Event>
  <Event>
    <Absolute>660</Absolute>
    <NoteOn Channel="5" Note="58" Velocity="114"/>
  </Event>
  <Event>
    <Absolute>675</Absolute>
    <NoteOn Channel="5" Note="58" Velocity="0"/>
  </Event>
  <Event>
    <Absolute>676</Absolute>
    <NoteOn Channel="5" Note="58" Velocity="114"/>
  </Event>
  <Event>
    <Absolute>689</Absolute>
    <NoteOn Channel="5" Note="58" Velocity="0"/>
  </Event>
  <Event>
    <Absolute>692</Absolute>
    <NoteOn Channel="5" Note="58" Velocity="114"/>
  </Event>
  <Event>
    <Absolute>705</Absolute>
    <NoteOn Channel="5" Note="58" Velocity="0"/>
  </Event>
  <Event>
    <Absolute>708</Absolute>
    <NoteOn Channel="5" Note="58" Velocity="114"/>
  </Event>
  <Event>
    <Absolute>720</Absolute>
    <NoteOn Channel="5" Note="58" Velocity="0"/>
  </Event>
  <Event>
    <Absolute>722</Absolute>
    <NoteOn Channel="5" Note="58" Velocity="114"/>
  </Event>
  <Event>
    <Absolute>867</Absolute>
    <NoteOn Channel="5" Note="58" Velocity="0"/>
  </Event>
  <Event>
    <Absolute>900</Absolute>
    <NoteOn Channel="5" Note="58" Velocity="114"/>
  </Event>
  <Event>
    <Absolute>915</Absolute>
    <NoteOn Channel="5" Note="58" Velocity="0"/>
  </Event>
  <Event>
    <Absolute>916</Absolute>
    <NoteOn Channel="5" Note="58" Velocity="114"/>
  </Event>
  <Event>
    <Absolute>929</Absolute>
    <NoteOn Channel="5" Note="58" Velocity="0"/>
  </Event>
  <Event>
    <Absolute>932</Absolute>
    <NoteOn Channel="5" Note="58" Velocity="114"/>
  </Event>
  <Event>
    <Absolute>945</Absolute>
    <NoteOn Channel="5" Note="58" Velocity="0"/>
  </Event>
  <Event>
    <Absolute>948</Absolute>
    <NoteOn Channel="5" Note="58" Velocity="114"/>
  </Event>
  <Event>
    <Absolute>960</Absolute>
    <NoteOn Channel="5" Note="58" Velocity="0"/>
  </Event>
  <Event>
    <Absolute>962</Absolute>
    <NoteOn Channel="5" Note="58" Velocity="114"/>
  </Event>
  <Event>
    <Absolute>982</Absolute>
    <NoteOn Channel="5" Note="58" Velocity="0"/>
  </Event>
  <Event>
    <Absolute>1000</Absolute>
    <NoteOn Channel="5" Note="53" Velocity="114"/>
  </Event>
  <Event>
    <Absolute>1019</Absolute>
    <NoteOn Channel="5" Note="53" Velocity="0"/>
  </Event>
  <Event>
    <Absolute>1040</Absolute>
    <NoteOn Channel="5" Note="58" Velocity="114"/>
  </Event>
  <Event>
    <Absolute>1058</Absolute>
    <NoteOn Channel="5" Note="58" Velocity="0"/>
  </Event>
  <Event>
    <Absolute>1078</Absolute>
    <NoteOn Channel="5" Note="65" Velocity="114"/>
  </Event>
  <Event>
    <Absolute>1094</Absolute>
    <NoteOn Channel="5" Note="65" Velocity="0"/>
  </Event>
  <Event>
    <Absolute>1118</Absolute>
    <NoteOn Channel="5" Note="63" Velocity="114"/>
  </Event>
  <Event>
    <Absolute>1134</Absolute>
    <NoteOn Channel="5" Note="63" Velocity="0"/>
  </Event>
  <Event>
    <Absolute>1155</Absolute>
    <NoteOn Channel="5" Note="58" Velocity="114"/>
  </Event>
  <Event>
    <Absolute>1171</Absolute>
    <NoteOn Channel="5" Note="58" Velocity="0"/>
  </Event>
  <Event>
    <Absolute>1196</Absolute>
    <NoteOn Channel="5" Note="58" Velocity="114"/>
  </Event>
  <Event>
    <Absolute>1214</Absolute>
    <NoteOn Channel="5" Note="58" Velocity="0"/>
  </Event>
  <Event>
    <Absolute>1234</Absolute>
    <NoteOn Channel="5" Note="53" Velocity="114"/>
  </Event>
  <Event>
    <Absolute>1253</Absolute>
    <NoteOn Channel="5" Note="53" Velocity="0"/>
  </Event>
  <Event>
    <Absolute>1276</Absolute>
    <NoteOn Channel="5" Note="63" Velocity="114"/>
  </Event>
  <Event>
    <Absolute>1292</Absolute>
    <NoteOn Channel="5" Note="63" Velocity="0"/>
  </Event>
  <Event>
    <Absolute>1317</Absolute>
    <NoteOn Channel="5" Note="65" Velocity="114"/>
  </Event>
  <Event>
    <Absolute>1332</Absolute>
    <NoteOn Channel="5" Note="65" Velocity="0"/>
  </Event>
  <Event>
    <Absolute>1358</Absolute>
    <NoteOn Channel="5" Note="58" Velocity="114"/>
  </Event>
  <Event>
    <Absolute>1367</Absolute>
    <NoteOn Channel="5" Note="58" Velocity="0"/>
  </Event>
  <Event>
    <Absolute>1378</Absolute>
    <NoteOn Channel="5" Note="58" Velocity="114"/>
  </Event>
  <Event>
    <Absolute>1388</Absolute>
    <NoteOn Channel="5" Note="58" Velocity="0"/>
  </Event>
  <Event>
    <Absolute>1395</Absolute>
    <NoteOn Channel="5" Note="58" Velocity="114"/>
  </Event>
  <Event>
    <Absolute>1409</Absolute>
    <NoteOn Channel="5" Note="58" Velocity="0"/>
  </Event>
  <Event>
    <Absolute>1437</Absolute>
    <NoteOn Channel="5" Note="63" Velocity="114"/>
  </Event>
  <Event>
    <Absolute>1446</Absolute>
    <NoteOn Channel="5" Note="51" Velocity="114"/>
  </Event>
  <Event>
    <Absolute>1455</Absolute>
    <NoteOn Channel="5" Note="63" Velocity="0"/>
  </Event>
  <Event>
    <Absolute>1466</Absolute>
    <NoteOn Channel="5" Note="51" Velocity="0"/>
  </Event>
  <Event>
    <Absolute>1476</Absolute>
    <NoteOn Channel="5" Note="58" Velocity="114"/>
  </Event>
  <Event>
    <Absolute>1482</Absolute>
    <NoteOn Channel="5" Note="46" Velocity="114"/>
  </Event>
  <Event>
    <Absolute>1496</Absolute>
    <NoteOn Channel="5" Note="58" Velocity="0"/>
  </Event>
  <Event>
    <Absolute>1509</Absolute>
    <NoteOn Channel="5" Note="46" Velocity="0"/>
  </Event>
  <Event>
    <Absolute>1516</Absolute>
    <NoteOn Channel="5" Note="65" Velocity="114"/>
  </Event>
  <Event>
    <Absolute>1522</Absolute>
    <NoteOn Channel="5" Note="53" Velocity="114"/>
  </Event>
  <Event>
    <Absolute>1531</Absolute>
    <NoteOn Channel="5" Note="65" Velocity="0"/>
  </Event>
  <Event>
    <Absolute>1539</Absolute>
    <NoteOn Channel="5" Note="53" Velocity="0"/>
  </Event>
  <Event>
    <Absolute>1560</Absolute>
    <NoteOn Channel="5" Note="68" Velocity="114"/>
  </Event>
  <Event>
    <Absolute>1570</Absolute>
    <NoteOn Channel="5" Note="56" Velocity="114"/>
  </Event>
  <Event>
    <Absolute>1791</Absolute>
    <NoteOn Channel="5" Note="68" Velocity="0"/>
  </Event>
  <Event>
    <Absolute>1805</Absolute>
    <NoteOn Channel="5" Note="56" Velocity="0"/>
  </Event>
  <Event>
    <Absolute>1837</Absolute>
    <NoteOn Channel="5" Note="58" Velocity="107"/>
  </Event>
  <Event>
    <Absolute>1838</Absolute>
    <NoteOn Channel="5" Note="53" Velocity="107"/>
  </Event>
  <Event>
    <Absolute>1874</Absolute>
    <NoteOn Channel="5" Note="53" Velocity="0"/>
  </Event>
  <Event>
    <Absolute>1878</Absolute>
    <NoteOn Channel="5" Note="58" Velocity="0"/>
  </Event>
  <Event>
    <Absolute>1907</Absolute>
    <NoteOn Channel="5" Note="53" Velocity="107"/>
  </Event>
  <Event>
    <Absolute>1910</Absolute>
    <NoteOn Channel="5" Note="58" Velocity="107"/>
  </Event>
  <Event>
    <Absolute>1936</Absolute>
    <NoteOn Channel="5" Note="53" Velocity="0"/>
  </Event>
  <Event>
    <Absolute>1942</Absolute>
    <NoteOn Channel="5" Note="58" Velocity="0"/>
  </Event>
  <Event>
    <Absolute>1968</Absolute>
    <NoteOn Channel="5" Note="53" Velocity="107"/>
  </Event>
  <Event>
    <Absolute>1970</Absolute>
    <NoteOn Channel="5" Note="58" Velocity="107"/>
  </Event>
  <Event>
    <Absolute>2011</Absolute>
    <NoteOn Channel="5" Note="53" Velocity="0"/>
  </Event>
  <Event>
    <Absolute>2012</Absolute>
    <NoteOn Channel="5" Note="58" Velocity="0"/>
  </Event>
  <Event>
    <Absolute>2121</Absolute>
    <NoteOn Channel="5" Note="58" Velocity="107"/>
  </Event>
  <Event>
    <Absolute>2123</Absolute>
    <NoteOn Channel="5" Note="53" Velocity="107"/>
  </Event>
  <Event>
    <Absolute>2131</Absolute>
    <NoteOn Channel="5" Note="53" Velocity="0"/>
  </Event>
  <Event>
    <Absolute>2132</Absolute>
    <NoteOn Channel="5" Note="58" Velocity="0"/>
  </Event>
  <Event>
    <Absolute>2141</Absolute>
    <NoteOn Channel="5" Note="58" Velocity="107"/>
  </Event>
  <Event>
    <Absolute>2142</Absolute>
    <NoteOn Channel="5" Note="53" Velocity="107"/>
  </Event>
  <Event>
    <Absolute>2149</Absolute>
    <NoteOn Channel="5" Note="53" Velocity="0"/>
  </Event>
  <Event>
    <Absolute>2149</Absolute>
    <NoteOn Channel="5" Note="58" Velocity="0"/>
  </Event>
  <Event>
    <Absolute>2160</Absolute>
    <NoteOn Channel="5" Note="58" Velocity="107"/>
  </Event>
  <Event>
    <Absolute>2160</Absolute>
    <NoteOn Channel="5" Note="53" Velocity="107"/>
  </Event>
  <Event>
    <Absolute>2310</Absolute>
    <NoteOn Channel="5" Note="53" Velocity="0"/>
  </Event>
  <Event>
    <Absolute>2312</Absolute>
    <NoteOn Channel="5" Note="58" Velocity="0"/>
  </Event>
  <Event>
    <Absolute>2340</Absolute>
    <NoteOn Channel="5" Note="58" Velocity="107"/>
  </Event>
  <Event>
    <Absolute>2342</Absolute>
    <NoteOn Channel="5" Note="53" Velocity="107"/>
  </Event>
  <Event>
    <Absolute>2350</Absolute>
    <NoteOn Channel="5" Note="58" Velocity="0"/>
  </Event>
  <Event>
    <Absolute>2352</Absolute>
    <NoteOn Channel="5" Note="53" Velocity="0"/>
  </Event>
  <Event>
    <Absolute>2360</Absolute>
    <NoteOn Channel="5" Note="53" Velocity="107"/>
  </Event>
  <Event>
    <Absolute>2360</Absolute>
    <NoteOn Channel="5" Note="58" Velocity="107"/>
  </Event>
  <Event>
    <Absolute>2368</Absolute>
    <NoteOn Channel="5" Note="58" Velocity="0"/>
  </Event>
  <Event>
    <Absolute>2369</Absolute>
    <NoteOn Channel="5" Note="53" Velocity="0"/>
  </Event>
  <Event>
    <Absolute>2377</Absolute>
    <NoteOn Channel="5" Note="58" Velocity="107"/>
  </Event>
  <Event>
    <Absolute>2378</Absolute>
    <NoteOn Channel="5" Note="53" Velocity="107"/>
  </Event>
  <Event>
    <Absolute>2385</Absolute>
    <NoteOn Channel="5" Note="58" Velocity="0"/>
  </Event>
  <Event>
    <Absolute>2386</Absolute>
    <NoteOn Channel="5" Note="53" Velocity="0"/>
  </Event>
  <Event>
    <Absolute>2403</Absolute>
    <NoteOn Channel="5" Note="53" Velocity="107"/>
  </Event>
  <Event>
    <Absolute>2404</Absolute>
    <NoteOn Channel="5" Note="58" Velocity="107"/>
  </Event>
  <Event>
    <Absolute>2422</Absolute>
    <NoteOn Channel="5" Note="53" Velocity="0"/>
  </Event>
  <Event>
    <Absolute>2426</Absolute>
    <NoteOn Channel="5" Note="58" Velocity="0"/>
  </Event>
  <Event>
    <Absolute>2460</Absolute>
    <NoteOn Channel="5" Note="58" Velocity="107"/>
  </Event>
  <Event>
    <Absolute>2460</Absolute>
    <NoteOn Channel="5" Note="56" Velocity="107"/>
  </Event>
  <Event>
    <Absolute>2479</Absolute>
    <NoteOn Channel="5" Note="56" Velocity="0"/>
  </Event>
  <Event>
    <Absolute>2485</Absolute>
    <NoteOn Channel="5" Note="58" Velocity="0"/>
  </Event>
  <Event>
    <Absolute>2580</Absolute>
    <NoteOn Channel="5" Note="58" Velocity="107"/>
  </Event>
  <Event>
    <Absolute>2580</Absolute>
    <NoteOn Channel="5" Note="56" Velocity="107"/>
  </Event>
  <Event>
    <Absolute>2605</Absolute>
    <NoteOn Channel="5" Note="56" Velocity="0"/>
  </Event>
  <Event>
    <Absolute>2610</Absolute>
    <NoteOn Channel="5" Note="58" Velocity="0"/>
  </Event>
  <Event>
    <Absolute>2698</Absolute>
    <NoteOn Channel="5" Note="63" Velocity="107"/>
  </Event>
  <Event>
    <Absolute>2699</Absolute>
    <NoteOn Channel="5" Note="58" Velocity="107"/>
  </Event>
  <Event>
    <Absolute>2724</Absolute>
    <NoteOn Channel="5" Note="58" Velocity="0"/>
  </Event>
  <Event>
    <Absolute>2728</Absolute>
    <NoteOn Channel="5" Note="63" Velocity="0"/>
  </Event>
  <Event>
    <Absolute>2761</Absolute>
    <NoteOn Channel="5" Note="58" Velocity="107"/>
  </Event>
  <Event>
    <Absolute>2763</Absolute>
    <NoteOn Channel="5" Note="63" Velocity="107"/>
  </Event>
  <Event>
    <Absolute>2779</Absolute>
    <NoteOn Channel="5" Note="63" Velocity="0"/>
  </Event>
  <Event>
    <Absolute>2782</Absolute>
    <NoteOn Channel="5" Note="58" Velocity="0"/>
  </Event>
  <Event>
    <Absolute>2818</Absolute>
    <NoteOn Channel="5" Note="58" Velocity="107"/>
  </Event>
  <Event>
    <Absolute>2820</Absolute>
    <NoteOn Channel="5" Note="63" Velocity="107"/>
  </Event>
  <Event>
    <Absolute>2828</Absolute>
    <NoteOn Channel="5" Note="63" Velocity="0"/>
  </Event>
  <Event>
    <Absolute>2828</Absolute>
    <NoteOn Channel="5" Note="58" Velocity="0"/>
  </Event>
  <Event>
    <Absolute>2838</Absolute>
    <NoteOn Channel="5" Note="58" Velocity="107"/>
  </Event>
  <Event>
    <Absolute>2840</Absolute>
    <NoteOn Channel="5" Note="63" Velocity="107"/>
  </Event>
  <Event>
    <Absolute>2848</Absolute>
    <NoteOn Channel="5" Note="63" Velocity="0"/>
  </Event>
  <Event>
    <Absolute>2848</Absolute>
    <NoteOn Channel="5" Note="58" Velocity="0"/>
  </Event>
  <Event>
    <Absolute>2858</Absolute>
    <NoteOn Channel="5" Note="58" Velocity="107"/>
  </Event>
  <Event>
    <Absolute>2859</Absolute>
    <NoteOn Channel="5" Note="63" Velocity="107"/>
  </Event>
  <Event>
    <Absolute>2869</Absolute>
    <NoteOn Channel="5" Note="63" Velocity="0"/>
  </Event>
  <Event>
    <Absolute>2871</Absolute>
    <NoteOn Channel="5" Note="58" Velocity="0"/>
  </Event>
  <Event>
    <Absolute>2880</Absolute>
    <NoteOn Channel="5" Note="58" Velocity="107"/>
  </Event>
  <Event>
    <Absolute>2880</Absolute>
    <NoteOn Channel="5" Note="53" Velocity="107"/>
  </Event>
  <Event>
    <Absolute>2896</Absolute>
    <NoteOn Channel="5" Note="58" Velocity="0"/>
  </Event>
  <Event>
    <Absolute>2898</Absolute>
    <NoteOn Channel="5" Note="53" Velocity="0"/>
  </Event>
  <Event>
    <Absolute>2920</Absolute>
    <NoteOn Channel="5" Note="58" Velocity="107"/>
  </Event>
  <Event>
    <Absolute>2920</Absolute>
    <NoteOn Channel="5" Note="53" Velocity="107"/>
  </Event>
  <Event>
    <Absolute>2935</Absolute>
    <NoteOn Channel="5" Note="58" Velocity="0"/>
  </Event>
  <Event>
    <Absolute>2938</Absolute>
    <NoteOn Channel="5" Note="53" Velocity="0"/>
  </Event>
  <Event>
    <Absolute>2960</Absolute>
    <NoteOn Channel="5" Note="58" Velocity="107"/>
  </Event>
  <Event>
    <Absolute>2960</Absolute>
    <NoteOn Channel="5" Note="53" Velocity="107"/>
  </Event>
  <Event>
    <Absolute>2980</Absolute>
    <NoteOn Channel="5" Note="53" Velocity="0"/>
  </Event>
  <Event>
    <Absolute>2980</Absolute>
    <NoteOn Channel="5" Note="58" Velocity="0"/>
  </Event>
  <Event>
    <Absolute>3060</Absolute>
    <NoteOn Channel="5" Note="58" Velocity="107"/>
  </Event>
  <Event>
    <Absolute>3060</Absolute>
    <NoteOn Channel="5" Note="53" Velocity="107"/>
  </Event>
  <Event>
    <Absolute>3085</Absolute>
    <NoteOn Channel="5" Note="53" Velocity="0"/>
  </Event>
  <Event>
    <Absolute>3090</Absolute>
    <NoteOn Channel="5" Note="58" Velocity="0"/>
  </Event>
  <Event>
    <Absolute>3178</Absolute>
    <NoteOn Channel="5" Note="63" Velocity="107"/>
  </Event>
  <Event>
    <Absolute>3179</Absolute>
    <NoteOn Channel="5" Note="58" Velocity="107"/>
  </Event>
  <Event>
    <Absolute>3204</Absolute>
    <NoteOn Channel="5" Note="58" Velocity="0"/>
  </Event>
  <Event>
    <Absolute>3208</Absolute>
    <NoteOn Channel="5" Note="63" Velocity="0"/>
  </Event>
  <Event>
    <Absolute>3241</Absolute>
    <NoteOn Channel="5" Note="58" Velocity="107"/>
  </Event>
  <Event>
    <Absolute>3243</Absolute>
    <NoteOn Channel="5" Note="63" Velocity="107"/>
  </Event>
  <Event>
    <Absolute>3259</Absolute>
    <NoteOn Channel="5" Note="63" Velocity="0"/>
  </Event>
  <Event>
    <Absolute>3262</Absolute>
    <NoteOn Channel="5" Note="58" Velocity="0"/>
  </Event>
  <Event>
    <Absolute>3298</Absolute>
    <NoteOn Channel="5" Note="58" Velocity="107"/>
  </Event>
  <Event>
    <Absolute>3300</Absolute>
    <NoteOn Channel="5" Note="63" Velocity="107"/>
  </Event>
  <Event>
    <Absolute>3308</Absolute>
    <NoteOn Channel="5" Note="63" Velocity="0"/>
  </Event>
  <Event>
    <Absolute>3308</Absolute>
    <NoteOn Channel="5" Note="58" Velocity="0"/>
  </Event>
  <Event>
    <Absolute>3318</Absolute>
    <NoteOn Channel="5" Note="58" Velocity="107"/>
  </Event>
  <Event>
    <Absolute>3320</Absolute>
    <NoteOn Channel="5" Note="63" Velocity="107"/>
  </Event>
  <Event>
    <Absolute>3328</Absolute>
    <NoteOn Channel="5" Note="63" Velocity="0"/>
  </Event>
  <Event>
    <Absolute>3328</Absolute>
    <NoteOn Channel="5" Note="58" Velocity="0"/>
  </Event>
  <Event>
    <Absolute>3333</Absolute>
    <NoteOn Channel="5" Note="58" Velocity="107"/>
  </Event>
  <Event>
    <Absolute>3339</Absolute>
    <NoteOn Channel="5" Note="63" Velocity="107"/>
  </Event>
  <Event>
    <Absolute>3349</Absolute>
    <NoteOn Channel="5" Note="63" Velocity="0"/>
  </Event>
  <Event>
    <Absolute>3349</Absolute>
    <NoteOn Channel="5" Note="58" Velocity="0"/>
  </Event>
  <Event>
    <Absolute>3360</Absolute>
    <NoteOn Channel="5" Note="58" Velocity="107"/>
  </Event>
  <Event>
    <Absolute>3360</Absolute>
    <NoteOn Channel="5" Note="53" Velocity="107"/>
  </Event>
  <Event>
    <Absolute>3376</Absolute>
    <NoteOn Channel="5" Note="58" Velocity="0"/>
  </Event>
  <Event>
    <Absolute>3378</Absolute>
    <NoteOn Channel="5" Note="53" Velocity="0"/>
  </Event>
  <Event>
    <Absolute>3400</Absolute>
    <NoteOn Channel="5" Note="58" Velocity="107"/>
  </Event>
  <Event>
    <Absolute>3400</Absolute>
    <NoteOn Channel="5" Note="53" Velocity="107"/>
  </Event>
  <Event>
    <Absolute>3415</Absolute>
    <NoteOn Channel="5" Note="58" Velocity="0"/>
  </Event>
  <Event>
    <Absolute>3418</Absolute>
    <NoteOn Channel="5" Note="53" Velocity="0"/>
  </Event>
  <Event>
    <Absolute>3440</Absolute>
    <NoteOn Channel="5" Note="58" Velocity="107"/>
  </Event>
  <Event>
    <Absolute>3440</Absolute>
    <NoteOn Channel="5" Note="53" Velocity="107"/>
  </Event>
  <Event>
    <Absolute>3460</Absolute>
    <NoteOn Channel="5" Note="53" Velocity="0"/>
  </Event>
  <Event>
    <Absolute>3460</Absolute>
    <NoteOn Channel="5" Note="58" Velocity="0"/>
  </Event>
  <Event>
    <Absolute>3962</Absolute>
    <NoteOn Channel="5" Note="58" Velocity="97"/>
  </Event>
  <Event>
    <Absolute>4054</Absolute>
    <NoteOn Channel="5" Note="58" Velocity="0"/>
  </Event>
  <Event>
    <Absolute>4080</Absolute>
    <NoteOn Channel="5" Note="58" Velocity="97"/>
  </Event>
  <Event>
    <Absolute>4163</Absolute>
    <NoteOn Channel="5" Note="58" Velocity="0"/>
  </Event>
  <Event>
    <Absolute>4199</Absolute>
    <NoteOn Channel="5" Note="58" Velocity="97"/>
  </Event>
  <Event>
    <Absolute>4275</Absolute>
    <NoteOn Channel="5" Note="58" Velocity="0"/>
  </Event>
  <Event>
    <Absolute>4293</Absolute>
    <NoteOn Channel="5" Note="58" Velocity="97"/>
  </Event>
  <Event>
    <Absolute>4302</Absolute>
    <NoteOn Channel="5" Note="58" Velocity="0"/>
  </Event>
  <Event>
    <Absolute>4316</Absolute>
    <NoteOn Channel="5" Note="58" Velocity="97"/>
  </Event>
  <Event>
    <Absolute>4331</Absolute>
    <NoteOn Channel="5" Note="58" Velocity="0"/>
  </Event>
  <Event>
    <Absolute>4365</Absolute>
    <NoteOn Channel="5" Note="58" Velocity="97"/>
  </Event>
  <Event>
    <Absolute>4377</Absolute>
    <NoteOn Channel="5" Note="58" Velocity="0"/>
  </Event>
  <Event>
    <Absolute>4400</Absolute>
    <NoteOn Channel="5" Note="58" Velocity="97"/>
  </Event>
  <Event>
    <Absolute>4413</Absolute>
    <NoteOn Channel="5" Note="58" Velocity="0"/>
  </Event>
  <Event>
    <Absolute>4442</Absolute>
    <NoteOn Channel="5" Note="63" Velocity="97"/>
  </Event>
  <Event>
    <Absolute>4529</Absolute>
    <NoteOn Channel="5" Note="63" Velocity="0"/>
  </Event>
  <Event>
    <Absolute>4556</Absolute>
    <NoteOn Channel="5" Note="63" Velocity="97"/>
  </Event>
  <Event>
    <Absolute>4614</Absolute>
    <NoteOn Channel="5" Note="63" Velocity="0"/>
  </Event>
  <Event>
    <Absolute>4634</Absolute>
    <NoteOn Channel="5" Note="63" Velocity="97"/>
  </Event>
  <Event>
    <Absolute>4655</Absolute>
    <NoteOn Channel="5" Note="63" Velocity="0"/>
  </Event>
  <Event>
    <Absolute>4685</Absolute>
    <NoteOn Channel="5" Note="63" Velocity="97"/>
  </Event>
  <Event>
    <Absolute>4770</Absolute>
    <NoteOn Channel="5" Note="63" Velocity="0"/>
  </Event>
  <Event>
    <Absolute>4795</Absolute>
    <NoteOn Channel="5" Note="62" Velocity="97"/>
  </Event>
  <Event>
    <Absolute>4796</Absolute>
    <NoteOn Channel="5" Note="58" Velocity="97"/>
  </Event>
  <Event>
    <Absolute>4876</Absolute>
    <NoteOn Channel="5" Note="62" Velocity="0"/>
  </Event>
  <Event>
    <Absolute>4881</Absolute>
    <NoteOn Channel="5" Note="58" Velocity="0"/>
  </Event>
  <Event>
    <Absolute>4920</Absolute>
    <NoteOn Channel="5" Note="63" Velocity="97"/>
  </Event>
  <Event>
    <Absolute>4920</Absolute>
    <NoteOn Channel="5" Note="58" Velocity="97"/>
  </Event>
  <Event>
    <Absolute>5008</Absolute>
    <NoteOn Channel="5" Note="63" Velocity="0"/>
  </Event>
  <Event>
    <Absolute>5010</Absolute>
    <NoteOn Channel="5" Note="58" Velocity="0"/>
  </Event>
  <Event>
    <Absolute>5040</Absolute>
    <NoteOn Channel="5" Note="58" Velocity="97"/>
  </Event>
  <Event>
    <Absolute>5040</Absolute>
    <NoteOn Channel="5" Note="63" Velocity="97"/>
  </Event>
  <Event>
    <Absolute>5049</Absolute>
    <NoteOn Channel="5" Note="58" Velocity="0"/>
  </Event>
  <Event>
    <Absolute>5053</Absolute>
    <NoteOn Channel="5" Note="63" Velocity="0"/>
  </Event>
  <Event>
    <Absolute>5081</Absolute>
    <NoteOn Channel="5" Note="58" Velocity="97"/>
  </Event>
  <Event>
    <Absolute>5081</Absolute>
    <NoteOn Channel="5" Note="63" Velocity="97"/>
  </Event>
  <Event>
    <Absolute>5094</Absolute>
    <NoteOn Channel="5" Note="63" Velocity="0"/>
  </Event>
  <Event>
    <Absolute>5094</Absolute>
    <NoteOn Channel="5" Note="58" Velocity="0"/>
  </Event>
  <Event>
    <Absolute>5118</Absolute>
    <NoteOn Channel="5" Note="58" Velocity="97"/>
  </Event>
  <Event>
    <Absolute>5118</Absolute>
    <NoteOn Channel="5" Note="63" Velocity="97"/>
  </Event>
  <Event>
    <Absolute>5131</Absolute>
    <NoteOn Channel="5" Note="58" Velocity="0"/>
  </Event>
  <Event>
    <Absolute>5132</Absolute>
    <NoteOn Channel="5" Note="63" Velocity="0"/>
  </Event>
  <Event>
    <Absolute>5160</Absolute>
    <NoteOn Channel="5" Note="58" Velocity="97"/>
  </Event>
  <Event>
    <Absolute>5161</Absolute>
    <NoteOn Channel="5" Note="62" Velocity="97"/>
  </Event>
  <Event>
    <Absolute>5252</Absolute>
    <NoteOn Channel="5" Note="58" Velocity="0"/>
  </Event>
  <Event>
    <Absolute>5254</Absolute>
    <NoteOn Channel="5" Note="62" Velocity="0"/>
  </Event>
  <Event>
    <Absolute>5278</Absolute>
    <NoteOn Channel="5" Note="62" Velocity="97"/>
  </Event>
  <Event>
    <Absolute>5280</Absolute>
    <NoteOn Channel="5" Note="58" Velocity="97"/>
  </Event>
  <Event>
    <Absolute>5291</Absolute>
    <NoteOn Channel="5" Note="62" Velocity="0"/>
  </Event>
  <Event>
    <Absolute>5295</Absolute>
    <NoteOn Channel="5" Note="58" Velocity="0"/>
  </Event>
  <Event>
    <Absolute>5316</Absolute>
    <NoteOn Channel="5" Note="62" Velocity="97"/>
  </Event>
  <Event>
    <Absolute>5317</Absolute>
    <NoteOn Channel="5" Note="58" Velocity="97"/>
  </Event>
  <Event>
    <Absolute>5331</Absolute>
    <NoteOn Channel="5" Note="58" Velocity="0"/>
  </Event>
  <Event>
    <Absolute>5331</Absolute>
    <NoteOn Channel="5" Note="62" Velocity="0"/>
  </Event>
  <Event>
    <Absolute>5355</Absolute>
    <NoteOn Channel="5" Note="62" Velocity="97"/>
  </Event>
  <Event>
    <Absolute>5357</Absolute>
    <NoteOn Channel="5" Note="58" Velocity="97"/>
  </Event>
  <Event>
    <Absolute>5369</Absolute>
    <NoteOn Channel="5" Note="62" Velocity="0"/>
  </Event>
  <Event>
    <Absolute>5375</Absolute>
    <NoteOn Channel="5" Note="58" Velocity="0"/>
  </Event>
  <Event>
    <Absolute>5398</Absolute>
    <NoteOn Channel="5" Note="60" Velocity="97"/>
  </Event>
  <Event>
    <Absolute>5398</Absolute>
    <NoteOn Channel="5" Note="63" Velocity="97"/>
  </Event>
  <Event>
    <Absolute>5413</Absolute>
    <NoteOn Channel="5" Note="63" Velocity="0"/>
  </Event>
  <Event>
    <Absolute>5417</Absolute>
    <NoteOn Channel="5" Note="60" Velocity="0"/>
  </Event>
  <Event>
    <Absolute>5440</Absolute>
    <NoteOn Channel="5" Note="59" Velocity="97"/>
  </Event>
  <Event>
    <Absolute>5440</Absolute>
    <NoteOn Channel="5" Note="62" Velocity="97"/>
  </Event>
  <Event>
    <Absolute>5454</Absolute>
    <NoteOn Channel="5" Note="62" Velocity="0"/>
  </Event>
  <Event>
    <Absolute>5456</Absolute>
    <NoteOn Channel="5" Note="59" Velocity="0"/>
  </Event>
  <Event>
    <Absolute>5480</Absolute>
    <NoteOn Channel="5" Note="60" Velocity="97"/>
  </Event>
  <Event>
    <Absolute>5481</Absolute>
    <NoteOn Channel="5" Note="63" Velocity="97"/>
  </Event>
  <Event>
    <Absolute>5497</Absolute>
    <NoteOn Channel="5" Note="63" Velocity="0"/>
  </Event>
  <Event>
    <Absolute>5498</Absolute>
    <NoteOn Channel="5" Note="60" Velocity="0"/>
  </Event>
  <Event>
    <Absolute>5521</Absolute>
    <NoteOn Channel="5" Note="57" Velocity="97"/>
  </Event>
  <Event>
    <Absolute>5521</Absolute>
    <NoteOn Channel="5" Note="60" Velocity="97"/>
  </Event>
  <Event>
    <Absolute>5746</Absolute>
    <NoteOn Channel="5" Note="60" Velocity="0"/>
  </Event>
  <Event>
    <Absolute>5746</Absolute>
    <NoteOn Channel="5" Note="57" Velocity="0"/>
  </Event>
  <Event>
    <Absolute>9240</Absolute>
    <NoteOn Channel="5" Note="65" Velocity="127"/>
  </Event>
  <Event>
    <Absolute>9240</Absolute>
    <NoteOn Channel="5" Note="60" Velocity="127"/>
  </Event>
  <Event>
    <Absolute>9270</Absolute>
    <NoteOn Channel="5" Note="60" Velocity="0"/>
  </Event>
  <Event>
    <Absolute>9465</Absolute>
    <NoteOn Channel="5" Note="65" Velocity="0"/>
  </Event>
  <Event>
    <Absolute>9480</Absolute>
    <NoteOn Channel="5" Note="53" Velocity="127"/>
  </Event>
  <Event>
    <Absolute>9495</Absolute>
    <NoteOn Channel="5" Note="53" Velocity="0"/>
  </Event>
  <Event>
    <Absolute>9510</Absolute>
    <NoteOn Channel="5" Note="53" Velocity="126"/>
  </Event>
  <Event>
    <Absolute>9527</Absolute>
    <NoteOn Channel="5" Note="53" Velocity="0"/>
  </Event>
  <Event>
    <Absolute>9540</Absolute>
    <NoteOn Channel="5" Note="53" Velocity="127"/>
  </Event>
  <Event>
    <Absolute>9555</Absolute>
    <NoteOn Channel="5" Note="53" Velocity="0"/>
  </Event>
  <Event>
    <Absolute>9570</Absolute>
    <NoteOn Channel="5" Note="53" Velocity="127"/>
  </Event>
  <Event>
    <Absolute>9587</Absolute>
    <NoteOn Channel="5" Note="53" Velocity="0"/>
  </Event>
  <Event>
    <Absolute>9600</Absolute>
    <NoteOn Channel="5" Note="53" Velocity="127"/>
  </Event>
  <Event>
    <Absolute>9619</Absolute>
    <NoteOn Channel="5" Note="53" Velocity="0"/>
  </Event>
  <Event>
    <Absolute>9840</Absolute>
    <NoteOn Channel="5" Note="53" Velocity="127"/>
  </Event>
  <Event>
    <Absolute>9856</Absolute>
    <NoteOn Channel="5" Note="53" Velocity="0"/>
  </Event>
  <Event>
    <Absolute>9870</Absolute>
    <NoteOn Channel="5" Note="53" Velocity="122"/>
  </Event>
  <Event>
    <Absolute>9882</Absolute>
    <NoteOn Channel="5" Note="53" Velocity="0"/>
  </Event>
  <Event>
    <Absolute>9900</Absolute>
    <NoteOn Channel="5" Note="53" Velocity="127"/>
  </Event>
  <Event>
    <Absolute>9916</Absolute>
    <NoteOn Channel="5" Note="53" Velocity="0"/>
  </Event>
  <Event>
    <Absolute>9930</Absolute>
    <NoteOn Channel="5" Note="53" Velocity="127"/>
  </Event>
  <Event>
    <Absolute>9948</Absolute>
    <NoteOn Channel="5" Note="53" Velocity="0"/>
  </Event>
  <Event>
    <Absolute>9960</Absolute>
    <NoteOn Channel="5" Note="53" Velocity="127"/>
  </Event>
  <Event>
    <Absolute>9979</Absolute>
    <NoteOn Channel="5" Note="53" Velocity="0"/>
  </Event>
  <Event>
    <Absolute>10200</Absolute>
    <NoteOn Channel="5" Note="53" Velocity="127"/>
  </Event>
  <Event>
    <Absolute>10216</Absolute>
    <NoteOn Channel="5" Note="53" Velocity="0"/>
  </Event>
  <Event>
    <Absolute>10230</Absolute>
    <NoteOn Channel="5" Note="53" Velocity="123"/>
  </Event>
  <Event>
    <Absolute>10243</Absolute>
    <NoteOn Channel="5" Note="53" Velocity="0"/>
  </Event>
  <Event>
    <Absolute>10260</Absolute>
    <NoteOn Channel="5" Note="53" Velocity="127"/>
  </Event>
  <Event>
    <Absolute>10273</Absolute>
    <NoteOn Channel="5" Note="53" Velocity="0"/>
  </Event>
  <Event>
    <Absolute>10290</Absolute>
    <NoteOn Channel="5" Note="53" Velocity="123"/>
  </Event>
  <Event>
    <Absolute>10309</Absolute>
    <NoteOn Channel="5" Note="53" Velocity="0"/>
  </Event>
  <Event>
    <Absolute>10320</Absolute>
    <NoteOn Channel="5" Note="53" Velocity="127"/>
  </Event>
  <Event>
    <Absolute>10345</Absolute>
    <NoteOn Channel="5" Note="53" Velocity="0"/>
  </Event>
  <Event>
    <Absolute>10560</Absolute>
    <NoteOn Channel="5" Note="53" Velocity="127"/>
  </Event>
  <Event>
    <Absolute>10576</Absolute>
    <NoteOn Channel="5" Note="53" Velocity="0"/>
  </Event>
  <Event>
    <Absolute>10590</Absolute>
    <NoteOn Channel="5" Note="53" Velocity="127"/>
  </Event>
  <Event>
    <Absolute>10608</Absolute>
    <NoteOn Channel="5" Note="53" Velocity="0"/>
  </Event>
  <Event>
    <Absolute>10620</Absolute>
    <NoteOn Channel="5" Note="53" Velocity="127"/>
  </Event>
  <Event>
    <Absolute>10628</Absolute>
    <NoteOn Channel="5" Note="53" Velocity="0"/>
  </Event>
  <Event>
    <Absolute>10650</Absolute>
    <NoteOn Channel="5" Note="53" Velocity="127"/>
  </Event>
  <Event>
    <Absolute>10667</Absolute>
    <NoteOn Channel="5" Note="53" Velocity="0"/>
  </Event>
  <Event>
    <Absolute>10680</Absolute>
    <NoteOn Channel="5" Note="53" Velocity="127"/>
  </Event>
  <Event>
    <Absolute>10701</Absolute>
    <NoteOn Channel="5" Note="53" Velocity="0"/>
  </Event>
  <Event>
    <Absolute>10920</Absolute>
    <NoteOn Channel="5" Note="53" Velocity="127"/>
  </Event>
  <Event>
    <Absolute>10935</Absolute>
    <NoteOn Channel="5" Note="53" Velocity="0"/>
  </Event>
  <Event>
    <Absolute>10950</Absolute>
    <NoteOn Channel="5" Note="53" Velocity="127"/>
  </Event>
  <Event>
    <Absolute>10966</Absolute>
    <NoteOn Channel="5" Note="53" Velocity="0"/>
  </Event>
  <Event>
    <Absolute>10980</Absolute>
    <NoteOn Channel="5" Note="53" Velocity="127"/>
  </Event>
  <Event>
    <Absolute>10990</Absolute>
    <NoteOn Channel="5" Note="53" Velocity="0"/>
  </Event>
  <Event>
    <Absolute>11010</Absolute>
    <NoteOn Channel="5" Note="53" Velocity="127"/>
  </Event>
  <Event>
    <Absolute>11029</Absolute>
    <NoteOn Channel="5" Note="53" Velocity="0"/>
  </Event>
  <Event>
    <Absolute>11040</Absolute>
    <NoteOn Channel="5" Note="53" Velocity="127"/>
  </Event>
  <Event>
    <Absolute>11062</Absolute>
    <NoteOn Channel="5" Note="53" Velocity="0"/>
  </Event>
  <Event>
    <Absolute>11280</Absolute>
    <NoteOn Channel="5" Note="53" Velocity="127"/>
  </Event>
  <Event>
    <Absolute>11298</Absolute>
    <NoteOn Channel="5" Note="53" Velocity="0"/>
  </Event>
  <Event>
    <Absolute>11310</Absolute>
    <NoteOn Channel="5" Note="53" Velocity="116"/>
  </Event>
  <Event>
    <Absolute>11329</Absolute>
    <NoteOn Channel="5" Note="53" Velocity="0"/>
  </Event>
  <Event>
    <Absolute>11340</Absolute>
    <NoteOn Channel="5" Note="53" Velocity="127"/>
  </Event>
  <Event>
    <Absolute>11347</Absolute>
    <NoteOn Channel="5" Note="53" Velocity="0"/>
  </Event>
  <Event>
    <Absolute>11370</Absolute>
    <NoteOn Channel="5" Note="53" Velocity="115"/>
  </Event>
  <Event>
    <Absolute>11386</Absolute>
    <NoteOn Channel="5" Note="53" Velocity="0"/>
  </Event>
  <Event>
    <Absolute>11400</Absolute>
    <NoteOn Channel="5" Note="53" Velocity="127"/>
  </Event>
  <Event>
    <Absolute>11423</Absolute>
    <NoteOn Channel="5" Note="53" Velocity="0"/>
  </Event>
  <Event>
    <Absolute>11640</Absolute>
    <NoteOn Channel="5" Note="53" Velocity="127"/>
  </Event>
  <Event>
    <Absolute>11656</Absolute>
    <NoteOn Channel="5" Note="53" Velocity="0"/>
  </Event>
  <Event>
    <Absolute>11670</Absolute>
    <NoteOn Channel="5" Note="53" Velocity="127"/>
  </Event>
  <Event>
    <Absolute>11688</Absolute>
    <NoteOn Channel="5" Note="53" Velocity="0"/>
  </Event>
  <Event>
    <Absolute>11700</Absolute>
    <NoteOn Channel="5" Note="53" Velocity="127"/>
  </Event>
  <Event>
    <Absolute>11712</Absolute>
    <NoteOn Channel="5" Note="53" Velocity="0"/>
  </Event>
  <Event>
    <Absolute>11730</Absolute>
    <NoteOn Channel="5" Note="53" Velocity="127"/>
  </Event>
  <Event>
    <Absolute>11746</Absolute>
    <NoteOn Channel="5" Note="53" Velocity="0"/>
  </Event>
  <Event>
    <Absolute>11760</Absolute>
    <NoteOn Channel="5" Note="53" Velocity="127"/>
  </Event>
  <Event>
    <Absolute>11790</Absolute>
    <NoteOn Channel="5" Note="53" Velocity="0"/>
  </Event>
  <Event>
    <Absolute>11850</Absolute>
    <NoteOn Channel="5" Note="53" Velocity="127"/>
  </Event>
  <Event>
    <Absolute>11870</Absolute>
    <NoteOn Channel="5" Note="53" Velocity="0"/>
  </Event>
  <Event>
    <Absolute>11880</Absolute>
    <NoteOn Channel="5" Note="56" Velocity="127"/>
  </Event>
  <Event>
    <Absolute>11898</Absolute>
    <NoteOn Channel="5" Note="56" Velocity="0"/>
  </Event>
  <Event>
    <Absolute>11910</Absolute>
    <NoteOn Channel="5" Note="56" Velocity="116"/>
  </Event>
  <Event>
    <Absolute>11926</Absolute>
    <NoteOn Channel="5" Note="56" Velocity="0"/>
  </Event>
  <Event>
    <Absolute>11940</Absolute>
    <NoteOn Channel="5" Note="56" Velocity="127"/>
  </Event>
  <Event>
    <Absolute>11957</Absolute>
    <NoteOn Channel="5" Note="56" Velocity="0"/>
  </Event>
  <Event>
    <Absolute>11970</Absolute>
    <NoteOn Channel="5" Note="56" Velocity="127"/>
  </Event>
  <Event>
    <Absolute>11987</Absolute>
    <NoteOn Channel="5" Note="56" Velocity="0"/>
  </Event>
  <Event>
    <Absolute>13170</Absolute>
    <NoteOn Channel="5" Note="72" Velocity="127"/>
  </Event>
  <Event>
    <Absolute>13175</Absolute>
    <NoteOn Channel="5" Note="75" Velocity="127"/>
  </Event>
  <Event>
    <Absolute>13176</Absolute>
    <NoteOn Channel="5" Note="68" Velocity="127"/>
  </Event>
  <Event>
    <Absolute>13185</Absolute>
    <NoteOn Channel="5" Note="72" Velocity="0"/>
  </Event>
  <Event>
    <Absolute>13190</Absolute>
    <NoteOn Channel="5" Note="75" Velocity="0"/>
  </Event>
  <Event>
    <Absolute>13191</Absolute>
    <NoteOn Channel="5" Note="68" Velocity="0"/>
  </Event>
  <Event>
    <Absolute>13198</Absolute>
    <NoteOn Channel="5" Note="72" Velocity="127"/>
  </Event>
  <Event>
    <Absolute>13205</Absolute>
    <NoteOn Channel="5" Note="68" Velocity="127"/>
  </Event>
  <Event>
    <Absolute>13206</Absolute>
    <NoteOn Channel="5" Note="75" Velocity="126"/>
  </Event>
  <Event>
    <Absolute>13311</Absolute>
    <NoteOn Channel="5" Note="72" Velocity="0"/>
  </Event>
  <Event>
    <Absolute>13320</Absolute>
    <NoteOn Channel="5" Note="71" Velocity="127"/>
  </Event>
  <Event>
    <Absolute>13323</Absolute>
    <NoteOn Channel="5" Note="67" Velocity="127"/>
  </Event>
  <Event>
    <Absolute>13323</Absolute>
    <NoteOn Channel="5" Note="74" Velocity="127"/>
  </Event>
  <Event>
    <Absolute>13329</Absolute>
    <NoteOn Channel="5" Note="68" Velocity="0"/>
  </Event>
  <Event>
    <Absolute>13333</Absolute>
    <NoteOn Channel="5" Note="75" Velocity="0"/>
  </Event>
  <Event>
    <Absolute>13353</Absolute>
    <NoteOn Channel="5" Note="67" Velocity="0"/>
  </Event>
  <Event>
    <Absolute>13353</Absolute>
    <NoteOn Channel="5" Note="71" Velocity="0"/>
  </Event>
  <Event>
    <Absolute>13353</Absolute>
    <NoteOn Channel="5" Note="74" Velocity="0"/>
  </Event>
  <Event>
    <Absolute>13378</Absolute>
    <NoteOn Channel="5" Note="75" Velocity="127"/>
  </Event>
  <Event>
    <Absolute>13383</Absolute>
    <NoteOn Channel="5" Note="72" Velocity="127"/>
  </Event>
  <Event>
    <Absolute>13385</Absolute>
    <NoteOn Channel="5" Note="68" Velocity="127"/>
  </Event>
  <Event>
    <Absolute>13406</Absolute>
    <NoteOn Channel="5" Note="72" Velocity="0"/>
  </Event>
  <Event>
    <Absolute>13408</Absolute>
    <NoteOn Channel="5" Note="71" Velocity="127"/>
  </Event>
  <Event>
    <Absolute>13410</Absolute>
    <NoteOn Channel="5" Note="67" Velocity="127"/>
  </Event>
  <Event>
    <Absolute>13415</Absolute>
    <NoteOn Channel="5" Note="74" Velocity="127"/>
  </Event>
  <Event>
    <Absolute>13418</Absolute>
    <NoteOn Channel="5" Note="68" Velocity="0"/>
  </Event>
  <Event>
    <Absolute>13426</Absolute>
    <NoteOn Channel="5" Note="75" Velocity="0"/>
  </Event>
  <Event>
    <Absolute>13438</Absolute>
    <NoteOn Channel="5" Note="65" Velocity="127"/>
  </Event>
  <Event>
    <Absolute>13441</Absolute>
    <NoteOn Channel="5" Note="71" Velocity="0"/>
  </Event>
  <Event>
    <Absolute>13441</Absolute>
    <NoteOn Channel="5" Note="69" Velocity="127"/>
  </Event>
  <Event>
    <Absolute>13441</Absolute>
    <NoteOn Channel="5" Note="72" Velocity="127"/>
  </Event>
  <Event>
    <Absolute>13442</Absolute>
    <NoteOn Channel="5" Note="67" Velocity="0"/>
  </Event>
  <Event>
    <Absolute>13447</Absolute>
    <NoteOn Channel="5" Note="74" Velocity="0"/>
  </Event>
  <Event>
    <Absolute>13458</Absolute>
    <NoteOn Channel="5" Note="65" Velocity="0"/>
  </Event>
  <Event>
    <Absolute>13459</Absolute>
    <NoteOn Channel="5" Note="69" Velocity="0"/>
  </Event>
  <Event>
    <Absolute>13461</Absolute>
    <NoteOn Channel="5" Note="72" Velocity="0"/>
  </Event>
  <Event>
    <Absolute>13491</Absolute>
    <NoteOn Channel="5" Note="69" Velocity="127"/>
  </Event>
  <Event>
    <Absolute>13495</Absolute>
    <NoteOn Channel="5" Note="62" Velocity="127"/>
  </Event>
  <Event>
    <Absolute>13884</Absolute>
    <NoteOn Channel="5" Note="62" Velocity="0"/>
  </Event>
  <Event>
    <Absolute>13894</Absolute>
    <NoteOn Channel="5" Note="69" Velocity="0"/>
  </Event>
  <Event>
    <Absolute>14411</Absolute>
    <NoteOn Channel="5" Note="55" Velocity="123"/>
  </Event>
  <Event>
    <Absolute>14422</Absolute>
    <NoteOn Channel="5" Note="55" Velocity="0"/>
  </Event>
  <Event>
    <Absolute>14531</Absolute>
    <NoteOn Channel="5" Note="55" Velocity="123"/>
  </Event>
  <Event>
    <Absolute>14539</Absolute>
    <NoteOn Channel="5" Note="55" Velocity="0"/>
  </Event>
  <Event>
    <Absolute>14591</Absolute>
    <NoteOn Channel="5" Note="55" Velocity="123"/>
  </Event>
  <Event>
    <Absolute>14601</Absolute>
    <NoteOn Channel="5" Note="55" Velocity="0"/>
  </Event>
  <Event>
    <Absolute>14611</Absolute>
    <NoteOn Channel="5" Note="55" Velocity="123"/>
  </Event>
  <Event>
    <Absolute>14620</Absolute>
    <NoteOn Channel="5" Note="55" Velocity="0"/>
  </Event>
  <Event>
    <Absolute>14631</Absolute>
    <NoteOn Channel="5" Note="55" Velocity="123"/>
  </Event>
  <Event>
    <Absolute>14642</Absolute>
    <NoteOn Channel="5" Note="55" Velocity="0"/>
  </Event>
  <Event>
    <Absolute>14651</Absolute>
    <NoteOn Channel="5" Note="55" Velocity="123"/>
  </Event>
  <Event>
    <Absolute>14661</Absolute>
    <NoteOn Channel="5" Note="55" Velocity="0"/>
  </Event>
  <Event>
    <Absolute>14715</Absolute>
    <NoteOn Channel="5" Note="55" Velocity="123"/>
  </Event>
  <Event>
    <Absolute>14726</Absolute>
    <NoteOn Channel="5" Note="55" Velocity="0"/>
  </Event>
  <Event>
    <Absolute>14735</Absolute>
    <NoteOn Channel="5" Note="55" Velocity="123"/>
  </Event>
  <Event>
    <Absolute>14745</Absolute>
    <NoteOn Channel="5" Note="55" Velocity="0"/>
  </Event>
  <Event>
    <Absolute>14753</Absolute>
    <NoteOn Channel="5" Note="55" Velocity="123"/>
  </Event>
  <Event>
    <Absolute>14765</Absolute>
    <NoteOn Channel="5" Note="55" Velocity="0"/>
  </Event>
  <Event>
    <Absolute>14773</Absolute>
    <NoteOn Channel="5" Note="51" Velocity="123"/>
  </Event>
  <Event>
    <Absolute>14783</Absolute>
    <NoteOn Channel="5" Note="51" Velocity="0"/>
  </Event>
  <Event>
    <Absolute>14791</Absolute>
    <NoteOn Channel="5" Note="51" Velocity="123"/>
  </Event>
  <Event>
    <Absolute>14804</Absolute>
    <NoteOn Channel="5" Note="51" Velocity="0"/>
  </Event>
  <Event>
    <Absolute>14810</Absolute>
    <NoteOn Channel="5" Note="51" Velocity="123"/>
  </Event>
  <Event>
    <Absolute>14821</Absolute>
    <NoteOn Channel="5" Note="51" Velocity="0"/>
  </Event>
  <Event>
    <Absolute>14830</Absolute>
    <NoteOn Channel="5" Note="51" Velocity="123"/>
  </Event>
  <Event>
    <Absolute>14842</Absolute>
    <NoteOn Channel="5" Note="51" Velocity="0"/>
  </Event>
  <Event>
    <Absolute>14893</Absolute>
    <NoteOn Channel="5" Note="67" Velocity="127"/>
  </Event>
  <Event>
    <Absolute>14960</Absolute>
    <NoteOn Channel="5" Note="67" Velocity="0"/>
  </Event>
  <Event>
    <Absolute>15010</Absolute>
    <NoteOn Channel="5" Note="67" Velocity="123"/>
  </Event>
  <Event>
    <Absolute>15011</Absolute>
    <NoteOn Channel="5" Note="55" Velocity="123"/>
  </Event>
  <Event>
    <Absolute>15022</Absolute>
    <NoteOn Channel="5" Note="55" Velocity="0"/>
  </Event>
  <Event>
    <Absolute>15073</Absolute>
    <NoteOn Channel="5" Note="55" Velocity="123"/>
  </Event>
  <Event>
    <Absolute>15083</Absolute>
    <NoteOn Channel="5" Note="55" Velocity="0"/>
  </Event>
  <Event>
    <Absolute>15083</Absolute>
    <NoteOn Channel="5" Note="67" Velocity="0"/>
  </Event>
  <Event>
    <Absolute>15093</Absolute>
    <NoteOn Channel="5" Note="55" Velocity="123"/>
  </Event>
  <Event>
    <Absolute>15103</Absolute>
    <NoteOn Channel="5" Note="55" Velocity="0"/>
  </Event>
  <Event>
    <Absolute>15112</Absolute>
    <NoteOn Channel="5" Note="55" Velocity="123"/>
  </Event>
  <Event>
    <Absolute>15123</Absolute>
    <NoteOn Channel="5" Note="55" Velocity="0"/>
  </Event>
  <Event>
    <Absolute>15131</Absolute>
    <NoteOn Channel="5" Note="55" Velocity="123"/>
  </Event>
  <Event>
    <Absolute>15136</Absolute>
    <NoteOn Channel="5" Note="67" Velocity="123"/>
  </Event>
  <Event>
    <Absolute>15141</Absolute>
    <NoteOn Channel="5" Note="55" Velocity="0"/>
  </Event>
  <Event>
    <Absolute>15191</Absolute>
    <NoteOn Channel="5" Note="55" Velocity="123"/>
  </Event>
  <Event>
    <Absolute>15202</Absolute>
    <NoteOn Channel="5" Note="55" Velocity="0"/>
  </Event>
  <Event>
    <Absolute>15210</Absolute>
    <NoteOn Channel="5" Note="67" Velocity="0"/>
  </Event>
  <Event>
    <Absolute>15211</Absolute>
    <NoteOn Channel="5" Note="55" Velocity="123"/>
  </Event>
  <Event>
    <Absolute>15222</Absolute>
    <NoteOn Channel="5" Note="55" Velocity="0"/>
  </Event>
  <Event>
    <Absolute>15230</Absolute>
    <NoteOn Channel="5" Note="55" Velocity="123"/>
  </Event>
  <Event>
    <Absolute>15242</Absolute>
    <NoteOn Channel="5" Note="55" Velocity="0"/>
  </Event>
  <Event>
    <Absolute>15251</Absolute>
    <NoteOn Channel="5" Note="51" Velocity="123"/>
  </Event>
  <Event>
    <Absolute>15253</Absolute>
    <NoteOn Channel="5" Note="63" Velocity="123"/>
  </Event>
  <Event>
    <Absolute>15261</Absolute>
    <NoteOn Channel="5" Note="51" Velocity="0"/>
  </Event>
  <Event>
    <Absolute>15269</Absolute>
    <NoteOn Channel="5" Note="51" Velocity="123"/>
  </Event>
  <Event>
    <Absolute>15283</Absolute>
    <NoteOn Channel="5" Note="51" Velocity="0"/>
  </Event>
  <Event>
    <Absolute>15289</Absolute>
    <NoteOn Channel="5" Note="51" Velocity="123"/>
  </Event>
  <Event>
    <Absolute>15300</Absolute>
    <NoteOn Channel="5" Note="51" Velocity="0"/>
  </Event>
  <Event>
    <Absolute>15310</Absolute>
    <NoteOn Channel="5" Note="51" Velocity="123"/>
  </Event>
  <Event>
    <Absolute>15311</Absolute>
    <NoteOn Channel="5" Note="63" Velocity="0"/>
  </Event>
  <Event>
    <Absolute>15323</Absolute>
    <NoteOn Channel="5" Note="51" Velocity="0"/>
  </Event>
  <Event>
    <Absolute>15341</Absolute>
    <NoteOn Channel="5" Note="70" Velocity="123"/>
  </Event>
  <Event>
    <Absolute>15357</Absolute>
    <NoteOn Channel="5" Note="70" Velocity="0"/>
  </Event>
  <Event>
    <Absolute>15372</Absolute>
    <NoteOn Channel="5" Note="67" Velocity="123"/>
  </Event>
  <Event>
    <Absolute>15373</Absolute>
    <NoteOn Channel="5" Note="55" Velocity="123"/>
  </Event>
  <Event>
    <Absolute>15385</Absolute>
    <NoteOn Channel="5" Note="55" Velocity="0"/>
  </Event>
  <Event>
    <Absolute>15456</Absolute>
    <NoteOn Channel="5" Note="67" Velocity="0"/>
  </Event>
  <Event>
    <Absolute>15490</Absolute>
    <NoteOn Channel="5" Note="55" Velocity="123"/>
  </Event>
  <Event>
    <Absolute>15491</Absolute>
    <NoteOn Channel="5" Note="63" Velocity="123"/>
  </Event>
  <Event>
    <Absolute>15501</Absolute>
    <NoteOn Channel="5" Note="55" Velocity="0"/>
  </Event>
  <Event>
    <Absolute>15549</Absolute>
    <NoteOn Channel="5" Note="63" Velocity="0"/>
  </Event>
  <Event>
    <Absolute>15550</Absolute>
    <NoteOn Channel="5" Note="55" Velocity="123"/>
  </Event>
  <Event>
    <Absolute>15561</Absolute>
    <NoteOn Channel="5" Note="55" Velocity="0"/>
  </Event>
  <Event>
    <Absolute>15570</Absolute>
    <NoteOn Channel="5" Note="55" Velocity="123"/>
  </Event>
  <Event>
    <Absolute>15581</Absolute>
    <NoteOn Channel="5" Note="55" Velocity="0"/>
  </Event>
  <Event>
    <Absolute>15584</Absolute>
    <NoteOn Channel="5" Note="70" Velocity="123"/>
  </Event>
  <Event>
    <Absolute>15590</Absolute>
    <NoteOn Channel="5" Note="55" Velocity="123"/>
  </Event>
  <Event>
    <Absolute>15600</Absolute>
    <NoteOn Channel="5" Note="70" Velocity="0"/>
  </Event>
  <Event>
    <Absolute>15601</Absolute>
    <NoteOn Channel="5" Note="55" Velocity="0"/>
  </Event>
  <Event>
    <Absolute>15610</Absolute>
    <NoteOn Channel="5" Note="55" Velocity="123"/>
  </Event>
  <Event>
    <Absolute>15612</Absolute>
    <NoteOn Channel="5" Note="67" Velocity="123"/>
  </Event>
  <Event>
    <Absolute>15621</Absolute>
    <NoteOn Channel="5" Note="55" Velocity="0"/>
  </Event>
  <Event>
    <Absolute>15668</Absolute>
    <NoteOn Channel="5" Note="55" Velocity="123"/>
  </Event>
  <Event>
    <Absolute>15679</Absolute>
    <NoteOn Channel="5" Note="55" Velocity="0"/>
  </Event>
  <Event>
    <Absolute>15688</Absolute>
    <NoteOn Channel="5" Note="55" Velocity="123"/>
  </Event>
  <Event>
    <Absolute>15699</Absolute>
    <NoteOn Channel="5" Note="55" Velocity="0"/>
  </Event>
  <Event>
    <Absolute>15710</Absolute>
    <NoteOn Channel="5" Note="55" Velocity="123"/>
  </Event>
  <Event>
    <Absolute>15721</Absolute>
    <NoteOn Channel="5" Note="55" Velocity="0"/>
  </Event>
  <Event>
    <Absolute>15730</Absolute>
    <NoteOn Channel="5" Note="51" Velocity="123"/>
  </Event>
  <Event>
    <Absolute>15741</Absolute>
    <NoteOn Channel="5" Note="51" Velocity="0"/>
  </Event>
  <Event>
    <Absolute>15750</Absolute>
    <NoteOn Channel="5" Note="51" Velocity="123"/>
  </Event>
  <Event>
    <Absolute>15763</Absolute>
    <NoteOn Channel="5" Note="51" Velocity="0"/>
  </Event>
  <Event>
    <Absolute>15764</Absolute>
    <NoteOn Channel="5" Note="67" Velocity="0"/>
  </Event>
  <Event>
    <Absolute>15768</Absolute>
    <NoteOn Channel="5" Note="51" Velocity="123"/>
  </Event>
  <Event>
    <Absolute>15779</Absolute>
    <NoteOn Channel="5" Note="51" Velocity="0"/>
  </Event>
  <Event>
    <Absolute>15790</Absolute>
    <NoteOn Channel="5" Note="51" Velocity="123"/>
  </Event>
  <Event>
    <Absolute>15801</Absolute>
    <NoteOn Channel="5" Note="51" Velocity="0"/>
  </Event>
  <Event>
    <Absolute>15851</Absolute>
    <NoteOn Channel="5" Note="74" Velocity="123"/>
  </Event>
  <Event>
    <Absolute>15852</Absolute>
    <NoteOn Channel="5" Note="55" Velocity="123"/>
  </Event>
  <Event>
    <Absolute>15863</Absolute>
    <NoteOn Channel="5" Note="55" Velocity="0"/>
  </Event>
  <Event>
    <Absolute>15927</Absolute>
    <NoteOn Channel="5" Note="74" Velocity="0"/>
  </Event>
  <Event>
    <Absolute>15971</Absolute>
    <NoteOn Channel="5" Note="74" Velocity="123"/>
  </Event>
  <Event>
    <Absolute>15973</Absolute>
    <NoteOn Channel="5" Note="55" Velocity="123"/>
  </Event>
  <Event>
    <Absolute>15984</Absolute>
    <NoteOn Channel="5" Note="55" Velocity="0"/>
  </Event>
  <Event>
    <Absolute>16033</Absolute>
    <NoteOn Channel="5" Note="55" Velocity="123"/>
  </Event>
  <Event>
    <Absolute>16043</Absolute>
    <NoteOn Channel="5" Note="55" Velocity="0"/>
  </Event>
  <Event>
    <Absolute>16046</Absolute>
    <NoteOn Channel="5" Note="74" Velocity="0"/>
  </Event>
  <Event>
    <Absolute>16052</Absolute>
    <NoteOn Channel="5" Note="55" Velocity="123"/>
  </Event>
  <Event>
    <Absolute>16063</Absolute>
    <NoteOn Channel="5" Note="55" Velocity="0"/>
  </Event>
  <Event>
    <Absolute>16072</Absolute>
    <NoteOn Channel="5" Note="55" Velocity="123"/>
  </Event>
  <Event>
    <Absolute>16084</Absolute>
    <NoteOn Channel="5" Note="55" Velocity="0"/>
  </Event>
  <Event>
    <Absolute>16090</Absolute>
    <NoteOn Channel="5" Note="74" Velocity="123"/>
  </Event>
  <Event>
    <Absolute>16091</Absolute>
    <NoteOn Channel="5" Note="55" Velocity="123"/>
  </Event>
  <Event>
    <Absolute>16102</Absolute>
    <NoteOn Channel="5" Note="55" Velocity="0"/>
  </Event>
  <Event>
    <Absolute>16153</Absolute>
    <NoteOn Channel="5" Note="55" Velocity="123"/>
  </Event>
  <Event>
    <Absolute>16163</Absolute>
    <NoteOn Channel="5" Note="55" Velocity="0"/>
  </Event>
  <Event>
    <Absolute>16168</Absolute>
    <NoteOn Channel="5" Note="74" Velocity="0"/>
  </Event>
  <Event>
    <Absolute>16172</Absolute>
    <NoteOn Channel="5" Note="55" Velocity="123"/>
  </Event>
  <Event>
    <Absolute>16182</Absolute>
    <NoteOn Channel="5" Note="55" Velocity="0"/>
  </Event>
  <Event>
    <Absolute>16192</Absolute>
    <NoteOn Channel="5" Note="55" Velocity="123"/>
  </Event>
  <Event>
    <Absolute>16204</Absolute>
    <NoteOn Channel="5" Note="55" Velocity="0"/>
  </Event>
  <Event>
    <Absolute>16211</Absolute>
    <NoteOn Channel="5" Note="51" Velocity="123"/>
  </Event>
  <Event>
    <Absolute>16214</Absolute>
    <NoteOn Channel="5" Note="75" Velocity="123"/>
  </Event>
  <Event>
    <Absolute>16221</Absolute>
    <NoteOn Channel="5" Note="51" Velocity="0"/>
  </Event>
  <Event>
    <Absolute>16231</Absolute>
    <NoteOn Channel="5" Note="51" Velocity="123"/>
  </Event>
  <Event>
    <Absolute>16242</Absolute>
    <NoteOn Channel="5" Note="51" Velocity="0"/>
  </Event>
  <Event>
    <Absolute>16251</Absolute>
    <NoteOn Channel="5" Note="51" Velocity="123"/>
  </Event>
  <Event>
    <Absolute>16262</Absolute>
    <NoteOn Channel="5" Note="51" Velocity="0"/>
  </Event>
  <Event>
    <Absolute>16266</Absolute>
    <NoteOn Channel="5" Note="75" Velocity="0"/>
  </Event>
  <Event>
    <Absolute>16272</Absolute>
    <NoteOn Channel="5" Note="51" Velocity="123"/>
  </Event>
  <Event>
    <Absolute>16285</Absolute>
    <NoteOn Channel="5" Note="51" Velocity="0"/>
  </Event>
  <Event>
    <Absolute>16301</Absolute>
    <NoteOn Channel="5" Note="70" Velocity="123"/>
  </Event>
  <Event>
    <Absolute>16320</Absolute>
    <NoteOn Channel="5" Note="70" Velocity="0"/>
  </Event>
  <Event>
    <Absolute>16328</Absolute>
    <NoteOn Channel="5" Note="63" Velocity="123"/>
  </Event>
  <Event>
    <Absolute>16335</Absolute>
    <NoteOn Channel="5" Note="66" Velocity="123"/>
  </Event>
  <Event>
    <Absolute>16341</Absolute>
    <NoteOn Channel="5" Note="63" Velocity="0"/>
  </Event>
  <Event>
    <Absolute>16419</Absolute>
    <NoteOn Channel="5" Note="66" Velocity="0"/>
  </Event>
  <Event>
    <Absolute>16450</Absolute>
    <NoteOn Channel="5" Note="60" Velocity="123"/>
  </Event>
  <Event>
    <Absolute>16451</Absolute>
    <NoteOn Channel="5" Note="63" Velocity="123"/>
  </Event>
  <Event>
    <Absolute>16464</Absolute>
    <NoteOn Channel="5" Note="60" Velocity="0"/>
  </Event>
  <Event>
    <Absolute>16501</Absolute>
    <NoteOn Channel="5" Note="63" Velocity="0"/>
  </Event>
  <Event>
    <Absolute>16511</Absolute>
    <NoteOn Channel="5" Note="60" Velocity="123"/>
  </Event>
  <Event>
    <Absolute>16525</Absolute>
    <NoteOn Channel="5" Note="60" Velocity="0"/>
  </Event>
  <Event>
    <Absolute>16531</Absolute>
    <NoteOn Channel="5" Note="60" Velocity="123"/>
  </Event>
  <Event>
    <Absolute>16538</Absolute>
    <NoteOn Channel="5" Note="70" Velocity="123"/>
  </Event>
  <Event>
    <Absolute>16544</Absolute>
    <NoteOn Channel="5" Note="60" Velocity="0"/>
  </Event>
  <Event>
    <Absolute>16551</Absolute>
    <NoteOn Channel="5" Note="60" Velocity="123"/>
  </Event>
  <Event>
    <Absolute>16555</Absolute>
    <NoteOn Channel="5" Note="70" Velocity="0"/>
  </Event>
  <Event>
    <Absolute>16564</Absolute>
    <NoteOn Channel="5" Note="60" Velocity="0"/>
  </Event>
  <Event>
    <Absolute>16570</Absolute>
    <NoteOn Channel="5" Note="55" Velocity="123"/>
  </Event>
  <Event>
    <Absolute>16571</Absolute>
    <NoteOn Channel="5" Note="67" Velocity="123"/>
  </Event>
  <Event>
    <Absolute>16580</Absolute>
    <NoteOn Channel="5" Note="55" Velocity="0"/>
  </Event>
  <Event>
    <Absolute>16651</Absolute>
    <NoteOn Channel="5" Note="55" Velocity="123"/>
  </Event>
  <Event>
    <Absolute>16662</Absolute>
    <NoteOn Channel="5" Note="55" Velocity="0"/>
  </Event>
  <Event>
    <Absolute>16670</Absolute>
    <NoteOn Channel="5" Note="55" Velocity="123"/>
  </Event>
  <Event>
    <Absolute>16683</Absolute>
    <NoteOn Channel="5" Note="55" Velocity="0"/>
  </Event>
  <Event>
    <Absolute>16691</Absolute>
    <NoteOn Channel="5" Note="55" Velocity="123"/>
  </Event>
  <Event>
    <Absolute>16702</Absolute>
    <NoteOn Channel="5" Note="55" Velocity="0"/>
  </Event>
  <Event>
    <Absolute>16710</Absolute>
    <NoteOn Channel="5" Note="55" Velocity="123"/>
  </Event>
  <Event>
    <Absolute>16717</Absolute>
    <NoteOn Channel="5" Note="67" Velocity="0"/>
  </Event>
  <Event>
    <Absolute>16723</Absolute>
    <NoteOn Channel="5" Note="55" Velocity="0"/>
  </Event>
  <Event>
    <Absolute>16730</Absolute>
    <NoteOn Channel="5" Note="55" Velocity="123"/>
  </Event>
  <Event>
    <Absolute>16742</Absolute>
    <NoteOn Channel="5" Note="55" Velocity="0"/>
  </Event>
  <Event>
    <Absolute>16750</Absolute>
    <NoteOn Channel="5" Note="55" Velocity="123"/>
  </Event>
  <Event>
    <Absolute>16763</Absolute>
    <NoteOn Channel="5" Note="55" Velocity="0"/>
  </Event>
  <Event>
    <Absolute>16810</Absolute>
    <NoteOn Channel="5" Note="55" Velocity="123"/>
  </Event>
  <Event>
    <Absolute>16810</Absolute>
    <NoteOn Channel="5" Note="79" Velocity="123"/>
  </Event>
  <Event>
    <Absolute>16821</Absolute>
    <NoteOn Channel="5" Note="55" Velocity="0"/>
  </Event>
  <Event>
    <Absolute>16902</Absolute>
    <NoteOn Channel="5" Note="79" Velocity="0"/>
  </Event>
  <Event>
    <Absolute>16931</Absolute>
    <NoteOn Channel="5" Note="55" Velocity="123"/>
  </Event>
  <Event>
    <Absolute>16931</Absolute>
    <NoteOn Channel="5" Note="67" Velocity="123"/>
  </Event>
  <Event>
    <Absolute>16942</Absolute>
    <NoteOn Channel="5" Note="55" Velocity="0"/>
  </Event>
  <Event>
    <Absolute>16991</Absolute>
    <NoteOn Channel="5" Note="67" Velocity="0"/>
  </Event>
  <Event>
    <Absolute>16993</Absolute>
    <NoteOn Channel="5" Note="55" Velocity="123"/>
  </Event>
  <Event>
    <Absolute>17003</Absolute>
    <NoteOn Channel="5" Note="55" Velocity="0"/>
  </Event>
  <Event>
    <Absolute>17013</Absolute>
    <NoteOn Channel="5" Note="55" Velocity="123"/>
  </Event>
  <Event>
    <Absolute>17023</Absolute>
    <NoteOn Channel="5" Note="55" Velocity="0"/>
  </Event>
  <Event>
    <Absolute>17025</Absolute>
    <NoteOn Channel="5" Note="67" Velocity="123"/>
  </Event>
  <Event>
    <Absolute>17032</Absolute>
    <NoteOn Channel="5" Note="55" Velocity="123"/>
  </Event>
  <Event>
    <Absolute>17043</Absolute>
    <NoteOn Channel="5" Note="55" Velocity="0"/>
  </Event>
  <Event>
    <Absolute>17048</Absolute>
    <NoteOn Channel="5" Note="67" Velocity="0"/>
  </Event>
  <Event>
    <Absolute>17051</Absolute>
    <NoteOn Channel="5" Note="55" Velocity="123"/>
  </Event>
  <Event>
    <Absolute>17055</Absolute>
    <NoteOn Channel="5" Note="79" Velocity="123"/>
  </Event>
  <Event>
    <Absolute>17061</Absolute>
    <NoteOn Channel="5" Note="55" Velocity="0"/>
  </Event>
  <Event>
    <Absolute>17111</Absolute>
    <NoteOn Channel="5" Note="55" Velocity="123"/>
  </Event>
  <Event>
    <Absolute>17122</Absolute>
    <NoteOn Channel="5" Note="55" Velocity="0"/>
  </Event>
  <Event>
    <Absolute>17131</Absolute>
    <NoteOn Channel="5" Note="79" Velocity="0"/>
  </Event>
  <Event>
    <Absolute>17131</Absolute>
    <NoteOn Channel="5" Note="55" Velocity="123"/>
  </Event>
  <Event>
    <Absolute>17142</Absolute>
    <NoteOn Channel="5" Note="55" Velocity="0"/>
  </Event>
  <Event>
    <Absolute>17150</Absolute>
    <NoteOn Channel="5" Note="55" Velocity="123"/>
  </Event>
  <Event>
    <Absolute>17162</Absolute>
    <NoteOn Channel="5" Note="55" Velocity="0"/>
  </Event>
  <Event>
    <Absolute>17164</Absolute>
    <NoteOn Channel="5" Note="78" Velocity="123"/>
  </Event>
  <Event>
    <Absolute>17171</Absolute>
    <NoteOn Channel="5" Note="51" Velocity="123"/>
  </Event>
  <Event>
    <Absolute>17181</Absolute>
    <NoteOn Channel="5" Note="51" Velocity="0"/>
  </Event>
  <Event>
    <Absolute>17189</Absolute>
    <NoteOn Channel="5" Note="51" Velocity="123"/>
  </Event>
  <Event>
    <Absolute>17203</Absolute>
    <NoteOn Channel="5" Note="51" Velocity="0"/>
  </Event>
  <Event>
    <Absolute>17209</Absolute>
    <NoteOn Channel="5" Note="51" Velocity="123"/>
  </Event>
  <Event>
    <Absolute>17220</Absolute>
    <NoteOn Channel="5" Note="51" Velocity="0"/>
  </Event>
  <Event>
    <Absolute>17229</Absolute>
    <NoteOn Channel="5" Note="78" Velocity="0"/>
  </Event>
  <Event>
    <Absolute>17230</Absolute>
    <NoteOn Channel="5" Note="51" Velocity="123"/>
  </Event>
  <Event>
    <Absolute>17243</Absolute>
    <NoteOn Channel="5" Note="51" Velocity="0"/>
  </Event>
  <Event>
    <Absolute>17262</Absolute>
    <NoteOn Channel="5" Note="77" Velocity="123"/>
  </Event>
  <Event>
    <Absolute>17282</Absolute>
    <NoteOn Channel="5" Note="77" Velocity="0"/>
  </Event>
  <Event>
    <Absolute>17288</Absolute>
    <NoteOn Channel="5" Note="76" Velocity="123"/>
  </Event>
  <Event>
    <Absolute>17289</Absolute>
    <NoteOn Channel="5" Note="61" Velocity="123"/>
  </Event>
  <Event>
    <Absolute>17301</Absolute>
    <NoteOn Channel="5" Note="61" Velocity="0"/>
  </Event>
  <Event>
    <Absolute>17316</Absolute>
    <NoteOn Channel="5" Note="76" Velocity="0"/>
  </Event>
  <Event>
    <Absolute>17328</Absolute>
    <NoteOn Channel="5" Note="75" Velocity="123"/>
  </Event>
  <Event>
    <Absolute>17348</Absolute>
    <NoteOn Channel="5" Note="75" Velocity="0"/>
  </Event>
  <Event>
    <Absolute>17350</Absolute>
    <NoteOn Channel="5" Note="76" Velocity="123"/>
  </Event>
  <Event>
    <Absolute>17377</Absolute>
    <NoteOn Channel="5" Note="76" Velocity="0"/>
  </Event>
  <Event>
    <Absolute>17407</Absolute>
    <NoteOn Channel="5" Note="61" Velocity="123"/>
  </Event>
  <Event>
    <Absolute>17418</Absolute>
    <NoteOn Channel="5" Note="61" Velocity="0"/>
  </Event>
  <Event>
    <Absolute>17470</Absolute>
    <NoteOn Channel="5" Note="61" Velocity="123"/>
  </Event>
  <Event>
    <Absolute>17473</Absolute>
    <NoteOn Channel="5" Note="68" Velocity="123"/>
  </Event>
  <Event>
    <Absolute>17481</Absolute>
    <NoteOn Channel="5" Note="61" Velocity="0"/>
  </Event>
  <Event>
    <Absolute>17490</Absolute>
    <NoteOn Channel="5" Note="61" Velocity="123"/>
  </Event>
  <Event>
    <Absolute>17496</Absolute>
    <NoteOn Channel="5" Note="68" Velocity="0"/>
  </Event>
  <Event>
    <Absolute>17501</Absolute>
    <NoteOn Channel="5" Note="61" Velocity="0"/>
  </Event>
  <Event>
    <Absolute>17510</Absolute>
    <NoteOn Channel="5" Note="61" Velocity="123"/>
  </Event>
  <Event>
    <Absolute>17521</Absolute>
    <NoteOn Channel="5" Note="61" Velocity="0"/>
  </Event>
  <Event>
    <Absolute>17530</Absolute>
    <NoteOn Channel="5" Note="61" Velocity="123"/>
  </Event>
  <Event>
    <Absolute>17533</Absolute>
    <NoteOn Channel="5" Note="73" Velocity="123"/>
  </Event>
  <Event>
    <Absolute>17541</Absolute>
    <NoteOn Channel="5" Note="61" Velocity="0"/>
  </Event>
  <Event>
    <Absolute>17588</Absolute>
    <NoteOn Channel="5" Note="61" Velocity="123"/>
  </Event>
  <Event>
    <Absolute>17599</Absolute>
    <NoteOn Channel="5" Note="61" Velocity="0"/>
  </Event>
  <Event>
    <Absolute>17608</Absolute>
    <NoteOn Channel="5" Note="61" Velocity="123"/>
  </Event>
  <Event>
    <Absolute>17613</Absolute>
    <NoteOn Channel="5" Note="73" Velocity="0"/>
  </Event>
  <Event>
    <Absolute>17619</Absolute>
    <NoteOn Channel="5" Note="61" Velocity="0"/>
  </Event>
  <Event>
    <Absolute>17630</Absolute>
    <NoteOn Channel="5" Note="61" Velocity="123"/>
  </Event>
  <Event>
    <Absolute>17641</Absolute>
    <NoteOn Channel="5" Note="61" Velocity="0"/>
  </Event>
  <Event>
    <Absolute>17650</Absolute>
    <NoteOn Channel="5" Note="61" Velocity="123"/>
  </Event>
  <Event>
    <Absolute>17653</Absolute>
    <NoteOn Channel="5" Note="72" Velocity="123"/>
  </Event>
  <Event>
    <Absolute>17661</Absolute>
    <NoteOn Channel="5" Note="61" Velocity="0"/>
  </Event>
  <Event>
    <Absolute>17670</Absolute>
    <NoteOn Channel="5" Note="61" Velocity="123"/>
  </Event>
  <Event>
    <Absolute>17683</Absolute>
    <NoteOn Channel="5" Note="61" Velocity="0"/>
  </Event>
  <Event>
    <Absolute>17688</Absolute>
    <NoteOn Channel="5" Note="61" Velocity="123"/>
  </Event>
  <Event>
    <Absolute>17699</Absolute>
    <NoteOn Channel="5" Note="61" Velocity="0"/>
  </Event>
  <Event>
    <Absolute>17710</Absolute>
    <NoteOn Channel="5" Note="61" Velocity="123"/>
  </Event>
  <Event>
    <Absolute>17719</Absolute>
    <NoteOn Channel="5" Note="72" Velocity="0"/>
  </Event>
  <Event>
    <Absolute>17721</Absolute>
    <NoteOn Channel="5" Note="61" Velocity="0"/>
  </Event>
  <Event>
    <Absolute>17743</Absolute>
    <NoteOn Channel="5" Note="71" Velocity="123"/>
  </Event>
  <Event>
    <Absolute>17765</Absolute>
    <NoteOn Channel="5" Note="71" Velocity="0"/>
  </Event>
  <Event>
    <Absolute>17769</Absolute>
    <NoteOn Channel="5" Note="63" Velocity="123"/>
  </Event>
  <Event>
    <Absolute>17775</Absolute>
    <NoteOn Channel="5" Note="70" Velocity="123"/>
  </Event>
  <Event>
    <Absolute>17781</Absolute>
    <NoteOn Channel="5" Note="63" Velocity="0"/>
  </Event>
  <Event>
    <Absolute>17798</Absolute>
    <NoteOn Channel="5" Note="70" Velocity="0"/>
  </Event>
  <Event>
    <Absolute>17802</Absolute>
    <NoteOn Channel="5" Note="69" Velocity="123"/>
  </Event>
  <Event>
    <Absolute>17820</Absolute>
    <NoteOn Channel="5" Note="69" Velocity="0"/>
  </Event>
  <Event>
    <Absolute>17833</Absolute>
    <NoteOn Channel="5" Note="70" Velocity="123"/>
  </Event>
  <Event>
    <Absolute>17859</Absolute>
    <NoteOn Channel="5" Note="70" Velocity="0"/>
  </Event>
  <Event>
    <Absolute>17887</Absolute>
    <NoteOn Channel="5" Note="63" Velocity="123"/>
  </Event>
  <Event>
    <Absolute>17898</Absolute>
    <NoteOn Channel="5" Note="63" Velocity="0"/>
  </Event>
  <Event>
    <Absolute>17950</Absolute>
    <NoteOn Channel="5" Note="63" Velocity="123"/>
  </Event>
  <Event>
    <Absolute>17955</Absolute>
    <NoteOn Channel="5" Note="63" Velocity="123"/>
  </Event>
  <Event>
    <Absolute>17958</Absolute>
    <NoteOn Channel="5" Note="63" Velocity="0"/>
  </Event>
  <Event>
    <Absolute>17959</Absolute>
    <NoteOn Channel="5" Note="63" Velocity="0"/>
  </Event>
  <Event>
    <Absolute>17970</Absolute>
    <NoteOn Channel="5" Note="63" Velocity="123"/>
  </Event>
  <Event>
    <Absolute>17975</Absolute>
    <NoteOn Channel="5" Note="63" Velocity="0"/>
  </Event>
  <Event>
    <Absolute>17989</Absolute>
    <NoteOn Channel="5" Note="63" Velocity="123"/>
  </Event>
  <Event>
    <Absolute>18000</Absolute>
    <NoteOn Channel="5" Note="63" Velocity="0"/>
  </Event>
  <Event>
    <Absolute>18010</Absolute>
    <NoteOn Channel="5" Note="62" Velocity="123"/>
  </Event>
  <Event>
    <Absolute>18015</Absolute>
    <NoteOn Channel="5" Note="66" Velocity="123"/>
  </Event>
  <Event>
    <Absolute>18035</Absolute>
    <NoteOn Channel="5" Note="62" Velocity="0"/>
  </Event>
  <Event>
    <Absolute>18087</Absolute>
    <NoteOn Channel="5" Note="66" Velocity="0"/>
  </Event>
  <Event>
    <Absolute>18130</Absolute>
    <NoteOn Channel="5" Note="60" Velocity="123"/>
  </Event>
  <Event>
    <Absolute>18137</Absolute>
    <NoteOn Channel="5" Note="63" Velocity="123"/>
  </Event>
  <Event>
    <Absolute>18141</Absolute>
    <NoteOn Channel="5" Note="60" Velocity="0"/>
  </Event>
  <Event>
    <Absolute>18150</Absolute>
    <NoteOn Channel="5" Note="60" Velocity="123"/>
  </Event>
  <Event>
    <Absolute>18163</Absolute>
    <NoteOn Channel="5" Note="60" Velocity="0"/>
  </Event>
  <Event>
    <Absolute>18168</Absolute>
    <NoteOn Channel="5" Note="60" Velocity="123"/>
  </Event>
  <Event>
    <Absolute>18179</Absolute>
    <NoteOn Channel="5" Note="60" Velocity="0"/>
  </Event>
  <Event>
    <Absolute>18190</Absolute>
    <NoteOn Channel="5" Note="60" Velocity="123"/>
  </Event>
  <Event>
    <Absolute>18201</Absolute>
    <NoteOn Channel="5" Note="60" Velocity="0"/>
  </Event>
  <Event>
    <Absolute>18205</Absolute>
    <NoteOn Channel="5" Note="63" Velocity="0"/>
  </Event>
  <Event>
    <Absolute>18226</Absolute>
    <NoteOn Channel="5" Note="66" Velocity="123"/>
  </Event>
  <Event>
    <Absolute>18241</Absolute>
    <NoteOn Channel="5" Note="66" Velocity="0"/>
  </Event>
  <Event>
    <Absolute>18251</Absolute>
    <NoteOn Channel="5" Note="55" Velocity="123"/>
  </Event>
  <Event>
    <Absolute>18260</Absolute>
    <NoteOn Channel="5" Note="70" Velocity="123"/>
  </Event>
  <Event>
    <Absolute>18262</Absolute>
    <NoteOn Channel="5" Note="55" Velocity="0"/>
  </Event>
  <Event>
    <Absolute>18341</Absolute>
    <NoteOn Channel="5" Note="70" Velocity="0"/>
  </Event>
  <Event>
    <Absolute>18370</Absolute>
    <NoteOn Channel="5" Note="63" Velocity="123"/>
  </Event>
  <Event>
    <Absolute>18375</Absolute>
    <NoteOn Channel="5" Note="67" Velocity="123"/>
  </Event>
  <Event>
    <Absolute>18381</Absolute>
    <NoteOn Channel="5" Note="63" Velocity="0"/>
  </Event>
  <Event>
    <Absolute>18390</Absolute>
    <NoteOn Channel="5" Note="63" Velocity="123"/>
  </Event>
  <Event>
    <Absolute>18403</Absolute>
    <NoteOn Channel="5" Note="63" Velocity="0"/>
  </Event>
  <Event>
    <Absolute>18408</Absolute>
    <NoteOn Channel="5" Note="63" Velocity="123"/>
  </Event>
  <Event>
    <Absolute>18419</Absolute>
    <NoteOn Channel="5" Note="63" Velocity="0"/>
  </Event>
  <Event>
    <Absolute>18430</Absolute>
    <NoteOn Channel="5" Note="63" Velocity="123"/>
  </Event>
  <Event>
    <Absolute>18441</Absolute>
    <NoteOn Channel="5" Note="63" Velocity="0"/>
  </Event>
  <Event>
    <Absolute>18442</Absolute>
    <NoteOn Channel="5" Note="67" Velocity="0"/>
  </Event>
  <Event>
    <Absolute>18465</Absolute>
    <NoteOn Channel="5" Note="70" Velocity="123"/>
  </Event>
  <Event>
    <Absolute>18481</Absolute>
    <NoteOn Channel="5" Note="70" Velocity="0"/>
  </Event>
  <Event>
    <Absolute>18493</Absolute>
    <NoteOn Channel="5" Note="55" Velocity="123"/>
  </Event>
  <Event>
    <Absolute>18497</Absolute>
    <NoteOn Channel="5" Note="74" Velocity="123"/>
  </Event>
  <Event>
    <Absolute>18503</Absolute>
    <NoteOn Channel="5" Note="55" Velocity="0"/>
  </Event>
  <Event>
    <Absolute>18551</Absolute>
    <NoteOn Channel="5" Note="55" Velocity="123"/>
  </Event>
  <Event>
    <Absolute>18562</Absolute>
    <NoteOn Channel="5" Note="55" Velocity="0"/>
  </Event>
  <Event>
    <Absolute>18571</Absolute>
    <NoteOn Channel="5" Note="55" Velocity="123"/>
  </Event>
  <Event>
    <Absolute>18582</Absolute>
    <NoteOn Channel="5" Note="55" Velocity="0"/>
  </Event>
  <Event>
    <Absolute>18591</Absolute>
    <NoteOn Channel="5" Note="55" Velocity="123"/>
  </Event>
  <Event>
    <Absolute>18603</Absolute>
    <NoteOn Channel="5" Note="55" Velocity="0"/>
  </Event>
  <Event>
    <Absolute>18611</Absolute>
    <NoteOn Channel="5" Note="55" Velocity="123"/>
  </Event>
  <Event>
    <Absolute>18621</Absolute>
    <NoteOn Channel="5" Note="55" Velocity="0"/>
  </Event>
  <Event>
    <Absolute>18630</Absolute>
    <NoteOn Channel="5" Note="55" Velocity="123"/>
  </Event>
  <Event>
    <Absolute>18643</Absolute>
    <NoteOn Channel="5" Note="55" Velocity="0"/>
  </Event>
  <Event>
    <Absolute>18648</Absolute>
    <NoteOn Channel="5" Note="74" Velocity="0"/>
  </Event>
  <Event>
    <Absolute>18650</Absolute>
    <NoteOn Channel="5" Note="55" Velocity="123"/>
  </Event>
  <Event>
    <Absolute>18661</Absolute>
    <NoteOn Channel="5" Note="55" Velocity="0"/>
  </Event>
  <Event>
    <Absolute>18671</Absolute>
    <NoteOn Channel="5" Note="55" Velocity="123"/>
  </Event>
  <Event>
    <Absolute>18681</Absolute>
    <NoteOn Channel="5" Note="55" Velocity="0"/>
  </Event>
  <Event>
    <Absolute>18690</Absolute>
    <NoteOn Channel="5" Note="55" Velocity="123"/>
  </Event>
  <Event>
    <Absolute>18703</Absolute>
    <NoteOn Channel="5" Note="55" Velocity="0"/>
  </Event>
  <Event>
    <Absolute>18710</Absolute>
    <NoteOn Channel="5" Note="55" Velocity="123"/>
  </Event>
  <Event>
    <Absolute>18721</Absolute>
    <NoteOn Channel="5" Note="55" Velocity="0"/>
  </Event>
  <Event>
    <Absolute>18730</Absolute>
    <NoteOn Channel="5" Note="63" Velocity="123"/>
  </Event>
  <Event>
    <Absolute>18730</Absolute>
    <NoteOn Channel="5" Note="79" Velocity="123"/>
  </Event>
  <Event>
    <Absolute>18741</Absolute>
    <NoteOn Channel="5" Note="63" Velocity="0"/>
  </Event>
  <Event>
    <Absolute>18822</Absolute>
    <NoteOn Channel="5" Note="79" Velocity="0"/>
  </Event>
  <Event>
    <Absolute>18851</Absolute>
    <NoteOn Channel="5" Note="63" Velocity="123"/>
  </Event>
  <Event>
    <Absolute>18851</Absolute>
    <NoteOn Channel="5" Note="67" Velocity="123"/>
  </Event>
  <Event>
    <Absolute>18862</Absolute>
    <NoteOn Channel="5" Note="63" Velocity="0"/>
  </Event>
  <Event>
    <Absolute>18911</Absolute>
    <NoteOn Channel="5" Note="67" Velocity="0"/>
  </Event>
  <Event>
    <Absolute>18913</Absolute>
    <NoteOn Channel="5" Note="63" Velocity="123"/>
  </Event>
  <Event>
    <Absolute>18923</Absolute>
    <NoteOn Channel="5" Note="63" Velocity="0"/>
  </Event>
  <Event>
    <Absolute>18933</Absolute>
    <NoteOn Channel="5" Note="63" Velocity="123"/>
  </Event>
  <Event>
    <Absolute>18943</Absolute>
    <NoteOn Channel="5" Note="63" Velocity="0"/>
  </Event>
  <Event>
    <Absolute>18945</Absolute>
    <NoteOn Channel="5" Note="67" Velocity="123"/>
  </Event>
  <Event>
    <Absolute>18952</Absolute>
    <NoteOn Channel="5" Note="63" Velocity="123"/>
  </Event>
  <Event>
    <Absolute>18963</Absolute>
    <NoteOn Channel="5" Note="63" Velocity="0"/>
  </Event>
  <Event>
    <Absolute>18968</Absolute>
    <NoteOn Channel="5" Note="67" Velocity="0"/>
  </Event>
  <Event>
    <Absolute>18971</Absolute>
    <NoteOn Channel="5" Note="55" Velocity="123"/>
  </Event>
  <Event>
    <Absolute>18975</Absolute>
    <NoteOn Channel="5" Note="79" Velocity="123"/>
  </Event>
  <Event>
    <Absolute>18981</Absolute>
    <NoteOn Channel="5" Note="55" Velocity="0"/>
  </Event>
  <Event>
    <Absolute>19031</Absolute>
    <NoteOn Channel="5" Note="55" Velocity="123"/>
  </Event>
  <Event>
    <Absolute>19042</Absolute>
    <NoteOn Channel="5" Note="55" Velocity="0"/>
  </Event>
  <Event>
    <Absolute>19051</Absolute>
    <NoteOn Channel="5" Note="79" Velocity="0"/>
  </Event>
  <Event>
    <Absolute>19051</Absolute>
    <NoteOn Channel="5" Note="55" Velocity="123"/>
  </Event>
  <Event>
    <Absolute>19062</Absolute>
    <NoteOn Channel="5" Note="55" Velocity="0"/>
  </Event>
  <Event>
    <Absolute>19070</Absolute>
    <NoteOn Channel="5" Note="55" Velocity="123"/>
  </Event>
  <Event>
    <Absolute>19082</Absolute>
    <NoteOn Channel="5" Note="55" Velocity="0"/>
  </Event>
  <Event>
    <Absolute>19084</Absolute>
    <NoteOn Channel="5" Note="78" Velocity="123"/>
  </Event>
  <Event>
    <Absolute>19091</Absolute>
    <NoteOn Channel="5" Note="51" Velocity="123"/>
  </Event>
  <Event>
    <Absolute>19101</Absolute>
    <NoteOn Channel="5" Note="51" Velocity="0"/>
  </Event>
  <Event>
    <Absolute>19109</Absolute>
    <NoteOn Channel="5" Note="51" Velocity="123"/>
  </Event>
  <Event>
    <Absolute>19123</Absolute>
    <NoteOn Channel="5" Note="51" Velocity="0"/>
  </Event>
  <Event>
    <Absolute>19129</Absolute>
    <NoteOn Channel="5" Note="51" Velocity="123"/>
  </Event>
  <Event>
    <Absolute>19140</Absolute>
    <NoteOn Channel="5" Note="51" Velocity="0"/>
  </Event>
  <Event>
    <Absolute>19149</Absolute>
    <NoteOn Channel="5" Note="78" Velocity="0"/>
  </Event>
  <Event>
    <Absolute>19150</Absolute>
    <NoteOn Channel="5" Note="51" Velocity="123"/>
  </Event>
  <Event>
    <Absolute>19163</Absolute>
    <NoteOn Channel="5" Note="51" Velocity="0"/>
  </Event>
  <Event>
    <Absolute>19182</Absolute>
    <NoteOn Channel="5" Note="77" Velocity="123"/>
  </Event>
  <Event>
    <Absolute>19202</Absolute>
    <NoteOn Channel="5" Note="77" Velocity="0"/>
  </Event>
  <Event>
    <Absolute>19208</Absolute>
    <NoteOn Channel="5" Note="76" Velocity="123"/>
  </Event>
  <Event>
    <Absolute>19209</Absolute>
    <NoteOn Channel="5" Note="61" Velocity="123"/>
  </Event>
  <Event>
    <Absolute>19221</Absolute>
    <NoteOn Channel="5" Note="61" Velocity="0"/>
  </Event>
  <Event>
    <Absolute>19236</Absolute>
    <NoteOn Channel="5" Note="76" Velocity="0"/>
  </Event>
  <Event>
    <Absolute>19248</Absolute>
    <NoteOn Channel="5" Note="75" Velocity="123"/>
  </Event>
  <Event>
    <Absolute>19268</Absolute>
    <NoteOn Channel="5" Note="75" Velocity="0"/>
  </Event>
  <Event>
    <Absolute>19270</Absolute>
    <NoteOn Channel="5" Note="76" Velocity="123"/>
  </Event>
  <Event>
    <Absolute>19297</Absolute>
    <NoteOn Channel="5" Note="76" Velocity="0"/>
  </Event>
  <Event>
    <Absolute>19327</Absolute>
    <NoteOn Channel="5" Note="61" Velocity="123"/>
  </Event>
  <Event>
    <Absolute>19338</Absolute>
    <NoteOn Channel="5" Note="61" Velocity="0"/>
  </Event>
  <Event>
    <Absolute>19390</Absolute>
    <NoteOn Channel="5" Note="61" Velocity="123"/>
  </Event>
  <Event>
    <Absolute>19393</Absolute>
    <NoteOn Channel="5" Note="68" Velocity="123"/>
  </Event>
  <Event>
    <Absolute>19401</Absolute>
    <NoteOn Channel="5" Note="61" Velocity="0"/>
  </Event>
  <Event>
    <Absolute>19410</Absolute>
    <NoteOn Channel="5" Note="61" Velocity="123"/>
  </Event>
  <Event>
    <Absolute>19416</Absolute>
    <NoteOn Channel="5" Note="68" Velocity="0"/>
  </Event>
  <Event>
    <Absolute>19421</Absolute>
    <NoteOn Channel="5" Note="61" Velocity="0"/>
  </Event>
  <Event>
    <Absolute>19430</Absolute>
    <NoteOn Channel="5" Note="61" Velocity="123"/>
  </Event>
  <Event>
    <Absolute>19441</Absolute>
    <NoteOn Channel="5" Note="61" Velocity="0"/>
  </Event>
  <Event>
    <Absolute>19450</Absolute>
    <NoteOn Channel="5" Note="61" Velocity="123"/>
  </Event>
  <Event>
    <Absolute>19453</Absolute>
    <NoteOn Channel="5" Note="73" Velocity="123"/>
  </Event>
  <Event>
    <Absolute>19455</Absolute>
    <NoteOn Channel="5" Note="68" Velocity="123"/>
  </Event>
  <Event>
    <Absolute>19461</Absolute>
    <NoteOn Channel="5" Note="61" Velocity="0"/>
  </Event>
  <Event>
    <Absolute>19508</Absolute>
    <NoteOn Channel="5" Note="61" Velocity="123"/>
  </Event>
  <Event>
    <Absolute>19519</Absolute>
    <NoteOn Channel="5" Note="61" Velocity="0"/>
  </Event>
  <Event>
    <Absolute>19528</Absolute>
    <NoteOn Channel="5" Note="61" Velocity="123"/>
  </Event>
  <Event>
    <Absolute>19533</Absolute>
    <NoteOn Channel="5" Note="73" Velocity="0"/>
  </Event>
  <Event>
    <Absolute>19535</Absolute>
    <NoteOn Channel="5" Note="68" Velocity="0"/>
  </Event>
  <Event>
    <Absolute>19539</Absolute>
    <NoteOn Channel="5" Note="61" Velocity="0"/>
  </Event>
  <Event>
    <Absolute>19550</Absolute>
    <NoteOn Channel="5" Note="61" Velocity="123"/>
  </Event>
  <Event>
    <Absolute>19561</Absolute>
    <NoteOn Channel="5" Note="61" Velocity="0"/>
  </Event>
  <Event>
    <Absolute>19570</Absolute>
    <NoteOn Channel="5" Note="61" Velocity="123"/>
  </Event>
  <Event>
    <Absolute>19573</Absolute>
    <NoteOn Channel="5" Note="72" Velocity="123"/>
  </Event>
  <Event>
    <Absolute>19575</Absolute>
    <NoteOn Channel="5" Note="68" Velocity="123"/>
  </Event>
  <Event>
    <Absolute>19581</Absolute>
    <NoteOn Channel="5" Note="61" Velocity="0"/>
  </Event>
  <Event>
    <Absolute>19590</Absolute>
    <NoteOn Channel="5" Note="61" Velocity="123"/>
  </Event>
  <Event>
    <Absolute>19603</Absolute>
    <NoteOn Channel="5" Note="61" Velocity="0"/>
  </Event>
  <Event>
    <Absolute>19608</Absolute>
    <NoteOn Channel="5" Note="61" Velocity="123"/>
  </Event>
  <Event>
    <Absolute>19619</Absolute>
    <NoteOn Channel="5" Note="61" Velocity="0"/>
  </Event>
  <Event>
    <Absolute>19628</Absolute>
    <NoteOn Channel="5" Note="68" Velocity="0"/>
  </Event>
  <Event>
    <Absolute>19630</Absolute>
    <NoteOn Channel="5" Note="61" Velocity="123"/>
  </Event>
  <Event>
    <Absolute>19639</Absolute>
    <NoteOn Channel="5" Note="72" Velocity="0"/>
  </Event>
  <Event>
    <Absolute>19641</Absolute>
    <NoteOn Channel="5" Note="61" Velocity="0"/>
  </Event>
  <Event>
    <Absolute>19663</Absolute>
    <NoteOn Channel="5" Note="71" Velocity="123"/>
  </Event>
  <Event>
    <Absolute>19663</Absolute>
    <NoteOn Channel="5" Note="68" Velocity="123"/>
  </Event>
  <Event>
    <Absolute>19679</Absolute>
    <NoteOn Channel="5" Note="71" Velocity="0"/>
  </Event>
  <Event>
    <Absolute>19681</Absolute>
    <NoteOn Channel="5" Note="68" Velocity="0"/>
  </Event>
  <Event>
    <Absolute>19689</Absolute>
    <NoteOn Channel="5" Note="63" Velocity="123"/>
  </Event>
  <Event>
    <Absolute>19693</Absolute>
    <NoteOn Channel="5" Note="70" Velocity="123"/>
  </Event>
  <Event>
    <Absolute>19694</Absolute>
    <NoteOn Channel="5" Note="66" Velocity="123"/>
  </Event>
  <Event>
    <Absolute>19701</Absolute>
    <NoteOn Channel="5" Note="63" Velocity="0"/>
  </Event>
  <Event>
    <Absolute>19714</Absolute>
    <NoteOn Channel="5" Note="66" Velocity="0"/>
  </Event>
  <Event>
    <Absolute>19716</Absolute>
    <NoteOn Channel="5" Note="70" Velocity="0"/>
  </Event>
  <Event>
    <Absolute>19721</Absolute>
    <NoteOn Channel="5" Note="65" Velocity="123"/>
  </Event>
  <Event>
    <Absolute>19721</Absolute>
    <NoteOn Channel="5" Note="69" Velocity="123"/>
  </Event>
  <Event>
    <Absolute>19739</Absolute>
    <NoteOn Channel="5" Note="69" Velocity="0"/>
  </Event>
  <Event>
    <Absolute>19741</Absolute>
    <NoteOn Channel="5" Note="65" Velocity="0"/>
  </Event>
  <Event>
    <Absolute>19751</Absolute>
    <NoteOn Channel="5" Note="70" Velocity="123"/>
  </Event>
  <Event>
    <Absolute>19753</Absolute>
    <NoteOn Channel="5" Note="66" Velocity="123"/>
  </Event>
  <Event>
    <Absolute>19776</Absolute>
    <NoteOn Channel="5" Note="66" Velocity="0"/>
  </Event>
  <Event>
    <Absolute>19777</Absolute>
    <NoteOn Channel="5" Note="70" Velocity="0"/>
  </Event>
  <Event>
    <Absolute>19807</Absolute>
    <NoteOn Channel="5" Note="63" Velocity="123"/>
  </Event>
  <Event>
    <Absolute>19818</Absolute>
    <NoteOn Channel="5" Note="63" Velocity="0"/>
  </Event>
  <Event>
    <Absolute>19870</Absolute>
    <NoteOn Channel="5" Note="63" Velocity="123"/>
  </Event>
  <Event>
    <Absolute>19875</Absolute>
    <NoteOn Channel="5" Note="63" Velocity="123"/>
  </Event>
  <Event>
    <Absolute>19878</Absolute>
    <NoteOn Channel="5" Note="63" Velocity="0"/>
  </Event>
  <Event>
    <Absolute>19879</Absolute>
    <NoteOn Channel="5" Note="63" Velocity="0"/>
  </Event>
  <Event>
    <Absolute>19890</Absolute>
    <NoteOn Channel="5" Note="63" Velocity="123"/>
  </Event>
  <Event>
    <Absolute>19895</Absolute>
    <NoteOn Channel="5" Note="63" Velocity="0"/>
  </Event>
  <Event>
    <Absolute>19910</Absolute>
    <NoteOn Channel="5" Note="63" Velocity="123"/>
  </Event>
  <Event>
    <Absolute>19921</Absolute>
    <NoteOn Channel="5" Note="63" Velocity="0"/>
  </Event>
  <Event>
    <Absolute>19930</Absolute>
    <NoteOn Channel="5" Note="63" Velocity="123"/>
  </Event>
  <Event>
    <Absolute>19935</Absolute>
    <NoteOn Channel="5" Note="66" Velocity="123"/>
  </Event>
  <Event>
    <Absolute>19941</Absolute>
    <NoteOn Channel="5" Note="63" Velocity="0"/>
  </Event>
  <Event>
    <Absolute>20007</Absolute>
    <NoteOn Channel="5" Note="66" Velocity="0"/>
  </Event>
  <Event>
    <Absolute>20050</Absolute>
    <NoteOn Channel="5" Note="60" Velocity="123"/>
  </Event>
  <Event>
    <Absolute>20051</Absolute>
    <NoteOn Channel="5" Note="66" Velocity="123"/>
  </Event>
  <Event>
    <Absolute>20053</Absolute>
    <NoteOn Channel="5" Note="70" Velocity="123"/>
  </Event>
  <Event>
    <Absolute>20053</Absolute>
    <NoteOn Channel="5" Note="63" Velocity="123"/>
  </Event>
  <Event>
    <Absolute>20061</Absolute>
    <NoteOn Channel="5" Note="60" Velocity="0"/>
  </Event>
  <Event>
    <Absolute>20070</Absolute>
    <NoteOn Channel="5" Note="60" Velocity="123"/>
  </Event>
  <Event>
    <Absolute>20083</Absolute>
    <NoteOn Channel="5" Note="60" Velocity="0"/>
  </Event>
  <Event>
    <Absolute>20088</Absolute>
    <NoteOn Channel="5" Note="60" Velocity="123"/>
  </Event>
  <Event>
    <Absolute>20099</Absolute>
    <NoteOn Channel="5" Note="60" Velocity="0"/>
  </Event>
  <Event>
    <Absolute>20110</Absolute>
    <NoteOn Channel="5" Note="60" Velocity="123"/>
  </Event>
  <Event>
    <Absolute>20121</Absolute>
    <NoteOn Channel="5" Note="60" Velocity="0"/>
  </Event>
  <Event>
    <Absolute>20121</Absolute>
    <NoteOn Channel="5" Note="63" Velocity="0"/>
  </Event>
  <Event>
    <Absolute>20127</Absolute>
    <NoteOn Channel="5" Note="66" Velocity="0"/>
  </Event>
  <Event>
    <Absolute>20132</Absolute>
    <NoteOn Channel="5" Note="70" Velocity="0"/>
  </Event>
  <Event>
    <Absolute>20146</Absolute>
    <NoteOn Channel="5" Note="70" Velocity="123"/>
  </Event>
  <Event>
    <Absolute>20161</Absolute>
    <NoteOn Channel="5" Note="70" Velocity="0"/>
  </Event>
  <Event>
    <Absolute>20171</Absolute>
    <NoteOn Channel="5" Note="55" Velocity="123"/>
  </Event>
  <Event>
    <Absolute>20174</Absolute>
    <NoteOn Channel="5" Note="67" Velocity="123"/>
  </Event>
  <Event>
    <Absolute>20182</Absolute>
    <NoteOn Channel="5" Note="55" Velocity="0"/>
  </Event>
  <Event>
    <Absolute>20254</Absolute>
    <NoteOn Channel="5" Note="67" Velocity="0"/>
  </Event>
  <Event>
    <Absolute>20290</Absolute>
    <NoteOn Channel="5" Note="66" Velocity="123"/>
  </Event>
  <Event>
    <Absolute>20290</Absolute>
    <NoteOn Channel="5" Note="63" Velocity="123"/>
  </Event>
  <Event>
    <Absolute>20290</Absolute>
    <NoteOn Channel="5" Note="70" Velocity="123"/>
  </Event>
  <Event>
    <Absolute>20291</Absolute>
    <NoteOn Channel="5" Note="63" Velocity="123"/>
  </Event>
  <Event>
    <Absolute>20292</Absolute>
    <NoteOn Channel="5" Note="63" Velocity="0"/>
  </Event>
  <Event>
    <Absolute>20293</Absolute>
    <NoteOn Channel="5" Note="63" Velocity="0"/>
  </Event>
  <Event>
    <Absolute>20310</Absolute>
    <NoteOn Channel="5" Note="63" Velocity="123"/>
  </Event>
  <Event>
    <Absolute>20323</Absolute>
    <NoteOn Channel="5" Note="63" Velocity="0"/>
  </Event>
  <Event>
    <Absolute>20328</Absolute>
    <NoteOn Channel="5" Note="63" Velocity="123"/>
  </Event>
  <Event>
    <Absolute>20339</Absolute>
    <NoteOn Channel="5" Note="63" Velocity="0"/>
  </Event>
  <Event>
    <Absolute>20350</Absolute>
    <NoteOn Channel="5" Note="63" Velocity="123"/>
  </Event>
  <Event>
    <Absolute>20359</Absolute>
    <NoteOn Channel="5" Note="63" Velocity="0"/>
  </Event>
  <Event>
    <Absolute>20360</Absolute>
    <NoteOn Channel="5" Note="70" Velocity="0"/>
  </Event>
  <Event>
    <Absolute>20360</Absolute>
    <NoteOn Channel="5" Note="66" Velocity="0"/>
  </Event>
  <Event>
    <Absolute>20387</Absolute>
    <NoteOn Channel="5" Note="70" Velocity="123"/>
  </Event>
  <Event>
    <Absolute>20403</Absolute>
    <NoteOn Channel="5" Note="70" Velocity="0"/>
  </Event>
  <Event>
    <Absolute>20413</Absolute>
    <NoteOn Channel="5" Note="55" Velocity="123"/>
  </Event>
  <Event>
    <Absolute>20413</Absolute>
    <NoteOn Channel="5" Note="67" Velocity="123"/>
  </Event>
  <Event>
    <Absolute>20423</Absolute>
    <NoteOn Channel="5" Note="55" Velocity="0"/>
  </Event>
  <Event>
    <Absolute>20471</Absolute>
    <NoteOn Channel="5" Note="55" Velocity="123"/>
  </Event>
  <Event>
    <Absolute>20482</Absolute>
    <NoteOn Channel="5" Note="55" Velocity="0"/>
  </Event>
  <Event>
    <Absolute>20491</Absolute>
    <NoteOn Channel="5" Note="55" Velocity="123"/>
  </Event>
  <Event>
    <Absolute>20502</Absolute>
    <NoteOn Channel="5" Note="55" Velocity="0"/>
  </Event>
  <Event>
    <Absolute>20511</Absolute>
    <NoteOn Channel="5" Note="55" Velocity="123"/>
  </Event>
  <Event>
    <Absolute>20523</Absolute>
    <NoteOn Channel="5" Note="55" Velocity="0"/>
  </Event>
  <Event>
    <Absolute>20531</Absolute>
    <NoteOn Channel="5" Note="55" Velocity="123"/>
  </Event>
  <Event>
    <Absolute>20541</Absolute>
    <NoteOn Channel="5" Note="55" Velocity="0"/>
  </Event>
  <Event>
    <Absolute>20550</Absolute>
    <NoteOn Channel="5" Note="55" Velocity="106"/>
  </Event>
  <Event>
    <Absolute>20563</Absolute>
    <NoteOn Channel="5" Note="55" Velocity="0"/>
  </Event>
  <Event>
    <Absolute>20564</Absolute>
    <NoteOn Channel="5" Note="67" Velocity="0"/>
  </Event>
  <Event>
    <Absolute>20570</Absolute>
    <NoteOn Channel="5" Note="55" Velocity="106"/>
  </Event>
  <Event>
    <Absolute>20581</Absolute>
    <NoteOn Channel="5" Note="55" Velocity="0"/>
  </Event>
  <Event>
    <Absolute>20591</Absolute>
    <NoteOn Channel="5" Note="55" Velocity="106"/>
  </Event>
  <Event>
    <Absolute>20604</Absolute>
    <NoteOn Channel="5" Note="55" Velocity="0"/>
  </Event>
  <Event>
    <Absolute>20731</Absolute>
    <NoteOn Channel="5" Note="55" Velocity="106"/>
  </Event>
  <Event>
    <Absolute>20742</Absolute>
    <NoteOn Channel="5" Note="55" Velocity="0"/>
  </Event>
  <Event>
    <Absolute>20750</Absolute>
    <NoteOn Channel="5" Note="55" Velocity="106"/>
  </Event>
  <Event>
    <Absolute>20763</Absolute>
    <NoteOn Channel="5" Note="55" Velocity="0"/>
  </Event>
  <Event>
    <Absolute>20771</Absolute>
    <NoteOn Channel="5" Note="55" Velocity="106"/>
  </Event>
  <Event>
    <Absolute>20782</Absolute>
    <NoteOn Channel="5" Note="55" Velocity="0"/>
  </Event>
  <Event>
    <Absolute>20790</Absolute>
    <NoteOn Channel="5" Note="55" Velocity="106"/>
  </Event>
  <Event>
    <Absolute>20803</Absolute>
    <NoteOn Channel="5" Note="55" Velocity="0"/>
  </Event>
  <Event>
    <Absolute>20810</Absolute>
    <NoteOn Channel="5" Note="55" Velocity="106"/>
  </Event>
  <Event>
    <Absolute>20822</Absolute>
    <NoteOn Channel="5" Note="55" Velocity="0"/>
  </Event>
  <Event>
    <Absolute>20830</Absolute>
    <NoteOn Channel="5" Note="55" Velocity="106"/>
  </Event>
  <Event>
    <Absolute>20843</Absolute>
    <NoteOn Channel="5" Note="55" Velocity="0"/>
  </Event>
  <Event>
    <Absolute>21851</Absolute>
    <NoteOn Channel="5" Note="50" Velocity="127"/>
  </Event>
  <Event>
    <Absolute>21853</Absolute>
    <NoteOn Channel="5" Note="62" Velocity="114"/>
  </Event>
  <Event>
    <Absolute>21907</Absolute>
    <NoteOn Channel="5" Note="62" Velocity="0"/>
  </Event>
  <Event>
    <Absolute>21909</Absolute>
    <NoteOn Channel="5" Note="50" Velocity="0"/>
  </Event>
  <Event>
    <Absolute>22093</Absolute>
    <NoteOn Channel="5" Note="50" Velocity="119"/>
  </Event>
  <Event>
    <Absolute>22094</Absolute>
    <NoteOn Channel="5" Note="62" Velocity="103"/>
  </Event>
  <Event>
    <Absolute>22139</Absolute>
    <NoteOn Channel="5" Note="62" Velocity="0"/>
  </Event>
  <Event>
    <Absolute>22143</Absolute>
    <NoteOn Channel="5" Note="50" Velocity="0"/>
  </Event>
  <Event>
    <Absolute>22333</Absolute>
    <NoteOn Channel="5" Note="50" Velocity="127"/>
  </Event>
  <Event>
    <Absolute>22333</Absolute>
    <NoteOn Channel="5" Note="62" Velocity="114"/>
  </Event>
  <Event>
    <Absolute>22379</Absolute>
    <NoteOn Channel="5" Note="62" Velocity="0"/>
  </Event>
  <Event>
    <Absolute>22380</Absolute>
    <NoteOn Channel="5" Note="50" Velocity="0"/>
  </Event>
  <Event>
    <Absolute>23352</Absolute>
    <NoteOn Channel="5" Note="60" Velocity="109"/>
  </Event>
  <Event>
    <Absolute>23352</Absolute>
    <NoteOn Channel="5" Note="64" Velocity="106"/>
  </Event>
  <Event>
    <Absolute>23353</Absolute>
    <NoteOn Channel="5" Note="68" Velocity="112"/>
  </Event>
  <Event>
    <Absolute>23361</Absolute>
    <NoteOn Channel="5" Note="68" Velocity="0"/>
  </Event>
  <Event>
    <Absolute>23362</Absolute>
    <NoteOn Channel="5" Note="64" Velocity="0"/>
  </Event>
  <Event>
    <Absolute>23363</Absolute>
    <NoteOn Channel="5" Note="60" Velocity="0"/>
  </Event>
  <Event>
    <Absolute>23375</Absolute>
    <NoteOn Channel="5" Note="60" Velocity="101"/>
  </Event>
  <Event>
    <Absolute>23375</Absolute>
    <NoteOn Channel="5" Note="68" Velocity="112"/>
  </Event>
  <Event>
    <Absolute>23375</Absolute>
    <NoteOn Channel="5" Note="64" Velocity="86"/>
  </Event>
  <Event>
    <Absolute>23382</Absolute>
    <NoteOn Channel="5" Note="68" Velocity="0"/>
  </Event>
  <Event>
    <Absolute>23383</Absolute>
    <NoteOn Channel="5" Note="64" Velocity="0"/>
  </Event>
  <Event>
    <Absolute>23385</Absolute>
    <NoteOn Channel="5" Note="60" Velocity="0"/>
  </Event>
  <Event>
    <Absolute>23391</Absolute>
    <NoteOn Channel="5" Note="64" Velocity="91"/>
  </Event>
  <Event>
    <Absolute>23391</Absolute>
    <NoteOn Channel="5" Note="68" Velocity="86"/>
  </Event>
  <Event>
    <Absolute>23393</Absolute>
    <NoteOn Channel="5" Note="60" Velocity="91"/>
  </Event>
  <Event>
    <Absolute>23401</Absolute>
    <NoteOn Channel="5" Note="68" Velocity="0"/>
  </Event>
  <Event>
    <Absolute>23401</Absolute>
    <NoteOn Channel="5" Note="64" Velocity="0"/>
  </Event>
  <Event>
    <Absolute>23403</Absolute>
    <NoteOn Channel="5" Note="60" Velocity="0"/>
  </Event>
  <Event>
    <Absolute>23413</Absolute>
    <NoteOn Channel="5" Note="65" Velocity="70"/>
  </Event>
  <Event>
    <Absolute>23413</Absolute>
    <NoteOn Channel="5" Note="69" Velocity="78"/>
  </Event>
  <Event>
    <Absolute>23414</Absolute>
    <NoteOn Channel="5" Note="61" Velocity="112"/>
  </Event>
  <Event>
    <Absolute>23421</Absolute>
    <NoteOn Channel="5" Note="65" Velocity="0"/>
  </Event>
  <Event>
    <Absolute>23422</Absolute>
    <NoteOn Channel="5" Note="69" Velocity="0"/>
  </Event>
  <Event>
    <Absolute>23423</Absolute>
    <NoteOn Channel="5" Note="61" Velocity="0"/>
  </Event>
  <Event>
    <Absolute>23432</Absolute>
    <NoteOn Channel="5" Note="69" Velocity="75"/>
  </Event>
  <Event>
    <Absolute>23432</Absolute>
    <NoteOn Channel="5" Note="65" Velocity="75"/>
  </Event>
  <Event>
    <Absolute>23433</Absolute>
    <NoteOn Channel="5" Note="61" Velocity="109"/>
  </Event>
  <Event>
    <Absolute>23440</Absolute>
    <NoteOn Channel="5" Note="69" Velocity="0"/>
  </Event>
  <Event>
    <Absolute>23441</Absolute>
    <NoteOn Channel="5" Note="61" Velocity="0"/>
  </Event>
  <Event>
    <Absolute>23442</Absolute>
    <NoteOn Channel="5" Note="65" Velocity="0"/>
  </Event>
  <Event>
    <Absolute>23451</Absolute>
    <NoteOn Channel="5" Note="69" Velocity="78"/>
  </Event>
  <Event>
    <Absolute>23451</Absolute>
    <NoteOn Channel="5" Note="65" Velocity="78"/>
  </Event>
  <Event>
    <Absolute>23451</Absolute>
    <NoteOn Channel="5" Note="61" Velocity="121"/>
  </Event>
  <Event>
    <Absolute>23460</Absolute>
    <NoteOn Channel="5" Note="69" Velocity="0"/>
  </Event>
  <Event>
    <Absolute>23461</Absolute>
    <NoteOn Channel="5" Note="61" Velocity="0"/>
  </Event>
  <Event>
    <Absolute>23461</Absolute>
    <NoteOn Channel="5" Note="65" Velocity="0"/>
  </Event>
  <Event>
    <Absolute>23475</Absolute>
    <NoteOn Channel="5" Note="58" Velocity="101"/>
  </Event>
  <Event>
    <Absolute>23475</Absolute>
    <NoteOn Channel="5" Note="66" Velocity="124"/>
  </Event>
  <Event>
    <Absolute>23476</Absolute>
    <NoteOn Channel="5" Note="62" Velocity="99"/>
  </Event>
  <Event>
    <Absolute>23483</Absolute>
    <NoteOn Channel="5" Note="66" Velocity="0"/>
  </Event>
  <Event>
    <Absolute>23485</Absolute>
    <NoteOn Channel="5" Note="62" Velocity="0"/>
  </Event>
  <Event>
    <Absolute>23485</Absolute>
    <NoteOn Channel="5" Note="58" Velocity="0"/>
  </Event>
  <Event>
    <Absolute>23493</Absolute>
    <NoteOn Channel="5" Note="62" Velocity="65"/>
  </Event>
  <Event>
    <Absolute>23493</Absolute>
    <NoteOn Channel="5" Note="66" Velocity="106"/>
  </Event>
  <Event>
    <Absolute>23495</Absolute>
    <NoteOn Channel="5" Note="58" Velocity="121"/>
  </Event>
  <Event>
    <Absolute>23501</Absolute>
    <NoteOn Channel="5" Note="66" Velocity="0"/>
  </Event>
  <Event>
    <Absolute>23501</Absolute>
    <NoteOn Channel="5" Note="62" Velocity="0"/>
  </Event>
  <Event>
    <Absolute>23503</Absolute>
    <NoteOn Channel="5" Note="58" Velocity="0"/>
  </Event>
  <Event>
    <Absolute>23511</Absolute>
    <NoteOn Channel="5" Note="62" Velocity="75"/>
  </Event>
  <Event>
    <Absolute>23511</Absolute>
    <NoteOn Channel="5" Note="66" Velocity="119"/>
  </Event>
  <Event>
    <Absolute>23513</Absolute>
    <NoteOn Channel="5" Note="58" Velocity="105"/>
  </Event>
  <Event>
    <Absolute>23522</Absolute>
    <NoteOn Channel="5" Note="66" Velocity="0"/>
  </Event>
  <Event>
    <Absolute>23524</Absolute>
    <NoteOn Channel="5" Note="58" Velocity="0"/>
  </Event>
  <Event>
    <Absolute>23524</Absolute>
    <NoteOn Channel="5" Note="62" Velocity="0"/>
  </Event>
  <Event>
    <Absolute>23593</Absolute>
    <NoteOn Channel="5" Note="64" Velocity="96"/>
  </Event>
  <Event>
    <Absolute>23593</Absolute>
    <NoteOn Channel="5" Note="68" Velocity="127"/>
  </Event>
  <Event>
    <Absolute>23594</Absolute>
    <NoteOn Channel="5" Note="60" Velocity="96"/>
  </Event>
  <Event>
    <Absolute>23601</Absolute>
    <NoteOn Channel="5" Note="68" Velocity="0"/>
  </Event>
  <Event>
    <Absolute>23603</Absolute>
    <NoteOn Channel="5" Note="64" Velocity="0"/>
  </Event>
  <Event>
    <Absolute>23604</Absolute>
    <NoteOn Channel="5" Note="60" Velocity="0"/>
  </Event>
  <Event>
    <Absolute>23615</Absolute>
    <NoteOn Channel="5" Note="68" Velocity="95"/>
  </Event>
  <Event>
    <Absolute>23615</Absolute>
    <NoteOn Channel="5" Note="64" Velocity="96"/>
  </Event>
  <Event>
    <Absolute>23615</Absolute>
    <NoteOn Channel="5" Note="60" Velocity="101"/>
  </Event>
  <Event>
    <Absolute>23622</Absolute>
    <NoteOn Channel="5" Note="68" Velocity="0"/>
  </Event>
  <Event>
    <Absolute>23623</Absolute>
    <NoteOn Channel="5" Note="60" Velocity="0"/>
  </Event>
  <Event>
    <Absolute>23624</Absolute>
    <NoteOn Channel="5" Note="64" Velocity="0"/>
  </Event>
  <Event>
    <Absolute>23631</Absolute>
    <NoteOn Channel="5" Note="64" Velocity="96"/>
  </Event>
  <Event>
    <Absolute>23631</Absolute>
    <NoteOn Channel="5" Note="68" Velocity="96"/>
  </Event>
  <Event>
    <Absolute>23632</Absolute>
    <NoteOn Channel="5" Note="60" Velocity="80"/>
  </Event>
  <Event>
    <Absolute>23640</Absolute>
    <NoteOn Channel="5" Note="68" Velocity="0"/>
  </Event>
  <Event>
    <Absolute>23641</Absolute>
    <NoteOn Channel="5" Note="64" Velocity="0"/>
  </Event>
  <Event>
    <Absolute>23642</Absolute>
    <NoteOn Channel="5" Note="60" Velocity="0"/>
  </Event>
  <Event>
    <Absolute>23654</Absolute>
    <NoteOn Channel="5" Note="65" Velocity="91"/>
  </Event>
  <Event>
    <Absolute>23654</Absolute>
    <NoteOn Channel="5" Note="61" Velocity="127"/>
  </Event>
  <Event>
    <Absolute>23655</Absolute>
    <NoteOn Channel="5" Note="69" Velocity="94"/>
  </Event>
  <Event>
    <Absolute>23662</Absolute>
    <NoteOn Channel="5" Note="69" Velocity="0"/>
  </Event>
  <Event>
    <Absolute>23662</Absolute>
    <NoteOn Channel="5" Note="65" Velocity="0"/>
  </Event>
  <Event>
    <Absolute>23664</Absolute>
    <NoteOn Channel="5" Note="61" Velocity="0"/>
  </Event>
  <Event>
    <Absolute>23673</Absolute>
    <NoteOn Channel="5" Note="69" Velocity="86"/>
  </Event>
  <Event>
    <Absolute>23673</Absolute>
    <NoteOn Channel="5" Note="65" Velocity="80"/>
  </Event>
  <Event>
    <Absolute>23675</Absolute>
    <NoteOn Channel="5" Note="61" Velocity="109"/>
  </Event>
  <Event>
    <Absolute>23681</Absolute>
    <NoteOn Channel="5" Note="65" Velocity="0"/>
  </Event>
  <Event>
    <Absolute>23681</Absolute>
    <NoteOn Channel="5" Note="69" Velocity="0"/>
  </Event>
  <Event>
    <Absolute>23683</Absolute>
    <NoteOn Channel="5" Note="61" Velocity="0"/>
  </Event>
  <Event>
    <Absolute>23691</Absolute>
    <NoteOn Channel="5" Note="65" Velocity="80"/>
  </Event>
  <Event>
    <Absolute>23692</Absolute>
    <NoteOn Channel="5" Note="69" Velocity="96"/>
  </Event>
  <Event>
    <Absolute>23692</Absolute>
    <NoteOn Channel="5" Note="61" Velocity="121"/>
  </Event>
  <Event>
    <Absolute>23700</Absolute>
    <NoteOn Channel="5" Note="69" Velocity="0"/>
  </Event>
  <Event>
    <Absolute>23701</Absolute>
    <NoteOn Channel="5" Note="65" Velocity="0"/>
  </Event>
  <Event>
    <Absolute>23702</Absolute>
    <NoteOn Channel="5" Note="61" Velocity="0"/>
  </Event>
  <Event>
    <Absolute>23716</Absolute>
    <NoteOn Channel="5" Note="62" Velocity="101"/>
  </Event>
  <Event>
    <Absolute>23716</Absolute>
    <NoteOn Channel="5" Note="66" Velocity="127"/>
  </Event>
  <Event>
    <Absolute>23718</Absolute>
    <NoteOn Channel="5" Note="58" Velocity="127"/>
  </Event>
  <Event>
    <Absolute>23724</Absolute>
    <NoteOn Channel="5" Note="66" Velocity="0"/>
  </Event>
  <Event>
    <Absolute>23727</Absolute>
    <NoteOn Channel="5" Note="62" Velocity="0"/>
  </Event>
  <Event>
    <Absolute>23728</Absolute>
    <NoteOn Channel="5" Note="58" Velocity="0"/>
  </Event>
  <Event>
    <Absolute>23735</Absolute>
    <NoteOn Channel="5" Note="66" Velocity="124"/>
  </Event>
  <Event>
    <Absolute>23736</Absolute>
    <NoteOn Channel="5" Note="62" Velocity="80"/>
  </Event>
  <Event>
    <Absolute>23736</Absolute>
    <NoteOn Channel="5" Note="58" Velocity="101"/>
  </Event>
  <Event>
    <Absolute>23743</Absolute>
    <NoteOn Channel="5" Note="66" Velocity="0"/>
  </Event>
  <Event>
    <Absolute>23745</Absolute>
    <NoteOn Channel="5" Note="62" Velocity="0"/>
  </Event>
  <Event>
    <Absolute>23747</Absolute>
    <NoteOn Channel="5" Note="58" Velocity="0"/>
  </Event>
  <Event>
    <Absolute>23832</Absolute>
    <NoteOn Channel="5" Note="60" Velocity="109"/>
  </Event>
  <Event>
    <Absolute>23832</Absolute>
    <NoteOn Channel="5" Note="64" Velocity="106"/>
  </Event>
  <Event>
    <Absolute>23833</Absolute>
    <NoteOn Channel="5" Note="68" Velocity="112"/>
  </Event>
  <Event>
    <Absolute>23841</Absolute>
    <NoteOn Channel="5" Note="68" Velocity="0"/>
  </Event>
  <Event>
    <Absolute>23842</Absolute>
    <NoteOn Channel="5" Note="64" Velocity="0"/>
  </Event>
  <Event>
    <Absolute>23843</Absolute>
    <NoteOn Channel="5" Note="60" Velocity="0"/>
  </Event>
  <Event>
    <Absolute>23855</Absolute>
    <NoteOn Channel="5" Note="60" Velocity="101"/>
  </Event>
  <Event>
    <Absolute>23855</Absolute>
    <NoteOn Channel="5" Note="68" Velocity="112"/>
  </Event>
  <Event>
    <Absolute>23855</Absolute>
    <NoteOn Channel="5" Note="64" Velocity="86"/>
  </Event>
  <Event>
    <Absolute>23862</Absolute>
    <NoteOn Channel="5" Note="68" Velocity="0"/>
  </Event>
  <Event>
    <Absolute>23863</Absolute>
    <NoteOn Channel="5" Note="64" Velocity="0"/>
  </Event>
  <Event>
    <Absolute>23865</Absolute>
    <NoteOn Channel="5" Note="60" Velocity="0"/>
  </Event>
  <Event>
    <Absolute>23871</Absolute>
    <NoteOn Channel="5" Note="64" Velocity="91"/>
  </Event>
  <Event>
    <Absolute>23871</Absolute>
    <NoteOn Channel="5" Note="68" Velocity="86"/>
  </Event>
  <Event>
    <Absolute>23873</Absolute>
    <NoteOn Channel="5" Note="60" Velocity="91"/>
  </Event>
  <Event>
    <Absolute>23881</Absolute>
    <NoteOn Channel="5" Note="68" Velocity="0"/>
  </Event>
  <Event>
    <Absolute>23881</Absolute>
    <NoteOn Channel="5" Note="64" Velocity="0"/>
  </Event>
  <Event>
    <Absolute>23883</Absolute>
    <NoteOn Channel="5" Note="60" Velocity="0"/>
  </Event>
  <Event>
    <Absolute>23893</Absolute>
    <NoteOn Channel="5" Note="65" Velocity="70"/>
  </Event>
  <Event>
    <Absolute>23893</Absolute>
    <NoteOn Channel="5" Note="69" Velocity="78"/>
  </Event>
  <Event>
    <Absolute>23894</Absolute>
    <NoteOn Channel="5" Note="61" Velocity="112"/>
  </Event>
  <Event>
    <Absolute>23901</Absolute>
    <NoteOn Channel="5" Note="65" Velocity="0"/>
  </Event>
  <Event>
    <Absolute>23902</Absolute>
    <NoteOn Channel="5" Note="69" Velocity="0"/>
  </Event>
  <Event>
    <Absolute>23903</Absolute>
    <NoteOn Channel="5" Note="61" Velocity="0"/>
  </Event>
  <Event>
    <Absolute>23912</Absolute>
    <NoteOn Channel="5" Note="69" Velocity="75"/>
  </Event>
  <Event>
    <Absolute>23912</Absolute>
    <NoteOn Channel="5" Note="65" Velocity="75"/>
  </Event>
  <Event>
    <Absolute>23913</Absolute>
    <NoteOn Channel="5" Note="61" Velocity="109"/>
  </Event>
  <Event>
    <Absolute>23920</Absolute>
    <NoteOn Channel="5" Note="69" Velocity="0"/>
  </Event>
  <Event>
    <Absolute>23921</Absolute>
    <NoteOn Channel="5" Note="61" Velocity="0"/>
  </Event>
  <Event>
    <Absolute>23922</Absolute>
    <NoteOn Channel="5" Note="65" Velocity="0"/>
  </Event>
  <Event>
    <Absolute>23931</Absolute>
    <NoteOn Channel="5" Note="69" Velocity="78"/>
  </Event>
  <Event>
    <Absolute>23931</Absolute>
    <NoteOn Channel="5" Note="65" Velocity="78"/>
  </Event>
  <Event>
    <Absolute>23931</Absolute>
    <NoteOn Channel="5" Note="61" Velocity="121"/>
  </Event>
  <Event>
    <Absolute>23940</Absolute>
    <NoteOn Channel="5" Note="69" Velocity="0"/>
  </Event>
  <Event>
    <Absolute>23941</Absolute>
    <NoteOn Channel="5" Note="61" Velocity="0"/>
  </Event>
  <Event>
    <Absolute>23941</Absolute>
    <NoteOn Channel="5" Note="65" Velocity="0"/>
  </Event>
  <Event>
    <Absolute>23955</Absolute>
    <NoteOn Channel="5" Note="58" Velocity="101"/>
  </Event>
  <Event>
    <Absolute>23955</Absolute>
    <NoteOn Channel="5" Note="66" Velocity="124"/>
  </Event>
  <Event>
    <Absolute>23956</Absolute>
    <NoteOn Channel="5" Note="62" Velocity="99"/>
  </Event>
  <Event>
    <Absolute>23963</Absolute>
    <NoteOn Channel="5" Note="66" Velocity="0"/>
  </Event>
  <Event>
    <Absolute>23965</Absolute>
    <NoteOn Channel="5" Note="62" Velocity="0"/>
  </Event>
  <Event>
    <Absolute>23965</Absolute>
    <NoteOn Channel="5" Note="58" Velocity="0"/>
  </Event>
  <Event>
    <Absolute>23973</Absolute>
    <NoteOn Channel="5" Note="62" Velocity="65"/>
  </Event>
  <Event>
    <Absolute>23973</Absolute>
    <NoteOn Channel="5" Note="66" Velocity="106"/>
  </Event>
  <Event>
    <Absolute>23975</Absolute>
    <NoteOn Channel="5" Note="58" Velocity="121"/>
  </Event>
  <Event>
    <Absolute>23981</Absolute>
    <NoteOn Channel="5" Note="66" Velocity="0"/>
  </Event>
  <Event>
    <Absolute>23981</Absolute>
    <NoteOn Channel="5" Note="62" Velocity="0"/>
  </Event>
  <Event>
    <Absolute>23983</Absolute>
    <NoteOn Channel="5" Note="58" Velocity="0"/>
  </Event>
  <Event>
    <Absolute>23991</Absolute>
    <NoteOn Channel="5" Note="62" Velocity="75"/>
  </Event>
  <Event>
    <Absolute>23991</Absolute>
    <NoteOn Channel="5" Note="66" Velocity="119"/>
  </Event>
  <Event>
    <Absolute>23993</Absolute>
    <NoteOn Channel="5" Note="58" Velocity="105"/>
  </Event>
  <Event>
    <Absolute>24002</Absolute>
    <NoteOn Channel="5" Note="66" Velocity="0"/>
  </Event>
  <Event>
    <Absolute>24004</Absolute>
    <NoteOn Channel="5" Note="58" Velocity="0"/>
  </Event>
  <Event>
    <Absolute>24004</Absolute>
    <NoteOn Channel="5" Note="62" Velocity="0"/>
  </Event>
  <Event>
    <Absolute>24073</Absolute>
    <NoteOn Channel="5" Note="64" Velocity="96"/>
  </Event>
  <Event>
    <Absolute>24073</Absolute>
    <NoteOn Channel="5" Note="68" Velocity="127"/>
  </Event>
  <Event>
    <Absolute>24074</Absolute>
    <NoteOn Channel="5" Note="60" Velocity="96"/>
  </Event>
  <Event>
    <Absolute>24081</Absolute>
    <NoteOn Channel="5" Note="68" Velocity="0"/>
  </Event>
  <Event>
    <Absolute>24083</Absolute>
    <NoteOn Channel="5" Note="64" Velocity="0"/>
  </Event>
  <Event>
    <Absolute>24084</Absolute>
    <NoteOn Channel="5" Note="60" Velocity="0"/>
  </Event>
  <Event>
    <Absolute>24095</Absolute>
    <NoteOn Channel="5" Note="68" Velocity="95"/>
  </Event>
  <Event>
    <Absolute>24095</Absolute>
    <NoteOn Channel="5" Note="64" Velocity="96"/>
  </Event>
  <Event>
    <Absolute>24095</Absolute>
    <NoteOn Channel="5" Note="60" Velocity="101"/>
  </Event>
  <Event>
    <Absolute>24102</Absolute>
    <NoteOn Channel="5" Note="68" Velocity="0"/>
  </Event>
  <Event>
    <Absolute>24103</Absolute>
    <NoteOn Channel="5" Note="60" Velocity="0"/>
  </Event>
  <Event>
    <Absolute>24104</Absolute>
    <NoteOn Channel="5" Note="64" Velocity="0"/>
  </Event>
  <Event>
    <Absolute>24111</Absolute>
    <NoteOn Channel="5" Note="64" Velocity="96"/>
  </Event>
  <Event>
    <Absolute>24111</Absolute>
    <NoteOn Channel="5" Note="68" Velocity="96"/>
  </Event>
  <Event>
    <Absolute>24112</Absolute>
    <NoteOn Channel="5" Note="60" Velocity="80"/>
  </Event>
  <Event>
    <Absolute>24120</Absolute>
    <NoteOn Channel="5" Note="68" Velocity="0"/>
  </Event>
  <Event>
    <Absolute>24121</Absolute>
    <NoteOn Channel="5" Note="64" Velocity="0"/>
  </Event>
  <Event>
    <Absolute>24122</Absolute>
    <NoteOn Channel="5" Note="60" Velocity="0"/>
  </Event>
  <Event>
    <Absolute>24134</Absolute>
    <NoteOn Channel="5" Note="65" Velocity="91"/>
  </Event>
  <Event>
    <Absolute>24134</Absolute>
    <NoteOn Channel="5" Note="61" Velocity="127"/>
  </Event>
  <Event>
    <Absolute>24135</Absolute>
    <NoteOn Channel="5" Note="69" Velocity="94"/>
  </Event>
  <Event>
    <Absolute>24142</Absolute>
    <NoteOn Channel="5" Note="69" Velocity="0"/>
  </Event>
  <Event>
    <Absolute>24142</Absolute>
    <NoteOn Channel="5" Note="65" Velocity="0"/>
  </Event>
  <Event>
    <Absolute>24144</Absolute>
    <NoteOn Channel="5" Note="61" Velocity="0"/>
  </Event>
  <Event>
    <Absolute>24153</Absolute>
    <NoteOn Channel="5" Note="69" Velocity="86"/>
  </Event>
  <Event>
    <Absolute>24153</Absolute>
    <NoteOn Channel="5" Note="65" Velocity="80"/>
  </Event>
  <Event>
    <Absolute>24155</Absolute>
    <NoteOn Channel="5" Note="61" Velocity="109"/>
  </Event>
  <Event>
    <Absolute>24161</Absolute>
    <NoteOn Channel="5" Note="65" Velocity="0"/>
  </Event>
  <Event>
    <Absolute>24161</Absolute>
    <NoteOn Channel="5" Note="69" Velocity="0"/>
  </Event>
  <Event>
    <Absolute>24163</Absolute>
    <NoteOn Channel="5" Note="61" Velocity="0"/>
  </Event>
  <Event>
    <Absolute>24171</Absolute>
    <NoteOn Channel="5" Note="65" Velocity="80"/>
  </Event>
  <Event>
    <Absolute>24172</Absolute>
    <NoteOn Channel="5" Note="69" Velocity="96"/>
  </Event>
  <Event>
    <Absolute>24172</Absolute>
    <NoteOn Channel="5" Note="61" Velocity="121"/>
  </Event>
  <Event>
    <Absolute>24180</Absolute>
    <NoteOn Channel="5" Note="69" Velocity="0"/>
  </Event>
  <Event>
    <Absolute>24181</Absolute>
    <NoteOn Channel="5" Note="65" Velocity="0"/>
  </Event>
  <Event>
    <Absolute>24182</Absolute>
    <NoteOn Channel="5" Note="61" Velocity="0"/>
  </Event>
  <Event>
    <Absolute>24196</Absolute>
    <NoteOn Channel="5" Note="62" Velocity="101"/>
  </Event>
  <Event>
    <Absolute>24196</Absolute>
    <NoteOn Channel="5" Note="66" Velocity="127"/>
  </Event>
  <Event>
    <Absolute>24198</Absolute>
    <NoteOn Channel="5" Note="58" Velocity="127"/>
  </Event>
  <Event>
    <Absolute>24204</Absolute>
    <NoteOn Channel="5" Note="66" Velocity="0"/>
  </Event>
  <Event>
    <Absolute>24207</Absolute>
    <NoteOn Channel="5" Note="62" Velocity="0"/>
  </Event>
  <Event>
    <Absolute>24208</Absolute>
    <NoteOn Channel="5" Note="58" Velocity="0"/>
  </Event>
  <Event>
    <Absolute>24215</Absolute>
    <NoteOn Channel="5" Note="66" Velocity="124"/>
  </Event>
  <Event>
    <Absolute>24216</Absolute>
    <NoteOn Channel="5" Note="62" Velocity="80"/>
  </Event>
  <Event>
    <Absolute>24216</Absolute>
    <NoteOn Channel="5" Note="58" Velocity="101"/>
  </Event>
  <Event>
    <Absolute>24223</Absolute>
    <NoteOn Channel="5" Note="66" Velocity="0"/>
  </Event>
  <Event>
    <Absolute>24225</Absolute>
    <NoteOn Channel="5" Note="62" Velocity="0"/>
  </Event>
  <Event>
    <Absolute>24227</Absolute>
    <NoteOn Channel="5" Note="58" Velocity="0"/>
  </Event>
  <Event>
    <Absolute>24233</Absolute>
    <NoteOn Channel="5" Note="62" Velocity="96"/>
  </Event>
  <Event>
    <Absolute>24233</Absolute>
    <NoteOn Channel="5" Note="66" Velocity="114"/>
  </Event>
  <Event>
    <Absolute>24234</Absolute>
    <NoteOn Channel="5" Note="58" Velocity="127"/>
  </Event>
  <Event>
    <Absolute>24243</Absolute>
    <NoteOn Channel="5" Note="66" Velocity="0"/>
  </Event>
  <Event>
    <Absolute>24244</Absolute>
    <NoteOn Channel="5" Note="58" Velocity="0"/>
  </Event>
  <Event>
    <Absolute>24245</Absolute>
    <NoteOn Channel="5" Note="62" Velocity="0"/>
  </Event>
  <Event>
    <Absolute>24256</Absolute>
    <NoteOn Channel="5" Note="54" Velocity="121"/>
  </Event>
  <Event>
    <Absolute>24260</Absolute>
    <NoteOn Channel="5" Note="49" Velocity="124"/>
  </Event>
  <Event>
    <Absolute>24260</Absolute>
    <NoteOn Channel="5" Note="42" Velocity="117"/>
  </Event>
  <Event>
    <Absolute>24306</Absolute>
    <NoteOn Channel="5" Note="54" Velocity="0"/>
  </Event>
  <Event>
    <Absolute>24310</Absolute>
    <NoteOn Channel="5" Note="42" Velocity="0"/>
  </Event>
  <Event>
    <Absolute>24310</Absolute>
    <NoteOn Channel="5" Note="49" Velocity="0"/>
  </Event>
  <Event>
    <Absolute>24380</Absolute>
    <NoteOn Channel="5" Note="54" Velocity="127"/>
  </Event>
  <Event>
    <Absolute>24380</Absolute>
    <NoteOn Channel="5" Note="49" Velocity="127"/>
  </Event>
  <Event>
    <Absolute>24381</Absolute>
    <NoteOn Channel="5" Note="42" Velocity="106"/>
  </Event>
  <Event>
    <Absolute>24406</Absolute>
    <NoteOn Channel="5" Note="42" Velocity="0"/>
  </Event>
  <Event>
    <Absolute>24406</Absolute>
    <NoteOn Channel="5" Note="49" Velocity="0"/>
  </Event>
  <Event>
    <Absolute>24408</Absolute>
    <NoteOn Channel="5" Note="54" Velocity="0"/>
  </Event>
  <Event>
    <Absolute>24436</Absolute>
    <NoteOn Channel="5" Note="54" Velocity="127"/>
  </Event>
  <Event>
    <Absolute>24436</Absolute>
    <NoteOn Channel="5" Note="49" Velocity="127"/>
  </Event>
  <Event>
    <Absolute>24437</Absolute>
    <NoteOn Channel="5" Note="42" Velocity="106"/>
  </Event>
  <Event>
    <Absolute>24486</Absolute>
    <NoteOn Channel="5" Note="49" Velocity="0"/>
  </Event>
  <Event>
    <Absolute>24486</Absolute>
    <NoteOn Channel="5" Note="54" Velocity="0"/>
  </Event>
  <Event>
    <Absolute>24487</Absolute>
    <NoteOn Channel="5" Note="42" Velocity="0"/>
  </Event>
  <Event>
    <Absolute>24557</Absolute>
    <NoteOn Channel="5" Note="54" Velocity="127"/>
  </Event>
  <Event>
    <Absolute>24559</Absolute>
    <NoteOn Channel="5" Note="49" Velocity="127"/>
  </Event>
  <Event>
    <Absolute>24560</Absolute>
    <NoteOn Channel="5" Note="42" Velocity="106"/>
  </Event>
  <Event>
    <Absolute>24607</Absolute>
    <NoteOn Channel="5" Note="54" Velocity="0"/>
  </Event>
  <Event>
    <Absolute>24609</Absolute>
    <NoteOn Channel="5" Note="49" Velocity="0"/>
  </Event>
  <Event>
    <Absolute>24610</Absolute>
    <NoteOn Channel="5" Note="42" Velocity="0"/>
  </Event>
  <Event>
    <Absolute>24673</Absolute>
    <NoteOn Channel="5" Note="54" Velocity="127"/>
  </Event>
  <Event>
    <Absolute>24674</Absolute>
    <NoteOn Channel="5" Note="49" Velocity="127"/>
  </Event>
  <Event>
    <Absolute>24676</Absolute>
    <NoteOn Channel="5" Note="42" Velocity="127"/>
  </Event>
  <Event>
    <Absolute>24723</Absolute>
    <NoteOn Channel="5" Note="54" Velocity="0"/>
  </Event>
  <Event>
    <Absolute>24724</Absolute>
    <NoteOn Channel="5" Note="49" Velocity="0"/>
  </Event>
  <Event>
    <Absolute>24726</Absolute>
    <NoteOn Channel="5" Note="42" Velocity="0"/>
  </Event>
  <Event>
    <Absolute>24910</Absolute>
    <NoteOn Channel="5" Note="68" Velocity="62"/>
  </Event>
  <Event>
    <Absolute>24911</Absolute>
    <NoteOn Channel="5" Note="65" Velocity="86"/>
  </Event>
  <Event>
    <Absolute>24914</Absolute>
    <NoteOn Channel="5" Note="61" Velocity="58"/>
  </Event>
  <Event>
    <Absolute>24936</Absolute>
    <NoteOn Channel="5" Note="68" Velocity="0"/>
  </Event>
  <Event>
    <Absolute>24937</Absolute>
    <NoteOn Channel="5" Note="65" Velocity="0"/>
  </Event>
  <Event>
    <Absolute>24939</Absolute>
    <NoteOn Channel="5" Note="61" Velocity="0"/>
  </Event>
  <Event>
    <Absolute>24969</Absolute>
    <NoteOn Channel="5" Note="65" Velocity="68"/>
  </Event>
  <Event>
    <Absolute>24970</Absolute>
    <NoteOn Channel="5" Note="61" Velocity="61"/>
  </Event>
  <Event>
    <Absolute>24970</Absolute>
    <NoteOn Channel="5" Note="68" Velocity="50"/>
  </Event>
  <Event>
    <Absolute>25128</Absolute>
    <NoteOn Channel="5" Note="68" Velocity="0"/>
  </Event>
  <Event>
    <Absolute>25128</Absolute>
    <NoteOn Channel="5" Note="61" Velocity="0"/>
  </Event>
  <Event>
    <Absolute>25129</Absolute>
    <NoteOn Channel="5" Note="65" Velocity="0"/>
  </Event>
  <Event>
    <Absolute>25146</Absolute>
    <NoteOn Channel="5" Note="65" Velocity="119"/>
  </Event>
  <Event>
    <Absolute>25148</Absolute>
    <NoteOn Channel="5" Note="68" Velocity="76"/>
  </Event>
  <Event>
    <Absolute>25150</Absolute>
    <NoteOn Channel="5" Note="61" Velocity="83"/>
  </Event>
  <Event>
    <Absolute>25166</Absolute>
    <NoteOn Channel="5" Note="68" Velocity="0"/>
  </Event>
  <Event>
    <Absolute>25168</Absolute>
    <NoteOn Channel="5" Note="61" Velocity="0"/>
  </Event>
  <Event>
    <Absolute>25169</Absolute>
    <NoteOn Channel="5" Note="65" Velocity="0"/>
  </Event>
  <Event>
    <Absolute>25213</Absolute>
    <NoteOn Channel="5" Note="65" Velocity="88"/>
  </Event>
  <Event>
    <Absolute>25216</Absolute>
    <NoteOn Channel="5" Note="69" Velocity="95"/>
  </Event>
  <Event>
    <Absolute>25221</Absolute>
    <NoteOn Channel="5" Note="61" Velocity="74"/>
  </Event>
  <Event>
    <Absolute>25250</Absolute>
    <NoteOn Channel="5" Note="69" Velocity="0"/>
  </Event>
  <Event>
    <Absolute>25254</Absolute>
    <NoteOn Channel="5" Note="61" Velocity="0"/>
  </Event>
  <Event>
    <Absolute>25254</Absolute>
    <NoteOn Channel="5" Note="65" Velocity="0"/>
  </Event>
  <Event>
    <Absolute>25295</Absolute>
    <NoteOn Channel="5" Note="65" Velocity="114"/>
  </Event>
  <Event>
    <Absolute>25295</Absolute>
    <NoteOn Channel="5" Note="61" Velocity="109"/>
  </Event>
  <Event>
    <Absolute>25296</Absolute>
    <NoteOn Channel="5" Note="69" Velocity="100"/>
  </Event>
  <Event>
    <Absolute>25306</Absolute>
    <NoteOn Channel="5" Note="69" Velocity="0"/>
  </Event>
  <Event>
    <Absolute>25308</Absolute>
    <NoteOn Channel="5" Note="65" Velocity="0"/>
  </Event>
  <Event>
    <Absolute>25312</Absolute>
    <NoteOn Channel="5" Note="61" Velocity="0"/>
  </Event>
  <Event>
    <Absolute>25328</Absolute>
    <NoteOn Channel="5" Note="68" Velocity="82"/>
  </Event>
  <Event>
    <Absolute>25329</Absolute>
    <NoteOn Channel="5" Note="61" Velocity="62"/>
  </Event>
  <Event>
    <Absolute>25330</Absolute>
    <NoteOn Channel="5" Note="65" Velocity="97"/>
  </Event>
  <Event>
    <Absolute>25716</Absolute>
    <NoteOn Channel="5" Note="65" Velocity="0"/>
  </Event>
  <Event>
    <Absolute>25758</Absolute>
    <NoteOn Channel="5" Note="68" Velocity="0"/>
  </Event>
  <Event>
    <Absolute>25763</Absolute>
    <NoteOn Channel="5" Note="61" Velocity="0"/>
  </Event>
  <Event>
    <Absolute>30017</Absolute>
    <NoteOn Channel="5" Note="62" Velocity="117"/>
  </Event>
  <Event>
    <Absolute>30122</Absolute>
    <NoteOn Channel="5" Note="62" Velocity="0"/>
  </Event>
  <Event>
    <Absolute>30253</Absolute>
    <NoteOn Channel="5" Note="69" Velocity="114"/>
  </Event>
  <Event>
    <Absolute>30413</Absolute>
    <NoteOn Channel="5" Note="69" Velocity="0"/>
  </Event>
  <Event>
    <Absolute>30491</Absolute>
    <NoteOn Channel="5" Note="67" Velocity="117"/>
  </Event>
  <Event>
    <Absolute>30551</Absolute>
    <NoteOn Channel="5" Note="67" Velocity="0"/>
  </Event>
  <Event>
    <Absolute>30580</Absolute>
    <NoteOn Channel="5" Note="66" Velocity="110"/>
  </Event>
  <Event>
    <Absolute>30611</Absolute>
    <NoteOn Channel="5" Note="66" Velocity="0"/>
  </Event>
  <Event>
    <Absolute>30657</Absolute>
    <NoteOn Channel="5" Note="64" Velocity="112"/>
  </Event>
  <Event>
    <Absolute>30688</Absolute>
    <NoteOn Channel="5" Note="64" Velocity="0"/>
  </Event>
  <Event>
    <Absolute>30733</Absolute>
    <NoteOn Channel="5" Note="74" Velocity="117"/>
  </Event>
  <Event>
    <Absolute>30931</Absolute>
    <NoteOn Channel="5" Note="74" Velocity="0"/>
  </Event>
  <Event>
    <Absolute>30971</Absolute>
    <NoteOn Channel="5" Note="69" Velocity="113"/>
  </Event>
  <Event>
    <Absolute>31581</Absolute>
    <NoteOn Channel="5" Note="69" Velocity="0"/>
  </Event>
  <Event>
    <Absolute>32882</Absolute>
    <NoteOn Channel="5" Note="69" Velocity="102"/>
  </Event>
  <Event>
    <Absolute>32883</Absolute>
    <NoteOn Channel="5" Note="74" Velocity="47"/>
  </Event>
  <Event>
    <Absolute>32900</Absolute>
    <NoteOn Channel="5" Note="81" Velocity="109"/>
  </Event>
  <Event>
    <Absolute>32905</Absolute>
    <NoteOn Channel="5" Note="74" Velocity="0"/>
  </Event>
  <Event>
    <Absolute>32905</Absolute>
    <NoteOn Channel="5" Note="69" Velocity="0"/>
  </Event>
  <Event>
    <Absolute>32938</Absolute>
    <NoteOn Channel="5" Note="81" Velocity="0"/>
  </Event>
  <Event>
    <Absolute>33000</Absolute>
    <NoteOn Channel="5" Note="74" Velocity="92"/>
  </Event>
  <Event>
    <Absolute>33008</Absolute>
    <NoteOn Channel="5" Note="69" Velocity="88"/>
  </Event>
  <Event>
    <Absolute>33015</Absolute>
    <NoteOn Channel="5" Note="81" Velocity="111"/>
  </Event>
  <Event>
    <Absolute>33024</Absolute>
    <NoteOn Channel="5" Note="69" Velocity="0"/>
  </Event>
  <Event>
    <Absolute>33026</Absolute>
    <NoteOn Channel="5" Note="74" Velocity="0"/>
  </Event>
  <Event>
    <Absolute>33033</Absolute>
    <NoteOn Channel="5" Note="74" Velocity="74"/>
  </Event>
  <Event>
    <Absolute>33049</Absolute>
    <NoteOn Channel="5" Note="81" Velocity="0"/>
  </Event>
  <Event>
    <Absolute>33054</Absolute>
    <NoteOn Channel="5" Note="74" Velocity="0"/>
  </Event>
  <Event>
    <Absolute>33120</Absolute>
    <NoteOn Channel="5" Note="79" Velocity="73"/>
  </Event>
  <Event>
    <Absolute>33127</Absolute>
    <NoteOn Channel="5" Note="74" Velocity="97"/>
  </Event>
  <Event>
    <Absolute>33138</Absolute>
    <NoteOn Channel="5" Note="71" Velocity="44"/>
  </Event>
  <Event>
    <Absolute>33147</Absolute>
    <NoteOn Channel="5" Note="74" Velocity="0"/>
  </Event>
  <Event>
    <Absolute>33152</Absolute>
    <NoteOn Channel="5" Note="71" Velocity="0"/>
  </Event>
  <Event>
    <Absolute>33171</Absolute>
    <NoteOn Channel="5" Note="79" Velocity="0"/>
  </Event>
  <Event>
    <Absolute>33178</Absolute>
    <NoteOn Channel="5" Note="78" Velocity="92"/>
  </Event>
  <Event>
    <Absolute>33200</Absolute>
    <NoteOn Channel="5" Note="71" Velocity="88"/>
  </Event>
  <Event>
    <Absolute>33205</Absolute>
    <NoteOn Channel="5" Note="78" Velocity="0"/>
  </Event>
  <Event>
    <Absolute>33215</Absolute>
    <NoteOn Channel="5" Note="71" Velocity="0"/>
  </Event>
  <Event>
    <Absolute>33215</Absolute>
    <NoteOn Channel="5" Note="76" Velocity="106"/>
  </Event>
  <Event>
    <Absolute>33235</Absolute>
    <NoteOn Channel="5" Note="76" Velocity="0"/>
  </Event>
  <Event>
    <Absolute>33254</Absolute>
    <NoteOn Channel="5" Note="74" Velocity="88"/>
  </Event>
  <Event>
    <Absolute>33255</Absolute>
    <NoteOn Channel="5" Note="86" Velocity="127"/>
  </Event>
  <Event>
    <Absolute>33269</Absolute>
    <NoteOn Channel="5" Note="74" Velocity="0"/>
  </Event>
  <Event>
    <Absolute>33294</Absolute>
    <NoteOn Channel="5" Note="86" Velocity="0"/>
  </Event>
  <Event>
    <Absolute>33380</Absolute>
    <NoteOn Channel="5" Note="81" Velocity="76"/>
  </Event>
  <Event>
    <Absolute>33740</Absolute>
    <NoteOn Channel="5" Note="62" Velocity="80"/>
  </Event>
  <Event>
    <Absolute>33773</Absolute>
    <NoteOn Channel="5" Note="62" Velocity="0"/>
  </Event>
  <Event>
    <Absolute>33797</Absolute>
    <NoteOn Channel="5" Note="64" Velocity="110"/>
  </Event>
  <Event>
    <Absolute>33827</Absolute>
    <NoteOn Channel="5" Note="64" Velocity="0"/>
  </Event>
  <Event>
    <Absolute>33851</Absolute>
    <NoteOn Channel="5" Note="62" Velocity="59"/>
  </Event>
  <Event>
    <Absolute>33855</Absolute>
    <NoteOn Channel="5" Note="66" Velocity="114"/>
  </Event>
  <Event>
    <Absolute>33865</Absolute>
    <NoteOn Channel="5" Note="74" Velocity="127"/>
  </Event>
  <Event>
    <Absolute>33865</Absolute>
    <NoteOn Channel="5" Note="69" Velocity="102"/>
  </Event>
  <Event>
    <Absolute>33878</Absolute>
    <NoteOn Channel="5" Note="81" Velocity="0"/>
  </Event>
  <Event>
    <Absolute>33885</Absolute>
    <NoteOn Channel="5" Note="62" Velocity="0"/>
  </Event>
  <Event>
    <Absolute>33895</Absolute>
    <NoteOn Channel="5" Note="74" Velocity="0"/>
  </Event>
  <Event>
    <Absolute>33895</Absolute>
    <NoteOn Channel="5" Note="69" Velocity="0"/>
  </Event>
  <Event>
    <Absolute>33896</Absolute>
    <NoteOn Channel="5" Note="66" Velocity="0"/>
  </Event>
  <Event>
    <Absolute>33973</Absolute>
    <NoteOn Channel="5" Note="59" Velocity="121"/>
  </Event>
  <Event>
    <Absolute>33978</Absolute>
    <NoteOn Channel="5" Note="74" Velocity="127"/>
  </Event>
  <Event>
    <Absolute>33980</Absolute>
    <NoteOn Channel="5" Note="69" Velocity="116"/>
  </Event>
  <Event>
    <Absolute>33983</Absolute>
    <NoteOn Channel="5" Note="62" Velocity="84"/>
  </Event>
  <Event>
    <Absolute>34003</Absolute>
    <NoteOn Channel="5" Note="62" Velocity="0"/>
  </Event>
  <Event>
    <Absolute>34003</Absolute>
    <NoteOn Channel="5" Note="74" Velocity="0"/>
  </Event>
  <Event>
    <Absolute>34006</Absolute>
    <NoteOn Channel="5" Note="69" Velocity="0"/>
  </Event>
  <Event>
    <Absolute>34007</Absolute>
    <NoteOn Channel="5" Note="59" Velocity="0"/>
  </Event>
  <Event>
    <Absolute>34097</Absolute>
    <NoteOn Channel="5" Note="69" Velocity="122"/>
  </Event>
  <Event>
    <Absolute>34098</Absolute>
    <NoteOn Channel="5" Note="74" Velocity="127"/>
  </Event>
  <Event>
    <Absolute>34098</Absolute>
    <NoteOn Channel="5" Note="62" Velocity="111"/>
  </Event>
  <Event>
    <Absolute>34103</Absolute>
    <NoteOn Channel="5" Note="59" Velocity="114"/>
  </Event>
  <Event>
    <Absolute>34119</Absolute>
    <NoteOn Channel="5" Note="62" Velocity="0"/>
  </Event>
  <Event>
    <Absolute>34121</Absolute>
    <NoteOn Channel="5" Note="74" Velocity="0"/>
  </Event>
  <Event>
    <Absolute>34122</Absolute>
    <NoteOn Channel="5" Note="69" Velocity="0"/>
  </Event>
  <Event>
    <Absolute>34183</Absolute>
    <NoteOn Channel="5" Note="69" Velocity="120"/>
  </Event>
  <Event>
    <Absolute>34185</Absolute>
    <NoteOn Channel="5" Note="74" Velocity="116"/>
  </Event>
  <Event>
    <Absolute>34186</Absolute>
    <NoteOn Channel="5" Note="81" Velocity="86"/>
  </Event>
  <Event>
    <Absolute>34199</Absolute>
    <NoteOn Channel="5" Note="69" Velocity="0"/>
  </Event>
  <Event>
    <Absolute>34200</Absolute>
    <NoteOn Channel="5" Note="81" Velocity="0"/>
  </Event>
  <Event>
    <Absolute>34200</Absolute>
    <NoteOn Channel="5" Note="74" Velocity="0"/>
  </Event>
  <Event>
    <Absolute>34223</Absolute>
    <NoteOn Channel="5" Note="69" Velocity="127"/>
  </Event>
  <Event>
    <Absolute>34223</Absolute>
    <NoteOn Channel="5" Note="74" Velocity="117"/>
  </Event>
  <Event>
    <Absolute>34224</Absolute>
    <NoteOn Channel="5" Note="81" Velocity="102"/>
  </Event>
  <Event>
    <Absolute>34238</Absolute>
    <NoteOn Channel="5" Note="74" Velocity="0"/>
  </Event>
  <Event>
    <Absolute>34238</Absolute>
    <NoteOn Channel="5" Note="69" Velocity="0"/>
  </Event>
  <Event>
    <Absolute>34242</Absolute>
    <NoteOn Channel="5" Note="81" Velocity="0"/>
  </Event>
  <Event>
    <Absolute>34258</Absolute>
    <NoteOn Channel="5" Note="69" Velocity="124"/>
  </Event>
  <Event>
    <Absolute>34262</Absolute>
    <NoteOn Channel="5" Note="81" Velocity="97"/>
  </Event>
  <Event>
    <Absolute>34265</Absolute>
    <NoteOn Channel="5" Note="74" Velocity="117"/>
  </Event>
  <Event>
    <Absolute>34274</Absolute>
    <NoteOn Channel="5" Note="69" Velocity="0"/>
  </Event>
  <Event>
    <Absolute>34279</Absolute>
    <NoteOn Channel="5" Note="81" Velocity="0"/>
  </Event>
  <Event>
    <Absolute>34280</Absolute>
    <NoteOn Channel="5" Note="74" Velocity="0"/>
  </Event>
  <Event>
    <Absolute>34295</Absolute>
    <NoteOn Channel="5" Note="81" Velocity="106"/>
  </Event>
  <Event>
    <Absolute>34295</Absolute>
    <NoteOn Channel="5" Note="69" Velocity="117"/>
  </Event>
  <Event>
    <Absolute>34298</Absolute>
    <NoteOn Channel="5" Note="74" Velocity="127"/>
  </Event>
  <Event>
    <Absolute>34314</Absolute>
    <NoteOn Channel="5" Note="69" Velocity="0"/>
  </Event>
  <Event>
    <Absolute>34314</Absolute>
    <NoteOn Channel="5" Note="59" Velocity="0"/>
  </Event>
  <Event>
    <Absolute>34317</Absolute>
    <NoteOn Channel="5" Note="81" Velocity="0"/>
  </Event>
  <Event>
    <Absolute>34318</Absolute>
    <NoteOn Channel="5" Note="74" Velocity="0"/>
  </Event>
  <Event>
    <Absolute>34330</Absolute>
    <NoteOn Channel="5" Note="67" Velocity="97"/>
  </Event>
  <Event>
    <Absolute>34336</Absolute>
    <NoteOn Channel="5" Note="79" Velocity="127"/>
  </Event>
  <Event>
    <Absolute>34336</Absolute>
    <NoteOn Channel="5" Note="86" Velocity="127"/>
  </Event>
  <Event>
    <Absolute>34346</Absolute>
    <NoteOn Channel="5" Note="67" Velocity="127"/>
  </Event>
  <Event>
    <Absolute>34362</Absolute>
    <NoteOn Channel="5" Note="67" Velocity="0"/>
  </Event>
  <Event>
    <Absolute>34362</Absolute>
    <NoteOn Channel="5" Note="67" Velocity="0"/>
  </Event>
  <Event>
    <Absolute>34395</Absolute>
    <NoteOn Channel="5" Note="79" Velocity="0"/>
  </Event>
  <Event>
    <Absolute>34397</Absolute>
    <NoteOn Channel="5" Note="86" Velocity="0"/>
  </Event>
  <Event>
    <Absolute>34690</Absolute>
    <NoteOn Channel="5" Note="74" Velocity="127"/>
  </Event>
  <Event>
    <Absolute>35045</Absolute>
    <NoteOn Channel="5" Note="74" Velocity="0"/>
  </Event>
  <Event>
    <Absolute>35050</Absolute>
    <NoteOn Channel="5" Note="72" Velocity="121"/>
  </Event>
  <Event>
    <Absolute>35080</Absolute>
    <NoteOn Channel="5" Note="72" Velocity="0"/>
  </Event>
  <Event>
    <Absolute>35090</Absolute>
    <NoteOn Channel="5" Note="70" Velocity="127"/>
  </Event>
  <Event>
    <Absolute>35121</Absolute>
    <NoteOn Channel="5" Note="70" Velocity="0"/>
  </Event>
  <Event>
    <Absolute>35130</Absolute>
    <NoteOn Channel="5" Note="69" Velocity="100"/>
  </Event>
  <Event>
    <Absolute>35164</Absolute>
    <NoteOn Channel="5" Note="69" Velocity="0"/>
  </Event>
  <Event>
    <Absolute>35170</Absolute>
    <NoteOn Channel="5" Note="79" Velocity="120"/>
  </Event>
  <Event>
    <Absolute>35401</Absolute>
    <NoteOn Channel="5" Note="79" Velocity="0"/>
  </Event>
  <Event>
    <Absolute>35410</Absolute>
    <NoteOn Channel="5" Note="74" Velocity="122"/>
  </Event>
  <Event>
    <Absolute>35756</Absolute>
    <NoteOn Channel="5" Note="74" Velocity="0"/>
  </Event>
  <Event>
    <Absolute>35770</Absolute>
    <NoteOn Channel="5" Note="72" Velocity="122"/>
  </Event>
  <Event>
    <Absolute>35793</Absolute>
    <NoteOn Channel="5" Note="72" Velocity="0"/>
  </Event>
  <Event>
    <Absolute>35810</Absolute>
    <NoteOn Channel="5" Note="70" Velocity="114"/>
  </Event>
  <Event>
    <Absolute>35835</Absolute>
    <NoteOn Channel="5" Note="70" Velocity="0"/>
  </Event>
  <Event>
    <Absolute>35850</Absolute>
    <NoteOn Channel="5" Note="69" Velocity="104"/>
  </Event>
  <Event>
    <Absolute>35874</Absolute>
    <NoteOn Channel="5" Note="69" Velocity="0"/>
  </Event>
  <Event>
    <Absolute>35890</Absolute>
    <NoteOn Channel="5" Note="79" Velocity="114"/>
  </Event>
  <Event>
    <Absolute>36130</Absolute>
    <NoteOn Channel="5" Note="74" Velocity="122"/>
  </Event>
  <Event>
    <Absolute>36131</Absolute>
    <NoteOn Channel="5" Note="79" Velocity="0"/>
  </Event>
  <Event>
    <Absolute>36490</Absolute>
    <NoteOn Channel="5" Note="72" Velocity="108"/>
  </Event>
  <Event>
    <Absolute>36495</Absolute>
    <NoteOn Channel="5" Note="74" Velocity="0"/>
  </Event>
  <Event>
    <Absolute>36815</Absolute>
    <NoteOn Channel="5" Note="72" Velocity="0"/>
  </Event>
  <Event>
    <Absolute>36850</Absolute>
    <NoteOn Channel="5" Note="50" Velocity="122"/>
  </Event>
  <Event>
    <Absolute>36891</Absolute>
    <NoteOn Channel="5" Note="50" Velocity="0"/>
  </Event>
  <Event>
    <Absolute>36970</Absolute>
    <NoteOn Channel="5" Note="50" Velocity="106"/>
  </Event>
  <Event>
    <Absolute>37171</Absolute>
    <NoteOn Channel="5" Note="50" Velocity="0"/>
  </Event>
  <Event>
    <Absolute>37210</Absolute>
    <NoteOn Channel="5" Note="51" Velocity="106"/>
  </Event>
  <Event>
    <Absolute>37273</Absolute>
    <NoteOn Channel="5" Note="51" Velocity="0"/>
  </Event>
  <Event>
    <Absolute>37330</Absolute>
    <NoteOn Channel="5" Note="50" Velocity="112"/>
  </Event>
  <Event>
    <Absolute>37374</Absolute>
    <NoteOn Channel="5" Note="50" Velocity="0"/>
  </Event>
  <Event>
    <Absolute>37450</Absolute>
    <NoteOn Channel="5" Note="50" Velocity="109"/>
  </Event>
  <Event>
    <Absolute>37647</Absolute>
    <NoteOn Channel="5" Note="50" Velocity="0"/>
  </Event>
  <Event>
    <Absolute>37690</Absolute>
    <NoteOn Channel="5" Note="51" Velocity="110"/>
  </Event>
  <Event>
    <Absolute>37749</Absolute>
    <NoteOn Channel="5" Note="51" Velocity="0"/>
  </Event>
  <Event>
    <Absolute>37810</Absolute>
    <NoteOn Channel="5" Note="48" Velocity="106"/>
  </Event>
  <Event>
    <Absolute>37856</Absolute>
    <NoteOn Channel="5" Note="48" Velocity="0"/>
  </Event>
  <Event>
    <Absolute>37930</Absolute>
    <NoteOn Channel="5" Note="48" Velocity="105"/>
  </Event>
  <Event>
    <Absolute>38115</Absolute>
    <NoteOn Channel="5" Note="48" Velocity="0"/>
  </Event>
  <Event>
    <Absolute>38170</Absolute>
    <NoteOn Channel="5" Note="48" Velocity="102"/>
  </Event>
  <Event>
    <Absolute>38236</Absolute>
    <NoteOn Channel="5" Note="48" Velocity="0"/>
  </Event>
  <Event>
    <Absolute>38290</Absolute>
    <NoteOn Channel="5" Note="48" Velocity="106"/>
  </Event>
  <Event>
    <Absolute>38353</Absolute>
    <NoteOn Channel="5" Note="48" Velocity="0"/>
  </Event>
  <Event>
    <Absolute>38410</Absolute>
    <NoteOn Channel="5" Note="48" Velocity="101"/>
  </Event>
  <Event>
    <Absolute>38610</Absolute>
    <NoteOn Channel="5" Note="48" Velocity="0"/>
  </Event>
  <Event>
    <Absolute>38650</Absolute>
    <NoteOn Channel="5" Note="48" Velocity="107"/>
  </Event>
  <Event>
    <Absolute>38708</Absolute>
    <NoteOn Channel="5" Note="48" Velocity="0"/>
  </Event>
  <Event>
    <Absolute>41771</Absolute>
    <NoteOn Channel="5" Note="58" Velocity="127"/>
  </Event>
  <Event>
    <Absolute>41834</Absolute>
    <NoteOn Channel="5" Note="58" Velocity="0"/>
  </Event>
  <Event>
    <Absolute>41887</Absolute>
    <NoteOn Channel="5" Note="65" Velocity="127"/>
  </Event>
  <Event>
    <Absolute>42020</Absolute>
    <NoteOn Channel="5" Note="65" Velocity="0"/>
  </Event>
  <Event>
    <Absolute>42051</Absolute>
    <NoteOn Channel="5" Note="63" Velocity="127"/>
  </Event>
  <Event>
    <Absolute>42066</Absolute>
    <NoteOn Channel="5" Note="63" Velocity="0"/>
  </Event>
  <Event>
    <Absolute>42081</Absolute>
    <NoteOn Channel="5" Note="65" Velocity="127"/>
  </Event>
  <Event>
    <Absolute>42098</Absolute>
    <NoteOn Channel="5" Note="65" Velocity="0"/>
  </Event>
  <Event>
    <Absolute>42121</Absolute>
    <NoteOn Channel="5" Note="67" Velocity="127"/>
  </Event>
  <Event>
    <Absolute>42182</Absolute>
    <NoteOn Channel="5" Note="67" Velocity="0"/>
  </Event>
  <Event>
    <Absolute>42241</Absolute>
    <NoteOn Channel="5" Note="63" Velocity="127"/>
  </Event>
  <Event>
    <Absolute>42321</Absolute>
    <NoteOn Channel="5" Note="63" Velocity="0"/>
  </Event>
  <Event>
    <Absolute>42360</Absolute>
    <NoteOn Channel="5" Note="63" Velocity="127"/>
  </Event>
  <Event>
    <Absolute>42377</Absolute>
    <NoteOn Channel="5" Note="63" Velocity="0"/>
  </Event>
  <Event>
    <Absolute>42397</Absolute>
    <NoteOn Channel="5" Note="62" Velocity="127"/>
  </Event>
  <Event>
    <Absolute>42410</Absolute>
    <NoteOn Channel="5" Note="62" Velocity="0"/>
  </Event>
  <Event>
    <Absolute>42432</Absolute>
    <NoteOn Channel="5" Note="63" Velocity="127"/>
  </Event>
  <Event>
    <Absolute>42452</Absolute>
    <NoteOn Channel="5" Note="63" Velocity="0"/>
  </Event>
  <Event>
    <Absolute>42461</Absolute>
    <NoteOn Channel="5" Note="63" Velocity="127"/>
  </Event>
  <Event>
    <Absolute>42467</Absolute>
    <NoteOn Channel="5" Note="63" Velocity="0"/>
  </Event>
  <Event>
    <Absolute>42476</Absolute>
    <NoteOn Channel="5" Note="63" Velocity="127"/>
  </Event>
  <Event>
    <Absolute>42486</Absolute>
    <NoteOn Channel="5" Note="63" Velocity="0"/>
  </Event>
  <Event>
    <Absolute>42492</Absolute>
    <NoteOn Channel="5" Note="63" Velocity="127"/>
  </Event>
  <Event>
    <Absolute>42508</Absolute>
    <NoteOn Channel="5" Note="63" Velocity="0"/>
  </Event>
  <Event>
    <Absolute>42527</Absolute>
    <NoteOn Channel="5" Note="63" Velocity="127"/>
  </Event>
  <Event>
    <Absolute>42538</Absolute>
    <NoteOn Channel="5" Note="63" Velocity="0"/>
  </Event>
  <Event>
    <Absolute>42561</Absolute>
    <NoteOn Channel="5" Note="63" Velocity="127"/>
  </Event>
  <Event>
    <Absolute>42572</Absolute>
    <NoteOn Channel="5" Note="63" Velocity="0"/>
  </Event>
  <Event>
    <Absolute>42611</Absolute>
    <NoteOn Channel="5" Note="68" Velocity="127"/>
  </Event>
  <Event>
    <Absolute>42770</Absolute>
    <NoteOn Channel="5" Note="68" Velocity="0"/>
  </Event>
  <Event>
    <Absolute>42810</Absolute>
    <NoteOn Channel="5" Note="62" Velocity="127"/>
  </Event>
  <Event>
    <Absolute>42825</Absolute>
    <NoteOn Channel="5" Note="62" Velocity="0"/>
  </Event>
  <Event>
    <Absolute>42850</Absolute>
    <NoteOn Channel="5" Note="68" Velocity="127"/>
  </Event>
  <Event>
    <Absolute>42868</Absolute>
    <NoteOn Channel="5" Note="68" Velocity="0"/>
  </Event>
  <Event>
    <Absolute>42890</Absolute>
    <NoteOn Channel="5" Note="72" Velocity="127"/>
  </Event>
  <Event>
    <Absolute>42909</Absolute>
    <NoteOn Channel="5" Note="72" Velocity="0"/>
  </Event>
  <Event>
    <Absolute>42930</Absolute>
    <NoteOn Channel="5" Note="63" Velocity="127"/>
  </Event>
  <Event>
    <Absolute>42950</Absolute>
    <NoteOn Channel="5" Note="63" Velocity="0"/>
  </Event>
  <Event>
    <Absolute>42971</Absolute>
    <NoteOn Channel="5" Note="74" Velocity="127"/>
  </Event>
  <Event>
    <Absolute>43328</Absolute>
    <NoteOn Channel="5" Note="74" Velocity="0"/>
  </Event>
  <Event>
    <Absolute>43331</Absolute>
    <NoteOn Channel="5" Note="62" Velocity="127"/>
  </Event>
  <Event>
    <Absolute>43421</Absolute>
    <NoteOn Channel="5" Note="62" Velocity="0"/>
  </Event>
  <Event>
    <Absolute>43453</Absolute>
    <NoteOn Channel="5" Note="69" Velocity="127"/>
  </Event>
  <Event>
    <Absolute>43543</Absolute>
    <NoteOn Channel="5" Note="69" Velocity="0"/>
  </Event>
  <Event>
    <Absolute>43571</Absolute>
    <NoteOn Channel="5" Note="67" Velocity="127"/>
  </Event>
  <Event>
    <Absolute>43592</Absolute>
    <NoteOn Channel="5" Note="67" Velocity="0"/>
  </Event>
  <Event>
    <Absolute>43611</Absolute>
    <NoteOn Channel="5" Note="66" Velocity="127"/>
  </Event>
  <Event>
    <Absolute>43633</Absolute>
    <NoteOn Channel="5" Note="66" Velocity="0"/>
  </Event>
  <Event>
    <Absolute>43651</Absolute>
    <NoteOn Channel="5" Note="64" Velocity="127"/>
  </Event>
  <Event>
    <Absolute>43667</Absolute>
    <NoteOn Channel="5" Note="64" Velocity="0"/>
  </Event>
  <Event>
    <Absolute>43696</Absolute>
    <NoteOn Channel="5" Note="67" Velocity="127"/>
  </Event>
  <Event>
    <Absolute>44409</Absolute>
    <NoteOn Channel="5" Note="67" Velocity="0"/>
  </Event>
  <Event>
    <Absolute>44410</Absolute>
    <NoteOn Channel="5" Note="76" Velocity="127"/>
  </Event>
  <Event>
    <Absolute>44435</Absolute>
    <NoteOn Channel="5" Note="76" Velocity="0"/>
  </Event>
  <Event>
    <Absolute>44450</Absolute>
    <NoteOn Channel="5" Note="74" Velocity="127"/>
  </Event>
  <Event>
    <Absolute>44478</Absolute>
    <NoteOn Channel="5" Note="74" Velocity="0"/>
  </Event>
  <Event>
    <Absolute>44490</Absolute>
    <NoteOn Channel="5" Note="72" Velocity="127"/>
  </Event>
  <Event>
    <Absolute>44525</Absolute>
    <NoteOn Channel="5" Note="72" Velocity="0"/>
  </Event>
  <Event>
    <Absolute>44535</Absolute>
    <NoteOn Channel="5" Note="77" Velocity="127"/>
  </Event>
  <Event>
    <Absolute>44865</Absolute>
    <NoteOn Channel="5" Note="77" Velocity="0"/>
  </Event>
  <Event>
    <Absolute>44895</Absolute>
    <NoteOn Channel="5" Note="72" Velocity="127"/>
  </Event>
  <Event>
    <Absolute>44916</Absolute>
    <NoteOn Channel="5" Note="72" Velocity="0"/>
  </Event>
  <Event>
    <Absolute>44938</Absolute>
    <NoteOn Channel="5" Note="71" Velocity="127"/>
  </Event>
  <Event>
    <Absolute>44958</Absolute>
    <NoteOn Channel="5" Note="71" Velocity="0"/>
  </Event>
  <Event>
    <Absolute>44978</Absolute>
    <NoteOn Channel="5" Note="69" Velocity="127"/>
  </Event>
  <Event>
    <Absolute>44999</Absolute>
    <NoteOn Channel="5" Note="69" Velocity="0"/>
  </Event>
  <Event>
    <Absolute>45028</Absolute>
    <NoteOn Channel="5" Note="74" Velocity="127"/>
  </Event>
  <Event>
    <Absolute>45130</Absolute>
    <NoteOn Channel="5" Note="74" Velocity="0"/>
  </Event>
  <Event>
    <Absolute>45131</Absolute>
    <NoteOn Channel="5" Note="50" Velocity="127"/>
  </Event>
  <Event>
    <Absolute>45143</Absolute>
    <NoteOn Channel="5" Note="50" Velocity="0"/>
  </Event>
  <Event>
    <Absolute>45171</Absolute>
    <NoteOn Channel="5" Note="50" Velocity="127"/>
  </Event>
  <Event>
    <Absolute>45187</Absolute>
    <NoteOn Channel="5" Note="50" Velocity="0"/>
  </Event>
  <Event>
    <Absolute>45211</Absolute>
    <NoteOn Channel="5" Note="50" Velocity="127"/>
  </Event>
  <Event>
    <Absolute>45230</Absolute>
    <NoteOn Channel="5" Note="50" Velocity="0"/>
  </Event>
  <Event>
    <Absolute>45251</Absolute>
    <NoteOn Channel="5" Note="50" Velocity="127"/>
  </Event>
  <Event>
    <Absolute>45289</Absolute>
    <NoteOn Channel="5" Note="50" Velocity="0"/>
  </Event>
  <Event>
    <Absolute>45289</Absolute>
    <EndOfTrack/>
  </Event>
</Track>
<Track Number="6">
  <Event>
    <Absolute>0</Absolute>
    <MIDIChannelPrefix Value="01"/>
  </Event>
  <Event>
    <Absolute>0</Absolute>
    <ProgramChange Channel="7" Number="46"/>
  </Event>
  <Event>
    <Absolute>0</Absolute>
    <ControlChange Channel="7" Control="7" Value="102"/>
  </Event>
  <Event>
    <Absolute>0</Absolute>
    <ControlChange Channel="7" Control="10" Value="38"/>
  </Event>
  <Event>
    <Absolute>11</Absolute>
    <ControlChange Channel="7" Control="18" Value="64"/>
  </Event>
  <Event>
    <Absolute>2523</Absolute>
    <NoteOn Channel="7" Note="70" Velocity="68"/>
  </Event>
  <Event>
    <Absolute>2534</Absolute>
    <NoteOn Channel="7" Note="70" Velocity="0"/>
  </Event>
  <Event>
    <Absolute>2546</Absolute>
    <NoteOn Channel="7" Note="75" Velocity="56"/>
  </Event>
  <Event>
    <Absolute>2557</Absolute>
    <NoteOn Channel="7" Note="75" Velocity="0"/>
  </Event>
  <Event>
    <Absolute>2564</Absolute>
    <NoteOn Channel="7" Note="77" Velocity="56"/>
  </Event>
  <Event>
    <Absolute>2575</Absolute>
    <NoteOn Channel="7" Note="77" Velocity="0"/>
  </Event>
  <Event>
    <Absolute>2582</Absolute>
    <NoteOn Channel="7" Note="82" Velocity="61"/>
  </Event>
  <Event>
    <Absolute>2593</Absolute>
    <NoteOn Channel="7" Note="82" Velocity="0"/>
  </Event>
  <Event>
    <Absolute>2604</Absolute>
    <NoteOn Channel="7" Note="77" Velocity="54"/>
  </Event>
  <Event>
    <Absolute>2615</Absolute>
    <NoteOn Channel="7" Note="77" Velocity="0"/>
  </Event>
  <Event>
    <Absolute>2623</Absolute>
    <NoteOn Channel="7" Note="75" Velocity="61"/>
  </Event>
  <Event>
    <Absolute>2635</Absolute>
    <NoteOn Channel="7" Note="75" Velocity="0"/>
  </Event>
  <Event>
    <Absolute>2646</Absolute>
    <NoteOn Channel="7" Note="70" Velocity="64"/>
  </Event>
  <Event>
    <Absolute>2657</Absolute>
    <NoteOn Channel="7" Note="70" Velocity="0"/>
  </Event>
  <Event>
    <Absolute>2666</Absolute>
    <NoteOn Channel="7" Note="75" Velocity="61"/>
  </Event>
  <Event>
    <Absolute>2677</Absolute>
    <NoteOn Channel="7" Note="75" Velocity="0"/>
  </Event>
  <Event>
    <Absolute>2685</Absolute>
    <NoteOn Channel="7" Note="77" Velocity="61"/>
  </Event>
  <Event>
    <Absolute>2696</Absolute>
    <NoteOn Channel="7" Note="77" Velocity="0"/>
  </Event>
  <Event>
    <Absolute>2705</Absolute>
    <NoteOn Channel="7" Note="82" Velocity="56"/>
  </Event>
  <Event>
    <Absolute>2717</Absolute>
    <NoteOn Channel="7" Note="82" Velocity="0"/>
  </Event>
  <Event>
    <Absolute>2725</Absolute>
    <NoteOn Channel="7" Note="77" Velocity="54"/>
  </Event>
  <Event>
    <Absolute>2736</Absolute>
    <NoteOn Channel="7" Note="77" Velocity="0"/>
  </Event>
  <Event>
    <Absolute>2744</Absolute>
    <NoteOn Channel="7" Note="75" Velocity="56"/>
  </Event>
  <Event>
    <Absolute>2755</Absolute>
    <NoteOn Channel="7" Note="75" Velocity="0"/>
  </Event>
  <Event>
    <Absolute>2764</Absolute>
    <NoteOn Channel="7" Note="70" Velocity="68"/>
  </Event>
  <Event>
    <Absolute>2775</Absolute>
    <NoteOn Channel="7" Note="70" Velocity="0"/>
  </Event>
  <Event>
    <Absolute>2783</Absolute>
    <NoteOn Channel="7" Note="72" Velocity="61"/>
  </Event>
  <Event>
    <Absolute>2794</Absolute>
    <NoteOn Channel="7" Note="72" Velocity="0"/>
  </Event>
  <Event>
    <Absolute>2803</Absolute>
    <NoteOn Channel="7" Note="77" Velocity="61"/>
  </Event>
  <Event>
    <Absolute>2814</Absolute>
    <NoteOn Channel="7" Note="77" Velocity="0"/>
  </Event>
  <Event>
    <Absolute>2824</Absolute>
    <NoteOn Channel="7" Note="82" Velocity="61"/>
  </Event>
  <Event>
    <Absolute>2835</Absolute>
    <NoteOn Channel="7" Note="82" Velocity="0"/>
  </Event>
  <Event>
    <Absolute>2842</Absolute>
    <NoteOn Channel="7" Note="77" Velocity="61"/>
  </Event>
  <Event>
    <Absolute>2853</Absolute>
    <NoteOn Channel="7" Note="77" Velocity="0"/>
  </Event>
  <Event>
    <Absolute>2860</Absolute>
    <NoteOn Channel="7" Note="72" Velocity="64"/>
  </Event>
  <Event>
    <Absolute>2871</Absolute>
    <NoteOn Channel="7" Note="72" Velocity="0"/>
  </Event>
  <Event>
    <Absolute>2881</Absolute>
    <NoteOn Channel="7" Note="70" Velocity="68"/>
  </Event>
  <Event>
    <Absolute>2892</Absolute>
    <NoteOn Channel="7" Note="70" Velocity="0"/>
  </Event>
  <Event>
    <Absolute>2901</Absolute>
    <NoteOn Channel="7" Note="72" Velocity="61"/>
  </Event>
  <Event>
    <Absolute>2913</Absolute>
    <NoteOn Channel="7" Note="72" Velocity="0"/>
  </Event>
  <Event>
    <Absolute>2920</Absolute>
    <NoteOn Channel="7" Note="77" Velocity="54"/>
  </Event>
  <Event>
    <Absolute>2931</Absolute>
    <NoteOn Channel="7" Note="77" Velocity="0"/>
  </Event>
  <Event>
    <Absolute>2940</Absolute>
    <NoteOn Channel="7" Note="82" Velocity="61"/>
  </Event>
  <Event>
    <Absolute>2952</Absolute>
    <NoteOn Channel="7" Note="82" Velocity="0"/>
  </Event>
  <Event>
    <Absolute>2960</Absolute>
    <NoteOn Channel="7" Note="77" Velocity="54"/>
  </Event>
  <Event>
    <Absolute>2971</Absolute>
    <NoteOn Channel="7" Note="77" Velocity="0"/>
  </Event>
  <Event>
    <Absolute>2979</Absolute>
    <NoteOn Channel="7" Note="72" Velocity="64"/>
  </Event>
  <Event>
    <Absolute>2990</Absolute>
    <NoteOn Channel="7" Note="72" Velocity="0"/>
  </Event>
  <Event>
    <Absolute>2998</Absolute>
    <NoteOn Channel="7" Note="70" Velocity="68"/>
  </Event>
  <Event>
    <Absolute>3010</Absolute>
    <NoteOn Channel="7" Note="70" Velocity="0"/>
  </Event>
  <Event>
    <Absolute>3019</Absolute>
    <NoteOn Channel="7" Note="75" Velocity="56"/>
  </Event>
  <Event>
    <Absolute>3030</Absolute>
    <NoteOn Channel="7" Note="75" Velocity="0"/>
  </Event>
  <Event>
    <Absolute>3038</Absolute>
    <NoteOn Channel="7" Note="77" Velocity="51"/>
  </Event>
  <Event>
    <Absolute>3050</Absolute>
    <NoteOn Channel="7" Note="77" Velocity="0"/>
  </Event>
  <Event>
    <Absolute>3058</Absolute>
    <NoteOn Channel="7" Note="82" Velocity="61"/>
  </Event>
  <Event>
    <Absolute>3069</Absolute>
    <NoteOn Channel="7" Note="82" Velocity="0"/>
  </Event>
  <Event>
    <Absolute>3078</Absolute>
    <NoteOn Channel="7" Note="77" Velocity="54"/>
  </Event>
  <Event>
    <Absolute>3089</Absolute>
    <NoteOn Channel="7" Note="77" Velocity="0"/>
  </Event>
  <Event>
    <Absolute>3096</Absolute>
    <NoteOn Channel="7" Note="75" Velocity="61"/>
  </Event>
  <Event>
    <Absolute>3107</Absolute>
    <NoteOn Channel="7" Note="75" Velocity="0"/>
  </Event>
  <Event>
    <Absolute>3116</Absolute>
    <NoteOn Channel="7" Note="70" Velocity="64"/>
  </Event>
  <Event>
    <Absolute>3126</Absolute>
    <NoteOn Channel="7" Note="70" Velocity="0"/>
  </Event>
  <Event>
    <Absolute>3138</Absolute>
    <NoteOn Channel="7" Note="75" Velocity="56"/>
  </Event>
  <Event>
    <Absolute>3149</Absolute>
    <NoteOn Channel="7" Note="75" Velocity="0"/>
  </Event>
  <Event>
    <Absolute>3155</Absolute>
    <NoteOn Channel="7" Note="77" Velocity="56"/>
  </Event>
  <Event>
    <Absolute>3166</Absolute>
    <NoteOn Channel="7" Note="77" Velocity="0"/>
  </Event>
  <Event>
    <Absolute>3176</Absolute>
    <NoteOn Channel="7" Note="82" Velocity="61"/>
  </Event>
  <Event>
    <Absolute>3187</Absolute>
    <NoteOn Channel="7" Note="82" Velocity="0"/>
  </Event>
  <Event>
    <Absolute>3196</Absolute>
    <NoteOn Channel="7" Note="77" Velocity="52"/>
  </Event>
  <Event>
    <Absolute>3207</Absolute>
    <NoteOn Channel="7" Note="77" Velocity="0"/>
  </Event>
  <Event>
    <Absolute>3216</Absolute>
    <NoteOn Channel="7" Note="75" Velocity="52"/>
  </Event>
  <Event>
    <Absolute>3227</Absolute>
    <NoteOn Channel="7" Note="75" Velocity="0"/>
  </Event>
  <Event>
    <Absolute>3237</Absolute>
    <NoteOn Channel="7" Note="70" Velocity="64"/>
  </Event>
  <Event>
    <Absolute>3248</Absolute>
    <NoteOn Channel="7" Note="70" Velocity="0"/>
  </Event>
  <Event>
    <Absolute>3257</Absolute>
    <NoteOn Channel="7" Note="72" Velocity="64"/>
  </Event>
  <Event>
    <Absolute>3269</Absolute>
    <NoteOn Channel="7" Note="72" Velocity="0"/>
  </Event>
  <Event>
    <Absolute>3276</Absolute>
    <NoteOn Channel="7" Note="77" Velocity="61"/>
  </Event>
  <Event>
    <Absolute>3287</Absolute>
    <NoteOn Channel="7" Note="77" Velocity="0"/>
  </Event>
  <Event>
    <Absolute>3298</Absolute>
    <NoteOn Channel="7" Note="82" Velocity="61"/>
  </Event>
  <Event>
    <Absolute>3309</Absolute>
    <NoteOn Channel="7" Note="82" Velocity="0"/>
  </Event>
  <Event>
    <Absolute>3318</Absolute>
    <NoteOn Channel="7" Note="77" Velocity="61"/>
  </Event>
  <Event>
    <Absolute>3329</Absolute>
    <NoteOn Channel="7" Note="77" Velocity="0"/>
  </Event>
  <Event>
    <Absolute>3337</Absolute>
    <NoteOn Channel="7" Note="72" Velocity="68"/>
  </Event>
  <Event>
    <Absolute>3348</Absolute>
    <NoteOn Channel="7" Note="72" Velocity="0"/>
  </Event>
  <Event>
    <Absolute>3356</Absolute>
    <NoteOn Channel="7" Note="70" Velocity="68"/>
  </Event>
  <Event>
    <Absolute>3367</Absolute>
    <NoteOn Channel="7" Note="70" Velocity="0"/>
  </Event>
  <Event>
    <Absolute>3376</Absolute>
    <NoteOn Channel="7" Note="72" Velocity="61"/>
  </Event>
  <Event>
    <Absolute>3387</Absolute>
    <NoteOn Channel="7" Note="72" Velocity="0"/>
  </Event>
  <Event>
    <Absolute>3396</Absolute>
    <NoteOn Channel="7" Note="77" Velocity="56"/>
  </Event>
  <Event>
    <Absolute>3407</Absolute>
    <NoteOn Channel="7" Note="77" Velocity="0"/>
  </Event>
  <Event>
    <Absolute>3415</Absolute>
    <NoteOn Channel="7" Note="82" Velocity="56"/>
  </Event>
  <Event>
    <Absolute>3426</Absolute>
    <NoteOn Channel="7" Note="82" Velocity="0"/>
  </Event>
  <Event>
    <Absolute>3436</Absolute>
    <NoteOn Channel="7" Note="77" Velocity="54"/>
  </Event>
  <Event>
    <Absolute>3447</Absolute>
    <NoteOn Channel="7" Note="77" Velocity="0"/>
  </Event>
  <Event>
    <Absolute>3455</Absolute>
    <NoteOn Channel="7" Note="72" Velocity="64"/>
  </Event>
  <Event>
    <Absolute>3466</Absolute>
    <NoteOn Channel="7" Note="72" Velocity="0"/>
  </Event>
  <Event>
    <Absolute>3485</Absolute>
    <NoteOn Channel="7" Note="70" Velocity="68"/>
  </Event>
  <Event>
    <Absolute>3496</Absolute>
    <NoteOn Channel="7" Note="70" Velocity="0"/>
  </Event>
  <Event>
    <Absolute>5882</Absolute>
    <NoteOn Channel="7" Note="65" Velocity="49"/>
  </Event>
  <Event>
    <Absolute>5895</Absolute>
    <NoteOn Channel="7" Note="65" Velocity="0"/>
  </Event>
  <Event>
    <Absolute>5900</Absolute>
    <NoteOn Channel="7" Note="67" Velocity="49"/>
  </Event>
  <Event>
    <Absolute>5913</Absolute>
    <NoteOn Channel="7" Note="67" Velocity="0"/>
  </Event>
  <Event>
    <Absolute>5916</Absolute>
    <NoteOn Channel="7" Note="70" Velocity="49"/>
  </Event>
  <Event>
    <Absolute>5929</Absolute>
    <NoteOn Channel="7" Note="70" Velocity="0"/>
  </Event>
  <Event>
    <Absolute>5936</Absolute>
    <NoteOn Channel="7" Note="75" Velocity="42"/>
  </Event>
  <Event>
    <Absolute>5949</Absolute>
    <NoteOn Channel="7" Note="75" Velocity="0"/>
  </Event>
  <Event>
    <Absolute>5953</Absolute>
    <NoteOn Channel="7" Note="77" Velocity="45"/>
  </Event>
  <Event>
    <Absolute>5966</Absolute>
    <NoteOn Channel="7" Note="77" Velocity="0"/>
  </Event>
  <Event>
    <Absolute>5971</Absolute>
    <NoteOn Channel="7" Note="82" Velocity="45"/>
  </Event>
  <Event>
    <Absolute>5984</Absolute>
    <NoteOn Channel="7" Note="82" Velocity="0"/>
  </Event>
  <Event>
    <Absolute>5993</Absolute>
    <NoteOn Channel="7" Note="65" Velocity="49"/>
  </Event>
  <Event>
    <Absolute>6006</Absolute>
    <NoteOn Channel="7" Note="65" Velocity="0"/>
  </Event>
  <Event>
    <Absolute>6011</Absolute>
    <NoteOn Channel="7" Note="67" Velocity="49"/>
  </Event>
  <Event>
    <Absolute>6024</Absolute>
    <NoteOn Channel="7" Note="67" Velocity="0"/>
  </Event>
  <Event>
    <Absolute>6030</Absolute>
    <NoteOn Channel="7" Note="70" Velocity="49"/>
  </Event>
  <Event>
    <Absolute>6043</Absolute>
    <NoteOn Channel="7" Note="70" Velocity="0"/>
  </Event>
  <Event>
    <Absolute>6050</Absolute>
    <NoteOn Channel="7" Note="75" Velocity="41"/>
  </Event>
  <Event>
    <Absolute>6063</Absolute>
    <NoteOn Channel="7" Note="75" Velocity="0"/>
  </Event>
  <Event>
    <Absolute>6068</Absolute>
    <NoteOn Channel="7" Note="77" Velocity="45"/>
  </Event>
  <Event>
    <Absolute>6081</Absolute>
    <NoteOn Channel="7" Note="77" Velocity="0"/>
  </Event>
  <Event>
    <Absolute>6086</Absolute>
    <NoteOn Channel="7" Note="82" Velocity="45"/>
  </Event>
  <Event>
    <Absolute>6099</Absolute>
    <NoteOn Channel="7" Note="82" Velocity="0"/>
  </Event>
  <Event>
    <Absolute>6108</Absolute>
    <NoteOn Channel="7" Note="65" Velocity="49"/>
  </Event>
  <Event>
    <Absolute>6121</Absolute>
    <NoteOn Channel="7" Note="65" Velocity="0"/>
  </Event>
  <Event>
    <Absolute>6128</Absolute>
    <NoteOn Channel="7" Note="67" Velocity="45"/>
  </Event>
  <Event>
    <Absolute>6141</Absolute>
    <NoteOn Channel="7" Note="67" Velocity="0"/>
  </Event>
  <Event>
    <Absolute>6148</Absolute>
    <NoteOn Channel="7" Note="70" Velocity="49"/>
  </Event>
  <Event>
    <Absolute>6161</Absolute>
    <NoteOn Channel="7" Note="70" Velocity="0"/>
  </Event>
  <Event>
    <Absolute>6171</Absolute>
    <NoteOn Channel="7" Note="75" Velocity="45"/>
  </Event>
  <Event>
    <Absolute>6184</Absolute>
    <NoteOn Channel="7" Note="75" Velocity="0"/>
  </Event>
  <Event>
    <Absolute>6191</Absolute>
    <NoteOn Channel="7" Note="77" Velocity="43"/>
  </Event>
  <Event>
    <Absolute>6204</Absolute>
    <NoteOn Channel="7" Note="77" Velocity="0"/>
  </Event>
  <Event>
    <Absolute>6210</Absolute>
    <NoteOn Channel="7" Note="82" Velocity="45"/>
  </Event>
  <Event>
    <Absolute>6223</Absolute>
    <NoteOn Channel="7" Note="82" Velocity="0"/>
  </Event>
  <Event>
    <Absolute>6235</Absolute>
    <NoteOn Channel="7" Note="65" Velocity="45"/>
  </Event>
  <Event>
    <Absolute>6248</Absolute>
    <NoteOn Channel="7" Note="65" Velocity="0"/>
  </Event>
  <Event>
    <Absolute>6254</Absolute>
    <NoteOn Channel="7" Note="67" Velocity="49"/>
  </Event>
  <Event>
    <Absolute>6267</Absolute>
    <NoteOn Channel="7" Note="67" Velocity="0"/>
  </Event>
  <Event>
    <Absolute>6273</Absolute>
    <NoteOn Channel="7" Note="70" Velocity="53"/>
  </Event>
  <Event>
    <Absolute>6286</Absolute>
    <NoteOn Channel="7" Note="70" Velocity="0"/>
  </Event>
  <Event>
    <Absolute>6296</Absolute>
    <NoteOn Channel="7" Note="75" Velocity="42"/>
  </Event>
  <Event>
    <Absolute>6309</Absolute>
    <NoteOn Channel="7" Note="75" Velocity="0"/>
  </Event>
  <Event>
    <Absolute>6311</Absolute>
    <NoteOn Channel="7" Note="77" Velocity="45"/>
  </Event>
  <Event>
    <Absolute>6324</Absolute>
    <NoteOn Channel="7" Note="77" Velocity="0"/>
  </Event>
  <Event>
    <Absolute>6330</Absolute>
    <NoteOn Channel="7" Note="82" Velocity="45"/>
  </Event>
  <Event>
    <Absolute>6343</Absolute>
    <NoteOn Channel="7" Note="82" Velocity="0"/>
  </Event>
  <Event>
    <Absolute>6353</Absolute>
    <NoteOn Channel="7" Note="65" Velocity="49"/>
  </Event>
  <Event>
    <Absolute>6366</Absolute>
    <NoteOn Channel="7" Note="65" Velocity="0"/>
  </Event>
  <Event>
    <Absolute>6371</Absolute>
    <NoteOn Channel="7" Note="67" Velocity="49"/>
  </Event>
  <Event>
    <Absolute>6384</Absolute>
    <NoteOn Channel="7" Note="67" Velocity="0"/>
  </Event>
  <Event>
    <Absolute>6390</Absolute>
    <NoteOn Channel="7" Note="70" Velocity="49"/>
  </Event>
  <Event>
    <Absolute>6403</Absolute>
    <NoteOn Channel="7" Note="70" Velocity="0"/>
  </Event>
  <Event>
    <Absolute>6413</Absolute>
    <NoteOn Channel="7" Note="75" Velocity="45"/>
  </Event>
  <Event>
    <Absolute>6426</Absolute>
    <NoteOn Channel="7" Note="75" Velocity="0"/>
  </Event>
  <Event>
    <Absolute>6433</Absolute>
    <NoteOn Channel="7" Note="77" Velocity="43"/>
  </Event>
  <Event>
    <Absolute>6446</Absolute>
    <NoteOn Channel="7" Note="77" Velocity="0"/>
  </Event>
  <Event>
    <Absolute>6450</Absolute>
    <NoteOn Channel="7" Note="82" Velocity="45"/>
  </Event>
  <Event>
    <Absolute>6463</Absolute>
    <NoteOn Channel="7" Note="82" Velocity="0"/>
  </Event>
  <Event>
    <Absolute>6473</Absolute>
    <NoteOn Channel="7" Note="65" Velocity="49"/>
  </Event>
  <Event>
    <Absolute>6486</Absolute>
    <NoteOn Channel="7" Note="65" Velocity="0"/>
  </Event>
  <Event>
    <Absolute>6491</Absolute>
    <NoteOn Channel="7" Note="67" Velocity="45"/>
  </Event>
  <Event>
    <Absolute>6504</Absolute>
    <NoteOn Channel="7" Note="67" Velocity="0"/>
  </Event>
  <Event>
    <Absolute>6512</Absolute>
    <NoteOn Channel="7" Note="70" Velocity="49"/>
  </Event>
  <Event>
    <Absolute>6525</Absolute>
    <NoteOn Channel="7" Note="70" Velocity="0"/>
  </Event>
  <Event>
    <Absolute>6534</Absolute>
    <NoteOn Channel="7" Note="75" Velocity="43"/>
  </Event>
  <Event>
    <Absolute>6547</Absolute>
    <NoteOn Channel="7" Note="75" Velocity="0"/>
  </Event>
  <Event>
    <Absolute>6551</Absolute>
    <NoteOn Channel="7" Note="77" Velocity="49"/>
  </Event>
  <Event>
    <Absolute>6564</Absolute>
    <NoteOn Channel="7" Note="77" Velocity="0"/>
  </Event>
  <Event>
    <Absolute>6570</Absolute>
    <NoteOn Channel="7" Note="82" Velocity="49"/>
  </Event>
  <Event>
    <Absolute>6583</Absolute>
    <NoteOn Channel="7" Note="82" Velocity="0"/>
  </Event>
  <Event>
    <Absolute>6842</Absolute>
    <NoteOn Channel="7" Note="65" Velocity="49"/>
  </Event>
  <Event>
    <Absolute>6855</Absolute>
    <NoteOn Channel="7" Note="65" Velocity="0"/>
  </Event>
  <Event>
    <Absolute>6860</Absolute>
    <NoteOn Channel="7" Note="67" Velocity="49"/>
  </Event>
  <Event>
    <Absolute>6873</Absolute>
    <NoteOn Channel="7" Note="67" Velocity="0"/>
  </Event>
  <Event>
    <Absolute>6876</Absolute>
    <NoteOn Channel="7" Note="70" Velocity="49"/>
  </Event>
  <Event>
    <Absolute>6889</Absolute>
    <NoteOn Channel="7" Note="70" Velocity="0"/>
  </Event>
  <Event>
    <Absolute>6896</Absolute>
    <NoteOn Channel="7" Note="75" Velocity="42"/>
  </Event>
  <Event>
    <Absolute>6909</Absolute>
    <NoteOn Channel="7" Note="75" Velocity="0"/>
  </Event>
  <Event>
    <Absolute>6913</Absolute>
    <NoteOn Channel="7" Note="77" Velocity="45"/>
  </Event>
  <Event>
    <Absolute>6926</Absolute>
    <NoteOn Channel="7" Note="77" Velocity="0"/>
  </Event>
  <Event>
    <Absolute>6931</Absolute>
    <NoteOn Channel="7" Note="82" Velocity="45"/>
  </Event>
  <Event>
    <Absolute>6944</Absolute>
    <NoteOn Channel="7" Note="82" Velocity="0"/>
  </Event>
  <Event>
    <Absolute>6953</Absolute>
    <NoteOn Channel="7" Note="65" Velocity="49"/>
  </Event>
  <Event>
    <Absolute>6966</Absolute>
    <NoteOn Channel="7" Note="65" Velocity="0"/>
  </Event>
  <Event>
    <Absolute>6971</Absolute>
    <NoteOn Channel="7" Note="67" Velocity="49"/>
  </Event>
  <Event>
    <Absolute>6984</Absolute>
    <NoteOn Channel="7" Note="67" Velocity="0"/>
  </Event>
  <Event>
    <Absolute>6990</Absolute>
    <NoteOn Channel="7" Note="70" Velocity="49"/>
  </Event>
  <Event>
    <Absolute>7003</Absolute>
    <NoteOn Channel="7" Note="70" Velocity="0"/>
  </Event>
  <Event>
    <Absolute>7010</Absolute>
    <NoteOn Channel="7" Note="75" Velocity="41"/>
  </Event>
  <Event>
    <Absolute>7023</Absolute>
    <NoteOn Channel="7" Note="75" Velocity="0"/>
  </Event>
  <Event>
    <Absolute>7028</Absolute>
    <NoteOn Channel="7" Note="77" Velocity="45"/>
  </Event>
  <Event>
    <Absolute>7041</Absolute>
    <NoteOn Channel="7" Note="77" Velocity="0"/>
  </Event>
  <Event>
    <Absolute>7046</Absolute>
    <NoteOn Channel="7" Note="82" Velocity="45"/>
  </Event>
  <Event>
    <Absolute>7059</Absolute>
    <NoteOn Channel="7" Note="82" Velocity="0"/>
  </Event>
  <Event>
    <Absolute>7068</Absolute>
    <NoteOn Channel="7" Note="65" Velocity="49"/>
  </Event>
  <Event>
    <Absolute>7081</Absolute>
    <NoteOn Channel="7" Note="65" Velocity="0"/>
  </Event>
  <Event>
    <Absolute>7088</Absolute>
    <NoteOn Channel="7" Note="67" Velocity="45"/>
  </Event>
  <Event>
    <Absolute>7101</Absolute>
    <NoteOn Channel="7" Note="67" Velocity="0"/>
  </Event>
  <Event>
    <Absolute>7108</Absolute>
    <NoteOn Channel="7" Note="70" Velocity="49"/>
  </Event>
  <Event>
    <Absolute>7121</Absolute>
    <NoteOn Channel="7" Note="70" Velocity="0"/>
  </Event>
  <Event>
    <Absolute>7131</Absolute>
    <NoteOn Channel="7" Note="75" Velocity="45"/>
  </Event>
  <Event>
    <Absolute>7144</Absolute>
    <NoteOn Channel="7" Note="75" Velocity="0"/>
  </Event>
  <Event>
    <Absolute>7151</Absolute>
    <NoteOn Channel="7" Note="77" Velocity="43"/>
  </Event>
  <Event>
    <Absolute>7164</Absolute>
    <NoteOn Channel="7" Note="77" Velocity="0"/>
  </Event>
  <Event>
    <Absolute>7170</Absolute>
    <NoteOn Channel="7" Note="82" Velocity="45"/>
  </Event>
  <Event>
    <Absolute>7183</Absolute>
    <NoteOn Channel="7" Note="82" Velocity="0"/>
  </Event>
  <Event>
    <Absolute>7195</Absolute>
    <NoteOn Channel="7" Note="65" Velocity="45"/>
  </Event>
  <Event>
    <Absolute>7208</Absolute>
    <NoteOn Channel="7" Note="65" Velocity="0"/>
  </Event>
  <Event>
    <Absolute>7214</Absolute>
    <NoteOn Channel="7" Note="67" Velocity="49"/>
  </Event>
  <Event>
    <Absolute>7227</Absolute>
    <NoteOn Channel="7" Note="67" Velocity="0"/>
  </Event>
  <Event>
    <Absolute>7233</Absolute>
    <NoteOn Channel="7" Note="70" Velocity="53"/>
  </Event>
  <Event>
    <Absolute>7246</Absolute>
    <NoteOn Channel="7" Note="70" Velocity="0"/>
  </Event>
  <Event>
    <Absolute>7256</Absolute>
    <NoteOn Channel="7" Note="75" Velocity="42"/>
  </Event>
  <Event>
    <Absolute>7269</Absolute>
    <NoteOn Channel="7" Note="75" Velocity="0"/>
  </Event>
  <Event>
    <Absolute>7271</Absolute>
    <NoteOn Channel="7" Note="77" Velocity="45"/>
  </Event>
  <Event>
    <Absolute>7284</Absolute>
    <NoteOn Channel="7" Note="77" Velocity="0"/>
  </Event>
  <Event>
    <Absolute>7290</Absolute>
    <NoteOn Channel="7" Note="82" Velocity="45"/>
  </Event>
  <Event>
    <Absolute>7303</Absolute>
    <NoteOn Channel="7" Note="82" Velocity="0"/>
  </Event>
  <Event>
    <Absolute>7313</Absolute>
    <NoteOn Channel="7" Note="65" Velocity="49"/>
  </Event>
  <Event>
    <Absolute>7326</Absolute>
    <NoteOn Channel="7" Note="65" Velocity="0"/>
  </Event>
  <Event>
    <Absolute>7331</Absolute>
    <NoteOn Channel="7" Note="68" Velocity="49"/>
  </Event>
  <Event>
    <Absolute>7344</Absolute>
    <NoteOn Channel="7" Note="68" Velocity="0"/>
  </Event>
  <Event>
    <Absolute>7350</Absolute>
    <NoteOn Channel="7" Note="72" Velocity="49"/>
  </Event>
  <Event>
    <Absolute>7363</Absolute>
    <NoteOn Channel="7" Note="72" Velocity="0"/>
  </Event>
  <Event>
    <Absolute>7373</Absolute>
    <NoteOn Channel="7" Note="73" Velocity="45"/>
  </Event>
  <Event>
    <Absolute>7386</Absolute>
    <NoteOn Channel="7" Note="73" Velocity="0"/>
  </Event>
  <Event>
    <Absolute>7393</Absolute>
    <NoteOn Channel="7" Note="77" Velocity="43"/>
  </Event>
  <Event>
    <Absolute>7406</Absolute>
    <NoteOn Channel="7" Note="77" Velocity="0"/>
  </Event>
  <Event>
    <Absolute>7410</Absolute>
    <NoteOn Channel="7" Note="80" Velocity="45"/>
  </Event>
  <Event>
    <Absolute>7423</Absolute>
    <NoteOn Channel="7" Note="80" Velocity="0"/>
  </Event>
  <Event>
    <Absolute>7433</Absolute>
    <NoteOn Channel="7" Note="65" Velocity="49"/>
  </Event>
  <Event>
    <Absolute>7446</Absolute>
    <NoteOn Channel="7" Note="65" Velocity="0"/>
  </Event>
  <Event>
    <Absolute>7451</Absolute>
    <NoteOn Channel="7" Note="72" Velocity="45"/>
  </Event>
  <Event>
    <Absolute>7464</Absolute>
    <NoteOn Channel="7" Note="72" Velocity="0"/>
  </Event>
  <Event>
    <Absolute>7472</Absolute>
    <NoteOn Channel="7" Note="77" Velocity="49"/>
  </Event>
  <Event>
    <Absolute>7485</Absolute>
    <NoteOn Channel="7" Note="77" Velocity="0"/>
  </Event>
  <Event>
    <Absolute>7494</Absolute>
    <NoteOn Channel="7" Note="89" Velocity="43"/>
  </Event>
  <Event>
    <Absolute>7507</Absolute>
    <NoteOn Channel="7" Note="89" Velocity="0"/>
  </Event>
  <Event>
    <Absolute>7511</Absolute>
    <NoteOn Channel="7" Note="84" Velocity="49"/>
  </Event>
  <Event>
    <Absolute>7524</Absolute>
    <NoteOn Channel="7" Note="84" Velocity="0"/>
  </Event>
  <Event>
    <Absolute>7530</Absolute>
    <NoteOn Channel="7" Note="77" Velocity="49"/>
  </Event>
  <Event>
    <Absolute>7543</Absolute>
    <NoteOn Channel="7" Note="77" Velocity="0"/>
  </Event>
  <Event>
    <Absolute>9241</Absolute>
    <NoteOn Channel="7" Note="89" Velocity="74"/>
  </Event>
  <Event>
    <Absolute>9342</Absolute>
    <NoteOn Channel="7" Note="89" Velocity="0"/>
  </Event>
  <Event>
    <Absolute>20050</Absolute>
    <ControlChange Channel="7" Control="18" Value="65"/>
  </Event>
  <Event>
    <Absolute>20898</Absolute>
    <NoteOn Channel="7" Note="60" Velocity="56"/>
  </Event>
  <Event>
    <Absolute>20899</Absolute>
    <NoteOn Channel="7" Note="48" Velocity="53"/>
  </Event>
  <Event>
    <Absolute>20945</Absolute>
    <NoteOn Channel="7" Note="48" Velocity="0"/>
  </Event>
  <Event>
    <Absolute>20948</Absolute>
    <NoteOn Channel="7" Note="60" Velocity="0"/>
  </Event>
  <Event>
    <Absolute>21858</Absolute>
    <NoteOn Channel="7" Note="62" Velocity="56"/>
  </Event>
  <Event>
    <Absolute>21859</Absolute>
    <NoteOn Channel="7" Note="50" Velocity="53"/>
  </Event>
  <Event>
    <Absolute>21905</Absolute>
    <NoteOn Channel="7" Note="50" Velocity="0"/>
  </Event>
  <Event>
    <Absolute>21908</Absolute>
    <NoteOn Channel="7" Note="62" Velocity="0"/>
  </Event>
  <Event>
    <Absolute>23141</Absolute>
    <NoteOn Channel="7" Note="52" Velocity="59"/>
  </Event>
  <Event>
    <Absolute>23145</Absolute>
    <NoteOn Channel="7" Note="53" Velocity="16"/>
  </Event>
  <Event>
    <Absolute>23163</Absolute>
    <NoteOn Channel="7" Note="52" Velocity="0"/>
  </Event>
  <Event>
    <Absolute>23166</Absolute>
    <NoteOn Channel="7" Note="55" Velocity="20"/>
  </Event>
  <Event>
    <Absolute>23175</Absolute>
    <NoteOn Channel="7" Note="53" Velocity="0"/>
  </Event>
  <Event>
    <Absolute>23179</Absolute>
    <NoteOn Channel="7" Note="57" Velocity="43"/>
  </Event>
  <Event>
    <Absolute>23186</Absolute>
    <NoteOn Channel="7" Note="55" Velocity="0"/>
  </Event>
  <Event>
    <Absolute>23190</Absolute>
    <NoteOn Channel="7" Note="59" Velocity="37"/>
  </Event>
  <Event>
    <Absolute>23195</Absolute>
    <NoteOn Channel="7" Note="57" Velocity="0"/>
  </Event>
  <Event>
    <Absolute>23203</Absolute>
    <NoteOn Channel="7" Note="60" Velocity="46"/>
  </Event>
  <Event>
    <Absolute>23207</Absolute>
    <NoteOn Channel="7" Note="59" Velocity="0"/>
  </Event>
  <Event>
    <Absolute>23211</Absolute>
    <NoteOn Channel="7" Note="62" Velocity="48"/>
  </Event>
  <Event>
    <Absolute>23215</Absolute>
    <NoteOn Channel="7" Note="60" Velocity="0"/>
  </Event>
  <Event>
    <Absolute>23220</Absolute>
    <NoteOn Channel="7" Note="64" Velocity="52"/>
  </Event>
  <Event>
    <Absolute>23224</Absolute>
    <NoteOn Channel="7" Note="62" Velocity="0"/>
  </Event>
  <Event>
    <Absolute>23228</Absolute>
    <NoteOn Channel="7" Note="65" Velocity="55"/>
  </Event>
  <Event>
    <Absolute>23231</Absolute>
    <NoteOn Channel="7" Note="64" Velocity="0"/>
  </Event>
  <Event>
    <Absolute>23236</Absolute>
    <NoteOn Channel="7" Note="67" Velocity="43"/>
  </Event>
  <Event>
    <Absolute>23240</Absolute>
    <NoteOn Channel="7" Note="65" Velocity="0"/>
  </Event>
  <Event>
    <Absolute>23244</Absolute>
    <NoteOn Channel="7" Note="69" Velocity="48"/>
  </Event>
  <Event>
    <Absolute>23248</Absolute>
    <NoteOn Channel="7" Note="67" Velocity="0"/>
  </Event>
  <Event>
    <Absolute>23253</Absolute>
    <NoteOn Channel="7" Note="71" Velocity="40"/>
  </Event>
  <Event>
    <Absolute>23258</Absolute>
    <NoteOn Channel="7" Note="69" Velocity="0"/>
  </Event>
  <Event>
    <Absolute>23265</Absolute>
    <NoteOn Channel="7" Note="72" Velocity="40"/>
  </Event>
  <Event>
    <Absolute>23269</Absolute>
    <NoteOn Channel="7" Note="71" Velocity="0"/>
  </Event>
  <Event>
    <Absolute>23276</Absolute>
    <NoteOn Channel="7" Note="74" Velocity="46"/>
  </Event>
  <Event>
    <Absolute>23280</Absolute>
    <NoteOn Channel="7" Note="72" Velocity="0"/>
  </Event>
  <Event>
    <Absolute>23288</Absolute>
    <NoteOn Channel="7" Note="76" Velocity="68"/>
  </Event>
  <Event>
    <Absolute>23292</Absolute>
    <NoteOn Channel="7" Note="74" Velocity="0"/>
  </Event>
  <Event>
    <Absolute>23312</Absolute>
    <NoteOn Channel="7" Note="76" Velocity="0"/>
  </Event>
  <Event>
    <Absolute>24735</Absolute>
    <NoteOn Channel="7" Note="85" Velocity="59"/>
  </Event>
  <Event>
    <Absolute>24779</Absolute>
    <NoteOn Channel="7" Note="85" Velocity="0"/>
  </Event>
  <Event>
    <Absolute>24780</Absolute>
    <NoteOn Channel="7" Note="81" Velocity="53"/>
  </Event>
  <Event>
    <Absolute>24820</Absolute>
    <NoteOn Channel="7" Note="81" Velocity="0"/>
  </Event>
  <Event>
    <Absolute>24822</Absolute>
    <NoteOn Channel="7" Note="77" Velocity="40"/>
  </Event>
  <Event>
    <Absolute>24859</Absolute>
    <NoteOn Channel="7" Note="77" Velocity="0"/>
  </Event>
  <Event>
    <Absolute>24863</Absolute>
    <NoteOn Channel="7" Note="85" Velocity="64"/>
  </Event>
  <Event>
    <Absolute>24901</Absolute>
    <NoteOn Channel="7" Note="85" Velocity="0"/>
  </Event>
  <Event>
    <Absolute>24903</Absolute>
    <NoteOn Channel="7" Note="81" Velocity="50"/>
  </Event>
  <Event>
    <Absolute>24943</Absolute>
    <NoteOn Channel="7" Note="81" Velocity="0"/>
  </Event>
  <Event>
    <Absolute>24943</Absolute>
    <NoteOn Channel="7" Note="77" Velocity="56"/>
  </Event>
  <Event>
    <Absolute>24978</Absolute>
    <NoteOn Channel="7" Note="77" Velocity="0"/>
  </Event>
  <Event>
    <Absolute>24981</Absolute>
    <NoteOn Channel="7" Note="85" Velocity="67"/>
  </Event>
  <Event>
    <Absolute>25022</Absolute>
    <NoteOn Channel="7" Note="85" Velocity="0"/>
  </Event>
  <Event>
    <Absolute>25022</Absolute>
    <NoteOn Channel="7" Note="81" Velocity="59"/>
  </Event>
  <Event>
    <Absolute>25058</Absolute>
    <NoteOn Channel="7" Note="81" Velocity="0"/>
  </Event>
  <Event>
    <Absolute>25059</Absolute>
    <NoteOn Channel="7" Note="77" Velocity="69"/>
  </Event>
  <Event>
    <Absolute>25097</Absolute>
    <NoteOn Channel="7" Note="77" Velocity="0"/>
  </Event>
  <Event>
    <Absolute>25098</Absolute>
    <NoteOn Channel="7" Note="85" Velocity="71"/>
  </Event>
  <Event>
    <Absolute>25140</Absolute>
    <NoteOn Channel="7" Note="81" Velocity="64"/>
  </Event>
  <Event>
    <Absolute>25142</Absolute>
    <NoteOn Channel="7" Note="85" Velocity="0"/>
  </Event>
  <Event>
    <Absolute>25177</Absolute>
    <NoteOn Channel="7" Note="81" Velocity="0"/>
  </Event>
  <Event>
    <Absolute>25178</Absolute>
    <NoteOn Channel="7" Note="77" Velocity="64"/>
  </Event>
  <Event>
    <Absolute>25219</Absolute>
    <NoteOn Channel="7" Note="77" Velocity="0"/>
  </Event>
  <Event>
    <Absolute>25220</Absolute>
    <NoteOn Channel="7" Note="85" Velocity="75"/>
  </Event>
  <Event>
    <Absolute>25258</Absolute>
    <NoteOn Channel="7" Note="85" Velocity="0"/>
  </Event>
  <Event>
    <Absolute>25258</Absolute>
    <NoteOn Channel="7" Note="81" Velocity="62"/>
  </Event>
  <Event>
    <Absolute>25294</Absolute>
    <NoteOn Channel="7" Note="81" Velocity="0"/>
  </Event>
  <Event>
    <Absolute>25295</Absolute>
    <NoteOn Channel="7" Note="77" Velocity="67"/>
  </Event>
  <Event>
    <Absolute>25333</Absolute>
    <NoteOn Channel="7" Note="77" Velocity="0"/>
  </Event>
  <Event>
    <Absolute>25336</Absolute>
    <NoteOn Channel="7" Note="85" Velocity="68"/>
  </Event>
  <Event>
    <Absolute>25373</Absolute>
    <NoteOn Channel="7" Note="81" Velocity="69"/>
  </Event>
  <Event>
    <Absolute>25376</Absolute>
    <NoteOn Channel="7" Note="85" Velocity="0"/>
  </Event>
  <Event>
    <Absolute>25413</Absolute>
    <NoteOn Channel="7" Note="81" Velocity="0"/>
  </Event>
  <Event>
    <Absolute>25414</Absolute>
    <NoteOn Channel="7" Note="77" Velocity="71"/>
  </Event>
  <Event>
    <Absolute>25451</Absolute>
    <NoteOn Channel="7" Note="77" Velocity="0"/>
  </Event>
  <Event>
    <Absolute>25453</Absolute>
    <NoteOn Channel="7" Note="85" Velocity="73"/>
  </Event>
  <Event>
    <Absolute>25491</Absolute>
    <NoteOn Channel="7" Note="85" Velocity="0"/>
  </Event>
  <Event>
    <Absolute>25491</Absolute>
    <NoteOn Channel="7" Note="81" Velocity="84"/>
  </Event>
  <Event>
    <Absolute>25529</Absolute>
    <NoteOn Channel="7" Note="81" Velocity="0"/>
  </Event>
  <Event>
    <Absolute>25530</Absolute>
    <NoteOn Channel="7" Note="77" Velocity="75"/>
  </Event>
  <Event>
    <Absolute>25570</Absolute>
    <NoteOn Channel="7" Note="81" Velocity="69"/>
  </Event>
  <Event>
    <Absolute>25572</Absolute>
    <NoteOn Channel="7" Note="77" Velocity="0"/>
  </Event>
  <Event>
    <Absolute>25611</Absolute>
    <NoteOn Channel="7" Note="77" Velocity="69"/>
  </Event>
  <Event>
    <Absolute>25613</Absolute>
    <NoteOn Channel="7" Note="81" Velocity="0"/>
  </Event>
  <Event>
    <Absolute>25650</Absolute>
    <NoteOn Channel="7" Note="73" Velocity="75"/>
  </Event>
  <Event>
    <Absolute>25651</Absolute>
    <NoteOn Channel="7" Note="77" Velocity="0"/>
  </Event>
  <Event>
    <Absolute>25695</Absolute>
    <NoteOn Channel="7" Note="81" Velocity="75"/>
  </Event>
  <Event>
    <Absolute>25696</Absolute>
    <NoteOn Channel="7" Note="73" Velocity="0"/>
  </Event>
  <Event>
    <Absolute>25735</Absolute>
    <NoteOn Channel="7" Note="77" Velocity="69"/>
  </Event>
  <Event>
    <Absolute>25737</Absolute>
    <NoteOn Channel="7" Note="81" Velocity="0"/>
  </Event>
  <Event>
    <Absolute>25770</Absolute>
    <NoteOn Channel="7" Note="73" Velocity="65"/>
  </Event>
  <Event>
    <Absolute>25772</Absolute>
    <NoteOn Channel="7" Note="77" Velocity="0"/>
  </Event>
  <Event>
    <Absolute>25811</Absolute>
    <NoteOn Channel="7" Note="77" Velocity="65"/>
  </Event>
  <Event>
    <Absolute>25817</Absolute>
    <NoteOn Channel="7" Note="73" Velocity="0"/>
  </Event>
  <Event>
    <Absolute>25850</Absolute>
    <NoteOn Channel="7" Note="73" Velocity="69"/>
  </Event>
  <Event>
    <Absolute>25851</Absolute>
    <NoteOn Channel="7" Note="77" Velocity="0"/>
  </Event>
  <Event>
    <Absolute>25889</Absolute>
    <NoteOn Channel="7" Note="69" Velocity="65"/>
  </Event>
  <Event>
    <Absolute>25891</Absolute>
    <NoteOn Channel="7" Note="73" Velocity="0"/>
  </Event>
  <Event>
    <Absolute>25941</Absolute>
    <NoteOn Channel="7" Note="64" Velocity="43"/>
  </Event>
  <Event>
    <Absolute>25944</Absolute>
    <NoteOn Channel="7" Note="69" Velocity="0"/>
  </Event>
  <Event>
    <Absolute>25994</Absolute>
    <NoteOn Channel="7" Note="64" Velocity="0"/>
  </Event>
  <Event>
    <Absolute>25997</Absolute>
    <NoteOn Channel="7" Note="69" Velocity="80"/>
  </Event>
  <Event>
    <Absolute>26040</Absolute>
    <NoteOn Channel="7" Note="71" Velocity="96"/>
  </Event>
  <Event>
    <Absolute>26052</Absolute>
    <NoteOn Channel="7" Note="69" Velocity="0"/>
  </Event>
  <Event>
    <Absolute>26070</Absolute>
    <NoteOn Channel="7" Note="76" Velocity="73"/>
  </Event>
  <Event>
    <Absolute>26087</Absolute>
    <NoteOn Channel="7" Note="71" Velocity="0"/>
  </Event>
  <Event>
    <Absolute>26101</Absolute>
    <NoteOn Channel="7" Note="76" Velocity="0"/>
  </Event>
  <Event>
    <Absolute>26105</Absolute>
    <NoteOn Channel="7" Note="83" Velocity="81"/>
  </Event>
  <Event>
    <Absolute>26136</Absolute>
    <NoteOn Channel="7" Note="84" Velocity="66"/>
  </Event>
  <Event>
    <Absolute>26164</Absolute>
    <NoteOn Channel="7" Note="83" Velocity="0"/>
  </Event>
  <Event>
    <Absolute>26170</Absolute>
    <NoteOn Channel="7" Note="88" Velocity="72"/>
  </Event>
  <Event>
    <Absolute>26186</Absolute>
    <NoteOn Channel="7" Note="84" Velocity="0"/>
  </Event>
  <Event>
    <Absolute>26231</Absolute>
    <NoteOn Channel="7" Note="88" Velocity="0"/>
  </Event>
  <Event>
    <Absolute>34450</Absolute>
    <ControlChange Channel="7" Control="18" Value="63"/>
  </Event>
  <Event>
    <Absolute>39370</Absolute>
    <ControlChange Channel="7" Control="18" Value="64"/>
  </Event>
  <Event>
    <Absolute>39376</Absolute>
    <NoteOn Channel="7" Note="75" Velocity="114"/>
  </Event>
  <Event>
    <Absolute>39387</Absolute>
    <NoteOn Channel="7" Note="75" Velocity="0"/>
  </Event>
  <Event>
    <Absolute>39442</Absolute>
    <NoteOn Channel="7" Note="76" Velocity="52"/>
  </Event>
  <Event>
    <Absolute>39453</Absolute>
    <NoteOn Channel="7" Note="76" Velocity="0"/>
  </Event>
  <Event>
    <Absolute>39499</Absolute>
    <NoteOn Channel="7" Note="78" Velocity="99"/>
  </Event>
  <Event>
    <Absolute>39515</Absolute>
    <NoteOn Channel="7" Note="78" Velocity="0"/>
  </Event>
  <Event>
    <Absolute>39552</Absolute>
    <NoteOn Channel="7" Note="80" Velocity="85"/>
  </Event>
  <Event>
    <Absolute>39564</Absolute>
    <NoteOn Channel="7" Note="80" Velocity="0"/>
  </Event>
  <Event>
    <Absolute>39613</Absolute>
    <NoteOn Channel="7" Note="75" Velocity="114"/>
  </Event>
  <Event>
    <Absolute>39628</Absolute>
    <NoteOn Channel="7" Note="75" Velocity="0"/>
  </Event>
  <Event>
    <Absolute>39672</Absolute>
    <NoteOn Channel="7" Note="76" Velocity="103"/>
  </Event>
  <Event>
    <Absolute>39691</Absolute>
    <NoteOn Channel="7" Note="76" Velocity="0"/>
  </Event>
  <Event>
    <Absolute>39743</Absolute>
    <NoteOn Channel="7" Note="78" Velocity="114"/>
  </Event>
  <Event>
    <Absolute>39759</Absolute>
    <NoteOn Channel="7" Note="78" Velocity="0"/>
  </Event>
  <Event>
    <Absolute>39863</Absolute>
    <NoteOn Channel="7" Note="78" Velocity="114"/>
  </Event>
  <Event>
    <Absolute>39873</Absolute>
    <NoteOn Channel="7" Note="78" Velocity="0"/>
  </Event>
  <Event>
    <Absolute>39977</Absolute>
    <NoteOn Channel="7" Note="75" Velocity="114"/>
  </Event>
  <Event>
    <Absolute>39992</Absolute>
    <NoteOn Channel="7" Note="75" Velocity="0"/>
  </Event>
  <Event>
    <Absolute>40038</Absolute>
    <NoteOn Channel="7" Note="76" Velocity="105"/>
  </Event>
  <Event>
    <Absolute>40048</Absolute>
    <NoteOn Channel="7" Note="76" Velocity="0"/>
  </Event>
  <Event>
    <Absolute>40054</Absolute>
    <NoteOn Channel="7" Note="76" Velocity="6"/>
  </Event>
  <Event>
    <Absolute>40065</Absolute>
    <NoteOn Channel="7" Note="76" Velocity="0"/>
  </Event>
  <Event>
    <Absolute>40100</Absolute>
    <NoteOn Channel="7" Note="78" Velocity="109"/>
  </Event>
  <Event>
    <Absolute>40116</Absolute>
    <NoteOn Channel="7" Note="78" Velocity="0"/>
  </Event>
  <Event>
    <Absolute>40159</Absolute>
    <NoteOn Channel="7" Note="80" Velocity="96"/>
  </Event>
  <Event>
    <Absolute>40170</Absolute>
    <NoteOn Channel="7" Note="80" Velocity="0"/>
  </Event>
  <Event>
    <Absolute>40220</Absolute>
    <NoteOn Channel="7" Note="75" Velocity="114"/>
  </Event>
  <Event>
    <Absolute>40236</Absolute>
    <NoteOn Channel="7" Note="75" Velocity="0"/>
  </Event>
  <Event>
    <Absolute>40277</Absolute>
    <NoteOn Channel="7" Note="76" Velocity="103"/>
  </Event>
  <Event>
    <Absolute>40288</Absolute>
    <NoteOn Channel="7" Note="76" Velocity="0"/>
  </Event>
  <Event>
    <Absolute>40345</Absolute>
    <NoteOn Channel="7" Note="78" Velocity="114"/>
  </Event>
  <Event>
    <Absolute>40358</Absolute>
    <NoteOn Channel="7" Note="78" Velocity="0"/>
  </Event>
  <Event>
    <Absolute>40462</Absolute>
    <NoteOn Channel="7" Note="78" Velocity="114"/>
  </Event>
  <Event>
    <Absolute>40473</Absolute>
    <NoteOn Channel="7" Note="78" Velocity="0"/>
  </Event>
  <Event>
    <Absolute>40582</Absolute>
    <NoteOn Channel="7" Note="75" Velocity="114"/>
  </Event>
  <Event>
    <Absolute>40595</Absolute>
    <NoteOn Channel="7" Note="75" Velocity="0"/>
  </Event>
  <Event>
    <Absolute>40640</Absolute>
    <NoteOn Channel="7" Note="76" Velocity="114"/>
  </Event>
  <Event>
    <Absolute>40662</Absolute>
    <NoteOn Channel="7" Note="76" Velocity="0"/>
  </Event>
  <Event>
    <Absolute>40710</Absolute>
    <NoteOn Channel="7" Note="42" Velocity="82"/>
  </Event>
  <Event>
    <Absolute>40718</Absolute>
    <NoteOn Channel="7" Note="42" Velocity="0"/>
  </Event>
  <Event>
    <Absolute>40735</Absolute>
    <NoteOn Channel="7" Note="44" Velocity="94"/>
  </Event>
  <Event>
    <Absolute>40743</Absolute>
    <NoteOn Channel="7" Note="44" Velocity="0"/>
  </Event>
  <Event>
    <Absolute>40754</Absolute>
    <NoteOn Channel="7" Note="46" Velocity="94"/>
  </Event>
  <Event>
    <Absolute>40762</Absolute>
    <NoteOn Channel="7" Note="46" Velocity="0"/>
  </Event>
  <Event>
    <Absolute>40769</Absolute>
    <NoteOn Channel="7" Note="47" Velocity="94"/>
  </Event>
  <Event>
    <Absolute>40777</Absolute>
    <NoteOn Channel="7" Note="47" Velocity="0"/>
  </Event>
  <Event>
    <Absolute>40788</Absolute>
    <NoteOn Channel="7" Note="49" Velocity="94"/>
  </Event>
  <Event>
    <Absolute>40796</Absolute>
    <NoteOn Channel="7" Note="49" Velocity="0"/>
  </Event>
  <Event>
    <Absolute>40808</Absolute>
    <NoteOn Channel="7" Note="51" Velocity="94"/>
  </Event>
  <Event>
    <Absolute>40816</Absolute>
    <NoteOn Channel="7" Note="51" Velocity="0"/>
  </Event>
  <Event>
    <Absolute>40831</Absolute>
    <NoteOn Channel="7" Note="52" Velocity="94"/>
  </Event>
  <Event>
    <Absolute>40839</Absolute>
    <NoteOn Channel="7" Note="52" Velocity="0"/>
  </Event>
  <Event>
    <Absolute>40853</Absolute>
    <NoteOn Channel="7" Note="54" Velocity="94"/>
  </Event>
  <Event>
    <Absolute>40861</Absolute>
    <NoteOn Channel="7" Note="54" Velocity="0"/>
  </Event>
  <Event>
    <Absolute>41680</Absolute>
    <NoteOn Channel="7" Note="70" Velocity="94"/>
  </Event>
  <Event>
    <Absolute>41692</Absolute>
    <NoteOn Channel="7" Note="70" Velocity="0"/>
  </Event>
  <Event>
    <Absolute>41711</Absolute>
    <NoteOn Channel="7" Note="77" Velocity="65"/>
  </Event>
  <Event>
    <Absolute>41731</Absolute>
    <NoteOn Channel="7" Note="77" Velocity="0"/>
  </Event>
  <Event>
    <Absolute>41771</Absolute>
    <NoteOn Channel="7" Note="82" Velocity="94"/>
  </Event>
  <Event>
    <Absolute>41782</Absolute>
    <NoteOn Channel="7" Note="82" Velocity="0"/>
  </Event>
  <Event>
    <Absolute>41830</Absolute>
    <NoteOn Channel="7" Note="77" Velocity="90"/>
  </Event>
  <Event>
    <Absolute>41841</Absolute>
    <NoteOn Channel="7" Note="77" Velocity="0"/>
  </Event>
  <Event>
    <Absolute>41890</Absolute>
    <NoteOn Channel="7" Note="70" Velocity="94"/>
  </Event>
  <Event>
    <Absolute>41903</Absolute>
    <NoteOn Channel="7" Note="70" Velocity="0"/>
  </Event>
  <Event>
    <Absolute>41950</Absolute>
    <NoteOn Channel="7" Note="77" Velocity="94"/>
  </Event>
  <Event>
    <Absolute>41967</Absolute>
    <NoteOn Channel="7" Note="77" Velocity="0"/>
  </Event>
  <Event>
    <Absolute>42010</Absolute>
    <NoteOn Channel="7" Note="82" Velocity="94"/>
  </Event>
  <Event>
    <Absolute>42021</Absolute>
    <NoteOn Channel="7" Note="82" Velocity="0"/>
  </Event>
  <Event>
    <Absolute>42071</Absolute>
    <NoteOn Channel="7" Note="77" Velocity="91"/>
  </Event>
  <Event>
    <Absolute>42081</Absolute>
    <NoteOn Channel="7" Note="77" Velocity="0"/>
  </Event>
  <Event>
    <Absolute>42130</Absolute>
    <NoteOn Channel="7" Note="72" Velocity="94"/>
  </Event>
  <Event>
    <Absolute>42149</Absolute>
    <NoteOn Channel="7" Note="72" Velocity="0"/>
  </Event>
  <Event>
    <Absolute>42190</Absolute>
    <NoteOn Channel="7" Note="77" Velocity="94"/>
  </Event>
  <Event>
    <Absolute>42211</Absolute>
    <NoteOn Channel="7" Note="77" Velocity="0"/>
  </Event>
  <Event>
    <Absolute>42250</Absolute>
    <NoteOn Channel="7" Note="82" Velocity="94"/>
  </Event>
  <Event>
    <Absolute>42260</Absolute>
    <NoteOn Channel="7" Note="82" Velocity="0"/>
  </Event>
  <Event>
    <Absolute>42310</Absolute>
    <NoteOn Channel="7" Note="77" Velocity="94"/>
  </Event>
  <Event>
    <Absolute>42331</Absolute>
    <NoteOn Channel="7" Note="77" Velocity="0"/>
  </Event>
  <Event>
    <Absolute>42371</Absolute>
    <NoteOn Channel="7" Note="72" Velocity="94"/>
  </Event>
  <Event>
    <Absolute>42396</Absolute>
    <NoteOn Channel="7" Note="72" Velocity="0"/>
  </Event>
  <Event>
    <Absolute>42431</Absolute>
    <NoteOn Channel="7" Note="77" Velocity="84"/>
  </Event>
  <Event>
    <Absolute>42449</Absolute>
    <NoteOn Channel="7" Note="77" Velocity="0"/>
  </Event>
  <Event>
    <Absolute>42491</Absolute>
    <NoteOn Channel="7" Note="82" Velocity="94"/>
  </Event>
  <Event>
    <Absolute>42501</Absolute>
    <NoteOn Channel="7" Note="82" Velocity="0"/>
  </Event>
  <Event>
    <Absolute>42551</Absolute>
    <NoteOn Channel="7" Note="77" Velocity="89"/>
  </Event>
  <Event>
    <Absolute>42561</Absolute>
    <NoteOn Channel="7" Note="77" Velocity="0"/>
  </Event>
  <Event>
    <Absolute>42611</Absolute>
    <NoteOn Channel="7" Note="75" Velocity="123"/>
  </Event>
  <Event>
    <Absolute>42628</Absolute>
    <NoteOn Channel="7" Note="75" Velocity="0"/>
  </Event>
  <Event>
    <Absolute>42670</Absolute>
    <NoteOn Channel="7" Note="80" Velocity="123"/>
  </Event>
  <Event>
    <Absolute>42691</Absolute>
    <NoteOn Channel="7" Note="80" Velocity="0"/>
  </Event>
  <Event>
    <Absolute>42731</Absolute>
    <NoteOn Channel="7" Note="87" Velocity="123"/>
  </Event>
  <Event>
    <Absolute>42741</Absolute>
    <NoteOn Channel="7" Note="87" Velocity="0"/>
  </Event>
  <Event>
    <Absolute>42791</Absolute>
    <NoteOn Channel="7" Note="80" Velocity="116"/>
  </Event>
  <Event>
    <Absolute>42806</Absolute>
    <NoteOn Channel="7" Note="80" Velocity="0"/>
  </Event>
  <Event>
    <Absolute>42851</Absolute>
    <NoteOn Channel="7" Note="75" Velocity="123"/>
  </Event>
  <Event>
    <Absolute>42866</Absolute>
    <NoteOn Channel="7" Note="75" Velocity="0"/>
  </Event>
  <Event>
    <Absolute>42911</Absolute>
    <NoteOn Channel="7" Note="80" Velocity="123"/>
  </Event>
  <Event>
    <Absolute>42927</Absolute>
    <NoteOn Channel="7" Note="80" Velocity="0"/>
  </Event>
  <Event>
    <Absolute>42971</Absolute>
    <NoteOn Channel="7" Note="87" Velocity="123"/>
  </Event>
  <Event>
    <Absolute>42981</Absolute>
    <NoteOn Channel="7" Note="87" Velocity="0"/>
  </Event>
  <Event>
    <Absolute>43090</Absolute>
    <NoteOn Channel="7" Note="50" Velocity="92"/>
  </Event>
  <Event>
    <Absolute>43098</Absolute>
    <NoteOn Channel="7" Note="50" Velocity="0"/>
  </Event>
  <Event>
    <Absolute>43098</Absolute>
    <NoteOn Channel="7" Note="52" Velocity="92"/>
  </Event>
  <Event>
    <Absolute>43101</Absolute>
    <NoteOn Channel="7" Note="52" Velocity="0"/>
  </Event>
  <Event>
    <Absolute>43103</Absolute>
    <NoteOn Channel="7" Note="54" Velocity="92"/>
  </Event>
  <Event>
    <Absolute>43106</Absolute>
    <NoteOn Channel="7" Note="54" Velocity="0"/>
  </Event>
  <Event>
    <Absolute>43110</Absolute>
    <NoteOn Channel="7" Note="55" Velocity="92"/>
  </Event>
  <Event>
    <Absolute>43113</Absolute>
    <NoteOn Channel="7" Note="55" Velocity="0"/>
  </Event>
  <Event>
    <Absolute>43116</Absolute>
    <NoteOn Channel="7" Note="57" Velocity="92"/>
  </Event>
  <Event>
    <Absolute>43118</Absolute>
    <NoteOn Channel="7" Note="57" Velocity="0"/>
  </Event>
  <Event>
    <Absolute>43121</Absolute>
    <NoteOn Channel="7" Note="59" Velocity="92"/>
  </Event>
  <Event>
    <Absolute>43124</Absolute>
    <NoteOn Channel="7" Note="59" Velocity="0"/>
  </Event>
  <Event>
    <Absolute>43126</Absolute>
    <NoteOn Channel="7" Note="61" Velocity="92"/>
  </Event>
  <Event>
    <Absolute>43129</Absolute>
    <NoteOn Channel="7" Note="61" Velocity="0"/>
  </Event>
  <Event>
    <Absolute>43131</Absolute>
    <NoteOn Channel="7" Note="62" Velocity="92"/>
  </Event>
  <Event>
    <Absolute>43134</Absolute>
    <NoteOn Channel="7" Note="62" Velocity="0"/>
  </Event>
  <Event>
    <Absolute>43136</Absolute>
    <NoteOn Channel="7" Note="64" Velocity="92"/>
  </Event>
  <Event>
    <Absolute>43139</Absolute>
    <NoteOn Channel="7" Note="64" Velocity="0"/>
  </Event>
  <Event>
    <Absolute>43141</Absolute>
    <NoteOn Channel="7" Note="66" Velocity="92"/>
  </Event>
  <Event>
    <Absolute>43144</Absolute>
    <NoteOn Channel="7" Note="66" Velocity="0"/>
  </Event>
  <Event>
    <Absolute>43146</Absolute>
    <NoteOn Channel="7" Note="67" Velocity="92"/>
  </Event>
  <Event>
    <Absolute>43149</Absolute>
    <NoteOn Channel="7" Note="67" Velocity="0"/>
  </Event>
  <Event>
    <Absolute>43151</Absolute>
    <NoteOn Channel="7" Note="69" Velocity="92"/>
  </Event>
  <Event>
    <Absolute>43156</Absolute>
    <NoteOn Channel="7" Note="69" Velocity="0"/>
  </Event>
  <Event>
    <Absolute>43164</Absolute>
    <NoteOn Channel="7" Note="67" Velocity="86"/>
  </Event>
  <Event>
    <Absolute>43167</Absolute>
    <NoteOn Channel="7" Note="67" Velocity="0"/>
  </Event>
  <Event>
    <Absolute>43173</Absolute>
    <NoteOn Channel="7" Note="66" Velocity="76"/>
  </Event>
  <Event>
    <Absolute>43176</Absolute>
    <NoteOn Channel="7" Note="66" Velocity="0"/>
  </Event>
  <Event>
    <Absolute>43180</Absolute>
    <NoteOn Channel="7" Note="64" Velocity="92"/>
  </Event>
  <Event>
    <Absolute>43183</Absolute>
    <NoteOn Channel="7" Note="64" Velocity="0"/>
  </Event>
  <Event>
    <Absolute>43190</Absolute>
    <NoteOn Channel="7" Note="62" Velocity="92"/>
  </Event>
  <Event>
    <Absolute>43193</Absolute>
    <NoteOn Channel="7" Note="62" Velocity="0"/>
  </Event>
  <Event>
    <Absolute>43210</Absolute>
    <NoteOn Channel="7" Note="50" Velocity="92"/>
  </Event>
  <Event>
    <Absolute>43218</Absolute>
    <NoteOn Channel="7" Note="50" Velocity="0"/>
  </Event>
  <Event>
    <Absolute>43218</Absolute>
    <NoteOn Channel="7" Note="52" Velocity="92"/>
  </Event>
  <Event>
    <Absolute>43221</Absolute>
    <NoteOn Channel="7" Note="52" Velocity="0"/>
  </Event>
  <Event>
    <Absolute>43223</Absolute>
    <NoteOn Channel="7" Note="54" Velocity="92"/>
  </Event>
  <Event>
    <Absolute>43226</Absolute>
    <NoteOn Channel="7" Note="54" Velocity="0"/>
  </Event>
  <Event>
    <Absolute>43230</Absolute>
    <NoteOn Channel="7" Note="55" Velocity="92"/>
  </Event>
  <Event>
    <Absolute>43233</Absolute>
    <NoteOn Channel="7" Note="55" Velocity="0"/>
  </Event>
  <Event>
    <Absolute>43236</Absolute>
    <NoteOn Channel="7" Note="57" Velocity="92"/>
  </Event>
  <Event>
    <Absolute>43238</Absolute>
    <NoteOn Channel="7" Note="57" Velocity="0"/>
  </Event>
  <Event>
    <Absolute>43241</Absolute>
    <NoteOn Channel="7" Note="59" Velocity="92"/>
  </Event>
  <Event>
    <Absolute>43244</Absolute>
    <NoteOn Channel="7" Note="59" Velocity="0"/>
  </Event>
  <Event>
    <Absolute>43246</Absolute>
    <NoteOn Channel="7" Note="61" Velocity="92"/>
  </Event>
  <Event>
    <Absolute>43249</Absolute>
    <NoteOn Channel="7" Note="61" Velocity="0"/>
  </Event>
  <Event>
    <Absolute>43251</Absolute>
    <NoteOn Channel="7" Note="62" Velocity="92"/>
  </Event>
  <Event>
    <Absolute>43254</Absolute>
    <NoteOn Channel="7" Note="62" Velocity="0"/>
  </Event>
  <Event>
    <Absolute>43256</Absolute>
    <NoteOn Channel="7" Note="64" Velocity="92"/>
  </Event>
  <Event>
    <Absolute>43259</Absolute>
    <NoteOn Channel="7" Note="64" Velocity="0"/>
  </Event>
  <Event>
    <Absolute>43261</Absolute>
    <NoteOn Channel="7" Note="66" Velocity="92"/>
  </Event>
  <Event>
    <Absolute>43264</Absolute>
    <NoteOn Channel="7" Note="66" Velocity="0"/>
  </Event>
  <Event>
    <Absolute>43266</Absolute>
    <NoteOn Channel="7" Note="67" Velocity="92"/>
  </Event>
  <Event>
    <Absolute>43269</Absolute>
    <NoteOn Channel="7" Note="67" Velocity="0"/>
  </Event>
  <Event>
    <Absolute>43271</Absolute>
    <NoteOn Channel="7" Note="69" Velocity="92"/>
  </Event>
  <Event>
    <Absolute>43276</Absolute>
    <NoteOn Channel="7" Note="69" Velocity="0"/>
  </Event>
  <Event>
    <Absolute>43284</Absolute>
    <NoteOn Channel="7" Note="67" Velocity="86"/>
  </Event>
  <Event>
    <Absolute>43287</Absolute>
    <NoteOn Channel="7" Note="67" Velocity="0"/>
  </Event>
  <Event>
    <Absolute>43293</Absolute>
    <NoteOn Channel="7" Note="66" Velocity="77"/>
  </Event>
  <Event>
    <Absolute>43296</Absolute>
    <NoteOn Channel="7" Note="66" Velocity="0"/>
  </Event>
  <Event>
    <Absolute>43300</Absolute>
    <NoteOn Channel="7" Note="64" Velocity="92"/>
  </Event>
  <Event>
    <Absolute>43303</Absolute>
    <NoteOn Channel="7" Note="64" Velocity="0"/>
  </Event>
  <Event>
    <Absolute>43322</Absolute>
    <NoteOn Channel="7" Note="57" Velocity="92"/>
  </Event>
  <Event>
    <Absolute>43328</Absolute>
    <NoteOn Channel="7" Note="57" Velocity="0"/>
  </Event>
  <Event>
    <Absolute>43328</Absolute>
    <NoteOn Channel="7" Note="59" Velocity="92"/>
  </Event>
  <Event>
    <Absolute>43334</Absolute>
    <NoteOn Channel="7" Note="59" Velocity="0"/>
  </Event>
  <Event>
    <Absolute>43336</Absolute>
    <NoteOn Channel="7" Note="61" Velocity="92"/>
  </Event>
  <Event>
    <Absolute>43342</Absolute>
    <NoteOn Channel="7" Note="61" Velocity="0"/>
  </Event>
  <Event>
    <Absolute>43345</Absolute>
    <NoteOn Channel="7" Note="62" Velocity="92"/>
  </Event>
  <Event>
    <Absolute>43351</Absolute>
    <NoteOn Channel="7" Note="62" Velocity="0"/>
  </Event>
  <Event>
    <Absolute>43357</Absolute>
    <NoteOn Channel="7" Note="64" Velocity="92"/>
  </Event>
  <Event>
    <Absolute>43363</Absolute>
    <NoteOn Channel="7" Note="64" Velocity="0"/>
  </Event>
  <Event>
    <Absolute>43372</Absolute>
    <NoteOn Channel="7" Note="66" Velocity="92"/>
  </Event>
  <Event>
    <Absolute>43378</Absolute>
    <NoteOn Channel="7" Note="66" Velocity="0"/>
  </Event>
  <Event>
    <Absolute>43385</Absolute>
    <NoteOn Channel="7" Note="67" Velocity="92"/>
  </Event>
  <Event>
    <Absolute>43391</Absolute>
    <NoteOn Channel="7" Note="67" Velocity="0"/>
  </Event>
  <Event>
    <Absolute>43396</Absolute>
    <NoteOn Channel="7" Note="69" Velocity="92"/>
  </Event>
  <Event>
    <Absolute>43402</Absolute>
    <NoteOn Channel="7" Note="69" Velocity="0"/>
  </Event>
  <Event>
    <Absolute>43408</Absolute>
    <NoteOn Channel="7" Note="71" Velocity="92"/>
  </Event>
  <Event>
    <Absolute>43414</Absolute>
    <NoteOn Channel="7" Note="71" Velocity="0"/>
  </Event>
  <Event>
    <Absolute>43417</Absolute>
    <NoteOn Channel="7" Note="73" Velocity="92"/>
  </Event>
  <Event>
    <Absolute>43423</Absolute>
    <NoteOn Channel="7" Note="73" Velocity="0"/>
  </Event>
  <Event>
    <Absolute>43427</Absolute>
    <NoteOn Channel="7" Note="74" Velocity="92"/>
  </Event>
  <Event>
    <Absolute>43433</Absolute>
    <NoteOn Channel="7" Note="74" Velocity="0"/>
  </Event>
  <Event>
    <Absolute>43435</Absolute>
    <NoteOn Channel="7" Note="76" Velocity="92"/>
  </Event>
  <Event>
    <Absolute>43441</Absolute>
    <NoteOn Channel="7" Note="76" Velocity="0"/>
  </Event>
  <Event>
    <Absolute>43443</Absolute>
    <NoteOn Channel="7" Note="81" Velocity="92"/>
  </Event>
  <Event>
    <Absolute>43449</Absolute>
    <NoteOn Channel="7" Note="81" Velocity="0"/>
  </Event>
  <Event>
    <Absolute>43449</Absolute>
    <EndOfTrack/>
  </Event>
</Track>
<Track Number="7">
  <Event>
    <Absolute>0</Absolute>
    <MIDIChannelPrefix Value="01"/>
  </Event>
  <Event>
    <Absolute>0</Absolute>
    <ProgramChange Channel="8" Number="1"/>
  </Event>
  <Event>
    <Absolute>0</Absolute>
    <ControlChange Channel="8" Control="7" Value="110"/>
  </Event>
  <Event>
    <Absolute>0</Absolute>
    <ControlChange Channel="8" Control="10" Value="90"/>
  </Event>
  <Event>
    <Absolute>11</Absolute>
    <ControlChange Channel="8" Control="18" Value="63"/>
  </Event>
  <Event>
    <Absolute>5280</Absolute>
    <ControlChange Channel="8" Control="18" Value="64"/>
  </Event>
  <Event>
    <Absolute>5882</Absolute>
    <NoteOn Channel="8" Note="75" Velocity="71"/>
  </Event>
  <Event>
    <Absolute>5907</Absolute>
    <NoteOn Channel="8" Note="75" Velocity="0"/>
  </Event>
  <Event>
    <Absolute>5917</Absolute>
    <NoteOn Channel="8" Note="70" Velocity="66"/>
  </Event>
  <Event>
    <Absolute>5942</Absolute>
    <NoteOn Channel="8" Note="70" Velocity="0"/>
  </Event>
  <Event>
    <Absolute>5956</Absolute>
    <NoteOn Channel="8" Note="65" Velocity="68"/>
  </Event>
  <Event>
    <Absolute>5981</Absolute>
    <NoteOn Channel="8" Note="65" Velocity="0"/>
  </Event>
  <Event>
    <Absolute>5996</Absolute>
    <NoteOn Channel="8" Note="67" Velocity="68"/>
  </Event>
  <Event>
    <Absolute>6021</Absolute>
    <NoteOn Channel="8" Note="67" Velocity="0"/>
  </Event>
  <Event>
    <Absolute>6036</Absolute>
    <NoteOn Channel="8" Note="72" Velocity="75"/>
  </Event>
  <Event>
    <Absolute>6061</Absolute>
    <NoteOn Channel="8" Note="72" Velocity="0"/>
  </Event>
  <Event>
    <Absolute>6075</Absolute>
    <NoteOn Channel="8" Note="77" Velocity="75"/>
  </Event>
  <Event>
    <Absolute>6100</Absolute>
    <NoteOn Channel="8" Note="77" Velocity="0"/>
  </Event>
  <Event>
    <Absolute>6116</Absolute>
    <NoteOn Channel="8" Note="79" Velocity="75"/>
  </Event>
  <Event>
    <Absolute>6141</Absolute>
    <NoteOn Channel="8" Note="79" Velocity="0"/>
  </Event>
  <Event>
    <Absolute>6157</Absolute>
    <NoteOn Channel="8" Note="75" Velocity="71"/>
  </Event>
  <Event>
    <Absolute>6182</Absolute>
    <NoteOn Channel="8" Note="75" Velocity="0"/>
  </Event>
  <Event>
    <Absolute>6196</Absolute>
    <NoteOn Channel="8" Note="70" Velocity="71"/>
  </Event>
  <Event>
    <Absolute>6221</Absolute>
    <NoteOn Channel="8" Note="70" Velocity="0"/>
  </Event>
  <Event>
    <Absolute>6236</Absolute>
    <NoteOn Channel="8" Note="69" Velocity="75"/>
  </Event>
  <Event>
    <Absolute>6261</Absolute>
    <NoteOn Channel="8" Note="69" Velocity="0"/>
  </Event>
  <Event>
    <Absolute>6276</Absolute>
    <NoteOn Channel="8" Note="70" Velocity="66"/>
  </Event>
  <Event>
    <Absolute>6301</Absolute>
    <NoteOn Channel="8" Note="70" Velocity="0"/>
  </Event>
  <Event>
    <Absolute>6316</Absolute>
    <NoteOn Channel="8" Note="77" Velocity="71"/>
  </Event>
  <Event>
    <Absolute>6341</Absolute>
    <NoteOn Channel="8" Note="77" Velocity="0"/>
  </Event>
  <Event>
    <Absolute>6358</Absolute>
    <NoteOn Channel="8" Note="82" Velocity="80"/>
  </Event>
  <Event>
    <Absolute>6383</Absolute>
    <NoteOn Channel="8" Note="82" Velocity="0"/>
  </Event>
  <Event>
    <Absolute>6398</Absolute>
    <NoteOn Channel="8" Note="77" Velocity="77"/>
  </Event>
  <Event>
    <Absolute>6423</Absolute>
    <NoteOn Channel="8" Note="77" Velocity="0"/>
  </Event>
  <Event>
    <Absolute>6438</Absolute>
    <NoteOn Channel="8" Note="72" Velocity="80"/>
  </Event>
  <Event>
    <Absolute>6463</Absolute>
    <NoteOn Channel="8" Note="72" Velocity="0"/>
  </Event>
  <Event>
    <Absolute>6478</Absolute>
    <NoteOn Channel="8" Note="77" Velocity="86"/>
  </Event>
  <Event>
    <Absolute>6503</Absolute>
    <NoteOn Channel="8" Note="77" Velocity="0"/>
  </Event>
  <Event>
    <Absolute>6517</Absolute>
    <NoteOn Channel="8" Note="82" Velocity="68"/>
  </Event>
  <Event>
    <Absolute>6542</Absolute>
    <NoteOn Channel="8" Note="82" Velocity="0"/>
  </Event>
  <Event>
    <Absolute>6556</Absolute>
    <NoteOn Channel="8" Note="87" Velocity="71"/>
  </Event>
  <Event>
    <Absolute>6581</Absolute>
    <NoteOn Channel="8" Note="87" Velocity="0"/>
  </Event>
  <Event>
    <Absolute>6598</Absolute>
    <NoteOn Channel="8" Note="84" Velocity="80"/>
  </Event>
  <Event>
    <Absolute>6623</Absolute>
    <NoteOn Channel="8" Note="84" Velocity="0"/>
  </Event>
  <Event>
    <Absolute>6637</Absolute>
    <NoteOn Channel="8" Note="77" Velocity="75"/>
  </Event>
  <Event>
    <Absolute>6662</Absolute>
    <NoteOn Channel="8" Note="77" Velocity="0"/>
  </Event>
  <Event>
    <Absolute>6677</Absolute>
    <NoteOn Channel="8" Note="72" Velocity="77"/>
  </Event>
  <Event>
    <Absolute>6702</Absolute>
    <NoteOn Channel="8" Note="72" Velocity="0"/>
  </Event>
  <Event>
    <Absolute>6717</Absolute>
    <NoteOn Channel="8" Note="77" Velocity="75"/>
  </Event>
  <Event>
    <Absolute>6742</Absolute>
    <NoteOn Channel="8" Note="77" Velocity="0"/>
  </Event>
  <Event>
    <Absolute>6757</Absolute>
    <NoteOn Channel="8" Note="84" Velocity="77"/>
  </Event>
  <Event>
    <Absolute>6782</Absolute>
    <NoteOn Channel="8" Note="84" Velocity="0"/>
  </Event>
  <Event>
    <Absolute>6797</Absolute>
    <NoteOn Channel="8" Note="89" Velocity="71"/>
  </Event>
  <Event>
    <Absolute>6822</Absolute>
    <NoteOn Channel="8" Note="89" Velocity="0"/>
  </Event>
  <Event>
    <Absolute>6838</Absolute>
    <NoteOn Channel="8" Note="87" Velocity="86"/>
  </Event>
  <Event>
    <Absolute>6863</Absolute>
    <NoteOn Channel="8" Note="87" Velocity="0"/>
  </Event>
  <Event>
    <Absolute>6877</Absolute>
    <NoteOn Channel="8" Note="82" Velocity="77"/>
  </Event>
  <Event>
    <Absolute>6902</Absolute>
    <NoteOn Channel="8" Note="82" Velocity="0"/>
  </Event>
  <Event>
    <Absolute>6916</Absolute>
    <NoteOn Channel="8" Note="77" Velocity="77"/>
  </Event>
  <Event>
    <Absolute>6941</Absolute>
    <NoteOn Channel="8" Note="77" Velocity="0"/>
  </Event>
  <Event>
    <Absolute>6957</Absolute>
    <NoteOn Channel="8" Note="72" Velocity="77"/>
  </Event>
  <Event>
    <Absolute>6982</Absolute>
    <NoteOn Channel="8" Note="72" Velocity="0"/>
  </Event>
  <Event>
    <Absolute>6996</Absolute>
    <NoteOn Channel="8" Note="77" Velocity="77"/>
  </Event>
  <Event>
    <Absolute>7021</Absolute>
    <NoteOn Channel="8" Note="77" Velocity="0"/>
  </Event>
  <Event>
    <Absolute>7036</Absolute>
    <NoteOn Channel="8" Note="82" Velocity="68"/>
  </Event>
  <Event>
    <Absolute>7061</Absolute>
    <NoteOn Channel="8" Note="82" Velocity="0"/>
  </Event>
  <Event>
    <Absolute>7076</Absolute>
    <NoteOn Channel="8" Note="87" Velocity="77"/>
  </Event>
  <Event>
    <Absolute>7101</Absolute>
    <NoteOn Channel="8" Note="87" Velocity="0"/>
  </Event>
  <Event>
    <Absolute>7116</Absolute>
    <NoteOn Channel="8" Note="82" Velocity="60"/>
  </Event>
  <Event>
    <Absolute>7141</Absolute>
    <NoteOn Channel="8" Note="82" Velocity="0"/>
  </Event>
  <Event>
    <Absolute>7157</Absolute>
    <NoteOn Channel="8" Note="77" Velocity="75"/>
  </Event>
  <Event>
    <Absolute>7182</Absolute>
    <NoteOn Channel="8" Note="77" Velocity="0"/>
  </Event>
  <Event>
    <Absolute>7198</Absolute>
    <NoteOn Channel="8" Note="75" Velocity="86"/>
  </Event>
  <Event>
    <Absolute>7223</Absolute>
    <NoteOn Channel="8" Note="75" Velocity="0"/>
  </Event>
  <Event>
    <Absolute>7237</Absolute>
    <NoteOn Channel="8" Note="77" Velocity="80"/>
  </Event>
  <Event>
    <Absolute>7262</Absolute>
    <NoteOn Channel="8" Note="77" Velocity="0"/>
  </Event>
  <Event>
    <Absolute>7277</Absolute>
    <NoteOn Channel="8" Note="82" Velocity="68"/>
  </Event>
  <Event>
    <Absolute>7302</Absolute>
    <NoteOn Channel="8" Note="82" Velocity="0"/>
  </Event>
  <Event>
    <Absolute>7318</Absolute>
    <NoteOn Channel="8" Note="89" Velocity="86"/>
  </Event>
  <Event>
    <Absolute>7343</Absolute>
    <NoteOn Channel="8" Note="89" Velocity="0"/>
  </Event>
  <Event>
    <Absolute>7358</Absolute>
    <NoteOn Channel="8" Note="84" Velocity="71"/>
  </Event>
  <Event>
    <Absolute>7383</Absolute>
    <NoteOn Channel="8" Note="84" Velocity="0"/>
  </Event>
  <Event>
    <Absolute>7397</Absolute>
    <NoteOn Channel="8" Note="77" Velocity="71"/>
  </Event>
  <Event>
    <Absolute>7422</Absolute>
    <NoteOn Channel="8" Note="77" Velocity="0"/>
  </Event>
  <Event>
    <Absolute>7437</Absolute>
    <NoteOn Channel="8" Note="72" Velocity="86"/>
  </Event>
  <Event>
    <Absolute>7462</Absolute>
    <NoteOn Channel="8" Note="72" Velocity="0"/>
  </Event>
  <Event>
    <Absolute>7476</Absolute>
    <NoteOn Channel="8" Note="77" Velocity="77"/>
  </Event>
  <Event>
    <Absolute>7501</Absolute>
    <NoteOn Channel="8" Note="77" Velocity="0"/>
  </Event>
  <Event>
    <Absolute>7515</Absolute>
    <NoteOn Channel="8" Note="84" Velocity="77"/>
  </Event>
  <Event>
    <Absolute>7540</Absolute>
    <NoteOn Channel="8" Note="84" Velocity="0"/>
  </Event>
  <Event>
    <Absolute>7556</Absolute>
    <NoteOn Channel="8" Note="89" Velocity="86"/>
  </Event>
  <Event>
    <Absolute>7581</Absolute>
    <NoteOn Channel="8" Note="89" Velocity="0"/>
  </Event>
  <Event>
    <Absolute>7595</Absolute>
    <NoteOn Channel="8" Note="82" Velocity="75"/>
  </Event>
  <Event>
    <Absolute>7620</Absolute>
    <NoteOn Channel="8" Note="82" Velocity="0"/>
  </Event>
  <Event>
    <Absolute>7635</Absolute>
    <NoteOn Channel="8" Note="75" Velocity="86"/>
  </Event>
  <Event>
    <Absolute>7660</Absolute>
    <NoteOn Channel="8" Note="75" Velocity="0"/>
  </Event>
  <Event>
    <Absolute>7676</Absolute>
    <NoteOn Channel="8" Note="84" Velocity="80"/>
  </Event>
  <Event>
    <Absolute>7701</Absolute>
    <NoteOn Channel="8" Note="84" Velocity="0"/>
  </Event>
  <Event>
    <Absolute>7715</Absolute>
    <NoteOn Channel="8" Note="77" Velocity="77"/>
  </Event>
  <Event>
    <Absolute>7740</Absolute>
    <NoteOn Channel="8" Note="77" Velocity="0"/>
  </Event>
  <Event>
    <Absolute>7755</Absolute>
    <NoteOn Channel="8" Note="72" Velocity="86"/>
  </Event>
  <Event>
    <Absolute>7780</Absolute>
    <NoteOn Channel="8" Note="72" Velocity="0"/>
  </Event>
  <Event>
    <Absolute>9120</Absolute>
    <ControlChange Channel="8" Control="18" Value="0"/>
  </Event>
  <Event>
    <Absolute>9120</Absolute>
    <EndOfTrack/>
  </Event>
</Track>
<Track Number="8">
  <Event>
    <Absolute>0</Absolute>
    <MIDIChannelPrefix Value="01"/>
  </Event>
  <Event>
    <Absolute>0</Absolute>
    <ProgramChange Channel="9" Number="48"/>
  </Event>
  <Event>
    <Absolute>0</Absolute>
    <ControlChange Channel="9" Control="7" Value="125"/>
  </Event>
  <Event>
    <Absolute>0</Absolute>
    <ControlChange Channel="9" Control="10" Value="45"/>
  </Event>
  <Event>
    <Absolute>13</Absolute>
    <ControlChange Channel="9" Control="18" Value="64"/>
  </Event>
  <Event>
    <Absolute>480</Absolute>
    <NoteOn Channel="9" Note="82" Velocity="59"/>
  </Event>
  <Event>
    <Absolute>485</Absolute>
    <NoteOn Channel="9" Note="53" Velocity="108"/>
  </Event>
  <Event>
    <Absolute>485</Absolute>
    <NoteOn Channel="9" Note="62" Velocity="67"/>
  </Event>
  <Event>
    <Absolute>499</Absolute>
    <NoteOn Channel="9" Note="94" Velocity="97"/>
  </Event>
  <Event>
    <Absolute>615</Absolute>
    <NoteOn Channel="9" Note="53" Velocity="0"/>
  </Event>
  <Event>
    <Absolute>950</Absolute>
    <NoteOn Channel="9" Note="62" Velocity="0"/>
  </Event>
  <Event>
    <Absolute>1764</Absolute>
    <NoteOn Channel="9" Note="94" Velocity="0"/>
  </Event>
  <Event>
    <Absolute>1765</Absolute>
    <NoteOn Channel="9" Note="82" Velocity="0"/>
  </Event>
  <Event>
    <Absolute>1823</Absolute>
    <NoteOn Channel="9" Note="81" Velocity="60"/>
  </Event>
  <Event>
    <Absolute>1843</Absolute>
    <NoteOn Channel="9" Note="82" Velocity="63"/>
  </Event>
  <Event>
    <Absolute>1846</Absolute>
    <NoteOn Channel="9" Note="81" Velocity="0"/>
  </Event>
  <Event>
    <Absolute>1869</Absolute>
    <NoteOn Channel="9" Note="82" Velocity="0"/>
  </Event>
  <Event>
    <Absolute>1870</Absolute>
    <NoteOn Channel="9" Note="84" Velocity="68"/>
  </Event>
  <Event>
    <Absolute>1891</Absolute>
    <NoteOn Channel="9" Note="85" Velocity="73"/>
  </Event>
  <Event>
    <Absolute>1892</Absolute>
    <NoteOn Channel="9" Note="84" Velocity="0"/>
  </Event>
  <Event>
    <Absolute>1915</Absolute>
    <NoteOn Channel="9" Note="87" Velocity="77"/>
  </Event>
  <Event>
    <Absolute>1917</Absolute>
    <NoteOn Channel="9" Note="85" Velocity="0"/>
  </Event>
  <Event>
    <Absolute>1938</Absolute>
    <NoteOn Channel="9" Note="89" Velocity="81"/>
  </Event>
  <Event>
    <Absolute>1941</Absolute>
    <NoteOn Channel="9" Note="87" Velocity="0"/>
  </Event>
  <Event>
    <Absolute>1964</Absolute>
    <NoteOn Channel="9" Note="89" Velocity="0"/>
  </Event>
  <Event>
    <Absolute>1965</Absolute>
    <NoteOn Channel="9" Note="91" Velocity="86"/>
  </Event>
  <Event>
    <Absolute>1988</Absolute>
    <NoteOn Channel="9" Note="93" Velocity="91"/>
  </Event>
  <Event>
    <Absolute>1991</Absolute>
    <NoteOn Channel="9" Note="91" Velocity="0"/>
  </Event>
  <Event>
    <Absolute>2013</Absolute>
    <NoteOn Channel="9" Note="94" Velocity="99"/>
  </Event>
  <Event>
    <Absolute>2020</Absolute>
    <NoteOn Channel="9" Note="93" Velocity="0"/>
  </Event>
  <Event>
    <Absolute>3549</Absolute>
    <NoteOn Channel="9" Note="94" Velocity="0"/>
  </Event>
  <Event>
    <Absolute>3606</Absolute>
    <NoteOn Channel="9" Note="60" Velocity="114"/>
  </Event>
  <Event>
    <Absolute>3618</Absolute>
    <NoteOn Channel="9" Note="60" Velocity="0"/>
  </Event>
  <Event>
    <Absolute>3622</Absolute>
    <NoteOn Channel="9" Note="59" Velocity="114"/>
  </Event>
  <Event>
    <Absolute>3640</Absolute>
    <NoteOn Channel="9" Note="59" Velocity="0"/>
  </Event>
  <Event>
    <Absolute>3642</Absolute>
    <NoteOn Channel="9" Note="60" Velocity="114"/>
  </Event>
  <Event>
    <Absolute>3658</Absolute>
    <NoteOn Channel="9" Note="60" Velocity="0"/>
  </Event>
  <Event>
    <Absolute>3660</Absolute>
    <NoteOn Channel="9" Note="62" Velocity="114"/>
  </Event>
  <Event>
    <Absolute>3680</Absolute>
    <NoteOn Channel="9" Note="62" Velocity="0"/>
  </Event>
  <Event>
    <Absolute>3680</Absolute>
    <NoteOn Channel="9" Note="63" Velocity="114"/>
  </Event>
  <Event>
    <Absolute>3693</Absolute>
    <NoteOn Channel="9" Note="63" Velocity="0"/>
  </Event>
  <Event>
    <Absolute>3697</Absolute>
    <NoteOn Channel="9" Note="64" Velocity="114"/>
  </Event>
  <Event>
    <Absolute>3715</Absolute>
    <NoteOn Channel="9" Note="64" Velocity="0"/>
  </Event>
  <Event>
    <Absolute>3718</Absolute>
    <NoteOn Channel="9" Note="65" Velocity="114"/>
  </Event>
  <Event>
    <Absolute>3733</Absolute>
    <NoteOn Channel="9" Note="65" Velocity="0"/>
  </Event>
  <Event>
    <Absolute>3737</Absolute>
    <NoteOn Channel="9" Note="64" Velocity="114"/>
  </Event>
  <Event>
    <Absolute>3755</Absolute>
    <NoteOn Channel="9" Note="64" Velocity="0"/>
  </Event>
  <Event>
    <Absolute>3757</Absolute>
    <NoteOn Channel="9" Note="65" Velocity="114"/>
  </Event>
  <Event>
    <Absolute>3775</Absolute>
    <NoteOn Channel="9" Note="65" Velocity="0"/>
  </Event>
  <Event>
    <Absolute>3778</Absolute>
    <NoteOn Channel="9" Note="67" Velocity="114"/>
  </Event>
  <Event>
    <Absolute>3793</Absolute>
    <NoteOn Channel="9" Note="67" Velocity="0"/>
  </Event>
  <Event>
    <Absolute>3797</Absolute>
    <NoteOn Channel="9" Note="69" Velocity="114"/>
  </Event>
  <Event>
    <Absolute>3812</Absolute>
    <NoteOn Channel="9" Note="69" Velocity="0"/>
  </Event>
  <Event>
    <Absolute>3816</Absolute>
    <NoteOn Channel="9" Note="70" Velocity="114"/>
  </Event>
  <Event>
    <Absolute>3831</Absolute>
    <NoteOn Channel="9" Note="70" Velocity="0"/>
  </Event>
  <Event>
    <Absolute>3839</Absolute>
    <NoteOn Channel="9" Note="72" Velocity="114"/>
  </Event>
  <Event>
    <Absolute>3854</Absolute>
    <NoteOn Channel="9" Note="72" Velocity="0"/>
  </Event>
  <Event>
    <Absolute>3860</Absolute>
    <NoteOn Channel="9" Note="74" Velocity="93"/>
  </Event>
  <Event>
    <Absolute>3876</Absolute>
    <NoteOn Channel="9" Note="75" Velocity="93"/>
  </Event>
  <Event>
    <Absolute>3882</Absolute>
    <NoteOn Channel="9" Note="74" Velocity="0"/>
  </Event>
  <Event>
    <Absolute>3895</Absolute>
    <NoteOn Channel="9" Note="77" Velocity="93"/>
  </Event>
  <Event>
    <Absolute>3897</Absolute>
    <NoteOn Channel="9" Note="75" Velocity="0"/>
  </Event>
  <Event>
    <Absolute>3915</Absolute>
    <NoteOn Channel="9" Note="79" Velocity="93"/>
  </Event>
  <Event>
    <Absolute>3920</Absolute>
    <NoteOn Channel="9" Note="77" Velocity="0"/>
  </Event>
  <Event>
    <Absolute>3933</Absolute>
    <NoteOn Channel="9" Note="81" Velocity="93"/>
  </Event>
  <Event>
    <Absolute>3938</Absolute>
    <NoteOn Channel="9" Note="79" Velocity="0"/>
  </Event>
  <Event>
    <Absolute>3960</Absolute>
    <NoteOn Channel="9" Note="82" Velocity="93"/>
  </Event>
  <Event>
    <Absolute>3963</Absolute>
    <NoteOn Channel="9" Note="81" Velocity="0"/>
  </Event>
  <Event>
    <Absolute>3979</Absolute>
    <NoteOn Channel="9" Note="82" Velocity="0"/>
  </Event>
  <Event>
    <Absolute>4002</Absolute>
    <NoteOn Channel="9" Note="82" Velocity="93"/>
  </Event>
  <Event>
    <Absolute>4020</Absolute>
    <NoteOn Channel="9" Note="81" Velocity="93"/>
  </Event>
  <Event>
    <Absolute>4028</Absolute>
    <NoteOn Channel="9" Note="82" Velocity="0"/>
  </Event>
  <Event>
    <Absolute>4040</Absolute>
    <NoteOn Channel="9" Note="82" Velocity="93"/>
  </Event>
  <Event>
    <Absolute>4044</Absolute>
    <NoteOn Channel="9" Note="81" Velocity="0"/>
  </Event>
  <Event>
    <Absolute>4057</Absolute>
    <NoteOn Channel="9" Note="81" Velocity="93"/>
  </Event>
  <Event>
    <Absolute>4061</Absolute>
    <NoteOn Channel="9" Note="82" Velocity="0"/>
  </Event>
  <Event>
    <Absolute>4075</Absolute>
    <NoteOn Channel="9" Note="82" Velocity="93"/>
  </Event>
  <Event>
    <Absolute>4082</Absolute>
    <NoteOn Channel="9" Note="81" Velocity="0"/>
  </Event>
  <Event>
    <Absolute>4096</Absolute>
    <NoteOn Channel="9" Note="82" Velocity="0"/>
  </Event>
  <Event>
    <Absolute>4116</Absolute>
    <NoteOn Channel="9" Note="82" Velocity="93"/>
  </Event>
  <Event>
    <Absolute>4132</Absolute>
    <NoteOn Channel="9" Note="81" Velocity="93"/>
  </Event>
  <Event>
    <Absolute>4138</Absolute>
    <NoteOn Channel="9" Note="82" Velocity="0"/>
  </Event>
  <Event>
    <Absolute>4150</Absolute>
    <NoteOn Channel="9" Note="82" Velocity="93"/>
  </Event>
  <Event>
    <Absolute>4157</Absolute>
    <NoteOn Channel="9" Note="81" Velocity="0"/>
  </Event>
  <Event>
    <Absolute>4168</Absolute>
    <NoteOn Channel="9" Note="81" Velocity="93"/>
  </Event>
  <Event>
    <Absolute>4172</Absolute>
    <NoteOn Channel="9" Note="82" Velocity="0"/>
  </Event>
  <Event>
    <Absolute>4189</Absolute>
    <NoteOn Channel="9" Note="82" Velocity="93"/>
  </Event>
  <Event>
    <Absolute>4192</Absolute>
    <NoteOn Channel="9" Note="81" Velocity="0"/>
  </Event>
  <Event>
    <Absolute>4210</Absolute>
    <NoteOn Channel="9" Note="82" Velocity="0"/>
  </Event>
  <Event>
    <Absolute>4235</Absolute>
    <NoteOn Channel="9" Note="82" Velocity="93"/>
  </Event>
  <Event>
    <Absolute>4254</Absolute>
    <NoteOn Channel="9" Note="81" Velocity="93"/>
  </Event>
  <Event>
    <Absolute>4260</Absolute>
    <NoteOn Channel="9" Note="82" Velocity="0"/>
  </Event>
  <Event>
    <Absolute>4275</Absolute>
    <NoteOn Channel="9" Note="82" Velocity="93"/>
  </Event>
  <Event>
    <Absolute>4279</Absolute>
    <NoteOn Channel="9" Note="81" Velocity="0"/>
  </Event>
  <Event>
    <Absolute>4294</Absolute>
    <NoteOn Channel="9" Note="81" Velocity="93"/>
  </Event>
  <Event>
    <Absolute>4298</Absolute>
    <NoteOn Channel="9" Note="82" Velocity="0"/>
  </Event>
  <Event>
    <Absolute>4314</Absolute>
    <NoteOn Channel="9" Note="82" Velocity="93"/>
  </Event>
  <Event>
    <Absolute>4319</Absolute>
    <NoteOn Channel="9" Note="81" Velocity="0"/>
  </Event>
  <Event>
    <Absolute>4333</Absolute>
    <NoteOn Channel="9" Note="82" Velocity="0"/>
  </Event>
  <Event>
    <Absolute>4355</Absolute>
    <NoteOn Channel="9" Note="82" Velocity="93"/>
  </Event>
  <Event>
    <Absolute>4373</Absolute>
    <NoteOn Channel="9" Note="81" Velocity="93"/>
  </Event>
  <Event>
    <Absolute>4380</Absolute>
    <NoteOn Channel="9" Note="82" Velocity="0"/>
  </Event>
  <Event>
    <Absolute>4395</Absolute>
    <NoteOn Channel="9" Note="82" Velocity="93"/>
  </Event>
  <Event>
    <Absolute>4398</Absolute>
    <NoteOn Channel="9" Note="81" Velocity="0"/>
  </Event>
  <Event>
    <Absolute>4412</Absolute>
    <NoteOn Channel="9" Note="81" Velocity="93"/>
  </Event>
  <Event>
    <Absolute>4418</Absolute>
    <NoteOn Channel="9" Note="82" Velocity="0"/>
  </Event>
  <Event>
    <Absolute>4435</Absolute>
    <NoteOn Channel="9" Note="82" Velocity="93"/>
  </Event>
  <Event>
    <Absolute>4437</Absolute>
    <NoteOn Channel="9" Note="81" Velocity="0"/>
  </Event>
  <Event>
    <Absolute>4456</Absolute>
    <NoteOn Channel="9" Note="82" Velocity="0"/>
  </Event>
  <Event>
    <Absolute>4480</Absolute>
    <NoteOn Channel="9" Note="82" Velocity="93"/>
  </Event>
  <Event>
    <Absolute>4493</Absolute>
    <NoteOn Channel="9" Note="81" Velocity="93"/>
  </Event>
  <Event>
    <Absolute>4501</Absolute>
    <NoteOn Channel="9" Note="82" Velocity="0"/>
  </Event>
  <Event>
    <Absolute>4516</Absolute>
    <NoteOn Channel="9" Note="82" Velocity="93"/>
  </Event>
  <Event>
    <Absolute>4520</Absolute>
    <NoteOn Channel="9" Note="81" Velocity="0"/>
  </Event>
  <Event>
    <Absolute>4532</Absolute>
    <NoteOn Channel="9" Note="81" Velocity="93"/>
  </Event>
  <Event>
    <Absolute>4538</Absolute>
    <NoteOn Channel="9" Note="82" Velocity="0"/>
  </Event>
  <Event>
    <Absolute>4553</Absolute>
    <NoteOn Channel="9" Note="82" Velocity="93"/>
  </Event>
  <Event>
    <Absolute>4559</Absolute>
    <NoteOn Channel="9" Note="81" Velocity="0"/>
  </Event>
  <Event>
    <Absolute>4573</Absolute>
    <NoteOn Channel="9" Note="82" Velocity="0"/>
  </Event>
  <Event>
    <Absolute>4595</Absolute>
    <NoteOn Channel="9" Note="82" Velocity="93"/>
  </Event>
  <Event>
    <Absolute>4612</Absolute>
    <NoteOn Channel="9" Note="81" Velocity="93"/>
  </Event>
  <Event>
    <Absolute>4619</Absolute>
    <NoteOn Channel="9" Note="82" Velocity="0"/>
  </Event>
  <Event>
    <Absolute>4634</Absolute>
    <NoteOn Channel="9" Note="82" Velocity="93"/>
  </Event>
  <Event>
    <Absolute>4638</Absolute>
    <NoteOn Channel="9" Note="81" Velocity="0"/>
  </Event>
  <Event>
    <Absolute>4652</Absolute>
    <NoteOn Channel="9" Note="81" Velocity="93"/>
  </Event>
  <Event>
    <Absolute>4658</Absolute>
    <NoteOn Channel="9" Note="82" Velocity="0"/>
  </Event>
  <Event>
    <Absolute>4673</Absolute>
    <NoteOn Channel="9" Note="82" Velocity="93"/>
  </Event>
  <Event>
    <Absolute>4677</Absolute>
    <NoteOn Channel="9" Note="81" Velocity="0"/>
  </Event>
  <Event>
    <Absolute>4692</Absolute>
    <NoteOn Channel="9" Note="82" Velocity="0"/>
  </Event>
  <Event>
    <Absolute>4716</Absolute>
    <NoteOn Channel="9" Note="82" Velocity="93"/>
  </Event>
  <Event>
    <Absolute>4733</Absolute>
    <NoteOn Channel="9" Note="81" Velocity="93"/>
  </Event>
  <Event>
    <Absolute>4740</Absolute>
    <NoteOn Channel="9" Note="82" Velocity="0"/>
  </Event>
  <Event>
    <Absolute>4756</Absolute>
    <NoteOn Channel="9" Note="82" Velocity="93"/>
  </Event>
  <Event>
    <Absolute>4760</Absolute>
    <NoteOn Channel="9" Note="81" Velocity="0"/>
  </Event>
  <Event>
    <Absolute>4775</Absolute>
    <NoteOn Channel="9" Note="81" Velocity="93"/>
  </Event>
  <Event>
    <Absolute>4779</Absolute>
    <NoteOn Channel="9" Note="82" Velocity="0"/>
  </Event>
  <Event>
    <Absolute>4799</Absolute>
    <NoteOn Channel="9" Note="81" Velocity="0"/>
  </Event>
  <Event>
    <Absolute>4799</Absolute>
    <NoteOn Channel="9" Note="82" Velocity="93"/>
  </Event>
  <Event>
    <Absolute>4818</Absolute>
    <NoteOn Channel="9" Note="82" Velocity="0"/>
  </Event>
  <Event>
    <Absolute>4843</Absolute>
    <NoteOn Channel="9" Note="82" Velocity="93"/>
  </Event>
  <Event>
    <Absolute>4860</Absolute>
    <NoteOn Channel="9" Note="81" Velocity="93"/>
  </Event>
  <Event>
    <Absolute>4866</Absolute>
    <NoteOn Channel="9" Note="82" Velocity="0"/>
  </Event>
  <Event>
    <Absolute>4881</Absolute>
    <NoteOn Channel="9" Note="82" Velocity="93"/>
  </Event>
  <Event>
    <Absolute>4886</Absolute>
    <NoteOn Channel="9" Note="81" Velocity="0"/>
  </Event>
  <Event>
    <Absolute>4900</Absolute>
    <NoteOn Channel="9" Note="81" Velocity="93"/>
  </Event>
  <Event>
    <Absolute>4904</Absolute>
    <NoteOn Channel="9" Note="82" Velocity="0"/>
  </Event>
  <Event>
    <Absolute>4919</Absolute>
    <NoteOn Channel="9" Note="82" Velocity="93"/>
  </Event>
  <Event>
    <Absolute>4925</Absolute>
    <NoteOn Channel="9" Note="81" Velocity="0"/>
  </Event>
  <Event>
    <Absolute>4939</Absolute>
    <NoteOn Channel="9" Note="82" Velocity="0"/>
  </Event>
  <Event>
    <Absolute>4960</Absolute>
    <NoteOn Channel="9" Note="82" Velocity="93"/>
  </Event>
  <Event>
    <Absolute>4973</Absolute>
    <NoteOn Channel="9" Note="81" Velocity="93"/>
  </Event>
  <Event>
    <Absolute>4980</Absolute>
    <NoteOn Channel="9" Note="82" Velocity="0"/>
  </Event>
  <Event>
    <Absolute>4995</Absolute>
    <NoteOn Channel="9" Note="82" Velocity="93"/>
  </Event>
  <Event>
    <Absolute>5002</Absolute>
    <NoteOn Channel="9" Note="81" Velocity="0"/>
  </Event>
  <Event>
    <Absolute>5015</Absolute>
    <NoteOn Channel="9" Note="81" Velocity="93"/>
  </Event>
  <Event>
    <Absolute>5019</Absolute>
    <NoteOn Channel="9" Note="82" Velocity="0"/>
  </Event>
  <Event>
    <Absolute>5038</Absolute>
    <NoteOn Channel="9" Note="81" Velocity="0"/>
  </Event>
  <Event>
    <Absolute>5038</Absolute>
    <NoteOn Channel="9" Note="82" Velocity="93"/>
  </Event>
  <Event>
    <Absolute>5056</Absolute>
    <NoteOn Channel="9" Note="82" Velocity="0"/>
  </Event>
  <Event>
    <Absolute>5081</Absolute>
    <NoteOn Channel="9" Note="82" Velocity="93"/>
  </Event>
  <Event>
    <Absolute>5098</Absolute>
    <NoteOn Channel="9" Note="81" Velocity="93"/>
  </Event>
  <Event>
    <Absolute>5104</Absolute>
    <NoteOn Channel="9" Note="82" Velocity="0"/>
  </Event>
  <Event>
    <Absolute>5120</Absolute>
    <NoteOn Channel="9" Note="82" Velocity="93"/>
  </Event>
  <Event>
    <Absolute>5125</Absolute>
    <NoteOn Channel="9" Note="81" Velocity="0"/>
  </Event>
  <Event>
    <Absolute>5140</Absolute>
    <NoteOn Channel="9" Note="81" Velocity="93"/>
  </Event>
  <Event>
    <Absolute>5147</Absolute>
    <NoteOn Channel="9" Note="82" Velocity="0"/>
  </Event>
  <Event>
    <Absolute>5161</Absolute>
    <NoteOn Channel="9" Note="81" Velocity="0"/>
  </Event>
  <Event>
    <Absolute>5161</Absolute>
    <NoteOn Channel="9" Note="82" Velocity="93"/>
  </Event>
  <Event>
    <Absolute>5181</Absolute>
    <NoteOn Channel="9" Note="82" Velocity="0"/>
  </Event>
  <Event>
    <Absolute>5201</Absolute>
    <NoteOn Channel="9" Note="82" Velocity="93"/>
  </Event>
  <Event>
    <Absolute>5213</Absolute>
    <NoteOn Channel="9" Note="81" Velocity="93"/>
  </Event>
  <Event>
    <Absolute>5220</Absolute>
    <NoteOn Channel="9" Note="82" Velocity="0"/>
  </Event>
  <Event>
    <Absolute>5235</Absolute>
    <NoteOn Channel="9" Note="82" Velocity="93"/>
  </Event>
  <Event>
    <Absolute>5242</Absolute>
    <NoteOn Channel="9" Note="81" Velocity="0"/>
  </Event>
  <Event>
    <Absolute>5255</Absolute>
    <NoteOn Channel="9" Note="81" Velocity="93"/>
  </Event>
  <Event>
    <Absolute>5260</Absolute>
    <NoteOn Channel="9" Note="82" Velocity="0"/>
  </Event>
  <Event>
    <Absolute>5277</Absolute>
    <NoteOn Channel="9" Note="82" Velocity="93"/>
  </Event>
  <Event>
    <Absolute>5280</Absolute>
    <NoteOn Channel="9" Note="81" Velocity="0"/>
  </Event>
  <Event>
    <Absolute>5295</Absolute>
    <NoteOn Channel="9" Note="82" Velocity="0"/>
  </Event>
  <Event>
    <Absolute>5318</Absolute>
    <NoteOn Channel="9" Note="82" Velocity="93"/>
  </Event>
  <Event>
    <Absolute>5335</Absolute>
    <NoteOn Channel="9" Note="81" Velocity="93"/>
  </Event>
  <Event>
    <Absolute>5341</Absolute>
    <NoteOn Channel="9" Note="82" Velocity="0"/>
  </Event>
  <Event>
    <Absolute>5358</Absolute>
    <NoteOn Channel="9" Note="82" Velocity="93"/>
  </Event>
  <Event>
    <Absolute>5362</Absolute>
    <NoteOn Channel="9" Note="81" Velocity="0"/>
  </Event>
  <Event>
    <Absolute>5376</Absolute>
    <NoteOn Channel="9" Note="81" Velocity="93"/>
  </Event>
  <Event>
    <Absolute>5384</Absolute>
    <NoteOn Channel="9" Note="82" Velocity="0"/>
  </Event>
  <Event>
    <Absolute>5399</Absolute>
    <NoteOn Channel="9" Note="81" Velocity="0"/>
  </Event>
  <Event>
    <Absolute>5402</Absolute>
    <NoteOn Channel="9" Note="80" Velocity="93"/>
  </Event>
  <Event>
    <Absolute>5418</Absolute>
    <NoteOn Channel="9" Note="80" Velocity="0"/>
  </Event>
  <Event>
    <Absolute>5437</Absolute>
    <NoteOn Channel="9" Note="79" Velocity="93"/>
  </Event>
  <Event>
    <Absolute>5457</Absolute>
    <NoteOn Channel="9" Note="79" Velocity="0"/>
  </Event>
  <Event>
    <Absolute>5473</Absolute>
    <NoteOn Channel="9" Note="80" Velocity="93"/>
  </Event>
  <Event>
    <Absolute>5493</Absolute>
    <NoteOn Channel="9" Note="80" Velocity="0"/>
  </Event>
  <Event>
    <Absolute>5511</Absolute>
    <NoteOn Channel="9" Note="77" Velocity="93"/>
  </Event>
  <Event>
    <Absolute>5686</Absolute>
    <NoteOn Channel="9" Note="77" Velocity="0"/>
  </Event>
  <Event>
    <Absolute>5751</Absolute>
    <NoteOn Channel="9" Note="77" Velocity="97"/>
  </Event>
  <Event>
    <Absolute>5834</Absolute>
    <NoteOn Channel="9" Note="77" Velocity="0"/>
  </Event>
  <Event>
    <Absolute>5845</Absolute>
    <NoteOn Channel="9" Note="77" Velocity="97"/>
  </Event>
  <Event>
    <Absolute>5881</Absolute>
    <NoteOn Channel="9" Note="77" Velocity="0"/>
  </Event>
  <Event>
    <Absolute>5881</Absolute>
    <NoteOn Channel="9" Note="79" Velocity="97"/>
  </Event>
  <Event>
    <Absolute>6046</Absolute>
    <NoteOn Channel="9" Note="79" Velocity="0"/>
  </Event>
  <Event>
    <Absolute>6046</Absolute>
    <NoteOn Channel="9" Note="79" Velocity="97"/>
  </Event>
  <Event>
    <Absolute>6103</Absolute>
    <NoteOn Channel="9" Note="87" Velocity="97"/>
  </Event>
  <Event>
    <Absolute>6168</Absolute>
    <NoteOn Channel="9" Note="86" Velocity="97"/>
  </Event>
  <Event>
    <Absolute>6170</Absolute>
    <NoteOn Channel="9" Note="87" Velocity="0"/>
  </Event>
  <Event>
    <Absolute>6211</Absolute>
    <NoteOn Channel="9" Note="79" Velocity="0"/>
  </Event>
  <Event>
    <Absolute>6219</Absolute>
    <NoteOn Channel="9" Note="86" Velocity="0"/>
  </Event>
  <Event>
    <Absolute>6222</Absolute>
    <NoteOn Channel="9" Note="84" Velocity="97"/>
  </Event>
  <Event>
    <Absolute>6284</Absolute>
    <NoteOn Channel="9" Note="82" Velocity="96"/>
  </Event>
  <Event>
    <Absolute>6287</Absolute>
    <NoteOn Channel="9" Note="84" Velocity="0"/>
  </Event>
  <Event>
    <Absolute>6344</Absolute>
    <NoteOn Channel="9" Note="82" Velocity="0"/>
  </Event>
  <Event>
    <Absolute>6350</Absolute>
    <NoteOn Channel="9" Note="82" Velocity="94"/>
  </Event>
  <Event>
    <Absolute>6387</Absolute>
    <NoteOn Channel="9" Note="84" Velocity="94"/>
  </Event>
  <Event>
    <Absolute>6398</Absolute>
    <NoteOn Channel="9" Note="82" Velocity="0"/>
  </Event>
  <Event>
    <Absolute>6422</Absolute>
    <NoteOn Channel="9" Note="84" Velocity="0"/>
  </Event>
  <Event>
    <Absolute>6423</Absolute>
    <NoteOn Channel="9" Note="86" Velocity="94"/>
  </Event>
  <Event>
    <Absolute>6469</Absolute>
    <NoteOn Channel="9" Note="86" Velocity="0"/>
  </Event>
  <Event>
    <Absolute>6471</Absolute>
    <NoteOn Channel="9" Note="84" Velocity="96"/>
  </Event>
  <Event>
    <Absolute>6556</Absolute>
    <NoteOn Channel="9" Note="84" Velocity="0"/>
  </Event>
  <Event>
    <Absolute>6560</Absolute>
    <NoteOn Channel="9" Note="79" Velocity="97"/>
  </Event>
  <Event>
    <Absolute>6595</Absolute>
    <NoteOn Channel="9" Note="79" Velocity="0"/>
  </Event>
  <Event>
    <Absolute>6596</Absolute>
    <NoteOn Channel="9" Note="81" Velocity="97"/>
  </Event>
  <Event>
    <Absolute>6708</Absolute>
    <NoteOn Channel="9" Note="81" Velocity="0"/>
  </Event>
  <Event>
    <Absolute>6714</Absolute>
    <NoteOn Channel="9" Note="77" Velocity="97"/>
  </Event>
  <Event>
    <Absolute>6784</Absolute>
    <NoteOn Channel="9" Note="77" Velocity="0"/>
  </Event>
  <Event>
    <Absolute>6803</Absolute>
    <NoteOn Channel="9" Note="77" Velocity="97"/>
  </Event>
  <Event>
    <Absolute>6835</Absolute>
    <NoteOn Channel="9" Note="79" Velocity="97"/>
  </Event>
  <Event>
    <Absolute>6844</Absolute>
    <NoteOn Channel="9" Note="77" Velocity="0"/>
  </Event>
  <Event>
    <Absolute>7003</Absolute>
    <NoteOn Channel="9" Note="79" Velocity="0"/>
  </Event>
  <Event>
    <Absolute>7013</Absolute>
    <NoteOn Channel="9" Note="79" Velocity="97"/>
  </Event>
  <Event>
    <Absolute>7038</Absolute>
    <NoteOn Channel="9" Note="87" Velocity="74"/>
  </Event>
  <Event>
    <Absolute>7040</Absolute>
    <NoteOn Channel="9" Note="79" Velocity="0"/>
  </Event>
  <Event>
    <Absolute>7066</Absolute>
    <NoteOn Channel="9" Note="87" Velocity="0"/>
  </Event>
  <Event>
    <Absolute>7070</Absolute>
    <NoteOn Channel="9" Note="87" Velocity="97"/>
  </Event>
  <Event>
    <Absolute>7125</Absolute>
    <NoteOn Channel="9" Note="87" Velocity="0"/>
  </Event>
  <Event>
    <Absolute>7126</Absolute>
    <NoteOn Channel="9" Note="86" Velocity="97"/>
  </Event>
  <Event>
    <Absolute>7181</Absolute>
    <NoteOn Channel="9" Note="86" Velocity="0"/>
  </Event>
  <Event>
    <Absolute>7182</Absolute>
    <NoteOn Channel="9" Note="84" Velocity="97"/>
  </Event>
  <Event>
    <Absolute>7243</Absolute>
    <NoteOn Channel="9" Note="84" Velocity="0"/>
  </Event>
  <Event>
    <Absolute>7245</Absolute>
    <NoteOn Channel="9" Note="82" Velocity="96"/>
  </Event>
  <Event>
    <Absolute>7272</Absolute>
    <NoteOn Channel="9" Note="89" Velocity="86"/>
  </Event>
  <Event>
    <Absolute>7285</Absolute>
    <NoteOn Channel="9" Note="82" Velocity="0"/>
  </Event>
  <Event>
    <Absolute>7292</Absolute>
    <NoteOn Channel="9" Note="89" Velocity="0"/>
  </Event>
  <Event>
    <Absolute>7298</Absolute>
    <NoteOn Channel="9" Note="89" Velocity="97"/>
  </Event>
  <Event>
    <Absolute>7400</Absolute>
    <NoteOn Channel="9" Note="89" Velocity="0"/>
  </Event>
  <Event>
    <Absolute>7401</Absolute>
    <NoteOn Channel="9" Note="84" Velocity="86"/>
  </Event>
  <Event>
    <Absolute>7421</Absolute>
    <NoteOn Channel="9" Note="84" Velocity="0"/>
  </Event>
  <Event>
    <Absolute>7426</Absolute>
    <NoteOn Channel="9" Note="84" Velocity="97"/>
  </Event>
  <Event>
    <Absolute>7755</Absolute>
    <NoteOn Channel="9" Note="84" Velocity="0"/>
  </Event>
  <Event>
    <Absolute>7765</Absolute>
    <NoteOn Channel="9" Note="77" Velocity="97"/>
  </Event>
  <Event>
    <Absolute>7796</Absolute>
    <NoteOn Channel="9" Note="79" Velocity="97"/>
  </Event>
  <Event>
    <Absolute>7801</Absolute>
    <NoteOn Channel="9" Note="77" Velocity="0"/>
  </Event>
  <Event>
    <Absolute>7963</Absolute>
    <NoteOn Channel="9" Note="79" Velocity="0"/>
  </Event>
  <Event>
    <Absolute>7966</Absolute>
    <NoteOn Channel="9" Note="79" Velocity="97"/>
  </Event>
  <Event>
    <Absolute>8023</Absolute>
    <NoteOn Channel="9" Note="87" Velocity="97"/>
  </Event>
  <Event>
    <Absolute>8027</Absolute>
    <NoteOn Channel="9" Note="79" Velocity="0"/>
  </Event>
  <Event>
    <Absolute>8088</Absolute>
    <NoteOn Channel="9" Note="86" Velocity="97"/>
  </Event>
  <Event>
    <Absolute>8090</Absolute>
    <NoteOn Channel="9" Note="87" Velocity="0"/>
  </Event>
  <Event>
    <Absolute>8139</Absolute>
    <NoteOn Channel="9" Note="86" Velocity="0"/>
  </Event>
  <Event>
    <Absolute>8142</Absolute>
    <NoteOn Channel="9" Note="84" Velocity="97"/>
  </Event>
  <Event>
    <Absolute>8204</Absolute>
    <NoteOn Channel="9" Note="82" Velocity="96"/>
  </Event>
  <Event>
    <Absolute>8207</Absolute>
    <NoteOn Channel="9" Note="84" Velocity="0"/>
  </Event>
  <Event>
    <Absolute>8264</Absolute>
    <NoteOn Channel="9" Note="82" Velocity="0"/>
  </Event>
  <Event>
    <Absolute>8270</Absolute>
    <NoteOn Channel="9" Note="82" Velocity="94"/>
  </Event>
  <Event>
    <Absolute>8307</Absolute>
    <NoteOn Channel="9" Note="84" Velocity="94"/>
  </Event>
  <Event>
    <Absolute>8318</Absolute>
    <NoteOn Channel="9" Note="82" Velocity="0"/>
  </Event>
  <Event>
    <Absolute>8342</Absolute>
    <NoteOn Channel="9" Note="84" Velocity="0"/>
  </Event>
  <Event>
    <Absolute>8343</Absolute>
    <NoteOn Channel="9" Note="86" Velocity="94"/>
  </Event>
  <Event>
    <Absolute>8389</Absolute>
    <NoteOn Channel="9" Note="86" Velocity="0"/>
  </Event>
  <Event>
    <Absolute>8391</Absolute>
    <NoteOn Channel="9" Note="84" Velocity="96"/>
  </Event>
  <Event>
    <Absolute>8476</Absolute>
    <NoteOn Channel="9" Note="84" Velocity="0"/>
  </Event>
  <Event>
    <Absolute>8480</Absolute>
    <NoteOn Channel="9" Note="79" Velocity="97"/>
  </Event>
  <Event>
    <Absolute>8508</Absolute>
    <NoteOn Channel="9" Note="79" Velocity="0"/>
  </Event>
  <Event>
    <Absolute>8516</Absolute>
    <NoteOn Channel="9" Note="81" Velocity="97"/>
  </Event>
  <Event>
    <Absolute>8628</Absolute>
    <NoteOn Channel="9" Note="81" Velocity="0"/>
  </Event>
  <Event>
    <Absolute>8643</Absolute>
    <NoteOn Channel="9" Note="89" Velocity="86"/>
  </Event>
  <Event>
    <Absolute>8711</Absolute>
    <NoteOn Channel="9" Note="89" Velocity="0"/>
  </Event>
  <Event>
    <Absolute>8732</Absolute>
    <NoteOn Channel="9" Note="89" Velocity="88"/>
  </Event>
  <Event>
    <Absolute>8752</Absolute>
    <NoteOn Channel="9" Note="89" Velocity="0"/>
  </Event>
  <Event>
    <Absolute>8755</Absolute>
    <NoteOn Channel="9" Note="94" Velocity="91"/>
  </Event>
  <Event>
    <Absolute>8757</Absolute>
    <NoteOn Channel="9" Note="90" Velocity="91"/>
  </Event>
  <Event>
    <Absolute>8808</Absolute>
    <NoteOn Channel="9" Note="90" Velocity="0"/>
  </Event>
  <Event>
    <Absolute>8815</Absolute>
    <NoteOn Channel="9" Note="94" Velocity="0"/>
  </Event>
  <Event>
    <Absolute>8853</Absolute>
    <NoteOn Channel="9" Note="89" Velocity="90"/>
  </Event>
  <Event>
    <Absolute>8857</Absolute>
    <NoteOn Channel="9" Note="92" Velocity="94"/>
  </Event>
  <Event>
    <Absolute>8871</Absolute>
    <NoteOn Channel="9" Note="89" Velocity="0"/>
  </Event>
  <Event>
    <Absolute>8874</Absolute>
    <NoteOn Channel="9" Note="92" Velocity="0"/>
  </Event>
  <Event>
    <Absolute>8875</Absolute>
    <NoteOn Channel="9" Note="90" Velocity="95"/>
  </Event>
  <Event>
    <Absolute>8877</Absolute>
    <NoteOn Channel="9" Note="87" Velocity="95"/>
  </Event>
  <Event>
    <Absolute>8929</Absolute>
    <NoteOn Channel="9" Note="90" Velocity="0"/>
  </Event>
  <Event>
    <Absolute>8931</Absolute>
    <NoteOn Channel="9" Note="87" Velocity="0"/>
  </Event>
  <Event>
    <Absolute>8971</Absolute>
    <NoteOn Channel="9" Note="85" Velocity="97"/>
  </Event>
  <Event>
    <Absolute>8971</Absolute>
    <NoteOn Channel="9" Note="89" Velocity="97"/>
  </Event>
  <Event>
    <Absolute>8987</Absolute>
    <NoteOn Channel="9" Note="85" Velocity="0"/>
  </Event>
  <Event>
    <Absolute>8991</Absolute>
    <NoteOn Channel="9" Note="89" Velocity="0"/>
  </Event>
  <Event>
    <Absolute>9001</Absolute>
    <NoteOn Channel="9" Note="87" Velocity="99"/>
  </Event>
  <Event>
    <Absolute>9007</Absolute>
    <NoteOn Channel="9" Note="84" Velocity="99"/>
  </Event>
  <Event>
    <Absolute>9046</Absolute>
    <NoteOn Channel="9" Note="87" Velocity="0"/>
  </Event>
  <Event>
    <Absolute>9054</Absolute>
    <NoteOn Channel="9" Note="84" Velocity="0"/>
  </Event>
  <Event>
    <Absolute>9088</Absolute>
    <NoteOn Channel="9" Note="82" Velocity="101"/>
  </Event>
  <Event>
    <Absolute>9097</Absolute>
    <NoteOn Channel="9" Note="85" Velocity="102"/>
  </Event>
  <Event>
    <Absolute>9104</Absolute>
    <NoteOn Channel="9" Note="82" Velocity="0"/>
  </Event>
  <Event>
    <Absolute>9115</Absolute>
    <NoteOn Channel="9" Note="85" Velocity="0"/>
  </Event>
  <Event>
    <Absolute>9120</Absolute>
    <NoteOn Channel="9" Note="80" Velocity="102"/>
  </Event>
  <Event>
    <Absolute>9125</Absolute>
    <NoteOn Channel="9" Note="84" Velocity="102"/>
  </Event>
  <Event>
    <Absolute>9169</Absolute>
    <NoteOn Channel="9" Note="80" Velocity="0"/>
  </Event>
  <Event>
    <Absolute>9174</Absolute>
    <NoteOn Channel="9" Note="84" Velocity="0"/>
  </Event>
  <Event>
    <Absolute>9203</Absolute>
    <NoteOn Channel="9" Note="82" Velocity="106"/>
  </Event>
  <Event>
    <Absolute>9205</Absolute>
    <NoteOn Channel="9" Note="78" Velocity="106"/>
  </Event>
  <Event>
    <Absolute>9214</Absolute>
    <NoteOn Channel="9" Note="82" Velocity="0"/>
  </Event>
  <Event>
    <Absolute>9225</Absolute>
    <NoteOn Channel="9" Note="78" Velocity="0"/>
  </Event>
  <Event>
    <Absolute>9242</Absolute>
    <NoteOn Channel="9" Note="89" Velocity="77"/>
  </Event>
  <Event>
    <Absolute>9330</Absolute>
    <NoteOn Channel="9" Note="65" Velocity="100"/>
  </Event>
  <Event>
    <Absolute>9352</Absolute>
    <NoteOn Channel="9" Note="65" Velocity="0"/>
  </Event>
  <Event>
    <Absolute>9360</Absolute>
    <NoteOn Channel="9" Note="65" Velocity="114"/>
  </Event>
  <Event>
    <Absolute>9382</Absolute>
    <NoteOn Channel="9" Note="65" Velocity="0"/>
  </Event>
  <Event>
    <Absolute>9450</Absolute>
    <NoteOn Channel="9" Note="65" Velocity="85"/>
  </Event>
  <Event>
    <Absolute>9472</Absolute>
    <NoteOn Channel="9" Note="65" Velocity="0"/>
  </Event>
  <Event>
    <Absolute>9480</Absolute>
    <NoteOn Channel="9" Note="65" Velocity="114"/>
  </Event>
  <Event>
    <Absolute>9502</Absolute>
    <NoteOn Channel="9" Note="65" Velocity="0"/>
  </Event>
  <Event>
    <Absolute>9510</Absolute>
    <NoteOn Channel="9" Note="65" Velocity="85"/>
  </Event>
  <Event>
    <Absolute>9532</Absolute>
    <NoteOn Channel="9" Note="65" Velocity="0"/>
  </Event>
  <Event>
    <Absolute>9540</Absolute>
    <NoteOn Channel="9" Note="65" Velocity="85"/>
  </Event>
  <Event>
    <Absolute>9562</Absolute>
    <NoteOn Channel="9" Note="65" Velocity="0"/>
  </Event>
  <Event>
    <Absolute>9570</Absolute>
    <NoteOn Channel="9" Note="65" Velocity="85"/>
  </Event>
  <Event>
    <Absolute>9592</Absolute>
    <NoteOn Channel="9" Note="65" Velocity="0"/>
  </Event>
  <Event>
    <Absolute>9597</Absolute>
    <NoteOn Channel="9" Note="89" Velocity="0"/>
  </Event>
  <Event>
    <Absolute>9600</Absolute>
    <NoteOn Channel="9" Note="65" Velocity="114"/>
  </Event>
  <Event>
    <Absolute>9622</Absolute>
    <NoteOn Channel="9" Note="65" Velocity="0"/>
  </Event>
  <Event>
    <Absolute>9690</Absolute>
    <NoteOn Channel="9" Note="65" Velocity="85"/>
  </Event>
  <Event>
    <Absolute>9712</Absolute>
    <NoteOn Channel="9" Note="65" Velocity="0"/>
  </Event>
  <Event>
    <Absolute>9720</Absolute>
    <NoteOn Channel="9" Note="65" Velocity="114"/>
  </Event>
  <Event>
    <Absolute>9742</Absolute>
    <NoteOn Channel="9" Note="65" Velocity="0"/>
  </Event>
  <Event>
    <Absolute>9810</Absolute>
    <NoteOn Channel="9" Note="65" Velocity="85"/>
  </Event>
  <Event>
    <Absolute>9832</Absolute>
    <NoteOn Channel="9" Note="65" Velocity="0"/>
  </Event>
  <Event>
    <Absolute>9840</Absolute>
    <NoteOn Channel="9" Note="65" Velocity="114"/>
  </Event>
  <Event>
    <Absolute>9862</Absolute>
    <NoteOn Channel="9" Note="65" Velocity="0"/>
  </Event>
  <Event>
    <Absolute>9870</Absolute>
    <NoteOn Channel="9" Note="65" Velocity="85"/>
  </Event>
  <Event>
    <Absolute>9892</Absolute>
    <NoteOn Channel="9" Note="65" Velocity="0"/>
  </Event>
  <Event>
    <Absolute>9900</Absolute>
    <NoteOn Channel="9" Note="65" Velocity="85"/>
  </Event>
  <Event>
    <Absolute>9922</Absolute>
    <NoteOn Channel="9" Note="65" Velocity="0"/>
  </Event>
  <Event>
    <Absolute>9930</Absolute>
    <NoteOn Channel="9" Note="65" Velocity="85"/>
  </Event>
  <Event>
    <Absolute>9952</Absolute>
    <NoteOn Channel="9" Note="65" Velocity="0"/>
  </Event>
  <Event>
    <Absolute>9960</Absolute>
    <NoteOn Channel="9" Note="65" Velocity="114"/>
  </Event>
  <Event>
    <Absolute>9982</Absolute>
    <NoteOn Channel="9" Note="65" Velocity="0"/>
  </Event>
  <Event>
    <Absolute>10050</Absolute>
    <NoteOn Channel="9" Note="65" Velocity="85"/>
  </Event>
  <Event>
    <Absolute>10072</Absolute>
    <NoteOn Channel="9" Note="65" Velocity="0"/>
  </Event>
  <Event>
    <Absolute>10080</Absolute>
    <NoteOn Channel="9" Note="65" Velocity="127"/>
  </Event>
  <Event>
    <Absolute>10102</Absolute>
    <NoteOn Channel="9" Note="65" Velocity="0"/>
  </Event>
  <Event>
    <Absolute>10170</Absolute>
    <NoteOn Channel="9" Note="65" Velocity="96"/>
  </Event>
  <Event>
    <Absolute>10192</Absolute>
    <NoteOn Channel="9" Note="65" Velocity="0"/>
  </Event>
  <Event>
    <Absolute>10200</Absolute>
    <NoteOn Channel="9" Note="65" Velocity="127"/>
  </Event>
  <Event>
    <Absolute>10222</Absolute>
    <NoteOn Channel="9" Note="65" Velocity="0"/>
  </Event>
  <Event>
    <Absolute>10230</Absolute>
    <NoteOn Channel="9" Note="65" Velocity="96"/>
  </Event>
  <Event>
    <Absolute>10252</Absolute>
    <NoteOn Channel="9" Note="65" Velocity="0"/>
  </Event>
  <Event>
    <Absolute>10260</Absolute>
    <NoteOn Channel="9" Note="65" Velocity="96"/>
  </Event>
  <Event>
    <Absolute>10282</Absolute>
    <NoteOn Channel="9" Note="65" Velocity="0"/>
  </Event>
  <Event>
    <Absolute>10290</Absolute>
    <NoteOn Channel="9" Note="65" Velocity="96"/>
  </Event>
  <Event>
    <Absolute>10312</Absolute>
    <NoteOn Channel="9" Note="65" Velocity="0"/>
  </Event>
  <Event>
    <Absolute>10320</Absolute>
    <NoteOn Channel="9" Note="65" Velocity="127"/>
  </Event>
  <Event>
    <Absolute>10342</Absolute>
    <NoteOn Channel="9" Note="65" Velocity="0"/>
  </Event>
  <Event>
    <Absolute>10410</Absolute>
    <NoteOn Channel="9" Note="65" Velocity="96"/>
  </Event>
  <Event>
    <Absolute>10432</Absolute>
    <NoteOn Channel="9" Note="65" Velocity="0"/>
  </Event>
  <Event>
    <Absolute>10440</Absolute>
    <NoteOn Channel="9" Note="65" Velocity="127"/>
  </Event>
  <Event>
    <Absolute>10462</Absolute>
    <NoteOn Channel="9" Note="65" Velocity="0"/>
  </Event>
  <Event>
    <Absolute>10530</Absolute>
    <NoteOn Channel="9" Note="65" Velocity="96"/>
  </Event>
  <Event>
    <Absolute>10552</Absolute>
    <NoteOn Channel="9" Note="65" Velocity="0"/>
  </Event>
  <Event>
    <Absolute>10560</Absolute>
    <NoteOn Channel="9" Note="65" Velocity="127"/>
  </Event>
  <Event>
    <Absolute>10582</Absolute>
    <NoteOn Channel="9" Note="65" Velocity="0"/>
  </Event>
  <Event>
    <Absolute>10590</Absolute>
    <NoteOn Channel="9" Note="65" Velocity="96"/>
  </Event>
  <Event>
    <Absolute>10612</Absolute>
    <NoteOn Channel="9" Note="65" Velocity="0"/>
  </Event>
  <Event>
    <Absolute>10620</Absolute>
    <NoteOn Channel="9" Note="65" Velocity="96"/>
  </Event>
  <Event>
    <Absolute>10642</Absolute>
    <NoteOn Channel="9" Note="65" Velocity="0"/>
  </Event>
  <Event>
    <Absolute>10650</Absolute>
    <NoteOn Channel="9" Note="65" Velocity="96"/>
  </Event>
  <Event>
    <Absolute>10672</Absolute>
    <NoteOn Channel="9" Note="65" Velocity="0"/>
  </Event>
  <Event>
    <Absolute>10680</Absolute>
    <NoteOn Channel="9" Note="65" Velocity="127"/>
  </Event>
  <Event>
    <Absolute>10702</Absolute>
    <NoteOn Channel="9" Note="65" Velocity="0"/>
  </Event>
  <Event>
    <Absolute>10770</Absolute>
    <NoteOn Channel="9" Note="65" Velocity="96"/>
  </Event>
  <Event>
    <Absolute>10792</Absolute>
    <NoteOn Channel="9" Note="65" Velocity="0"/>
  </Event>
  <Event>
    <Absolute>10800</Absolute>
    <NoteOn Channel="9" Note="65" Velocity="127"/>
  </Event>
  <Event>
    <Absolute>10822</Absolute>
    <NoteOn Channel="9" Note="65" Velocity="0"/>
  </Event>
  <Event>
    <Absolute>10890</Absolute>
    <NoteOn Channel="9" Note="65" Velocity="96"/>
  </Event>
  <Event>
    <Absolute>10912</Absolute>
    <NoteOn Channel="9" Note="65" Velocity="0"/>
  </Event>
  <Event>
    <Absolute>10920</Absolute>
    <NoteOn Channel="9" Note="61" Velocity="127"/>
  </Event>
  <Event>
    <Absolute>10927</Absolute>
    <NoteOn Channel="9" Note="61" Velocity="111"/>
  </Event>
  <Event>
    <Absolute>10934</Absolute>
    <NoteOn Channel="9" Note="61" Velocity="0"/>
  </Event>
  <Event>
    <Absolute>10935</Absolute>
    <NoteOn Channel="9" Note="61" Velocity="0"/>
  </Event>
  <Event>
    <Absolute>10950</Absolute>
    <NoteOn Channel="9" Note="61" Velocity="96"/>
  </Event>
  <Event>
    <Absolute>10956</Absolute>
    <NoteOn Channel="9" Note="61" Velocity="99"/>
  </Event>
  <Event>
    <Absolute>10962</Absolute>
    <NoteOn Channel="9" Note="61" Velocity="0"/>
  </Event>
  <Event>
    <Absolute>10962</Absolute>
    <NoteOn Channel="9" Note="61" Velocity="0"/>
  </Event>
  <Event>
    <Absolute>10980</Absolute>
    <NoteOn Channel="9" Note="61" Velocity="96"/>
  </Event>
  <Event>
    <Absolute>10986</Absolute>
    <NoteOn Channel="9" Note="61" Velocity="111"/>
  </Event>
  <Event>
    <Absolute>10992</Absolute>
    <NoteOn Channel="9" Note="61" Velocity="0"/>
  </Event>
  <Event>
    <Absolute>10992</Absolute>
    <NoteOn Channel="9" Note="61" Velocity="0"/>
  </Event>
  <Event>
    <Absolute>11010</Absolute>
    <NoteOn Channel="9" Note="61" Velocity="96"/>
  </Event>
  <Event>
    <Absolute>11013</Absolute>
    <NoteOn Channel="9" Note="61" Velocity="83"/>
  </Event>
  <Event>
    <Absolute>11016</Absolute>
    <NoteOn Channel="9" Note="61" Velocity="0"/>
  </Event>
  <Event>
    <Absolute>11016</Absolute>
    <NoteOn Channel="9" Note="61" Velocity="0"/>
  </Event>
  <Event>
    <Absolute>11040</Absolute>
    <NoteOn Channel="9" Note="65" Velocity="127"/>
  </Event>
  <Event>
    <Absolute>11062</Absolute>
    <NoteOn Channel="9" Note="65" Velocity="0"/>
  </Event>
  <Event>
    <Absolute>11130</Absolute>
    <NoteOn Channel="9" Note="65" Velocity="96"/>
  </Event>
  <Event>
    <Absolute>11152</Absolute>
    <NoteOn Channel="9" Note="65" Velocity="0"/>
  </Event>
  <Event>
    <Absolute>11160</Absolute>
    <NoteOn Channel="9" Note="65" Velocity="127"/>
  </Event>
  <Event>
    <Absolute>11182</Absolute>
    <NoteOn Channel="9" Note="65" Velocity="0"/>
  </Event>
  <Event>
    <Absolute>11250</Absolute>
    <NoteOn Channel="9" Note="65" Velocity="96"/>
  </Event>
  <Event>
    <Absolute>11272</Absolute>
    <NoteOn Channel="9" Note="65" Velocity="0"/>
  </Event>
  <Event>
    <Absolute>11280</Absolute>
    <NoteOn Channel="9" Note="61" Velocity="127"/>
  </Event>
  <Event>
    <Absolute>11280</Absolute>
    <NoteOn Channel="9" Note="61" Velocity="110"/>
  </Event>
  <Event>
    <Absolute>11281</Absolute>
    <NoteOn Channel="9" Note="61" Velocity="0"/>
  </Event>
  <Event>
    <Absolute>11296</Absolute>
    <NoteOn Channel="9" Note="61" Velocity="0"/>
  </Event>
  <Event>
    <Absolute>11308</Absolute>
    <NoteOn Channel="9" Note="61" Velocity="95"/>
  </Event>
  <Event>
    <Absolute>11310</Absolute>
    <NoteOn Channel="9" Note="61" Velocity="0"/>
  </Event>
  <Event>
    <Absolute>11310</Absolute>
    <NoteOn Channel="9" Note="61" Velocity="96"/>
  </Event>
  <Event>
    <Absolute>11311</Absolute>
    <NoteOn Channel="9" Note="61" Velocity="0"/>
  </Event>
  <Event>
    <Absolute>11337</Absolute>
    <NoteOn Channel="9" Note="61" Velocity="112"/>
  </Event>
  <Event>
    <Absolute>11340</Absolute>
    <NoteOn Channel="9" Note="61" Velocity="96"/>
  </Event>
  <Event>
    <Absolute>11342</Absolute>
    <NoteOn Channel="9" Note="61" Velocity="0"/>
  </Event>
  <Event>
    <Absolute>11342</Absolute>
    <NoteOn Channel="9" Note="61" Velocity="0"/>
  </Event>
  <Event>
    <Absolute>11363</Absolute>
    <NoteOn Channel="9" Note="61" Velocity="83"/>
  </Event>
  <Event>
    <Absolute>11370</Absolute>
    <NoteOn Channel="9" Note="61" Velocity="96"/>
  </Event>
  <Event>
    <Absolute>11376</Absolute>
    <NoteOn Channel="9" Note="61" Velocity="0"/>
  </Event>
  <Event>
    <Absolute>11376</Absolute>
    <NoteOn Channel="9" Note="61" Velocity="0"/>
  </Event>
  <Event>
    <Absolute>11400</Absolute>
    <NoteOn Channel="9" Note="65" Velocity="127"/>
  </Event>
  <Event>
    <Absolute>11422</Absolute>
    <NoteOn Channel="9" Note="65" Velocity="0"/>
  </Event>
  <Event>
    <Absolute>11490</Absolute>
    <NoteOn Channel="9" Note="65" Velocity="96"/>
  </Event>
  <Event>
    <Absolute>11512</Absolute>
    <NoteOn Channel="9" Note="65" Velocity="0"/>
  </Event>
  <Event>
    <Absolute>11520</Absolute>
    <NoteOn Channel="9" Note="65" Velocity="127"/>
  </Event>
  <Event>
    <Absolute>11542</Absolute>
    <NoteOn Channel="9" Note="65" Velocity="0"/>
  </Event>
  <Event>
    <Absolute>11610</Absolute>
    <NoteOn Channel="9" Note="65" Velocity="96"/>
  </Event>
  <Event>
    <Absolute>11632</Absolute>
    <NoteOn Channel="9" Note="65" Velocity="0"/>
  </Event>
  <Event>
    <Absolute>11638</Absolute>
    <NoteOn Channel="9" Note="61" Velocity="106"/>
  </Event>
  <Event>
    <Absolute>11640</Absolute>
    <NoteOn Channel="9" Note="61" Velocity="0"/>
  </Event>
  <Event>
    <Absolute>11640</Absolute>
    <NoteOn Channel="9" Note="61" Velocity="127"/>
  </Event>
  <Event>
    <Absolute>11641</Absolute>
    <NoteOn Channel="9" Note="61" Velocity="0"/>
  </Event>
  <Event>
    <Absolute>11668</Absolute>
    <NoteOn Channel="9" Note="61" Velocity="84"/>
  </Event>
  <Event>
    <Absolute>11670</Absolute>
    <NoteOn Channel="9" Note="61" Velocity="0"/>
  </Event>
  <Event>
    <Absolute>11670</Absolute>
    <NoteOn Channel="9" Note="61" Velocity="96"/>
  </Event>
  <Event>
    <Absolute>11671</Absolute>
    <NoteOn Channel="9" Note="61" Velocity="0"/>
  </Event>
  <Event>
    <Absolute>11700</Absolute>
    <NoteOn Channel="9" Note="61" Velocity="96"/>
  </Event>
  <Event>
    <Absolute>11700</Absolute>
    <NoteOn Channel="9" Note="61" Velocity="101"/>
  </Event>
  <Event>
    <Absolute>11701</Absolute>
    <NoteOn Channel="9" Note="61" Velocity="0"/>
  </Event>
  <Event>
    <Absolute>11711</Absolute>
    <NoteOn Channel="9" Note="61" Velocity="0"/>
  </Event>
  <Event>
    <Absolute>11723</Absolute>
    <NoteOn Channel="9" Note="61" Velocity="99"/>
  </Event>
  <Event>
    <Absolute>11730</Absolute>
    <NoteOn Channel="9" Note="61" Velocity="96"/>
  </Event>
  <Event>
    <Absolute>11736</Absolute>
    <NoteOn Channel="9" Note="61" Velocity="0"/>
  </Event>
  <Event>
    <Absolute>11736</Absolute>
    <NoteOn Channel="9" Note="61" Velocity="0"/>
  </Event>
  <Event>
    <Absolute>11760</Absolute>
    <NoteOn Channel="9" Note="65" Velocity="127"/>
  </Event>
  <Event>
    <Absolute>11782</Absolute>
    <NoteOn Channel="9" Note="65" Velocity="0"/>
  </Event>
  <Event>
    <Absolute>11790</Absolute>
    <NoteOn Channel="9" Note="65" Velocity="96"/>
  </Event>
  <Event>
    <Absolute>11812</Absolute>
    <NoteOn Channel="9" Note="65" Velocity="0"/>
  </Event>
  <Event>
    <Absolute>11820</Absolute>
    <NoteOn Channel="9" Note="65" Velocity="96"/>
  </Event>
  <Event>
    <Absolute>11842</Absolute>
    <NoteOn Channel="9" Note="65" Velocity="0"/>
  </Event>
  <Event>
    <Absolute>11850</Absolute>
    <NoteOn Channel="9" Note="65" Velocity="96"/>
  </Event>
  <Event>
    <Absolute>11872</Absolute>
    <NoteOn Channel="9" Note="65" Velocity="0"/>
  </Event>
  <Event>
    <Absolute>11880</Absolute>
    <NoteOn Channel="9" Note="60" Velocity="127"/>
  </Event>
  <Event>
    <Absolute>11902</Absolute>
    <NoteOn Channel="9" Note="60" Velocity="0"/>
  </Event>
  <Event>
    <Absolute>11910</Absolute>
    <NoteOn Channel="9" Note="60" Velocity="96"/>
  </Event>
  <Event>
    <Absolute>11932</Absolute>
    <NoteOn Channel="9" Note="60" Velocity="0"/>
  </Event>
  <Event>
    <Absolute>11940</Absolute>
    <NoteOn Channel="9" Note="60" Velocity="96"/>
  </Event>
  <Event>
    <Absolute>11962</Absolute>
    <NoteOn Channel="9" Note="60" Velocity="0"/>
  </Event>
  <Event>
    <Absolute>11970</Absolute>
    <NoteOn Channel="9" Note="60" Velocity="96"/>
  </Event>
  <Event>
    <Absolute>11992</Absolute>
    <NoteOn Channel="9" Note="60" Velocity="0"/>
  </Event>
  <Event>
    <Absolute>12090</Absolute>
    <NoteOn Channel="9" Note="67" Velocity="101"/>
  </Event>
  <Event>
    <Absolute>12112</Absolute>
    <NoteOn Channel="9" Note="67" Velocity="0"/>
  </Event>
  <Event>
    <Absolute>12120</Absolute>
    <NoteOn Channel="9" Note="67" Velocity="127"/>
  </Event>
  <Event>
    <Absolute>12142</Absolute>
    <NoteOn Channel="9" Note="67" Velocity="0"/>
  </Event>
  <Event>
    <Absolute>12210</Absolute>
    <NoteOn Channel="9" Note="67" Velocity="101"/>
  </Event>
  <Event>
    <Absolute>12232</Absolute>
    <NoteOn Channel="9" Note="67" Velocity="0"/>
  </Event>
  <Event>
    <Absolute>12240</Absolute>
    <NoteOn Channel="9" Note="67" Velocity="127"/>
  </Event>
  <Event>
    <Absolute>12262</Absolute>
    <NoteOn Channel="9" Note="67" Velocity="0"/>
  </Event>
  <Event>
    <Absolute>12330</Absolute>
    <NoteOn Channel="9" Note="67" Velocity="101"/>
  </Event>
  <Event>
    <Absolute>12352</Absolute>
    <NoteOn Channel="9" Note="67" Velocity="0"/>
  </Event>
  <Event>
    <Absolute>12360</Absolute>
    <NoteOn Channel="9" Note="67" Velocity="127"/>
  </Event>
  <Event>
    <Absolute>12382</Absolute>
    <NoteOn Channel="9" Note="67" Velocity="0"/>
  </Event>
  <Event>
    <Absolute>12390</Absolute>
    <NoteOn Channel="9" Note="67" Velocity="101"/>
  </Event>
  <Event>
    <Absolute>12412</Absolute>
    <NoteOn Channel="9" Note="67" Velocity="0"/>
  </Event>
  <Event>
    <Absolute>12420</Absolute>
    <NoteOn Channel="9" Note="67" Velocity="101"/>
  </Event>
  <Event>
    <Absolute>12442</Absolute>
    <NoteOn Channel="9" Note="67" Velocity="0"/>
  </Event>
  <Event>
    <Absolute>12450</Absolute>
    <NoteOn Channel="9" Note="67" Velocity="101"/>
  </Event>
  <Event>
    <Absolute>12472</Absolute>
    <NoteOn Channel="9" Note="67" Velocity="0"/>
  </Event>
  <Event>
    <Absolute>12480</Absolute>
    <NoteOn Channel="9" Note="67" Velocity="127"/>
  </Event>
  <Event>
    <Absolute>12502</Absolute>
    <NoteOn Channel="9" Note="67" Velocity="0"/>
  </Event>
  <Event>
    <Absolute>12570</Absolute>
    <NoteOn Channel="9" Note="67" Velocity="101"/>
  </Event>
  <Event>
    <Absolute>12592</Absolute>
    <NoteOn Channel="9" Note="67" Velocity="0"/>
  </Event>
  <Event>
    <Absolute>12600</Absolute>
    <NoteOn Channel="9" Note="67" Velocity="127"/>
  </Event>
  <Event>
    <Absolute>12622</Absolute>
    <NoteOn Channel="9" Note="67" Velocity="0"/>
  </Event>
  <Event>
    <Absolute>12690</Absolute>
    <NoteOn Channel="9" Note="67" Velocity="101"/>
  </Event>
  <Event>
    <Absolute>12712</Absolute>
    <NoteOn Channel="9" Note="67" Velocity="0"/>
  </Event>
  <Event>
    <Absolute>12720</Absolute>
    <NoteOn Channel="9" Note="67" Velocity="127"/>
  </Event>
  <Event>
    <Absolute>12742</Absolute>
    <NoteOn Channel="9" Note="67" Velocity="0"/>
  </Event>
  <Event>
    <Absolute>12750</Absolute>
    <NoteOn Channel="9" Note="67" Velocity="101"/>
  </Event>
  <Event>
    <Absolute>12772</Absolute>
    <NoteOn Channel="9" Note="67" Velocity="0"/>
  </Event>
  <Event>
    <Absolute>12780</Absolute>
    <NoteOn Channel="9" Note="67" Velocity="101"/>
  </Event>
  <Event>
    <Absolute>12802</Absolute>
    <NoteOn Channel="9" Note="67" Velocity="0"/>
  </Event>
  <Event>
    <Absolute>12810</Absolute>
    <NoteOn Channel="9" Note="67" Velocity="101"/>
  </Event>
  <Event>
    <Absolute>12832</Absolute>
    <NoteOn Channel="9" Note="67" Velocity="0"/>
  </Event>
  <Event>
    <Absolute>12840</Absolute>
    <NoteOn Channel="9" Note="67" Velocity="127"/>
  </Event>
  <Event>
    <Absolute>12846</Absolute>
    <NoteOn Channel="9" Note="86" Velocity="60"/>
  </Event>
  <Event>
    <Absolute>12862</Absolute>
    <NoteOn Channel="9" Note="67" Velocity="0"/>
  </Event>
  <Event>
    <Absolute>12877</Absolute>
    <NoteOn Channel="9" Note="87" Velocity="61"/>
  </Event>
  <Event>
    <Absolute>12881</Absolute>
    <NoteOn Channel="9" Note="86" Velocity="0"/>
  </Event>
  <Event>
    <Absolute>12901</Absolute>
    <NoteOn Channel="9" Note="86" Velocity="61"/>
  </Event>
  <Event>
    <Absolute>12908</Absolute>
    <NoteOn Channel="9" Note="87" Velocity="0"/>
  </Event>
  <Event>
    <Absolute>12933</Absolute>
    <NoteOn Channel="9" Note="87" Velocity="62"/>
  </Event>
  <Event>
    <Absolute>12937</Absolute>
    <NoteOn Channel="9" Note="86" Velocity="0"/>
  </Event>
  <Event>
    <Absolute>12960</Absolute>
    <NoteOn Channel="9" Note="86" Velocity="63"/>
  </Event>
  <Event>
    <Absolute>12966</Absolute>
    <NoteOn Channel="9" Note="87" Velocity="0"/>
  </Event>
  <Event>
    <Absolute>12992</Absolute>
    <NoteOn Channel="9" Note="87" Velocity="65"/>
  </Event>
  <Event>
    <Absolute>12994</Absolute>
    <NoteOn Channel="9" Note="86" Velocity="0"/>
  </Event>
  <Event>
    <Absolute>13021</Absolute>
    <NoteOn Channel="9" Note="86" Velocity="66"/>
  </Event>
  <Event>
    <Absolute>13024</Absolute>
    <NoteOn Channel="9" Note="87" Velocity="0"/>
  </Event>
  <Event>
    <Absolute>13052</Absolute>
    <NoteOn Channel="9" Note="87" Velocity="67"/>
  </Event>
  <Event>
    <Absolute>13054</Absolute>
    <NoteOn Channel="9" Note="86" Velocity="0"/>
  </Event>
  <Event>
    <Absolute>13083</Absolute>
    <NoteOn Channel="9" Note="86" Velocity="68"/>
  </Event>
  <Event>
    <Absolute>13085</Absolute>
    <NoteOn Channel="9" Note="87" Velocity="0"/>
  </Event>
  <Event>
    <Absolute>13111</Absolute>
    <NoteOn Channel="9" Note="87" Velocity="69"/>
  </Event>
  <Event>
    <Absolute>13112</Absolute>
    <NoteOn Channel="9" Note="86" Velocity="0"/>
  </Event>
  <Event>
    <Absolute>13143</Absolute>
    <NoteOn Channel="9" Note="86" Velocity="70"/>
  </Event>
  <Event>
    <Absolute>13144</Absolute>
    <NoteOn Channel="9" Note="87" Velocity="0"/>
  </Event>
  <Event>
    <Absolute>13171</Absolute>
    <NoteOn Channel="9" Note="86" Velocity="0"/>
  </Event>
  <Event>
    <Absolute>13173</Absolute>
    <NoteOn Channel="9" Note="87" Velocity="71"/>
  </Event>
  <Event>
    <Absolute>13200</Absolute>
    <NoteOn Channel="9" Note="86" Velocity="72"/>
  </Event>
  <Event>
    <Absolute>13204</Absolute>
    <NoteOn Channel="9" Note="87" Velocity="0"/>
  </Event>
  <Event>
    <Absolute>13228</Absolute>
    <NoteOn Channel="9" Note="87" Velocity="73"/>
  </Event>
  <Event>
    <Absolute>13230</Absolute>
    <NoteOn Channel="9" Note="86" Velocity="0"/>
  </Event>
  <Event>
    <Absolute>13258</Absolute>
    <NoteOn Channel="9" Note="86" Velocity="74"/>
  </Event>
  <Event>
    <Absolute>13263</Absolute>
    <NoteOn Channel="9" Note="87" Velocity="0"/>
  </Event>
  <Event>
    <Absolute>13286</Absolute>
    <NoteOn Channel="9" Note="87" Velocity="75"/>
  </Event>
  <Event>
    <Absolute>13291</Absolute>
    <NoteOn Channel="9" Note="86" Velocity="0"/>
  </Event>
  <Event>
    <Absolute>13313</Absolute>
    <NoteOn Channel="9" Note="86" Velocity="76"/>
  </Event>
  <Event>
    <Absolute>13317</Absolute>
    <NoteOn Channel="9" Note="87" Velocity="0"/>
  </Event>
  <Event>
    <Absolute>13340</Absolute>
    <NoteOn Channel="9" Note="87" Velocity="77"/>
  </Event>
  <Event>
    <Absolute>13344</Absolute>
    <NoteOn Channel="9" Note="86" Velocity="0"/>
  </Event>
  <Event>
    <Absolute>13371</Absolute>
    <NoteOn Channel="9" Note="86" Velocity="78"/>
  </Event>
  <Event>
    <Absolute>13374</Absolute>
    <NoteOn Channel="9" Note="87" Velocity="0"/>
  </Event>
  <Event>
    <Absolute>13400</Absolute>
    <NoteOn Channel="9" Note="87" Velocity="79"/>
  </Event>
  <Event>
    <Absolute>13403</Absolute>
    <NoteOn Channel="9" Note="86" Velocity="0"/>
  </Event>
  <Event>
    <Absolute>13430</Absolute>
    <NoteOn Channel="9" Note="86" Velocity="80"/>
  </Event>
  <Event>
    <Absolute>13435</Absolute>
    <NoteOn Channel="9" Note="87" Velocity="0"/>
  </Event>
  <Event>
    <Absolute>13459</Absolute>
    <NoteOn Channel="9" Note="87" Velocity="81"/>
  </Event>
  <Event>
    <Absolute>13460</Absolute>
    <NoteOn Channel="9" Note="86" Velocity="0"/>
  </Event>
  <Event>
    <Absolute>13486</Absolute>
    <NoteOn Channel="9" Note="86" Velocity="82"/>
  </Event>
  <Event>
    <Absolute>13492</Absolute>
    <NoteOn Channel="9" Note="87" Velocity="0"/>
  </Event>
  <Event>
    <Absolute>13517</Absolute>
    <NoteOn Channel="9" Note="87" Velocity="83"/>
  </Event>
  <Event>
    <Absolute>13519</Absolute>
    <NoteOn Channel="9" Note="86" Velocity="0"/>
  </Event>
  <Event>
    <Absolute>13543</Absolute>
    <NoteOn Channel="9" Note="86" Velocity="84"/>
  </Event>
  <Event>
    <Absolute>13553</Absolute>
    <NoteOn Channel="9" Note="87" Velocity="0"/>
  </Event>
  <Event>
    <Absolute>13575</Absolute>
    <NoteOn Channel="9" Note="87" Velocity="85"/>
  </Event>
  <Event>
    <Absolute>13579</Absolute>
    <NoteOn Channel="9" Note="86" Velocity="0"/>
  </Event>
  <Event>
    <Absolute>13604</Absolute>
    <NoteOn Channel="9" Note="86" Velocity="86"/>
  </Event>
  <Event>
    <Absolute>13612</Absolute>
    <NoteOn Channel="9" Note="87" Velocity="0"/>
  </Event>
  <Event>
    <Absolute>13636</Absolute>
    <NoteOn Channel="9" Note="87" Velocity="87"/>
  </Event>
  <Event>
    <Absolute>13639</Absolute>
    <NoteOn Channel="9" Note="86" Velocity="0"/>
  </Event>
  <Event>
    <Absolute>13662</Absolute>
    <NoteOn Channel="9" Note="86" Velocity="88"/>
  </Event>
  <Event>
    <Absolute>13672</Absolute>
    <NoteOn Channel="9" Note="87" Velocity="0"/>
  </Event>
  <Event>
    <Absolute>13691</Absolute>
    <NoteOn Channel="9" Note="87" Velocity="89"/>
  </Event>
  <Event>
    <Absolute>13698</Absolute>
    <NoteOn Channel="9" Note="86" Velocity="0"/>
  </Event>
  <Event>
    <Absolute>13715</Absolute>
    <NoteOn Channel="9" Note="86" Velocity="90"/>
  </Event>
  <Event>
    <Absolute>13724</Absolute>
    <NoteOn Channel="9" Note="87" Velocity="0"/>
  </Event>
  <Event>
    <Absolute>13735</Absolute>
    <NoteOn Channel="9" Note="84" Velocity="95"/>
  </Event>
  <Event>
    <Absolute>13744</Absolute>
    <NoteOn Channel="9" Note="86" Velocity="0"/>
  </Event>
  <Event>
    <Absolute>13762</Absolute>
    <NoteOn Channel="9" Note="85" Velocity="98"/>
  </Event>
  <Event>
    <Absolute>13763</Absolute>
    <NoteOn Channel="9" Note="84" Velocity="0"/>
  </Event>
  <Event>
    <Absolute>13787</Absolute>
    <NoteOn Channel="9" Note="85" Velocity="0"/>
  </Event>
  <Event>
    <Absolute>13791</Absolute>
    <NoteOn Channel="9" Note="86" Velocity="102"/>
  </Event>
  <Event>
    <Absolute>13822</Absolute>
    <NoteOn Channel="9" Note="86" Velocity="0"/>
  </Event>
  <Event>
    <Absolute>13823</Absolute>
    <NoteOn Channel="9" Note="87" Velocity="106"/>
  </Event>
  <Event>
    <Absolute>13847</Absolute>
    <NoteOn Channel="9" Note="87" Velocity="0"/>
  </Event>
  <Event>
    <Absolute>13853</Absolute>
    <NoteOn Channel="9" Note="88" Velocity="110"/>
  </Event>
  <Event>
    <Absolute>13878</Absolute>
    <NoteOn Channel="9" Note="88" Velocity="0"/>
  </Event>
  <Event>
    <Absolute>13878</Absolute>
    <NoteOn Channel="9" Note="89" Velocity="113"/>
  </Event>
  <Event>
    <Absolute>13896</Absolute>
    <NoteOn Channel="9" Note="89" Velocity="0"/>
  </Event>
  <Event>
    <Absolute>13898</Absolute>
    <NoteOn Channel="9" Note="90" Velocity="116"/>
  </Event>
  <Event>
    <Absolute>13921</Absolute>
    <NoteOn Channel="9" Note="91" Velocity="119"/>
  </Event>
  <Event>
    <Absolute>13925</Absolute>
    <NoteOn Channel="9" Note="90" Velocity="0"/>
  </Event>
  <Event>
    <Absolute>14024</Absolute>
    <NoteOn Channel="9" Note="91" Velocity="0"/>
  </Event>
  <Event>
    <Absolute>14112</Absolute>
    <NoteOn Channel="9" Note="55" Velocity="127"/>
  </Event>
  <Event>
    <Absolute>14119</Absolute>
    <NoteOn Channel="9" Note="55" Velocity="0"/>
  </Event>
  <Event>
    <Absolute>14131</Absolute>
    <NoteOn Channel="9" Note="55" Velocity="127"/>
  </Event>
  <Event>
    <Absolute>14139</Absolute>
    <NoteOn Channel="9" Note="55" Velocity="0"/>
  </Event>
  <Event>
    <Absolute>14150</Absolute>
    <NoteOn Channel="9" Note="55" Velocity="127"/>
  </Event>
  <Event>
    <Absolute>14159</Absolute>
    <NoteOn Channel="9" Note="55" Velocity="0"/>
  </Event>
  <Event>
    <Absolute>14169</Absolute>
    <NoteOn Channel="9" Note="55" Velocity="127"/>
  </Event>
  <Event>
    <Absolute>14179</Absolute>
    <NoteOn Channel="9" Note="55" Velocity="0"/>
  </Event>
  <Event>
    <Absolute>14233</Absolute>
    <NoteOn Channel="9" Note="55" Velocity="127"/>
  </Event>
  <Event>
    <Absolute>14242</Absolute>
    <NoteOn Channel="9" Note="55" Velocity="0"/>
  </Event>
  <Event>
    <Absolute>14253</Absolute>
    <NoteOn Channel="9" Note="55" Velocity="127"/>
  </Event>
  <Event>
    <Absolute>14263</Absolute>
    <NoteOn Channel="9" Note="55" Velocity="0"/>
  </Event>
  <Event>
    <Absolute>14271</Absolute>
    <NoteOn Channel="9" Note="55" Velocity="127"/>
  </Event>
  <Event>
    <Absolute>14281</Absolute>
    <NoteOn Channel="9" Note="55" Velocity="0"/>
  </Event>
  <Event>
    <Absolute>14291</Absolute>
    <NoteOn Channel="9" Note="63" Velocity="127"/>
  </Event>
  <Event>
    <Absolute>14301</Absolute>
    <NoteOn Channel="9" Note="63" Velocity="0"/>
  </Event>
  <Event>
    <Absolute>14310</Absolute>
    <NoteOn Channel="9" Note="63" Velocity="127"/>
  </Event>
  <Event>
    <Absolute>14320</Absolute>
    <NoteOn Channel="9" Note="63" Velocity="0"/>
  </Event>
  <Event>
    <Absolute>14330</Absolute>
    <NoteOn Channel="9" Note="63" Velocity="127"/>
  </Event>
  <Event>
    <Absolute>14341</Absolute>
    <NoteOn Channel="9" Note="63" Velocity="0"/>
  </Event>
  <Event>
    <Absolute>14350</Absolute>
    <NoteOn Channel="9" Note="63" Velocity="127"/>
  </Event>
  <Event>
    <Absolute>14358</Absolute>
    <NoteOn Channel="9" Note="63" Velocity="0"/>
  </Event>
  <Event>
    <Absolute>14410</Absolute>
    <NoteOn Channel="9" Note="55" Velocity="127"/>
  </Event>
  <Event>
    <Absolute>14420</Absolute>
    <NoteOn Channel="9" Note="55" Velocity="0"/>
  </Event>
  <Event>
    <Absolute>14531</Absolute>
    <NoteOn Channel="9" Note="55" Velocity="127"/>
  </Event>
  <Event>
    <Absolute>14538</Absolute>
    <NoteOn Channel="9" Note="55" Velocity="0"/>
  </Event>
  <Event>
    <Absolute>14592</Absolute>
    <NoteOn Channel="9" Note="55" Velocity="127"/>
  </Event>
  <Event>
    <Absolute>14600</Absolute>
    <NoteOn Channel="9" Note="55" Velocity="0"/>
  </Event>
  <Event>
    <Absolute>14611</Absolute>
    <NoteOn Channel="9" Note="55" Velocity="127"/>
  </Event>
  <Event>
    <Absolute>14622</Absolute>
    <NoteOn Channel="9" Note="55" Velocity="0"/>
  </Event>
  <Event>
    <Absolute>14631</Absolute>
    <NoteOn Channel="9" Note="55" Velocity="127"/>
  </Event>
  <Event>
    <Absolute>14640</Absolute>
    <NoteOn Channel="9" Note="55" Velocity="0"/>
  </Event>
  <Event>
    <Absolute>14651</Absolute>
    <NoteOn Channel="9" Note="55" Velocity="127"/>
  </Event>
  <Event>
    <Absolute>14662</Absolute>
    <NoteOn Channel="9" Note="55" Velocity="0"/>
  </Event>
  <Event>
    <Absolute>14712</Absolute>
    <NoteOn Channel="9" Note="55" Velocity="127"/>
  </Event>
  <Event>
    <Absolute>14721</Absolute>
    <NoteOn Channel="9" Note="55" Velocity="0"/>
  </Event>
  <Event>
    <Absolute>14732</Absolute>
    <NoteOn Channel="9" Note="55" Velocity="127"/>
  </Event>
  <Event>
    <Absolute>14743</Absolute>
    <NoteOn Channel="9" Note="55" Velocity="0"/>
  </Event>
  <Event>
    <Absolute>14752</Absolute>
    <NoteOn Channel="9" Note="55" Velocity="127"/>
  </Event>
  <Event>
    <Absolute>14762</Absolute>
    <NoteOn Channel="9" Note="55" Velocity="0"/>
  </Event>
  <Event>
    <Absolute>14771</Absolute>
    <NoteOn Channel="9" Note="63" Velocity="127"/>
  </Event>
  <Event>
    <Absolute>14781</Absolute>
    <NoteOn Channel="9" Note="63" Velocity="0"/>
  </Event>
  <Event>
    <Absolute>14791</Absolute>
    <NoteOn Channel="9" Note="63" Velocity="127"/>
  </Event>
  <Event>
    <Absolute>14802</Absolute>
    <NoteOn Channel="9" Note="63" Velocity="0"/>
  </Event>
  <Event>
    <Absolute>14810</Absolute>
    <NoteOn Channel="9" Note="63" Velocity="127"/>
  </Event>
  <Event>
    <Absolute>14820</Absolute>
    <NoteOn Channel="9" Note="63" Velocity="0"/>
  </Event>
  <Event>
    <Absolute>14831</Absolute>
    <NoteOn Channel="9" Note="63" Velocity="127"/>
  </Event>
  <Event>
    <Absolute>14841</Absolute>
    <NoteOn Channel="9" Note="63" Velocity="0"/>
  </Event>
  <Event>
    <Absolute>14891</Absolute>
    <NoteOn Channel="9" Note="55" Velocity="127"/>
  </Event>
  <Event>
    <Absolute>14900</Absolute>
    <NoteOn Channel="9" Note="55" Velocity="0"/>
  </Event>
  <Event>
    <Absolute>15010</Absolute>
    <NoteOn Channel="9" Note="55" Velocity="127"/>
  </Event>
  <Event>
    <Absolute>15021</Absolute>
    <NoteOn Channel="9" Note="55" Velocity="0"/>
  </Event>
  <Event>
    <Absolute>15076</Absolute>
    <NoteOn Channel="9" Note="55" Velocity="127"/>
  </Event>
  <Event>
    <Absolute>15085</Absolute>
    <NoteOn Channel="9" Note="55" Velocity="0"/>
  </Event>
  <Event>
    <Absolute>15095</Absolute>
    <NoteOn Channel="9" Note="55" Velocity="127"/>
  </Event>
  <Event>
    <Absolute>15106</Absolute>
    <NoteOn Channel="9" Note="55" Velocity="0"/>
  </Event>
  <Event>
    <Absolute>15114</Absolute>
    <NoteOn Channel="9" Note="55" Velocity="127"/>
  </Event>
  <Event>
    <Absolute>15125</Absolute>
    <NoteOn Channel="9" Note="55" Velocity="0"/>
  </Event>
  <Event>
    <Absolute>15130</Absolute>
    <NoteOn Channel="9" Note="55" Velocity="127"/>
  </Event>
  <Event>
    <Absolute>15143</Absolute>
    <NoteOn Channel="9" Note="55" Velocity="0"/>
  </Event>
  <Event>
    <Absolute>15193</Absolute>
    <NoteOn Channel="9" Note="55" Velocity="127"/>
  </Event>
  <Event>
    <Absolute>15203</Absolute>
    <NoteOn Channel="9" Note="55" Velocity="0"/>
  </Event>
  <Event>
    <Absolute>15212</Absolute>
    <NoteOn Channel="9" Note="55" Velocity="127"/>
  </Event>
  <Event>
    <Absolute>15223</Absolute>
    <NoteOn Channel="9" Note="55" Velocity="0"/>
  </Event>
  <Event>
    <Absolute>15232</Absolute>
    <NoteOn Channel="9" Note="55" Velocity="127"/>
  </Event>
  <Event>
    <Absolute>15242</Absolute>
    <NoteOn Channel="9" Note="55" Velocity="0"/>
  </Event>
  <Event>
    <Absolute>15250</Absolute>
    <NoteOn Channel="9" Note="63" Velocity="127"/>
  </Event>
  <Event>
    <Absolute>15251</Absolute>
    <NoteOn Channel="9" Note="55" Velocity="127"/>
  </Event>
  <Event>
    <Absolute>15262</Absolute>
    <NoteOn Channel="9" Note="55" Velocity="0"/>
  </Event>
  <Event>
    <Absolute>15263</Absolute>
    <NoteOn Channel="9" Note="63" Velocity="0"/>
  </Event>
  <Event>
    <Absolute>15270</Absolute>
    <NoteOn Channel="9" Note="55" Velocity="127"/>
  </Event>
  <Event>
    <Absolute>15271</Absolute>
    <NoteOn Channel="9" Note="63" Velocity="127"/>
  </Event>
  <Event>
    <Absolute>15281</Absolute>
    <NoteOn Channel="9" Note="63" Velocity="0"/>
  </Event>
  <Event>
    <Absolute>15281</Absolute>
    <NoteOn Channel="9" Note="55" Velocity="0"/>
  </Event>
  <Event>
    <Absolute>15288</Absolute>
    <NoteOn Channel="9" Note="55" Velocity="127"/>
  </Event>
  <Event>
    <Absolute>15291</Absolute>
    <NoteOn Channel="9" Note="63" Velocity="127"/>
  </Event>
  <Event>
    <Absolute>15298</Absolute>
    <NoteOn Channel="9" Note="55" Velocity="0"/>
  </Event>
  <Event>
    <Absolute>15302</Absolute>
    <NoteOn Channel="9" Note="63" Velocity="0"/>
  </Event>
  <Event>
    <Absolute>15309</Absolute>
    <NoteOn Channel="9" Note="55" Velocity="127"/>
  </Event>
  <Event>
    <Absolute>15310</Absolute>
    <NoteOn Channel="9" Note="63" Velocity="127"/>
  </Event>
  <Event>
    <Absolute>15319</Absolute>
    <NoteOn Channel="9" Note="55" Velocity="0"/>
  </Event>
  <Event>
    <Absolute>15323</Absolute>
    <NoteOn Channel="9" Note="63" Velocity="0"/>
  </Event>
  <Event>
    <Absolute>15375</Absolute>
    <NoteOn Channel="9" Note="55" Velocity="127"/>
  </Event>
  <Event>
    <Absolute>15383</Absolute>
    <NoteOn Channel="9" Note="55" Velocity="0"/>
  </Event>
  <Event>
    <Absolute>15493</Absolute>
    <NoteOn Channel="9" Note="55" Velocity="127"/>
  </Event>
  <Event>
    <Absolute>15501</Absolute>
    <NoteOn Channel="9" Note="55" Velocity="0"/>
  </Event>
  <Event>
    <Absolute>15555</Absolute>
    <NoteOn Channel="9" Note="55" Velocity="127"/>
  </Event>
  <Event>
    <Absolute>15564</Absolute>
    <NoteOn Channel="9" Note="55" Velocity="0"/>
  </Event>
  <Event>
    <Absolute>15572</Absolute>
    <NoteOn Channel="9" Note="55" Velocity="127"/>
  </Event>
  <Event>
    <Absolute>15582</Absolute>
    <NoteOn Channel="9" Note="55" Velocity="0"/>
  </Event>
  <Event>
    <Absolute>15592</Absolute>
    <NoteOn Channel="9" Note="55" Velocity="127"/>
  </Event>
  <Event>
    <Absolute>15603</Absolute>
    <NoteOn Channel="9" Note="55" Velocity="0"/>
  </Event>
  <Event>
    <Absolute>15607</Absolute>
    <NoteOn Channel="9" Note="55" Velocity="127"/>
  </Event>
  <Event>
    <Absolute>15618</Absolute>
    <NoteOn Channel="9" Note="55" Velocity="0"/>
  </Event>
  <Event>
    <Absolute>15674</Absolute>
    <NoteOn Channel="9" Note="55" Velocity="127"/>
  </Event>
  <Event>
    <Absolute>15683</Absolute>
    <NoteOn Channel="9" Note="55" Velocity="0"/>
  </Event>
  <Event>
    <Absolute>15693</Absolute>
    <NoteOn Channel="9" Note="55" Velocity="127"/>
  </Event>
  <Event>
    <Absolute>15704</Absolute>
    <NoteOn Channel="9" Note="55" Velocity="0"/>
  </Event>
  <Event>
    <Absolute>15711</Absolute>
    <NoteOn Channel="9" Note="55" Velocity="127"/>
  </Event>
  <Event>
    <Absolute>15723</Absolute>
    <NoteOn Channel="9" Note="55" Velocity="0"/>
  </Event>
  <Event>
    <Absolute>15728</Absolute>
    <NoteOn Channel="9" Note="55" Velocity="127"/>
  </Event>
  <Event>
    <Absolute>15729</Absolute>
    <NoteOn Channel="9" Note="58" Velocity="127"/>
  </Event>
  <Event>
    <Absolute>15739</Absolute>
    <NoteOn Channel="9" Note="55" Velocity="0"/>
  </Event>
  <Event>
    <Absolute>15740</Absolute>
    <NoteOn Channel="9" Note="58" Velocity="0"/>
  </Event>
  <Event>
    <Absolute>15750</Absolute>
    <NoteOn Channel="9" Note="58" Velocity="127"/>
  </Event>
  <Event>
    <Absolute>15750</Absolute>
    <NoteOn Channel="9" Note="55" Velocity="127"/>
  </Event>
  <Event>
    <Absolute>15761</Absolute>
    <NoteOn Channel="9" Note="55" Velocity="0"/>
  </Event>
  <Event>
    <Absolute>15761</Absolute>
    <NoteOn Channel="9" Note="58" Velocity="0"/>
  </Event>
  <Event>
    <Absolute>15765</Absolute>
    <NoteOn Channel="9" Note="55" Velocity="127"/>
  </Event>
  <Event>
    <Absolute>15768</Absolute>
    <NoteOn Channel="9" Note="58" Velocity="127"/>
  </Event>
  <Event>
    <Absolute>15776</Absolute>
    <NoteOn Channel="9" Note="55" Velocity="0"/>
  </Event>
  <Event>
    <Absolute>15780</Absolute>
    <NoteOn Channel="9" Note="58" Velocity="0"/>
  </Event>
  <Event>
    <Absolute>15787</Absolute>
    <NoteOn Channel="9" Note="58" Velocity="127"/>
  </Event>
  <Event>
    <Absolute>15788</Absolute>
    <NoteOn Channel="9" Note="55" Velocity="127"/>
  </Event>
  <Event>
    <Absolute>15798</Absolute>
    <NoteOn Channel="9" Note="55" Velocity="0"/>
  </Event>
  <Event>
    <Absolute>15800</Absolute>
    <NoteOn Channel="9" Note="58" Velocity="0"/>
  </Event>
  <Event>
    <Absolute>15851</Absolute>
    <NoteOn Channel="9" Note="55" Velocity="127"/>
  </Event>
  <Event>
    <Absolute>15861</Absolute>
    <NoteOn Channel="9" Note="55" Velocity="0"/>
  </Event>
  <Event>
    <Absolute>15971</Absolute>
    <NoteOn Channel="9" Note="55" Velocity="127"/>
  </Event>
  <Event>
    <Absolute>15981</Absolute>
    <NoteOn Channel="9" Note="55" Velocity="0"/>
  </Event>
  <Event>
    <Absolute>16037</Absolute>
    <NoteOn Channel="9" Note="55" Velocity="127"/>
  </Event>
  <Event>
    <Absolute>16046</Absolute>
    <NoteOn Channel="9" Note="55" Velocity="0"/>
  </Event>
  <Event>
    <Absolute>16056</Absolute>
    <NoteOn Channel="9" Note="55" Velocity="127"/>
  </Event>
  <Event>
    <Absolute>16067</Absolute>
    <NoteOn Channel="9" Note="55" Velocity="0"/>
  </Event>
  <Event>
    <Absolute>16077</Absolute>
    <NoteOn Channel="9" Note="55" Velocity="127"/>
  </Event>
  <Event>
    <Absolute>16086</Absolute>
    <NoteOn Channel="9" Note="55" Velocity="0"/>
  </Event>
  <Event>
    <Absolute>16093</Absolute>
    <NoteOn Channel="9" Note="55" Velocity="127"/>
  </Event>
  <Event>
    <Absolute>16104</Absolute>
    <NoteOn Channel="9" Note="55" Velocity="0"/>
  </Event>
  <Event>
    <Absolute>16151</Absolute>
    <NoteOn Channel="9" Note="55" Velocity="127"/>
  </Event>
  <Event>
    <Absolute>16160</Absolute>
    <NoteOn Channel="9" Note="55" Velocity="0"/>
  </Event>
  <Event>
    <Absolute>16171</Absolute>
    <NoteOn Channel="9" Note="55" Velocity="127"/>
  </Event>
  <Event>
    <Absolute>16183</Absolute>
    <NoteOn Channel="9" Note="55" Velocity="0"/>
  </Event>
  <Event>
    <Absolute>16191</Absolute>
    <NoteOn Channel="9" Note="55" Velocity="127"/>
  </Event>
  <Event>
    <Absolute>16202</Absolute>
    <NoteOn Channel="9" Note="55" Velocity="0"/>
  </Event>
  <Event>
    <Absolute>16210</Absolute>
    <NoteOn Channel="9" Note="66" Velocity="127"/>
  </Event>
  <Event>
    <Absolute>16210</Absolute>
    <NoteOn Channel="9" Note="58" Velocity="127"/>
  </Event>
  <Event>
    <Absolute>16221</Absolute>
    <NoteOn Channel="9" Note="66" Velocity="0"/>
  </Event>
  <Event>
    <Absolute>16222</Absolute>
    <NoteOn Channel="9" Note="58" Velocity="0"/>
  </Event>
  <Event>
    <Absolute>16230</Absolute>
    <NoteOn Channel="9" Note="66" Velocity="127"/>
  </Event>
  <Event>
    <Absolute>16230</Absolute>
    <NoteOn Channel="9" Note="58" Velocity="127"/>
  </Event>
  <Event>
    <Absolute>16242</Absolute>
    <NoteOn Channel="9" Note="58" Velocity="0"/>
  </Event>
  <Event>
    <Absolute>16242</Absolute>
    <NoteOn Channel="9" Note="66" Velocity="0"/>
  </Event>
  <Event>
    <Absolute>16250</Absolute>
    <NoteOn Channel="9" Note="66" Velocity="127"/>
  </Event>
  <Event>
    <Absolute>16251</Absolute>
    <NoteOn Channel="9" Note="58" Velocity="127"/>
  </Event>
  <Event>
    <Absolute>16260</Absolute>
    <NoteOn Channel="9" Note="66" Velocity="0"/>
  </Event>
  <Event>
    <Absolute>16263</Absolute>
    <NoteOn Channel="9" Note="58" Velocity="0"/>
  </Event>
  <Event>
    <Absolute>16270</Absolute>
    <NoteOn Channel="9" Note="66" Velocity="127"/>
  </Event>
  <Event>
    <Absolute>16270</Absolute>
    <NoteOn Channel="9" Note="58" Velocity="127"/>
  </Event>
  <Event>
    <Absolute>16280</Absolute>
    <NoteOn Channel="9" Note="58" Velocity="0"/>
  </Event>
  <Event>
    <Absolute>16280</Absolute>
    <NoteOn Channel="9" Note="66" Velocity="0"/>
  </Event>
  <Event>
    <Absolute>16333</Absolute>
    <NoteOn Channel="9" Note="63" Velocity="127"/>
  </Event>
  <Event>
    <Absolute>16333</Absolute>
    <NoteOn Channel="9" Note="58" Velocity="127"/>
  </Event>
  <Event>
    <Absolute>16343</Absolute>
    <NoteOn Channel="9" Note="63" Velocity="0"/>
  </Event>
  <Event>
    <Absolute>16353</Absolute>
    <NoteOn Channel="9" Note="58" Velocity="0"/>
  </Event>
  <Event>
    <Absolute>16450</Absolute>
    <NoteOn Channel="9" Note="63" Velocity="127"/>
  </Event>
  <Event>
    <Absolute>16452</Absolute>
    <NoteOn Channel="9" Note="63" Velocity="127"/>
  </Event>
  <Event>
    <Absolute>16454</Absolute>
    <NoteOn Channel="9" Note="63" Velocity="0"/>
  </Event>
  <Event>
    <Absolute>16455</Absolute>
    <NoteOn Channel="9" Note="63" Velocity="0"/>
  </Event>
  <Event>
    <Absolute>16519</Absolute>
    <NoteOn Channel="9" Note="63" Velocity="127"/>
  </Event>
  <Event>
    <Absolute>16529</Absolute>
    <NoteOn Channel="9" Note="63" Velocity="0"/>
  </Event>
  <Event>
    <Absolute>16536</Absolute>
    <NoteOn Channel="9" Note="63" Velocity="127"/>
  </Event>
  <Event>
    <Absolute>16548</Absolute>
    <NoteOn Channel="9" Note="63" Velocity="0"/>
  </Event>
  <Event>
    <Absolute>16555</Absolute>
    <NoteOn Channel="9" Note="63" Velocity="127"/>
  </Event>
  <Event>
    <Absolute>16561</Absolute>
    <NoteOn Channel="9" Note="63" Velocity="0"/>
  </Event>
  <Event>
    <Absolute>16572</Absolute>
    <NoteOn Channel="9" Note="55" Velocity="127"/>
  </Event>
  <Event>
    <Absolute>16583</Absolute>
    <NoteOn Channel="9" Note="55" Velocity="0"/>
  </Event>
  <Event>
    <Absolute>16630</Absolute>
    <NoteOn Channel="9" Note="58" Velocity="127"/>
  </Event>
  <Event>
    <Absolute>16631</Absolute>
    <NoteOn Channel="9" Note="62" Velocity="127"/>
  </Event>
  <Event>
    <Absolute>16640</Absolute>
    <NoteOn Channel="9" Note="62" Velocity="0"/>
  </Event>
  <Event>
    <Absolute>16642</Absolute>
    <NoteOn Channel="9" Note="58" Velocity="0"/>
  </Event>
  <Event>
    <Absolute>16650</Absolute>
    <NoteOn Channel="9" Note="62" Velocity="127"/>
  </Event>
  <Event>
    <Absolute>16650</Absolute>
    <NoteOn Channel="9" Note="58" Velocity="127"/>
  </Event>
  <Event>
    <Absolute>16663</Absolute>
    <NoteOn Channel="9" Note="58" Velocity="0"/>
  </Event>
  <Event>
    <Absolute>16663</Absolute>
    <NoteOn Channel="9" Note="62" Velocity="0"/>
  </Event>
  <Event>
    <Absolute>16670</Absolute>
    <NoteOn Channel="9" Note="62" Velocity="127"/>
  </Event>
  <Event>
    <Absolute>16670</Absolute>
    <NoteOn Channel="9" Note="58" Velocity="127"/>
  </Event>
  <Event>
    <Absolute>16683</Absolute>
    <NoteOn Channel="9" Note="58" Velocity="0"/>
  </Event>
  <Event>
    <Absolute>16683</Absolute>
    <NoteOn Channel="9" Note="62" Velocity="0"/>
  </Event>
  <Event>
    <Absolute>16690</Absolute>
    <NoteOn Channel="9" Note="63" Velocity="127"/>
  </Event>
  <Event>
    <Absolute>16690</Absolute>
    <NoteOn Channel="9" Note="59" Velocity="127"/>
  </Event>
  <Event>
    <Absolute>16703</Absolute>
    <NoteOn Channel="9" Note="59" Velocity="0"/>
  </Event>
  <Event>
    <Absolute>16703</Absolute>
    <NoteOn Channel="9" Note="63" Velocity="0"/>
  </Event>
  <Event>
    <Absolute>16710</Absolute>
    <NoteOn Channel="9" Note="63" Velocity="127"/>
  </Event>
  <Event>
    <Absolute>16710</Absolute>
    <NoteOn Channel="9" Note="59" Velocity="127"/>
  </Event>
  <Event>
    <Absolute>16722</Absolute>
    <NoteOn Channel="9" Note="59" Velocity="0"/>
  </Event>
  <Event>
    <Absolute>16722</Absolute>
    <NoteOn Channel="9" Note="63" Velocity="0"/>
  </Event>
  <Event>
    <Absolute>16730</Absolute>
    <NoteOn Channel="9" Note="59" Velocity="127"/>
  </Event>
  <Event>
    <Absolute>16730</Absolute>
    <NoteOn Channel="9" Note="63" Velocity="127"/>
  </Event>
  <Event>
    <Absolute>16743</Absolute>
    <NoteOn Channel="9" Note="63" Velocity="0"/>
  </Event>
  <Event>
    <Absolute>16743</Absolute>
    <NoteOn Channel="9" Note="59" Velocity="0"/>
  </Event>
  <Event>
    <Absolute>16750</Absolute>
    <NoteOn Channel="9" Note="61" Velocity="127"/>
  </Event>
  <Event>
    <Absolute>16750</Absolute>
    <NoteOn Channel="9" Note="65" Velocity="127"/>
  </Event>
  <Event>
    <Absolute>16762</Absolute>
    <NoteOn Channel="9" Note="65" Velocity="0"/>
  </Event>
  <Event>
    <Absolute>16762</Absolute>
    <NoteOn Channel="9" Note="61" Velocity="0"/>
  </Event>
  <Event>
    <Absolute>16770</Absolute>
    <NoteOn Channel="9" Note="65" Velocity="127"/>
  </Event>
  <Event>
    <Absolute>16770</Absolute>
    <NoteOn Channel="9" Note="61" Velocity="127"/>
  </Event>
  <Event>
    <Absolute>16783</Absolute>
    <NoteOn Channel="9" Note="61" Velocity="0"/>
  </Event>
  <Event>
    <Absolute>16783</Absolute>
    <NoteOn Channel="9" Note="65" Velocity="0"/>
  </Event>
  <Event>
    <Absolute>16790</Absolute>
    <NoteOn Channel="9" Note="65" Velocity="127"/>
  </Event>
  <Event>
    <Absolute>16790</Absolute>
    <NoteOn Channel="9" Note="61" Velocity="127"/>
  </Event>
  <Event>
    <Absolute>16801</Absolute>
    <NoteOn Channel="9" Note="61" Velocity="0"/>
  </Event>
  <Event>
    <Absolute>16801</Absolute>
    <NoteOn Channel="9" Note="65" Velocity="0"/>
  </Event>
  <Event>
    <Absolute>16811</Absolute>
    <NoteOn Channel="9" Note="67" Velocity="127"/>
  </Event>
  <Event>
    <Absolute>16820</Absolute>
    <NoteOn Channel="9" Note="67" Velocity="0"/>
  </Event>
  <Event>
    <Absolute>16930</Absolute>
    <NoteOn Channel="9" Note="67" Velocity="127"/>
  </Event>
  <Event>
    <Absolute>16941</Absolute>
    <NoteOn Channel="9" Note="67" Velocity="0"/>
  </Event>
  <Event>
    <Absolute>16996</Absolute>
    <NoteOn Channel="9" Note="67" Velocity="127"/>
  </Event>
  <Event>
    <Absolute>17005</Absolute>
    <NoteOn Channel="9" Note="67" Velocity="0"/>
  </Event>
  <Event>
    <Absolute>17015</Absolute>
    <NoteOn Channel="9" Note="67" Velocity="127"/>
  </Event>
  <Event>
    <Absolute>17026</Absolute>
    <NoteOn Channel="9" Note="67" Velocity="0"/>
  </Event>
  <Event>
    <Absolute>17034</Absolute>
    <NoteOn Channel="9" Note="67" Velocity="127"/>
  </Event>
  <Event>
    <Absolute>17045</Absolute>
    <NoteOn Channel="9" Note="67" Velocity="0"/>
  </Event>
  <Event>
    <Absolute>17050</Absolute>
    <NoteOn Channel="9" Note="67" Velocity="127"/>
  </Event>
  <Event>
    <Absolute>17063</Absolute>
    <NoteOn Channel="9" Note="67" Velocity="0"/>
  </Event>
  <Event>
    <Absolute>17113</Absolute>
    <NoteOn Channel="9" Note="67" Velocity="127"/>
  </Event>
  <Event>
    <Absolute>17123</Absolute>
    <NoteOn Channel="9" Note="67" Velocity="0"/>
  </Event>
  <Event>
    <Absolute>17132</Absolute>
    <NoteOn Channel="9" Note="67" Velocity="127"/>
  </Event>
  <Event>
    <Absolute>17143</Absolute>
    <NoteOn Channel="9" Note="67" Velocity="0"/>
  </Event>
  <Event>
    <Absolute>17152</Absolute>
    <NoteOn Channel="9" Note="67" Velocity="127"/>
  </Event>
  <Event>
    <Absolute>17162</Absolute>
    <NoteOn Channel="9" Note="67" Velocity="0"/>
  </Event>
  <Event>
    <Absolute>17170</Absolute>
    <NoteOn Channel="9" Note="63" Velocity="127"/>
  </Event>
  <Event>
    <Absolute>17171</Absolute>
    <NoteOn Channel="9" Note="67" Velocity="127"/>
  </Event>
  <Event>
    <Absolute>17182</Absolute>
    <NoteOn Channel="9" Note="67" Velocity="0"/>
  </Event>
  <Event>
    <Absolute>17183</Absolute>
    <NoteOn Channel="9" Note="63" Velocity="0"/>
  </Event>
  <Event>
    <Absolute>17190</Absolute>
    <NoteOn Channel="9" Note="67" Velocity="127"/>
  </Event>
  <Event>
    <Absolute>17191</Absolute>
    <NoteOn Channel="9" Note="63" Velocity="127"/>
  </Event>
  <Event>
    <Absolute>17201</Absolute>
    <NoteOn Channel="9" Note="63" Velocity="0"/>
  </Event>
  <Event>
    <Absolute>17201</Absolute>
    <NoteOn Channel="9" Note="67" Velocity="0"/>
  </Event>
  <Event>
    <Absolute>17208</Absolute>
    <NoteOn Channel="9" Note="67" Velocity="127"/>
  </Event>
  <Event>
    <Absolute>17211</Absolute>
    <NoteOn Channel="9" Note="63" Velocity="127"/>
  </Event>
  <Event>
    <Absolute>17218</Absolute>
    <NoteOn Channel="9" Note="67" Velocity="0"/>
  </Event>
  <Event>
    <Absolute>17222</Absolute>
    <NoteOn Channel="9" Note="63" Velocity="0"/>
  </Event>
  <Event>
    <Absolute>17229</Absolute>
    <NoteOn Channel="9" Note="67" Velocity="127"/>
  </Event>
  <Event>
    <Absolute>17230</Absolute>
    <NoteOn Channel="9" Note="63" Velocity="127"/>
  </Event>
  <Event>
    <Absolute>17239</Absolute>
    <NoteOn Channel="9" Note="67" Velocity="0"/>
  </Event>
  <Event>
    <Absolute>17243</Absolute>
    <NoteOn Channel="9" Note="63" Velocity="0"/>
  </Event>
  <Event>
    <Absolute>17292</Absolute>
    <NoteOn Channel="9" Note="64" Velocity="127"/>
  </Event>
  <Event>
    <Absolute>17292</Absolute>
    <NoteOn Channel="9" Note="68" Velocity="127"/>
  </Event>
  <Event>
    <Absolute>17300</Absolute>
    <NoteOn Channel="9" Note="68" Velocity="0"/>
  </Event>
  <Event>
    <Absolute>17300</Absolute>
    <NoteOn Channel="9" Note="64" Velocity="0"/>
  </Event>
  <Event>
    <Absolute>17413</Absolute>
    <NoteOn Channel="9" Note="68" Velocity="127"/>
  </Event>
  <Event>
    <Absolute>17413</Absolute>
    <NoteOn Channel="9" Note="64" Velocity="127"/>
  </Event>
  <Event>
    <Absolute>17421</Absolute>
    <NoteOn Channel="9" Note="64" Velocity="0"/>
  </Event>
  <Event>
    <Absolute>17421</Absolute>
    <NoteOn Channel="9" Note="68" Velocity="0"/>
  </Event>
  <Event>
    <Absolute>17476</Absolute>
    <NoteOn Channel="9" Note="68" Velocity="127"/>
  </Event>
  <Event>
    <Absolute>17476</Absolute>
    <NoteOn Channel="9" Note="64" Velocity="127"/>
  </Event>
  <Event>
    <Absolute>17485</Absolute>
    <NoteOn Channel="9" Note="64" Velocity="0"/>
  </Event>
  <Event>
    <Absolute>17485</Absolute>
    <NoteOn Channel="9" Note="68" Velocity="0"/>
  </Event>
  <Event>
    <Absolute>17493</Absolute>
    <NoteOn Channel="9" Note="68" Velocity="127"/>
  </Event>
  <Event>
    <Absolute>17493</Absolute>
    <NoteOn Channel="9" Note="64" Velocity="127"/>
  </Event>
  <Event>
    <Absolute>17503</Absolute>
    <NoteOn Channel="9" Note="64" Velocity="0"/>
  </Event>
  <Event>
    <Absolute>17503</Absolute>
    <NoteOn Channel="9" Note="68" Velocity="0"/>
  </Event>
  <Event>
    <Absolute>17513</Absolute>
    <NoteOn Channel="9" Note="68" Velocity="127"/>
  </Event>
  <Event>
    <Absolute>17513</Absolute>
    <NoteOn Channel="9" Note="64" Velocity="127"/>
  </Event>
  <Event>
    <Absolute>17524</Absolute>
    <NoteOn Channel="9" Note="64" Velocity="0"/>
  </Event>
  <Event>
    <Absolute>17524</Absolute>
    <NoteOn Channel="9" Note="68" Velocity="0"/>
  </Event>
  <Event>
    <Absolute>17528</Absolute>
    <NoteOn Channel="9" Note="68" Velocity="127"/>
  </Event>
  <Event>
    <Absolute>17528</Absolute>
    <NoteOn Channel="9" Note="64" Velocity="127"/>
  </Event>
  <Event>
    <Absolute>17539</Absolute>
    <NoteOn Channel="9" Note="64" Velocity="0"/>
  </Event>
  <Event>
    <Absolute>17539</Absolute>
    <NoteOn Channel="9" Note="68" Velocity="0"/>
  </Event>
  <Event>
    <Absolute>17595</Absolute>
    <NoteOn Channel="9" Note="68" Velocity="127"/>
  </Event>
  <Event>
    <Absolute>17595</Absolute>
    <NoteOn Channel="9" Note="64" Velocity="127"/>
  </Event>
  <Event>
    <Absolute>17604</Absolute>
    <NoteOn Channel="9" Note="64" Velocity="0"/>
  </Event>
  <Event>
    <Absolute>17604</Absolute>
    <NoteOn Channel="9" Note="68" Velocity="0"/>
  </Event>
  <Event>
    <Absolute>17615</Absolute>
    <NoteOn Channel="9" Note="68" Velocity="127"/>
  </Event>
  <Event>
    <Absolute>17615</Absolute>
    <NoteOn Channel="9" Note="64" Velocity="127"/>
  </Event>
  <Event>
    <Absolute>17626</Absolute>
    <NoteOn Channel="9" Note="64" Velocity="0"/>
  </Event>
  <Event>
    <Absolute>17626</Absolute>
    <NoteOn Channel="9" Note="68" Velocity="0"/>
  </Event>
  <Event>
    <Absolute>17632</Absolute>
    <NoteOn Channel="9" Note="68" Velocity="127"/>
  </Event>
  <Event>
    <Absolute>17632</Absolute>
    <NoteOn Channel="9" Note="64" Velocity="127"/>
  </Event>
  <Event>
    <Absolute>17644</Absolute>
    <NoteOn Channel="9" Note="64" Velocity="0"/>
  </Event>
  <Event>
    <Absolute>17644</Absolute>
    <NoteOn Channel="9" Note="68" Velocity="0"/>
  </Event>
  <Event>
    <Absolute>17650</Absolute>
    <NoteOn Channel="9" Note="64" Velocity="127"/>
  </Event>
  <Event>
    <Absolute>17650</Absolute>
    <NoteOn Channel="9" Note="68" Velocity="127"/>
  </Event>
  <Event>
    <Absolute>17661</Absolute>
    <NoteOn Channel="9" Note="68" Velocity="0"/>
  </Event>
  <Event>
    <Absolute>17661</Absolute>
    <NoteOn Channel="9" Note="64" Velocity="0"/>
  </Event>
  <Event>
    <Absolute>17671</Absolute>
    <NoteOn Channel="9" Note="68" Velocity="127"/>
  </Event>
  <Event>
    <Absolute>17671</Absolute>
    <NoteOn Channel="9" Note="64" Velocity="127"/>
  </Event>
  <Event>
    <Absolute>17682</Absolute>
    <NoteOn Channel="9" Note="64" Velocity="0"/>
  </Event>
  <Event>
    <Absolute>17682</Absolute>
    <NoteOn Channel="9" Note="68" Velocity="0"/>
  </Event>
  <Event>
    <Absolute>17686</Absolute>
    <NoteOn Channel="9" Note="68" Velocity="127"/>
  </Event>
  <Event>
    <Absolute>17686</Absolute>
    <NoteOn Channel="9" Note="64" Velocity="127"/>
  </Event>
  <Event>
    <Absolute>17697</Absolute>
    <NoteOn Channel="9" Note="64" Velocity="0"/>
  </Event>
  <Event>
    <Absolute>17697</Absolute>
    <NoteOn Channel="9" Note="68" Velocity="0"/>
  </Event>
  <Event>
    <Absolute>17709</Absolute>
    <NoteOn Channel="9" Note="68" Velocity="127"/>
  </Event>
  <Event>
    <Absolute>17709</Absolute>
    <NoteOn Channel="9" Note="64" Velocity="127"/>
  </Event>
  <Event>
    <Absolute>17719</Absolute>
    <NoteOn Channel="9" Note="64" Velocity="0"/>
  </Event>
  <Event>
    <Absolute>17719</Absolute>
    <NoteOn Channel="9" Note="68" Velocity="0"/>
  </Event>
  <Event>
    <Absolute>17773</Absolute>
    <NoteOn Channel="9" Note="66" Velocity="127"/>
  </Event>
  <Event>
    <Absolute>17773</Absolute>
    <NoteOn Channel="9" Note="63" Velocity="127"/>
  </Event>
  <Event>
    <Absolute>17784</Absolute>
    <NoteOn Channel="9" Note="63" Velocity="0"/>
  </Event>
  <Event>
    <Absolute>17784</Absolute>
    <NoteOn Channel="9" Note="66" Velocity="0"/>
  </Event>
  <Event>
    <Absolute>17887</Absolute>
    <NoteOn Channel="9" Note="66" Velocity="127"/>
  </Event>
  <Event>
    <Absolute>17887</Absolute>
    <NoteOn Channel="9" Note="63" Velocity="127"/>
  </Event>
  <Event>
    <Absolute>17898</Absolute>
    <NoteOn Channel="9" Note="63" Velocity="0"/>
  </Event>
  <Event>
    <Absolute>17898</Absolute>
    <NoteOn Channel="9" Note="66" Velocity="0"/>
  </Event>
  <Event>
    <Absolute>17950</Absolute>
    <NoteOn Channel="9" Note="66" Velocity="127"/>
  </Event>
  <Event>
    <Absolute>17950</Absolute>
    <NoteOn Channel="9" Note="63" Velocity="127"/>
  </Event>
  <Event>
    <Absolute>17961</Absolute>
    <NoteOn Channel="9" Note="63" Velocity="0"/>
  </Event>
  <Event>
    <Absolute>17961</Absolute>
    <NoteOn Channel="9" Note="66" Velocity="0"/>
  </Event>
  <Event>
    <Absolute>17970</Absolute>
    <NoteOn Channel="9" Note="66" Velocity="127"/>
  </Event>
  <Event>
    <Absolute>17970</Absolute>
    <NoteOn Channel="9" Note="63" Velocity="127"/>
  </Event>
  <Event>
    <Absolute>17981</Absolute>
    <NoteOn Channel="9" Note="63" Velocity="0"/>
  </Event>
  <Event>
    <Absolute>17981</Absolute>
    <NoteOn Channel="9" Note="66" Velocity="0"/>
  </Event>
  <Event>
    <Absolute>17990</Absolute>
    <NoteOn Channel="9" Note="66" Velocity="127"/>
  </Event>
  <Event>
    <Absolute>17990</Absolute>
    <NoteOn Channel="9" Note="63" Velocity="127"/>
  </Event>
  <Event>
    <Absolute>18001</Absolute>
    <NoteOn Channel="9" Note="63" Velocity="0"/>
  </Event>
  <Event>
    <Absolute>18001</Absolute>
    <NoteOn Channel="9" Note="66" Velocity="0"/>
  </Event>
  <Event>
    <Absolute>18010</Absolute>
    <NoteOn Channel="9" Note="66" Velocity="127"/>
  </Event>
  <Event>
    <Absolute>18010</Absolute>
    <NoteOn Channel="9" Note="63" Velocity="127"/>
  </Event>
  <Event>
    <Absolute>18021</Absolute>
    <NoteOn Channel="9" Note="63" Velocity="0"/>
  </Event>
  <Event>
    <Absolute>18021</Absolute>
    <NoteOn Channel="9" Note="66" Velocity="0"/>
  </Event>
  <Event>
    <Absolute>18130</Absolute>
    <NoteOn Channel="9" Note="66" Velocity="127"/>
  </Event>
  <Event>
    <Absolute>18130</Absolute>
    <NoteOn Channel="9" Note="63" Velocity="127"/>
  </Event>
  <Event>
    <Absolute>18141</Absolute>
    <NoteOn Channel="9" Note="63" Velocity="0"/>
  </Event>
  <Event>
    <Absolute>18141</Absolute>
    <NoteOn Channel="9" Note="66" Velocity="0"/>
  </Event>
  <Event>
    <Absolute>18150</Absolute>
    <NoteOn Channel="9" Note="66" Velocity="127"/>
  </Event>
  <Event>
    <Absolute>18150</Absolute>
    <NoteOn Channel="9" Note="63" Velocity="127"/>
  </Event>
  <Event>
    <Absolute>18163</Absolute>
    <NoteOn Channel="9" Note="63" Velocity="0"/>
  </Event>
  <Event>
    <Absolute>18163</Absolute>
    <NoteOn Channel="9" Note="66" Velocity="0"/>
  </Event>
  <Event>
    <Absolute>18168</Absolute>
    <NoteOn Channel="9" Note="66" Velocity="127"/>
  </Event>
  <Event>
    <Absolute>18168</Absolute>
    <NoteOn Channel="9" Note="63" Velocity="127"/>
  </Event>
  <Event>
    <Absolute>18179</Absolute>
    <NoteOn Channel="9" Note="63" Velocity="0"/>
  </Event>
  <Event>
    <Absolute>18179</Absolute>
    <NoteOn Channel="9" Note="66" Velocity="0"/>
  </Event>
  <Event>
    <Absolute>18190</Absolute>
    <NoteOn Channel="9" Note="66" Velocity="127"/>
  </Event>
  <Event>
    <Absolute>18190</Absolute>
    <NoteOn Channel="9" Note="63" Velocity="127"/>
  </Event>
  <Event>
    <Absolute>18201</Absolute>
    <NoteOn Channel="9" Note="63" Velocity="0"/>
  </Event>
  <Event>
    <Absolute>18201</Absolute>
    <NoteOn Channel="9" Note="66" Velocity="0"/>
  </Event>
  <Event>
    <Absolute>18251</Absolute>
    <NoteOn Channel="9" Note="67" Velocity="127"/>
  </Event>
  <Event>
    <Absolute>18262</Absolute>
    <NoteOn Channel="9" Note="67" Velocity="0"/>
  </Event>
  <Event>
    <Absolute>18370</Absolute>
    <NoteOn Channel="9" Note="67" Velocity="127"/>
  </Event>
  <Event>
    <Absolute>18370</Absolute>
    <NoteOn Channel="9" Note="63" Velocity="127"/>
  </Event>
  <Event>
    <Absolute>18381</Absolute>
    <NoteOn Channel="9" Note="63" Velocity="0"/>
  </Event>
  <Event>
    <Absolute>18381</Absolute>
    <NoteOn Channel="9" Note="67" Velocity="0"/>
  </Event>
  <Event>
    <Absolute>18390</Absolute>
    <NoteOn Channel="9" Note="67" Velocity="127"/>
  </Event>
  <Event>
    <Absolute>18390</Absolute>
    <NoteOn Channel="9" Note="63" Velocity="127"/>
  </Event>
  <Event>
    <Absolute>18403</Absolute>
    <NoteOn Channel="9" Note="63" Velocity="0"/>
  </Event>
  <Event>
    <Absolute>18403</Absolute>
    <NoteOn Channel="9" Note="67" Velocity="0"/>
  </Event>
  <Event>
    <Absolute>18408</Absolute>
    <NoteOn Channel="9" Note="67" Velocity="127"/>
  </Event>
  <Event>
    <Absolute>18408</Absolute>
    <NoteOn Channel="9" Note="63" Velocity="127"/>
  </Event>
  <Event>
    <Absolute>18419</Absolute>
    <NoteOn Channel="9" Note="63" Velocity="0"/>
  </Event>
  <Event>
    <Absolute>18419</Absolute>
    <NoteOn Channel="9" Note="67" Velocity="0"/>
  </Event>
  <Event>
    <Absolute>18430</Absolute>
    <NoteOn Channel="9" Note="67" Velocity="127"/>
  </Event>
  <Event>
    <Absolute>18430</Absolute>
    <NoteOn Channel="9" Note="63" Velocity="127"/>
  </Event>
  <Event>
    <Absolute>18441</Absolute>
    <NoteOn Channel="9" Note="63" Velocity="0"/>
  </Event>
  <Event>
    <Absolute>18441</Absolute>
    <NoteOn Channel="9" Note="67" Velocity="0"/>
  </Event>
  <Event>
    <Absolute>18493</Absolute>
    <NoteOn Channel="9" Note="67" Velocity="127"/>
  </Event>
  <Event>
    <Absolute>18503</Absolute>
    <NoteOn Channel="9" Note="67" Velocity="0"/>
  </Event>
  <Event>
    <Absolute>18551</Absolute>
    <NoteOn Channel="9" Note="67" Velocity="127"/>
  </Event>
  <Event>
    <Absolute>18562</Absolute>
    <NoteOn Channel="9" Note="67" Velocity="0"/>
  </Event>
  <Event>
    <Absolute>18571</Absolute>
    <NoteOn Channel="9" Note="67" Velocity="127"/>
  </Event>
  <Event>
    <Absolute>18582</Absolute>
    <NoteOn Channel="9" Note="67" Velocity="0"/>
  </Event>
  <Event>
    <Absolute>18591</Absolute>
    <NoteOn Channel="9" Note="67" Velocity="127"/>
  </Event>
  <Event>
    <Absolute>18601</Absolute>
    <NoteOn Channel="9" Note="67" Velocity="0"/>
  </Event>
  <Event>
    <Absolute>18611</Absolute>
    <NoteOn Channel="9" Note="67" Velocity="127"/>
  </Event>
  <Event>
    <Absolute>18621</Absolute>
    <NoteOn Channel="9" Note="67" Velocity="0"/>
  </Event>
  <Event>
    <Absolute>18630</Absolute>
    <NoteOn Channel="9" Note="67" Velocity="127"/>
  </Event>
  <Event>
    <Absolute>18643</Absolute>
    <NoteOn Channel="9" Note="67" Velocity="0"/>
  </Event>
  <Event>
    <Absolute>18650</Absolute>
    <NoteOn Channel="9" Note="67" Velocity="127"/>
  </Event>
  <Event>
    <Absolute>18661</Absolute>
    <NoteOn Channel="9" Note="67" Velocity="0"/>
  </Event>
  <Event>
    <Absolute>18671</Absolute>
    <NoteOn Channel="9" Note="67" Velocity="127"/>
  </Event>
  <Event>
    <Absolute>18681</Absolute>
    <NoteOn Channel="9" Note="67" Velocity="0"/>
  </Event>
  <Event>
    <Absolute>18690</Absolute>
    <NoteOn Channel="9" Note="67" Velocity="127"/>
  </Event>
  <Event>
    <Absolute>18703</Absolute>
    <NoteOn Channel="9" Note="67" Velocity="0"/>
  </Event>
  <Event>
    <Absolute>18710</Absolute>
    <NoteOn Channel="9" Note="67" Velocity="127"/>
  </Event>
  <Event>
    <Absolute>18721</Absolute>
    <NoteOn Channel="9" Note="67" Velocity="0"/>
  </Event>
  <Event>
    <Absolute>18731</Absolute>
    <NoteOn Channel="9" Note="67" Velocity="127"/>
  </Event>
  <Event>
    <Absolute>18740</Absolute>
    <NoteOn Channel="9" Note="67" Velocity="0"/>
  </Event>
  <Event>
    <Absolute>18850</Absolute>
    <NoteOn Channel="9" Note="67" Velocity="127"/>
  </Event>
  <Event>
    <Absolute>18861</Absolute>
    <NoteOn Channel="9" Note="67" Velocity="0"/>
  </Event>
  <Event>
    <Absolute>18916</Absolute>
    <NoteOn Channel="9" Note="67" Velocity="127"/>
  </Event>
  <Event>
    <Absolute>18925</Absolute>
    <NoteOn Channel="9" Note="67" Velocity="0"/>
  </Event>
  <Event>
    <Absolute>18935</Absolute>
    <NoteOn Channel="9" Note="67" Velocity="127"/>
  </Event>
  <Event>
    <Absolute>18946</Absolute>
    <NoteOn Channel="9" Note="67" Velocity="0"/>
  </Event>
  <Event>
    <Absolute>18954</Absolute>
    <NoteOn Channel="9" Note="67" Velocity="127"/>
  </Event>
  <Event>
    <Absolute>18965</Absolute>
    <NoteOn Channel="9" Note="67" Velocity="0"/>
  </Event>
  <Event>
    <Absolute>18970</Absolute>
    <NoteOn Channel="9" Note="67" Velocity="127"/>
  </Event>
  <Event>
    <Absolute>18983</Absolute>
    <NoteOn Channel="9" Note="67" Velocity="0"/>
  </Event>
  <Event>
    <Absolute>19033</Absolute>
    <NoteOn Channel="9" Note="67" Velocity="127"/>
  </Event>
  <Event>
    <Absolute>19043</Absolute>
    <NoteOn Channel="9" Note="67" Velocity="0"/>
  </Event>
  <Event>
    <Absolute>19052</Absolute>
    <NoteOn Channel="9" Note="67" Velocity="127"/>
  </Event>
  <Event>
    <Absolute>19063</Absolute>
    <NoteOn Channel="9" Note="67" Velocity="0"/>
  </Event>
  <Event>
    <Absolute>19072</Absolute>
    <NoteOn Channel="9" Note="67" Velocity="127"/>
  </Event>
  <Event>
    <Absolute>19082</Absolute>
    <NoteOn Channel="9" Note="67" Velocity="0"/>
  </Event>
  <Event>
    <Absolute>19090</Absolute>
    <NoteOn Channel="9" Note="63" Velocity="127"/>
  </Event>
  <Event>
    <Absolute>19091</Absolute>
    <NoteOn Channel="9" Note="67" Velocity="127"/>
  </Event>
  <Event>
    <Absolute>19102</Absolute>
    <NoteOn Channel="9" Note="67" Velocity="0"/>
  </Event>
  <Event>
    <Absolute>19103</Absolute>
    <NoteOn Channel="9" Note="63" Velocity="0"/>
  </Event>
  <Event>
    <Absolute>19110</Absolute>
    <NoteOn Channel="9" Note="67" Velocity="127"/>
  </Event>
  <Event>
    <Absolute>19111</Absolute>
    <NoteOn Channel="9" Note="63" Velocity="127"/>
  </Event>
  <Event>
    <Absolute>19121</Absolute>
    <NoteOn Channel="9" Note="63" Velocity="0"/>
  </Event>
  <Event>
    <Absolute>19121</Absolute>
    <NoteOn Channel="9" Note="67" Velocity="0"/>
  </Event>
  <Event>
    <Absolute>19128</Absolute>
    <NoteOn Channel="9" Note="67" Velocity="127"/>
  </Event>
  <Event>
    <Absolute>19131</Absolute>
    <NoteOn Channel="9" Note="63" Velocity="127"/>
  </Event>
  <Event>
    <Absolute>19138</Absolute>
    <NoteOn Channel="9" Note="67" Velocity="0"/>
  </Event>
  <Event>
    <Absolute>19142</Absolute>
    <NoteOn Channel="9" Note="63" Velocity="0"/>
  </Event>
  <Event>
    <Absolute>19149</Absolute>
    <NoteOn Channel="9" Note="67" Velocity="127"/>
  </Event>
  <Event>
    <Absolute>19150</Absolute>
    <NoteOn Channel="9" Note="63" Velocity="127"/>
  </Event>
  <Event>
    <Absolute>19159</Absolute>
    <NoteOn Channel="9" Note="67" Velocity="0"/>
  </Event>
  <Event>
    <Absolute>19163</Absolute>
    <NoteOn Channel="9" Note="63" Velocity="0"/>
  </Event>
  <Event>
    <Absolute>19212</Absolute>
    <NoteOn Channel="9" Note="64" Velocity="127"/>
  </Event>
  <Event>
    <Absolute>19212</Absolute>
    <NoteOn Channel="9" Note="68" Velocity="127"/>
  </Event>
  <Event>
    <Absolute>19220</Absolute>
    <NoteOn Channel="9" Note="68" Velocity="0"/>
  </Event>
  <Event>
    <Absolute>19220</Absolute>
    <NoteOn Channel="9" Note="64" Velocity="0"/>
  </Event>
  <Event>
    <Absolute>19333</Absolute>
    <NoteOn Channel="9" Note="68" Velocity="127"/>
  </Event>
  <Event>
    <Absolute>19333</Absolute>
    <NoteOn Channel="9" Note="64" Velocity="127"/>
  </Event>
  <Event>
    <Absolute>19341</Absolute>
    <NoteOn Channel="9" Note="64" Velocity="0"/>
  </Event>
  <Event>
    <Absolute>19341</Absolute>
    <NoteOn Channel="9" Note="68" Velocity="0"/>
  </Event>
  <Event>
    <Absolute>19393</Absolute>
    <NoteOn Channel="9" Note="64" Velocity="127"/>
  </Event>
  <Event>
    <Absolute>19396</Absolute>
    <NoteOn Channel="9" Note="68" Velocity="127"/>
  </Event>
  <Event>
    <Absolute>19401</Absolute>
    <NoteOn Channel="9" Note="64" Velocity="0"/>
  </Event>
  <Event>
    <Absolute>19405</Absolute>
    <NoteOn Channel="9" Note="68" Velocity="0"/>
  </Event>
  <Event>
    <Absolute>19412</Absolute>
    <NoteOn Channel="9" Note="64" Velocity="127"/>
  </Event>
  <Event>
    <Absolute>19413</Absolute>
    <NoteOn Channel="9" Note="68" Velocity="127"/>
  </Event>
  <Event>
    <Absolute>19422</Absolute>
    <NoteOn Channel="9" Note="64" Velocity="0"/>
  </Event>
  <Event>
    <Absolute>19423</Absolute>
    <NoteOn Channel="9" Note="68" Velocity="0"/>
  </Event>
  <Event>
    <Absolute>19431</Absolute>
    <NoteOn Channel="9" Note="64" Velocity="127"/>
  </Event>
  <Event>
    <Absolute>19433</Absolute>
    <NoteOn Channel="9" Note="68" Velocity="127"/>
  </Event>
  <Event>
    <Absolute>19442</Absolute>
    <NoteOn Channel="9" Note="64" Velocity="0"/>
  </Event>
  <Event>
    <Absolute>19444</Absolute>
    <NoteOn Channel="9" Note="68" Velocity="0"/>
  </Event>
  <Event>
    <Absolute>19448</Absolute>
    <NoteOn Channel="9" Note="68" Velocity="127"/>
  </Event>
  <Event>
    <Absolute>19450</Absolute>
    <NoteOn Channel="9" Note="64" Velocity="127"/>
  </Event>
  <Event>
    <Absolute>19459</Absolute>
    <NoteOn Channel="9" Note="68" Velocity="0"/>
  </Event>
  <Event>
    <Absolute>19461</Absolute>
    <NoteOn Channel="9" Note="64" Velocity="0"/>
  </Event>
  <Event>
    <Absolute>19513</Absolute>
    <NoteOn Channel="9" Note="64" Velocity="127"/>
  </Event>
  <Event>
    <Absolute>19515</Absolute>
    <NoteOn Channel="9" Note="68" Velocity="127"/>
  </Event>
  <Event>
    <Absolute>19522</Absolute>
    <NoteOn Channel="9" Note="64" Velocity="0"/>
  </Event>
  <Event>
    <Absolute>19524</Absolute>
    <NoteOn Channel="9" Note="68" Velocity="0"/>
  </Event>
  <Event>
    <Absolute>19533</Absolute>
    <NoteOn Channel="9" Note="64" Velocity="127"/>
  </Event>
  <Event>
    <Absolute>19535</Absolute>
    <NoteOn Channel="9" Note="68" Velocity="127"/>
  </Event>
  <Event>
    <Absolute>19543</Absolute>
    <NoteOn Channel="9" Note="64" Velocity="0"/>
  </Event>
  <Event>
    <Absolute>19546</Absolute>
    <NoteOn Channel="9" Note="68" Velocity="0"/>
  </Event>
  <Event>
    <Absolute>19551</Absolute>
    <NoteOn Channel="9" Note="64" Velocity="127"/>
  </Event>
  <Event>
    <Absolute>19552</Absolute>
    <NoteOn Channel="9" Note="68" Velocity="127"/>
  </Event>
  <Event>
    <Absolute>19562</Absolute>
    <NoteOn Channel="9" Note="64" Velocity="0"/>
  </Event>
  <Event>
    <Absolute>19564</Absolute>
    <NoteOn Channel="9" Note="68" Velocity="0"/>
  </Event>
  <Event>
    <Absolute>19570</Absolute>
    <NoteOn Channel="9" Note="64" Velocity="127"/>
  </Event>
  <Event>
    <Absolute>19570</Absolute>
    <NoteOn Channel="9" Note="68" Velocity="127"/>
  </Event>
  <Event>
    <Absolute>19581</Absolute>
    <NoteOn Channel="9" Note="68" Velocity="0"/>
  </Event>
  <Event>
    <Absolute>19581</Absolute>
    <NoteOn Channel="9" Note="64" Velocity="0"/>
  </Event>
  <Event>
    <Absolute>19591</Absolute>
    <NoteOn Channel="9" Note="68" Velocity="127"/>
  </Event>
  <Event>
    <Absolute>19591</Absolute>
    <NoteOn Channel="9" Note="64" Velocity="127"/>
  </Event>
  <Event>
    <Absolute>19602</Absolute>
    <NoteOn Channel="9" Note="64" Velocity="0"/>
  </Event>
  <Event>
    <Absolute>19602</Absolute>
    <NoteOn Channel="9" Note="68" Velocity="0"/>
  </Event>
  <Event>
    <Absolute>19606</Absolute>
    <NoteOn Channel="9" Note="68" Velocity="127"/>
  </Event>
  <Event>
    <Absolute>19608</Absolute>
    <NoteOn Channel="9" Note="64" Velocity="127"/>
  </Event>
  <Event>
    <Absolute>19617</Absolute>
    <NoteOn Channel="9" Note="68" Velocity="0"/>
  </Event>
  <Event>
    <Absolute>19619</Absolute>
    <NoteOn Channel="9" Note="64" Velocity="0"/>
  </Event>
  <Event>
    <Absolute>19629</Absolute>
    <NoteOn Channel="9" Note="68" Velocity="127"/>
  </Event>
  <Event>
    <Absolute>19630</Absolute>
    <NoteOn Channel="9" Note="64" Velocity="127"/>
  </Event>
  <Event>
    <Absolute>19639</Absolute>
    <NoteOn Channel="9" Note="68" Velocity="0"/>
  </Event>
  <Event>
    <Absolute>19640</Absolute>
    <NoteOn Channel="9" Note="64" Velocity="0"/>
  </Event>
  <Event>
    <Absolute>19693</Absolute>
    <NoteOn Channel="9" Note="66" Velocity="127"/>
  </Event>
  <Event>
    <Absolute>19693</Absolute>
    <NoteOn Channel="9" Note="63" Velocity="127"/>
  </Event>
  <Event>
    <Absolute>19704</Absolute>
    <NoteOn Channel="9" Note="63" Velocity="0"/>
  </Event>
  <Event>
    <Absolute>19704</Absolute>
    <NoteOn Channel="9" Note="66" Velocity="0"/>
  </Event>
  <Event>
    <Absolute>19807</Absolute>
    <NoteOn Channel="9" Note="66" Velocity="127"/>
  </Event>
  <Event>
    <Absolute>19807</Absolute>
    <NoteOn Channel="9" Note="63" Velocity="127"/>
  </Event>
  <Event>
    <Absolute>19818</Absolute>
    <NoteOn Channel="9" Note="63" Velocity="0"/>
  </Event>
  <Event>
    <Absolute>19818</Absolute>
    <NoteOn Channel="9" Note="66" Velocity="0"/>
  </Event>
  <Event>
    <Absolute>19870</Absolute>
    <NoteOn Channel="9" Note="66" Velocity="127"/>
  </Event>
  <Event>
    <Absolute>19870</Absolute>
    <NoteOn Channel="9" Note="63" Velocity="127"/>
  </Event>
  <Event>
    <Absolute>19881</Absolute>
    <NoteOn Channel="9" Note="63" Velocity="0"/>
  </Event>
  <Event>
    <Absolute>19881</Absolute>
    <NoteOn Channel="9" Note="66" Velocity="0"/>
  </Event>
  <Event>
    <Absolute>19890</Absolute>
    <NoteOn Channel="9" Note="66" Velocity="127"/>
  </Event>
  <Event>
    <Absolute>19890</Absolute>
    <NoteOn Channel="9" Note="63" Velocity="127"/>
  </Event>
  <Event>
    <Absolute>19901</Absolute>
    <NoteOn Channel="9" Note="63" Velocity="0"/>
  </Event>
  <Event>
    <Absolute>19901</Absolute>
    <NoteOn Channel="9" Note="66" Velocity="0"/>
  </Event>
  <Event>
    <Absolute>19910</Absolute>
    <NoteOn Channel="9" Note="66" Velocity="127"/>
  </Event>
  <Event>
    <Absolute>19910</Absolute>
    <NoteOn Channel="9" Note="63" Velocity="127"/>
  </Event>
  <Event>
    <Absolute>19921</Absolute>
    <NoteOn Channel="9" Note="63" Velocity="0"/>
  </Event>
  <Event>
    <Absolute>19921</Absolute>
    <NoteOn Channel="9" Note="66" Velocity="0"/>
  </Event>
  <Event>
    <Absolute>19930</Absolute>
    <NoteOn Channel="9" Note="66" Velocity="127"/>
  </Event>
  <Event>
    <Absolute>19930</Absolute>
    <NoteOn Channel="9" Note="63" Velocity="127"/>
  </Event>
  <Event>
    <Absolute>19941</Absolute>
    <NoteOn Channel="9" Note="63" Velocity="0"/>
  </Event>
  <Event>
    <Absolute>19941</Absolute>
    <NoteOn Channel="9" Note="66" Velocity="0"/>
  </Event>
  <Event>
    <Absolute>20050</Absolute>
    <NoteOn Channel="9" Note="66" Velocity="127"/>
  </Event>
  <Event>
    <Absolute>20050</Absolute>
    <NoteOn Channel="9" Note="63" Velocity="127"/>
  </Event>
  <Event>
    <Absolute>20061</Absolute>
    <NoteOn Channel="9" Note="63" Velocity="0"/>
  </Event>
  <Event>
    <Absolute>20061</Absolute>
    <NoteOn Channel="9" Note="66" Velocity="0"/>
  </Event>
  <Event>
    <Absolute>20070</Absolute>
    <NoteOn Channel="9" Note="66" Velocity="127"/>
  </Event>
  <Event>
    <Absolute>20070</Absolute>
    <NoteOn Channel="9" Note="63" Velocity="127"/>
  </Event>
  <Event>
    <Absolute>20083</Absolute>
    <NoteOn Channel="9" Note="63" Velocity="0"/>
  </Event>
  <Event>
    <Absolute>20083</Absolute>
    <NoteOn Channel="9" Note="66" Velocity="0"/>
  </Event>
  <Event>
    <Absolute>20088</Absolute>
    <NoteOn Channel="9" Note="66" Velocity="127"/>
  </Event>
  <Event>
    <Absolute>20088</Absolute>
    <NoteOn Channel="9" Note="63" Velocity="127"/>
  </Event>
  <Event>
    <Absolute>20099</Absolute>
    <NoteOn Channel="9" Note="63" Velocity="0"/>
  </Event>
  <Event>
    <Absolute>20099</Absolute>
    <NoteOn Channel="9" Note="66" Velocity="0"/>
  </Event>
  <Event>
    <Absolute>20110</Absolute>
    <NoteOn Channel="9" Note="66" Velocity="127"/>
  </Event>
  <Event>
    <Absolute>20110</Absolute>
    <NoteOn Channel="9" Note="63" Velocity="127"/>
  </Event>
  <Event>
    <Absolute>20121</Absolute>
    <NoteOn Channel="9" Note="63" Velocity="0"/>
  </Event>
  <Event>
    <Absolute>20121</Absolute>
    <NoteOn Channel="9" Note="66" Velocity="0"/>
  </Event>
  <Event>
    <Absolute>20171</Absolute>
    <NoteOn Channel="9" Note="67" Velocity="127"/>
  </Event>
  <Event>
    <Absolute>20182</Absolute>
    <NoteOn Channel="9" Note="67" Velocity="0"/>
  </Event>
  <Event>
    <Absolute>20290</Absolute>
    <NoteOn Channel="9" Note="66" Velocity="127"/>
  </Event>
  <Event>
    <Absolute>20290</Absolute>
    <NoteOn Channel="9" Note="63" Velocity="127"/>
  </Event>
  <Event>
    <Absolute>20301</Absolute>
    <NoteOn Channel="9" Note="63" Velocity="0"/>
  </Event>
  <Event>
    <Absolute>20301</Absolute>
    <NoteOn Channel="9" Note="66" Velocity="0"/>
  </Event>
  <Event>
    <Absolute>20310</Absolute>
    <NoteOn Channel="9" Note="66" Velocity="127"/>
  </Event>
  <Event>
    <Absolute>20310</Absolute>
    <NoteOn Channel="9" Note="63" Velocity="127"/>
  </Event>
  <Event>
    <Absolute>20323</Absolute>
    <NoteOn Channel="9" Note="63" Velocity="0"/>
  </Event>
  <Event>
    <Absolute>20323</Absolute>
    <NoteOn Channel="9" Note="66" Velocity="0"/>
  </Event>
  <Event>
    <Absolute>20328</Absolute>
    <NoteOn Channel="9" Note="66" Velocity="127"/>
  </Event>
  <Event>
    <Absolute>20328</Absolute>
    <NoteOn Channel="9" Note="63" Velocity="127"/>
  </Event>
  <Event>
    <Absolute>20339</Absolute>
    <NoteOn Channel="9" Note="63" Velocity="0"/>
  </Event>
  <Event>
    <Absolute>20339</Absolute>
    <NoteOn Channel="9" Note="66" Velocity="0"/>
  </Event>
  <Event>
    <Absolute>20350</Absolute>
    <NoteOn Channel="9" Note="66" Velocity="127"/>
  </Event>
  <Event>
    <Absolute>20350</Absolute>
    <NoteOn Channel="9" Note="63" Velocity="127"/>
  </Event>
  <Event>
    <Absolute>20361</Absolute>
    <NoteOn Channel="9" Note="63" Velocity="0"/>
  </Event>
  <Event>
    <Absolute>20361</Absolute>
    <NoteOn Channel="9" Note="66" Velocity="0"/>
  </Event>
  <Event>
    <Absolute>20413</Absolute>
    <NoteOn Channel="9" Note="67" Velocity="127"/>
  </Event>
  <Event>
    <Absolute>20423</Absolute>
    <NoteOn Channel="9" Note="67" Velocity="0"/>
  </Event>
  <Event>
    <Absolute>20471</Absolute>
    <NoteOn Channel="9" Note="67" Velocity="127"/>
  </Event>
  <Event>
    <Absolute>20482</Absolute>
    <NoteOn Channel="9" Note="67" Velocity="0"/>
  </Event>
  <Event>
    <Absolute>20491</Absolute>
    <NoteOn Channel="9" Note="67" Velocity="127"/>
  </Event>
  <Event>
    <Absolute>20502</Absolute>
    <NoteOn Channel="9" Note="67" Velocity="0"/>
  </Event>
  <Event>
    <Absolute>20511</Absolute>
    <NoteOn Channel="9" Note="67" Velocity="127"/>
  </Event>
  <Event>
    <Absolute>20521</Absolute>
    <NoteOn Channel="9" Note="67" Velocity="0"/>
  </Event>
  <Event>
    <Absolute>20531</Absolute>
    <NoteOn Channel="9" Note="67" Velocity="127"/>
  </Event>
  <Event>
    <Absolute>20541</Absolute>
    <NoteOn Channel="9" Note="67" Velocity="0"/>
  </Event>
  <Event>
    <Absolute>20550</Absolute>
    <NoteOn Channel="9" Note="67" Velocity="127"/>
  </Event>
  <Event>
    <Absolute>20563</Absolute>
    <NoteOn Channel="9" Note="67" Velocity="0"/>
  </Event>
  <Event>
    <Absolute>20570</Absolute>
    <NoteOn Channel="9" Note="67" Velocity="127"/>
  </Event>
  <Event>
    <Absolute>20581</Absolute>
    <NoteOn Channel="9" Note="67" Velocity="0"/>
  </Event>
  <Event>
    <Absolute>20591</Absolute>
    <NoteOn Channel="9" Note="67" Velocity="127"/>
  </Event>
  <Event>
    <Absolute>20604</Absolute>
    <NoteOn Channel="9" Note="67" Velocity="0"/>
  </Event>
  <Event>
    <Absolute>20710</Absolute>
    <NoteOn Channel="9" Note="58" Velocity="127"/>
  </Event>
  <Event>
    <Absolute>20711</Absolute>
    <NoteOn Channel="9" Note="62" Velocity="127"/>
  </Event>
  <Event>
    <Absolute>20720</Absolute>
    <NoteOn Channel="9" Note="62" Velocity="0"/>
  </Event>
  <Event>
    <Absolute>20722</Absolute>
    <NoteOn Channel="9" Note="58" Velocity="0"/>
  </Event>
  <Event>
    <Absolute>20730</Absolute>
    <NoteOn Channel="9" Note="62" Velocity="127"/>
  </Event>
  <Event>
    <Absolute>20730</Absolute>
    <NoteOn Channel="9" Note="58" Velocity="127"/>
  </Event>
  <Event>
    <Absolute>20743</Absolute>
    <NoteOn Channel="9" Note="58" Velocity="0"/>
  </Event>
  <Event>
    <Absolute>20743</Absolute>
    <NoteOn Channel="9" Note="62" Velocity="0"/>
  </Event>
  <Event>
    <Absolute>20750</Absolute>
    <NoteOn Channel="9" Note="62" Velocity="127"/>
  </Event>
  <Event>
    <Absolute>20750</Absolute>
    <NoteOn Channel="9" Note="58" Velocity="127"/>
  </Event>
  <Event>
    <Absolute>20763</Absolute>
    <NoteOn Channel="9" Note="58" Velocity="0"/>
  </Event>
  <Event>
    <Absolute>20763</Absolute>
    <NoteOn Channel="9" Note="62" Velocity="0"/>
  </Event>
  <Event>
    <Absolute>20770</Absolute>
    <NoteOn Channel="9" Note="63" Velocity="127"/>
  </Event>
  <Event>
    <Absolute>20770</Absolute>
    <NoteOn Channel="9" Note="59" Velocity="127"/>
  </Event>
  <Event>
    <Absolute>20783</Absolute>
    <NoteOn Channel="9" Note="59" Velocity="0"/>
  </Event>
  <Event>
    <Absolute>20783</Absolute>
    <NoteOn Channel="9" Note="63" Velocity="0"/>
  </Event>
  <Event>
    <Absolute>20790</Absolute>
    <NoteOn Channel="9" Note="63" Velocity="127"/>
  </Event>
  <Event>
    <Absolute>20790</Absolute>
    <NoteOn Channel="9" Note="59" Velocity="127"/>
  </Event>
  <Event>
    <Absolute>20802</Absolute>
    <NoteOn Channel="9" Note="59" Velocity="0"/>
  </Event>
  <Event>
    <Absolute>20802</Absolute>
    <NoteOn Channel="9" Note="63" Velocity="0"/>
  </Event>
  <Event>
    <Absolute>20809</Absolute>
    <NoteOn Channel="9" Note="63" Velocity="127"/>
  </Event>
  <Event>
    <Absolute>20810</Absolute>
    <NoteOn Channel="9" Note="59" Velocity="127"/>
  </Event>
  <Event>
    <Absolute>20822</Absolute>
    <NoteOn Channel="9" Note="63" Velocity="0"/>
  </Event>
  <Event>
    <Absolute>20823</Absolute>
    <NoteOn Channel="9" Note="59" Velocity="0"/>
  </Event>
  <Event>
    <Absolute>20830</Absolute>
    <NoteOn Channel="9" Note="65" Velocity="127"/>
  </Event>
  <Event>
    <Absolute>20830</Absolute>
    <NoteOn Channel="9" Note="61" Velocity="127"/>
  </Event>
  <Event>
    <Absolute>20841</Absolute>
    <NoteOn Channel="9" Note="65" Velocity="0"/>
  </Event>
  <Event>
    <Absolute>20842</Absolute>
    <NoteOn Channel="9" Note="61" Velocity="0"/>
  </Event>
  <Event>
    <Absolute>20848</Absolute>
    <NoteOn Channel="9" Note="65" Velocity="127"/>
  </Event>
  <Event>
    <Absolute>20850</Absolute>
    <NoteOn Channel="9" Note="61" Velocity="127"/>
  </Event>
  <Event>
    <Absolute>20861</Absolute>
    <NoteOn Channel="9" Note="65" Velocity="0"/>
  </Event>
  <Event>
    <Absolute>20863</Absolute>
    <NoteOn Channel="9" Note="61" Velocity="0"/>
  </Event>
  <Event>
    <Absolute>20868</Absolute>
    <NoteOn Channel="9" Note="65" Velocity="127"/>
  </Event>
  <Event>
    <Absolute>20870</Absolute>
    <NoteOn Channel="9" Note="61" Velocity="127"/>
  </Event>
  <Event>
    <Absolute>20879</Absolute>
    <NoteOn Channel="9" Note="65" Velocity="0"/>
  </Event>
  <Event>
    <Absolute>20881</Absolute>
    <NoteOn Channel="9" Note="61" Velocity="0"/>
  </Event>
  <Event>
    <Absolute>21847</Absolute>
    <NoteOn Channel="9" Note="62" Velocity="127"/>
  </Event>
  <Event>
    <Absolute>21885</Absolute>
    <NoteOn Channel="9" Note="62" Velocity="0"/>
  </Event>
  <Event>
    <Absolute>22093</Absolute>
    <NoteOn Channel="9" Note="62" Velocity="127"/>
  </Event>
  <Event>
    <Absolute>22129</Absolute>
    <NoteOn Channel="9" Note="62" Velocity="0"/>
  </Event>
  <Event>
    <Absolute>22334</Absolute>
    <NoteOn Channel="9" Note="62" Velocity="127"/>
  </Event>
  <Event>
    <Absolute>22364</Absolute>
    <NoteOn Channel="9" Note="62" Velocity="0"/>
  </Event>
  <Event>
    <Absolute>22811</Absolute>
    <NoteOn Channel="9" Note="71" Velocity="77"/>
  </Event>
  <Event>
    <Absolute>22812</Absolute>
    <NoteOn Channel="9" Note="68" Velocity="88"/>
  </Event>
  <Event>
    <Absolute>22830</Absolute>
    <NoteOn Channel="9" Note="72" Velocity="77"/>
  </Event>
  <Event>
    <Absolute>22832</Absolute>
    <NoteOn Channel="9" Note="71" Velocity="0"/>
  </Event>
  <Event>
    <Absolute>22834</Absolute>
    <NoteOn Channel="9" Note="68" Velocity="0"/>
  </Event>
  <Event>
    <Absolute>22834</Absolute>
    <NoteOn Channel="9" Note="67" Velocity="63"/>
  </Event>
  <Event>
    <Absolute>22849</Absolute>
    <NoteOn Channel="9" Note="74" Velocity="69"/>
  </Event>
  <Event>
    <Absolute>22853</Absolute>
    <NoteOn Channel="9" Note="72" Velocity="0"/>
  </Event>
  <Event>
    <Absolute>22854</Absolute>
    <NoteOn Channel="9" Note="64" Velocity="77"/>
  </Event>
  <Event>
    <Absolute>22859</Absolute>
    <NoteOn Channel="9" Note="67" Velocity="0"/>
  </Event>
  <Event>
    <Absolute>22871</Absolute>
    <NoteOn Channel="9" Note="77" Velocity="59"/>
  </Event>
  <Event>
    <Absolute>22872</Absolute>
    <NoteOn Channel="9" Note="64" Velocity="0"/>
  </Event>
  <Event>
    <Absolute>22873</Absolute>
    <NoteOn Channel="9" Note="60" Velocity="88"/>
  </Event>
  <Event>
    <Absolute>22874</Absolute>
    <NoteOn Channel="9" Note="74" Velocity="0"/>
  </Event>
  <Event>
    <Absolute>22887</Absolute>
    <NoteOn Channel="9" Note="77" Velocity="0"/>
  </Event>
  <Event>
    <Absolute>22890</Absolute>
    <NoteOn Channel="9" Note="60" Velocity="0"/>
  </Event>
  <Event>
    <Absolute>22890</Absolute>
    <NoteOn Channel="9" Note="76" Velocity="59"/>
  </Event>
  <Event>
    <Absolute>22893</Absolute>
    <NoteOn Channel="9" Note="59" Velocity="74"/>
  </Event>
  <Event>
    <Absolute>22908</Absolute>
    <NoteOn Channel="9" Note="59" Velocity="0"/>
  </Event>
  <Event>
    <Absolute>22908</Absolute>
    <NoteOn Channel="9" Note="76" Velocity="0"/>
  </Event>
  <Event>
    <Absolute>22908</Absolute>
    <NoteOn Channel="9" Note="60" Velocity="63"/>
  </Event>
  <Event>
    <Absolute>22909</Absolute>
    <NoteOn Channel="9" Note="77" Velocity="63"/>
  </Event>
  <Event>
    <Absolute>22929</Absolute>
    <NoteOn Channel="9" Note="60" Velocity="0"/>
  </Event>
  <Event>
    <Absolute>22930</Absolute>
    <NoteOn Channel="9" Note="64" Velocity="77"/>
  </Event>
  <Event>
    <Absolute>22930</Absolute>
    <NoteOn Channel="9" Note="72" Velocity="77"/>
  </Event>
  <Event>
    <Absolute>22932</Absolute>
    <NoteOn Channel="9" Note="77" Velocity="0"/>
  </Event>
  <Event>
    <Absolute>22948</Absolute>
    <NoteOn Channel="9" Note="72" Velocity="0"/>
  </Event>
  <Event>
    <Absolute>22948</Absolute>
    <NoteOn Channel="9" Note="63" Velocity="69"/>
  </Event>
  <Event>
    <Absolute>22949</Absolute>
    <NoteOn Channel="9" Note="64" Velocity="0"/>
  </Event>
  <Event>
    <Absolute>22949</Absolute>
    <NoteOn Channel="9" Note="71" Velocity="74"/>
  </Event>
  <Event>
    <Absolute>22964</Absolute>
    <NoteOn Channel="9" Note="63" Velocity="0"/>
  </Event>
  <Event>
    <Absolute>22965</Absolute>
    <NoteOn Channel="9" Note="64" Velocity="69"/>
  </Event>
  <Event>
    <Absolute>22969</Absolute>
    <NoteOn Channel="9" Note="72" Velocity="77"/>
  </Event>
  <Event>
    <Absolute>22974</Absolute>
    <NoteOn Channel="9" Note="71" Velocity="0"/>
  </Event>
  <Event>
    <Absolute>22987</Absolute>
    <NoteOn Channel="9" Note="64" Velocity="0"/>
  </Event>
  <Event>
    <Absolute>22988</Absolute>
    <NoteOn Channel="9" Note="68" Velocity="88"/>
  </Event>
  <Event>
    <Absolute>22990</Absolute>
    <NoteOn Channel="9" Note="76" Velocity="59"/>
  </Event>
  <Event>
    <Absolute>22993</Absolute>
    <NoteOn Channel="9" Note="72" Velocity="0"/>
  </Event>
  <Event>
    <Absolute>23004</Absolute>
    <NoteOn Channel="9" Note="76" Velocity="0"/>
  </Event>
  <Event>
    <Absolute>23006</Absolute>
    <NoteOn Channel="9" Note="67" Velocity="69"/>
  </Event>
  <Event>
    <Absolute>23008</Absolute>
    <NoteOn Channel="9" Note="68" Velocity="0"/>
  </Event>
  <Event>
    <Absolute>23009</Absolute>
    <NoteOn Channel="9" Note="75" Velocity="55"/>
  </Event>
  <Event>
    <Absolute>23025</Absolute>
    <NoteOn Channel="9" Note="68" Velocity="88"/>
  </Event>
  <Event>
    <Absolute>23027</Absolute>
    <NoteOn Channel="9" Note="67" Velocity="0"/>
  </Event>
  <Event>
    <Absolute>23029</Absolute>
    <NoteOn Channel="9" Note="75" Velocity="0"/>
  </Event>
  <Event>
    <Absolute>23029</Absolute>
    <NoteOn Channel="9" Note="76" Velocity="74"/>
  </Event>
  <Event>
    <Absolute>23043</Absolute>
    <NoteOn Channel="9" Note="68" Velocity="0"/>
  </Event>
  <Event>
    <Absolute>23045</Absolute>
    <NoteOn Channel="9" Note="76" Velocity="0"/>
  </Event>
  <Event>
    <Absolute>23051</Absolute>
    <NoteOn Channel="9" Note="69" Velocity="99"/>
  </Event>
  <Event>
    <Absolute>23051</Absolute>
    <NoteOn Channel="9" Note="77" Velocity="77"/>
  </Event>
  <Event>
    <Absolute>23069</Absolute>
    <NoteOn Channel="9" Note="69" Velocity="0"/>
  </Event>
  <Event>
    <Absolute>23070</Absolute>
    <NoteOn Channel="9" Note="76" Velocity="77"/>
  </Event>
  <Event>
    <Absolute>23070</Absolute>
    <NoteOn Channel="9" Note="68" Velocity="69"/>
  </Event>
  <Event>
    <Absolute>23071</Absolute>
    <NoteOn Channel="9" Note="77" Velocity="0"/>
  </Event>
  <Event>
    <Absolute>23088</Absolute>
    <NoteOn Channel="9" Note="77" Velocity="74"/>
  </Event>
  <Event>
    <Absolute>23089</Absolute>
    <NoteOn Channel="9" Note="69" Velocity="74"/>
  </Event>
  <Event>
    <Absolute>23090</Absolute>
    <NoteOn Channel="9" Note="76" Velocity="0"/>
  </Event>
  <Event>
    <Absolute>23093</Absolute>
    <NoteOn Channel="9" Note="68" Velocity="0"/>
  </Event>
  <Event>
    <Absolute>23110</Absolute>
    <NoteOn Channel="9" Note="77" Velocity="0"/>
  </Event>
  <Event>
    <Absolute>23111</Absolute>
    <NoteOn Channel="9" Note="80" Velocity="74"/>
  </Event>
  <Event>
    <Absolute>23111</Absolute>
    <NoteOn Channel="9" Note="71" Velocity="77"/>
  </Event>
  <Event>
    <Absolute>23114</Absolute>
    <NoteOn Channel="9" Note="69" Velocity="0"/>
  </Event>
  <Event>
    <Absolute>23128</Absolute>
    <NoteOn Channel="9" Note="71" Velocity="0"/>
  </Event>
  <Event>
    <Absolute>23128</Absolute>
    <NoteOn Channel="9" Note="69" Velocity="69"/>
  </Event>
  <Event>
    <Absolute>23130</Absolute>
    <NoteOn Channel="9" Note="79" Velocity="74"/>
  </Event>
  <Event>
    <Absolute>23131</Absolute>
    <NoteOn Channel="9" Note="80" Velocity="0"/>
  </Event>
  <Event>
    <Absolute>23147</Absolute>
    <NoteOn Channel="9" Note="71" Velocity="77"/>
  </Event>
  <Event>
    <Absolute>23150</Absolute>
    <NoteOn Channel="9" Note="79" Velocity="0"/>
  </Event>
  <Event>
    <Absolute>23150</Absolute>
    <NoteOn Channel="9" Note="80" Velocity="69"/>
  </Event>
  <Event>
    <Absolute>23151</Absolute>
    <NoteOn Channel="9" Note="69" Velocity="0"/>
  </Event>
  <Event>
    <Absolute>23167</Absolute>
    <NoteOn Channel="9" Note="71" Velocity="0"/>
  </Event>
  <Event>
    <Absolute>23169</Absolute>
    <NoteOn Channel="9" Note="80" Velocity="0"/>
  </Event>
  <Event>
    <Absolute>23169</Absolute>
    <NoteOn Channel="9" Note="83" Velocity="88"/>
  </Event>
  <Event>
    <Absolute>23172</Absolute>
    <NoteOn Channel="9" Note="59" Velocity="99"/>
  </Event>
  <Event>
    <Absolute>23189</Absolute>
    <NoteOn Channel="9" Note="83" Velocity="0"/>
  </Event>
  <Event>
    <Absolute>23189</Absolute>
    <NoteOn Channel="9" Note="82" Velocity="69"/>
  </Event>
  <Event>
    <Absolute>23191</Absolute>
    <NoteOn Channel="9" Note="60" Velocity="77"/>
  </Event>
  <Event>
    <Absolute>23195</Absolute>
    <NoteOn Channel="9" Note="59" Velocity="0"/>
  </Event>
  <Event>
    <Absolute>23207</Absolute>
    <NoteOn Channel="9" Note="83" Velocity="88"/>
  </Event>
  <Event>
    <Absolute>23210</Absolute>
    <NoteOn Channel="9" Note="82" Velocity="0"/>
  </Event>
  <Event>
    <Absolute>23210</Absolute>
    <NoteOn Channel="9" Note="64" Velocity="74"/>
  </Event>
  <Event>
    <Absolute>23211</Absolute>
    <NoteOn Channel="9" Note="60" Velocity="0"/>
  </Event>
  <Event>
    <Absolute>23224</Absolute>
    <NoteOn Channel="9" Note="83" Velocity="0"/>
  </Event>
  <Event>
    <Absolute>23226</Absolute>
    <NoteOn Channel="9" Note="64" Velocity="0"/>
  </Event>
  <Event>
    <Absolute>23229</Absolute>
    <NoteOn Channel="9" Note="65" Velocity="74"/>
  </Event>
  <Event>
    <Absolute>23230</Absolute>
    <NoteOn Channel="9" Note="71" Velocity="99"/>
  </Event>
  <Event>
    <Absolute>23248</Absolute>
    <NoteOn Channel="9" Note="72" Velocity="77"/>
  </Event>
  <Event>
    <Absolute>23248</Absolute>
    <NoteOn Channel="9" Note="68" Velocity="77"/>
  </Event>
  <Event>
    <Absolute>23252</Absolute>
    <NoteOn Channel="9" Note="71" Velocity="0"/>
  </Event>
  <Event>
    <Absolute>23252</Absolute>
    <NoteOn Channel="9" Note="65" Velocity="0"/>
  </Event>
  <Event>
    <Absolute>23267</Absolute>
    <NoteOn Channel="9" Note="68" Velocity="0"/>
  </Event>
  <Event>
    <Absolute>23267</Absolute>
    <NoteOn Channel="9" Note="71" Velocity="77"/>
  </Event>
  <Event>
    <Absolute>23268</Absolute>
    <NoteOn Channel="9" Note="72" Velocity="0"/>
  </Event>
  <Event>
    <Absolute>23268</Absolute>
    <NoteOn Channel="9" Note="76" Velocity="74"/>
  </Event>
  <Event>
    <Absolute>23287</Absolute>
    <NoteOn Channel="9" Note="71" Velocity="0"/>
  </Event>
  <Event>
    <Absolute>23288</Absolute>
    <NoteOn Channel="9" Note="76" Velocity="0"/>
  </Event>
  <Event>
    <Absolute>23527</Absolute>
    <NoteOn Channel="9" Note="57" Velocity="108"/>
  </Event>
  <Event>
    <Absolute>23529</Absolute>
    <NoteOn Channel="9" Note="65" Velocity="119"/>
  </Event>
  <Event>
    <Absolute>23559</Absolute>
    <NoteOn Channel="9" Note="57" Velocity="0"/>
  </Event>
  <Event>
    <Absolute>23560</Absolute>
    <NoteOn Channel="9" Note="65" Velocity="0"/>
  </Event>
  <Event>
    <Absolute>23771</Absolute>
    <NoteOn Channel="9" Note="57" Velocity="119"/>
  </Event>
  <Event>
    <Absolute>23772</Absolute>
    <NoteOn Channel="9" Note="65" Velocity="119"/>
  </Event>
  <Event>
    <Absolute>23802</Absolute>
    <NoteOn Channel="9" Note="57" Velocity="0"/>
  </Event>
  <Event>
    <Absolute>23809</Absolute>
    <NoteOn Channel="9" Note="65" Velocity="0"/>
  </Event>
  <Event>
    <Absolute>24007</Absolute>
    <NoteOn Channel="9" Note="57" Velocity="127"/>
  </Event>
  <Event>
    <Absolute>24008</Absolute>
    <NoteOn Channel="9" Note="65" Velocity="127"/>
  </Event>
  <Event>
    <Absolute>24039</Absolute>
    <NoteOn Channel="9" Note="57" Velocity="0"/>
  </Event>
  <Event>
    <Absolute>24042</Absolute>
    <NoteOn Channel="9" Note="65" Velocity="0"/>
  </Event>
  <Event>
    <Absolute>24730</Absolute>
    <NoteOn Channel="9" Note="68" Velocity="55"/>
  </Event>
  <Event>
    <Absolute>24749</Absolute>
    <NoteOn Channel="9" Note="72" Velocity="61"/>
  </Event>
  <Event>
    <Absolute>24751</Absolute>
    <NoteOn Channel="9" Note="68" Velocity="0"/>
  </Event>
  <Event>
    <Absolute>24767</Absolute>
    <NoteOn Channel="9" Note="72" Velocity="0"/>
  </Event>
  <Event>
    <Absolute>24769</Absolute>
    <NoteOn Channel="9" Note="73" Velocity="55"/>
  </Event>
  <Event>
    <Absolute>24789</Absolute>
    <NoteOn Channel="9" Note="73" Velocity="0"/>
  </Event>
  <Event>
    <Absolute>24790</Absolute>
    <NoteOn Channel="9" Note="77" Velocity="55"/>
  </Event>
  <Event>
    <Absolute>24810</Absolute>
    <NoteOn Channel="9" Note="73" Velocity="55"/>
  </Event>
  <Event>
    <Absolute>24816</Absolute>
    <NoteOn Channel="9" Note="77" Velocity="0"/>
  </Event>
  <Event>
    <Absolute>24829</Absolute>
    <NoteOn Channel="9" Note="73" Velocity="0"/>
  </Event>
  <Event>
    <Absolute>24829</Absolute>
    <NoteOn Channel="9" Note="72" Velocity="55"/>
  </Event>
  <Event>
    <Absolute>24850</Absolute>
    <NoteOn Channel="9" Note="72" Velocity="0"/>
  </Event>
  <Event>
    <Absolute>24850</Absolute>
    <NoteOn Channel="9" Note="68" Velocity="55"/>
  </Event>
  <Event>
    <Absolute>24868</Absolute>
    <NoteOn Channel="9" Note="68" Velocity="0"/>
  </Event>
  <Event>
    <Absolute>24870</Absolute>
    <NoteOn Channel="9" Note="72" Velocity="61"/>
  </Event>
  <Event>
    <Absolute>24887</Absolute>
    <NoteOn Channel="9" Note="73" Velocity="55"/>
  </Event>
  <Event>
    <Absolute>24892</Absolute>
    <NoteOn Channel="9" Note="72" Velocity="0"/>
  </Event>
  <Event>
    <Absolute>24910</Absolute>
    <NoteOn Channel="9" Note="73" Velocity="0"/>
  </Event>
  <Event>
    <Absolute>24910</Absolute>
    <NoteOn Channel="9" Note="77" Velocity="55"/>
  </Event>
  <Event>
    <Absolute>24928</Absolute>
    <NoteOn Channel="9" Note="73" Velocity="55"/>
  </Event>
  <Event>
    <Absolute>24931</Absolute>
    <NoteOn Channel="9" Note="77" Velocity="0"/>
  </Event>
  <Event>
    <Absolute>24947</Absolute>
    <NoteOn Channel="9" Note="72" Velocity="55"/>
  </Event>
  <Event>
    <Absolute>24949</Absolute>
    <NoteOn Channel="9" Note="73" Velocity="0"/>
  </Event>
  <Event>
    <Absolute>24966</Absolute>
    <NoteOn Channel="9" Note="72" Velocity="0"/>
  </Event>
  <Event>
    <Absolute>24968</Absolute>
    <NoteOn Channel="9" Note="68" Velocity="63"/>
  </Event>
  <Event>
    <Absolute>24983</Absolute>
    <NoteOn Channel="9" Note="92" Velocity="64"/>
  </Event>
  <Event>
    <Absolute>24987</Absolute>
    <NoteOn Channel="9" Note="68" Velocity="0"/>
  </Event>
  <Event>
    <Absolute>24987</Absolute>
    <NoteOn Channel="9" Note="72" Velocity="61"/>
  </Event>
  <Event>
    <Absolute>25007</Absolute>
    <NoteOn Channel="9" Note="73" Velocity="55"/>
  </Event>
  <Event>
    <Absolute>25008</Absolute>
    <NoteOn Channel="9" Note="72" Velocity="0"/>
  </Event>
  <Event>
    <Absolute>25028</Absolute>
    <NoteOn Channel="9" Note="73" Velocity="0"/>
  </Event>
  <Event>
    <Absolute>25028</Absolute>
    <NoteOn Channel="9" Note="77" Velocity="55"/>
  </Event>
  <Event>
    <Absolute>25047</Absolute>
    <NoteOn Channel="9" Note="73" Velocity="55"/>
  </Event>
  <Event>
    <Absolute>25048</Absolute>
    <NoteOn Channel="9" Note="77" Velocity="0"/>
  </Event>
  <Event>
    <Absolute>25065</Absolute>
    <NoteOn Channel="9" Note="73" Velocity="0"/>
  </Event>
  <Event>
    <Absolute>25068</Absolute>
    <NoteOn Channel="9" Note="72" Velocity="55"/>
  </Event>
  <Event>
    <Absolute>25090</Absolute>
    <NoteOn Channel="9" Note="68" Velocity="55"/>
  </Event>
  <Event>
    <Absolute>25092</Absolute>
    <NoteOn Channel="9" Note="72" Velocity="0"/>
  </Event>
  <Event>
    <Absolute>25108</Absolute>
    <NoteOn Channel="9" Note="72" Velocity="55"/>
  </Event>
  <Event>
    <Absolute>25111</Absolute>
    <NoteOn Channel="9" Note="68" Velocity="0"/>
  </Event>
  <Event>
    <Absolute>25127</Absolute>
    <NoteOn Channel="9" Note="73" Velocity="55"/>
  </Event>
  <Event>
    <Absolute>25133</Absolute>
    <NoteOn Channel="9" Note="72" Velocity="0"/>
  </Event>
  <Event>
    <Absolute>25146</Absolute>
    <NoteOn Channel="9" Note="73" Velocity="0"/>
  </Event>
  <Event>
    <Absolute>25148</Absolute>
    <NoteOn Channel="9" Note="77" Velocity="55"/>
  </Event>
  <Event>
    <Absolute>25167</Absolute>
    <NoteOn Channel="9" Note="73" Velocity="55"/>
  </Event>
  <Event>
    <Absolute>25174</Absolute>
    <NoteOn Channel="9" Note="77" Velocity="0"/>
  </Event>
  <Event>
    <Absolute>25187</Absolute>
    <NoteOn Channel="9" Note="72" Velocity="55"/>
  </Event>
  <Event>
    <Absolute>25191</Absolute>
    <NoteOn Channel="9" Note="73" Velocity="0"/>
  </Event>
  <Event>
    <Absolute>25207</Absolute>
    <NoteOn Channel="9" Note="72" Velocity="0"/>
  </Event>
  <Event>
    <Absolute>25210</Absolute>
    <NoteOn Channel="9" Note="68" Velocity="55"/>
  </Event>
  <Event>
    <Absolute>25215</Absolute>
    <NoteOn Channel="9" Note="89" Velocity="64"/>
  </Event>
  <Event>
    <Absolute>25229</Absolute>
    <NoteOn Channel="9" Note="69" Velocity="61"/>
  </Event>
  <Event>
    <Absolute>25231</Absolute>
    <NoteOn Channel="9" Note="68" Velocity="0"/>
  </Event>
  <Event>
    <Absolute>25236</Absolute>
    <NoteOn Channel="9" Note="92" Velocity="0"/>
  </Event>
  <Event>
    <Absolute>25247</Absolute>
    <NoteOn Channel="9" Note="69" Velocity="0"/>
  </Event>
  <Event>
    <Absolute>25249</Absolute>
    <NoteOn Channel="9" Note="73" Velocity="55"/>
  </Event>
  <Event>
    <Absolute>25269</Absolute>
    <NoteOn Channel="9" Note="73" Velocity="0"/>
  </Event>
  <Event>
    <Absolute>25270</Absolute>
    <NoteOn Channel="9" Note="77" Velocity="55"/>
  </Event>
  <Event>
    <Absolute>25290</Absolute>
    <NoteOn Channel="9" Note="73" Velocity="55"/>
  </Event>
  <Event>
    <Absolute>25296</Absolute>
    <NoteOn Channel="9" Note="77" Velocity="0"/>
  </Event>
  <Event>
    <Absolute>25309</Absolute>
    <NoteOn Channel="9" Note="73" Velocity="0"/>
  </Event>
  <Event>
    <Absolute>25309</Absolute>
    <NoteOn Channel="9" Note="69" Velocity="55"/>
  </Event>
  <Event>
    <Absolute>25330</Absolute>
    <NoteOn Channel="9" Note="69" Velocity="0"/>
  </Event>
  <Event>
    <Absolute>25330</Absolute>
    <NoteOn Channel="9" Note="68" Velocity="55"/>
  </Event>
  <Event>
    <Absolute>25348</Absolute>
    <NoteOn Channel="9" Note="68" Velocity="0"/>
  </Event>
  <Event>
    <Absolute>25350</Absolute>
    <NoteOn Channel="9" Note="69" Velocity="61"/>
  </Event>
  <Event>
    <Absolute>25367</Absolute>
    <NoteOn Channel="9" Note="73" Velocity="55"/>
  </Event>
  <Event>
    <Absolute>25372</Absolute>
    <NoteOn Channel="9" Note="69" Velocity="0"/>
  </Event>
  <Event>
    <Absolute>25390</Absolute>
    <NoteOn Channel="9" Note="73" Velocity="0"/>
  </Event>
  <Event>
    <Absolute>25390</Absolute>
    <NoteOn Channel="9" Note="77" Velocity="55"/>
  </Event>
  <Event>
    <Absolute>25408</Absolute>
    <NoteOn Channel="9" Note="73" Velocity="55"/>
  </Event>
  <Event>
    <Absolute>25411</Absolute>
    <NoteOn Channel="9" Note="77" Velocity="0"/>
  </Event>
  <Event>
    <Absolute>25427</Absolute>
    <NoteOn Channel="9" Note="69" Velocity="55"/>
  </Event>
  <Event>
    <Absolute>25429</Absolute>
    <NoteOn Channel="9" Note="73" Velocity="0"/>
  </Event>
  <Event>
    <Absolute>25442</Absolute>
    <NoteOn Channel="9" Note="91" Velocity="64"/>
  </Event>
  <Event>
    <Absolute>25444</Absolute>
    <NoteOn Channel="9" Note="89" Velocity="0"/>
  </Event>
  <Event>
    <Absolute>25446</Absolute>
    <NoteOn Channel="9" Note="69" Velocity="0"/>
  </Event>
  <Event>
    <Absolute>25448</Absolute>
    <NoteOn Channel="9" Note="68" Velocity="63"/>
  </Event>
  <Event>
    <Absolute>25467</Absolute>
    <NoteOn Channel="9" Note="68" Velocity="0"/>
  </Event>
  <Event>
    <Absolute>25467</Absolute>
    <NoteOn Channel="9" Note="69" Velocity="61"/>
  </Event>
  <Event>
    <Absolute>25487</Absolute>
    <NoteOn Channel="9" Note="73" Velocity="55"/>
  </Event>
  <Event>
    <Absolute>25488</Absolute>
    <NoteOn Channel="9" Note="69" Velocity="0"/>
  </Event>
  <Event>
    <Absolute>25508</Absolute>
    <NoteOn Channel="9" Note="73" Velocity="0"/>
  </Event>
  <Event>
    <Absolute>25508</Absolute>
    <NoteOn Channel="9" Note="77" Velocity="55"/>
  </Event>
  <Event>
    <Absolute>25527</Absolute>
    <NoteOn Channel="9" Note="73" Velocity="55"/>
  </Event>
  <Event>
    <Absolute>25528</Absolute>
    <NoteOn Channel="9" Note="77" Velocity="0"/>
  </Event>
  <Event>
    <Absolute>25545</Absolute>
    <NoteOn Channel="9" Note="73" Velocity="0"/>
  </Event>
  <Event>
    <Absolute>25548</Absolute>
    <NoteOn Channel="9" Note="69" Velocity="55"/>
  </Event>
  <Event>
    <Absolute>25570</Absolute>
    <NoteOn Channel="9" Note="68" Velocity="55"/>
  </Event>
  <Event>
    <Absolute>25572</Absolute>
    <NoteOn Channel="9" Note="69" Velocity="0"/>
  </Event>
  <Event>
    <Absolute>25588</Absolute>
    <NoteOn Channel="9" Note="69" Velocity="55"/>
  </Event>
  <Event>
    <Absolute>25591</Absolute>
    <NoteOn Channel="9" Note="68" Velocity="0"/>
  </Event>
  <Event>
    <Absolute>25607</Absolute>
    <NoteOn Channel="9" Note="73" Velocity="55"/>
  </Event>
  <Event>
    <Absolute>25613</Absolute>
    <NoteOn Channel="9" Note="69" Velocity="0"/>
  </Event>
  <Event>
    <Absolute>25626</Absolute>
    <NoteOn Channel="9" Note="73" Velocity="0"/>
  </Event>
  <Event>
    <Absolute>25628</Absolute>
    <NoteOn Channel="9" Note="77" Velocity="55"/>
  </Event>
  <Event>
    <Absolute>25647</Absolute>
    <NoteOn Channel="9" Note="73" Velocity="55"/>
  </Event>
  <Event>
    <Absolute>25654</Absolute>
    <NoteOn Channel="9" Note="77" Velocity="0"/>
  </Event>
  <Event>
    <Absolute>25667</Absolute>
    <NoteOn Channel="9" Note="69" Velocity="55"/>
  </Event>
  <Event>
    <Absolute>25671</Absolute>
    <NoteOn Channel="9" Note="73" Velocity="0"/>
  </Event>
  <Event>
    <Absolute>25674</Absolute>
    <NoteOn Channel="9" Note="91" Velocity="0"/>
  </Event>
  <Event>
    <Absolute>25687</Absolute>
    <NoteOn Channel="9" Note="69" Velocity="0"/>
  </Event>
  <Event>
    <Absolute>25689</Absolute>
    <NoteOn Channel="9" Note="77" Velocity="55"/>
  </Event>
  <Event>
    <Absolute>25689</Absolute>
    <NoteOn Channel="9" Note="88" Velocity="64"/>
  </Event>
  <Event>
    <Absolute>25709</Absolute>
    <NoteOn Channel="9" Note="73" Velocity="55"/>
  </Event>
  <Event>
    <Absolute>25717</Absolute>
    <NoteOn Channel="9" Note="77" Velocity="0"/>
  </Event>
  <Event>
    <Absolute>25728</Absolute>
    <NoteOn Channel="9" Note="69" Velocity="55"/>
  </Event>
  <Event>
    <Absolute>25730</Absolute>
    <NoteOn Channel="9" Note="73" Velocity="0"/>
  </Event>
  <Event>
    <Absolute>25745</Absolute>
    <NoteOn Channel="9" Note="69" Velocity="0"/>
  </Event>
  <Event>
    <Absolute>25750</Absolute>
    <NoteOn Channel="9" Note="73" Velocity="55"/>
  </Event>
  <Event>
    <Absolute>25770</Absolute>
    <NoteOn Channel="9" Note="69" Velocity="61"/>
  </Event>
  <Event>
    <Absolute>25778</Absolute>
    <NoteOn Channel="9" Note="73" Velocity="0"/>
  </Event>
  <Event>
    <Absolute>25790</Absolute>
    <NoteOn Channel="9" Note="69" Velocity="0"/>
  </Event>
  <Event>
    <Absolute>25790</Absolute>
    <NoteOn Channel="9" Note="65" Velocity="55"/>
  </Event>
  <Event>
    <Absolute>25811</Absolute>
    <NoteOn Channel="9" Note="73" Velocity="55"/>
  </Event>
  <Event>
    <Absolute>25815</Absolute>
    <NoteOn Channel="9" Note="65" Velocity="0"/>
  </Event>
  <Event>
    <Absolute>25831</Absolute>
    <NoteOn Channel="9" Note="69" Velocity="55"/>
  </Event>
  <Event>
    <Absolute>25839</Absolute>
    <NoteOn Channel="9" Note="73" Velocity="0"/>
  </Event>
  <Event>
    <Absolute>25849</Absolute>
    <NoteOn Channel="9" Note="69" Velocity="0"/>
  </Event>
  <Event>
    <Absolute>25851</Absolute>
    <NoteOn Channel="9" Note="65" Velocity="55"/>
  </Event>
  <Event>
    <Absolute>25873</Absolute>
    <NoteOn Channel="9" Note="69" Velocity="68"/>
  </Event>
  <Event>
    <Absolute>25874</Absolute>
    <NoteOn Channel="9" Note="65" Velocity="0"/>
  </Event>
  <Event>
    <Absolute>25900</Absolute>
    <NoteOn Channel="9" Note="69" Velocity="0"/>
  </Event>
  <Event>
    <Absolute>25900</Absolute>
    <NoteOn Channel="9" Note="65" Velocity="55"/>
  </Event>
  <Event>
    <Absolute>25928</Absolute>
    <NoteOn Channel="9" Note="65" Velocity="0"/>
  </Event>
  <Event>
    <Absolute>25929</Absolute>
    <NoteOn Channel="9" Note="73" Velocity="55"/>
  </Event>
  <Event>
    <Absolute>25957</Absolute>
    <NoteOn Channel="9" Note="73" Velocity="0"/>
  </Event>
  <Event>
    <Absolute>26007</Absolute>
    <NoteOn Channel="9" Note="71" Velocity="55"/>
  </Event>
  <Event>
    <Absolute>26084</Absolute>
    <NoteOn Channel="9" Note="71" Velocity="0"/>
  </Event>
  <Event>
    <Absolute>26097</Absolute>
    <NoteOn Channel="9" Note="64" Velocity="55"/>
  </Event>
  <Event>
    <Absolute>26173</Absolute>
    <NoteOn Channel="9" Note="72" Velocity="74"/>
  </Event>
  <Event>
    <Absolute>26184</Absolute>
    <NoteOn Channel="9" Note="64" Velocity="0"/>
  </Event>
  <Event>
    <Absolute>26249</Absolute>
    <NoteOn Channel="9" Note="72" Velocity="0"/>
  </Event>
  <Event>
    <Absolute>26252</Absolute>
    <NoteOn Channel="9" Note="71" Velocity="55"/>
  </Event>
  <Event>
    <Absolute>26340</Absolute>
    <NoteOn Channel="9" Note="71" Velocity="0"/>
  </Event>
  <Event>
    <Absolute>26345</Absolute>
    <NoteOn Channel="9" Note="64" Velocity="55"/>
  </Event>
  <Event>
    <Absolute>26410</Absolute>
    <NoteOn Channel="9" Note="72" Velocity="69"/>
  </Event>
  <Event>
    <Absolute>26437</Absolute>
    <NoteOn Channel="9" Note="64" Velocity="0"/>
  </Event>
  <Event>
    <Absolute>26482</Absolute>
    <NoteOn Channel="9" Note="72" Velocity="0"/>
  </Event>
  <Event>
    <Absolute>26488</Absolute>
    <NoteOn Channel="9" Note="71" Velocity="59"/>
  </Event>
  <Event>
    <Absolute>26551</Absolute>
    <NoteOn Channel="9" Note="60" Velocity="55"/>
  </Event>
  <Event>
    <Absolute>26573</Absolute>
    <NoteOn Channel="9" Note="71" Velocity="0"/>
  </Event>
  <Event>
    <Absolute>26579</Absolute>
    <NoteOn Channel="9" Note="64" Velocity="55"/>
  </Event>
  <Event>
    <Absolute>26648</Absolute>
    <NoteOn Channel="9" Note="72" Velocity="77"/>
  </Event>
  <Event>
    <Absolute>26650</Absolute>
    <NoteOn Channel="9" Note="64" Velocity="0"/>
  </Event>
  <Event>
    <Absolute>26667</Absolute>
    <NoteOn Channel="9" Note="60" Velocity="0"/>
  </Event>
  <Event>
    <Absolute>26701</Absolute>
    <NoteOn Channel="9" Note="71" Velocity="59"/>
  </Event>
  <Event>
    <Absolute>26731</Absolute>
    <NoteOn Channel="9" Note="72" Velocity="0"/>
  </Event>
  <Event>
    <Absolute>26765</Absolute>
    <NoteOn Channel="9" Note="71" Velocity="0"/>
  </Event>
  <Event>
    <Absolute>26766</Absolute>
    <NoteOn Channel="9" Note="69" Velocity="63"/>
  </Event>
  <Event>
    <Absolute>26790</Absolute>
    <NoteOn Channel="9" Note="60" Velocity="56"/>
  </Event>
  <Event>
    <Absolute>26825</Absolute>
    <NoteOn Channel="9" Note="64" Velocity="63"/>
  </Event>
  <Event>
    <Absolute>26838</Absolute>
    <NoteOn Channel="9" Note="69" Velocity="0"/>
  </Event>
  <Event>
    <Absolute>26889</Absolute>
    <NoteOn Channel="9" Note="72" Velocity="69"/>
  </Event>
  <Event>
    <Absolute>26901</Absolute>
    <NoteOn Channel="9" Note="64" Velocity="0"/>
  </Event>
  <Event>
    <Absolute>26905</Absolute>
    <NoteOn Channel="9" Note="60" Velocity="0"/>
  </Event>
  <Event>
    <Absolute>26952</Absolute>
    <NoteOn Channel="9" Note="71" Velocity="55"/>
  </Event>
  <Event>
    <Absolute>26975</Absolute>
    <NoteOn Channel="9" Note="72" Velocity="0"/>
  </Event>
  <Event>
    <Absolute>27009</Absolute>
    <NoteOn Channel="9" Note="60" Velocity="63"/>
  </Event>
  <Event>
    <Absolute>27010</Absolute>
    <NoteOn Channel="9" Note="71" Velocity="0"/>
  </Event>
  <Event>
    <Absolute>27010</Absolute>
    <NoteOn Channel="9" Note="69" Velocity="55"/>
  </Event>
  <Event>
    <Absolute>27073</Absolute>
    <NoteOn Channel="9" Note="64" Velocity="63"/>
  </Event>
  <Event>
    <Absolute>27088</Absolute>
    <NoteOn Channel="9" Note="69" Velocity="0"/>
  </Event>
  <Event>
    <Absolute>27133</Absolute>
    <NoteOn Channel="9" Note="72" Velocity="74"/>
  </Event>
  <Event>
    <Absolute>27139</Absolute>
    <NoteOn Channel="9" Note="60" Velocity="0"/>
  </Event>
  <Event>
    <Absolute>27145</Absolute>
    <NoteOn Channel="9" Note="64" Velocity="0"/>
  </Event>
  <Event>
    <Absolute>27174</Absolute>
    <NoteOn Channel="9" Note="88" Velocity="0"/>
  </Event>
  <Event>
    <Absolute>27192</Absolute>
    <NoteOn Channel="9" Note="71" Velocity="59"/>
  </Event>
  <Event>
    <Absolute>27209</Absolute>
    <NoteOn Channel="9" Note="72" Velocity="0"/>
  </Event>
  <Event>
    <Absolute>27246</Absolute>
    <NoteOn Channel="9" Note="71" Velocity="0"/>
  </Event>
  <Event>
    <Absolute>27247</Absolute>
    <NoteOn Channel="9" Note="69" Velocity="63"/>
  </Event>
  <Event>
    <Absolute>27255</Absolute>
    <NoteOn Channel="9" Note="60" Velocity="69"/>
  </Event>
  <Event>
    <Absolute>27308</Absolute>
    <NoteOn Channel="9" Note="64" Velocity="69"/>
  </Event>
  <Event>
    <Absolute>27326</Absolute>
    <NoteOn Channel="9" Note="69" Velocity="0"/>
  </Event>
  <Event>
    <Absolute>27370</Absolute>
    <NoteOn Channel="9" Note="72" Velocity="77"/>
  </Event>
  <Event>
    <Absolute>27380</Absolute>
    <NoteOn Channel="9" Note="60" Velocity="0"/>
  </Event>
  <Event>
    <Absolute>27387</Absolute>
    <NoteOn Channel="9" Note="64" Velocity="0"/>
  </Event>
  <Event>
    <Absolute>27428</Absolute>
    <NoteOn Channel="9" Note="71" Velocity="55"/>
  </Event>
  <Event>
    <Absolute>27450</Absolute>
    <NoteOn Channel="9" Note="72" Velocity="0"/>
  </Event>
  <Event>
    <Absolute>27483</Absolute>
    <NoteOn Channel="9" Note="71" Velocity="0"/>
  </Event>
  <Event>
    <Absolute>27486</Absolute>
    <NoteOn Channel="9" Note="69" Velocity="55"/>
  </Event>
  <Event>
    <Absolute>27493</Absolute>
    <NoteOn Channel="9" Note="60" Velocity="63"/>
  </Event>
  <Event>
    <Absolute>27545</Absolute>
    <NoteOn Channel="9" Note="64" Velocity="74"/>
  </Event>
  <Event>
    <Absolute>27562</Absolute>
    <NoteOn Channel="9" Note="69" Velocity="0"/>
  </Event>
  <Event>
    <Absolute>27607</Absolute>
    <NoteOn Channel="9" Note="72" Velocity="77"/>
  </Event>
  <Event>
    <Absolute>27615</Absolute>
    <NoteOn Channel="9" Note="64" Velocity="0"/>
  </Event>
  <Event>
    <Absolute>27616</Absolute>
    <NoteOn Channel="9" Note="60" Velocity="0"/>
  </Event>
  <Event>
    <Absolute>27668</Absolute>
    <NoteOn Channel="9" Note="71" Velocity="59"/>
  </Event>
  <Event>
    <Absolute>27683</Absolute>
    <NoteOn Channel="9" Note="72" Velocity="0"/>
  </Event>
  <Event>
    <Absolute>27725</Absolute>
    <NoteOn Channel="9" Note="69" Velocity="55"/>
  </Event>
  <Event>
    <Absolute>27731</Absolute>
    <NoteOn Channel="9" Note="60" Velocity="55"/>
  </Event>
  <Event>
    <Absolute>27732</Absolute>
    <NoteOn Channel="9" Note="71" Velocity="0"/>
  </Event>
  <Event>
    <Absolute>27788</Absolute>
    <NoteOn Channel="9" Note="64" Velocity="63"/>
  </Event>
  <Event>
    <Absolute>27810</Absolute>
    <NoteOn Channel="9" Note="69" Velocity="0"/>
  </Event>
  <Event>
    <Absolute>27848</Absolute>
    <NoteOn Channel="9" Note="72" Velocity="77"/>
  </Event>
  <Event>
    <Absolute>27857</Absolute>
    <NoteOn Channel="9" Note="60" Velocity="0"/>
  </Event>
  <Event>
    <Absolute>27862</Absolute>
    <NoteOn Channel="9" Note="64" Velocity="0"/>
  </Event>
  <Event>
    <Absolute>27908</Absolute>
    <NoteOn Channel="9" Note="71" Velocity="59"/>
  </Event>
  <Event>
    <Absolute>27921</Absolute>
    <NoteOn Channel="9" Note="72" Velocity="0"/>
  </Event>
  <Event>
    <Absolute>27965</Absolute>
    <NoteOn Channel="9" Note="69" Velocity="63"/>
  </Event>
  <Event>
    <Absolute>27966</Absolute>
    <NoteOn Channel="9" Note="71" Velocity="0"/>
  </Event>
  <Event>
    <Absolute>27970</Absolute>
    <NoteOn Channel="9" Note="60" Velocity="55"/>
  </Event>
  <Event>
    <Absolute>28027</Absolute>
    <NoteOn Channel="9" Note="64" Velocity="63"/>
  </Event>
  <Event>
    <Absolute>28044</Absolute>
    <NoteOn Channel="9" Note="69" Velocity="0"/>
  </Event>
  <Event>
    <Absolute>28088</Absolute>
    <NoteOn Channel="9" Note="72" Velocity="69"/>
  </Event>
  <Event>
    <Absolute>28093</Absolute>
    <NoteOn Channel="9" Note="64" Velocity="0"/>
  </Event>
  <Event>
    <Absolute>28099</Absolute>
    <NoteOn Channel="9" Note="60" Velocity="0"/>
  </Event>
  <Event>
    <Absolute>28148</Absolute>
    <NoteOn Channel="9" Note="71" Velocity="55"/>
  </Event>
  <Event>
    <Absolute>28163</Absolute>
    <NoteOn Channel="9" Note="72" Velocity="0"/>
  </Event>
  <Event>
    <Absolute>28196</Absolute>
    <NoteOn Channel="9" Note="60" Velocity="55"/>
  </Event>
  <Event>
    <Absolute>28205</Absolute>
    <NoteOn Channel="9" Note="69" Velocity="55"/>
  </Event>
  <Event>
    <Absolute>28209</Absolute>
    <NoteOn Channel="9" Note="71" Velocity="0"/>
  </Event>
  <Event>
    <Absolute>28266</Absolute>
    <NoteOn Channel="9" Note="64" Velocity="59"/>
  </Event>
  <Event>
    <Absolute>28279</Absolute>
    <NoteOn Channel="9" Note="69" Velocity="0"/>
  </Event>
  <Event>
    <Absolute>28327</Absolute>
    <NoteOn Channel="9" Note="72" Velocity="69"/>
  </Event>
  <Event>
    <Absolute>28336</Absolute>
    <NoteOn Channel="9" Note="60" Velocity="0"/>
  </Event>
  <Event>
    <Absolute>28337</Absolute>
    <NoteOn Channel="9" Note="64" Velocity="0"/>
  </Event>
  <Event>
    <Absolute>28388</Absolute>
    <NoteOn Channel="9" Note="71" Velocity="59"/>
  </Event>
  <Event>
    <Absolute>28405</Absolute>
    <NoteOn Channel="9" Note="72" Velocity="0"/>
  </Event>
  <Event>
    <Absolute>28441</Absolute>
    <NoteOn Channel="9" Note="60" Velocity="55"/>
  </Event>
  <Event>
    <Absolute>28448</Absolute>
    <NoteOn Channel="9" Note="69" Velocity="55"/>
  </Event>
  <Event>
    <Absolute>28449</Absolute>
    <NoteOn Channel="9" Note="71" Velocity="0"/>
  </Event>
  <Event>
    <Absolute>28509</Absolute>
    <NoteOn Channel="9" Note="64" Velocity="59"/>
  </Event>
  <Event>
    <Absolute>28524</Absolute>
    <NoteOn Channel="9" Note="69" Velocity="0"/>
  </Event>
  <Event>
    <Absolute>28562</Absolute>
    <NoteOn Channel="9" Note="60" Velocity="0"/>
  </Event>
  <Event>
    <Absolute>28569</Absolute>
    <NoteOn Channel="9" Note="72" Velocity="74"/>
  </Event>
  <Event>
    <Absolute>28577</Absolute>
    <NoteOn Channel="9" Note="64" Velocity="0"/>
  </Event>
  <Event>
    <Absolute>28628</Absolute>
    <NoteOn Channel="9" Note="71" Velocity="63"/>
  </Event>
  <Event>
    <Absolute>28644</Absolute>
    <NoteOn Channel="9" Note="72" Velocity="0"/>
  </Event>
  <Event>
    <Absolute>28681</Absolute>
    <NoteOn Channel="9" Note="60" Velocity="63"/>
  </Event>
  <Event>
    <Absolute>28685</Absolute>
    <NoteOn Channel="9" Note="69" Velocity="59"/>
  </Event>
  <Event>
    <Absolute>28686</Absolute>
    <NoteOn Channel="9" Note="71" Velocity="0"/>
  </Event>
  <Event>
    <Absolute>28745</Absolute>
    <NoteOn Channel="9" Note="64" Velocity="63"/>
  </Event>
  <Event>
    <Absolute>28761</Absolute>
    <NoteOn Channel="9" Note="69" Velocity="0"/>
  </Event>
  <Event>
    <Absolute>28807</Absolute>
    <NoteOn Channel="9" Note="72" Velocity="69"/>
  </Event>
  <Event>
    <Absolute>28817</Absolute>
    <NoteOn Channel="9" Note="64" Velocity="0"/>
  </Event>
  <Event>
    <Absolute>28867</Absolute>
    <NoteOn Channel="9" Note="71" Velocity="59"/>
  </Event>
  <Event>
    <Absolute>28893</Absolute>
    <NoteOn Channel="9" Note="72" Velocity="0"/>
  </Event>
  <Event>
    <Absolute>28920</Absolute>
    <NoteOn Channel="9" Note="62" Velocity="85"/>
  </Event>
  <Event>
    <Absolute>28925</Absolute>
    <NoteOn Channel="9" Note="71" Velocity="0"/>
  </Event>
  <Event>
    <Absolute>28925</Absolute>
    <NoteOn Channel="9" Note="60" Velocity="0"/>
  </Event>
  <Event>
    <Absolute>28926</Absolute>
    <NoteOn Channel="9" Note="69" Velocity="55"/>
  </Event>
  <Event>
    <Absolute>28986</Absolute>
    <NoteOn Channel="9" Note="64" Velocity="55"/>
  </Event>
  <Event>
    <Absolute>29001</Absolute>
    <NoteOn Channel="9" Note="69" Velocity="0"/>
  </Event>
  <Event>
    <Absolute>29048</Absolute>
    <NoteOn Channel="9" Note="72" Velocity="74"/>
  </Event>
  <Event>
    <Absolute>29050</Absolute>
    <NoteOn Channel="9" Note="64" Velocity="61"/>
  </Event>
  <Event>
    <Absolute>29051</Absolute>
    <NoteOn Channel="9" Note="64" Velocity="0"/>
  </Event>
  <Event>
    <Absolute>29055</Absolute>
    <NoteOn Channel="9" Note="62" Velocity="0"/>
  </Event>
  <Event>
    <Absolute>29107</Absolute>
    <NoteOn Channel="9" Note="71" Velocity="59"/>
  </Event>
  <Event>
    <Absolute>29113</Absolute>
    <NoteOn Channel="9" Note="72" Velocity="0"/>
  </Event>
  <Event>
    <Absolute>29113</Absolute>
    <NoteOn Channel="9" Note="64" Velocity="0"/>
  </Event>
  <Event>
    <Absolute>29165</Absolute>
    <NoteOn Channel="9" Note="69" Velocity="55"/>
  </Event>
  <Event>
    <Absolute>29170</Absolute>
    <NoteOn Channel="9" Note="52" Velocity="77"/>
  </Event>
  <Event>
    <Absolute>29175</Absolute>
    <NoteOn Channel="9" Note="71" Velocity="0"/>
  </Event>
  <Event>
    <Absolute>29225</Absolute>
    <NoteOn Channel="9" Note="64" Velocity="74"/>
  </Event>
  <Event>
    <Absolute>29245</Absolute>
    <NoteOn Channel="9" Note="69" Velocity="0"/>
  </Event>
  <Event>
    <Absolute>29286</Absolute>
    <NoteOn Channel="9" Note="72" Velocity="69"/>
  </Event>
  <Event>
    <Absolute>29298</Absolute>
    <NoteOn Channel="9" Note="64" Velocity="0"/>
  </Event>
  <Event>
    <Absolute>29346</Absolute>
    <NoteOn Channel="9" Note="71" Velocity="63"/>
  </Event>
  <Event>
    <Absolute>29361</Absolute>
    <NoteOn Channel="9" Note="72" Velocity="0"/>
  </Event>
  <Event>
    <Absolute>29404</Absolute>
    <NoteOn Channel="9" Note="71" Velocity="0"/>
  </Event>
  <Event>
    <Absolute>29405</Absolute>
    <NoteOn Channel="9" Note="69" Velocity="55"/>
  </Event>
  <Event>
    <Absolute>29411</Absolute>
    <NoteOn Channel="9" Note="52" Velocity="0"/>
  </Event>
  <Event>
    <Absolute>29411</Absolute>
    <NoteOn Channel="9" Note="55" Velocity="77"/>
  </Event>
  <Event>
    <Absolute>29462</Absolute>
    <NoteOn Channel="9" Note="64" Velocity="69"/>
  </Event>
  <Event>
    <Absolute>29476</Absolute>
    <NoteOn Channel="9" Note="69" Velocity="0"/>
  </Event>
  <Event>
    <Absolute>29528</Absolute>
    <NoteOn Channel="9" Note="74" Velocity="69"/>
  </Event>
  <Event>
    <Absolute>29531</Absolute>
    <NoteOn Channel="9" Note="55" Velocity="0"/>
  </Event>
  <Event>
    <Absolute>29535</Absolute>
    <NoteOn Channel="9" Note="57" Velocity="77"/>
  </Event>
  <Event>
    <Absolute>29540</Absolute>
    <NoteOn Channel="9" Note="64" Velocity="0"/>
  </Event>
  <Event>
    <Absolute>29586</Absolute>
    <NoteOn Channel="9" Note="70" Velocity="59"/>
  </Event>
  <Event>
    <Absolute>29603</Absolute>
    <NoteOn Channel="9" Note="74" Velocity="0"/>
  </Event>
  <Event>
    <Absolute>29645</Absolute>
    <NoteOn Channel="9" Note="69" Velocity="55"/>
  </Event>
  <Event>
    <Absolute>29665</Absolute>
    <NoteOn Channel="9" Note="70" Velocity="0"/>
  </Event>
  <Event>
    <Absolute>29708</Absolute>
    <NoteOn Channel="9" Note="66" Velocity="55"/>
  </Event>
  <Event>
    <Absolute>29723</Absolute>
    <NoteOn Channel="9" Note="69" Velocity="0"/>
  </Event>
  <Event>
    <Absolute>29765</Absolute>
    <NoteOn Channel="9" Note="66" Velocity="0"/>
  </Event>
  <Event>
    <Absolute>29768</Absolute>
    <NoteOn Channel="9" Note="74" Velocity="74"/>
  </Event>
  <Event>
    <Absolute>29828</Absolute>
    <NoteOn Channel="9" Note="70" Velocity="63"/>
  </Event>
  <Event>
    <Absolute>29836</Absolute>
    <NoteOn Channel="9" Note="74" Velocity="0"/>
  </Event>
  <Event>
    <Absolute>29888</Absolute>
    <NoteOn Channel="9" Note="69" Velocity="63"/>
  </Event>
  <Event>
    <Absolute>29889</Absolute>
    <NoteOn Channel="9" Note="70" Velocity="0"/>
  </Event>
  <Event>
    <Absolute>29946</Absolute>
    <NoteOn Channel="9" Note="66" Velocity="55"/>
  </Event>
  <Event>
    <Absolute>29954</Absolute>
    <NoteOn Channel="9" Note="69" Velocity="0"/>
  </Event>
  <Event>
    <Absolute>30008</Absolute>
    <NoteOn Channel="9" Note="74" Velocity="69"/>
  </Event>
  <Event>
    <Absolute>30009</Absolute>
    <NoteOn Channel="9" Note="66" Velocity="0"/>
  </Event>
  <Event>
    <Absolute>30068</Absolute>
    <NoteOn Channel="9" Note="70" Velocity="55"/>
  </Event>
  <Event>
    <Absolute>30080</Absolute>
    <NoteOn Channel="9" Note="74" Velocity="0"/>
  </Event>
  <Event>
    <Absolute>30128</Absolute>
    <NoteOn Channel="9" Note="69" Velocity="69"/>
  </Event>
  <Event>
    <Absolute>30139</Absolute>
    <NoteOn Channel="9" Note="70" Velocity="0"/>
  </Event>
  <Event>
    <Absolute>30187</Absolute>
    <NoteOn Channel="9" Note="66" Velocity="59"/>
  </Event>
  <Event>
    <Absolute>30188</Absolute>
    <NoteOn Channel="9" Note="69" Velocity="0"/>
  </Event>
  <Event>
    <Absolute>30248</Absolute>
    <NoteOn Channel="9" Note="74" Velocity="63"/>
  </Event>
  <Event>
    <Absolute>30258</Absolute>
    <NoteOn Channel="9" Note="66" Velocity="0"/>
  </Event>
  <Event>
    <Absolute>30308</Absolute>
    <NoteOn Channel="9" Note="70" Velocity="55"/>
  </Event>
  <Event>
    <Absolute>30326</Absolute>
    <NoteOn Channel="9" Note="74" Velocity="0"/>
  </Event>
  <Event>
    <Absolute>30368</Absolute>
    <NoteOn Channel="9" Note="69" Velocity="59"/>
  </Event>
  <Event>
    <Absolute>30390</Absolute>
    <NoteOn Channel="9" Note="70" Velocity="0"/>
  </Event>
  <Event>
    <Absolute>30427</Absolute>
    <NoteOn Channel="9" Note="66" Velocity="59"/>
  </Event>
  <Event>
    <Absolute>30432</Absolute>
    <NoteOn Channel="9" Note="69" Velocity="0"/>
  </Event>
  <Event>
    <Absolute>30488</Absolute>
    <NoteOn Channel="9" Note="74" Velocity="55"/>
  </Event>
  <Event>
    <Absolute>30517</Absolute>
    <NoteOn Channel="9" Note="66" Velocity="0"/>
  </Event>
  <Event>
    <Absolute>30548</Absolute>
    <NoteOn Channel="9" Note="70" Velocity="55"/>
  </Event>
  <Event>
    <Absolute>30563</Absolute>
    <NoteOn Channel="9" Note="74" Velocity="0"/>
  </Event>
  <Event>
    <Absolute>30609</Absolute>
    <NoteOn Channel="9" Note="69" Velocity="55"/>
  </Event>
  <Event>
    <Absolute>30624</Absolute>
    <NoteOn Channel="9" Note="70" Velocity="0"/>
  </Event>
  <Event>
    <Absolute>30668</Absolute>
    <NoteOn Channel="9" Note="66" Velocity="63"/>
  </Event>
  <Event>
    <Absolute>30670</Absolute>
    <NoteOn Channel="9" Note="69" Velocity="0"/>
  </Event>
  <Event>
    <Absolute>30728</Absolute>
    <NoteOn Channel="9" Note="74" Velocity="69"/>
  </Event>
  <Event>
    <Absolute>30741</Absolute>
    <NoteOn Channel="9" Note="66" Velocity="0"/>
  </Event>
  <Event>
    <Absolute>30788</Absolute>
    <NoteOn Channel="9" Note="70" Velocity="59"/>
  </Event>
  <Event>
    <Absolute>30809</Absolute>
    <NoteOn Channel="9" Note="74" Velocity="0"/>
  </Event>
  <Event>
    <Absolute>30845</Absolute>
    <NoteOn Channel="9" Note="70" Velocity="0"/>
  </Event>
  <Event>
    <Absolute>30849</Absolute>
    <NoteOn Channel="9" Note="69" Velocity="55"/>
  </Event>
  <Event>
    <Absolute>30908</Absolute>
    <NoteOn Channel="9" Note="66" Velocity="59"/>
  </Event>
  <Event>
    <Absolute>30914</Absolute>
    <NoteOn Channel="9" Note="69" Velocity="0"/>
  </Event>
  <Event>
    <Absolute>30956</Absolute>
    <NoteOn Channel="9" Note="66" Velocity="0"/>
  </Event>
  <Event>
    <Absolute>30970</Absolute>
    <NoteOn Channel="9" Note="74" Velocity="55"/>
  </Event>
  <Event>
    <Absolute>31032</Absolute>
    <NoteOn Channel="9" Note="70" Velocity="55"/>
  </Event>
  <Event>
    <Absolute>31042</Absolute>
    <NoteOn Channel="9" Note="74" Velocity="0"/>
  </Event>
  <Event>
    <Absolute>31092</Absolute>
    <NoteOn Channel="9" Note="69" Velocity="69"/>
  </Event>
  <Event>
    <Absolute>31118</Absolute>
    <NoteOn Channel="9" Note="70" Velocity="0"/>
  </Event>
  <Event>
    <Absolute>31152</Absolute>
    <NoteOn Channel="9" Note="62" Velocity="59"/>
  </Event>
  <Event>
    <Absolute>31167</Absolute>
    <NoteOn Channel="9" Note="69" Velocity="0"/>
  </Event>
  <Event>
    <Absolute>31212</Absolute>
    <NoteOn Channel="9" Note="74" Velocity="59"/>
  </Event>
  <Event>
    <Absolute>31230</Absolute>
    <NoteOn Channel="9" Note="62" Velocity="0"/>
  </Event>
  <Event>
    <Absolute>31272</Absolute>
    <NoteOn Channel="9" Note="70" Velocity="63"/>
  </Event>
  <Event>
    <Absolute>31292</Absolute>
    <NoteOn Channel="9" Note="74" Velocity="0"/>
  </Event>
  <Event>
    <Absolute>31332</Absolute>
    <NoteOn Channel="9" Note="69" Velocity="63"/>
  </Event>
  <Event>
    <Absolute>31345</Absolute>
    <NoteOn Channel="9" Note="70" Velocity="0"/>
  </Event>
  <Event>
    <Absolute>31388</Absolute>
    <NoteOn Channel="9" Note="69" Velocity="0"/>
  </Event>
  <Event>
    <Absolute>31388</Absolute>
    <NoteOn Channel="9" Note="62" Velocity="59"/>
  </Event>
  <Event>
    <Absolute>31449</Absolute>
    <NoteOn Channel="9" Note="74" Velocity="74"/>
  </Event>
  <Event>
    <Absolute>31463</Absolute>
    <NoteOn Channel="9" Note="62" Velocity="0"/>
  </Event>
  <Event>
    <Absolute>31511</Absolute>
    <NoteOn Channel="9" Note="70" Velocity="63"/>
  </Event>
  <Event>
    <Absolute>31525</Absolute>
    <NoteOn Channel="9" Note="74" Velocity="0"/>
  </Event>
  <Event>
    <Absolute>31568</Absolute>
    <NoteOn Channel="9" Note="69" Velocity="63"/>
  </Event>
  <Event>
    <Absolute>31575</Absolute>
    <NoteOn Channel="9" Note="70" Velocity="0"/>
  </Event>
  <Event>
    <Absolute>31627</Absolute>
    <NoteOn Channel="9" Note="62" Velocity="55"/>
  </Event>
  <Event>
    <Absolute>31650</Absolute>
    <NoteOn Channel="9" Note="69" Velocity="0"/>
  </Event>
  <Event>
    <Absolute>31688</Absolute>
    <NoteOn Channel="9" Note="74" Velocity="63"/>
  </Event>
  <Event>
    <Absolute>31703</Absolute>
    <NoteOn Channel="9" Note="62" Velocity="0"/>
  </Event>
  <Event>
    <Absolute>31746</Absolute>
    <NoteOn Channel="9" Note="70" Velocity="55"/>
  </Event>
  <Event>
    <Absolute>31775</Absolute>
    <NoteOn Channel="9" Note="74" Velocity="0"/>
  </Event>
  <Event>
    <Absolute>31807</Absolute>
    <NoteOn Channel="9" Note="69" Velocity="59"/>
  </Event>
  <Event>
    <Absolute>31822</Absolute>
    <NoteOn Channel="9" Note="70" Velocity="0"/>
  </Event>
  <Event>
    <Absolute>31868</Absolute>
    <NoteOn Channel="9" Note="62" Velocity="55"/>
  </Event>
  <Event>
    <Absolute>31877</Absolute>
    <NoteOn Channel="9" Note="69" Velocity="0"/>
  </Event>
  <Event>
    <Absolute>31878</Absolute>
    <NoteOn Channel="9" Note="57" Velocity="0"/>
  </Event>
  <Event>
    <Absolute>31909</Absolute>
    <NoteOn Channel="9" Note="62" Velocity="0"/>
  </Event>
  <Event>
    <Absolute>31928</Absolute>
    <NoteOn Channel="9" Note="77" Velocity="59"/>
  </Event>
  <Event>
    <Absolute>31940</Absolute>
    <NoteOn Channel="9" Note="57" Velocity="55"/>
  </Event>
  <Event>
    <Absolute>31988</Absolute>
    <NoteOn Channel="9" Note="70" Velocity="63"/>
  </Event>
  <Event>
    <Absolute>31994</Absolute>
    <NoteOn Channel="9" Note="77" Velocity="0"/>
  </Event>
  <Event>
    <Absolute>32046</Absolute>
    <NoteOn Channel="9" Note="70" Velocity="0"/>
  </Event>
  <Event>
    <Absolute>32053</Absolute>
    <NoteOn Channel="9" Note="66" Velocity="55"/>
  </Event>
  <Event>
    <Absolute>32087</Absolute>
    <NoteOn Channel="9" Note="57" Velocity="0"/>
  </Event>
  <Event>
    <Absolute>32098</Absolute>
    <NoteOn Channel="9" Note="66" Velocity="0"/>
  </Event>
  <Event>
    <Absolute>32101</Absolute>
    <NoteOn Channel="9" Note="65" Velocity="59"/>
  </Event>
  <Event>
    <Absolute>32167</Absolute>
    <NoteOn Channel="9" Note="77" Velocity="63"/>
  </Event>
  <Event>
    <Absolute>32172</Absolute>
    <NoteOn Channel="9" Note="65" Velocity="0"/>
  </Event>
  <Event>
    <Absolute>32173</Absolute>
    <NoteOn Channel="9" Note="57" Velocity="69"/>
  </Event>
  <Event>
    <Absolute>32227</Absolute>
    <NoteOn Channel="9" Note="70" Velocity="63"/>
  </Event>
  <Event>
    <Absolute>32233</Absolute>
    <NoteOn Channel="9" Note="77" Velocity="0"/>
  </Event>
  <Event>
    <Absolute>32283</Absolute>
    <NoteOn Channel="9" Note="66" Velocity="55"/>
  </Event>
  <Event>
    <Absolute>32286</Absolute>
    <NoteOn Channel="9" Note="70" Velocity="0"/>
  </Event>
  <Event>
    <Absolute>32315</Absolute>
    <NoteOn Channel="9" Note="57" Velocity="0"/>
  </Event>
  <Event>
    <Absolute>32340</Absolute>
    <NoteOn Channel="9" Note="65" Velocity="69"/>
  </Event>
  <Event>
    <Absolute>32343</Absolute>
    <NoteOn Channel="9" Note="66" Velocity="0"/>
  </Event>
  <Event>
    <Absolute>32403</Absolute>
    <NoteOn Channel="9" Note="77" Velocity="77"/>
  </Event>
  <Event>
    <Absolute>32408</Absolute>
    <NoteOn Channel="9" Note="65" Velocity="0"/>
  </Event>
  <Event>
    <Absolute>32413</Absolute>
    <NoteOn Channel="9" Note="57" Velocity="63"/>
  </Event>
  <Event>
    <Absolute>32460</Absolute>
    <NoteOn Channel="9" Note="70" Velocity="69"/>
  </Event>
  <Event>
    <Absolute>32474</Absolute>
    <NoteOn Channel="9" Note="77" Velocity="0"/>
  </Event>
  <Event>
    <Absolute>32518</Absolute>
    <NoteOn Channel="9" Note="66" Velocity="77"/>
  </Event>
  <Event>
    <Absolute>32525</Absolute>
    <NoteOn Channel="9" Note="70" Velocity="0"/>
  </Event>
  <Event>
    <Absolute>32552</Absolute>
    <NoteOn Channel="9" Note="57" Velocity="0"/>
  </Event>
  <Event>
    <Absolute>32574</Absolute>
    <NoteOn Channel="9" Note="65" Velocity="111"/>
  </Event>
  <Event>
    <Absolute>32575</Absolute>
    <NoteOn Channel="9" Note="66" Velocity="0"/>
  </Event>
  <Event>
    <Absolute>32640</Absolute>
    <NoteOn Channel="9" Note="77" Velocity="88"/>
  </Event>
  <Event>
    <Absolute>32642</Absolute>
    <NoteOn Channel="9" Note="65" Velocity="0"/>
  </Event>
  <Event>
    <Absolute>32655</Absolute>
    <NoteOn Channel="9" Note="57" Velocity="77"/>
  </Event>
  <Event>
    <Absolute>32698</Absolute>
    <NoteOn Channel="9" Note="70" Velocity="74"/>
  </Event>
  <Event>
    <Absolute>32716</Absolute>
    <NoteOn Channel="9" Note="77" Velocity="0"/>
  </Event>
  <Event>
    <Absolute>32760</Absolute>
    <NoteOn Channel="9" Note="66" Velocity="74"/>
  </Event>
  <Event>
    <Absolute>32765</Absolute>
    <NoteOn Channel="9" Note="70" Velocity="0"/>
  </Event>
  <Event>
    <Absolute>32790</Absolute>
    <NoteOn Channel="9" Note="57" Velocity="0"/>
  </Event>
  <Event>
    <Absolute>32826</Absolute>
    <NoteOn Channel="9" Note="65" Velocity="77"/>
  </Event>
  <Event>
    <Absolute>32830</Absolute>
    <NoteOn Channel="9" Note="66" Velocity="0"/>
  </Event>
  <Event>
    <Absolute>32870</Absolute>
    <NoteOn Channel="9" Note="65" Velocity="0"/>
  </Event>
  <Event>
    <Absolute>32886</Absolute>
    <NoteOn Channel="9" Note="74" Velocity="74"/>
  </Event>
  <Event>
    <Absolute>32897</Absolute>
    <NoteOn Channel="9" Note="57" Velocity="81"/>
  </Event>
  <Event>
    <Absolute>32942</Absolute>
    <NoteOn Channel="9" Note="70" Velocity="69"/>
  </Event>
  <Event>
    <Absolute>32950</Absolute>
    <NoteOn Channel="9" Note="74" Velocity="0"/>
  </Event>
  <Event>
    <Absolute>33006</Absolute>
    <NoteOn Channel="9" Note="69" Velocity="69"/>
  </Event>
  <Event>
    <Absolute>33023</Absolute>
    <NoteOn Channel="9" Note="70" Velocity="0"/>
  </Event>
  <Event>
    <Absolute>33037</Absolute>
    <NoteOn Channel="9" Note="57" Velocity="0"/>
  </Event>
  <Event>
    <Absolute>33066</Absolute>
    <NoteOn Channel="9" Note="62" Velocity="69"/>
  </Event>
  <Event>
    <Absolute>33078</Absolute>
    <NoteOn Channel="9" Note="69" Velocity="0"/>
  </Event>
  <Event>
    <Absolute>33133</Absolute>
    <NoteOn Channel="9" Note="74" Velocity="69"/>
  </Event>
  <Event>
    <Absolute>33135</Absolute>
    <NoteOn Channel="9" Note="57" Velocity="74"/>
  </Event>
  <Event>
    <Absolute>33139</Absolute>
    <NoteOn Channel="9" Note="62" Velocity="0"/>
  </Event>
  <Event>
    <Absolute>33190</Absolute>
    <NoteOn Channel="9" Note="70" Velocity="63"/>
  </Event>
  <Event>
    <Absolute>33204</Absolute>
    <NoteOn Channel="9" Note="74" Velocity="0"/>
  </Event>
  <Event>
    <Absolute>33244</Absolute>
    <NoteOn Channel="9" Note="69" Velocity="74"/>
  </Event>
  <Event>
    <Absolute>33260</Absolute>
    <NoteOn Channel="9" Note="70" Velocity="0"/>
  </Event>
  <Event>
    <Absolute>33265</Absolute>
    <NoteOn Channel="9" Note="57" Velocity="0"/>
  </Event>
  <Event>
    <Absolute>33304</Absolute>
    <NoteOn Channel="9" Note="62" Velocity="69"/>
  </Event>
  <Event>
    <Absolute>33319</Absolute>
    <NoteOn Channel="9" Note="69" Velocity="0"/>
  </Event>
  <Event>
    <Absolute>33367</Absolute>
    <NoteOn Channel="9" Note="74" Velocity="77"/>
  </Event>
  <Event>
    <Absolute>33374</Absolute>
    <NoteOn Channel="9" Note="57" Velocity="77"/>
  </Event>
  <Event>
    <Absolute>33378</Absolute>
    <NoteOn Channel="9" Note="62" Velocity="0"/>
  </Event>
  <Event>
    <Absolute>33421</Absolute>
    <NoteOn Channel="9" Note="70" Velocity="74"/>
  </Event>
  <Event>
    <Absolute>33437</Absolute>
    <NoteOn Channel="9" Note="74" Velocity="0"/>
  </Event>
  <Event>
    <Absolute>33475</Absolute>
    <NoteOn Channel="9" Note="69" Velocity="63"/>
  </Event>
  <Event>
    <Absolute>33490</Absolute>
    <NoteOn Channel="9" Note="70" Velocity="0"/>
  </Event>
  <Event>
    <Absolute>33499</Absolute>
    <NoteOn Channel="9" Note="57" Velocity="0"/>
  </Event>
  <Event>
    <Absolute>33540</Absolute>
    <NoteOn Channel="9" Note="62" Velocity="55"/>
  </Event>
  <Event>
    <Absolute>33554</Absolute>
    <NoteOn Channel="9" Note="69" Velocity="0"/>
  </Event>
  <Event>
    <Absolute>33600</Absolute>
    <NoteOn Channel="9" Note="74" Velocity="77"/>
  </Event>
  <Event>
    <Absolute>33612</Absolute>
    <NoteOn Channel="9" Note="62" Velocity="0"/>
  </Event>
  <Event>
    <Absolute>33615</Absolute>
    <NoteOn Channel="9" Note="57" Velocity="96"/>
  </Event>
  <Event>
    <Absolute>33659</Absolute>
    <NoteOn Channel="9" Note="70" Velocity="69"/>
  </Event>
  <Event>
    <Absolute>33678</Absolute>
    <NoteOn Channel="9" Note="74" Velocity="0"/>
  </Event>
  <Event>
    <Absolute>33715</Absolute>
    <NoteOn Channel="9" Note="69" Velocity="63"/>
  </Event>
  <Event>
    <Absolute>33729</Absolute>
    <NoteOn Channel="9" Note="70" Velocity="0"/>
  </Event>
  <Event>
    <Absolute>33751</Absolute>
    <NoteOn Channel="9" Note="57" Velocity="0"/>
  </Event>
  <Event>
    <Absolute>33777</Absolute>
    <NoteOn Channel="9" Note="62" Velocity="69"/>
  </Event>
  <Event>
    <Absolute>33785</Absolute>
    <NoteOn Channel="9" Note="69" Velocity="0"/>
  </Event>
  <Event>
    <Absolute>33830</Absolute>
    <NoteOn Channel="9" Note="62" Velocity="0"/>
  </Event>
  <Event>
    <Absolute>33847</Absolute>
    <NoteOn Channel="9" Note="71" Velocity="77"/>
  </Event>
  <Event>
    <Absolute>33852</Absolute>
    <NoteOn Channel="9" Note="57" Velocity="63"/>
  </Event>
  <Event>
    <Absolute>33905</Absolute>
    <NoteOn Channel="9" Note="67" Velocity="63"/>
  </Event>
  <Event>
    <Absolute>33915</Absolute>
    <NoteOn Channel="9" Note="71" Velocity="0"/>
  </Event>
  <Event>
    <Absolute>33965</Absolute>
    <NoteOn Channel="9" Note="66" Velocity="74"/>
  </Event>
  <Event>
    <Absolute>33973</Absolute>
    <NoteOn Channel="9" Note="67" Velocity="0"/>
  </Event>
  <Event>
    <Absolute>33999</Absolute>
    <NoteOn Channel="9" Note="57" Velocity="0"/>
  </Event>
  <Event>
    <Absolute>34027</Absolute>
    <NoteOn Channel="9" Note="59" Velocity="69"/>
  </Event>
  <Event>
    <Absolute>34037</Absolute>
    <NoteOn Channel="9" Note="66" Velocity="0"/>
  </Event>
  <Event>
    <Absolute>34086</Absolute>
    <NoteOn Channel="9" Note="71" Velocity="77"/>
  </Event>
  <Event>
    <Absolute>34088</Absolute>
    <NoteOn Channel="9" Note="59" Velocity="0"/>
  </Event>
  <Event>
    <Absolute>34089</Absolute>
    <NoteOn Channel="9" Note="57" Velocity="68"/>
  </Event>
  <Event>
    <Absolute>34141</Absolute>
    <NoteOn Channel="9" Note="67" Velocity="74"/>
  </Event>
  <Event>
    <Absolute>34149</Absolute>
    <NoteOn Channel="9" Note="71" Velocity="0"/>
  </Event>
  <Event>
    <Absolute>34198</Absolute>
    <NoteOn Channel="9" Note="66" Velocity="55"/>
  </Event>
  <Event>
    <Absolute>34206</Absolute>
    <NoteOn Channel="9" Note="67" Velocity="0"/>
  </Event>
  <Event>
    <Absolute>34237</Absolute>
    <NoteOn Channel="9" Note="57" Velocity="0"/>
  </Event>
  <Event>
    <Absolute>34258</Absolute>
    <NoteOn Channel="9" Note="59" Velocity="74"/>
  </Event>
  <Event>
    <Absolute>34274</Absolute>
    <NoteOn Channel="9" Note="66" Velocity="0"/>
  </Event>
  <Event>
    <Absolute>34319</Absolute>
    <NoteOn Channel="9" Note="59" Velocity="0"/>
  </Event>
  <Event>
    <Absolute>34321</Absolute>
    <NoteOn Channel="9" Note="71" Velocity="88"/>
  </Event>
  <Event>
    <Absolute>34325</Absolute>
    <NoteOn Channel="9" Note="57" Velocity="55"/>
  </Event>
  <Event>
    <Absolute>34358</Absolute>
    <NoteOn Channel="9" Note="62" Velocity="54"/>
  </Event>
  <Event>
    <Absolute>34385</Absolute>
    <NoteOn Channel="9" Note="62" Velocity="0"/>
  </Event>
  <Event>
    <Absolute>34388</Absolute>
    <NoteOn Channel="9" Note="61" Velocity="73"/>
  </Event>
  <Event>
    <Absolute>34415</Absolute>
    <NoteOn Channel="9" Note="61" Velocity="0"/>
  </Event>
  <Event>
    <Absolute>34418</Absolute>
    <NoteOn Channel="9" Note="58" Velocity="73"/>
  </Event>
  <Event>
    <Absolute>34424</Absolute>
    <NoteOn Channel="9" Note="71" Velocity="0"/>
  </Event>
  <Event>
    <Absolute>34445</Absolute>
    <NoteOn Channel="9" Note="58" Velocity="0"/>
  </Event>
  <Event>
    <Absolute>34448</Absolute>
    <NoteOn Channel="9" Note="57" Velocity="91"/>
  </Event>
  <Event>
    <Absolute>34463</Absolute>
    <NoteOn Channel="9" Note="57" Velocity="0"/>
  </Event>
  <Event>
    <Absolute>34478</Absolute>
    <NoteOn Channel="9" Note="58" Velocity="73"/>
  </Event>
  <Event>
    <Absolute>34505</Absolute>
    <NoteOn Channel="9" Note="58" Velocity="0"/>
  </Event>
  <Event>
    <Absolute>34508</Absolute>
    <NoteOn Channel="9" Note="61" Velocity="73"/>
  </Event>
  <Event>
    <Absolute>34535</Absolute>
    <NoteOn Channel="9" Note="61" Velocity="0"/>
  </Event>
  <Event>
    <Absolute>34538</Absolute>
    <NoteOn Channel="9" Note="62" Velocity="74"/>
  </Event>
  <Event>
    <Absolute>34565</Absolute>
    <NoteOn Channel="9" Note="62" Velocity="0"/>
  </Event>
  <Event>
    <Absolute>34568</Absolute>
    <NoteOn Channel="9" Note="57" Velocity="92"/>
  </Event>
  <Event>
    <Absolute>34571</Absolute>
    <NoteOn Channel="9" Note="57" Velocity="0"/>
  </Event>
  <Event>
    <Absolute>34571</Absolute>
    <NoteOn Channel="9" Note="57" Velocity="0"/>
  </Event>
  <Event>
    <Absolute>34598</Absolute>
    <NoteOn Channel="9" Note="58" Velocity="74"/>
  </Event>
  <Event>
    <Absolute>34625</Absolute>
    <NoteOn Channel="9" Note="58" Velocity="0"/>
  </Event>
  <Event>
    <Absolute>34628</Absolute>
    <NoteOn Channel="9" Note="61" Velocity="74"/>
  </Event>
  <Event>
    <Absolute>34655</Absolute>
    <NoteOn Channel="9" Note="61" Velocity="0"/>
  </Event>
  <Event>
    <Absolute>34658</Absolute>
    <NoteOn Channel="9" Note="62" Velocity="74"/>
  </Event>
  <Event>
    <Absolute>34685</Absolute>
    <NoteOn Channel="9" Note="62" Velocity="0"/>
  </Event>
  <Event>
    <Absolute>34718</Absolute>
    <NoteOn Channel="9" Note="62" Velocity="54"/>
  </Event>
  <Event>
    <Absolute>34745</Absolute>
    <NoteOn Channel="9" Note="62" Velocity="0"/>
  </Event>
  <Event>
    <Absolute>34748</Absolute>
    <NoteOn Channel="9" Note="61" Velocity="75"/>
  </Event>
  <Event>
    <Absolute>34775</Absolute>
    <NoteOn Channel="9" Note="61" Velocity="0"/>
  </Event>
  <Event>
    <Absolute>34778</Absolute>
    <NoteOn Channel="9" Note="58" Velocity="75"/>
  </Event>
  <Event>
    <Absolute>34805</Absolute>
    <NoteOn Channel="9" Note="58" Velocity="0"/>
  </Event>
  <Event>
    <Absolute>34808</Absolute>
    <NoteOn Channel="9" Note="57" Velocity="93"/>
  </Event>
  <Event>
    <Absolute>34835</Absolute>
    <NoteOn Channel="9" Note="57" Velocity="0"/>
  </Event>
  <Event>
    <Absolute>34838</Absolute>
    <NoteOn Channel="9" Note="58" Velocity="75"/>
  </Event>
  <Event>
    <Absolute>34865</Absolute>
    <NoteOn Channel="9" Note="58" Velocity="0"/>
  </Event>
  <Event>
    <Absolute>34868</Absolute>
    <NoteOn Channel="9" Note="61" Velocity="75"/>
  </Event>
  <Event>
    <Absolute>34895</Absolute>
    <NoteOn Channel="9" Note="61" Velocity="0"/>
  </Event>
  <Event>
    <Absolute>34898</Absolute>
    <NoteOn Channel="9" Note="62" Velocity="75"/>
  </Event>
  <Event>
    <Absolute>34925</Absolute>
    <NoteOn Channel="9" Note="62" Velocity="0"/>
  </Event>
  <Event>
    <Absolute>34928</Absolute>
    <NoteOn Channel="9" Note="64" Velocity="94"/>
  </Event>
  <Event>
    <Absolute>34955</Absolute>
    <NoteOn Channel="9" Note="64" Velocity="0"/>
  </Event>
  <Event>
    <Absolute>34958</Absolute>
    <NoteOn Channel="9" Note="66" Velocity="76"/>
  </Event>
  <Event>
    <Absolute>34985</Absolute>
    <NoteOn Channel="9" Note="66" Velocity="0"/>
  </Event>
  <Event>
    <Absolute>34988</Absolute>
    <NoteOn Channel="9" Note="67" Velocity="76"/>
  </Event>
  <Event>
    <Absolute>35015</Absolute>
    <NoteOn Channel="9" Note="67" Velocity="0"/>
  </Event>
  <Event>
    <Absolute>35018</Absolute>
    <NoteOn Channel="9" Note="69" Velocity="76"/>
  </Event>
  <Event>
    <Absolute>35045</Absolute>
    <NoteOn Channel="9" Note="69" Velocity="0"/>
  </Event>
  <Event>
    <Absolute>35138</Absolute>
    <NoteOn Channel="9" Note="62" Velocity="57"/>
  </Event>
  <Event>
    <Absolute>35165</Absolute>
    <NoteOn Channel="9" Note="62" Velocity="0"/>
  </Event>
  <Event>
    <Absolute>35168</Absolute>
    <NoteOn Channel="9" Note="62" Velocity="96"/>
  </Event>
  <Event>
    <Absolute>35195</Absolute>
    <NoteOn Channel="9" Note="62" Velocity="0"/>
  </Event>
  <Event>
    <Absolute>35198</Absolute>
    <NoteOn Channel="9" Note="64" Velocity="77"/>
  </Event>
  <Event>
    <Absolute>35225</Absolute>
    <NoteOn Channel="9" Note="64" Velocity="0"/>
  </Event>
  <Event>
    <Absolute>35228</Absolute>
    <NoteOn Channel="9" Note="66" Velocity="77"/>
  </Event>
  <Event>
    <Absolute>35255</Absolute>
    <NoteOn Channel="9" Note="66" Velocity="0"/>
  </Event>
  <Event>
    <Absolute>35258</Absolute>
    <NoteOn Channel="9" Note="67" Velocity="57"/>
  </Event>
  <Event>
    <Absolute>35285</Absolute>
    <NoteOn Channel="9" Note="67" Velocity="0"/>
  </Event>
  <Event>
    <Absolute>35288</Absolute>
    <NoteOn Channel="9" Note="67" Velocity="96"/>
  </Event>
  <Event>
    <Absolute>35315</Absolute>
    <NoteOn Channel="9" Note="67" Velocity="0"/>
  </Event>
  <Event>
    <Absolute>35318</Absolute>
    <NoteOn Channel="9" Note="69" Velocity="78"/>
  </Event>
  <Event>
    <Absolute>35345</Absolute>
    <NoteOn Channel="9" Note="69" Velocity="0"/>
  </Event>
  <Event>
    <Absolute>35348</Absolute>
    <NoteOn Channel="9" Note="70" Velocity="78"/>
  </Event>
  <Event>
    <Absolute>35375</Absolute>
    <NoteOn Channel="9" Note="70" Velocity="0"/>
  </Event>
  <Event>
    <Absolute>35378</Absolute>
    <NoteOn Channel="9" Note="72" Velocity="78"/>
  </Event>
  <Event>
    <Absolute>35405</Absolute>
    <NoteOn Channel="9" Note="72" Velocity="0"/>
  </Event>
  <Event>
    <Absolute>35438</Absolute>
    <NoteOn Channel="9" Note="73" Velocity="58"/>
  </Event>
  <Event>
    <Absolute>35465</Absolute>
    <NoteOn Channel="9" Note="73" Velocity="0"/>
  </Event>
  <Event>
    <Absolute>35468</Absolute>
    <NoteOn Channel="9" Note="72" Velocity="79"/>
  </Event>
  <Event>
    <Absolute>35495</Absolute>
    <NoteOn Channel="9" Note="72" Velocity="0"/>
  </Event>
  <Event>
    <Absolute>35498</Absolute>
    <NoteOn Channel="9" Note="70" Velocity="79"/>
  </Event>
  <Event>
    <Absolute>35525</Absolute>
    <NoteOn Channel="9" Note="70" Velocity="0"/>
  </Event>
  <Event>
    <Absolute>35528</Absolute>
    <NoteOn Channel="9" Note="62" Velocity="99"/>
  </Event>
  <Event>
    <Absolute>35555</Absolute>
    <NoteOn Channel="9" Note="62" Velocity="0"/>
  </Event>
  <Event>
    <Absolute>35618</Absolute>
    <NoteOn Channel="9" Note="69" Velocity="59"/>
  </Event>
  <Event>
    <Absolute>35645</Absolute>
    <NoteOn Channel="9" Note="69" Velocity="0"/>
  </Event>
  <Event>
    <Absolute>35648</Absolute>
    <NoteOn Channel="9" Note="73" Velocity="99"/>
  </Event>
  <Event>
    <Absolute>35675</Absolute>
    <NoteOn Channel="9" Note="73" Velocity="0"/>
  </Event>
  <Event>
    <Absolute>35678</Absolute>
    <NoteOn Channel="9" Note="72" Velocity="80"/>
  </Event>
  <Event>
    <Absolute>35705</Absolute>
    <NoteOn Channel="9" Note="72" Velocity="0"/>
  </Event>
  <Event>
    <Absolute>35708</Absolute>
    <NoteOn Channel="9" Note="70" Velocity="81"/>
  </Event>
  <Event>
    <Absolute>35735</Absolute>
    <NoteOn Channel="9" Note="70" Velocity="0"/>
  </Event>
  <Event>
    <Absolute>35738</Absolute>
    <NoteOn Channel="9" Note="62" Velocity="81"/>
  </Event>
  <Event>
    <Absolute>35765</Absolute>
    <NoteOn Channel="9" Note="62" Velocity="0"/>
  </Event>
  <Event>
    <Absolute>35858</Absolute>
    <NoteOn Channel="9" Note="62" Velocity="60"/>
  </Event>
  <Event>
    <Absolute>35885</Absolute>
    <NoteOn Channel="9" Note="62" Velocity="0"/>
  </Event>
  <Event>
    <Absolute>35888</Absolute>
    <NoteOn Channel="9" Note="62" Velocity="101"/>
  </Event>
  <Event>
    <Absolute>35915</Absolute>
    <NoteOn Channel="9" Note="62" Velocity="0"/>
  </Event>
  <Event>
    <Absolute>35918</Absolute>
    <NoteOn Channel="9" Note="64" Velocity="83"/>
  </Event>
  <Event>
    <Absolute>35945</Absolute>
    <NoteOn Channel="9" Note="64" Velocity="0"/>
  </Event>
  <Event>
    <Absolute>35948</Absolute>
    <NoteOn Channel="9" Note="66" Velocity="83"/>
  </Event>
  <Event>
    <Absolute>35975</Absolute>
    <NoteOn Channel="9" Note="66" Velocity="0"/>
  </Event>
  <Event>
    <Absolute>35978</Absolute>
    <NoteOn Channel="9" Note="67" Velocity="83"/>
  </Event>
  <Event>
    <Absolute>36005</Absolute>
    <NoteOn Channel="9" Note="67" Velocity="0"/>
  </Event>
  <Event>
    <Absolute>36008</Absolute>
    <NoteOn Channel="9" Note="69" Velocity="102"/>
  </Event>
  <Event>
    <Absolute>36035</Absolute>
    <NoteOn Channel="9" Note="69" Velocity="0"/>
  </Event>
  <Event>
    <Absolute>36038</Absolute>
    <NoteOn Channel="9" Note="70" Velocity="83"/>
  </Event>
  <Event>
    <Absolute>36065</Absolute>
    <NoteOn Channel="9" Note="70" Velocity="0"/>
  </Event>
  <Event>
    <Absolute>36068</Absolute>
    <NoteOn Channel="9" Note="72" Velocity="83"/>
  </Event>
  <Event>
    <Absolute>36095</Absolute>
    <NoteOn Channel="9" Note="72" Velocity="0"/>
  </Event>
  <Event>
    <Absolute>36098</Absolute>
    <NoteOn Channel="9" Note="73" Velocity="83"/>
  </Event>
  <Event>
    <Absolute>36125</Absolute>
    <NoteOn Channel="9" Note="73" Velocity="0"/>
  </Event>
  <Event>
    <Absolute>36158</Absolute>
    <NoteOn Channel="9" Note="73" Velocity="62"/>
  </Event>
  <Event>
    <Absolute>36185</Absolute>
    <NoteOn Channel="9" Note="73" Velocity="0"/>
  </Event>
  <Event>
    <Absolute>36188</Absolute>
    <NoteOn Channel="9" Note="72" Velocity="83"/>
  </Event>
  <Event>
    <Absolute>36215</Absolute>
    <NoteOn Channel="9" Note="72" Velocity="0"/>
  </Event>
  <Event>
    <Absolute>36218</Absolute>
    <NoteOn Channel="9" Note="70" Velocity="104"/>
  </Event>
  <Event>
    <Absolute>36245</Absolute>
    <NoteOn Channel="9" Note="70" Velocity="0"/>
  </Event>
  <Event>
    <Absolute>36278</Absolute>
    <NoteOn Channel="9" Note="73" Velocity="62"/>
  </Event>
  <Event>
    <Absolute>36305</Absolute>
    <NoteOn Channel="9" Note="73" Velocity="0"/>
  </Event>
  <Event>
    <Absolute>36308</Absolute>
    <NoteOn Channel="9" Note="72" Velocity="85"/>
  </Event>
  <Event>
    <Absolute>36335</Absolute>
    <NoteOn Channel="9" Note="72" Velocity="0"/>
  </Event>
  <Event>
    <Absolute>36338</Absolute>
    <NoteOn Channel="9" Note="70" Velocity="85"/>
  </Event>
  <Event>
    <Absolute>36365</Absolute>
    <NoteOn Channel="9" Note="70" Velocity="0"/>
  </Event>
  <Event>
    <Absolute>36368</Absolute>
    <NoteOn Channel="9" Note="62" Velocity="105"/>
  </Event>
  <Event>
    <Absolute>36395</Absolute>
    <NoteOn Channel="9" Note="62" Velocity="0"/>
  </Event>
  <Event>
    <Absolute>36458</Absolute>
    <NoteOn Channel="9" Note="62" Velocity="62"/>
  </Event>
  <Event>
    <Absolute>36485</Absolute>
    <NoteOn Channel="9" Note="62" Velocity="0"/>
  </Event>
  <Event>
    <Absolute>36488</Absolute>
    <NoteOn Channel="9" Note="67" Velocity="106"/>
  </Event>
  <Event>
    <Absolute>36515</Absolute>
    <NoteOn Channel="9" Note="67" Velocity="0"/>
  </Event>
  <Event>
    <Absolute>36518</Absolute>
    <NoteOn Channel="9" Note="69" Velocity="86"/>
  </Event>
  <Event>
    <Absolute>36545</Absolute>
    <NoteOn Channel="9" Note="69" Velocity="0"/>
  </Event>
  <Event>
    <Absolute>36548</Absolute>
    <NoteOn Channel="9" Note="70" Velocity="86"/>
  </Event>
  <Event>
    <Absolute>36575</Absolute>
    <NoteOn Channel="9" Note="70" Velocity="0"/>
  </Event>
  <Event>
    <Absolute>36578</Absolute>
    <NoteOn Channel="9" Note="72" Velocity="86"/>
  </Event>
  <Event>
    <Absolute>36605</Absolute>
    <NoteOn Channel="9" Note="72" Velocity="0"/>
  </Event>
  <Event>
    <Absolute>36668</Absolute>
    <NoteOn Channel="9" Note="67" Velocity="107"/>
  </Event>
  <Event>
    <Absolute>36695</Absolute>
    <NoteOn Channel="9" Note="67" Velocity="0"/>
  </Event>
  <Event>
    <Absolute>36698</Absolute>
    <NoteOn Channel="9" Note="69" Velocity="87"/>
  </Event>
  <Event>
    <Absolute>36725</Absolute>
    <NoteOn Channel="9" Note="69" Velocity="0"/>
  </Event>
  <Event>
    <Absolute>36728</Absolute>
    <NoteOn Channel="9" Note="70" Velocity="118"/>
  </Event>
  <Event>
    <Absolute>36755</Absolute>
    <NoteOn Channel="9" Note="70" Velocity="0"/>
  </Event>
  <Event>
    <Absolute>36758</Absolute>
    <NoteOn Channel="9" Note="72" Velocity="87"/>
  </Event>
  <Event>
    <Absolute>36785</Absolute>
    <NoteOn Channel="9" Note="72" Velocity="0"/>
  </Event>
  <Event>
    <Absolute>36788</Absolute>
    <NoteOn Channel="9" Note="73" Velocity="87"/>
  </Event>
  <Event>
    <Absolute>36815</Absolute>
    <NoteOn Channel="9" Note="73" Velocity="0"/>
  </Event>
  <Event>
    <Absolute>36818</Absolute>
    <NoteOn Channel="9" Note="75" Velocity="87"/>
  </Event>
  <Event>
    <Absolute>36845</Absolute>
    <NoteOn Channel="9" Note="75" Velocity="0"/>
  </Event>
  <Event>
    <Absolute>36845</Absolute>
    <NoteOn Channel="9" Note="70" Velocity="119"/>
  </Event>
  <Event>
    <Absolute>36872</Absolute>
    <NoteOn Channel="9" Note="70" Velocity="0"/>
  </Event>
  <Event>
    <Absolute>36878</Absolute>
    <NoteOn Channel="9" Note="69" Velocity="119"/>
  </Event>
  <Event>
    <Absolute>36905</Absolute>
    <NoteOn Channel="9" Note="69" Velocity="0"/>
  </Event>
  <Event>
    <Absolute>36908</Absolute>
    <NoteOn Channel="9" Note="67" Velocity="105"/>
  </Event>
  <Event>
    <Absolute>36935</Absolute>
    <NoteOn Channel="9" Note="67" Velocity="0"/>
  </Event>
  <Event>
    <Absolute>36938</Absolute>
    <NoteOn Channel="9" Note="65" Velocity="106"/>
  </Event>
  <Event>
    <Absolute>36965</Absolute>
    <NoteOn Channel="9" Note="65" Velocity="0"/>
  </Event>
  <Event>
    <Absolute>36968</Absolute>
    <NoteOn Channel="9" Note="70" Velocity="106"/>
  </Event>
  <Event>
    <Absolute>36995</Absolute>
    <NoteOn Channel="9" Note="70" Velocity="0"/>
  </Event>
  <Event>
    <Absolute>36998</Absolute>
    <NoteOn Channel="9" Note="69" Velocity="106"/>
  </Event>
  <Event>
    <Absolute>37025</Absolute>
    <NoteOn Channel="9" Note="69" Velocity="0"/>
  </Event>
  <Event>
    <Absolute>37028</Absolute>
    <NoteOn Channel="9" Note="67" Velocity="106"/>
  </Event>
  <Event>
    <Absolute>37055</Absolute>
    <NoteOn Channel="9" Note="67" Velocity="0"/>
  </Event>
  <Event>
    <Absolute>37058</Absolute>
    <NoteOn Channel="9" Note="65" Velocity="106"/>
  </Event>
  <Event>
    <Absolute>37085</Absolute>
    <NoteOn Channel="9" Note="65" Velocity="0"/>
  </Event>
  <Event>
    <Absolute>37088</Absolute>
    <NoteOn Channel="9" Note="70" Velocity="106"/>
  </Event>
  <Event>
    <Absolute>37115</Absolute>
    <NoteOn Channel="9" Note="70" Velocity="0"/>
  </Event>
  <Event>
    <Absolute>37118</Absolute>
    <NoteOn Channel="9" Note="69" Velocity="106"/>
  </Event>
  <Event>
    <Absolute>37145</Absolute>
    <NoteOn Channel="9" Note="69" Velocity="0"/>
  </Event>
  <Event>
    <Absolute>37148</Absolute>
    <NoteOn Channel="9" Note="67" Velocity="106"/>
  </Event>
  <Event>
    <Absolute>37175</Absolute>
    <NoteOn Channel="9" Note="67" Velocity="0"/>
  </Event>
  <Event>
    <Absolute>37178</Absolute>
    <NoteOn Channel="9" Note="65" Velocity="106"/>
  </Event>
  <Event>
    <Absolute>37205</Absolute>
    <NoteOn Channel="9" Note="65" Velocity="0"/>
  </Event>
  <Event>
    <Absolute>37208</Absolute>
    <NoteOn Channel="9" Note="75" Velocity="106"/>
  </Event>
  <Event>
    <Absolute>37235</Absolute>
    <NoteOn Channel="9" Note="75" Velocity="0"/>
  </Event>
  <Event>
    <Absolute>37238</Absolute>
    <NoteOn Channel="9" Note="74" Velocity="106"/>
  </Event>
  <Event>
    <Absolute>37265</Absolute>
    <NoteOn Channel="9" Note="74" Velocity="0"/>
  </Event>
  <Event>
    <Absolute>37268</Absolute>
    <NoteOn Channel="9" Note="72" Velocity="106"/>
  </Event>
  <Event>
    <Absolute>37295</Absolute>
    <NoteOn Channel="9" Note="72" Velocity="0"/>
  </Event>
  <Event>
    <Absolute>37298</Absolute>
    <NoteOn Channel="9" Note="70" Velocity="106"/>
  </Event>
  <Event>
    <Absolute>37325</Absolute>
    <NoteOn Channel="9" Note="70" Velocity="0"/>
  </Event>
  <Event>
    <Absolute>37328</Absolute>
    <NoteOn Channel="9" Note="70" Velocity="108"/>
  </Event>
  <Event>
    <Absolute>37355</Absolute>
    <NoteOn Channel="9" Note="70" Velocity="0"/>
  </Event>
  <Event>
    <Absolute>37358</Absolute>
    <NoteOn Channel="9" Note="69" Velocity="108"/>
  </Event>
  <Event>
    <Absolute>37385</Absolute>
    <NoteOn Channel="9" Note="69" Velocity="0"/>
  </Event>
  <Event>
    <Absolute>37388</Absolute>
    <NoteOn Channel="9" Note="67" Velocity="108"/>
  </Event>
  <Event>
    <Absolute>37415</Absolute>
    <NoteOn Channel="9" Note="67" Velocity="0"/>
  </Event>
  <Event>
    <Absolute>37418</Absolute>
    <NoteOn Channel="9" Note="65" Velocity="108"/>
  </Event>
  <Event>
    <Absolute>37445</Absolute>
    <NoteOn Channel="9" Note="65" Velocity="0"/>
  </Event>
  <Event>
    <Absolute>37448</Absolute>
    <NoteOn Channel="9" Note="70" Velocity="108"/>
  </Event>
  <Event>
    <Absolute>37475</Absolute>
    <NoteOn Channel="9" Note="70" Velocity="0"/>
  </Event>
  <Event>
    <Absolute>37478</Absolute>
    <NoteOn Channel="9" Note="69" Velocity="108"/>
  </Event>
  <Event>
    <Absolute>37505</Absolute>
    <NoteOn Channel="9" Note="69" Velocity="0"/>
  </Event>
  <Event>
    <Absolute>37508</Absolute>
    <NoteOn Channel="9" Note="67" Velocity="108"/>
  </Event>
  <Event>
    <Absolute>37535</Absolute>
    <NoteOn Channel="9" Note="67" Velocity="0"/>
  </Event>
  <Event>
    <Absolute>37538</Absolute>
    <NoteOn Channel="9" Note="65" Velocity="108"/>
  </Event>
  <Event>
    <Absolute>37565</Absolute>
    <NoteOn Channel="9" Note="65" Velocity="0"/>
  </Event>
  <Event>
    <Absolute>37568</Absolute>
    <NoteOn Channel="9" Note="70" Velocity="108"/>
  </Event>
  <Event>
    <Absolute>37595</Absolute>
    <NoteOn Channel="9" Note="70" Velocity="0"/>
  </Event>
  <Event>
    <Absolute>37598</Absolute>
    <NoteOn Channel="9" Note="69" Velocity="108"/>
  </Event>
  <Event>
    <Absolute>37625</Absolute>
    <NoteOn Channel="9" Note="69" Velocity="0"/>
  </Event>
  <Event>
    <Absolute>37628</Absolute>
    <NoteOn Channel="9" Note="67" Velocity="108"/>
  </Event>
  <Event>
    <Absolute>37655</Absolute>
    <NoteOn Channel="9" Note="67" Velocity="0"/>
  </Event>
  <Event>
    <Absolute>37658</Absolute>
    <NoteOn Channel="9" Note="65" Velocity="108"/>
  </Event>
  <Event>
    <Absolute>37685</Absolute>
    <NoteOn Channel="9" Note="65" Velocity="0"/>
  </Event>
  <Event>
    <Absolute>37688</Absolute>
    <NoteOn Channel="9" Note="75" Velocity="109"/>
  </Event>
  <Event>
    <Absolute>37715</Absolute>
    <NoteOn Channel="9" Note="75" Velocity="0"/>
  </Event>
  <Event>
    <Absolute>37718</Absolute>
    <NoteOn Channel="9" Note="74" Velocity="109"/>
  </Event>
  <Event>
    <Absolute>37745</Absolute>
    <NoteOn Channel="9" Note="74" Velocity="0"/>
  </Event>
  <Event>
    <Absolute>37748</Absolute>
    <NoteOn Channel="9" Note="72" Velocity="109"/>
  </Event>
  <Event>
    <Absolute>37775</Absolute>
    <NoteOn Channel="9" Note="72" Velocity="0"/>
  </Event>
  <Event>
    <Absolute>37778</Absolute>
    <NoteOn Channel="9" Note="70" Velocity="109"/>
  </Event>
  <Event>
    <Absolute>37805</Absolute>
    <NoteOn Channel="9" Note="70" Velocity="0"/>
  </Event>
  <Event>
    <Absolute>37808</Absolute>
    <NoteOn Channel="9" Note="70" Velocity="109"/>
  </Event>
  <Event>
    <Absolute>37835</Absolute>
    <NoteOn Channel="9" Note="70" Velocity="0"/>
  </Event>
  <Event>
    <Absolute>37838</Absolute>
    <NoteOn Channel="9" Note="69" Velocity="109"/>
  </Event>
  <Event>
    <Absolute>37865</Absolute>
    <NoteOn Channel="9" Note="69" Velocity="0"/>
  </Event>
  <Event>
    <Absolute>37868</Absolute>
    <NoteOn Channel="9" Note="67" Velocity="109"/>
  </Event>
  <Event>
    <Absolute>37895</Absolute>
    <NoteOn Channel="9" Note="67" Velocity="0"/>
  </Event>
  <Event>
    <Absolute>37898</Absolute>
    <NoteOn Channel="9" Note="65" Velocity="109"/>
  </Event>
  <Event>
    <Absolute>37925</Absolute>
    <NoteOn Channel="9" Note="65" Velocity="0"/>
  </Event>
  <Event>
    <Absolute>37928</Absolute>
    <NoteOn Channel="9" Note="70" Velocity="109"/>
  </Event>
  <Event>
    <Absolute>37955</Absolute>
    <NoteOn Channel="9" Note="70" Velocity="0"/>
  </Event>
  <Event>
    <Absolute>37958</Absolute>
    <NoteOn Channel="9" Note="69" Velocity="109"/>
  </Event>
  <Event>
    <Absolute>37985</Absolute>
    <NoteOn Channel="9" Note="69" Velocity="0"/>
  </Event>
  <Event>
    <Absolute>37988</Absolute>
    <NoteOn Channel="9" Note="67" Velocity="109"/>
  </Event>
  <Event>
    <Absolute>38015</Absolute>
    <NoteOn Channel="9" Note="67" Velocity="0"/>
  </Event>
  <Event>
    <Absolute>38018</Absolute>
    <NoteOn Channel="9" Note="65" Velocity="109"/>
  </Event>
  <Event>
    <Absolute>38045</Absolute>
    <NoteOn Channel="9" Note="65" Velocity="0"/>
  </Event>
  <Event>
    <Absolute>38048</Absolute>
    <NoteOn Channel="9" Note="70" Velocity="109"/>
  </Event>
  <Event>
    <Absolute>38075</Absolute>
    <NoteOn Channel="9" Note="70" Velocity="0"/>
  </Event>
  <Event>
    <Absolute>38078</Absolute>
    <NoteOn Channel="9" Note="69" Velocity="110"/>
  </Event>
  <Event>
    <Absolute>38105</Absolute>
    <NoteOn Channel="9" Note="69" Velocity="0"/>
  </Event>
  <Event>
    <Absolute>38108</Absolute>
    <NoteOn Channel="9" Note="67" Velocity="110"/>
  </Event>
  <Event>
    <Absolute>38135</Absolute>
    <NoteOn Channel="9" Note="67" Velocity="0"/>
  </Event>
  <Event>
    <Absolute>38138</Absolute>
    <NoteOn Channel="9" Note="65" Velocity="110"/>
  </Event>
  <Event>
    <Absolute>38165</Absolute>
    <NoteOn Channel="9" Note="65" Velocity="0"/>
  </Event>
  <Event>
    <Absolute>38168</Absolute>
    <NoteOn Channel="9" Note="75" Velocity="110"/>
  </Event>
  <Event>
    <Absolute>38195</Absolute>
    <NoteOn Channel="9" Note="75" Velocity="0"/>
  </Event>
  <Event>
    <Absolute>38198</Absolute>
    <NoteOn Channel="9" Note="74" Velocity="110"/>
  </Event>
  <Event>
    <Absolute>38225</Absolute>
    <NoteOn Channel="9" Note="74" Velocity="0"/>
  </Event>
  <Event>
    <Absolute>38228</Absolute>
    <NoteOn Channel="9" Note="72" Velocity="110"/>
  </Event>
  <Event>
    <Absolute>38255</Absolute>
    <NoteOn Channel="9" Note="72" Velocity="0"/>
  </Event>
  <Event>
    <Absolute>38258</Absolute>
    <NoteOn Channel="9" Note="70" Velocity="110"/>
  </Event>
  <Event>
    <Absolute>38285</Absolute>
    <NoteOn Channel="9" Note="70" Velocity="0"/>
  </Event>
  <Event>
    <Absolute>38288</Absolute>
    <NoteOn Channel="9" Note="70" Velocity="110"/>
  </Event>
  <Event>
    <Absolute>38315</Absolute>
    <NoteOn Channel="9" Note="70" Velocity="0"/>
  </Event>
  <Event>
    <Absolute>38318</Absolute>
    <NoteOn Channel="9" Note="69" Velocity="110"/>
  </Event>
  <Event>
    <Absolute>38345</Absolute>
    <NoteOn Channel="9" Note="69" Velocity="0"/>
  </Event>
  <Event>
    <Absolute>38348</Absolute>
    <NoteOn Channel="9" Note="67" Velocity="110"/>
  </Event>
  <Event>
    <Absolute>38375</Absolute>
    <NoteOn Channel="9" Note="67" Velocity="0"/>
  </Event>
  <Event>
    <Absolute>38378</Absolute>
    <NoteOn Channel="9" Note="65" Velocity="110"/>
  </Event>
  <Event>
    <Absolute>38405</Absolute>
    <NoteOn Channel="9" Note="65" Velocity="0"/>
  </Event>
  <Event>
    <Absolute>38408</Absolute>
    <NoteOn Channel="9" Note="70" Velocity="110"/>
  </Event>
  <Event>
    <Absolute>38435</Absolute>
    <NoteOn Channel="9" Note="70" Velocity="0"/>
  </Event>
  <Event>
    <Absolute>38438</Absolute>
    <NoteOn Channel="9" Note="69" Velocity="111"/>
  </Event>
  <Event>
    <Absolute>38465</Absolute>
    <NoteOn Channel="9" Note="69" Velocity="0"/>
  </Event>
  <Event>
    <Absolute>38468</Absolute>
    <NoteOn Channel="9" Note="67" Velocity="111"/>
  </Event>
  <Event>
    <Absolute>38495</Absolute>
    <NoteOn Channel="9" Note="67" Velocity="0"/>
  </Event>
  <Event>
    <Absolute>38498</Absolute>
    <NoteOn Channel="9" Note="65" Velocity="111"/>
  </Event>
  <Event>
    <Absolute>38525</Absolute>
    <NoteOn Channel="9" Note="65" Velocity="0"/>
  </Event>
  <Event>
    <Absolute>38528</Absolute>
    <NoteOn Channel="9" Note="70" Velocity="111"/>
  </Event>
  <Event>
    <Absolute>38555</Absolute>
    <NoteOn Channel="9" Note="70" Velocity="0"/>
  </Event>
  <Event>
    <Absolute>38558</Absolute>
    <NoteOn Channel="9" Note="69" Velocity="111"/>
  </Event>
  <Event>
    <Absolute>38585</Absolute>
    <NoteOn Channel="9" Note="69" Velocity="0"/>
  </Event>
  <Event>
    <Absolute>38588</Absolute>
    <NoteOn Channel="9" Note="67" Velocity="111"/>
  </Event>
  <Event>
    <Absolute>38615</Absolute>
    <NoteOn Channel="9" Note="67" Velocity="0"/>
  </Event>
  <Event>
    <Absolute>38618</Absolute>
    <NoteOn Channel="9" Note="65" Velocity="111"/>
  </Event>
  <Event>
    <Absolute>38645</Absolute>
    <NoteOn Channel="9" Note="65" Velocity="0"/>
  </Event>
  <Event>
    <Absolute>38648</Absolute>
    <NoteOn Channel="9" Note="75" Velocity="111"/>
  </Event>
  <Event>
    <Absolute>38675</Absolute>
    <NoteOn Channel="9" Note="75" Velocity="0"/>
  </Event>
  <Event>
    <Absolute>38678</Absolute>
    <NoteOn Channel="9" Note="74" Velocity="88"/>
  </Event>
  <Event>
    <Absolute>38705</Absolute>
    <NoteOn Channel="9" Note="74" Velocity="0"/>
  </Event>
  <Event>
    <Absolute>38708</Absolute>
    <NoteOn Channel="9" Note="72" Velocity="88"/>
  </Event>
  <Event>
    <Absolute>38735</Absolute>
    <NoteOn Channel="9" Note="72" Velocity="0"/>
  </Event>
  <Event>
    <Absolute>38738</Absolute>
    <NoteOn Channel="9" Note="70" Velocity="88"/>
  </Event>
  <Event>
    <Absolute>38765</Absolute>
    <NoteOn Channel="9" Note="70" Velocity="0"/>
  </Event>
  <Event>
    <Absolute>38770</Absolute>
    <NoteOn Channel="9" Note="57" Velocity="88"/>
  </Event>
  <Event>
    <Absolute>38797</Absolute>
    <NoteOn Channel="9" Note="57" Velocity="0"/>
  </Event>
  <Event>
    <Absolute>38798</Absolute>
    <NoteOn Channel="9" Note="58" Velocity="89"/>
  </Event>
  <Event>
    <Absolute>38825</Absolute>
    <NoteOn Channel="9" Note="58" Velocity="0"/>
  </Event>
  <Event>
    <Absolute>38833</Absolute>
    <NoteOn Channel="9" Note="59" Velocity="89"/>
  </Event>
  <Event>
    <Absolute>38860</Absolute>
    <NoteOn Channel="9" Note="59" Velocity="0"/>
  </Event>
  <Event>
    <Absolute>38863</Absolute>
    <NoteOn Channel="9" Note="61" Velocity="91"/>
  </Event>
  <Event>
    <Absolute>38888</Absolute>
    <NoteOn Channel="9" Note="59" Velocity="91"/>
  </Event>
  <Event>
    <Absolute>38890</Absolute>
    <NoteOn Channel="9" Note="61" Velocity="0"/>
  </Event>
  <Event>
    <Absolute>38915</Absolute>
    <NoteOn Channel="9" Note="59" Velocity="0"/>
  </Event>
  <Event>
    <Absolute>38918</Absolute>
    <NoteOn Channel="9" Note="58" Velocity="91"/>
  </Event>
  <Event>
    <Absolute>38945</Absolute>
    <NoteOn Channel="9" Note="58" Velocity="0"/>
  </Event>
  <Event>
    <Absolute>38948</Absolute>
    <NoteOn Channel="9" Note="56" Velocity="91"/>
  </Event>
  <Event>
    <Absolute>38975</Absolute>
    <NoteOn Channel="9" Note="56" Velocity="0"/>
  </Event>
  <Event>
    <Absolute>38978</Absolute>
    <NoteOn Channel="9" Note="54" Velocity="91"/>
  </Event>
  <Event>
    <Absolute>39005</Absolute>
    <NoteOn Channel="9" Note="54" Velocity="0"/>
  </Event>
  <Event>
    <Absolute>39008</Absolute>
    <NoteOn Channel="9" Note="59" Velocity="91"/>
  </Event>
  <Event>
    <Absolute>39035</Absolute>
    <NoteOn Channel="9" Note="59" Velocity="0"/>
  </Event>
  <Event>
    <Absolute>39038</Absolute>
    <NoteOn Channel="9" Note="61" Velocity="93"/>
  </Event>
  <Event>
    <Absolute>39065</Absolute>
    <NoteOn Channel="9" Note="61" Velocity="0"/>
  </Event>
  <Event>
    <Absolute>39068</Absolute>
    <NoteOn Channel="9" Note="63" Velocity="93"/>
  </Event>
  <Event>
    <Absolute>39095</Absolute>
    <NoteOn Channel="9" Note="63" Velocity="0"/>
  </Event>
  <Event>
    <Absolute>39098</Absolute>
    <NoteOn Channel="9" Note="66" Velocity="93"/>
  </Event>
  <Event>
    <Absolute>39125</Absolute>
    <NoteOn Channel="9" Note="66" Velocity="0"/>
  </Event>
  <Event>
    <Absolute>39128</Absolute>
    <NoteOn Channel="9" Note="64" Velocity="93"/>
  </Event>
  <Event>
    <Absolute>39155</Absolute>
    <NoteOn Channel="9" Note="64" Velocity="0"/>
  </Event>
  <Event>
    <Absolute>39158</Absolute>
    <NoteOn Channel="9" Note="63" Velocity="93"/>
  </Event>
  <Event>
    <Absolute>39185</Absolute>
    <NoteOn Channel="9" Note="63" Velocity="0"/>
  </Event>
  <Event>
    <Absolute>39188</Absolute>
    <NoteOn Channel="9" Note="61" Velocity="93"/>
  </Event>
  <Event>
    <Absolute>39215</Absolute>
    <NoteOn Channel="9" Note="61" Velocity="0"/>
  </Event>
  <Event>
    <Absolute>39218</Absolute>
    <NoteOn Channel="9" Note="59" Velocity="95"/>
  </Event>
  <Event>
    <Absolute>39245</Absolute>
    <NoteOn Channel="9" Note="59" Velocity="0"/>
  </Event>
  <Event>
    <Absolute>39253</Absolute>
    <NoteOn Channel="9" Note="83" Velocity="70"/>
  </Event>
  <Event>
    <Absolute>39258</Absolute>
    <NoteOn Channel="9" Note="61" Velocity="95"/>
  </Event>
  <Event>
    <Absolute>39283</Absolute>
    <NoteOn Channel="9" Note="63" Velocity="95"/>
  </Event>
  <Event>
    <Absolute>39285</Absolute>
    <NoteOn Channel="9" Note="61" Velocity="0"/>
  </Event>
  <Event>
    <Absolute>39310</Absolute>
    <NoteOn Channel="9" Note="63" Velocity="0"/>
  </Event>
  <Event>
    <Absolute>39313</Absolute>
    <NoteOn Channel="9" Note="83" Velocity="0"/>
  </Event>
  <Event>
    <Absolute>39313</Absolute>
    <NoteOn Channel="9" Note="64" Velocity="95"/>
  </Event>
  <Event>
    <Absolute>39332</Absolute>
    <NoteOn Channel="9" Note="85" Velocity="70"/>
  </Event>
  <Event>
    <Absolute>39340</Absolute>
    <NoteOn Channel="9" Note="64" Velocity="0"/>
  </Event>
  <Event>
    <Absolute>39343</Absolute>
    <NoteOn Channel="9" Note="68" Velocity="95"/>
  </Event>
  <Event>
    <Absolute>39350</Absolute>
    <NoteOn Channel="9" Note="87" Velocity="70"/>
  </Event>
  <Event>
    <Absolute>39353</Absolute>
    <NoteOn Channel="9" Note="85" Velocity="0"/>
  </Event>
  <Event>
    <Absolute>39358</Absolute>
    <NoteOn Channel="9" Note="88" Velocity="70"/>
  </Event>
  <Event>
    <Absolute>39365</Absolute>
    <NoteOn Channel="9" Note="87" Velocity="0"/>
  </Event>
  <Event>
    <Absolute>39370</Absolute>
    <NoteOn Channel="9" Note="68" Velocity="0"/>
  </Event>
  <Event>
    <Absolute>39372</Absolute>
    <NoteOn Channel="9" Note="90" Velocity="72"/>
  </Event>
  <Event>
    <Absolute>39373</Absolute>
    <NoteOn Channel="9" Note="66" Velocity="97"/>
  </Event>
  <Event>
    <Absolute>39376</Absolute>
    <NoteOn Channel="9" Note="88" Velocity="0"/>
  </Event>
  <Event>
    <Absolute>39389</Absolute>
    <NoteOn Channel="9" Note="90" Velocity="0"/>
  </Event>
  <Event>
    <Absolute>39400</Absolute>
    <NoteOn Channel="9" Note="66" Velocity="0"/>
  </Event>
  <Event>
    <Absolute>39403</Absolute>
    <NoteOn Channel="9" Note="63" Velocity="97"/>
  </Event>
  <Event>
    <Absolute>39430</Absolute>
    <NoteOn Channel="9" Note="63" Velocity="0"/>
  </Event>
  <Event>
    <Absolute>39433</Absolute>
    <NoteOn Channel="9" Note="61" Velocity="97"/>
  </Event>
  <Event>
    <Absolute>39460</Absolute>
    <NoteOn Channel="9" Note="61" Velocity="0"/>
  </Event>
  <Event>
    <Absolute>39463</Absolute>
    <NoteOn Channel="9" Note="63" Velocity="97"/>
  </Event>
  <Event>
    <Absolute>39490</Absolute>
    <NoteOn Channel="9" Note="63" Velocity="0"/>
  </Event>
  <Event>
    <Absolute>39493</Absolute>
    <NoteOn Channel="9" Note="64" Velocity="97"/>
  </Event>
  <Event>
    <Absolute>39520</Absolute>
    <NoteOn Channel="9" Note="64" Velocity="0"/>
  </Event>
  <Event>
    <Absolute>39523</Absolute>
    <NoteOn Channel="9" Note="70" Velocity="97"/>
  </Event>
  <Event>
    <Absolute>39550</Absolute>
    <NoteOn Channel="9" Note="70" Velocity="0"/>
  </Event>
  <Event>
    <Absolute>39553</Absolute>
    <NoteOn Channel="9" Note="73" Velocity="99"/>
  </Event>
  <Event>
    <Absolute>39580</Absolute>
    <NoteOn Channel="9" Note="73" Velocity="0"/>
  </Event>
  <Event>
    <Absolute>39583</Absolute>
    <NoteOn Channel="9" Note="71" Velocity="99"/>
  </Event>
  <Event>
    <Absolute>39610</Absolute>
    <NoteOn Channel="9" Note="71" Velocity="0"/>
  </Event>
  <Event>
    <Absolute>39613</Absolute>
    <NoteOn Channel="9" Note="70" Velocity="99"/>
  </Event>
  <Event>
    <Absolute>39640</Absolute>
    <NoteOn Channel="9" Note="70" Velocity="0"/>
  </Event>
  <Event>
    <Absolute>39643</Absolute>
    <NoteOn Channel="9" Note="68" Velocity="99"/>
  </Event>
  <Event>
    <Absolute>39670</Absolute>
    <NoteOn Channel="9" Note="68" Velocity="0"/>
  </Event>
  <Event>
    <Absolute>39673</Absolute>
    <NoteOn Channel="9" Note="66" Velocity="99"/>
  </Event>
  <Event>
    <Absolute>39700</Absolute>
    <NoteOn Channel="9" Note="66" Velocity="0"/>
  </Event>
  <Event>
    <Absolute>39703</Absolute>
    <NoteOn Channel="9" Note="64" Velocity="99"/>
  </Event>
  <Event>
    <Absolute>39730</Absolute>
    <NoteOn Channel="9" Note="64" Velocity="0"/>
  </Event>
  <Event>
    <Absolute>39733</Absolute>
    <NoteOn Channel="9" Note="71" Velocity="101"/>
  </Event>
  <Event>
    <Absolute>39733</Absolute>
    <NoteOn Channel="9" Note="63" Velocity="101"/>
  </Event>
  <Event>
    <Absolute>39758</Absolute>
    <NoteOn Channel="9" Note="70" Velocity="101"/>
  </Event>
  <Event>
    <Absolute>39760</Absolute>
    <NoteOn Channel="9" Note="63" Velocity="0"/>
  </Event>
  <Event>
    <Absolute>39760</Absolute>
    <NoteOn Channel="9" Note="71" Velocity="0"/>
  </Event>
  <Event>
    <Absolute>39763</Absolute>
    <NoteOn Channel="9" Note="66" Velocity="101"/>
  </Event>
  <Event>
    <Absolute>39785</Absolute>
    <NoteOn Channel="9" Note="70" Velocity="0"/>
  </Event>
  <Event>
    <Absolute>39788</Absolute>
    <NoteOn Channel="9" Note="68" Velocity="101"/>
  </Event>
  <Event>
    <Absolute>39790</Absolute>
    <NoteOn Channel="9" Note="66" Velocity="0"/>
  </Event>
  <Event>
    <Absolute>39793</Absolute>
    <NoteOn Channel="9" Note="64" Velocity="101"/>
  </Event>
  <Event>
    <Absolute>39815</Absolute>
    <NoteOn Channel="9" Note="68" Velocity="0"/>
  </Event>
  <Event>
    <Absolute>39818</Absolute>
    <NoteOn Channel="9" Note="66" Velocity="101"/>
  </Event>
  <Event>
    <Absolute>39820</Absolute>
    <NoteOn Channel="9" Note="64" Velocity="0"/>
  </Event>
  <Event>
    <Absolute>39823</Absolute>
    <NoteOn Channel="9" Note="63" Velocity="101"/>
  </Event>
  <Event>
    <Absolute>39845</Absolute>
    <NoteOn Channel="9" Note="66" Velocity="0"/>
  </Event>
  <Event>
    <Absolute>39845</Absolute>
    <NoteOn Channel="9" Note="76" Velocity="101"/>
  </Event>
  <Event>
    <Absolute>39848</Absolute>
    <NoteOn Channel="9" Note="71" Velocity="101"/>
  </Event>
  <Event>
    <Absolute>39850</Absolute>
    <NoteOn Channel="9" Note="63" Velocity="0"/>
  </Event>
  <Event>
    <Absolute>39851</Absolute>
    <NoteOn Channel="9" Note="78" Velocity="101"/>
  </Event>
  <Event>
    <Absolute>39853</Absolute>
    <NoteOn Channel="9" Note="61" Velocity="101"/>
  </Event>
  <Event>
    <Absolute>39858</Absolute>
    <NoteOn Channel="9" Note="76" Velocity="0"/>
  </Event>
  <Event>
    <Absolute>39867</Absolute>
    <NoteOn Channel="9" Note="78" Velocity="0"/>
  </Event>
  <Event>
    <Absolute>39875</Absolute>
    <NoteOn Channel="9" Note="71" Velocity="0"/>
  </Event>
  <Event>
    <Absolute>39878</Absolute>
    <NoteOn Channel="9" Note="70" Velocity="101"/>
  </Event>
  <Event>
    <Absolute>39880</Absolute>
    <NoteOn Channel="9" Note="61" Velocity="0"/>
  </Event>
  <Event>
    <Absolute>39883</Absolute>
    <NoteOn Channel="9" Note="59" Velocity="101"/>
  </Event>
  <Event>
    <Absolute>39905</Absolute>
    <NoteOn Channel="9" Note="70" Velocity="0"/>
  </Event>
  <Event>
    <Absolute>39908</Absolute>
    <NoteOn Channel="9" Note="68" Velocity="104"/>
  </Event>
  <Event>
    <Absolute>39910</Absolute>
    <NoteOn Channel="9" Note="59" Velocity="0"/>
  </Event>
  <Event>
    <Absolute>39913</Absolute>
    <NoteOn Channel="9" Note="58" Velocity="104"/>
  </Event>
  <Event>
    <Absolute>39935</Absolute>
    <NoteOn Channel="9" Note="68" Velocity="0"/>
  </Event>
  <Event>
    <Absolute>39938</Absolute>
    <NoteOn Channel="9" Note="66" Velocity="102"/>
  </Event>
  <Event>
    <Absolute>39940</Absolute>
    <NoteOn Channel="9" Note="58" Velocity="0"/>
  </Event>
  <Event>
    <Absolute>39943</Absolute>
    <NoteOn Channel="9" Note="56" Velocity="104"/>
  </Event>
  <Event>
    <Absolute>39965</Absolute>
    <NoteOn Channel="9" Note="66" Velocity="0"/>
  </Event>
  <Event>
    <Absolute>39968</Absolute>
    <NoteOn Channel="9" Note="71" Velocity="104"/>
  </Event>
  <Event>
    <Absolute>39970</Absolute>
    <NoteOn Channel="9" Note="56" Velocity="0"/>
  </Event>
  <Event>
    <Absolute>39973</Absolute>
    <NoteOn Channel="9" Note="63" Velocity="104"/>
  </Event>
  <Event>
    <Absolute>39995</Absolute>
    <NoteOn Channel="9" Note="71" Velocity="0"/>
  </Event>
  <Event>
    <Absolute>39998</Absolute>
    <NoteOn Channel="9" Note="70" Velocity="85"/>
  </Event>
  <Event>
    <Absolute>39998</Absolute>
    <NoteOn Channel="9" Note="61" Velocity="104"/>
  </Event>
  <Event>
    <Absolute>40000</Absolute>
    <NoteOn Channel="9" Note="63" Velocity="0"/>
  </Event>
  <Event>
    <Absolute>40025</Absolute>
    <NoteOn Channel="9" Note="61" Velocity="0"/>
  </Event>
  <Event>
    <Absolute>40025</Absolute>
    <NoteOn Channel="9" Note="70" Velocity="0"/>
  </Event>
  <Event>
    <Absolute>40028</Absolute>
    <NoteOn Channel="9" Note="68" Velocity="85"/>
  </Event>
  <Event>
    <Absolute>40028</Absolute>
    <NoteOn Channel="9" Note="59" Velocity="104"/>
  </Event>
  <Event>
    <Absolute>40055</Absolute>
    <NoteOn Channel="9" Note="59" Velocity="0"/>
  </Event>
  <Event>
    <Absolute>40055</Absolute>
    <NoteOn Channel="9" Note="68" Velocity="0"/>
  </Event>
  <Event>
    <Absolute>40058</Absolute>
    <NoteOn Channel="9" Note="66" Velocity="85"/>
  </Event>
  <Event>
    <Absolute>40058</Absolute>
    <NoteOn Channel="9" Note="58" Velocity="104"/>
  </Event>
  <Event>
    <Absolute>40085</Absolute>
    <NoteOn Channel="9" Note="58" Velocity="0"/>
  </Event>
  <Event>
    <Absolute>40085</Absolute>
    <NoteOn Channel="9" Note="66" Velocity="0"/>
  </Event>
  <Event>
    <Absolute>40088</Absolute>
    <NoteOn Channel="9" Note="76" Velocity="106"/>
  </Event>
  <Event>
    <Absolute>40093</Absolute>
    <NoteOn Channel="9" Note="68" Velocity="106"/>
  </Event>
  <Event>
    <Absolute>40115</Absolute>
    <NoteOn Channel="9" Note="76" Velocity="0"/>
  </Event>
  <Event>
    <Absolute>40118</Absolute>
    <NoteOn Channel="9" Note="75" Velocity="87"/>
  </Event>
  <Event>
    <Absolute>40118</Absolute>
    <NoteOn Channel="9" Note="66" Velocity="106"/>
  </Event>
  <Event>
    <Absolute>40120</Absolute>
    <NoteOn Channel="9" Note="68" Velocity="0"/>
  </Event>
  <Event>
    <Absolute>40145</Absolute>
    <NoteOn Channel="9" Note="66" Velocity="0"/>
  </Event>
  <Event>
    <Absolute>40145</Absolute>
    <NoteOn Channel="9" Note="75" Velocity="0"/>
  </Event>
  <Event>
    <Absolute>40148</Absolute>
    <NoteOn Channel="9" Note="73" Velocity="87"/>
  </Event>
  <Event>
    <Absolute>40148</Absolute>
    <NoteOn Channel="9" Note="64" Velocity="106"/>
  </Event>
  <Event>
    <Absolute>40175</Absolute>
    <NoteOn Channel="9" Note="64" Velocity="0"/>
  </Event>
  <Event>
    <Absolute>40175</Absolute>
    <NoteOn Channel="9" Note="73" Velocity="0"/>
  </Event>
  <Event>
    <Absolute>40178</Absolute>
    <NoteOn Channel="9" Note="71" Velocity="87"/>
  </Event>
  <Event>
    <Absolute>40183</Absolute>
    <NoteOn Channel="9" Note="66" Velocity="106"/>
  </Event>
  <Event>
    <Absolute>40203</Absolute>
    <NoteOn Channel="9" Note="63" Velocity="106"/>
  </Event>
  <Event>
    <Absolute>40205</Absolute>
    <NoteOn Channel="9" Note="71" Velocity="0"/>
  </Event>
  <Event>
    <Absolute>40208</Absolute>
    <NoteOn Channel="9" Note="71" Velocity="106"/>
  </Event>
  <Event>
    <Absolute>40210</Absolute>
    <NoteOn Channel="9" Note="66" Velocity="0"/>
  </Event>
  <Event>
    <Absolute>40230</Absolute>
    <NoteOn Channel="9" Note="63" Velocity="0"/>
  </Event>
  <Event>
    <Absolute>40235</Absolute>
    <NoteOn Channel="9" Note="71" Velocity="0"/>
  </Event>
  <Event>
    <Absolute>40238</Absolute>
    <NoteOn Channel="9" Note="70" Velocity="87"/>
  </Event>
  <Event>
    <Absolute>40238</Absolute>
    <NoteOn Channel="9" Note="61" Velocity="106"/>
  </Event>
  <Event>
    <Absolute>40265</Absolute>
    <NoteOn Channel="9" Note="61" Velocity="0"/>
  </Event>
  <Event>
    <Absolute>40265</Absolute>
    <NoteOn Channel="9" Note="70" Velocity="0"/>
  </Event>
  <Event>
    <Absolute>40268</Absolute>
    <NoteOn Channel="9" Note="68" Velocity="89"/>
  </Event>
  <Event>
    <Absolute>40268</Absolute>
    <NoteOn Channel="9" Note="59" Velocity="108"/>
  </Event>
  <Event>
    <Absolute>40295</Absolute>
    <NoteOn Channel="9" Note="59" Velocity="0"/>
  </Event>
  <Event>
    <Absolute>40295</Absolute>
    <NoteOn Channel="9" Note="68" Velocity="0"/>
  </Event>
  <Event>
    <Absolute>40298</Absolute>
    <NoteOn Channel="9" Note="66" Velocity="89"/>
  </Event>
  <Event>
    <Absolute>40298</Absolute>
    <NoteOn Channel="9" Note="58" Velocity="108"/>
  </Event>
  <Event>
    <Absolute>40314</Absolute>
    <NoteOn Channel="9" Note="78" Velocity="108"/>
  </Event>
  <Event>
    <Absolute>40321</Absolute>
    <NoteOn Channel="9" Note="80" Velocity="108"/>
  </Event>
  <Event>
    <Absolute>40325</Absolute>
    <NoteOn Channel="9" Note="78" Velocity="0"/>
  </Event>
  <Event>
    <Absolute>40325</Absolute>
    <NoteOn Channel="9" Note="66" Velocity="0"/>
  </Event>
  <Event>
    <Absolute>40325</Absolute>
    <NoteOn Channel="9" Note="58" Velocity="0"/>
  </Event>
  <Event>
    <Absolute>40326</Absolute>
    <NoteOn Channel="9" Note="82" Velocity="108"/>
  </Event>
  <Event>
    <Absolute>40328</Absolute>
    <NoteOn Channel="9" Note="71" Velocity="108"/>
  </Event>
  <Event>
    <Absolute>40332</Absolute>
    <NoteOn Channel="9" Note="80" Velocity="0"/>
  </Event>
  <Event>
    <Absolute>40333</Absolute>
    <NoteOn Channel="9" Note="63" Velocity="108"/>
  </Event>
  <Event>
    <Absolute>40334</Absolute>
    <NoteOn Channel="9" Note="83" Velocity="108"/>
  </Event>
  <Event>
    <Absolute>40339</Absolute>
    <NoteOn Channel="9" Note="82" Velocity="0"/>
  </Event>
  <Event>
    <Absolute>40352</Absolute>
    <NoteOn Channel="9" Note="83" Velocity="0"/>
  </Event>
  <Event>
    <Absolute>40355</Absolute>
    <NoteOn Channel="9" Note="71" Velocity="0"/>
  </Event>
  <Event>
    <Absolute>40358</Absolute>
    <NoteOn Channel="9" Note="70" Velocity="89"/>
  </Event>
  <Event>
    <Absolute>40358</Absolute>
    <NoteOn Channel="9" Note="61" Velocity="108"/>
  </Event>
  <Event>
    <Absolute>40360</Absolute>
    <NoteOn Channel="9" Note="63" Velocity="0"/>
  </Event>
  <Event>
    <Absolute>40385</Absolute>
    <NoteOn Channel="9" Note="61" Velocity="0"/>
  </Event>
  <Event>
    <Absolute>40385</Absolute>
    <NoteOn Channel="9" Note="70" Velocity="0"/>
  </Event>
  <Event>
    <Absolute>40388</Absolute>
    <NoteOn Channel="9" Note="68" Velocity="89"/>
  </Event>
  <Event>
    <Absolute>40388</Absolute>
    <NoteOn Channel="9" Note="59" Velocity="108"/>
  </Event>
  <Event>
    <Absolute>40415</Absolute>
    <NoteOn Channel="9" Note="59" Velocity="0"/>
  </Event>
  <Event>
    <Absolute>40415</Absolute>
    <NoteOn Channel="9" Note="68" Velocity="0"/>
  </Event>
  <Event>
    <Absolute>40418</Absolute>
    <NoteOn Channel="9" Note="66" Velocity="89"/>
  </Event>
  <Event>
    <Absolute>40418</Absolute>
    <NoteOn Channel="9" Note="58" Velocity="108"/>
  </Event>
  <Event>
    <Absolute>40445</Absolute>
    <NoteOn Channel="9" Note="58" Velocity="0"/>
  </Event>
  <Event>
    <Absolute>40445</Absolute>
    <NoteOn Channel="9" Note="66" Velocity="0"/>
  </Event>
  <Event>
    <Absolute>40448</Absolute>
    <NoteOn Channel="9" Note="71" Velocity="110"/>
  </Event>
  <Event>
    <Absolute>40448</Absolute>
    <NoteOn Channel="9" Note="63" Velocity="110"/>
  </Event>
  <Event>
    <Absolute>40475</Absolute>
    <NoteOn Channel="9" Note="63" Velocity="0"/>
  </Event>
  <Event>
    <Absolute>40475</Absolute>
    <NoteOn Channel="9" Note="71" Velocity="0"/>
  </Event>
  <Event>
    <Absolute>40478</Absolute>
    <NoteOn Channel="9" Note="70" Velocity="91"/>
  </Event>
  <Event>
    <Absolute>40478</Absolute>
    <NoteOn Channel="9" Note="61" Velocity="110"/>
  </Event>
  <Event>
    <Absolute>40505</Absolute>
    <NoteOn Channel="9" Note="61" Velocity="0"/>
  </Event>
  <Event>
    <Absolute>40505</Absolute>
    <NoteOn Channel="9" Note="70" Velocity="0"/>
  </Event>
  <Event>
    <Absolute>40508</Absolute>
    <NoteOn Channel="9" Note="68" Velocity="91"/>
  </Event>
  <Event>
    <Absolute>40508</Absolute>
    <NoteOn Channel="9" Note="59" Velocity="110"/>
  </Event>
  <Event>
    <Absolute>40535</Absolute>
    <NoteOn Channel="9" Note="59" Velocity="0"/>
  </Event>
  <Event>
    <Absolute>40535</Absolute>
    <NoteOn Channel="9" Note="68" Velocity="0"/>
  </Event>
  <Event>
    <Absolute>40538</Absolute>
    <NoteOn Channel="9" Note="66" Velocity="91"/>
  </Event>
  <Event>
    <Absolute>40538</Absolute>
    <NoteOn Channel="9" Note="78" Velocity="110"/>
  </Event>
  <Event>
    <Absolute>40538</Absolute>
    <NoteOn Channel="9" Note="58" Velocity="110"/>
  </Event>
  <Event>
    <Absolute>40547</Absolute>
    <NoteOn Channel="9" Note="80" Velocity="110"/>
  </Event>
  <Event>
    <Absolute>40549</Absolute>
    <NoteOn Channel="9" Note="78" Velocity="0"/>
  </Event>
  <Event>
    <Absolute>40561</Absolute>
    <NoteOn Channel="9" Note="82" Velocity="110"/>
  </Event>
  <Event>
    <Absolute>40562</Absolute>
    <NoteOn Channel="9" Note="80" Velocity="0"/>
  </Event>
  <Event>
    <Absolute>40565</Absolute>
    <NoteOn Channel="9" Note="66" Velocity="0"/>
  </Event>
  <Event>
    <Absolute>40565</Absolute>
    <NoteOn Channel="9" Note="58" Velocity="0"/>
  </Event>
  <Event>
    <Absolute>40568</Absolute>
    <NoteOn Channel="9" Note="76" Velocity="110"/>
  </Event>
  <Event>
    <Absolute>40568</Absolute>
    <NoteOn Channel="9" Note="68" Velocity="110"/>
  </Event>
  <Event>
    <Absolute>40573</Absolute>
    <NoteOn Channel="9" Note="83" Velocity="110"/>
  </Event>
  <Event>
    <Absolute>40574</Absolute>
    <NoteOn Channel="9" Note="82" Velocity="0"/>
  </Event>
  <Event>
    <Absolute>40589</Absolute>
    <NoteOn Channel="9" Note="83" Velocity="0"/>
  </Event>
  <Event>
    <Absolute>40595</Absolute>
    <NoteOn Channel="9" Note="68" Velocity="0"/>
  </Event>
  <Event>
    <Absolute>40595</Absolute>
    <NoteOn Channel="9" Note="76" Velocity="0"/>
  </Event>
  <Event>
    <Absolute>40598</Absolute>
    <NoteOn Channel="9" Note="75" Velocity="91"/>
  </Event>
  <Event>
    <Absolute>40598</Absolute>
    <NoteOn Channel="9" Note="66" Velocity="110"/>
  </Event>
  <Event>
    <Absolute>40625</Absolute>
    <NoteOn Channel="9" Note="66" Velocity="0"/>
  </Event>
  <Event>
    <Absolute>40625</Absolute>
    <NoteOn Channel="9" Note="75" Velocity="0"/>
  </Event>
  <Event>
    <Absolute>40628</Absolute>
    <NoteOn Channel="9" Note="73" Velocity="106"/>
  </Event>
  <Event>
    <Absolute>40628</Absolute>
    <NoteOn Channel="9" Note="64" Velocity="127"/>
  </Event>
  <Event>
    <Absolute>40655</Absolute>
    <NoteOn Channel="9" Note="64" Velocity="0"/>
  </Event>
  <Event>
    <Absolute>40655</Absolute>
    <NoteOn Channel="9" Note="73" Velocity="0"/>
  </Event>
  <Event>
    <Absolute>40658</Absolute>
    <NoteOn Channel="9" Note="71" Velocity="106"/>
  </Event>
  <Event>
    <Absolute>40663</Absolute>
    <NoteOn Channel="9" Note="63" Velocity="127"/>
  </Event>
  <Event>
    <Absolute>40685</Absolute>
    <NoteOn Channel="9" Note="71" Velocity="0"/>
  </Event>
  <Event>
    <Absolute>40690</Absolute>
    <NoteOn Channel="9" Note="63" Velocity="0"/>
  </Event>
  <Event>
    <Absolute>40693</Absolute>
    <NoteOn Channel="9" Note="63" Velocity="123"/>
  </Event>
  <Event>
    <Absolute>40720</Absolute>
    <NoteOn Channel="9" Note="61" Velocity="117"/>
  </Event>
  <Event>
    <Absolute>40726</Absolute>
    <NoteOn Channel="9" Note="63" Velocity="0"/>
  </Event>
  <Event>
    <Absolute>40751</Absolute>
    <NoteOn Channel="9" Note="59" Velocity="111"/>
  </Event>
  <Event>
    <Absolute>40755</Absolute>
    <NoteOn Channel="9" Note="61" Velocity="0"/>
  </Event>
  <Event>
    <Absolute>40777</Absolute>
    <NoteOn Channel="9" Note="59" Velocity="0"/>
  </Event>
  <Event>
    <Absolute>40782</Absolute>
    <NoteOn Channel="9" Note="58" Velocity="111"/>
  </Event>
  <Event>
    <Absolute>40812</Absolute>
    <NoteOn Channel="9" Note="58" Velocity="0"/>
  </Event>
  <Event>
    <Absolute>40814</Absolute>
    <NoteOn Channel="9" Note="63" Velocity="123"/>
  </Event>
  <Event>
    <Absolute>40843</Absolute>
    <NoteOn Channel="9" Note="61" Velocity="118"/>
  </Event>
  <Event>
    <Absolute>40846</Absolute>
    <NoteOn Channel="9" Note="63" Velocity="0"/>
  </Event>
  <Event>
    <Absolute>40875</Absolute>
    <NoteOn Channel="9" Note="59" Velocity="112"/>
  </Event>
  <Event>
    <Absolute>40878</Absolute>
    <NoteOn Channel="9" Note="61" Velocity="0"/>
  </Event>
  <Event>
    <Absolute>40904</Absolute>
    <NoteOn Channel="9" Note="59" Velocity="0"/>
  </Event>
  <Event>
    <Absolute>40905</Absolute>
    <NoteOn Channel="9" Note="58" Velocity="112"/>
  </Event>
  <Event>
    <Absolute>40932</Absolute>
    <NoteOn Channel="9" Note="75" Velocity="120"/>
  </Event>
  <Event>
    <Absolute>40936</Absolute>
    <NoteOn Channel="9" Note="58" Velocity="0"/>
  </Event>
  <Event>
    <Absolute>40961</Absolute>
    <NoteOn Channel="9" Note="73" Velocity="119"/>
  </Event>
  <Event>
    <Absolute>40964</Absolute>
    <NoteOn Channel="9" Note="75" Velocity="0"/>
  </Event>
  <Event>
    <Absolute>40992</Absolute>
    <NoteOn Channel="9" Note="71" Velocity="113"/>
  </Event>
  <Event>
    <Absolute>41002</Absolute>
    <NoteOn Channel="9" Note="73" Velocity="0"/>
  </Event>
  <Event>
    <Absolute>41018</Absolute>
    <NoteOn Channel="9" Note="71" Velocity="0"/>
  </Event>
  <Event>
    <Absolute>41023</Absolute>
    <NoteOn Channel="9" Note="70" Velocity="113"/>
  </Event>
  <Event>
    <Absolute>41055</Absolute>
    <NoteOn Channel="9" Note="70" Velocity="0"/>
  </Event>
  <Event>
    <Absolute>41058</Absolute>
    <NoteOn Channel="9" Note="87" Velocity="118"/>
  </Event>
  <Event>
    <Absolute>41087</Absolute>
    <NoteOn Channel="9" Note="85" Velocity="118"/>
  </Event>
  <Event>
    <Absolute>41089</Absolute>
    <NoteOn Channel="9" Note="87" Velocity="0"/>
  </Event>
  <Event>
    <Absolute>41117</Absolute>
    <NoteOn Channel="9" Note="83" Velocity="114"/>
  </Event>
  <Event>
    <Absolute>41127</Absolute>
    <NoteOn Channel="9" Note="85" Velocity="0"/>
  </Event>
  <Event>
    <Absolute>41142</Absolute>
    <NoteOn Channel="9" Note="82" Velocity="114"/>
  </Event>
  <Event>
    <Absolute>41149</Absolute>
    <NoteOn Channel="9" Note="83" Velocity="0"/>
  </Event>
  <Event>
    <Absolute>41175</Absolute>
    <NoteOn Channel="9" Note="82" Velocity="0"/>
  </Event>
  <Event>
    <Absolute>41175</Absolute>
    <NoteOn Channel="9" Note="87" Velocity="116"/>
  </Event>
  <Event>
    <Absolute>41206</Absolute>
    <NoteOn Channel="9" Note="87" Velocity="0"/>
  </Event>
  <Event>
    <Absolute>41206</Absolute>
    <NoteOn Channel="9" Note="85" Velocity="121"/>
  </Event>
  <Event>
    <Absolute>41232</Absolute>
    <NoteOn Channel="9" Note="83" Velocity="125"/>
  </Event>
  <Event>
    <Absolute>41236</Absolute>
    <NoteOn Channel="9" Note="85" Velocity="0"/>
  </Event>
  <Event>
    <Absolute>41260</Absolute>
    <NoteOn Channel="9" Note="83" Velocity="0"/>
  </Event>
  <Event>
    <Absolute>41261</Absolute>
    <NoteOn Channel="9" Note="82" Velocity="125"/>
  </Event>
  <Event>
    <Absolute>41292</Absolute>
    <NoteOn Channel="9" Note="82" Velocity="0"/>
  </Event>
  <Event>
    <Absolute>41297</Absolute>
    <NoteOn Channel="9" Note="80" Velocity="125"/>
  </Event>
  <Event>
    <Absolute>41326</Absolute>
    <NoteOn Channel="9" Note="78" Velocity="127"/>
  </Event>
  <Event>
    <Absolute>41327</Absolute>
    <NoteOn Channel="9" Note="80" Velocity="0"/>
  </Event>
  <Event>
    <Absolute>41355</Absolute>
    <NoteOn Channel="9" Note="78" Velocity="0"/>
  </Event>
  <Event>
    <Absolute>41355</Absolute>
    <NoteOn Channel="9" Note="76" Velocity="127"/>
  </Event>
  <Event>
    <Absolute>41381</Absolute>
    <NoteOn Channel="9" Note="76" Velocity="0"/>
  </Event>
  <Event>
    <Absolute>41385</Absolute>
    <NoteOn Channel="9" Note="75" Velocity="127"/>
  </Event>
  <Event>
    <Absolute>41410</Absolute>
    <NoteOn Channel="9" Note="75" Velocity="0"/>
  </Event>
  <Event>
    <Absolute>41415</Absolute>
    <NoteOn Channel="9" Note="73" Velocity="127"/>
  </Event>
  <Event>
    <Absolute>41443</Absolute>
    <NoteOn Channel="9" Note="73" Velocity="0"/>
  </Event>
  <Event>
    <Absolute>41445</Absolute>
    <NoteOn Channel="9" Note="71" Velocity="127"/>
  </Event>
  <Event>
    <Absolute>41457</Absolute>
    <NoteOn Channel="9" Note="70" Velocity="127"/>
  </Event>
  <Event>
    <Absolute>41471</Absolute>
    <NoteOn Channel="9" Note="71" Velocity="0"/>
  </Event>
  <Event>
    <Absolute>41480</Absolute>
    <NoteOn Channel="9" Note="68" Velocity="127"/>
  </Event>
  <Event>
    <Absolute>41484</Absolute>
    <NoteOn Channel="9" Note="70" Velocity="0"/>
  </Event>
  <Event>
    <Absolute>41500</Absolute>
    <NoteOn Channel="9" Note="66" Velocity="127"/>
  </Event>
  <Event>
    <Absolute>41511</Absolute>
    <NoteOn Channel="9" Note="68" Velocity="0"/>
  </Event>
  <Event>
    <Absolute>41521</Absolute>
    <NoteOn Channel="9" Note="64" Velocity="127"/>
  </Event>
  <Event>
    <Absolute>41526</Absolute>
    <NoteOn Channel="9" Note="66" Velocity="0"/>
  </Event>
  <Event>
    <Absolute>41540</Absolute>
    <NoteOn Channel="9" Note="63" Velocity="127"/>
  </Event>
  <Event>
    <Absolute>41546</Absolute>
    <NoteOn Channel="9" Note="64" Velocity="0"/>
  </Event>
  <Event>
    <Absolute>41556</Absolute>
    <NoteOn Channel="9" Note="61" Velocity="127"/>
  </Event>
  <Event>
    <Absolute>41565</Absolute>
    <NoteOn Channel="9" Note="63" Velocity="0"/>
  </Event>
  <Event>
    <Absolute>41575</Absolute>
    <NoteOn Channel="9" Note="59" Velocity="127"/>
  </Event>
  <Event>
    <Absolute>41582</Absolute>
    <NoteOn Channel="9" Note="61" Velocity="0"/>
  </Event>
  <Event>
    <Absolute>41593</Absolute>
    <NoteOn Channel="9" Note="58" Velocity="127"/>
  </Event>
  <Event>
    <Absolute>41595</Absolute>
    <NoteOn Channel="9" Note="59" Velocity="0"/>
  </Event>
  <Event>
    <Absolute>41610</Absolute>
    <NoteOn Channel="9" Note="56" Velocity="127"/>
  </Event>
  <Event>
    <Absolute>41619</Absolute>
    <NoteOn Channel="9" Note="58" Velocity="0"/>
  </Event>
  <Event>
    <Absolute>41631</Absolute>
    <NoteOn Channel="9" Note="56" Velocity="0"/>
  </Event>
  <Event>
    <Absolute>41631</Absolute>
    <NoteOn Channel="9" Note="54" Velocity="127"/>
  </Event>
  <Event>
    <Absolute>41651</Absolute>
    <NoteOn Channel="9" Note="65" Velocity="108"/>
  </Event>
  <Event>
    <Absolute>41654</Absolute>
    <NoteOn Channel="9" Note="54" Velocity="0"/>
  </Event>
  <Event>
    <Absolute>41658</Absolute>
    <NoteOn Channel="9" Note="53" Velocity="127"/>
  </Event>
  <Event>
    <Absolute>41668</Absolute>
    <NoteOn Channel="9" Note="65" Velocity="0"/>
  </Event>
  <Event>
    <Absolute>41671</Absolute>
    <NoteOn Channel="9" Note="70" Velocity="109"/>
  </Event>
  <Event>
    <Absolute>41690</Absolute>
    <NoteOn Channel="9" Note="70" Velocity="0"/>
  </Event>
  <Event>
    <Absolute>41690</Absolute>
    <NoteOn Channel="9" Note="77" Velocity="109"/>
  </Event>
  <Event>
    <Absolute>41700</Absolute>
    <NoteOn Channel="9" Note="77" Velocity="0"/>
  </Event>
  <Event>
    <Absolute>41710</Absolute>
    <NoteOn Channel="9" Note="77" Velocity="102"/>
  </Event>
  <Event>
    <Absolute>41730</Absolute>
    <NoteOn Channel="9" Note="70" Velocity="102"/>
  </Event>
  <Event>
    <Absolute>41731</Absolute>
    <NoteOn Channel="9" Note="77" Velocity="0"/>
  </Event>
  <Event>
    <Absolute>41745</Absolute>
    <NoteOn Channel="9" Note="70" Velocity="0"/>
  </Event>
  <Event>
    <Absolute>41750</Absolute>
    <NoteOn Channel="9" Note="65" Velocity="102"/>
  </Event>
  <Event>
    <Absolute>41764</Absolute>
    <NoteOn Channel="9" Note="65" Velocity="0"/>
  </Event>
  <Event>
    <Absolute>41770</Absolute>
    <NoteOn Channel="9" Note="65" Velocity="102"/>
  </Event>
  <Event>
    <Absolute>41785</Absolute>
    <NoteOn Channel="9" Note="65" Velocity="0"/>
  </Event>
  <Event>
    <Absolute>41790</Absolute>
    <NoteOn Channel="9" Note="70" Velocity="102"/>
  </Event>
  <Event>
    <Absolute>41807</Absolute>
    <NoteOn Channel="9" Note="70" Velocity="0"/>
  </Event>
  <Event>
    <Absolute>41810</Absolute>
    <NoteOn Channel="9" Note="77" Velocity="111"/>
  </Event>
  <Event>
    <Absolute>41823</Absolute>
    <NoteOn Channel="9" Note="77" Velocity="0"/>
  </Event>
  <Event>
    <Absolute>41830</Absolute>
    <NoteOn Channel="9" Note="77" Velocity="112"/>
  </Event>
  <Event>
    <Absolute>41850</Absolute>
    <NoteOn Channel="9" Note="70" Velocity="112"/>
  </Event>
  <Event>
    <Absolute>41851</Absolute>
    <NoteOn Channel="9" Note="77" Velocity="0"/>
  </Event>
  <Event>
    <Absolute>41866</Absolute>
    <NoteOn Channel="9" Note="70" Velocity="0"/>
  </Event>
  <Event>
    <Absolute>41870</Absolute>
    <NoteOn Channel="9" Note="65" Velocity="112"/>
  </Event>
  <Event>
    <Absolute>41881</Absolute>
    <NoteOn Channel="9" Note="65" Velocity="0"/>
  </Event>
  <Event>
    <Absolute>41890</Absolute>
    <NoteOn Channel="9" Note="65" Velocity="112"/>
  </Event>
  <Event>
    <Absolute>41906</Absolute>
    <NoteOn Channel="9" Note="65" Velocity="0"/>
  </Event>
  <Event>
    <Absolute>41908</Absolute>
    <NoteOn Channel="9" Note="53" Velocity="0"/>
  </Event>
  <Event>
    <Absolute>41910</Absolute>
    <NoteOn Channel="9" Note="70" Velocity="112"/>
  </Event>
  <Event>
    <Absolute>41928</Absolute>
    <NoteOn Channel="9" Note="70" Velocity="0"/>
  </Event>
  <Event>
    <Absolute>41930</Absolute>
    <NoteOn Channel="9" Note="77" Velocity="112"/>
  </Event>
  <Event>
    <Absolute>41941</Absolute>
    <NoteOn Channel="9" Note="77" Velocity="0"/>
  </Event>
  <Event>
    <Absolute>41950</Absolute>
    <NoteOn Channel="9" Note="77" Velocity="112"/>
  </Event>
  <Event>
    <Absolute>41970</Absolute>
    <NoteOn Channel="9" Note="77" Velocity="0"/>
  </Event>
  <Event>
    <Absolute>41970</Absolute>
    <NoteOn Channel="9" Note="70" Velocity="112"/>
  </Event>
  <Event>
    <Absolute>41986</Absolute>
    <NoteOn Channel="9" Note="70" Velocity="0"/>
  </Event>
  <Event>
    <Absolute>41990</Absolute>
    <NoteOn Channel="9" Note="65" Velocity="113"/>
  </Event>
  <Event>
    <Absolute>42003</Absolute>
    <NoteOn Channel="9" Note="65" Velocity="0"/>
  </Event>
  <Event>
    <Absolute>42010</Absolute>
    <NoteOn Channel="9" Note="65" Velocity="113"/>
  </Event>
  <Event>
    <Absolute>42030</Absolute>
    <NoteOn Channel="9" Note="65" Velocity="0"/>
  </Event>
  <Event>
    <Absolute>42030</Absolute>
    <NoteOn Channel="9" Note="70" Velocity="113"/>
  </Event>
  <Event>
    <Absolute>42048</Absolute>
    <NoteOn Channel="9" Note="70" Velocity="0"/>
  </Event>
  <Event>
    <Absolute>42050</Absolute>
    <NoteOn Channel="9" Note="77" Velocity="113"/>
  </Event>
  <Event>
    <Absolute>42060</Absolute>
    <NoteOn Channel="9" Note="77" Velocity="0"/>
  </Event>
  <Event>
    <Absolute>42070</Absolute>
    <NoteOn Channel="9" Note="77" Velocity="114"/>
  </Event>
  <Event>
    <Absolute>42090</Absolute>
    <NoteOn Channel="9" Note="70" Velocity="114"/>
  </Event>
  <Event>
    <Absolute>42094</Absolute>
    <NoteOn Channel="9" Note="77" Velocity="0"/>
  </Event>
  <Event>
    <Absolute>42106</Absolute>
    <NoteOn Channel="9" Note="65" Velocity="114"/>
  </Event>
  <Event>
    <Absolute>42107</Absolute>
    <NoteOn Channel="9" Note="70" Velocity="0"/>
  </Event>
  <Event>
    <Absolute>42116</Absolute>
    <NoteOn Channel="9" Note="65" Velocity="0"/>
  </Event>
  <Event>
    <Absolute>42135</Absolute>
    <NoteOn Channel="9" Note="65" Velocity="114"/>
  </Event>
  <Event>
    <Absolute>42150</Absolute>
    <NoteOn Channel="9" Note="70" Velocity="114"/>
  </Event>
  <Event>
    <Absolute>42154</Absolute>
    <NoteOn Channel="9" Note="65" Velocity="0"/>
  </Event>
  <Event>
    <Absolute>42170</Absolute>
    <NoteOn Channel="9" Note="75" Velocity="116"/>
  </Event>
  <Event>
    <Absolute>42171</Absolute>
    <NoteOn Channel="9" Note="70" Velocity="0"/>
  </Event>
  <Event>
    <Absolute>42181</Absolute>
    <NoteOn Channel="9" Note="75" Velocity="0"/>
  </Event>
  <Event>
    <Absolute>42190</Absolute>
    <NoteOn Channel="9" Note="75" Velocity="116"/>
  </Event>
  <Event>
    <Absolute>42210</Absolute>
    <NoteOn Channel="9" Note="70" Velocity="116"/>
  </Event>
  <Event>
    <Absolute>42212</Absolute>
    <NoteOn Channel="9" Note="75" Velocity="0"/>
  </Event>
  <Event>
    <Absolute>42224</Absolute>
    <NoteOn Channel="9" Note="70" Velocity="0"/>
  </Event>
  <Event>
    <Absolute>42226</Absolute>
    <NoteOn Channel="9" Note="65" Velocity="116"/>
  </Event>
  <Event>
    <Absolute>42236</Absolute>
    <NoteOn Channel="9" Note="65" Velocity="0"/>
  </Event>
  <Event>
    <Absolute>42250</Absolute>
    <NoteOn Channel="9" Note="65" Velocity="116"/>
  </Event>
  <Event>
    <Absolute>42265</Absolute>
    <NoteOn Channel="9" Note="70" Velocity="116"/>
  </Event>
  <Event>
    <Absolute>42268</Absolute>
    <NoteOn Channel="9" Note="65" Velocity="0"/>
  </Event>
  <Event>
    <Absolute>42281</Absolute>
    <NoteOn Channel="9" Note="70" Velocity="0"/>
  </Event>
  <Event>
    <Absolute>42286</Absolute>
    <NoteOn Channel="9" Note="75" Velocity="116"/>
  </Event>
  <Event>
    <Absolute>42296</Absolute>
    <NoteOn Channel="9" Note="75" Velocity="0"/>
  </Event>
  <Event>
    <Absolute>42313</Absolute>
    <NoteOn Channel="9" Note="75" Velocity="117"/>
  </Event>
  <Event>
    <Absolute>42330</Absolute>
    <NoteOn Channel="9" Note="70" Velocity="117"/>
  </Event>
  <Event>
    <Absolute>42333</Absolute>
    <NoteOn Channel="9" Note="75" Velocity="0"/>
  </Event>
  <Event>
    <Absolute>42346</Absolute>
    <NoteOn Channel="9" Note="70" Velocity="0"/>
  </Event>
  <Event>
    <Absolute>42348</Absolute>
    <NoteOn Channel="9" Note="65" Velocity="117"/>
  </Event>
  <Event>
    <Absolute>42359</Absolute>
    <NoteOn Channel="9" Note="65" Velocity="0"/>
  </Event>
  <Event>
    <Absolute>42370</Absolute>
    <NoteOn Channel="9" Note="65" Velocity="117"/>
  </Event>
  <Event>
    <Absolute>42388</Absolute>
    <NoteOn Channel="9" Note="65" Velocity="0"/>
  </Event>
  <Event>
    <Absolute>42390</Absolute>
    <NoteOn Channel="9" Note="70" Velocity="118"/>
  </Event>
  <Event>
    <Absolute>42405</Absolute>
    <NoteOn Channel="9" Note="70" Velocity="0"/>
  </Event>
  <Event>
    <Absolute>42410</Absolute>
    <NoteOn Channel="9" Note="75" Velocity="118"/>
  </Event>
  <Event>
    <Absolute>42420</Absolute>
    <NoteOn Channel="9" Note="75" Velocity="0"/>
  </Event>
  <Event>
    <Absolute>42430</Absolute>
    <NoteOn Channel="9" Note="75" Velocity="118"/>
  </Event>
  <Event>
    <Absolute>42450</Absolute>
    <NoteOn Channel="9" Note="75" Velocity="0"/>
  </Event>
  <Event>
    <Absolute>42450</Absolute>
    <NoteOn Channel="9" Note="70" Velocity="118"/>
  </Event>
  <Event>
    <Absolute>42466</Absolute>
    <NoteOn Channel="9" Note="70" Velocity="0"/>
  </Event>
  <Event>
    <Absolute>42471</Absolute>
    <NoteOn Channel="9" Note="65" Velocity="118"/>
  </Event>
  <Event>
    <Absolute>42481</Absolute>
    <NoteOn Channel="9" Note="65" Velocity="0"/>
  </Event>
  <Event>
    <Absolute>42493</Absolute>
    <NoteOn Channel="9" Note="65" Velocity="119"/>
  </Event>
  <Event>
    <Absolute>42505</Absolute>
    <NoteOn Channel="9" Note="70" Velocity="119"/>
  </Event>
  <Event>
    <Absolute>42516</Absolute>
    <NoteOn Channel="9" Note="65" Velocity="0"/>
  </Event>
  <Event>
    <Absolute>42520</Absolute>
    <NoteOn Channel="9" Note="70" Velocity="0"/>
  </Event>
  <Event>
    <Absolute>42528</Absolute>
    <NoteOn Channel="9" Note="75" Velocity="119"/>
  </Event>
  <Event>
    <Absolute>42539</Absolute>
    <NoteOn Channel="9" Note="75" Velocity="0"/>
  </Event>
  <Event>
    <Absolute>42550</Absolute>
    <NoteOn Channel="9" Note="75" Velocity="119"/>
  </Event>
  <Event>
    <Absolute>42570</Absolute>
    <NoteOn Channel="9" Note="70" Velocity="119"/>
  </Event>
  <Event>
    <Absolute>42573</Absolute>
    <NoteOn Channel="9" Note="75" Velocity="0"/>
  </Event>
  <Event>
    <Absolute>42583</Absolute>
    <NoteOn Channel="9" Note="65" Velocity="119"/>
  </Event>
  <Event>
    <Absolute>42589</Absolute>
    <NoteOn Channel="9" Note="70" Velocity="0"/>
  </Event>
  <Event>
    <Absolute>42593</Absolute>
    <NoteOn Channel="9" Note="65" Velocity="0"/>
  </Event>
  <Event>
    <Absolute>42610</Absolute>
    <NoteOn Channel="9" Note="63" Velocity="119"/>
  </Event>
  <Event>
    <Absolute>42630</Absolute>
    <NoteOn Channel="9" Note="70" Velocity="120"/>
  </Event>
  <Event>
    <Absolute>42641</Absolute>
    <NoteOn Channel="9" Note="63" Velocity="0"/>
  </Event>
  <Event>
    <Absolute>42645</Absolute>
    <NoteOn Channel="9" Note="70" Velocity="0"/>
  </Event>
  <Event>
    <Absolute>42650</Absolute>
    <NoteOn Channel="9" Note="75" Velocity="120"/>
  </Event>
  <Event>
    <Absolute>42660</Absolute>
    <NoteOn Channel="9" Note="75" Velocity="0"/>
  </Event>
  <Event>
    <Absolute>42670</Absolute>
    <NoteOn Channel="9" Note="75" Velocity="120"/>
  </Event>
  <Event>
    <Absolute>42690</Absolute>
    <NoteOn Channel="9" Note="70" Velocity="120"/>
  </Event>
  <Event>
    <Absolute>42692</Absolute>
    <NoteOn Channel="9" Note="75" Velocity="0"/>
  </Event>
  <Event>
    <Absolute>42710</Absolute>
    <NoteOn Channel="9" Note="70" Velocity="0"/>
  </Event>
  <Event>
    <Absolute>42710</Absolute>
    <NoteOn Channel="9" Note="63" Velocity="121"/>
  </Event>
  <Event>
    <Absolute>42719</Absolute>
    <NoteOn Channel="9" Note="63" Velocity="0"/>
  </Event>
  <Event>
    <Absolute>42730</Absolute>
    <NoteOn Channel="9" Note="63" Velocity="121"/>
  </Event>
  <Event>
    <Absolute>42747</Absolute>
    <NoteOn Channel="9" Note="63" Velocity="0"/>
  </Event>
  <Event>
    <Absolute>42750</Absolute>
    <NoteOn Channel="9" Note="68" Velocity="121"/>
  </Event>
  <Event>
    <Absolute>42770</Absolute>
    <NoteOn Channel="9" Note="75" Velocity="121"/>
  </Event>
  <Event>
    <Absolute>42771</Absolute>
    <NoteOn Channel="9" Note="68" Velocity="0"/>
  </Event>
  <Event>
    <Absolute>42779</Absolute>
    <NoteOn Channel="9" Note="75" Velocity="0"/>
  </Event>
  <Event>
    <Absolute>42790</Absolute>
    <NoteOn Channel="9" Note="75" Velocity="122"/>
  </Event>
  <Event>
    <Absolute>42810</Absolute>
    <NoteOn Channel="9" Note="75" Velocity="0"/>
  </Event>
  <Event>
    <Absolute>42810</Absolute>
    <NoteOn Channel="9" Note="68" Velocity="122"/>
  </Event>
  <Event>
    <Absolute>42830</Absolute>
    <NoteOn Channel="9" Note="68" Velocity="0"/>
  </Event>
  <Event>
    <Absolute>42830</Absolute>
    <NoteOn Channel="9" Note="63" Velocity="123"/>
  </Event>
  <Event>
    <Absolute>42841</Absolute>
    <NoteOn Channel="9" Note="63" Velocity="0"/>
  </Event>
  <Event>
    <Absolute>42847</Absolute>
    <NoteOn Channel="9" Note="72" Velocity="87"/>
  </Event>
  <Event>
    <Absolute>42850</Absolute>
    <NoteOn Channel="9" Note="63" Velocity="123"/>
  </Event>
  <Event>
    <Absolute>42870</Absolute>
    <NoteOn Channel="9" Note="63" Velocity="0"/>
  </Event>
  <Event>
    <Absolute>42870</Absolute>
    <NoteOn Channel="9" Note="72" Velocity="0"/>
  </Event>
  <Event>
    <Absolute>42870</Absolute>
    <NoteOn Channel="9" Note="65" Velocity="123"/>
  </Event>
  <Event>
    <Absolute>42871</Absolute>
    <NoteOn Channel="9" Note="74" Velocity="91"/>
  </Event>
  <Event>
    <Absolute>42888</Absolute>
    <NoteOn Channel="9" Note="65" Velocity="0"/>
  </Event>
  <Event>
    <Absolute>42890</Absolute>
    <NoteOn Channel="9" Note="67" Velocity="122"/>
  </Event>
  <Event>
    <Absolute>42891</Absolute>
    <NoteOn Channel="9" Note="74" Velocity="0"/>
  </Event>
  <Event>
    <Absolute>42892</Absolute>
    <NoteOn Channel="9" Note="75" Velocity="97"/>
  </Event>
  <Event>
    <Absolute>42895</Absolute>
    <NoteOn Channel="9" Note="67" Velocity="0"/>
  </Event>
  <Event>
    <Absolute>42910</Absolute>
    <NoteOn Channel="9" Note="75" Velocity="0"/>
  </Event>
  <Event>
    <Absolute>42910</Absolute>
    <NoteOn Channel="9" Note="68" Velocity="121"/>
  </Event>
  <Event>
    <Absolute>42912</Absolute>
    <NoteOn Channel="9" Note="77" Velocity="101"/>
  </Event>
  <Event>
    <Absolute>42928</Absolute>
    <NoteOn Channel="9" Note="77" Velocity="0"/>
  </Event>
  <Event>
    <Absolute>42930</Absolute>
    <NoteOn Channel="9" Note="79" Velocity="104"/>
  </Event>
  <Event>
    <Absolute>42930</Absolute>
    <NoteOn Channel="9" Note="70" Velocity="120"/>
  </Event>
  <Event>
    <Absolute>42932</Absolute>
    <NoteOn Channel="9" Note="68" Velocity="0"/>
  </Event>
  <Event>
    <Absolute>42948</Absolute>
    <NoteOn Channel="9" Note="79" Velocity="0"/>
  </Event>
  <Event>
    <Absolute>42949</Absolute>
    <NoteOn Channel="9" Note="81" Velocity="108"/>
  </Event>
  <Event>
    <Absolute>42950</Absolute>
    <NoteOn Channel="9" Note="70" Velocity="0"/>
  </Event>
  <Event>
    <Absolute>42950</Absolute>
    <NoteOn Channel="9" Note="72" Velocity="120"/>
  </Event>
  <Event>
    <Absolute>42964</Absolute>
    <NoteOn Channel="9" Note="72" Velocity="0"/>
  </Event>
  <Event>
    <Absolute>42967</Absolute>
    <NoteOn Channel="9" Note="81" Velocity="0"/>
  </Event>
  <Event>
    <Absolute>42970</Absolute>
    <NoteOn Channel="9" Note="73" Velocity="120"/>
  </Event>
  <Event>
    <Absolute>42971</Absolute>
    <NoteOn Channel="9" Note="82" Velocity="111"/>
  </Event>
  <Event>
    <Absolute>42989</Absolute>
    <NoteOn Channel="9" Note="73" Velocity="0"/>
  </Event>
  <Event>
    <Absolute>42990</Absolute>
    <NoteOn Channel="9" Note="82" Velocity="0"/>
  </Event>
  <Event>
    <Absolute>42990</Absolute>
    <NoteOn Channel="9" Note="75" Velocity="116"/>
  </Event>
  <Event>
    <Absolute>42992</Absolute>
    <NoteOn Channel="9" Note="84" Velocity="117"/>
  </Event>
  <Event>
    <Absolute>43010</Absolute>
    <NoteOn Channel="9" Note="84" Velocity="0"/>
  </Event>
  <Event>
    <Absolute>43010</Absolute>
    <NoteOn Channel="9" Note="75" Velocity="0"/>
  </Event>
  <Event>
    <Absolute>43010</Absolute>
    <NoteOn Channel="9" Note="77" Velocity="114"/>
  </Event>
  <Event>
    <Absolute>43011</Absolute>
    <NoteOn Channel="9" Note="86" Velocity="121"/>
  </Event>
  <Event>
    <Absolute>43021</Absolute>
    <NoteOn Channel="9" Note="77" Velocity="0"/>
  </Event>
  <Event>
    <Absolute>43029</Absolute>
    <NoteOn Channel="9" Note="86" Velocity="0"/>
  </Event>
  <Event>
    <Absolute>43030</Absolute>
    <NoteOn Channel="9" Note="87" Velocity="125"/>
  </Event>
  <Event>
    <Absolute>43030</Absolute>
    <NoteOn Channel="9" Note="79" Velocity="114"/>
  </Event>
  <Event>
    <Absolute>43045</Absolute>
    <NoteOn Channel="9" Note="87" Velocity="0"/>
  </Event>
  <Event>
    <Absolute>43048</Absolute>
    <NoteOn Channel="9" Note="89" Velocity="127"/>
  </Event>
  <Event>
    <Absolute>43051</Absolute>
    <NoteOn Channel="9" Note="79" Velocity="0"/>
  </Event>
  <Event>
    <Absolute>43051</Absolute>
    <NoteOn Channel="9" Note="80" Velocity="110"/>
  </Event>
  <Event>
    <Absolute>43064</Absolute>
    <NoteOn Channel="9" Note="89" Velocity="0"/>
  </Event>
  <Event>
    <Absolute>43066</Absolute>
    <NoteOn Channel="9" Note="80" Velocity="0"/>
  </Event>
  <Event>
    <Absolute>43068</Absolute>
    <NoteOn Channel="9" Note="91" Velocity="127"/>
  </Event>
  <Event>
    <Absolute>43070</Absolute>
    <NoteOn Channel="9" Note="81" Velocity="85"/>
  </Event>
  <Event>
    <Absolute>43079</Absolute>
    <NoteOn Channel="9" Note="91" Velocity="0"/>
  </Event>
  <Event>
    <Absolute>43093</Absolute>
    <NoteOn Channel="9" Note="93" Velocity="122"/>
  </Event>
  <Event>
    <Absolute>43097</Absolute>
    <NoteOn Channel="9" Note="81" Velocity="0"/>
  </Event>
  <Event>
    <Absolute>43575</Absolute>
    <NoteOn Channel="9" Note="74" Velocity="106"/>
  </Event>
  <Event>
    <Absolute>43575</Absolute>
    <NoteOn Channel="9" Note="67" Velocity="95"/>
  </Event>
  <Event>
    <Absolute>43580</Absolute>
    <NoteOn Channel="9" Note="69" Velocity="95"/>
  </Event>
  <Event>
    <Absolute>43818</Absolute>
    <NoteOn Channel="9" Note="95" Velocity="91"/>
  </Event>
  <Event>
    <Absolute>43828</Absolute>
    <NoteOn Channel="9" Note="93" Velocity="0"/>
  </Event>
  <Event>
    <Absolute>44045</Absolute>
    <NoteOn Channel="9" Note="74" Velocity="0"/>
  </Event>
  <Event>
    <Absolute>44045</Absolute>
    <NoteOn Channel="9" Note="67" Velocity="0"/>
  </Event>
  <Event>
    <Absolute>44050</Absolute>
    <NoteOn Channel="9" Note="69" Velocity="0"/>
  </Event>
  <Event>
    <Absolute>44055</Absolute>
    <NoteOn Channel="9" Note="72" Velocity="100"/>
  </Event>
  <Event>
    <Absolute>44055</Absolute>
    <NoteOn Channel="9" Note="79" Velocity="115"/>
  </Event>
  <Event>
    <Absolute>44060</Absolute>
    <NoteOn Channel="9" Note="100" Velocity="88"/>
  </Event>
  <Event>
    <Absolute>44065</Absolute>
    <NoteOn Channel="9" Note="74" Velocity="100"/>
  </Event>
  <Event>
    <Absolute>44525</Absolute>
    <NoteOn Channel="9" Note="79" Velocity="0"/>
  </Event>
  <Event>
    <Absolute>44525</Absolute>
    <NoteOn Channel="9" Note="72" Velocity="0"/>
  </Event>
  <Event>
    <Absolute>44533</Absolute>
    <NoteOn Channel="9" Note="105" Velocity="87"/>
  </Event>
  <Event>
    <Absolute>44535</Absolute>
    <NoteOn Channel="9" Note="74" Velocity="0"/>
  </Event>
  <Event>
    <Absolute>44535</Absolute>
    <NoteOn Channel="9" Note="77" Velocity="103"/>
  </Event>
  <Event>
    <Absolute>44535</Absolute>
    <NoteOn Channel="9" Note="79" Velocity="104"/>
  </Event>
  <Event>
    <Absolute>44535</Absolute>
    <NoteOn Channel="9" Note="84" Velocity="114"/>
  </Event>
  <Event>
    <Absolute>44931</Absolute>
    <NoteOn Channel="9" Note="81" Velocity="123"/>
  </Event>
  <Event>
    <Absolute>44950</Absolute>
    <NoteOn Channel="9" Note="83" Velocity="123"/>
  </Event>
  <Event>
    <Absolute>44961</Absolute>
    <NoteOn Channel="9" Note="81" Velocity="0"/>
  </Event>
  <Event>
    <Absolute>44969</Absolute>
    <NoteOn Channel="9" Note="95" Velocity="0"/>
  </Event>
  <Event>
    <Absolute>44970</Absolute>
    <NoteOn Channel="9" Note="100" Velocity="0"/>
  </Event>
  <Event>
    <Absolute>44970</Absolute>
    <NoteOn Channel="9" Note="84" Velocity="123"/>
  </Event>
  <Event>
    <Absolute>44985</Absolute>
    <NoteOn Channel="9" Note="83" Velocity="0"/>
  </Event>
  <Event>
    <Absolute>44991</Absolute>
    <NoteOn Channel="9" Note="85" Velocity="123"/>
  </Event>
  <Event>
    <Absolute>45005</Absolute>
    <NoteOn Channel="9" Note="84" Velocity="0"/>
  </Event>
  <Event>
    <Absolute>45010</Absolute>
    <NoteOn Channel="9" Note="77" Velocity="0"/>
  </Event>
  <Event>
    <Absolute>45010</Absolute>
    <NoteOn Channel="9" Note="79" Velocity="0"/>
  </Event>
  <Event>
    <Absolute>45010</Absolute>
    <NoteOn Channel="9" Note="86" Velocity="123"/>
  </Event>
  <Event>
    <Absolute>45010</Absolute>
    <NoteOn Channel="9" Note="81" Velocity="123"/>
  </Event>
  <Event>
    <Absolute>45011</Absolute>
    <NoteOn Channel="9" Note="74" Velocity="123"/>
  </Event>
  <Event>
    <Absolute>45026</Absolute>
    <NoteOn Channel="9" Note="85" Velocity="0"/>
  </Event>
  <Event>
    <Absolute>45034</Absolute>
    <NoteOn Channel="9" Note="105" Velocity="0"/>
  </Event>
  <Event>
    <Absolute>45087</Absolute>
    <NoteOn Channel="9" Note="81" Velocity="0"/>
  </Event>
  <Event>
    <Absolute>45087</Absolute>
    <NoteOn Channel="9" Note="86" Velocity="0"/>
  </Event>
  <Event>
    <Absolute>45088</Absolute>
    <NoteOn Channel="9" Note="74" Velocity="0"/>
  </Event>
  <Event>
    <Absolute>45131</Absolute>
    <NoteOn Channel="9" Note="50" Velocity="124"/>
  </Event>
  <Event>
    <Absolute>45131</Absolute>
    <NoteOn Channel="9" Note="38" Velocity="124"/>
  </Event>
  <Event>
    <Absolute>45144</Absolute>
    <NoteOn Channel="9" Note="38" Velocity="0"/>
  </Event>
  <Event>
    <Absolute>45144</Absolute>
    <NoteOn Channel="9" Note="50" Velocity="0"/>
  </Event>
  <Event>
    <Absolute>45171</Absolute>
    <NoteOn Channel="9" Note="38" Velocity="124"/>
  </Event>
  <Event>
    <Absolute>45171</Absolute>
    <NoteOn Channel="9" Note="50" Velocity="124"/>
  </Event>
  <Event>
    <Absolute>45184</Absolute>
    <NoteOn Channel="9" Note="50" Velocity="0"/>
  </Event>
  <Event>
    <Absolute>45186</Absolute>
    <NoteOn Channel="9" Note="38" Velocity="0"/>
  </Event>
  <Event>
    <Absolute>45211</Absolute>
    <NoteOn Channel="9" Note="50" Velocity="124"/>
  </Event>
  <Event>
    <Absolute>45211</Absolute>
    <NoteOn Channel="9" Note="38" Velocity="124"/>
  </Event>
  <Event>
    <Absolute>45225</Absolute>
    <NoteOn Channel="9" Note="38" Velocity="0"/>
  </Event>
  <Event>
    <Absolute>45227</Absolute>
    <NoteOn Channel="9" Note="50" Velocity="0"/>
  </Event>
  <Event>
    <Absolute>45251</Absolute>
    <NoteOn Channel="9" Note="50" Velocity="124"/>
  </Event>
  <Event>
    <Absolute>45251</Absolute>
    <NoteOn Channel="9" Note="38" Velocity="124"/>
  </Event>
  <Event>
    <Absolute>45295</Absolute>
    <NoteOn Channel="9" Note="38" Velocity="0"/>
  </Event>
  <Event>
    <Absolute>45297</Absolute>
    <NoteOn Channel="9" Note="50" Velocity="0"/>
  </Event>
  <Event>
    <Absolute>45405</Absolute>
    <NoteOn Channel="9" Note="84" Velocity="0"/>
  </Event>
  <Event>
    <Absolute>45405</Absolute>
    <EndOfTrack/>
  </Event>
</Track>
<Track Number="9">
  <Event>
    <Absolute>0</Absolute>
    <MIDIChannelPrefix Value="01"/>
  </Event>
  <Event>
    <Absolute>0</Absolute>
    <ProgramChange Channel="11" Number="48"/>
  </Event>
  <Event>
    <Absolute>0</Absolute>
    <ControlChange Channel="11" Control="7" Value="108"/>
  </Event>
  <Event>
    <Absolute>0</Absolute>
    <ControlChange Channel="11" Control="10" Value="83"/>
  </Event>
  <Event>
    <Absolute>15</Absolute>
    <ControlChange Channel="11" Control="18" Value="64"/>
  </Event>
  <Event>
    <Absolute>480</Absolute>
    <NoteOn Channel="11" Note="62" Velocity="114"/>
  </Event>
  <Event>
    <Absolute>480</Absolute>
    <NoteOn Channel="11" Note="34" Velocity="114"/>
  </Event>
  <Event>
    <Absolute>480</Absolute>
    <NoteOn Channel="11" Note="46" Velocity="114"/>
  </Event>
  <Event>
    <Absolute>480</Absolute>
    <NoteOn Channel="11" Note="70" Velocity="114"/>
  </Event>
  <Event>
    <Absolute>630</Absolute>
    <NoteOn Channel="11" Note="62" Velocity="0"/>
  </Event>
  <Event>
    <Absolute>675</Absolute>
    <NoteOn Channel="11" Note="70" Velocity="0"/>
  </Event>
  <Event>
    <Absolute>682</Absolute>
    <NoteOn Channel="11" Note="46" Velocity="0"/>
  </Event>
  <Event>
    <Absolute>710</Absolute>
    <NoteOn Channel="11" Note="34" Velocity="0"/>
  </Event>
  <Event>
    <Absolute>2111</Absolute>
    <NoteOn Channel="11" Note="41" Velocity="99"/>
  </Event>
  <Event>
    <Absolute>2111</Absolute>
    <NoteOn Channel="11" Note="34" Velocity="99"/>
  </Event>
  <Event>
    <Absolute>2115</Absolute>
    <NoteOn Channel="11" Note="34" Velocity="0"/>
  </Event>
  <Event>
    <Absolute>2117</Absolute>
    <NoteOn Channel="11" Note="41" Velocity="0"/>
  </Event>
  <Event>
    <Absolute>2130</Absolute>
    <NoteOn Channel="11" Note="34" Velocity="99"/>
  </Event>
  <Event>
    <Absolute>2130</Absolute>
    <NoteOn Channel="11" Note="41" Velocity="99"/>
  </Event>
  <Event>
    <Absolute>2132</Absolute>
    <NoteOn Channel="11" Note="41" Velocity="0"/>
  </Event>
  <Event>
    <Absolute>2134</Absolute>
    <NoteOn Channel="11" Note="34" Velocity="0"/>
  </Event>
  <Event>
    <Absolute>2149</Absolute>
    <NoteOn Channel="11" Note="41" Velocity="99"/>
  </Event>
  <Event>
    <Absolute>2149</Absolute>
    <NoteOn Channel="11" Note="34" Velocity="99"/>
  </Event>
  <Event>
    <Absolute>2293</Absolute>
    <NoteOn Channel="11" Note="34" Velocity="0"/>
  </Event>
  <Event>
    <Absolute>2295</Absolute>
    <NoteOn Channel="11" Note="41" Velocity="0"/>
  </Event>
  <Event>
    <Absolute>2340</Absolute>
    <NoteOn Channel="11" Note="41" Velocity="99"/>
  </Event>
  <Event>
    <Absolute>2340</Absolute>
    <NoteOn Channel="11" Note="50" Velocity="99"/>
  </Event>
  <Event>
    <Absolute>2342</Absolute>
    <NoteOn Channel="11" Note="34" Velocity="99"/>
  </Event>
  <Event>
    <Absolute>2342</Absolute>
    <NoteOn Channel="11" Note="58" Velocity="107"/>
  </Event>
  <Event>
    <Absolute>2350</Absolute>
    <NoteOn Channel="11" Note="58" Velocity="0"/>
  </Event>
  <Event>
    <Absolute>2350</Absolute>
    <NoteOn Channel="11" Note="34" Velocity="0"/>
  </Event>
  <Event>
    <Absolute>2350</Absolute>
    <NoteOn Channel="11" Note="41" Velocity="0"/>
  </Event>
  <Event>
    <Absolute>2351</Absolute>
    <NoteOn Channel="11" Note="50" Velocity="0"/>
  </Event>
  <Event>
    <Absolute>2360</Absolute>
    <NoteOn Channel="11" Note="58" Velocity="107"/>
  </Event>
  <Event>
    <Absolute>2360</Absolute>
    <NoteOn Channel="11" Note="50" Velocity="99"/>
  </Event>
  <Event>
    <Absolute>2360</Absolute>
    <NoteOn Channel="11" Note="34" Velocity="99"/>
  </Event>
  <Event>
    <Absolute>2360</Absolute>
    <NoteOn Channel="11" Note="41" Velocity="99"/>
  </Event>
  <Event>
    <Absolute>2368</Absolute>
    <NoteOn Channel="11" Note="41" Velocity="0"/>
  </Event>
  <Event>
    <Absolute>2368</Absolute>
    <NoteOn Channel="11" Note="34" Velocity="0"/>
  </Event>
  <Event>
    <Absolute>2368</Absolute>
    <NoteOn Channel="11" Note="58" Velocity="0"/>
  </Event>
  <Event>
    <Absolute>2370</Absolute>
    <NoteOn Channel="11" Note="50" Velocity="0"/>
  </Event>
  <Event>
    <Absolute>2376</Absolute>
    <NoteOn Channel="11" Note="50" Velocity="99"/>
  </Event>
  <Event>
    <Absolute>2376</Absolute>
    <NoteOn Channel="11" Note="41" Velocity="99"/>
  </Event>
  <Event>
    <Absolute>2377</Absolute>
    <NoteOn Channel="11" Note="34" Velocity="99"/>
  </Event>
  <Event>
    <Absolute>2377</Absolute>
    <NoteOn Channel="11" Note="58" Velocity="107"/>
  </Event>
  <Event>
    <Absolute>2384</Absolute>
    <NoteOn Channel="11" Note="41" Velocity="0"/>
  </Event>
  <Event>
    <Absolute>2387</Absolute>
    <NoteOn Channel="11" Note="58" Velocity="0"/>
  </Event>
  <Event>
    <Absolute>2387</Absolute>
    <NoteOn Channel="11" Note="34" Velocity="0"/>
  </Event>
  <Event>
    <Absolute>2397</Absolute>
    <NoteOn Channel="11" Note="50" Velocity="0"/>
  </Event>
  <Event>
    <Absolute>2403</Absolute>
    <NoteOn Channel="11" Note="58" Velocity="107"/>
  </Event>
  <Event>
    <Absolute>2403</Absolute>
    <NoteOn Channel="11" Note="34" Velocity="99"/>
  </Event>
  <Event>
    <Absolute>2403</Absolute>
    <NoteOn Channel="11" Note="41" Velocity="99"/>
  </Event>
  <Event>
    <Absolute>2404</Absolute>
    <NoteOn Channel="11" Note="50" Velocity="99"/>
  </Event>
  <Event>
    <Absolute>2425</Absolute>
    <NoteOn Channel="11" Note="41" Velocity="0"/>
  </Event>
  <Event>
    <Absolute>2426</Absolute>
    <NoteOn Channel="11" Note="58" Velocity="0"/>
  </Event>
  <Event>
    <Absolute>2426</Absolute>
    <NoteOn Channel="11" Note="34" Velocity="0"/>
  </Event>
  <Event>
    <Absolute>2428</Absolute>
    <NoteOn Channel="11" Note="50" Velocity="0"/>
  </Event>
  <Event>
    <Absolute>2460</Absolute>
    <NoteOn Channel="11" Note="41" Velocity="99"/>
  </Event>
  <Event>
    <Absolute>2460</Absolute>
    <NoteOn Channel="11" Note="29" Velocity="99"/>
  </Event>
  <Event>
    <Absolute>2460</Absolute>
    <NoteOn Channel="11" Note="56" Velocity="99"/>
  </Event>
  <Event>
    <Absolute>2461</Absolute>
    <NoteOn Channel="11" Note="58" Velocity="107"/>
  </Event>
  <Event>
    <Absolute>2480</Absolute>
    <NoteOn Channel="11" Note="56" Velocity="0"/>
  </Event>
  <Event>
    <Absolute>2483</Absolute>
    <NoteOn Channel="11" Note="41" Velocity="0"/>
  </Event>
  <Event>
    <Absolute>2483</Absolute>
    <NoteOn Channel="11" Note="29" Velocity="0"/>
  </Event>
  <Event>
    <Absolute>2484</Absolute>
    <NoteOn Channel="11" Note="58" Velocity="0"/>
  </Event>
  <Event>
    <Absolute>2580</Absolute>
    <NoteOn Channel="11" Note="29" Velocity="99"/>
  </Event>
  <Event>
    <Absolute>2581</Absolute>
    <NoteOn Channel="11" Note="56" Velocity="99"/>
  </Event>
  <Event>
    <Absolute>2581</Absolute>
    <NoteOn Channel="11" Note="53" Velocity="99"/>
  </Event>
  <Event>
    <Absolute>2612</Absolute>
    <NoteOn Channel="11" Note="56" Velocity="0"/>
  </Event>
  <Event>
    <Absolute>2618</Absolute>
    <NoteOn Channel="11" Note="29" Velocity="0"/>
  </Event>
  <Event>
    <Absolute>2620</Absolute>
    <NoteOn Channel="11" Note="53" Velocity="0"/>
  </Event>
  <Event>
    <Absolute>2700</Absolute>
    <NoteOn Channel="11" Note="29" Velocity="99"/>
  </Event>
  <Event>
    <Absolute>2700</Absolute>
    <NoteOn Channel="11" Note="56" Velocity="99"/>
  </Event>
  <Event>
    <Absolute>2701</Absolute>
    <NoteOn Channel="11" Note="58" Velocity="99"/>
  </Event>
  <Event>
    <Absolute>2725</Absolute>
    <NoteOn Channel="11" Note="58" Velocity="0"/>
  </Event>
  <Event>
    <Absolute>2736</Absolute>
    <NoteOn Channel="11" Note="56" Velocity="0"/>
  </Event>
  <Event>
    <Absolute>2736</Absolute>
    <NoteOn Channel="11" Note="29" Velocity="0"/>
  </Event>
  <Event>
    <Absolute>2763</Absolute>
    <NoteOn Channel="11" Note="58" Velocity="107"/>
  </Event>
  <Event>
    <Absolute>2764</Absolute>
    <NoteOn Channel="11" Note="63" Velocity="107"/>
  </Event>
  <Event>
    <Absolute>2764</Absolute>
    <NoteOn Channel="11" Note="29" Velocity="99"/>
  </Event>
  <Event>
    <Absolute>2764</Absolute>
    <NoteOn Channel="11" Note="56" Velocity="99"/>
  </Event>
  <Event>
    <Absolute>2780</Absolute>
    <NoteOn Channel="11" Note="56" Velocity="0"/>
  </Event>
  <Event>
    <Absolute>2780</Absolute>
    <NoteOn Channel="11" Note="63" Velocity="0"/>
  </Event>
  <Event>
    <Absolute>2784</Absolute>
    <NoteOn Channel="11" Note="58" Velocity="0"/>
  </Event>
  <Event>
    <Absolute>2790</Absolute>
    <NoteOn Channel="11" Note="29" Velocity="0"/>
  </Event>
  <Event>
    <Absolute>2818</Absolute>
    <NoteOn Channel="11" Note="29" Velocity="99"/>
  </Event>
  <Event>
    <Absolute>2820</Absolute>
    <NoteOn Channel="11" Note="58" Velocity="107"/>
  </Event>
  <Event>
    <Absolute>2821</Absolute>
    <NoteOn Channel="11" Note="63" Velocity="107"/>
  </Event>
  <Event>
    <Absolute>2821</Absolute>
    <NoteOn Channel="11" Note="56" Velocity="99"/>
  </Event>
  <Event>
    <Absolute>2829</Absolute>
    <NoteOn Channel="11" Note="56" Velocity="0"/>
  </Event>
  <Event>
    <Absolute>2829</Absolute>
    <NoteOn Channel="11" Note="63" Velocity="0"/>
  </Event>
  <Event>
    <Absolute>2830</Absolute>
    <NoteOn Channel="11" Note="58" Velocity="0"/>
  </Event>
  <Event>
    <Absolute>2831</Absolute>
    <NoteOn Channel="11" Note="29" Velocity="0"/>
  </Event>
  <Event>
    <Absolute>2840</Absolute>
    <NoteOn Channel="11" Note="58" Velocity="107"/>
  </Event>
  <Event>
    <Absolute>2841</Absolute>
    <NoteOn Channel="11" Note="63" Velocity="107"/>
  </Event>
  <Event>
    <Absolute>2841</Absolute>
    <NoteOn Channel="11" Note="29" Velocity="99"/>
  </Event>
  <Event>
    <Absolute>2841</Absolute>
    <NoteOn Channel="11" Note="56" Velocity="99"/>
  </Event>
  <Event>
    <Absolute>2849</Absolute>
    <NoteOn Channel="11" Note="56" Velocity="0"/>
  </Event>
  <Event>
    <Absolute>2849</Absolute>
    <NoteOn Channel="11" Note="63" Velocity="0"/>
  </Event>
  <Event>
    <Absolute>2850</Absolute>
    <NoteOn Channel="11" Note="29" Velocity="0"/>
  </Event>
  <Event>
    <Absolute>2850</Absolute>
    <NoteOn Channel="11" Note="58" Velocity="0"/>
  </Event>
  <Event>
    <Absolute>2859</Absolute>
    <NoteOn Channel="11" Note="58" Velocity="107"/>
  </Event>
  <Event>
    <Absolute>2860</Absolute>
    <NoteOn Channel="11" Note="29" Velocity="99"/>
  </Event>
  <Event>
    <Absolute>2860</Absolute>
    <NoteOn Channel="11" Note="56" Velocity="99"/>
  </Event>
  <Event>
    <Absolute>2860</Absolute>
    <NoteOn Channel="11" Note="63" Velocity="107"/>
  </Event>
  <Event>
    <Absolute>2870</Absolute>
    <NoteOn Channel="11" Note="63" Velocity="0"/>
  </Event>
  <Event>
    <Absolute>2872</Absolute>
    <NoteOn Channel="11" Note="58" Velocity="0"/>
  </Event>
  <Event>
    <Absolute>2872</Absolute>
    <NoteOn Channel="11" Note="29" Velocity="0"/>
  </Event>
  <Event>
    <Absolute>2879</Absolute>
    <NoteOn Channel="11" Note="56" Velocity="0"/>
  </Event>
  <Event>
    <Absolute>2881</Absolute>
    <NoteOn Channel="11" Note="58" Velocity="107"/>
  </Event>
  <Event>
    <Absolute>2881</Absolute>
    <NoteOn Channel="11" Note="53" Velocity="107"/>
  </Event>
  <Event>
    <Absolute>2881</Absolute>
    <NoteOn Channel="11" Note="34" Velocity="99"/>
  </Event>
  <Event>
    <Absolute>2881</Absolute>
    <NoteOn Channel="11" Note="46" Velocity="99"/>
  </Event>
  <Event>
    <Absolute>2881</Absolute>
    <NoteOn Channel="11" Note="50" Velocity="99"/>
  </Event>
  <Event>
    <Absolute>2897</Absolute>
    <NoteOn Channel="11" Note="50" Velocity="0"/>
  </Event>
  <Event>
    <Absolute>2897</Absolute>
    <NoteOn Channel="11" Note="58" Velocity="0"/>
  </Event>
  <Event>
    <Absolute>2898</Absolute>
    <NoteOn Channel="11" Note="34" Velocity="0"/>
  </Event>
  <Event>
    <Absolute>2899</Absolute>
    <NoteOn Channel="11" Note="53" Velocity="0"/>
  </Event>
  <Event>
    <Absolute>2899</Absolute>
    <NoteOn Channel="11" Note="46" Velocity="0"/>
  </Event>
  <Event>
    <Absolute>2921</Absolute>
    <NoteOn Channel="11" Note="50" Velocity="99"/>
  </Event>
  <Event>
    <Absolute>2921</Absolute>
    <NoteOn Channel="11" Note="58" Velocity="107"/>
  </Event>
  <Event>
    <Absolute>2921</Absolute>
    <NoteOn Channel="11" Note="53" Velocity="107"/>
  </Event>
  <Event>
    <Absolute>2921</Absolute>
    <NoteOn Channel="11" Note="34" Velocity="99"/>
  </Event>
  <Event>
    <Absolute>2921</Absolute>
    <NoteOn Channel="11" Note="46" Velocity="99"/>
  </Event>
  <Event>
    <Absolute>2936</Absolute>
    <NoteOn Channel="11" Note="58" Velocity="0"/>
  </Event>
  <Event>
    <Absolute>2936</Absolute>
    <NoteOn Channel="11" Note="50" Velocity="0"/>
  </Event>
  <Event>
    <Absolute>2939</Absolute>
    <NoteOn Channel="11" Note="34" Velocity="0"/>
  </Event>
  <Event>
    <Absolute>2939</Absolute>
    <NoteOn Channel="11" Note="53" Velocity="0"/>
  </Event>
  <Event>
    <Absolute>2939</Absolute>
    <NoteOn Channel="11" Note="46" Velocity="0"/>
  </Event>
  <Event>
    <Absolute>2961</Absolute>
    <NoteOn Channel="11" Note="50" Velocity="99"/>
  </Event>
  <Event>
    <Absolute>2961</Absolute>
    <NoteOn Channel="11" Note="58" Velocity="107"/>
  </Event>
  <Event>
    <Absolute>2961</Absolute>
    <NoteOn Channel="11" Note="53" Velocity="107"/>
  </Event>
  <Event>
    <Absolute>2961</Absolute>
    <NoteOn Channel="11" Note="46" Velocity="99"/>
  </Event>
  <Event>
    <Absolute>2961</Absolute>
    <NoteOn Channel="11" Note="34" Velocity="99"/>
  </Event>
  <Event>
    <Absolute>2981</Absolute>
    <NoteOn Channel="11" Note="46" Velocity="0"/>
  </Event>
  <Event>
    <Absolute>2981</Absolute>
    <NoteOn Channel="11" Note="53" Velocity="0"/>
  </Event>
  <Event>
    <Absolute>2981</Absolute>
    <NoteOn Channel="11" Note="50" Velocity="0"/>
  </Event>
  <Event>
    <Absolute>2981</Absolute>
    <NoteOn Channel="11" Note="58" Velocity="0"/>
  </Event>
  <Event>
    <Absolute>2982</Absolute>
    <NoteOn Channel="11" Note="34" Velocity="0"/>
  </Event>
  <Event>
    <Absolute>3060</Absolute>
    <NoteOn Channel="11" Note="58" Velocity="99"/>
  </Event>
  <Event>
    <Absolute>3060</Absolute>
    <NoteOn Channel="11" Note="29" Velocity="99"/>
  </Event>
  <Event>
    <Absolute>3061</Absolute>
    <NoteOn Channel="11" Note="56" Velocity="99"/>
  </Event>
  <Event>
    <Absolute>3061</Absolute>
    <NoteOn Channel="11" Note="51" Velocity="99"/>
  </Event>
  <Event>
    <Absolute>3092</Absolute>
    <NoteOn Channel="11" Note="56" Velocity="0"/>
  </Event>
  <Event>
    <Absolute>3096</Absolute>
    <NoteOn Channel="11" Note="58" Velocity="0"/>
  </Event>
  <Event>
    <Absolute>3097</Absolute>
    <NoteOn Channel="11" Note="51" Velocity="0"/>
  </Event>
  <Event>
    <Absolute>3098</Absolute>
    <NoteOn Channel="11" Note="29" Velocity="0"/>
  </Event>
  <Event>
    <Absolute>3180</Absolute>
    <NoteOn Channel="11" Note="29" Velocity="99"/>
  </Event>
  <Event>
    <Absolute>3180</Absolute>
    <NoteOn Channel="11" Note="56" Velocity="99"/>
  </Event>
  <Event>
    <Absolute>3181</Absolute>
    <NoteOn Channel="11" Note="51" Velocity="99"/>
  </Event>
  <Event>
    <Absolute>3181</Absolute>
    <NoteOn Channel="11" Note="58" Velocity="99"/>
  </Event>
  <Event>
    <Absolute>3205</Absolute>
    <NoteOn Channel="11" Note="58" Velocity="0"/>
  </Event>
  <Event>
    <Absolute>3214</Absolute>
    <NoteOn Channel="11" Note="51" Velocity="0"/>
  </Event>
  <Event>
    <Absolute>3216</Absolute>
    <NoteOn Channel="11" Note="56" Velocity="0"/>
  </Event>
  <Event>
    <Absolute>3216</Absolute>
    <NoteOn Channel="11" Note="29" Velocity="0"/>
  </Event>
  <Event>
    <Absolute>3243</Absolute>
    <NoteOn Channel="11" Note="51" Velocity="99"/>
  </Event>
  <Event>
    <Absolute>3243</Absolute>
    <NoteOn Channel="11" Note="58" Velocity="107"/>
  </Event>
  <Event>
    <Absolute>3244</Absolute>
    <NoteOn Channel="11" Note="63" Velocity="107"/>
  </Event>
  <Event>
    <Absolute>3244</Absolute>
    <NoteOn Channel="11" Note="29" Velocity="99"/>
  </Event>
  <Event>
    <Absolute>3244</Absolute>
    <NoteOn Channel="11" Note="56" Velocity="99"/>
  </Event>
  <Event>
    <Absolute>3260</Absolute>
    <NoteOn Channel="11" Note="56" Velocity="0"/>
  </Event>
  <Event>
    <Absolute>3260</Absolute>
    <NoteOn Channel="11" Note="63" Velocity="0"/>
  </Event>
  <Event>
    <Absolute>3264</Absolute>
    <NoteOn Channel="11" Note="51" Velocity="0"/>
  </Event>
  <Event>
    <Absolute>3264</Absolute>
    <NoteOn Channel="11" Note="58" Velocity="0"/>
  </Event>
  <Event>
    <Absolute>3270</Absolute>
    <NoteOn Channel="11" Note="29" Velocity="0"/>
  </Event>
  <Event>
    <Absolute>3298</Absolute>
    <NoteOn Channel="11" Note="29" Velocity="99"/>
  </Event>
  <Event>
    <Absolute>3300</Absolute>
    <NoteOn Channel="11" Note="51" Velocity="99"/>
  </Event>
  <Event>
    <Absolute>3300</Absolute>
    <NoteOn Channel="11" Note="58" Velocity="107"/>
  </Event>
  <Event>
    <Absolute>3301</Absolute>
    <NoteOn Channel="11" Note="63" Velocity="107"/>
  </Event>
  <Event>
    <Absolute>3301</Absolute>
    <NoteOn Channel="11" Note="56" Velocity="99"/>
  </Event>
  <Event>
    <Absolute>3309</Absolute>
    <NoteOn Channel="11" Note="56" Velocity="0"/>
  </Event>
  <Event>
    <Absolute>3309</Absolute>
    <NoteOn Channel="11" Note="63" Velocity="0"/>
  </Event>
  <Event>
    <Absolute>3310</Absolute>
    <NoteOn Channel="11" Note="58" Velocity="0"/>
  </Event>
  <Event>
    <Absolute>3310</Absolute>
    <NoteOn Channel="11" Note="51" Velocity="0"/>
  </Event>
  <Event>
    <Absolute>3311</Absolute>
    <NoteOn Channel="11" Note="29" Velocity="0"/>
  </Event>
  <Event>
    <Absolute>3320</Absolute>
    <NoteOn Channel="11" Note="51" Velocity="99"/>
  </Event>
  <Event>
    <Absolute>3320</Absolute>
    <NoteOn Channel="11" Note="58" Velocity="107"/>
  </Event>
  <Event>
    <Absolute>3321</Absolute>
    <NoteOn Channel="11" Note="63" Velocity="107"/>
  </Event>
  <Event>
    <Absolute>3321</Absolute>
    <NoteOn Channel="11" Note="29" Velocity="99"/>
  </Event>
  <Event>
    <Absolute>3321</Absolute>
    <NoteOn Channel="11" Note="56" Velocity="99"/>
  </Event>
  <Event>
    <Absolute>3329</Absolute>
    <NoteOn Channel="11" Note="56" Velocity="0"/>
  </Event>
  <Event>
    <Absolute>3329</Absolute>
    <NoteOn Channel="11" Note="63" Velocity="0"/>
  </Event>
  <Event>
    <Absolute>3330</Absolute>
    <NoteOn Channel="11" Note="51" Velocity="0"/>
  </Event>
  <Event>
    <Absolute>3330</Absolute>
    <NoteOn Channel="11" Note="58" Velocity="0"/>
  </Event>
  <Event>
    <Absolute>3330</Absolute>
    <NoteOn Channel="11" Note="29" Velocity="0"/>
  </Event>
  <Event>
    <Absolute>3339</Absolute>
    <NoteOn Channel="11" Note="51" Velocity="99"/>
  </Event>
  <Event>
    <Absolute>3339</Absolute>
    <NoteOn Channel="11" Note="58" Velocity="107"/>
  </Event>
  <Event>
    <Absolute>3340</Absolute>
    <NoteOn Channel="11" Note="29" Velocity="99"/>
  </Event>
  <Event>
    <Absolute>3340</Absolute>
    <NoteOn Channel="11" Note="56" Velocity="99"/>
  </Event>
  <Event>
    <Absolute>3340</Absolute>
    <NoteOn Channel="11" Note="63" Velocity="107"/>
  </Event>
  <Event>
    <Absolute>3350</Absolute>
    <NoteOn Channel="11" Note="63" Velocity="0"/>
  </Event>
  <Event>
    <Absolute>3350</Absolute>
    <NoteOn Channel="11" Note="56" Velocity="0"/>
  </Event>
  <Event>
    <Absolute>3352</Absolute>
    <NoteOn Channel="11" Note="51" Velocity="0"/>
  </Event>
  <Event>
    <Absolute>3352</Absolute>
    <NoteOn Channel="11" Note="58" Velocity="0"/>
  </Event>
  <Event>
    <Absolute>3352</Absolute>
    <NoteOn Channel="11" Note="29" Velocity="0"/>
  </Event>
  <Event>
    <Absolute>3361</Absolute>
    <NoteOn Channel="11" Note="58" Velocity="107"/>
  </Event>
  <Event>
    <Absolute>3361</Absolute>
    <NoteOn Channel="11" Note="53" Velocity="107"/>
  </Event>
  <Event>
    <Absolute>3361</Absolute>
    <NoteOn Channel="11" Note="34" Velocity="99"/>
  </Event>
  <Event>
    <Absolute>3361</Absolute>
    <NoteOn Channel="11" Note="46" Velocity="99"/>
  </Event>
  <Event>
    <Absolute>3361</Absolute>
    <NoteOn Channel="11" Note="51" Velocity="99"/>
  </Event>
  <Event>
    <Absolute>3377</Absolute>
    <NoteOn Channel="11" Note="51" Velocity="0"/>
  </Event>
  <Event>
    <Absolute>3377</Absolute>
    <NoteOn Channel="11" Note="58" Velocity="0"/>
  </Event>
  <Event>
    <Absolute>3378</Absolute>
    <NoteOn Channel="11" Note="34" Velocity="0"/>
  </Event>
  <Event>
    <Absolute>3379</Absolute>
    <NoteOn Channel="11" Note="53" Velocity="0"/>
  </Event>
  <Event>
    <Absolute>3379</Absolute>
    <NoteOn Channel="11" Note="46" Velocity="0"/>
  </Event>
  <Event>
    <Absolute>3401</Absolute>
    <NoteOn Channel="11" Note="50" Velocity="99"/>
  </Event>
  <Event>
    <Absolute>3401</Absolute>
    <NoteOn Channel="11" Note="58" Velocity="107"/>
  </Event>
  <Event>
    <Absolute>3401</Absolute>
    <NoteOn Channel="11" Note="53" Velocity="107"/>
  </Event>
  <Event>
    <Absolute>3401</Absolute>
    <NoteOn Channel="11" Note="34" Velocity="99"/>
  </Event>
  <Event>
    <Absolute>3401</Absolute>
    <NoteOn Channel="11" Note="46" Velocity="99"/>
  </Event>
  <Event>
    <Absolute>3416</Absolute>
    <NoteOn Channel="11" Note="58" Velocity="0"/>
  </Event>
  <Event>
    <Absolute>3416</Absolute>
    <NoteOn Channel="11" Note="50" Velocity="0"/>
  </Event>
  <Event>
    <Absolute>3419</Absolute>
    <NoteOn Channel="11" Note="34" Velocity="0"/>
  </Event>
  <Event>
    <Absolute>3419</Absolute>
    <NoteOn Channel="11" Note="53" Velocity="0"/>
  </Event>
  <Event>
    <Absolute>3419</Absolute>
    <NoteOn Channel="11" Note="46" Velocity="0"/>
  </Event>
  <Event>
    <Absolute>3441</Absolute>
    <NoteOn Channel="11" Note="50" Velocity="99"/>
  </Event>
  <Event>
    <Absolute>3441</Absolute>
    <NoteOn Channel="11" Note="58" Velocity="107"/>
  </Event>
  <Event>
    <Absolute>3441</Absolute>
    <NoteOn Channel="11" Note="53" Velocity="107"/>
  </Event>
  <Event>
    <Absolute>3441</Absolute>
    <NoteOn Channel="11" Note="46" Velocity="99"/>
  </Event>
  <Event>
    <Absolute>3441</Absolute>
    <NoteOn Channel="11" Note="34" Velocity="99"/>
  </Event>
  <Event>
    <Absolute>3461</Absolute>
    <NoteOn Channel="11" Note="46" Velocity="0"/>
  </Event>
  <Event>
    <Absolute>3461</Absolute>
    <NoteOn Channel="11" Note="53" Velocity="0"/>
  </Event>
  <Event>
    <Absolute>3461</Absolute>
    <NoteOn Channel="11" Note="50" Velocity="0"/>
  </Event>
  <Event>
    <Absolute>3461</Absolute>
    <NoteOn Channel="11" Note="58" Velocity="0"/>
  </Event>
  <Event>
    <Absolute>3462</Absolute>
    <NoteOn Channel="11" Note="34" Velocity="0"/>
  </Event>
  <Event>
    <Absolute>3603</Absolute>
    <NoteOn Channel="11" Note="41" Velocity="105"/>
  </Event>
  <Event>
    <Absolute>3629</Absolute>
    <NoteOn Channel="11" Note="41" Velocity="0"/>
  </Event>
  <Event>
    <Absolute>3776</Absolute>
    <NoteOn Channel="11" Note="41" Velocity="105"/>
  </Event>
  <Event>
    <Absolute>3789</Absolute>
    <NoteOn Channel="11" Note="41" Velocity="0"/>
  </Event>
  <Event>
    <Absolute>3796</Absolute>
    <NoteOn Channel="11" Note="41" Velocity="105"/>
  </Event>
  <Event>
    <Absolute>3807</Absolute>
    <NoteOn Channel="11" Note="41" Velocity="0"/>
  </Event>
  <Event>
    <Absolute>3813</Absolute>
    <NoteOn Channel="11" Note="41" Velocity="90"/>
  </Event>
  <Event>
    <Absolute>3825</Absolute>
    <NoteOn Channel="11" Note="41" Velocity="0"/>
  </Event>
  <Event>
    <Absolute>3838</Absolute>
    <NoteOn Channel="11" Note="41" Velocity="105"/>
  </Event>
  <Event>
    <Absolute>3868</Absolute>
    <NoteOn Channel="11" Note="41" Velocity="0"/>
  </Event>
  <Event>
    <Absolute>3896</Absolute>
    <NoteOn Channel="11" Note="41" Velocity="95"/>
  </Event>
  <Event>
    <Absolute>3922</Absolute>
    <NoteOn Channel="11" Note="41" Velocity="0"/>
  </Event>
  <Event>
    <Absolute>3958</Absolute>
    <NoteOn Channel="11" Note="46" Velocity="95"/>
  </Event>
  <Event>
    <Absolute>3958</Absolute>
    <NoteOn Channel="11" Note="34" Velocity="95"/>
  </Event>
  <Event>
    <Absolute>4063</Absolute>
    <NoteOn Channel="11" Note="34" Velocity="0"/>
  </Event>
  <Event>
    <Absolute>4063</Absolute>
    <NoteOn Channel="11" Note="46" Velocity="0"/>
  </Event>
  <Event>
    <Absolute>4076</Absolute>
    <NoteOn Channel="11" Note="45" Velocity="95"/>
  </Event>
  <Event>
    <Absolute>4076</Absolute>
    <NoteOn Channel="11" Note="33" Velocity="95"/>
  </Event>
  <Event>
    <Absolute>4173</Absolute>
    <NoteOn Channel="11" Note="33" Velocity="0"/>
  </Event>
  <Event>
    <Absolute>4173</Absolute>
    <NoteOn Channel="11" Note="45" Velocity="0"/>
  </Event>
  <Event>
    <Absolute>4197</Absolute>
    <NoteOn Channel="11" Note="45" Velocity="95"/>
  </Event>
  <Event>
    <Absolute>4197</Absolute>
    <NoteOn Channel="11" Note="33" Velocity="95"/>
  </Event>
  <Event>
    <Absolute>4266</Absolute>
    <NoteOn Channel="11" Note="45" Velocity="95"/>
  </Event>
  <Event>
    <Absolute>4266</Absolute>
    <NoteOn Channel="11" Note="33" Velocity="95"/>
  </Event>
  <Event>
    <Absolute>4272</Absolute>
    <NoteOn Channel="11" Note="33" Velocity="0"/>
  </Event>
  <Event>
    <Absolute>4272</Absolute>
    <NoteOn Channel="11" Note="45" Velocity="0"/>
  </Event>
  <Event>
    <Absolute>4319</Absolute>
    <NoteOn Channel="11" Note="46" Velocity="95"/>
  </Event>
  <Event>
    <Absolute>4319</Absolute>
    <NoteOn Channel="11" Note="34" Velocity="95"/>
  </Event>
  <Event>
    <Absolute>4335</Absolute>
    <NoteOn Channel="11" Note="45" Velocity="0"/>
  </Event>
  <Event>
    <Absolute>4335</Absolute>
    <NoteOn Channel="11" Note="33" Velocity="0"/>
  </Event>
  <Event>
    <Absolute>4337</Absolute>
    <NoteOn Channel="11" Note="46" Velocity="0"/>
  </Event>
  <Event>
    <Absolute>4337</Absolute>
    <NoteOn Channel="11" Note="34" Velocity="0"/>
  </Event>
  <Event>
    <Absolute>4358</Absolute>
    <NoteOn Channel="11" Note="46" Velocity="95"/>
  </Event>
  <Event>
    <Absolute>4358</Absolute>
    <NoteOn Channel="11" Note="34" Velocity="95"/>
  </Event>
  <Event>
    <Absolute>4376</Absolute>
    <NoteOn Channel="11" Note="34" Velocity="0"/>
  </Event>
  <Event>
    <Absolute>4376</Absolute>
    <NoteOn Channel="11" Note="46" Velocity="0"/>
  </Event>
  <Event>
    <Absolute>4391</Absolute>
    <NoteOn Channel="11" Note="45" Velocity="95"/>
  </Event>
  <Event>
    <Absolute>4391</Absolute>
    <NoteOn Channel="11" Note="33" Velocity="95"/>
  </Event>
  <Event>
    <Absolute>4413</Absolute>
    <NoteOn Channel="11" Note="33" Velocity="0"/>
  </Event>
  <Event>
    <Absolute>4413</Absolute>
    <NoteOn Channel="11" Note="45" Velocity="0"/>
  </Event>
  <Event>
    <Absolute>4438</Absolute>
    <NoteOn Channel="11" Note="43" Velocity="95"/>
  </Event>
  <Event>
    <Absolute>4438</Absolute>
    <NoteOn Channel="11" Note="31" Velocity="95"/>
  </Event>
  <Event>
    <Absolute>4546</Absolute>
    <NoteOn Channel="11" Note="31" Velocity="0"/>
  </Event>
  <Event>
    <Absolute>4546</Absolute>
    <NoteOn Channel="11" Note="43" Velocity="0"/>
  </Event>
  <Event>
    <Absolute>4560</Absolute>
    <NoteOn Channel="11" Note="43" Velocity="95"/>
  </Event>
  <Event>
    <Absolute>4560</Absolute>
    <NoteOn Channel="11" Note="31" Velocity="95"/>
  </Event>
  <Event>
    <Absolute>4641</Absolute>
    <NoteOn Channel="11" Note="31" Velocity="0"/>
  </Event>
  <Event>
    <Absolute>4641</Absolute>
    <NoteOn Channel="11" Note="43" Velocity="0"/>
  </Event>
  <Event>
    <Absolute>4643</Absolute>
    <NoteOn Channel="11" Note="51" Velocity="95"/>
  </Event>
  <Event>
    <Absolute>4643</Absolute>
    <NoteOn Channel="11" Note="39" Velocity="95"/>
  </Event>
  <Event>
    <Absolute>4664</Absolute>
    <NoteOn Channel="11" Note="39" Velocity="0"/>
  </Event>
  <Event>
    <Absolute>4664</Absolute>
    <NoteOn Channel="11" Note="51" Velocity="0"/>
  </Event>
  <Event>
    <Absolute>4681</Absolute>
    <NoteOn Channel="11" Note="51" Velocity="95"/>
  </Event>
  <Event>
    <Absolute>4681</Absolute>
    <NoteOn Channel="11" Note="39" Velocity="95"/>
  </Event>
  <Event>
    <Absolute>4701</Absolute>
    <NoteOn Channel="11" Note="39" Velocity="0"/>
  </Event>
  <Event>
    <Absolute>4701</Absolute>
    <NoteOn Channel="11" Note="51" Velocity="0"/>
  </Event>
  <Event>
    <Absolute>4723</Absolute>
    <NoteOn Channel="11" Note="50" Velocity="95"/>
  </Event>
  <Event>
    <Absolute>4723</Absolute>
    <NoteOn Channel="11" Note="38" Velocity="95"/>
  </Event>
  <Event>
    <Absolute>4742</Absolute>
    <NoteOn Channel="11" Note="38" Velocity="0"/>
  </Event>
  <Event>
    <Absolute>4742</Absolute>
    <NoteOn Channel="11" Note="50" Velocity="0"/>
  </Event>
  <Event>
    <Absolute>4763</Absolute>
    <NoteOn Channel="11" Note="48" Velocity="95"/>
  </Event>
  <Event>
    <Absolute>4763</Absolute>
    <NoteOn Channel="11" Note="36" Velocity="95"/>
  </Event>
  <Event>
    <Absolute>4782</Absolute>
    <NoteOn Channel="11" Note="36" Velocity="0"/>
  </Event>
  <Event>
    <Absolute>4782</Absolute>
    <NoteOn Channel="11" Note="48" Velocity="0"/>
  </Event>
  <Event>
    <Absolute>4807</Absolute>
    <NoteOn Channel="11" Note="46" Velocity="95"/>
  </Event>
  <Event>
    <Absolute>4807</Absolute>
    <NoteOn Channel="11" Note="34" Velocity="95"/>
  </Event>
  <Event>
    <Absolute>4827</Absolute>
    <NoteOn Channel="11" Note="34" Velocity="0"/>
  </Event>
  <Event>
    <Absolute>4827</Absolute>
    <NoteOn Channel="11" Note="46" Velocity="0"/>
  </Event>
  <Event>
    <Absolute>4845</Absolute>
    <NoteOn Channel="11" Note="45" Velocity="95"/>
  </Event>
  <Event>
    <Absolute>4845</Absolute>
    <NoteOn Channel="11" Note="33" Velocity="95"/>
  </Event>
  <Event>
    <Absolute>4863</Absolute>
    <NoteOn Channel="11" Note="33" Velocity="0"/>
  </Event>
  <Event>
    <Absolute>4863</Absolute>
    <NoteOn Channel="11" Note="45" Velocity="0"/>
  </Event>
  <Event>
    <Absolute>4883</Absolute>
    <NoteOn Channel="11" Note="43" Velocity="95"/>
  </Event>
  <Event>
    <Absolute>4883</Absolute>
    <NoteOn Channel="11" Note="31" Velocity="95"/>
  </Event>
  <Event>
    <Absolute>4904</Absolute>
    <NoteOn Channel="11" Note="31" Velocity="0"/>
  </Event>
  <Event>
    <Absolute>4904</Absolute>
    <NoteOn Channel="11" Note="43" Velocity="0"/>
  </Event>
  <Event>
    <Absolute>4927</Absolute>
    <NoteOn Channel="11" Note="41" Velocity="95"/>
  </Event>
  <Event>
    <Absolute>4927</Absolute>
    <NoteOn Channel="11" Note="29" Velocity="95"/>
  </Event>
  <Event>
    <Absolute>5012</Absolute>
    <NoteOn Channel="11" Note="29" Velocity="0"/>
  </Event>
  <Event>
    <Absolute>5012</Absolute>
    <NoteOn Channel="11" Note="41" Velocity="0"/>
  </Event>
  <Event>
    <Absolute>5041</Absolute>
    <NoteOn Channel="11" Note="43" Velocity="95"/>
  </Event>
  <Event>
    <Absolute>5041</Absolute>
    <NoteOn Channel="11" Note="31" Velocity="95"/>
  </Event>
  <Event>
    <Absolute>5067</Absolute>
    <NoteOn Channel="11" Note="31" Velocity="0"/>
  </Event>
  <Event>
    <Absolute>5067</Absolute>
    <NoteOn Channel="11" Note="43" Velocity="0"/>
  </Event>
  <Event>
    <Absolute>5096</Absolute>
    <NoteOn Channel="11" Note="45" Velocity="95"/>
  </Event>
  <Event>
    <Absolute>5096</Absolute>
    <NoteOn Channel="11" Note="33" Velocity="95"/>
  </Event>
  <Event>
    <Absolute>5122</Absolute>
    <NoteOn Channel="11" Note="33" Velocity="0"/>
  </Event>
  <Event>
    <Absolute>5122</Absolute>
    <NoteOn Channel="11" Note="45" Velocity="0"/>
  </Event>
  <Event>
    <Absolute>5154</Absolute>
    <NoteOn Channel="11" Note="46" Velocity="95"/>
  </Event>
  <Event>
    <Absolute>5154</Absolute>
    <NoteOn Channel="11" Note="34" Velocity="95"/>
  </Event>
  <Event>
    <Absolute>5175</Absolute>
    <NoteOn Channel="11" Note="34" Velocity="0"/>
  </Event>
  <Event>
    <Absolute>5175</Absolute>
    <NoteOn Channel="11" Note="46" Velocity="0"/>
  </Event>
  <Event>
    <Absolute>5195</Absolute>
    <NoteOn Channel="11" Note="45" Velocity="95"/>
  </Event>
  <Event>
    <Absolute>5195</Absolute>
    <NoteOn Channel="11" Note="33" Velocity="95"/>
  </Event>
  <Event>
    <Absolute>5211</Absolute>
    <NoteOn Channel="11" Note="33" Velocity="0"/>
  </Event>
  <Event>
    <Absolute>5211</Absolute>
    <NoteOn Channel="11" Note="45" Velocity="0"/>
  </Event>
  <Event>
    <Absolute>5233</Absolute>
    <NoteOn Channel="11" Note="43" Velocity="95"/>
  </Event>
  <Event>
    <Absolute>5233</Absolute>
    <NoteOn Channel="11" Note="31" Velocity="95"/>
  </Event>
  <Event>
    <Absolute>5255</Absolute>
    <NoteOn Channel="11" Note="31" Velocity="0"/>
  </Event>
  <Event>
    <Absolute>5255</Absolute>
    <NoteOn Channel="11" Note="43" Velocity="0"/>
  </Event>
  <Event>
    <Absolute>5277</Absolute>
    <NoteOn Channel="11" Note="41" Velocity="95"/>
  </Event>
  <Event>
    <Absolute>5277</Absolute>
    <NoteOn Channel="11" Note="29" Velocity="95"/>
  </Event>
  <Event>
    <Absolute>5305</Absolute>
    <NoteOn Channel="11" Note="29" Velocity="0"/>
  </Event>
  <Event>
    <Absolute>5305</Absolute>
    <NoteOn Channel="11" Note="41" Velocity="0"/>
  </Event>
  <Event>
    <Absolute>5339</Absolute>
    <NoteOn Channel="11" Note="46" Velocity="95"/>
  </Event>
  <Event>
    <Absolute>5339</Absolute>
    <NoteOn Channel="11" Note="34" Velocity="95"/>
  </Event>
  <Event>
    <Absolute>5373</Absolute>
    <NoteOn Channel="11" Note="34" Velocity="0"/>
  </Event>
  <Event>
    <Absolute>5373</Absolute>
    <NoteOn Channel="11" Note="46" Velocity="0"/>
  </Event>
  <Event>
    <Absolute>5397</Absolute>
    <NoteOn Channel="11" Note="53" Velocity="95"/>
  </Event>
  <Event>
    <Absolute>5398</Absolute>
    <NoteOn Channel="11" Note="41" Velocity="95"/>
  </Event>
  <Event>
    <Absolute>5399</Absolute>
    <NoteOn Channel="11" Note="56" Velocity="95"/>
  </Event>
  <Event>
    <Absolute>5419</Absolute>
    <NoteOn Channel="11" Note="56" Velocity="0"/>
  </Event>
  <Event>
    <Absolute>5435</Absolute>
    <NoteOn Channel="11" Note="55" Velocity="95"/>
  </Event>
  <Event>
    <Absolute>5452</Absolute>
    <NoteOn Channel="11" Note="55" Velocity="0"/>
  </Event>
  <Event>
    <Absolute>5476</Absolute>
    <NoteOn Channel="11" Note="56" Velocity="95"/>
  </Event>
  <Event>
    <Absolute>5484</Absolute>
    <NoteOn Channel="11" Note="53" Velocity="0"/>
  </Event>
  <Event>
    <Absolute>5491</Absolute>
    <NoteOn Channel="11" Note="41" Velocity="0"/>
  </Event>
  <Event>
    <Absolute>5492</Absolute>
    <NoteOn Channel="11" Note="56" Velocity="0"/>
  </Event>
  <Event>
    <Absolute>5511</Absolute>
    <NoteOn Channel="11" Note="29" Velocity="95"/>
  </Event>
  <Event>
    <Absolute>5512</Absolute>
    <NoteOn Channel="11" Note="41" Velocity="95"/>
  </Event>
  <Event>
    <Absolute>5514</Absolute>
    <NoteOn Channel="11" Note="53" Velocity="95"/>
  </Event>
  <Event>
    <Absolute>5530</Absolute>
    <NoteOn Channel="11" Note="41" Velocity="0"/>
  </Event>
  <Event>
    <Absolute>5531</Absolute>
    <NoteOn Channel="11" Note="29" Velocity="0"/>
  </Event>
  <Event>
    <Absolute>5547</Absolute>
    <NoteOn Channel="11" Note="29" Velocity="95"/>
  </Event>
  <Event>
    <Absolute>5550</Absolute>
    <NoteOn Channel="11" Note="41" Velocity="95"/>
  </Event>
  <Event>
    <Absolute>5566</Absolute>
    <NoteOn Channel="11" Note="29" Velocity="0"/>
  </Event>
  <Event>
    <Absolute>5568</Absolute>
    <NoteOn Channel="11" Note="41" Velocity="0"/>
  </Event>
  <Event>
    <Absolute>5585</Absolute>
    <NoteOn Channel="11" Note="29" Velocity="95"/>
  </Event>
  <Event>
    <Absolute>5587</Absolute>
    <NoteOn Channel="11" Note="41" Velocity="95"/>
  </Event>
  <Event>
    <Absolute>5605</Absolute>
    <NoteOn Channel="11" Note="29" Velocity="0"/>
  </Event>
  <Event>
    <Absolute>5609</Absolute>
    <NoteOn Channel="11" Note="41" Velocity="0"/>
  </Event>
  <Event>
    <Absolute>5631</Absolute>
    <NoteOn Channel="11" Note="29" Velocity="95"/>
  </Event>
  <Event>
    <Absolute>5633</Absolute>
    <NoteOn Channel="11" Note="41" Velocity="95"/>
  </Event>
  <Event>
    <Absolute>5736</Absolute>
    <NoteOn Channel="11" Note="41" Velocity="0"/>
  </Event>
  <Event>
    <Absolute>5736</Absolute>
    <NoteOn Channel="11" Note="29" Velocity="0"/>
  </Event>
  <Event>
    <Absolute>5751</Absolute>
    <NoteOn Channel="11" Note="65" Velocity="92"/>
  </Event>
  <Event>
    <Absolute>5760</Absolute>
    <NoteOn Channel="11" Note="29" Velocity="87"/>
  </Event>
  <Event>
    <Absolute>5774</Absolute>
    <NoteOn Channel="11" Note="53" Velocity="0"/>
  </Event>
  <Event>
    <Absolute>5800</Absolute>
    <NoteOn Channel="11" Note="29" Velocity="0"/>
  </Event>
  <Event>
    <Absolute>5834</Absolute>
    <NoteOn Channel="11" Note="65" Velocity="0"/>
  </Event>
  <Event>
    <Absolute>5845</Absolute>
    <NoteOn Channel="11" Note="65" Velocity="92"/>
  </Event>
  <Event>
    <Absolute>5881</Absolute>
    <NoteOn Channel="11" Note="65" Velocity="0"/>
  </Event>
  <Event>
    <Absolute>5881</Absolute>
    <NoteOn Channel="11" Note="67" Velocity="92"/>
  </Event>
  <Event>
    <Absolute>5988</Absolute>
    <NoteOn Channel="11" Note="29" Velocity="89"/>
  </Event>
  <Event>
    <Absolute>6046</Absolute>
    <NoteOn Channel="11" Note="67" Velocity="0"/>
  </Event>
  <Event>
    <Absolute>6046</Absolute>
    <NoteOn Channel="11" Note="67" Velocity="92"/>
  </Event>
  <Event>
    <Absolute>6103</Absolute>
    <NoteOn Channel="11" Note="75" Velocity="92"/>
  </Event>
  <Event>
    <Absolute>6156</Absolute>
    <NoteOn Channel="11" Note="29" Velocity="0"/>
  </Event>
  <Event>
    <Absolute>6168</Absolute>
    <NoteOn Channel="11" Note="74" Velocity="92"/>
  </Event>
  <Event>
    <Absolute>6170</Absolute>
    <NoteOn Channel="11" Note="75" Velocity="0"/>
  </Event>
  <Event>
    <Absolute>6211</Absolute>
    <NoteOn Channel="11" Note="67" Velocity="0"/>
  </Event>
  <Event>
    <Absolute>6219</Absolute>
    <NoteOn Channel="11" Note="74" Velocity="0"/>
  </Event>
  <Event>
    <Absolute>6222</Absolute>
    <NoteOn Channel="11" Note="72" Velocity="92"/>
  </Event>
  <Event>
    <Absolute>6223</Absolute>
    <NoteOn Channel="11" Note="29" Velocity="89"/>
  </Event>
  <Event>
    <Absolute>6284</Absolute>
    <NoteOn Channel="11" Note="70" Velocity="91"/>
  </Event>
  <Event>
    <Absolute>6287</Absolute>
    <NoteOn Channel="11" Note="72" Velocity="0"/>
  </Event>
  <Event>
    <Absolute>6344</Absolute>
    <NoteOn Channel="11" Note="70" Velocity="0"/>
  </Event>
  <Event>
    <Absolute>6350</Absolute>
    <NoteOn Channel="11" Note="70" Velocity="89"/>
  </Event>
  <Event>
    <Absolute>6387</Absolute>
    <NoteOn Channel="11" Note="72" Velocity="89"/>
  </Event>
  <Event>
    <Absolute>6398</Absolute>
    <NoteOn Channel="11" Note="70" Velocity="0"/>
  </Event>
  <Event>
    <Absolute>6404</Absolute>
    <NoteOn Channel="11" Note="29" Velocity="0"/>
  </Event>
  <Event>
    <Absolute>6422</Absolute>
    <NoteOn Channel="11" Note="72" Velocity="0"/>
  </Event>
  <Event>
    <Absolute>6423</Absolute>
    <NoteOn Channel="11" Note="74" Velocity="89"/>
  </Event>
  <Event>
    <Absolute>6469</Absolute>
    <NoteOn Channel="11" Note="74" Velocity="0"/>
  </Event>
  <Event>
    <Absolute>6471</Absolute>
    <NoteOn Channel="11" Note="72" Velocity="91"/>
  </Event>
  <Event>
    <Absolute>6473</Absolute>
    <NoteOn Channel="11" Note="29" Velocity="89"/>
  </Event>
  <Event>
    <Absolute>6556</Absolute>
    <NoteOn Channel="11" Note="72" Velocity="0"/>
  </Event>
  <Event>
    <Absolute>6560</Absolute>
    <NoteOn Channel="11" Note="67" Velocity="92"/>
  </Event>
  <Event>
    <Absolute>6595</Absolute>
    <NoteOn Channel="11" Note="67" Velocity="0"/>
  </Event>
  <Event>
    <Absolute>6596</Absolute>
    <NoteOn Channel="11" Note="69" Velocity="92"/>
  </Event>
  <Event>
    <Absolute>6643</Absolute>
    <NoteOn Channel="11" Note="29" Velocity="0"/>
  </Event>
  <Event>
    <Absolute>6708</Absolute>
    <NoteOn Channel="11" Note="69" Velocity="0"/>
  </Event>
  <Event>
    <Absolute>6711</Absolute>
    <NoteOn Channel="11" Note="29" Velocity="89"/>
  </Event>
  <Event>
    <Absolute>6714</Absolute>
    <NoteOn Channel="11" Note="65" Velocity="92"/>
  </Event>
  <Event>
    <Absolute>6784</Absolute>
    <NoteOn Channel="11" Note="65" Velocity="0"/>
  </Event>
  <Event>
    <Absolute>6803</Absolute>
    <NoteOn Channel="11" Note="65" Velocity="92"/>
  </Event>
  <Event>
    <Absolute>6835</Absolute>
    <NoteOn Channel="11" Note="67" Velocity="92"/>
  </Event>
  <Event>
    <Absolute>6844</Absolute>
    <NoteOn Channel="11" Note="65" Velocity="0"/>
  </Event>
  <Event>
    <Absolute>6869</Absolute>
    <NoteOn Channel="11" Note="29" Velocity="0"/>
  </Event>
  <Event>
    <Absolute>6946</Absolute>
    <NoteOn Channel="11" Note="29" Velocity="89"/>
  </Event>
  <Event>
    <Absolute>7003</Absolute>
    <NoteOn Channel="11" Note="67" Velocity="0"/>
  </Event>
  <Event>
    <Absolute>7013</Absolute>
    <NoteOn Channel="11" Note="67" Velocity="92"/>
  </Event>
  <Event>
    <Absolute>7038</Absolute>
    <NoteOn Channel="11" Note="75" Velocity="69"/>
  </Event>
  <Event>
    <Absolute>7040</Absolute>
    <NoteOn Channel="11" Note="67" Velocity="0"/>
  </Event>
  <Event>
    <Absolute>7066</Absolute>
    <NoteOn Channel="11" Note="75" Velocity="0"/>
  </Event>
  <Event>
    <Absolute>7070</Absolute>
    <NoteOn Channel="11" Note="75" Velocity="92"/>
  </Event>
  <Event>
    <Absolute>7124</Absolute>
    <NoteOn Channel="11" Note="29" Velocity="0"/>
  </Event>
  <Event>
    <Absolute>7125</Absolute>
    <NoteOn Channel="11" Note="75" Velocity="0"/>
  </Event>
  <Event>
    <Absolute>7126</Absolute>
    <NoteOn Channel="11" Note="74" Velocity="92"/>
  </Event>
  <Event>
    <Absolute>7181</Absolute>
    <NoteOn Channel="11" Note="74" Velocity="0"/>
  </Event>
  <Event>
    <Absolute>7182</Absolute>
    <NoteOn Channel="11" Note="72" Velocity="92"/>
  </Event>
  <Event>
    <Absolute>7190</Absolute>
    <NoteOn Channel="11" Note="29" Velocity="89"/>
  </Event>
  <Event>
    <Absolute>7243</Absolute>
    <NoteOn Channel="11" Note="72" Velocity="0"/>
  </Event>
  <Event>
    <Absolute>7245</Absolute>
    <NoteOn Channel="11" Note="70" Velocity="91"/>
  </Event>
  <Event>
    <Absolute>7272</Absolute>
    <NoteOn Channel="11" Note="77" Velocity="81"/>
  </Event>
  <Event>
    <Absolute>7285</Absolute>
    <NoteOn Channel="11" Note="70" Velocity="0"/>
  </Event>
  <Event>
    <Absolute>7292</Absolute>
    <NoteOn Channel="11" Note="77" Velocity="0"/>
  </Event>
  <Event>
    <Absolute>7298</Absolute>
    <NoteOn Channel="11" Note="77" Velocity="92"/>
  </Event>
  <Event>
    <Absolute>7304</Absolute>
    <NoteOn Channel="11" Note="29" Velocity="0"/>
  </Event>
  <Event>
    <Absolute>7316</Absolute>
    <NoteOn Channel="11" Note="37" Velocity="89"/>
  </Event>
  <Event>
    <Absolute>7400</Absolute>
    <NoteOn Channel="11" Note="77" Velocity="0"/>
  </Event>
  <Event>
    <Absolute>7401</Absolute>
    <NoteOn Channel="11" Note="72" Velocity="82"/>
  </Event>
  <Event>
    <Absolute>7421</Absolute>
    <NoteOn Channel="11" Note="72" Velocity="0"/>
  </Event>
  <Event>
    <Absolute>7423</Absolute>
    <NoteOn Channel="11" Note="37" Velocity="0"/>
  </Event>
  <Event>
    <Absolute>7426</Absolute>
    <NoteOn Channel="11" Note="72" Velocity="92"/>
  </Event>
  <Event>
    <Absolute>7436</Absolute>
    <NoteOn Channel="11" Note="29" Velocity="89"/>
  </Event>
  <Event>
    <Absolute>7629</Absolute>
    <NoteOn Channel="11" Note="29" Velocity="0"/>
  </Event>
  <Event>
    <Absolute>7670</Absolute>
    <NoteOn Channel="11" Note="41" Velocity="89"/>
  </Event>
  <Event>
    <Absolute>7755</Absolute>
    <NoteOn Channel="11" Note="72" Velocity="0"/>
  </Event>
  <Event>
    <Absolute>7765</Absolute>
    <NoteOn Channel="11" Note="65" Velocity="92"/>
  </Event>
  <Event>
    <Absolute>7781</Absolute>
    <NoteOn Channel="11" Note="41" Velocity="0"/>
  </Event>
  <Event>
    <Absolute>7791</Absolute>
    <NoteOn Channel="11" Note="39" Velocity="89"/>
  </Event>
  <Event>
    <Absolute>7796</Absolute>
    <NoteOn Channel="11" Note="67" Velocity="92"/>
  </Event>
  <Event>
    <Absolute>7801</Absolute>
    <NoteOn Channel="11" Note="65" Velocity="0"/>
  </Event>
  <Event>
    <Absolute>7963</Absolute>
    <NoteOn Channel="11" Note="67" Velocity="0"/>
  </Event>
  <Event>
    <Absolute>7966</Absolute>
    <NoteOn Channel="11" Note="67" Velocity="92"/>
  </Event>
  <Event>
    <Absolute>8014</Absolute>
    <NoteOn Channel="11" Note="39" Velocity="0"/>
  </Event>
  <Event>
    <Absolute>8023</Absolute>
    <NoteOn Channel="11" Note="75" Velocity="92"/>
  </Event>
  <Event>
    <Absolute>8027</Absolute>
    <NoteOn Channel="11" Note="67" Velocity="0"/>
  </Event>
  <Event>
    <Absolute>8032</Absolute>
    <NoteOn Channel="11" Note="36" Velocity="114"/>
  </Event>
  <Event>
    <Absolute>8088</Absolute>
    <NoteOn Channel="11" Note="74" Velocity="92"/>
  </Event>
  <Event>
    <Absolute>8090</Absolute>
    <NoteOn Channel="11" Note="75" Velocity="0"/>
  </Event>
  <Event>
    <Absolute>8139</Absolute>
    <NoteOn Channel="11" Note="74" Velocity="0"/>
  </Event>
  <Event>
    <Absolute>8142</Absolute>
    <NoteOn Channel="11" Note="72" Velocity="92"/>
  </Event>
  <Event>
    <Absolute>8153</Absolute>
    <NoteOn Channel="11" Note="60" Velocity="114"/>
  </Event>
  <Event>
    <Absolute>8204</Absolute>
    <NoteOn Channel="11" Note="60" Velocity="0"/>
  </Event>
  <Event>
    <Absolute>8204</Absolute>
    <NoteOn Channel="11" Note="70" Velocity="91"/>
  </Event>
  <Event>
    <Absolute>8207</Absolute>
    <NoteOn Channel="11" Note="72" Velocity="0"/>
  </Event>
  <Event>
    <Absolute>8207</Absolute>
    <NoteOn Channel="11" Note="62" Velocity="114"/>
  </Event>
  <Event>
    <Absolute>8264</Absolute>
    <NoteOn Channel="11" Note="70" Velocity="0"/>
  </Event>
  <Event>
    <Absolute>8266</Absolute>
    <NoteOn Channel="11" Note="48" Velocity="114"/>
  </Event>
  <Event>
    <Absolute>8267</Absolute>
    <NoteOn Channel="11" Note="36" Velocity="0"/>
  </Event>
  <Event>
    <Absolute>8270</Absolute>
    <NoteOn Channel="11" Note="70" Velocity="89"/>
  </Event>
  <Event>
    <Absolute>8271</Absolute>
    <NoteOn Channel="11" Note="63" Velocity="114"/>
  </Event>
  <Event>
    <Absolute>8275</Absolute>
    <NoteOn Channel="11" Note="62" Velocity="0"/>
  </Event>
  <Event>
    <Absolute>8307</Absolute>
    <NoteOn Channel="11" Note="72" Velocity="89"/>
  </Event>
  <Event>
    <Absolute>8318</Absolute>
    <NoteOn Channel="11" Note="70" Velocity="0"/>
  </Event>
  <Event>
    <Absolute>8342</Absolute>
    <NoteOn Channel="11" Note="72" Velocity="0"/>
  </Event>
  <Event>
    <Absolute>8343</Absolute>
    <NoteOn Channel="11" Note="74" Velocity="89"/>
  </Event>
  <Event>
    <Absolute>8389</Absolute>
    <NoteOn Channel="11" Note="74" Velocity="0"/>
  </Event>
  <Event>
    <Absolute>8391</Absolute>
    <NoteOn Channel="11" Note="72" Velocity="91"/>
  </Event>
  <Event>
    <Absolute>8391</Absolute>
    <NoteOn Channel="11" Note="53" Velocity="114"/>
  </Event>
  <Event>
    <Absolute>8392</Absolute>
    <NoteOn Channel="11" Note="48" Velocity="0"/>
  </Event>
  <Event>
    <Absolute>8476</Absolute>
    <NoteOn Channel="11" Note="72" Velocity="0"/>
  </Event>
  <Event>
    <Absolute>8480</Absolute>
    <NoteOn Channel="11" Note="67" Velocity="92"/>
  </Event>
  <Event>
    <Absolute>8508</Absolute>
    <NoteOn Channel="11" Note="67" Velocity="0"/>
  </Event>
  <Event>
    <Absolute>8516</Absolute>
    <NoteOn Channel="11" Note="69" Velocity="92"/>
  </Event>
  <Event>
    <Absolute>8607</Absolute>
    <NoteOn Channel="11" Note="63" Velocity="0"/>
  </Event>
  <Event>
    <Absolute>8618</Absolute>
    <NoteOn Channel="11" Note="53" Velocity="0"/>
  </Event>
  <Event>
    <Absolute>8628</Absolute>
    <NoteOn Channel="11" Note="69" Velocity="0"/>
  </Event>
  <Event>
    <Absolute>8638</Absolute>
    <NoteOn Channel="11" Note="41" Velocity="114"/>
  </Event>
  <Event>
    <Absolute>8642</Absolute>
    <NoteOn Channel="11" Note="53" Velocity="114"/>
  </Event>
  <Event>
    <Absolute>8702</Absolute>
    <NoteOn Channel="11" Note="41" Velocity="0"/>
  </Event>
  <Event>
    <Absolute>8703</Absolute>
    <NoteOn Channel="11" Note="53" Velocity="0"/>
  </Event>
  <Event>
    <Absolute>8730</Absolute>
    <NoteOn Channel="11" Note="41" Velocity="114"/>
  </Event>
  <Event>
    <Absolute>8730</Absolute>
    <NoteOn Channel="11" Note="53" Velocity="114"/>
  </Event>
  <Event>
    <Absolute>8756</Absolute>
    <NoteOn Channel="11" Note="53" Velocity="0"/>
  </Event>
  <Event>
    <Absolute>8756</Absolute>
    <NoteOn Channel="11" Note="41" Velocity="0"/>
  </Event>
  <Event>
    <Absolute>8758</Absolute>
    <NoteOn Channel="11" Note="36" Velocity="114"/>
  </Event>
  <Event>
    <Absolute>8763</Absolute>
    <NoteOn Channel="11" Note="48" Velocity="114"/>
  </Event>
  <Event>
    <Absolute>8834</Absolute>
    <NoteOn Channel="11" Note="36" Velocity="0"/>
  </Event>
  <Event>
    <Absolute>8836</Absolute>
    <NoteOn Channel="11" Note="48" Velocity="0"/>
  </Event>
  <Event>
    <Absolute>8850</Absolute>
    <NoteOn Channel="11" Note="38" Velocity="114"/>
  </Event>
  <Event>
    <Absolute>8851</Absolute>
    <NoteOn Channel="11" Note="50" Velocity="114"/>
  </Event>
  <Event>
    <Absolute>8869</Absolute>
    <NoteOn Channel="11" Note="38" Velocity="0"/>
  </Event>
  <Event>
    <Absolute>8876</Absolute>
    <NoteOn Channel="11" Note="50" Velocity="0"/>
  </Event>
  <Event>
    <Absolute>8880</Absolute>
    <NoteOn Channel="11" Note="39" Velocity="114"/>
  </Event>
  <Event>
    <Absolute>8881</Absolute>
    <NoteOn Channel="11" Note="51" Velocity="114"/>
  </Event>
  <Event>
    <Absolute>8947</Absolute>
    <NoteOn Channel="11" Note="51" Velocity="0"/>
  </Event>
  <Event>
    <Absolute>8949</Absolute>
    <NoteOn Channel="11" Note="39" Velocity="0"/>
  </Event>
  <Event>
    <Absolute>8972</Absolute>
    <NoteOn Channel="11" Note="53" Velocity="114"/>
  </Event>
  <Event>
    <Absolute>8975</Absolute>
    <NoteOn Channel="11" Note="41" Velocity="114"/>
  </Event>
  <Event>
    <Absolute>8991</Absolute>
    <NoteOn Channel="11" Note="41" Velocity="0"/>
  </Event>
  <Event>
    <Absolute>8995</Absolute>
    <NoteOn Channel="11" Note="53" Velocity="0"/>
  </Event>
  <Event>
    <Absolute>9001</Absolute>
    <NoteOn Channel="11" Note="54" Velocity="114"/>
  </Event>
  <Event>
    <Absolute>9003</Absolute>
    <NoteOn Channel="11" Note="42" Velocity="114"/>
  </Event>
  <Event>
    <Absolute>9072</Absolute>
    <NoteOn Channel="11" Note="54" Velocity="0"/>
  </Event>
  <Event>
    <Absolute>9078</Absolute>
    <NoteOn Channel="11" Note="42" Velocity="0"/>
  </Event>
  <Event>
    <Absolute>9100</Absolute>
    <NoteOn Channel="11" Note="44" Velocity="114"/>
  </Event>
  <Event>
    <Absolute>9100</Absolute>
    <NoteOn Channel="11" Note="56" Velocity="114"/>
  </Event>
  <Event>
    <Absolute>9113</Absolute>
    <NoteOn Channel="11" Note="44" Velocity="0"/>
  </Event>
  <Event>
    <Absolute>9116</Absolute>
    <NoteOn Channel="11" Note="56" Velocity="0"/>
  </Event>
  <Event>
    <Absolute>9127</Absolute>
    <NoteOn Channel="11" Note="46" Velocity="114"/>
  </Event>
  <Event>
    <Absolute>9128</Absolute>
    <NoteOn Channel="11" Note="58" Velocity="114"/>
  </Event>
  <Event>
    <Absolute>9195</Absolute>
    <NoteOn Channel="11" Note="46" Velocity="0"/>
  </Event>
  <Event>
    <Absolute>9199</Absolute>
    <NoteOn Channel="11" Note="58" Velocity="0"/>
  </Event>
  <Event>
    <Absolute>9240</Absolute>
    <NoteOn Channel="11" Note="53" Velocity="127"/>
  </Event>
  <Event>
    <Absolute>9432</Absolute>
    <NoteOn Channel="11" Note="53" Velocity="0"/>
  </Event>
  <Event>
    <Absolute>9450</Absolute>
    <NoteOn Channel="11" Note="53" Velocity="98"/>
  </Event>
  <Event>
    <Absolute>9460</Absolute>
    <ControlChange Channel="11" Control="7" Value="76"/>
  </Event>
  <Event>
    <Absolute>9460</Absolute>
    <ControlChange Channel="11" Control="18" Value="65"/>
  </Event>
  <Event>
    <Absolute>9477</Absolute>
    <NoteOn Channel="11" Note="53" Velocity="0"/>
  </Event>
  <Event>
    <Absolute>9480</Absolute>
    <NoteOn Channel="11" Note="53" Velocity="124"/>
  </Event>
  <Event>
    <Absolute>9507</Absolute>
    <NoteOn Channel="11" Note="53" Velocity="0"/>
  </Event>
  <Event>
    <Absolute>9510</Absolute>
    <NoteOn Channel="11" Note="53" Velocity="98"/>
  </Event>
  <Event>
    <Absolute>9537</Absolute>
    <NoteOn Channel="11" Note="53" Velocity="0"/>
  </Event>
  <Event>
    <Absolute>9540</Absolute>
    <NoteOn Channel="11" Note="53" Velocity="98"/>
  </Event>
  <Event>
    <Absolute>9567</Absolute>
    <NoteOn Channel="11" Note="53" Velocity="0"/>
  </Event>
  <Event>
    <Absolute>9570</Absolute>
    <NoteOn Channel="11" Note="53" Velocity="98"/>
  </Event>
  <Event>
    <Absolute>9597</Absolute>
    <NoteOn Channel="11" Note="53" Velocity="0"/>
  </Event>
  <Event>
    <Absolute>9600</Absolute>
    <NoteOn Channel="11" Note="53" Velocity="124"/>
  </Event>
  <Event>
    <Absolute>9627</Absolute>
    <NoteOn Channel="11" Note="53" Velocity="0"/>
  </Event>
  <Event>
    <Absolute>9690</Absolute>
    <NoteOn Channel="11" Note="53" Velocity="98"/>
  </Event>
  <Event>
    <Absolute>9717</Absolute>
    <NoteOn Channel="11" Note="53" Velocity="0"/>
  </Event>
  <Event>
    <Absolute>9720</Absolute>
    <NoteOn Channel="11" Note="53" Velocity="124"/>
  </Event>
  <Event>
    <Absolute>9747</Absolute>
    <NoteOn Channel="11" Note="53" Velocity="0"/>
  </Event>
  <Event>
    <Absolute>9810</Absolute>
    <NoteOn Channel="11" Note="53" Velocity="98"/>
  </Event>
  <Event>
    <Absolute>9837</Absolute>
    <NoteOn Channel="11" Note="53" Velocity="0"/>
  </Event>
  <Event>
    <Absolute>9840</Absolute>
    <NoteOn Channel="11" Note="53" Velocity="124"/>
  </Event>
  <Event>
    <Absolute>9867</Absolute>
    <NoteOn Channel="11" Note="53" Velocity="0"/>
  </Event>
  <Event>
    <Absolute>9870</Absolute>
    <NoteOn Channel="11" Note="53" Velocity="98"/>
  </Event>
  <Event>
    <Absolute>9897</Absolute>
    <NoteOn Channel="11" Note="53" Velocity="0"/>
  </Event>
  <Event>
    <Absolute>9900</Absolute>
    <NoteOn Channel="11" Note="53" Velocity="98"/>
  </Event>
  <Event>
    <Absolute>9927</Absolute>
    <NoteOn Channel="11" Note="53" Velocity="0"/>
  </Event>
  <Event>
    <Absolute>9930</Absolute>
    <NoteOn Channel="11" Note="53" Velocity="98"/>
  </Event>
  <Event>
    <Absolute>9957</Absolute>
    <NoteOn Channel="11" Note="53" Velocity="0"/>
  </Event>
  <Event>
    <Absolute>9960</Absolute>
    <NoteOn Channel="11" Note="53" Velocity="124"/>
  </Event>
  <Event>
    <Absolute>9987</Absolute>
    <NoteOn Channel="11" Note="53" Velocity="0"/>
  </Event>
  <Event>
    <Absolute>10050</Absolute>
    <NoteOn Channel="11" Note="53" Velocity="98"/>
  </Event>
  <Event>
    <Absolute>10077</Absolute>
    <NoteOn Channel="11" Note="53" Velocity="0"/>
  </Event>
  <Event>
    <Absolute>10080</Absolute>
    <NoteOn Channel="11" Note="53" Velocity="127"/>
  </Event>
  <Event>
    <Absolute>10107</Absolute>
    <NoteOn Channel="11" Note="53" Velocity="0"/>
  </Event>
  <Event>
    <Absolute>10170</Absolute>
    <NoteOn Channel="11" Note="53" Velocity="110"/>
  </Event>
  <Event>
    <Absolute>10197</Absolute>
    <NoteOn Channel="11" Note="53" Velocity="0"/>
  </Event>
  <Event>
    <Absolute>10200</Absolute>
    <NoteOn Channel="11" Note="53" Velocity="127"/>
  </Event>
  <Event>
    <Absolute>10227</Absolute>
    <NoteOn Channel="11" Note="53" Velocity="0"/>
  </Event>
  <Event>
    <Absolute>10230</Absolute>
    <NoteOn Channel="11" Note="53" Velocity="110"/>
  </Event>
  <Event>
    <Absolute>10257</Absolute>
    <NoteOn Channel="11" Note="53" Velocity="0"/>
  </Event>
  <Event>
    <Absolute>10260</Absolute>
    <NoteOn Channel="11" Note="53" Velocity="110"/>
  </Event>
  <Event>
    <Absolute>10287</Absolute>
    <NoteOn Channel="11" Note="53" Velocity="0"/>
  </Event>
  <Event>
    <Absolute>10290</Absolute>
    <NoteOn Channel="11" Note="53" Velocity="110"/>
  </Event>
  <Event>
    <Absolute>10317</Absolute>
    <NoteOn Channel="11" Note="53" Velocity="0"/>
  </Event>
  <Event>
    <Absolute>10320</Absolute>
    <NoteOn Channel="11" Note="53" Velocity="127"/>
  </Event>
  <Event>
    <Absolute>10347</Absolute>
    <NoteOn Channel="11" Note="53" Velocity="0"/>
  </Event>
  <Event>
    <Absolute>10410</Absolute>
    <NoteOn Channel="11" Note="53" Velocity="110"/>
  </Event>
  <Event>
    <Absolute>10437</Absolute>
    <NoteOn Channel="11" Note="53" Velocity="0"/>
  </Event>
  <Event>
    <Absolute>10440</Absolute>
    <NoteOn Channel="11" Note="53" Velocity="127"/>
  </Event>
  <Event>
    <Absolute>10467</Absolute>
    <NoteOn Channel="11" Note="53" Velocity="0"/>
  </Event>
  <Event>
    <Absolute>10530</Absolute>
    <NoteOn Channel="11" Note="53" Velocity="110"/>
  </Event>
  <Event>
    <Absolute>10557</Absolute>
    <NoteOn Channel="11" Note="53" Velocity="0"/>
  </Event>
  <Event>
    <Absolute>10560</Absolute>
    <NoteOn Channel="11" Note="53" Velocity="127"/>
  </Event>
  <Event>
    <Absolute>10587</Absolute>
    <NoteOn Channel="11" Note="53" Velocity="0"/>
  </Event>
  <Event>
    <Absolute>10590</Absolute>
    <NoteOn Channel="11" Note="53" Velocity="110"/>
  </Event>
  <Event>
    <Absolute>10617</Absolute>
    <NoteOn Channel="11" Note="53" Velocity="0"/>
  </Event>
  <Event>
    <Absolute>10620</Absolute>
    <NoteOn Channel="11" Note="53" Velocity="110"/>
  </Event>
  <Event>
    <Absolute>10647</Absolute>
    <NoteOn Channel="11" Note="53" Velocity="0"/>
  </Event>
  <Event>
    <Absolute>10650</Absolute>
    <NoteOn Channel="11" Note="53" Velocity="110"/>
  </Event>
  <Event>
    <Absolute>10677</Absolute>
    <NoteOn Channel="11" Note="53" Velocity="0"/>
  </Event>
  <Event>
    <Absolute>10680</Absolute>
    <NoteOn Channel="11" Note="53" Velocity="127"/>
  </Event>
  <Event>
    <Absolute>10707</Absolute>
    <NoteOn Channel="11" Note="53" Velocity="0"/>
  </Event>
  <Event>
    <Absolute>10770</Absolute>
    <NoteOn Channel="11" Note="53" Velocity="110"/>
  </Event>
  <Event>
    <Absolute>10797</Absolute>
    <NoteOn Channel="11" Note="53" Velocity="0"/>
  </Event>
  <Event>
    <Absolute>10800</Absolute>
    <NoteOn Channel="11" Note="53" Velocity="127"/>
  </Event>
  <Event>
    <Absolute>10827</Absolute>
    <NoteOn Channel="11" Note="53" Velocity="0"/>
  </Event>
  <Event>
    <Absolute>10890</Absolute>
    <NoteOn Channel="11" Note="53" Velocity="110"/>
  </Event>
  <Event>
    <Absolute>10917</Absolute>
    <NoteOn Channel="11" Note="53" Velocity="0"/>
  </Event>
  <Event>
    <Absolute>10920</Absolute>
    <NoteOn Channel="11" Note="49" Velocity="127"/>
  </Event>
  <Event>
    <Absolute>10947</Absolute>
    <NoteOn Channel="11" Note="49" Velocity="0"/>
  </Event>
  <Event>
    <Absolute>10950</Absolute>
    <NoteOn Channel="11" Note="49" Velocity="110"/>
  </Event>
  <Event>
    <Absolute>10977</Absolute>
    <NoteOn Channel="11" Note="49" Velocity="0"/>
  </Event>
  <Event>
    <Absolute>10980</Absolute>
    <NoteOn Channel="11" Note="49" Velocity="110"/>
  </Event>
  <Event>
    <Absolute>11007</Absolute>
    <NoteOn Channel="11" Note="49" Velocity="0"/>
  </Event>
  <Event>
    <Absolute>11010</Absolute>
    <NoteOn Channel="11" Note="49" Velocity="110"/>
  </Event>
  <Event>
    <Absolute>11037</Absolute>
    <NoteOn Channel="11" Note="49" Velocity="0"/>
  </Event>
  <Event>
    <Absolute>11040</Absolute>
    <NoteOn Channel="11" Note="53" Velocity="127"/>
  </Event>
  <Event>
    <Absolute>11067</Absolute>
    <NoteOn Channel="11" Note="53" Velocity="0"/>
  </Event>
  <Event>
    <Absolute>11130</Absolute>
    <NoteOn Channel="11" Note="53" Velocity="110"/>
  </Event>
  <Event>
    <Absolute>11157</Absolute>
    <NoteOn Channel="11" Note="53" Velocity="0"/>
  </Event>
  <Event>
    <Absolute>11160</Absolute>
    <NoteOn Channel="11" Note="53" Velocity="127"/>
  </Event>
  <Event>
    <Absolute>11187</Absolute>
    <NoteOn Channel="11" Note="53" Velocity="0"/>
  </Event>
  <Event>
    <Absolute>11250</Absolute>
    <NoteOn Channel="11" Note="53" Velocity="110"/>
  </Event>
  <Event>
    <Absolute>11277</Absolute>
    <NoteOn Channel="11" Note="53" Velocity="0"/>
  </Event>
  <Event>
    <Absolute>11280</Absolute>
    <NoteOn Channel="11" Note="49" Velocity="127"/>
  </Event>
  <Event>
    <Absolute>11307</Absolute>
    <NoteOn Channel="11" Note="49" Velocity="0"/>
  </Event>
  <Event>
    <Absolute>11310</Absolute>
    <NoteOn Channel="11" Note="49" Velocity="110"/>
  </Event>
  <Event>
    <Absolute>11337</Absolute>
    <NoteOn Channel="11" Note="49" Velocity="0"/>
  </Event>
  <Event>
    <Absolute>11340</Absolute>
    <NoteOn Channel="11" Note="49" Velocity="110"/>
  </Event>
  <Event>
    <Absolute>11367</Absolute>
    <NoteOn Channel="11" Note="49" Velocity="0"/>
  </Event>
  <Event>
    <Absolute>11370</Absolute>
    <NoteOn Channel="11" Note="49" Velocity="110"/>
  </Event>
  <Event>
    <Absolute>11397</Absolute>
    <NoteOn Channel="11" Note="49" Velocity="0"/>
  </Event>
  <Event>
    <Absolute>11400</Absolute>
    <NoteOn Channel="11" Note="53" Velocity="127"/>
  </Event>
  <Event>
    <Absolute>11427</Absolute>
    <NoteOn Channel="11" Note="53" Velocity="0"/>
  </Event>
  <Event>
    <Absolute>11490</Absolute>
    <NoteOn Channel="11" Note="53" Velocity="110"/>
  </Event>
  <Event>
    <Absolute>11517</Absolute>
    <NoteOn Channel="11" Note="53" Velocity="0"/>
  </Event>
  <Event>
    <Absolute>11520</Absolute>
    <NoteOn Channel="11" Note="53" Velocity="127"/>
  </Event>
  <Event>
    <Absolute>11547</Absolute>
    <NoteOn Channel="11" Note="53" Velocity="0"/>
  </Event>
  <Event>
    <Absolute>11610</Absolute>
    <NoteOn Channel="11" Note="53" Velocity="110"/>
  </Event>
  <Event>
    <Absolute>11637</Absolute>
    <NoteOn Channel="11" Note="53" Velocity="0"/>
  </Event>
  <Event>
    <Absolute>11640</Absolute>
    <NoteOn Channel="11" Note="49" Velocity="127"/>
  </Event>
  <Event>
    <Absolute>11667</Absolute>
    <NoteOn Channel="11" Note="49" Velocity="0"/>
  </Event>
  <Event>
    <Absolute>11670</Absolute>
    <NoteOn Channel="11" Note="49" Velocity="110"/>
  </Event>
  <Event>
    <Absolute>11697</Absolute>
    <NoteOn Channel="11" Note="49" Velocity="0"/>
  </Event>
  <Event>
    <Absolute>11700</Absolute>
    <NoteOn Channel="11" Note="49" Velocity="110"/>
  </Event>
  <Event>
    <Absolute>11727</Absolute>
    <NoteOn Channel="11" Note="49" Velocity="0"/>
  </Event>
  <Event>
    <Absolute>11730</Absolute>
    <NoteOn Channel="11" Note="49" Velocity="110"/>
  </Event>
  <Event>
    <Absolute>11757</Absolute>
    <NoteOn Channel="11" Note="49" Velocity="0"/>
  </Event>
  <Event>
    <Absolute>11760</Absolute>
    <NoteOn Channel="11" Note="53" Velocity="127"/>
  </Event>
  <Event>
    <Absolute>11787</Absolute>
    <NoteOn Channel="11" Note="53" Velocity="0"/>
  </Event>
  <Event>
    <Absolute>11790</Absolute>
    <NoteOn Channel="11" Note="53" Velocity="110"/>
  </Event>
  <Event>
    <Absolute>11817</Absolute>
    <NoteOn Channel="11" Note="53" Velocity="0"/>
  </Event>
  <Event>
    <Absolute>11820</Absolute>
    <NoteOn Channel="11" Note="53" Velocity="110"/>
  </Event>
  <Event>
    <Absolute>11847</Absolute>
    <NoteOn Channel="11" Note="53" Velocity="0"/>
  </Event>
  <Event>
    <Absolute>11850</Absolute>
    <NoteOn Channel="11" Note="53" Velocity="110"/>
  </Event>
  <Event>
    <Absolute>11877</Absolute>
    <NoteOn Channel="11" Note="53" Velocity="0"/>
  </Event>
  <Event>
    <Absolute>11880</Absolute>
    <NoteOn Channel="11" Note="48" Velocity="127"/>
  </Event>
  <Event>
    <Absolute>11907</Absolute>
    <NoteOn Channel="11" Note="48" Velocity="0"/>
  </Event>
  <Event>
    <Absolute>11910</Absolute>
    <NoteOn Channel="11" Note="48" Velocity="110"/>
  </Event>
  <Event>
    <Absolute>11937</Absolute>
    <NoteOn Channel="11" Note="48" Velocity="0"/>
  </Event>
  <Event>
    <Absolute>11940</Absolute>
    <NoteOn Channel="11" Note="48" Velocity="110"/>
  </Event>
  <Event>
    <Absolute>11967</Absolute>
    <NoteOn Channel="11" Note="48" Velocity="0"/>
  </Event>
  <Event>
    <Absolute>11970</Absolute>
    <NoteOn Channel="11" Note="48" Velocity="110"/>
  </Event>
  <Event>
    <Absolute>11997</Absolute>
    <NoteOn Channel="11" Note="48" Velocity="0"/>
  </Event>
  <Event>
    <Absolute>12090</Absolute>
    <NoteOn Channel="11" Note="55" Velocity="110"/>
  </Event>
  <Event>
    <Absolute>12117</Absolute>
    <NoteOn Channel="11" Note="55" Velocity="0"/>
  </Event>
  <Event>
    <Absolute>12120</Absolute>
    <NoteOn Channel="11" Note="55" Velocity="127"/>
  </Event>
  <Event>
    <Absolute>12147</Absolute>
    <NoteOn Channel="11" Note="55" Velocity="0"/>
  </Event>
  <Event>
    <Absolute>12210</Absolute>
    <NoteOn Channel="11" Note="55" Velocity="110"/>
  </Event>
  <Event>
    <Absolute>12237</Absolute>
    <NoteOn Channel="11" Note="55" Velocity="0"/>
  </Event>
  <Event>
    <Absolute>12240</Absolute>
    <NoteOn Channel="11" Note="55" Velocity="127"/>
  </Event>
  <Event>
    <Absolute>12267</Absolute>
    <NoteOn Channel="11" Note="55" Velocity="0"/>
  </Event>
  <Event>
    <Absolute>12330</Absolute>
    <NoteOn Channel="11" Note="55" Velocity="110"/>
  </Event>
  <Event>
    <Absolute>12340</Absolute>
    <ControlChange Channel="11" Control="18" Value="65"/>
  </Event>
  <Event>
    <Absolute>12357</Absolute>
    <NoteOn Channel="11" Note="55" Velocity="0"/>
  </Event>
  <Event>
    <Absolute>12360</Absolute>
    <NoteOn Channel="11" Note="55" Velocity="127"/>
  </Event>
  <Event>
    <Absolute>12387</Absolute>
    <NoteOn Channel="11" Note="55" Velocity="0"/>
  </Event>
  <Event>
    <Absolute>12390</Absolute>
    <NoteOn Channel="11" Note="55" Velocity="110"/>
  </Event>
  <Event>
    <Absolute>12417</Absolute>
    <NoteOn Channel="11" Note="55" Velocity="0"/>
  </Event>
  <Event>
    <Absolute>12420</Absolute>
    <NoteOn Channel="11" Note="55" Velocity="110"/>
  </Event>
  <Event>
    <Absolute>12447</Absolute>
    <NoteOn Channel="11" Note="55" Velocity="0"/>
  </Event>
  <Event>
    <Absolute>12450</Absolute>
    <NoteOn Channel="11" Note="55" Velocity="110"/>
  </Event>
  <Event>
    <Absolute>12477</Absolute>
    <NoteOn Channel="11" Note="55" Velocity="0"/>
  </Event>
  <Event>
    <Absolute>12480</Absolute>
    <NoteOn Channel="11" Note="55" Velocity="127"/>
  </Event>
  <Event>
    <Absolute>12507</Absolute>
    <NoteOn Channel="11" Note="55" Velocity="0"/>
  </Event>
  <Event>
    <Absolute>12570</Absolute>
    <NoteOn Channel="11" Note="55" Velocity="110"/>
  </Event>
  <Event>
    <Absolute>12597</Absolute>
    <NoteOn Channel="11" Note="55" Velocity="0"/>
  </Event>
  <Event>
    <Absolute>12600</Absolute>
    <NoteOn Channel="11" Note="55" Velocity="127"/>
  </Event>
  <Event>
    <Absolute>12627</Absolute>
    <NoteOn Channel="11" Note="55" Velocity="0"/>
  </Event>
  <Event>
    <Absolute>12690</Absolute>
    <NoteOn Channel="11" Note="55" Velocity="110"/>
  </Event>
  <Event>
    <Absolute>12717</Absolute>
    <NoteOn Channel="11" Note="55" Velocity="0"/>
  </Event>
  <Event>
    <Absolute>12720</Absolute>
    <NoteOn Channel="11" Note="55" Velocity="127"/>
  </Event>
  <Event>
    <Absolute>12747</Absolute>
    <NoteOn Channel="11" Note="55" Velocity="0"/>
  </Event>
  <Event>
    <Absolute>12750</Absolute>
    <NoteOn Channel="11" Note="55" Velocity="110"/>
  </Event>
  <Event>
    <Absolute>12777</Absolute>
    <NoteOn Channel="11" Note="55" Velocity="0"/>
  </Event>
  <Event>
    <Absolute>12780</Absolute>
    <NoteOn Channel="11" Note="55" Velocity="110"/>
  </Event>
  <Event>
    <Absolute>12807</Absolute>
    <NoteOn Channel="11" Note="55" Velocity="0"/>
  </Event>
  <Event>
    <Absolute>12810</Absolute>
    <NoteOn Channel="11" Note="55" Velocity="110"/>
  </Event>
  <Event>
    <Absolute>12837</Absolute>
    <NoteOn Channel="11" Note="55" Velocity="0"/>
  </Event>
  <Event>
    <Absolute>12840</Absolute>
    <NoteOn Channel="11" Note="55" Velocity="127"/>
  </Event>
  <Event>
    <Absolute>12867</Absolute>
    <NoteOn Channel="11" Note="55" Velocity="0"/>
  </Event>
  <Event>
    <Absolute>12930</Absolute>
    <NoteOn Channel="11" Note="55" Velocity="110"/>
  </Event>
  <Event>
    <Absolute>12957</Absolute>
    <NoteOn Channel="11" Note="55" Velocity="0"/>
  </Event>
  <Event>
    <Absolute>12960</Absolute>
    <NoteOn Channel="11" Note="55" Velocity="127"/>
  </Event>
  <Event>
    <Absolute>12987</Absolute>
    <NoteOn Channel="11" Note="55" Velocity="0"/>
  </Event>
  <Event>
    <Absolute>13050</Absolute>
    <NoteOn Channel="11" Note="55" Velocity="110"/>
  </Event>
  <Event>
    <Absolute>13077</Absolute>
    <NoteOn Channel="11" Note="55" Velocity="0"/>
  </Event>
  <Event>
    <Absolute>13080</Absolute>
    <NoteOn Channel="11" Note="55" Velocity="127"/>
  </Event>
  <Event>
    <Absolute>13107</Absolute>
    <NoteOn Channel="11" Note="55" Velocity="0"/>
  </Event>
  <Event>
    <Absolute>13110</Absolute>
    <NoteOn Channel="11" Note="55" Velocity="110"/>
  </Event>
  <Event>
    <Absolute>13137</Absolute>
    <NoteOn Channel="11" Note="55" Velocity="0"/>
  </Event>
  <Event>
    <Absolute>13140</Absolute>
    <NoteOn Channel="11" Note="55" Velocity="110"/>
  </Event>
  <Event>
    <Absolute>13167</Absolute>
    <NoteOn Channel="11" Note="55" Velocity="0"/>
  </Event>
  <Event>
    <Absolute>13170</Absolute>
    <NoteOn Channel="11" Note="55" Velocity="110"/>
  </Event>
  <Event>
    <Absolute>13197</Absolute>
    <NoteOn Channel="11" Note="55" Velocity="0"/>
  </Event>
  <Event>
    <Absolute>13200</Absolute>
    <NoteOn Channel="11" Note="55" Velocity="127"/>
  </Event>
  <Event>
    <Absolute>13227</Absolute>
    <NoteOn Channel="11" Note="55" Velocity="0"/>
  </Event>
  <Event>
    <Absolute>13290</Absolute>
    <NoteOn Channel="11" Note="55" Velocity="110"/>
  </Event>
  <Event>
    <Absolute>13317</Absolute>
    <NoteOn Channel="11" Note="55" Velocity="0"/>
  </Event>
  <Event>
    <Absolute>13320</Absolute>
    <NoteOn Channel="11" Note="55" Velocity="127"/>
  </Event>
  <Event>
    <Absolute>13347</Absolute>
    <NoteOn Channel="11" Note="55" Velocity="0"/>
  </Event>
  <Event>
    <Absolute>13410</Absolute>
    <NoteOn Channel="11" Note="55" Velocity="110"/>
  </Event>
  <Event>
    <Absolute>13437</Absolute>
    <NoteOn Channel="11" Note="55" Velocity="0"/>
  </Event>
  <Event>
    <Absolute>13440</Absolute>
    <NoteOn Channel="11" Note="51" Velocity="127"/>
  </Event>
  <Event>
    <Absolute>13467</Absolute>
    <NoteOn Channel="11" Note="51" Velocity="0"/>
  </Event>
  <Event>
    <Absolute>13470</Absolute>
    <NoteOn Channel="11" Note="51" Velocity="110"/>
  </Event>
  <Event>
    <Absolute>13497</Absolute>
    <NoteOn Channel="11" Note="51" Velocity="0"/>
  </Event>
  <Event>
    <Absolute>13500</Absolute>
    <NoteOn Channel="11" Note="51" Velocity="110"/>
  </Event>
  <Event>
    <Absolute>13527</Absolute>
    <NoteOn Channel="11" Note="51" Velocity="0"/>
  </Event>
  <Event>
    <Absolute>13530</Absolute>
    <NoteOn Channel="11" Note="51" Velocity="110"/>
  </Event>
  <Event>
    <Absolute>13557</Absolute>
    <NoteOn Channel="11" Note="51" Velocity="0"/>
  </Event>
  <Event>
    <Absolute>13560</Absolute>
    <NoteOn Channel="11" Note="55" Velocity="127"/>
  </Event>
  <Event>
    <Absolute>13587</Absolute>
    <NoteOn Channel="11" Note="55" Velocity="0"/>
  </Event>
  <Event>
    <Absolute>13650</Absolute>
    <NoteOn Channel="11" Note="55" Velocity="110"/>
  </Event>
  <Event>
    <Absolute>13677</Absolute>
    <NoteOn Channel="11" Note="55" Velocity="0"/>
  </Event>
  <Event>
    <Absolute>13680</Absolute>
    <NoteOn Channel="11" Note="55" Velocity="127"/>
  </Event>
  <Event>
    <Absolute>13707</Absolute>
    <NoteOn Channel="11" Note="55" Velocity="0"/>
  </Event>
  <Event>
    <Absolute>13800</Absolute>
    <NoteOn Channel="11" Note="51" Velocity="127"/>
  </Event>
  <Event>
    <Absolute>13827</Absolute>
    <NoteOn Channel="11" Note="51" Velocity="0"/>
  </Event>
  <Event>
    <Absolute>13830</Absolute>
    <NoteOn Channel="11" Note="51" Velocity="110"/>
  </Event>
  <Event>
    <Absolute>13857</Absolute>
    <NoteOn Channel="11" Note="51" Velocity="0"/>
  </Event>
  <Event>
    <Absolute>13860</Absolute>
    <NoteOn Channel="11" Note="51" Velocity="110"/>
  </Event>
  <Event>
    <Absolute>13887</Absolute>
    <NoteOn Channel="11" Note="51" Velocity="0"/>
  </Event>
  <Event>
    <Absolute>13890</Absolute>
    <NoteOn Channel="11" Note="51" Velocity="110"/>
  </Event>
  <Event>
    <Absolute>13917</Absolute>
    <NoteOn Channel="11" Note="51" Velocity="0"/>
  </Event>
  <Event>
    <Absolute>13931</Absolute>
    <NoteOn Channel="11" Note="43" Velocity="127"/>
  </Event>
  <Event>
    <Absolute>13990</Absolute>
    <NoteOn Channel="11" Note="43" Velocity="0"/>
  </Event>
  <Event>
    <Absolute>14050</Absolute>
    <NoteOn Channel="11" Note="43" Velocity="127"/>
  </Event>
  <Event>
    <Absolute>14050</Absolute>
    <NoteOn Channel="11" Note="31" Velocity="127"/>
  </Event>
  <Event>
    <Absolute>14060</Absolute>
    <NoteOn Channel="11" Note="31" Velocity="0"/>
  </Event>
  <Event>
    <Absolute>14060</Absolute>
    <NoteOn Channel="11" Note="43" Velocity="0"/>
  </Event>
  <Event>
    <Absolute>14108</Absolute>
    <NoteOn Channel="11" Note="31" Velocity="127"/>
  </Event>
  <Event>
    <Absolute>14108</Absolute>
    <NoteOn Channel="11" Note="43" Velocity="127"/>
  </Event>
  <Event>
    <Absolute>14118</Absolute>
    <NoteOn Channel="11" Note="43" Velocity="0"/>
  </Event>
  <Event>
    <Absolute>14118</Absolute>
    <NoteOn Channel="11" Note="31" Velocity="0"/>
  </Event>
  <Event>
    <Absolute>14128</Absolute>
    <NoteOn Channel="11" Note="43" Velocity="127"/>
  </Event>
  <Event>
    <Absolute>14128</Absolute>
    <NoteOn Channel="11" Note="31" Velocity="127"/>
  </Event>
  <Event>
    <Absolute>14138</Absolute>
    <NoteOn Channel="11" Note="31" Velocity="0"/>
  </Event>
  <Event>
    <Absolute>14138</Absolute>
    <NoteOn Channel="11" Note="43" Velocity="0"/>
  </Event>
  <Event>
    <Absolute>14147</Absolute>
    <NoteOn Channel="11" Note="31" Velocity="127"/>
  </Event>
  <Event>
    <Absolute>14147</Absolute>
    <NoteOn Channel="11" Note="43" Velocity="127"/>
  </Event>
  <Event>
    <Absolute>14155</Absolute>
    <NoteOn Channel="11" Note="43" Velocity="0"/>
  </Event>
  <Event>
    <Absolute>14155</Absolute>
    <NoteOn Channel="11" Note="31" Velocity="0"/>
  </Event>
  <Event>
    <Absolute>14170</Absolute>
    <NoteOn Channel="11" Note="43" Velocity="127"/>
  </Event>
  <Event>
    <Absolute>14170</Absolute>
    <NoteOn Channel="11" Note="31" Velocity="127"/>
  </Event>
  <Event>
    <Absolute>14188</Absolute>
    <NoteOn Channel="11" Note="31" Velocity="0"/>
  </Event>
  <Event>
    <Absolute>14188</Absolute>
    <NoteOn Channel="11" Note="43" Velocity="0"/>
  </Event>
  <Event>
    <Absolute>14230</Absolute>
    <NoteOn Channel="11" Note="31" Velocity="127"/>
  </Event>
  <Event>
    <Absolute>14230</Absolute>
    <NoteOn Channel="11" Note="43" Velocity="127"/>
  </Event>
  <Event>
    <Absolute>14241</Absolute>
    <NoteOn Channel="11" Note="43" Velocity="0"/>
  </Event>
  <Event>
    <Absolute>14241</Absolute>
    <NoteOn Channel="11" Note="31" Velocity="0"/>
  </Event>
  <Event>
    <Absolute>14250</Absolute>
    <NoteOn Channel="11" Note="43" Velocity="127"/>
  </Event>
  <Event>
    <Absolute>14250</Absolute>
    <NoteOn Channel="11" Note="31" Velocity="127"/>
  </Event>
  <Event>
    <Absolute>14260</Absolute>
    <NoteOn Channel="11" Note="31" Velocity="0"/>
  </Event>
  <Event>
    <Absolute>14260</Absolute>
    <NoteOn Channel="11" Note="43" Velocity="0"/>
  </Event>
  <Event>
    <Absolute>14270</Absolute>
    <NoteOn Channel="11" Note="31" Velocity="127"/>
  </Event>
  <Event>
    <Absolute>14270</Absolute>
    <NoteOn Channel="11" Note="43" Velocity="127"/>
  </Event>
  <Event>
    <Absolute>14280</Absolute>
    <NoteOn Channel="11" Note="43" Velocity="0"/>
  </Event>
  <Event>
    <Absolute>14280</Absolute>
    <NoteOn Channel="11" Note="31" Velocity="0"/>
  </Event>
  <Event>
    <Absolute>14289</Absolute>
    <NoteOn Channel="11" Note="39" Velocity="127"/>
  </Event>
  <Event>
    <Absolute>14289</Absolute>
    <NoteOn Channel="11" Note="27" Velocity="127"/>
  </Event>
  <Event>
    <Absolute>14291</Absolute>
    <NoteOn Channel="11" Note="58" Velocity="127"/>
  </Event>
  <Event>
    <Absolute>14299</Absolute>
    <NoteOn Channel="11" Note="27" Velocity="0"/>
  </Event>
  <Event>
    <Absolute>14299</Absolute>
    <NoteOn Channel="11" Note="39" Velocity="0"/>
  </Event>
  <Event>
    <Absolute>14304</Absolute>
    <NoteOn Channel="11" Note="58" Velocity="0"/>
  </Event>
  <Event>
    <Absolute>14308</Absolute>
    <NoteOn Channel="11" Note="39" Velocity="127"/>
  </Event>
  <Event>
    <Absolute>14308</Absolute>
    <NoteOn Channel="11" Note="27" Velocity="127"/>
  </Event>
  <Event>
    <Absolute>14311</Absolute>
    <NoteOn Channel="11" Note="58" Velocity="127"/>
  </Event>
  <Event>
    <Absolute>14319</Absolute>
    <NoteOn Channel="11" Note="27" Velocity="0"/>
  </Event>
  <Event>
    <Absolute>14319</Absolute>
    <NoteOn Channel="11" Note="39" Velocity="0"/>
  </Event>
  <Event>
    <Absolute>14321</Absolute>
    <NoteOn Channel="11" Note="58" Velocity="0"/>
  </Event>
  <Event>
    <Absolute>14327</Absolute>
    <NoteOn Channel="11" Note="39" Velocity="127"/>
  </Event>
  <Event>
    <Absolute>14327</Absolute>
    <NoteOn Channel="11" Note="27" Velocity="127"/>
  </Event>
  <Event>
    <Absolute>14332</Absolute>
    <NoteOn Channel="11" Note="58" Velocity="127"/>
  </Event>
  <Event>
    <Absolute>14337</Absolute>
    <NoteOn Channel="11" Note="27" Velocity="0"/>
  </Event>
  <Event>
    <Absolute>14337</Absolute>
    <NoteOn Channel="11" Note="39" Velocity="0"/>
  </Event>
  <Event>
    <Absolute>14342</Absolute>
    <NoteOn Channel="11" Note="58" Velocity="0"/>
  </Event>
  <Event>
    <Absolute>14348</Absolute>
    <NoteOn Channel="11" Note="39" Velocity="127"/>
  </Event>
  <Event>
    <Absolute>14348</Absolute>
    <NoteOn Channel="11" Note="27" Velocity="127"/>
  </Event>
  <Event>
    <Absolute>14351</Absolute>
    <NoteOn Channel="11" Note="58" Velocity="127"/>
  </Event>
  <Event>
    <Absolute>14362</Absolute>
    <NoteOn Channel="11" Note="58" Velocity="0"/>
  </Event>
  <Event>
    <Absolute>14362</Absolute>
    <NoteOn Channel="11" Note="27" Velocity="0"/>
  </Event>
  <Event>
    <Absolute>14362</Absolute>
    <NoteOn Channel="11" Note="39" Velocity="0"/>
  </Event>
  <Event>
    <Absolute>14411</Absolute>
    <NoteOn Channel="11" Note="43" Velocity="127"/>
  </Event>
  <Event>
    <Absolute>14411</Absolute>
    <NoteOn Channel="11" Note="31" Velocity="127"/>
  </Event>
  <Event>
    <Absolute>14422</Absolute>
    <NoteOn Channel="11" Note="31" Velocity="0"/>
  </Event>
  <Event>
    <Absolute>14422</Absolute>
    <NoteOn Channel="11" Note="43" Velocity="0"/>
  </Event>
  <Event>
    <Absolute>14531</Absolute>
    <NoteOn Channel="11" Note="31" Velocity="127"/>
  </Event>
  <Event>
    <Absolute>14531</Absolute>
    <NoteOn Channel="11" Note="43" Velocity="127"/>
  </Event>
  <Event>
    <Absolute>14539</Absolute>
    <NoteOn Channel="11" Note="43" Velocity="0"/>
  </Event>
  <Event>
    <Absolute>14539</Absolute>
    <NoteOn Channel="11" Note="31" Velocity="0"/>
  </Event>
  <Event>
    <Absolute>14591</Absolute>
    <NoteOn Channel="11" Note="43" Velocity="127"/>
  </Event>
  <Event>
    <Absolute>14591</Absolute>
    <NoteOn Channel="11" Note="31" Velocity="127"/>
  </Event>
  <Event>
    <Absolute>14601</Absolute>
    <NoteOn Channel="11" Note="31" Velocity="0"/>
  </Event>
  <Event>
    <Absolute>14601</Absolute>
    <NoteOn Channel="11" Note="43" Velocity="0"/>
  </Event>
  <Event>
    <Absolute>14611</Absolute>
    <NoteOn Channel="11" Note="31" Velocity="127"/>
  </Event>
  <Event>
    <Absolute>14611</Absolute>
    <NoteOn Channel="11" Note="43" Velocity="127"/>
  </Event>
  <Event>
    <Absolute>14620</Absolute>
    <NoteOn Channel="11" Note="43" Velocity="0"/>
  </Event>
  <Event>
    <Absolute>14620</Absolute>
    <NoteOn Channel="11" Note="31" Velocity="0"/>
  </Event>
  <Event>
    <Absolute>14631</Absolute>
    <NoteOn Channel="11" Note="43" Velocity="127"/>
  </Event>
  <Event>
    <Absolute>14631</Absolute>
    <NoteOn Channel="11" Note="31" Velocity="127"/>
  </Event>
  <Event>
    <Absolute>14642</Absolute>
    <NoteOn Channel="11" Note="31" Velocity="0"/>
  </Event>
  <Event>
    <Absolute>14642</Absolute>
    <NoteOn Channel="11" Note="43" Velocity="0"/>
  </Event>
  <Event>
    <Absolute>14651</Absolute>
    <NoteOn Channel="11" Note="31" Velocity="127"/>
  </Event>
  <Event>
    <Absolute>14651</Absolute>
    <NoteOn Channel="11" Note="43" Velocity="127"/>
  </Event>
  <Event>
    <Absolute>14661</Absolute>
    <NoteOn Channel="11" Note="43" Velocity="0"/>
  </Event>
  <Event>
    <Absolute>14661</Absolute>
    <NoteOn Channel="11" Note="31" Velocity="0"/>
  </Event>
  <Event>
    <Absolute>14715</Absolute>
    <NoteOn Channel="11" Note="43" Velocity="127"/>
  </Event>
  <Event>
    <Absolute>14715</Absolute>
    <NoteOn Channel="11" Note="31" Velocity="127"/>
  </Event>
  <Event>
    <Absolute>14726</Absolute>
    <NoteOn Channel="11" Note="31" Velocity="0"/>
  </Event>
  <Event>
    <Absolute>14726</Absolute>
    <NoteOn Channel="11" Note="43" Velocity="0"/>
  </Event>
  <Event>
    <Absolute>14735</Absolute>
    <NoteOn Channel="11" Note="31" Velocity="127"/>
  </Event>
  <Event>
    <Absolute>14735</Absolute>
    <NoteOn Channel="11" Note="43" Velocity="127"/>
  </Event>
  <Event>
    <Absolute>14745</Absolute>
    <NoteOn Channel="11" Note="43" Velocity="0"/>
  </Event>
  <Event>
    <Absolute>14745</Absolute>
    <NoteOn Channel="11" Note="31" Velocity="0"/>
  </Event>
  <Event>
    <Absolute>14753</Absolute>
    <NoteOn Channel="11" Note="43" Velocity="127"/>
  </Event>
  <Event>
    <Absolute>14753</Absolute>
    <NoteOn Channel="11" Note="31" Velocity="127"/>
  </Event>
  <Event>
    <Absolute>14765</Absolute>
    <NoteOn Channel="11" Note="31" Velocity="0"/>
  </Event>
  <Event>
    <Absolute>14765</Absolute>
    <NoteOn Channel="11" Note="43" Velocity="0"/>
  </Event>
  <Event>
    <Absolute>14771</Absolute>
    <NoteOn Channel="11" Note="58" Velocity="127"/>
  </Event>
  <Event>
    <Absolute>14773</Absolute>
    <NoteOn Channel="11" Note="39" Velocity="127"/>
  </Event>
  <Event>
    <Absolute>14773</Absolute>
    <NoteOn Channel="11" Note="27" Velocity="127"/>
  </Event>
  <Event>
    <Absolute>14783</Absolute>
    <NoteOn Channel="11" Note="27" Velocity="0"/>
  </Event>
  <Event>
    <Absolute>14783</Absolute>
    <NoteOn Channel="11" Note="39" Velocity="0"/>
  </Event>
  <Event>
    <Absolute>14783</Absolute>
    <NoteOn Channel="11" Note="58" Velocity="0"/>
  </Event>
  <Event>
    <Absolute>14791</Absolute>
    <NoteOn Channel="11" Note="58" Velocity="127"/>
  </Event>
  <Event>
    <Absolute>14791</Absolute>
    <NoteOn Channel="11" Note="39" Velocity="127"/>
  </Event>
  <Event>
    <Absolute>14791</Absolute>
    <NoteOn Channel="11" Note="27" Velocity="127"/>
  </Event>
  <Event>
    <Absolute>14801</Absolute>
    <NoteOn Channel="11" Note="58" Velocity="0"/>
  </Event>
  <Event>
    <Absolute>14804</Absolute>
    <NoteOn Channel="11" Note="27" Velocity="0"/>
  </Event>
  <Event>
    <Absolute>14804</Absolute>
    <NoteOn Channel="11" Note="39" Velocity="0"/>
  </Event>
  <Event>
    <Absolute>14810</Absolute>
    <NoteOn Channel="11" Note="27" Velocity="127"/>
  </Event>
  <Event>
    <Absolute>14810</Absolute>
    <NoteOn Channel="11" Note="39" Velocity="127"/>
  </Event>
  <Event>
    <Absolute>14811</Absolute>
    <NoteOn Channel="11" Note="58" Velocity="127"/>
  </Event>
  <Event>
    <Absolute>14821</Absolute>
    <NoteOn Channel="11" Note="39" Velocity="0"/>
  </Event>
  <Event>
    <Absolute>14821</Absolute>
    <NoteOn Channel="11" Note="27" Velocity="0"/>
  </Event>
  <Event>
    <Absolute>14822</Absolute>
    <NoteOn Channel="11" Note="58" Velocity="0"/>
  </Event>
  <Event>
    <Absolute>14830</Absolute>
    <NoteOn Channel="11" Note="58" Velocity="127"/>
  </Event>
  <Event>
    <Absolute>14830</Absolute>
    <NoteOn Channel="11" Note="39" Velocity="127"/>
  </Event>
  <Event>
    <Absolute>14830</Absolute>
    <NoteOn Channel="11" Note="27" Velocity="127"/>
  </Event>
  <Event>
    <Absolute>14842</Absolute>
    <NoteOn Channel="11" Note="27" Velocity="0"/>
  </Event>
  <Event>
    <Absolute>14842</Absolute>
    <NoteOn Channel="11" Note="39" Velocity="0"/>
  </Event>
  <Event>
    <Absolute>14844</Absolute>
    <NoteOn Channel="11" Note="58" Velocity="0"/>
  </Event>
  <Event>
    <Absolute>15011</Absolute>
    <NoteOn Channel="11" Note="31" Velocity="127"/>
  </Event>
  <Event>
    <Absolute>15011</Absolute>
    <NoteOn Channel="11" Note="43" Velocity="127"/>
  </Event>
  <Event>
    <Absolute>15022</Absolute>
    <NoteOn Channel="11" Note="43" Velocity="0"/>
  </Event>
  <Event>
    <Absolute>15022</Absolute>
    <NoteOn Channel="11" Note="31" Velocity="0"/>
  </Event>
  <Event>
    <Absolute>15073</Absolute>
    <NoteOn Channel="11" Note="43" Velocity="127"/>
  </Event>
  <Event>
    <Absolute>15073</Absolute>
    <NoteOn Channel="11" Note="31" Velocity="127"/>
  </Event>
  <Event>
    <Absolute>15083</Absolute>
    <NoteOn Channel="11" Note="31" Velocity="0"/>
  </Event>
  <Event>
    <Absolute>15083</Absolute>
    <NoteOn Channel="11" Note="43" Velocity="0"/>
  </Event>
  <Event>
    <Absolute>15093</Absolute>
    <NoteOn Channel="11" Note="31" Velocity="127"/>
  </Event>
  <Event>
    <Absolute>15093</Absolute>
    <NoteOn Channel="11" Note="43" Velocity="127"/>
  </Event>
  <Event>
    <Absolute>15103</Absolute>
    <NoteOn Channel="11" Note="43" Velocity="0"/>
  </Event>
  <Event>
    <Absolute>15103</Absolute>
    <NoteOn Channel="11" Note="31" Velocity="0"/>
  </Event>
  <Event>
    <Absolute>15112</Absolute>
    <NoteOn Channel="11" Note="43" Velocity="127"/>
  </Event>
  <Event>
    <Absolute>15112</Absolute>
    <NoteOn Channel="11" Note="31" Velocity="127"/>
  </Event>
  <Event>
    <Absolute>15123</Absolute>
    <NoteOn Channel="11" Note="31" Velocity="0"/>
  </Event>
  <Event>
    <Absolute>15123</Absolute>
    <NoteOn Channel="11" Note="43" Velocity="0"/>
  </Event>
  <Event>
    <Absolute>15131</Absolute>
    <NoteOn Channel="11" Note="31" Velocity="127"/>
  </Event>
  <Event>
    <Absolute>15131</Absolute>
    <NoteOn Channel="11" Note="43" Velocity="127"/>
  </Event>
  <Event>
    <Absolute>15141</Absolute>
    <NoteOn Channel="11" Note="43" Velocity="0"/>
  </Event>
  <Event>
    <Absolute>15141</Absolute>
    <NoteOn Channel="11" Note="31" Velocity="0"/>
  </Event>
  <Event>
    <Absolute>15191</Absolute>
    <NoteOn Channel="11" Note="43" Velocity="127"/>
  </Event>
  <Event>
    <Absolute>15191</Absolute>
    <NoteOn Channel="11" Note="31" Velocity="127"/>
  </Event>
  <Event>
    <Absolute>15202</Absolute>
    <NoteOn Channel="11" Note="31" Velocity="0"/>
  </Event>
  <Event>
    <Absolute>15202</Absolute>
    <NoteOn Channel="11" Note="43" Velocity="0"/>
  </Event>
  <Event>
    <Absolute>15211</Absolute>
    <NoteOn Channel="11" Note="31" Velocity="127"/>
  </Event>
  <Event>
    <Absolute>15211</Absolute>
    <NoteOn Channel="11" Note="43" Velocity="127"/>
  </Event>
  <Event>
    <Absolute>15222</Absolute>
    <NoteOn Channel="11" Note="43" Velocity="0"/>
  </Event>
  <Event>
    <Absolute>15222</Absolute>
    <NoteOn Channel="11" Note="31" Velocity="0"/>
  </Event>
  <Event>
    <Absolute>15230</Absolute>
    <NoteOn Channel="11" Note="43" Velocity="127"/>
  </Event>
  <Event>
    <Absolute>15230</Absolute>
    <NoteOn Channel="11" Note="31" Velocity="127"/>
  </Event>
  <Event>
    <Absolute>15242</Absolute>
    <NoteOn Channel="11" Note="31" Velocity="0"/>
  </Event>
  <Event>
    <Absolute>15242</Absolute>
    <NoteOn Channel="11" Note="43" Velocity="0"/>
  </Event>
  <Event>
    <Absolute>15251</Absolute>
    <NoteOn Channel="11" Note="39" Velocity="127"/>
  </Event>
  <Event>
    <Absolute>15251</Absolute>
    <NoteOn Channel="11" Note="27" Velocity="127"/>
  </Event>
  <Event>
    <Absolute>15261</Absolute>
    <NoteOn Channel="11" Note="27" Velocity="0"/>
  </Event>
  <Event>
    <Absolute>15261</Absolute>
    <NoteOn Channel="11" Note="39" Velocity="0"/>
  </Event>
  <Event>
    <Absolute>15269</Absolute>
    <NoteOn Channel="11" Note="27" Velocity="127"/>
  </Event>
  <Event>
    <Absolute>15269</Absolute>
    <NoteOn Channel="11" Note="39" Velocity="127"/>
  </Event>
  <Event>
    <Absolute>15283</Absolute>
    <NoteOn Channel="11" Note="39" Velocity="0"/>
  </Event>
  <Event>
    <Absolute>15283</Absolute>
    <NoteOn Channel="11" Note="27" Velocity="0"/>
  </Event>
  <Event>
    <Absolute>15289</Absolute>
    <NoteOn Channel="11" Note="39" Velocity="127"/>
  </Event>
  <Event>
    <Absolute>15289</Absolute>
    <NoteOn Channel="11" Note="27" Velocity="127"/>
  </Event>
  <Event>
    <Absolute>15300</Absolute>
    <NoteOn Channel="11" Note="27" Velocity="0"/>
  </Event>
  <Event>
    <Absolute>15300</Absolute>
    <NoteOn Channel="11" Note="39" Velocity="0"/>
  </Event>
  <Event>
    <Absolute>15310</Absolute>
    <NoteOn Channel="11" Note="39" Velocity="127"/>
  </Event>
  <Event>
    <Absolute>15310</Absolute>
    <NoteOn Channel="11" Note="27" Velocity="127"/>
  </Event>
  <Event>
    <Absolute>15323</Absolute>
    <NoteOn Channel="11" Note="27" Velocity="0"/>
  </Event>
  <Event>
    <Absolute>15323</Absolute>
    <NoteOn Channel="11" Note="39" Velocity="0"/>
  </Event>
  <Event>
    <Absolute>15373</Absolute>
    <NoteOn Channel="11" Note="31" Velocity="127"/>
  </Event>
  <Event>
    <Absolute>15373</Absolute>
    <NoteOn Channel="11" Note="43" Velocity="127"/>
  </Event>
  <Event>
    <Absolute>15385</Absolute>
    <NoteOn Channel="11" Note="43" Velocity="0"/>
  </Event>
  <Event>
    <Absolute>15385</Absolute>
    <NoteOn Channel="11" Note="31" Velocity="0"/>
  </Event>
  <Event>
    <Absolute>15490</Absolute>
    <NoteOn Channel="11" Note="43" Velocity="127"/>
  </Event>
  <Event>
    <Absolute>15490</Absolute>
    <NoteOn Channel="11" Note="31" Velocity="127"/>
  </Event>
  <Event>
    <Absolute>15501</Absolute>
    <NoteOn Channel="11" Note="31" Velocity="0"/>
  </Event>
  <Event>
    <Absolute>15501</Absolute>
    <NoteOn Channel="11" Note="43" Velocity="0"/>
  </Event>
  <Event>
    <Absolute>15550</Absolute>
    <NoteOn Channel="11" Note="31" Velocity="127"/>
  </Event>
  <Event>
    <Absolute>15550</Absolute>
    <NoteOn Channel="11" Note="43" Velocity="127"/>
  </Event>
  <Event>
    <Absolute>15561</Absolute>
    <NoteOn Channel="11" Note="43" Velocity="0"/>
  </Event>
  <Event>
    <Absolute>15561</Absolute>
    <NoteOn Channel="11" Note="31" Velocity="0"/>
  </Event>
  <Event>
    <Absolute>15570</Absolute>
    <NoteOn Channel="11" Note="43" Velocity="127"/>
  </Event>
  <Event>
    <Absolute>15570</Absolute>
    <NoteOn Channel="11" Note="31" Velocity="127"/>
  </Event>
  <Event>
    <Absolute>15581</Absolute>
    <NoteOn Channel="11" Note="31" Velocity="0"/>
  </Event>
  <Event>
    <Absolute>15581</Absolute>
    <NoteOn Channel="11" Note="43" Velocity="0"/>
  </Event>
  <Event>
    <Absolute>15590</Absolute>
    <NoteOn Channel="11" Note="31" Velocity="127"/>
  </Event>
  <Event>
    <Absolute>15590</Absolute>
    <NoteOn Channel="11" Note="43" Velocity="127"/>
  </Event>
  <Event>
    <Absolute>15601</Absolute>
    <NoteOn Channel="11" Note="43" Velocity="0"/>
  </Event>
  <Event>
    <Absolute>15601</Absolute>
    <NoteOn Channel="11" Note="31" Velocity="0"/>
  </Event>
  <Event>
    <Absolute>15610</Absolute>
    <NoteOn Channel="11" Note="43" Velocity="127"/>
  </Event>
  <Event>
    <Absolute>15610</Absolute>
    <NoteOn Channel="11" Note="31" Velocity="127"/>
  </Event>
  <Event>
    <Absolute>15621</Absolute>
    <NoteOn Channel="11" Note="31" Velocity="0"/>
  </Event>
  <Event>
    <Absolute>15621</Absolute>
    <NoteOn Channel="11" Note="43" Velocity="0"/>
  </Event>
  <Event>
    <Absolute>15668</Absolute>
    <NoteOn Channel="11" Note="31" Velocity="127"/>
  </Event>
  <Event>
    <Absolute>15668</Absolute>
    <NoteOn Channel="11" Note="43" Velocity="127"/>
  </Event>
  <Event>
    <Absolute>15679</Absolute>
    <NoteOn Channel="11" Note="43" Velocity="0"/>
  </Event>
  <Event>
    <Absolute>15679</Absolute>
    <NoteOn Channel="11" Note="31" Velocity="0"/>
  </Event>
  <Event>
    <Absolute>15688</Absolute>
    <NoteOn Channel="11" Note="43" Velocity="127"/>
  </Event>
  <Event>
    <Absolute>15688</Absolute>
    <NoteOn Channel="11" Note="31" Velocity="127"/>
  </Event>
  <Event>
    <Absolute>15699</Absolute>
    <NoteOn Channel="11" Note="31" Velocity="0"/>
  </Event>
  <Event>
    <Absolute>15699</Absolute>
    <NoteOn Channel="11" Note="43" Velocity="0"/>
  </Event>
  <Event>
    <Absolute>15710</Absolute>
    <NoteOn Channel="11" Note="31" Velocity="127"/>
  </Event>
  <Event>
    <Absolute>15710</Absolute>
    <NoteOn Channel="11" Note="43" Velocity="127"/>
  </Event>
  <Event>
    <Absolute>15721</Absolute>
    <NoteOn Channel="11" Note="43" Velocity="0"/>
  </Event>
  <Event>
    <Absolute>15721</Absolute>
    <NoteOn Channel="11" Note="31" Velocity="0"/>
  </Event>
  <Event>
    <Absolute>15730</Absolute>
    <NoteOn Channel="11" Note="39" Velocity="127"/>
  </Event>
  <Event>
    <Absolute>15730</Absolute>
    <NoteOn Channel="11" Note="27" Velocity="127"/>
  </Event>
  <Event>
    <Absolute>15741</Absolute>
    <NoteOn Channel="11" Note="27" Velocity="0"/>
  </Event>
  <Event>
    <Absolute>15741</Absolute>
    <NoteOn Channel="11" Note="39" Velocity="0"/>
  </Event>
  <Event>
    <Absolute>15750</Absolute>
    <NoteOn Channel="11" Note="39" Velocity="127"/>
  </Event>
  <Event>
    <Absolute>15750</Absolute>
    <NoteOn Channel="11" Note="27" Velocity="127"/>
  </Event>
  <Event>
    <Absolute>15763</Absolute>
    <NoteOn Channel="11" Note="27" Velocity="0"/>
  </Event>
  <Event>
    <Absolute>15763</Absolute>
    <NoteOn Channel="11" Note="39" Velocity="0"/>
  </Event>
  <Event>
    <Absolute>15768</Absolute>
    <NoteOn Channel="11" Note="39" Velocity="127"/>
  </Event>
  <Event>
    <Absolute>15768</Absolute>
    <NoteOn Channel="11" Note="27" Velocity="127"/>
  </Event>
  <Event>
    <Absolute>15779</Absolute>
    <NoteOn Channel="11" Note="27" Velocity="0"/>
  </Event>
  <Event>
    <Absolute>15779</Absolute>
    <NoteOn Channel="11" Note="39" Velocity="0"/>
  </Event>
  <Event>
    <Absolute>15790</Absolute>
    <NoteOn Channel="11" Note="39" Velocity="127"/>
  </Event>
  <Event>
    <Absolute>15790</Absolute>
    <NoteOn Channel="11" Note="27" Velocity="127"/>
  </Event>
  <Event>
    <Absolute>15801</Absolute>
    <NoteOn Channel="11" Note="27" Velocity="0"/>
  </Event>
  <Event>
    <Absolute>15801</Absolute>
    <NoteOn Channel="11" Note="39" Velocity="0"/>
  </Event>
  <Event>
    <Absolute>15852</Absolute>
    <NoteOn Channel="11" Note="31" Velocity="127"/>
  </Event>
  <Event>
    <Absolute>15852</Absolute>
    <NoteOn Channel="11" Note="43" Velocity="127"/>
  </Event>
  <Event>
    <Absolute>15863</Absolute>
    <NoteOn Channel="11" Note="43" Velocity="0"/>
  </Event>
  <Event>
    <Absolute>15863</Absolute>
    <NoteOn Channel="11" Note="31" Velocity="0"/>
  </Event>
  <Event>
    <Absolute>15973</Absolute>
    <NoteOn Channel="11" Note="43" Velocity="127"/>
  </Event>
  <Event>
    <Absolute>15973</Absolute>
    <NoteOn Channel="11" Note="31" Velocity="127"/>
  </Event>
  <Event>
    <Absolute>15984</Absolute>
    <NoteOn Channel="11" Note="31" Velocity="0"/>
  </Event>
  <Event>
    <Absolute>15984</Absolute>
    <NoteOn Channel="11" Note="43" Velocity="0"/>
  </Event>
  <Event>
    <Absolute>16033</Absolute>
    <NoteOn Channel="11" Note="31" Velocity="127"/>
  </Event>
  <Event>
    <Absolute>16033</Absolute>
    <NoteOn Channel="11" Note="43" Velocity="127"/>
  </Event>
  <Event>
    <Absolute>16043</Absolute>
    <NoteOn Channel="11" Note="43" Velocity="0"/>
  </Event>
  <Event>
    <Absolute>16043</Absolute>
    <NoteOn Channel="11" Note="31" Velocity="0"/>
  </Event>
  <Event>
    <Absolute>16052</Absolute>
    <NoteOn Channel="11" Note="43" Velocity="127"/>
  </Event>
  <Event>
    <Absolute>16052</Absolute>
    <NoteOn Channel="11" Note="31" Velocity="127"/>
  </Event>
  <Event>
    <Absolute>16063</Absolute>
    <NoteOn Channel="11" Note="31" Velocity="0"/>
  </Event>
  <Event>
    <Absolute>16063</Absolute>
    <NoteOn Channel="11" Note="43" Velocity="0"/>
  </Event>
  <Event>
    <Absolute>16072</Absolute>
    <NoteOn Channel="11" Note="31" Velocity="127"/>
  </Event>
  <Event>
    <Absolute>16072</Absolute>
    <NoteOn Channel="11" Note="43" Velocity="127"/>
  </Event>
  <Event>
    <Absolute>16084</Absolute>
    <NoteOn Channel="11" Note="43" Velocity="0"/>
  </Event>
  <Event>
    <Absolute>16084</Absolute>
    <NoteOn Channel="11" Note="31" Velocity="0"/>
  </Event>
  <Event>
    <Absolute>16091</Absolute>
    <NoteOn Channel="11" Note="43" Velocity="127"/>
  </Event>
  <Event>
    <Absolute>16091</Absolute>
    <NoteOn Channel="11" Note="31" Velocity="127"/>
  </Event>
  <Event>
    <Absolute>16102</Absolute>
    <NoteOn Channel="11" Note="31" Velocity="0"/>
  </Event>
  <Event>
    <Absolute>16102</Absolute>
    <NoteOn Channel="11" Note="43" Velocity="0"/>
  </Event>
  <Event>
    <Absolute>16153</Absolute>
    <NoteOn Channel="11" Note="31" Velocity="127"/>
  </Event>
  <Event>
    <Absolute>16153</Absolute>
    <NoteOn Channel="11" Note="43" Velocity="127"/>
  </Event>
  <Event>
    <Absolute>16163</Absolute>
    <NoteOn Channel="11" Note="43" Velocity="0"/>
  </Event>
  <Event>
    <Absolute>16163</Absolute>
    <NoteOn Channel="11" Note="31" Velocity="0"/>
  </Event>
  <Event>
    <Absolute>16172</Absolute>
    <NoteOn Channel="11" Note="43" Velocity="127"/>
  </Event>
  <Event>
    <Absolute>16172</Absolute>
    <NoteOn Channel="11" Note="31" Velocity="127"/>
  </Event>
  <Event>
    <Absolute>16182</Absolute>
    <NoteOn Channel="11" Note="31" Velocity="0"/>
  </Event>
  <Event>
    <Absolute>16182</Absolute>
    <NoteOn Channel="11" Note="43" Velocity="0"/>
  </Event>
  <Event>
    <Absolute>16192</Absolute>
    <NoteOn Channel="11" Note="31" Velocity="127"/>
  </Event>
  <Event>
    <Absolute>16192</Absolute>
    <NoteOn Channel="11" Note="43" Velocity="127"/>
  </Event>
  <Event>
    <Absolute>16204</Absolute>
    <NoteOn Channel="11" Note="43" Velocity="0"/>
  </Event>
  <Event>
    <Absolute>16204</Absolute>
    <NoteOn Channel="11" Note="31" Velocity="0"/>
  </Event>
  <Event>
    <Absolute>16211</Absolute>
    <NoteOn Channel="11" Note="58" Velocity="127"/>
  </Event>
  <Event>
    <Absolute>16211</Absolute>
    <NoteOn Channel="11" Note="39" Velocity="127"/>
  </Event>
  <Event>
    <Absolute>16211</Absolute>
    <NoteOn Channel="11" Note="27" Velocity="127"/>
  </Event>
  <Event>
    <Absolute>16221</Absolute>
    <NoteOn Channel="11" Note="27" Velocity="0"/>
  </Event>
  <Event>
    <Absolute>16221</Absolute>
    <NoteOn Channel="11" Note="39" Velocity="0"/>
  </Event>
  <Event>
    <Absolute>16222</Absolute>
    <NoteOn Channel="11" Note="58" Velocity="0"/>
  </Event>
  <Event>
    <Absolute>16230</Absolute>
    <NoteOn Channel="11" Note="58" Velocity="127"/>
  </Event>
  <Event>
    <Absolute>16231</Absolute>
    <NoteOn Channel="11" Note="39" Velocity="127"/>
  </Event>
  <Event>
    <Absolute>16231</Absolute>
    <NoteOn Channel="11" Note="27" Velocity="127"/>
  </Event>
  <Event>
    <Absolute>16241</Absolute>
    <NoteOn Channel="11" Note="58" Velocity="0"/>
  </Event>
  <Event>
    <Absolute>16242</Absolute>
    <NoteOn Channel="11" Note="27" Velocity="0"/>
  </Event>
  <Event>
    <Absolute>16242</Absolute>
    <NoteOn Channel="11" Note="39" Velocity="0"/>
  </Event>
  <Event>
    <Absolute>16251</Absolute>
    <NoteOn Channel="11" Note="58" Velocity="127"/>
  </Event>
  <Event>
    <Absolute>16251</Absolute>
    <NoteOn Channel="11" Note="39" Velocity="127"/>
  </Event>
  <Event>
    <Absolute>16251</Absolute>
    <NoteOn Channel="11" Note="27" Velocity="127"/>
  </Event>
  <Event>
    <Absolute>16262</Absolute>
    <NoteOn Channel="11" Note="27" Velocity="0"/>
  </Event>
  <Event>
    <Absolute>16262</Absolute>
    <NoteOn Channel="11" Note="39" Velocity="0"/>
  </Event>
  <Event>
    <Absolute>16264</Absolute>
    <NoteOn Channel="11" Note="58" Velocity="0"/>
  </Event>
  <Event>
    <Absolute>16270</Absolute>
    <NoteOn Channel="11" Note="58" Velocity="127"/>
  </Event>
  <Event>
    <Absolute>16272</Absolute>
    <NoteOn Channel="11" Note="39" Velocity="127"/>
  </Event>
  <Event>
    <Absolute>16272</Absolute>
    <NoteOn Channel="11" Note="27" Velocity="127"/>
  </Event>
  <Event>
    <Absolute>16285</Absolute>
    <NoteOn Channel="11" Note="27" Velocity="0"/>
  </Event>
  <Event>
    <Absolute>16285</Absolute>
    <NoteOn Channel="11" Note="39" Velocity="0"/>
  </Event>
  <Event>
    <Absolute>16285</Absolute>
    <NoteOn Channel="11" Note="58" Velocity="0"/>
  </Event>
  <Event>
    <Absolute>16328</Absolute>
    <NoteOn Channel="11" Note="39" Velocity="127"/>
  </Event>
  <Event>
    <Absolute>16328</Absolute>
    <NoteOn Channel="11" Note="51" Velocity="127"/>
  </Event>
  <Event>
    <Absolute>16341</Absolute>
    <NoteOn Channel="11" Note="51" Velocity="0"/>
  </Event>
  <Event>
    <Absolute>16344</Absolute>
    <NoteOn Channel="11" Note="39" Velocity="0"/>
  </Event>
  <Event>
    <Absolute>16450</Absolute>
    <NoteOn Channel="11" Note="48" Velocity="127"/>
  </Event>
  <Event>
    <Absolute>16450</Absolute>
    <NoteOn Channel="11" Note="36" Velocity="127"/>
  </Event>
  <Event>
    <Absolute>16464</Absolute>
    <NoteOn Channel="11" Note="48" Velocity="0"/>
  </Event>
  <Event>
    <Absolute>16466</Absolute>
    <NoteOn Channel="11" Note="36" Velocity="0"/>
  </Event>
  <Event>
    <Absolute>16511</Absolute>
    <NoteOn Channel="11" Note="48" Velocity="127"/>
  </Event>
  <Event>
    <Absolute>16511</Absolute>
    <NoteOn Channel="11" Note="36" Velocity="127"/>
  </Event>
  <Event>
    <Absolute>16525</Absolute>
    <NoteOn Channel="11" Note="48" Velocity="0"/>
  </Event>
  <Event>
    <Absolute>16527</Absolute>
    <NoteOn Channel="11" Note="36" Velocity="0"/>
  </Event>
  <Event>
    <Absolute>16531</Absolute>
    <NoteOn Channel="11" Note="36" Velocity="127"/>
  </Event>
  <Event>
    <Absolute>16531</Absolute>
    <NoteOn Channel="11" Note="48" Velocity="127"/>
  </Event>
  <Event>
    <Absolute>16544</Absolute>
    <NoteOn Channel="11" Note="48" Velocity="0"/>
  </Event>
  <Event>
    <Absolute>16546</Absolute>
    <NoteOn Channel="11" Note="36" Velocity="0"/>
  </Event>
  <Event>
    <Absolute>16551</Absolute>
    <NoteOn Channel="11" Note="48" Velocity="127"/>
  </Event>
  <Event>
    <Absolute>16551</Absolute>
    <NoteOn Channel="11" Note="36" Velocity="127"/>
  </Event>
  <Event>
    <Absolute>16564</Absolute>
    <NoteOn Channel="11" Note="48" Velocity="0"/>
  </Event>
  <Event>
    <Absolute>16566</Absolute>
    <NoteOn Channel="11" Note="36" Velocity="0"/>
  </Event>
  <Event>
    <Absolute>16570</Absolute>
    <NoteOn Channel="11" Note="31" Velocity="127"/>
  </Event>
  <Event>
    <Absolute>16570</Absolute>
    <NoteOn Channel="11" Note="43" Velocity="127"/>
  </Event>
  <Event>
    <Absolute>16580</Absolute>
    <NoteOn Channel="11" Note="43" Velocity="0"/>
  </Event>
  <Event>
    <Absolute>16580</Absolute>
    <NoteOn Channel="11" Note="31" Velocity="0"/>
  </Event>
  <Event>
    <Absolute>16651</Absolute>
    <NoteOn Channel="11" Note="43" Velocity="127"/>
  </Event>
  <Event>
    <Absolute>16651</Absolute>
    <NoteOn Channel="11" Note="31" Velocity="127"/>
  </Event>
  <Event>
    <Absolute>16662</Absolute>
    <NoteOn Channel="11" Note="31" Velocity="0"/>
  </Event>
  <Event>
    <Absolute>16662</Absolute>
    <NoteOn Channel="11" Note="43" Velocity="0"/>
  </Event>
  <Event>
    <Absolute>16670</Absolute>
    <NoteOn Channel="11" Note="43" Velocity="127"/>
  </Event>
  <Event>
    <Absolute>16670</Absolute>
    <NoteOn Channel="11" Note="31" Velocity="127"/>
  </Event>
  <Event>
    <Absolute>16683</Absolute>
    <NoteOn Channel="11" Note="31" Velocity="0"/>
  </Event>
  <Event>
    <Absolute>16683</Absolute>
    <NoteOn Channel="11" Note="43" Velocity="0"/>
  </Event>
  <Event>
    <Absolute>16691</Absolute>
    <NoteOn Channel="11" Note="43" Velocity="127"/>
  </Event>
  <Event>
    <Absolute>16691</Absolute>
    <NoteOn Channel="11" Note="31" Velocity="127"/>
  </Event>
  <Event>
    <Absolute>16693</Absolute>
    <NoteOn Channel="11" Note="50" Velocity="127"/>
  </Event>
  <Event>
    <Absolute>16702</Absolute>
    <NoteOn Channel="11" Note="31" Velocity="0"/>
  </Event>
  <Event>
    <Absolute>16702</Absolute>
    <NoteOn Channel="11" Note="43" Velocity="0"/>
  </Event>
  <Event>
    <Absolute>16703</Absolute>
    <NoteOn Channel="11" Note="50" Velocity="0"/>
  </Event>
  <Event>
    <Absolute>16710</Absolute>
    <NoteOn Channel="11" Note="43" Velocity="127"/>
  </Event>
  <Event>
    <Absolute>16710</Absolute>
    <NoteOn Channel="11" Note="31" Velocity="127"/>
  </Event>
  <Event>
    <Absolute>16713</Absolute>
    <NoteOn Channel="11" Note="50" Velocity="127"/>
  </Event>
  <Event>
    <Absolute>16723</Absolute>
    <NoteOn Channel="11" Note="31" Velocity="0"/>
  </Event>
  <Event>
    <Absolute>16723</Absolute>
    <NoteOn Channel="11" Note="43" Velocity="0"/>
  </Event>
  <Event>
    <Absolute>16726</Absolute>
    <NoteOn Channel="11" Note="50" Velocity="0"/>
  </Event>
  <Event>
    <Absolute>16730</Absolute>
    <NoteOn Channel="11" Note="43" Velocity="127"/>
  </Event>
  <Event>
    <Absolute>16730</Absolute>
    <NoteOn Channel="11" Note="31" Velocity="127"/>
  </Event>
  <Event>
    <Absolute>16733</Absolute>
    <NoteOn Channel="11" Note="50" Velocity="127"/>
  </Event>
  <Event>
    <Absolute>16742</Absolute>
    <NoteOn Channel="11" Note="31" Velocity="0"/>
  </Event>
  <Event>
    <Absolute>16742</Absolute>
    <NoteOn Channel="11" Note="43" Velocity="0"/>
  </Event>
  <Event>
    <Absolute>16744</Absolute>
    <NoteOn Channel="11" Note="50" Velocity="0"/>
  </Event>
  <Event>
    <Absolute>16750</Absolute>
    <NoteOn Channel="11" Note="43" Velocity="127"/>
  </Event>
  <Event>
    <Absolute>16750</Absolute>
    <NoteOn Channel="11" Note="31" Velocity="127"/>
  </Event>
  <Event>
    <Absolute>16752</Absolute>
    <NoteOn Channel="11" Note="50" Velocity="127"/>
  </Event>
  <Event>
    <Absolute>16763</Absolute>
    <NoteOn Channel="11" Note="31" Velocity="0"/>
  </Event>
  <Event>
    <Absolute>16763</Absolute>
    <NoteOn Channel="11" Note="43" Velocity="0"/>
  </Event>
  <Event>
    <Absolute>16765</Absolute>
    <NoteOn Channel="11" Note="50" Velocity="0"/>
  </Event>
  <Event>
    <Absolute>16810</Absolute>
    <NoteOn Channel="11" Note="43" Velocity="127"/>
  </Event>
  <Event>
    <Absolute>16810</Absolute>
    <NoteOn Channel="11" Note="31" Velocity="127"/>
  </Event>
  <Event>
    <Absolute>16821</Absolute>
    <NoteOn Channel="11" Note="31" Velocity="0"/>
  </Event>
  <Event>
    <Absolute>16821</Absolute>
    <NoteOn Channel="11" Note="43" Velocity="0"/>
  </Event>
  <Event>
    <Absolute>16931</Absolute>
    <NoteOn Channel="11" Note="31" Velocity="127"/>
  </Event>
  <Event>
    <Absolute>16931</Absolute>
    <NoteOn Channel="11" Note="43" Velocity="127"/>
  </Event>
  <Event>
    <Absolute>16942</Absolute>
    <NoteOn Channel="11" Note="43" Velocity="0"/>
  </Event>
  <Event>
    <Absolute>16942</Absolute>
    <NoteOn Channel="11" Note="31" Velocity="0"/>
  </Event>
  <Event>
    <Absolute>16993</Absolute>
    <NoteOn Channel="11" Note="43" Velocity="127"/>
  </Event>
  <Event>
    <Absolute>16993</Absolute>
    <NoteOn Channel="11" Note="31" Velocity="127"/>
  </Event>
  <Event>
    <Absolute>17003</Absolute>
    <NoteOn Channel="11" Note="31" Velocity="0"/>
  </Event>
  <Event>
    <Absolute>17003</Absolute>
    <NoteOn Channel="11" Note="43" Velocity="0"/>
  </Event>
  <Event>
    <Absolute>17013</Absolute>
    <NoteOn Channel="11" Note="31" Velocity="127"/>
  </Event>
  <Event>
    <Absolute>17013</Absolute>
    <NoteOn Channel="11" Note="43" Velocity="127"/>
  </Event>
  <Event>
    <Absolute>17023</Absolute>
    <NoteOn Channel="11" Note="43" Velocity="0"/>
  </Event>
  <Event>
    <Absolute>17023</Absolute>
    <NoteOn Channel="11" Note="31" Velocity="0"/>
  </Event>
  <Event>
    <Absolute>17032</Absolute>
    <NoteOn Channel="11" Note="43" Velocity="127"/>
  </Event>
  <Event>
    <Absolute>17032</Absolute>
    <NoteOn Channel="11" Note="31" Velocity="127"/>
  </Event>
  <Event>
    <Absolute>17043</Absolute>
    <NoteOn Channel="11" Note="31" Velocity="0"/>
  </Event>
  <Event>
    <Absolute>17043</Absolute>
    <NoteOn Channel="11" Note="43" Velocity="0"/>
  </Event>
  <Event>
    <Absolute>17051</Absolute>
    <NoteOn Channel="11" Note="31" Velocity="127"/>
  </Event>
  <Event>
    <Absolute>17051</Absolute>
    <NoteOn Channel="11" Note="43" Velocity="127"/>
  </Event>
  <Event>
    <Absolute>17061</Absolute>
    <NoteOn Channel="11" Note="43" Velocity="0"/>
  </Event>
  <Event>
    <Absolute>17061</Absolute>
    <NoteOn Channel="11" Note="31" Velocity="0"/>
  </Event>
  <Event>
    <Absolute>17111</Absolute>
    <NoteOn Channel="11" Note="43" Velocity="127"/>
  </Event>
  <Event>
    <Absolute>17111</Absolute>
    <NoteOn Channel="11" Note="31" Velocity="127"/>
  </Event>
  <Event>
    <Absolute>17122</Absolute>
    <NoteOn Channel="11" Note="31" Velocity="0"/>
  </Event>
  <Event>
    <Absolute>17122</Absolute>
    <NoteOn Channel="11" Note="43" Velocity="0"/>
  </Event>
  <Event>
    <Absolute>17131</Absolute>
    <NoteOn Channel="11" Note="31" Velocity="127"/>
  </Event>
  <Event>
    <Absolute>17131</Absolute>
    <NoteOn Channel="11" Note="43" Velocity="127"/>
  </Event>
  <Event>
    <Absolute>17142</Absolute>
    <NoteOn Channel="11" Note="43" Velocity="0"/>
  </Event>
  <Event>
    <Absolute>17142</Absolute>
    <NoteOn Channel="11" Note="31" Velocity="0"/>
  </Event>
  <Event>
    <Absolute>17150</Absolute>
    <NoteOn Channel="11" Note="43" Velocity="127"/>
  </Event>
  <Event>
    <Absolute>17150</Absolute>
    <NoteOn Channel="11" Note="31" Velocity="127"/>
  </Event>
  <Event>
    <Absolute>17162</Absolute>
    <NoteOn Channel="11" Note="31" Velocity="0"/>
  </Event>
  <Event>
    <Absolute>17162</Absolute>
    <NoteOn Channel="11" Note="43" Velocity="0"/>
  </Event>
  <Event>
    <Absolute>17171</Absolute>
    <NoteOn Channel="11" Note="39" Velocity="127"/>
  </Event>
  <Event>
    <Absolute>17171</Absolute>
    <NoteOn Channel="11" Note="27" Velocity="127"/>
  </Event>
  <Event>
    <Absolute>17181</Absolute>
    <NoteOn Channel="11" Note="27" Velocity="0"/>
  </Event>
  <Event>
    <Absolute>17181</Absolute>
    <NoteOn Channel="11" Note="39" Velocity="0"/>
  </Event>
  <Event>
    <Absolute>17189</Absolute>
    <NoteOn Channel="11" Note="27" Velocity="127"/>
  </Event>
  <Event>
    <Absolute>17189</Absolute>
    <NoteOn Channel="11" Note="39" Velocity="127"/>
  </Event>
  <Event>
    <Absolute>17203</Absolute>
    <NoteOn Channel="11" Note="39" Velocity="0"/>
  </Event>
  <Event>
    <Absolute>17203</Absolute>
    <NoteOn Channel="11" Note="27" Velocity="0"/>
  </Event>
  <Event>
    <Absolute>17209</Absolute>
    <NoteOn Channel="11" Note="39" Velocity="127"/>
  </Event>
  <Event>
    <Absolute>17209</Absolute>
    <NoteOn Channel="11" Note="27" Velocity="127"/>
  </Event>
  <Event>
    <Absolute>17220</Absolute>
    <NoteOn Channel="11" Note="27" Velocity="0"/>
  </Event>
  <Event>
    <Absolute>17220</Absolute>
    <NoteOn Channel="11" Note="39" Velocity="0"/>
  </Event>
  <Event>
    <Absolute>17230</Absolute>
    <NoteOn Channel="11" Note="39" Velocity="127"/>
  </Event>
  <Event>
    <Absolute>17230</Absolute>
    <NoteOn Channel="11" Note="27" Velocity="127"/>
  </Event>
  <Event>
    <Absolute>17243</Absolute>
    <NoteOn Channel="11" Note="27" Velocity="0"/>
  </Event>
  <Event>
    <Absolute>17243</Absolute>
    <NoteOn Channel="11" Note="39" Velocity="0"/>
  </Event>
  <Event>
    <Absolute>17289</Absolute>
    <NoteOn Channel="11" Note="49" Velocity="127"/>
  </Event>
  <Event>
    <Absolute>17293</Absolute>
    <NoteOn Channel="11" Note="37" Velocity="127"/>
  </Event>
  <Event>
    <Absolute>17301</Absolute>
    <NoteOn Channel="11" Note="49" Velocity="0"/>
  </Event>
  <Event>
    <Absolute>17305</Absolute>
    <NoteOn Channel="11" Note="37" Velocity="0"/>
  </Event>
  <Event>
    <Absolute>17407</Absolute>
    <NoteOn Channel="11" Note="49" Velocity="127"/>
  </Event>
  <Event>
    <Absolute>17410</Absolute>
    <NoteOn Channel="11" Note="37" Velocity="127"/>
  </Event>
  <Event>
    <Absolute>17418</Absolute>
    <NoteOn Channel="11" Note="49" Velocity="0"/>
  </Event>
  <Event>
    <Absolute>17421</Absolute>
    <NoteOn Channel="11" Note="37" Velocity="0"/>
  </Event>
  <Event>
    <Absolute>17470</Absolute>
    <NoteOn Channel="11" Note="49" Velocity="127"/>
  </Event>
  <Event>
    <Absolute>17470</Absolute>
    <NoteOn Channel="11" Note="37" Velocity="127"/>
  </Event>
  <Event>
    <Absolute>17481</Absolute>
    <NoteOn Channel="11" Note="37" Velocity="0"/>
  </Event>
  <Event>
    <Absolute>17481</Absolute>
    <NoteOn Channel="11" Note="49" Velocity="0"/>
  </Event>
  <Event>
    <Absolute>17490</Absolute>
    <NoteOn Channel="11" Note="49" Velocity="127"/>
  </Event>
  <Event>
    <Absolute>17490</Absolute>
    <NoteOn Channel="11" Note="37" Velocity="127"/>
  </Event>
  <Event>
    <Absolute>17501</Absolute>
    <NoteOn Channel="11" Note="37" Velocity="0"/>
  </Event>
  <Event>
    <Absolute>17501</Absolute>
    <NoteOn Channel="11" Note="49" Velocity="0"/>
  </Event>
  <Event>
    <Absolute>17510</Absolute>
    <NoteOn Channel="11" Note="49" Velocity="127"/>
  </Event>
  <Event>
    <Absolute>17510</Absolute>
    <NoteOn Channel="11" Note="37" Velocity="127"/>
  </Event>
  <Event>
    <Absolute>17521</Absolute>
    <NoteOn Channel="11" Note="37" Velocity="0"/>
  </Event>
  <Event>
    <Absolute>17521</Absolute>
    <NoteOn Channel="11" Note="49" Velocity="0"/>
  </Event>
  <Event>
    <Absolute>17530</Absolute>
    <NoteOn Channel="11" Note="49" Velocity="127"/>
  </Event>
  <Event>
    <Absolute>17530</Absolute>
    <NoteOn Channel="11" Note="37" Velocity="127"/>
  </Event>
  <Event>
    <Absolute>17541</Absolute>
    <NoteOn Channel="11" Note="37" Velocity="0"/>
  </Event>
  <Event>
    <Absolute>17541</Absolute>
    <NoteOn Channel="11" Note="49" Velocity="0"/>
  </Event>
  <Event>
    <Absolute>17588</Absolute>
    <NoteOn Channel="11" Note="37" Velocity="127"/>
  </Event>
  <Event>
    <Absolute>17588</Absolute>
    <NoteOn Channel="11" Note="49" Velocity="127"/>
  </Event>
  <Event>
    <Absolute>17599</Absolute>
    <NoteOn Channel="11" Note="49" Velocity="0"/>
  </Event>
  <Event>
    <Absolute>17599</Absolute>
    <NoteOn Channel="11" Note="37" Velocity="0"/>
  </Event>
  <Event>
    <Absolute>17608</Absolute>
    <NoteOn Channel="11" Note="49" Velocity="127"/>
  </Event>
  <Event>
    <Absolute>17608</Absolute>
    <NoteOn Channel="11" Note="37" Velocity="127"/>
  </Event>
  <Event>
    <Absolute>17619</Absolute>
    <NoteOn Channel="11" Note="37" Velocity="0"/>
  </Event>
  <Event>
    <Absolute>17619</Absolute>
    <NoteOn Channel="11" Note="49" Velocity="0"/>
  </Event>
  <Event>
    <Absolute>17630</Absolute>
    <NoteOn Channel="11" Note="49" Velocity="127"/>
  </Event>
  <Event>
    <Absolute>17630</Absolute>
    <NoteOn Channel="11" Note="37" Velocity="127"/>
  </Event>
  <Event>
    <Absolute>17641</Absolute>
    <NoteOn Channel="11" Note="37" Velocity="0"/>
  </Event>
  <Event>
    <Absolute>17641</Absolute>
    <NoteOn Channel="11" Note="49" Velocity="0"/>
  </Event>
  <Event>
    <Absolute>17650</Absolute>
    <NoteOn Channel="11" Note="49" Velocity="127"/>
  </Event>
  <Event>
    <Absolute>17650</Absolute>
    <NoteOn Channel="11" Note="37" Velocity="127"/>
  </Event>
  <Event>
    <Absolute>17661</Absolute>
    <NoteOn Channel="11" Note="37" Velocity="0"/>
  </Event>
  <Event>
    <Absolute>17661</Absolute>
    <NoteOn Channel="11" Note="49" Velocity="0"/>
  </Event>
  <Event>
    <Absolute>17670</Absolute>
    <NoteOn Channel="11" Note="49" Velocity="127"/>
  </Event>
  <Event>
    <Absolute>17670</Absolute>
    <NoteOn Channel="11" Note="37" Velocity="127"/>
  </Event>
  <Event>
    <Absolute>17683</Absolute>
    <NoteOn Channel="11" Note="37" Velocity="0"/>
  </Event>
  <Event>
    <Absolute>17683</Absolute>
    <NoteOn Channel="11" Note="49" Velocity="0"/>
  </Event>
  <Event>
    <Absolute>17688</Absolute>
    <NoteOn Channel="11" Note="49" Velocity="127"/>
  </Event>
  <Event>
    <Absolute>17688</Absolute>
    <NoteOn Channel="11" Note="37" Velocity="127"/>
  </Event>
  <Event>
    <Absolute>17699</Absolute>
    <NoteOn Channel="11" Note="37" Velocity="0"/>
  </Event>
  <Event>
    <Absolute>17699</Absolute>
    <NoteOn Channel="11" Note="49" Velocity="0"/>
  </Event>
  <Event>
    <Absolute>17710</Absolute>
    <NoteOn Channel="11" Note="49" Velocity="127"/>
  </Event>
  <Event>
    <Absolute>17710</Absolute>
    <NoteOn Channel="11" Note="37" Velocity="127"/>
  </Event>
  <Event>
    <Absolute>17721</Absolute>
    <NoteOn Channel="11" Note="37" Velocity="0"/>
  </Event>
  <Event>
    <Absolute>17721</Absolute>
    <NoteOn Channel="11" Note="49" Velocity="0"/>
  </Event>
  <Event>
    <Absolute>17769</Absolute>
    <NoteOn Channel="11" Note="51" Velocity="127"/>
  </Event>
  <Event>
    <Absolute>17771</Absolute>
    <NoteOn Channel="11" Note="39" Velocity="127"/>
  </Event>
  <Event>
    <Absolute>17781</Absolute>
    <NoteOn Channel="11" Note="39" Velocity="0"/>
  </Event>
  <Event>
    <Absolute>17781</Absolute>
    <NoteOn Channel="11" Note="51" Velocity="0"/>
  </Event>
  <Event>
    <Absolute>17887</Absolute>
    <NoteOn Channel="11" Note="51" Velocity="127"/>
  </Event>
  <Event>
    <Absolute>17887</Absolute>
    <NoteOn Channel="11" Note="39" Velocity="127"/>
  </Event>
  <Event>
    <Absolute>17898</Absolute>
    <NoteOn Channel="11" Note="39" Velocity="0"/>
  </Event>
  <Event>
    <Absolute>17898</Absolute>
    <NoteOn Channel="11" Note="51" Velocity="0"/>
  </Event>
  <Event>
    <Absolute>17950</Absolute>
    <NoteOn Channel="11" Note="39" Velocity="127"/>
  </Event>
  <Event>
    <Absolute>17950</Absolute>
    <NoteOn Channel="11" Note="51" Velocity="127"/>
  </Event>
  <Event>
    <Absolute>17961</Absolute>
    <NoteOn Channel="11" Note="51" Velocity="0"/>
  </Event>
  <Event>
    <Absolute>17961</Absolute>
    <NoteOn Channel="11" Note="39" Velocity="0"/>
  </Event>
  <Event>
    <Absolute>17970</Absolute>
    <NoteOn Channel="11" Note="51" Velocity="127"/>
  </Event>
  <Event>
    <Absolute>17970</Absolute>
    <NoteOn Channel="11" Note="39" Velocity="127"/>
  </Event>
  <Event>
    <Absolute>17981</Absolute>
    <NoteOn Channel="11" Note="39" Velocity="0"/>
  </Event>
  <Event>
    <Absolute>17981</Absolute>
    <NoteOn Channel="11" Note="51" Velocity="0"/>
  </Event>
  <Event>
    <Absolute>17989</Absolute>
    <NoteOn Channel="11" Note="51" Velocity="127"/>
  </Event>
  <Event>
    <Absolute>17990</Absolute>
    <NoteOn Channel="11" Note="39" Velocity="127"/>
  </Event>
  <Event>
    <Absolute>18000</Absolute>
    <NoteOn Channel="11" Note="51" Velocity="0"/>
  </Event>
  <Event>
    <Absolute>18001</Absolute>
    <NoteOn Channel="11" Note="39" Velocity="0"/>
  </Event>
  <Event>
    <Absolute>18010</Absolute>
    <NoteOn Channel="11" Note="38" Velocity="127"/>
  </Event>
  <Event>
    <Absolute>18010</Absolute>
    <NoteOn Channel="11" Note="50" Velocity="127"/>
  </Event>
  <Event>
    <Absolute>18035</Absolute>
    <NoteOn Channel="11" Note="50" Velocity="0"/>
  </Event>
  <Event>
    <Absolute>18041</Absolute>
    <NoteOn Channel="11" Note="38" Velocity="0"/>
  </Event>
  <Event>
    <Absolute>18130</Absolute>
    <NoteOn Channel="11" Note="48" Velocity="127"/>
  </Event>
  <Event>
    <Absolute>18130</Absolute>
    <NoteOn Channel="11" Note="36" Velocity="127"/>
  </Event>
  <Event>
    <Absolute>18141</Absolute>
    <NoteOn Channel="11" Note="36" Velocity="0"/>
  </Event>
  <Event>
    <Absolute>18141</Absolute>
    <NoteOn Channel="11" Note="48" Velocity="0"/>
  </Event>
  <Event>
    <Absolute>18150</Absolute>
    <NoteOn Channel="11" Note="36" Velocity="127"/>
  </Event>
  <Event>
    <Absolute>18150</Absolute>
    <NoteOn Channel="11" Note="48" Velocity="127"/>
  </Event>
  <Event>
    <Absolute>18163</Absolute>
    <NoteOn Channel="11" Note="48" Velocity="0"/>
  </Event>
  <Event>
    <Absolute>18163</Absolute>
    <NoteOn Channel="11" Note="36" Velocity="0"/>
  </Event>
  <Event>
    <Absolute>18168</Absolute>
    <NoteOn Channel="11" Note="48" Velocity="127"/>
  </Event>
  <Event>
    <Absolute>18168</Absolute>
    <NoteOn Channel="11" Note="36" Velocity="127"/>
  </Event>
  <Event>
    <Absolute>18179</Absolute>
    <NoteOn Channel="11" Note="36" Velocity="0"/>
  </Event>
  <Event>
    <Absolute>18179</Absolute>
    <NoteOn Channel="11" Note="48" Velocity="0"/>
  </Event>
  <Event>
    <Absolute>18190</Absolute>
    <NoteOn Channel="11" Note="36" Velocity="127"/>
  </Event>
  <Event>
    <Absolute>18190</Absolute>
    <NoteOn Channel="11" Note="48" Velocity="127"/>
  </Event>
  <Event>
    <Absolute>18201</Absolute>
    <NoteOn Channel="11" Note="48" Velocity="0"/>
  </Event>
  <Event>
    <Absolute>18201</Absolute>
    <NoteOn Channel="11" Note="36" Velocity="0"/>
  </Event>
  <Event>
    <Absolute>18251</Absolute>
    <NoteOn Channel="11" Note="43" Velocity="127"/>
  </Event>
  <Event>
    <Absolute>18251</Absolute>
    <NoteOn Channel="11" Note="31" Velocity="127"/>
  </Event>
  <Event>
    <Absolute>18262</Absolute>
    <NoteOn Channel="11" Note="31" Velocity="0"/>
  </Event>
  <Event>
    <Absolute>18262</Absolute>
    <NoteOn Channel="11" Note="43" Velocity="0"/>
  </Event>
  <Event>
    <Absolute>18370</Absolute>
    <NoteOn Channel="11" Note="39" Velocity="127"/>
  </Event>
  <Event>
    <Absolute>18370</Absolute>
    <NoteOn Channel="11" Note="51" Velocity="127"/>
  </Event>
  <Event>
    <Absolute>18381</Absolute>
    <NoteOn Channel="11" Note="51" Velocity="0"/>
  </Event>
  <Event>
    <Absolute>18381</Absolute>
    <NoteOn Channel="11" Note="39" Velocity="0"/>
  </Event>
  <Event>
    <Absolute>18390</Absolute>
    <NoteOn Channel="11" Note="51" Velocity="127"/>
  </Event>
  <Event>
    <Absolute>18390</Absolute>
    <NoteOn Channel="11" Note="39" Velocity="127"/>
  </Event>
  <Event>
    <Absolute>18403</Absolute>
    <NoteOn Channel="11" Note="39" Velocity="0"/>
  </Event>
  <Event>
    <Absolute>18403</Absolute>
    <NoteOn Channel="11" Note="51" Velocity="0"/>
  </Event>
  <Event>
    <Absolute>18408</Absolute>
    <NoteOn Channel="11" Note="39" Velocity="127"/>
  </Event>
  <Event>
    <Absolute>18408</Absolute>
    <NoteOn Channel="11" Note="51" Velocity="127"/>
  </Event>
  <Event>
    <Absolute>18419</Absolute>
    <NoteOn Channel="11" Note="51" Velocity="0"/>
  </Event>
  <Event>
    <Absolute>18419</Absolute>
    <NoteOn Channel="11" Note="39" Velocity="0"/>
  </Event>
  <Event>
    <Absolute>18430</Absolute>
    <NoteOn Channel="11" Note="51" Velocity="127"/>
  </Event>
  <Event>
    <Absolute>18431</Absolute>
    <NoteOn Channel="11" Note="39" Velocity="127"/>
  </Event>
  <Event>
    <Absolute>18441</Absolute>
    <NoteOn Channel="11" Note="51" Velocity="0"/>
  </Event>
  <Event>
    <Absolute>18442</Absolute>
    <NoteOn Channel="11" Note="39" Velocity="0"/>
  </Event>
  <Event>
    <Absolute>18493</Absolute>
    <NoteOn Channel="11" Note="31" Velocity="127"/>
  </Event>
  <Event>
    <Absolute>18493</Absolute>
    <NoteOn Channel="11" Note="43" Velocity="127"/>
  </Event>
  <Event>
    <Absolute>18503</Absolute>
    <NoteOn Channel="11" Note="43" Velocity="0"/>
  </Event>
  <Event>
    <Absolute>18503</Absolute>
    <NoteOn Channel="11" Note="31" Velocity="0"/>
  </Event>
  <Event>
    <Absolute>18551</Absolute>
    <NoteOn Channel="11" Note="43" Velocity="127"/>
  </Event>
  <Event>
    <Absolute>18551</Absolute>
    <NoteOn Channel="11" Note="31" Velocity="127"/>
  </Event>
  <Event>
    <Absolute>18562</Absolute>
    <NoteOn Channel="11" Note="31" Velocity="0"/>
  </Event>
  <Event>
    <Absolute>18562</Absolute>
    <NoteOn Channel="11" Note="43" Velocity="0"/>
  </Event>
  <Event>
    <Absolute>18571</Absolute>
    <NoteOn Channel="11" Note="31" Velocity="127"/>
  </Event>
  <Event>
    <Absolute>18571</Absolute>
    <NoteOn Channel="11" Note="43" Velocity="127"/>
  </Event>
  <Event>
    <Absolute>18582</Absolute>
    <NoteOn Channel="11" Note="43" Velocity="0"/>
  </Event>
  <Event>
    <Absolute>18582</Absolute>
    <NoteOn Channel="11" Note="31" Velocity="0"/>
  </Event>
  <Event>
    <Absolute>18591</Absolute>
    <NoteOn Channel="11" Note="43" Velocity="127"/>
  </Event>
  <Event>
    <Absolute>18591</Absolute>
    <NoteOn Channel="11" Note="31" Velocity="127"/>
  </Event>
  <Event>
    <Absolute>18603</Absolute>
    <NoteOn Channel="11" Note="31" Velocity="0"/>
  </Event>
  <Event>
    <Absolute>18603</Absolute>
    <NoteOn Channel="11" Note="43" Velocity="0"/>
  </Event>
  <Event>
    <Absolute>18611</Absolute>
    <NoteOn Channel="11" Note="31" Velocity="127"/>
  </Event>
  <Event>
    <Absolute>18611</Absolute>
    <NoteOn Channel="11" Note="43" Velocity="127"/>
  </Event>
  <Event>
    <Absolute>18621</Absolute>
    <NoteOn Channel="11" Note="43" Velocity="0"/>
  </Event>
  <Event>
    <Absolute>18621</Absolute>
    <NoteOn Channel="11" Note="31" Velocity="0"/>
  </Event>
  <Event>
    <Absolute>18630</Absolute>
    <NoteOn Channel="11" Note="43" Velocity="127"/>
  </Event>
  <Event>
    <Absolute>18630</Absolute>
    <NoteOn Channel="11" Note="31" Velocity="127"/>
  </Event>
  <Event>
    <Absolute>18643</Absolute>
    <NoteOn Channel="11" Note="31" Velocity="0"/>
  </Event>
  <Event>
    <Absolute>18643</Absolute>
    <NoteOn Channel="11" Note="43" Velocity="0"/>
  </Event>
  <Event>
    <Absolute>18650</Absolute>
    <NoteOn Channel="11" Note="31" Velocity="127"/>
  </Event>
  <Event>
    <Absolute>18650</Absolute>
    <NoteOn Channel="11" Note="43" Velocity="127"/>
  </Event>
  <Event>
    <Absolute>18661</Absolute>
    <NoteOn Channel="11" Note="43" Velocity="0"/>
  </Event>
  <Event>
    <Absolute>18661</Absolute>
    <NoteOn Channel="11" Note="31" Velocity="0"/>
  </Event>
  <Event>
    <Absolute>18671</Absolute>
    <NoteOn Channel="11" Note="43" Velocity="127"/>
  </Event>
  <Event>
    <Absolute>18671</Absolute>
    <NoteOn Channel="11" Note="31" Velocity="127"/>
  </Event>
  <Event>
    <Absolute>18681</Absolute>
    <NoteOn Channel="11" Note="31" Velocity="0"/>
  </Event>
  <Event>
    <Absolute>18681</Absolute>
    <NoteOn Channel="11" Note="43" Velocity="0"/>
  </Event>
  <Event>
    <Absolute>18690</Absolute>
    <NoteOn Channel="11" Note="31" Velocity="127"/>
  </Event>
  <Event>
    <Absolute>18690</Absolute>
    <NoteOn Channel="11" Note="43" Velocity="127"/>
  </Event>
  <Event>
    <Absolute>18703</Absolute>
    <NoteOn Channel="11" Note="43" Velocity="0"/>
  </Event>
  <Event>
    <Absolute>18703</Absolute>
    <NoteOn Channel="11" Note="31" Velocity="0"/>
  </Event>
  <Event>
    <Absolute>18710</Absolute>
    <NoteOn Channel="11" Note="43" Velocity="127"/>
  </Event>
  <Event>
    <Absolute>18710</Absolute>
    <NoteOn Channel="11" Note="31" Velocity="127"/>
  </Event>
  <Event>
    <Absolute>18721</Absolute>
    <NoteOn Channel="11" Note="31" Velocity="0"/>
  </Event>
  <Event>
    <Absolute>18721</Absolute>
    <NoteOn Channel="11" Note="43" Velocity="0"/>
  </Event>
  <Event>
    <Absolute>18730</Absolute>
    <NoteOn Channel="11" Note="39" Velocity="127"/>
  </Event>
  <Event>
    <Absolute>18730</Absolute>
    <NoteOn Channel="11" Note="51" Velocity="127"/>
  </Event>
  <Event>
    <Absolute>18741</Absolute>
    <NoteOn Channel="11" Note="51" Velocity="0"/>
  </Event>
  <Event>
    <Absolute>18741</Absolute>
    <NoteOn Channel="11" Note="39" Velocity="0"/>
  </Event>
  <Event>
    <Absolute>18851</Absolute>
    <NoteOn Channel="11" Note="51" Velocity="127"/>
  </Event>
  <Event>
    <Absolute>18851</Absolute>
    <NoteOn Channel="11" Note="39" Velocity="127"/>
  </Event>
  <Event>
    <Absolute>18862</Absolute>
    <NoteOn Channel="11" Note="39" Velocity="0"/>
  </Event>
  <Event>
    <Absolute>18862</Absolute>
    <NoteOn Channel="11" Note="51" Velocity="0"/>
  </Event>
  <Event>
    <Absolute>18913</Absolute>
    <NoteOn Channel="11" Note="39" Velocity="127"/>
  </Event>
  <Event>
    <Absolute>18913</Absolute>
    <NoteOn Channel="11" Note="51" Velocity="127"/>
  </Event>
  <Event>
    <Absolute>18923</Absolute>
    <NoteOn Channel="11" Note="51" Velocity="0"/>
  </Event>
  <Event>
    <Absolute>18923</Absolute>
    <NoteOn Channel="11" Note="39" Velocity="0"/>
  </Event>
  <Event>
    <Absolute>18933</Absolute>
    <NoteOn Channel="11" Note="51" Velocity="127"/>
  </Event>
  <Event>
    <Absolute>18933</Absolute>
    <NoteOn Channel="11" Note="39" Velocity="127"/>
  </Event>
  <Event>
    <Absolute>18943</Absolute>
    <NoteOn Channel="11" Note="39" Velocity="0"/>
  </Event>
  <Event>
    <Absolute>18943</Absolute>
    <NoteOn Channel="11" Note="51" Velocity="0"/>
  </Event>
  <Event>
    <Absolute>18952</Absolute>
    <NoteOn Channel="11" Note="39" Velocity="127"/>
  </Event>
  <Event>
    <Absolute>18952</Absolute>
    <NoteOn Channel="11" Note="51" Velocity="127"/>
  </Event>
  <Event>
    <Absolute>18963</Absolute>
    <NoteOn Channel="11" Note="51" Velocity="0"/>
  </Event>
  <Event>
    <Absolute>18963</Absolute>
    <NoteOn Channel="11" Note="39" Velocity="0"/>
  </Event>
  <Event>
    <Absolute>18971</Absolute>
    <NoteOn Channel="11" Note="43" Velocity="127"/>
  </Event>
  <Event>
    <Absolute>18971</Absolute>
    <NoteOn Channel="11" Note="31" Velocity="127"/>
  </Event>
  <Event>
    <Absolute>18981</Absolute>
    <NoteOn Channel="11" Note="31" Velocity="0"/>
  </Event>
  <Event>
    <Absolute>18981</Absolute>
    <NoteOn Channel="11" Note="43" Velocity="0"/>
  </Event>
  <Event>
    <Absolute>19031</Absolute>
    <NoteOn Channel="11" Note="31" Velocity="127"/>
  </Event>
  <Event>
    <Absolute>19031</Absolute>
    <NoteOn Channel="11" Note="43" Velocity="127"/>
  </Event>
  <Event>
    <Absolute>19042</Absolute>
    <NoteOn Channel="11" Note="43" Velocity="0"/>
  </Event>
  <Event>
    <Absolute>19042</Absolute>
    <NoteOn Channel="11" Note="31" Velocity="0"/>
  </Event>
  <Event>
    <Absolute>19051</Absolute>
    <NoteOn Channel="11" Note="43" Velocity="127"/>
  </Event>
  <Event>
    <Absolute>19051</Absolute>
    <NoteOn Channel="11" Note="31" Velocity="127"/>
  </Event>
  <Event>
    <Absolute>19062</Absolute>
    <NoteOn Channel="11" Note="31" Velocity="0"/>
  </Event>
  <Event>
    <Absolute>19062</Absolute>
    <NoteOn Channel="11" Note="43" Velocity="0"/>
  </Event>
  <Event>
    <Absolute>19070</Absolute>
    <NoteOn Channel="11" Note="31" Velocity="127"/>
  </Event>
  <Event>
    <Absolute>19070</Absolute>
    <NoteOn Channel="11" Note="43" Velocity="127"/>
  </Event>
  <Event>
    <Absolute>19082</Absolute>
    <NoteOn Channel="11" Note="43" Velocity="0"/>
  </Event>
  <Event>
    <Absolute>19082</Absolute>
    <NoteOn Channel="11" Note="31" Velocity="0"/>
  </Event>
  <Event>
    <Absolute>19091</Absolute>
    <NoteOn Channel="11" Note="39" Velocity="127"/>
  </Event>
  <Event>
    <Absolute>19091</Absolute>
    <NoteOn Channel="11" Note="27" Velocity="127"/>
  </Event>
  <Event>
    <Absolute>19101</Absolute>
    <NoteOn Channel="11" Note="27" Velocity="0"/>
  </Event>
  <Event>
    <Absolute>19101</Absolute>
    <NoteOn Channel="11" Note="39" Velocity="0"/>
  </Event>
  <Event>
    <Absolute>19109</Absolute>
    <NoteOn Channel="11" Note="27" Velocity="127"/>
  </Event>
  <Event>
    <Absolute>19109</Absolute>
    <NoteOn Channel="11" Note="39" Velocity="127"/>
  </Event>
  <Event>
    <Absolute>19123</Absolute>
    <NoteOn Channel="11" Note="39" Velocity="0"/>
  </Event>
  <Event>
    <Absolute>19123</Absolute>
    <NoteOn Channel="11" Note="27" Velocity="0"/>
  </Event>
  <Event>
    <Absolute>19129</Absolute>
    <NoteOn Channel="11" Note="39" Velocity="127"/>
  </Event>
  <Event>
    <Absolute>19129</Absolute>
    <NoteOn Channel="11" Note="27" Velocity="127"/>
  </Event>
  <Event>
    <Absolute>19140</Absolute>
    <NoteOn Channel="11" Note="27" Velocity="0"/>
  </Event>
  <Event>
    <Absolute>19140</Absolute>
    <NoteOn Channel="11" Note="39" Velocity="0"/>
  </Event>
  <Event>
    <Absolute>19150</Absolute>
    <NoteOn Channel="11" Note="39" Velocity="127"/>
  </Event>
  <Event>
    <Absolute>19150</Absolute>
    <NoteOn Channel="11" Note="27" Velocity="127"/>
  </Event>
  <Event>
    <Absolute>19163</Absolute>
    <NoteOn Channel="11" Note="27" Velocity="0"/>
  </Event>
  <Event>
    <Absolute>19163</Absolute>
    <NoteOn Channel="11" Note="39" Velocity="0"/>
  </Event>
  <Event>
    <Absolute>19209</Absolute>
    <NoteOn Channel="11" Note="49" Velocity="127"/>
  </Event>
  <Event>
    <Absolute>19213</Absolute>
    <NoteOn Channel="11" Note="37" Velocity="127"/>
  </Event>
  <Event>
    <Absolute>19221</Absolute>
    <NoteOn Channel="11" Note="49" Velocity="0"/>
  </Event>
  <Event>
    <Absolute>19225</Absolute>
    <NoteOn Channel="11" Note="37" Velocity="0"/>
  </Event>
  <Event>
    <Absolute>19327</Absolute>
    <NoteOn Channel="11" Note="49" Velocity="127"/>
  </Event>
  <Event>
    <Absolute>19330</Absolute>
    <NoteOn Channel="11" Note="37" Velocity="127"/>
  </Event>
  <Event>
    <Absolute>19338</Absolute>
    <NoteOn Channel="11" Note="49" Velocity="0"/>
  </Event>
  <Event>
    <Absolute>19341</Absolute>
    <NoteOn Channel="11" Note="37" Velocity="0"/>
  </Event>
  <Event>
    <Absolute>19390</Absolute>
    <NoteOn Channel="11" Note="49" Velocity="127"/>
  </Event>
  <Event>
    <Absolute>19390</Absolute>
    <NoteOn Channel="11" Note="37" Velocity="127"/>
  </Event>
  <Event>
    <Absolute>19401</Absolute>
    <NoteOn Channel="11" Note="37" Velocity="0"/>
  </Event>
  <Event>
    <Absolute>19401</Absolute>
    <NoteOn Channel="11" Note="49" Velocity="0"/>
  </Event>
  <Event>
    <Absolute>19410</Absolute>
    <NoteOn Channel="11" Note="49" Velocity="127"/>
  </Event>
  <Event>
    <Absolute>19410</Absolute>
    <NoteOn Channel="11" Note="37" Velocity="127"/>
  </Event>
  <Event>
    <Absolute>19421</Absolute>
    <NoteOn Channel="11" Note="37" Velocity="0"/>
  </Event>
  <Event>
    <Absolute>19421</Absolute>
    <NoteOn Channel="11" Note="49" Velocity="0"/>
  </Event>
  <Event>
    <Absolute>19430</Absolute>
    <NoteOn Channel="11" Note="49" Velocity="127"/>
  </Event>
  <Event>
    <Absolute>19430</Absolute>
    <NoteOn Channel="11" Note="37" Velocity="127"/>
  </Event>
  <Event>
    <Absolute>19441</Absolute>
    <NoteOn Channel="11" Note="37" Velocity="0"/>
  </Event>
  <Event>
    <Absolute>19441</Absolute>
    <NoteOn Channel="11" Note="49" Velocity="0"/>
  </Event>
  <Event>
    <Absolute>19450</Absolute>
    <NoteOn Channel="11" Note="49" Velocity="127"/>
  </Event>
  <Event>
    <Absolute>19450</Absolute>
    <NoteOn Channel="11" Note="37" Velocity="127"/>
  </Event>
  <Event>
    <Absolute>19461</Absolute>
    <NoteOn Channel="11" Note="37" Velocity="0"/>
  </Event>
  <Event>
    <Absolute>19461</Absolute>
    <NoteOn Channel="11" Note="49" Velocity="0"/>
  </Event>
  <Event>
    <Absolute>19508</Absolute>
    <NoteOn Channel="11" Note="37" Velocity="127"/>
  </Event>
  <Event>
    <Absolute>19508</Absolute>
    <NoteOn Channel="11" Note="49" Velocity="127"/>
  </Event>
  <Event>
    <Absolute>19519</Absolute>
    <NoteOn Channel="11" Note="49" Velocity="0"/>
  </Event>
  <Event>
    <Absolute>19519</Absolute>
    <NoteOn Channel="11" Note="37" Velocity="0"/>
  </Event>
  <Event>
    <Absolute>19528</Absolute>
    <NoteOn Channel="11" Note="49" Velocity="127"/>
  </Event>
  <Event>
    <Absolute>19528</Absolute>
    <NoteOn Channel="11" Note="37" Velocity="127"/>
  </Event>
  <Event>
    <Absolute>19539</Absolute>
    <NoteOn Channel="11" Note="37" Velocity="0"/>
  </Event>
  <Event>
    <Absolute>19539</Absolute>
    <NoteOn Channel="11" Note="49" Velocity="0"/>
  </Event>
  <Event>
    <Absolute>19550</Absolute>
    <NoteOn Channel="11" Note="49" Velocity="127"/>
  </Event>
  <Event>
    <Absolute>19550</Absolute>
    <NoteOn Channel="11" Note="37" Velocity="127"/>
  </Event>
  <Event>
    <Absolute>19561</Absolute>
    <NoteOn Channel="11" Note="37" Velocity="0"/>
  </Event>
  <Event>
    <Absolute>19561</Absolute>
    <NoteOn Channel="11" Note="49" Velocity="0"/>
  </Event>
  <Event>
    <Absolute>19570</Absolute>
    <NoteOn Channel="11" Note="49" Velocity="127"/>
  </Event>
  <Event>
    <Absolute>19570</Absolute>
    <NoteOn Channel="11" Note="37" Velocity="127"/>
  </Event>
  <Event>
    <Absolute>19581</Absolute>
    <NoteOn Channel="11" Note="37" Velocity="0"/>
  </Event>
  <Event>
    <Absolute>19581</Absolute>
    <NoteOn Channel="11" Note="49" Velocity="0"/>
  </Event>
  <Event>
    <Absolute>19590</Absolute>
    <NoteOn Channel="11" Note="49" Velocity="127"/>
  </Event>
  <Event>
    <Absolute>19590</Absolute>
    <NoteOn Channel="11" Note="37" Velocity="127"/>
  </Event>
  <Event>
    <Absolute>19603</Absolute>
    <NoteOn Channel="11" Note="37" Velocity="0"/>
  </Event>
  <Event>
    <Absolute>19603</Absolute>
    <NoteOn Channel="11" Note="49" Velocity="0"/>
  </Event>
  <Event>
    <Absolute>19608</Absolute>
    <NoteOn Channel="11" Note="49" Velocity="127"/>
  </Event>
  <Event>
    <Absolute>19608</Absolute>
    <NoteOn Channel="11" Note="37" Velocity="127"/>
  </Event>
  <Event>
    <Absolute>19619</Absolute>
    <NoteOn Channel="11" Note="37" Velocity="0"/>
  </Event>
  <Event>
    <Absolute>19619</Absolute>
    <NoteOn Channel="11" Note="49" Velocity="0"/>
  </Event>
  <Event>
    <Absolute>19630</Absolute>
    <NoteOn Channel="11" Note="37" Velocity="127"/>
  </Event>
  <Event>
    <Absolute>19630</Absolute>
    <NoteOn Channel="11" Note="49" Velocity="127"/>
  </Event>
  <Event>
    <Absolute>19641</Absolute>
    <NoteOn Channel="11" Note="49" Velocity="0"/>
  </Event>
  <Event>
    <Absolute>19641</Absolute>
    <NoteOn Channel="11" Note="37" Velocity="0"/>
  </Event>
  <Event>
    <Absolute>19689</Absolute>
    <NoteOn Channel="11" Note="51" Velocity="127"/>
  </Event>
  <Event>
    <Absolute>19691</Absolute>
    <NoteOn Channel="11" Note="39" Velocity="127"/>
  </Event>
  <Event>
    <Absolute>19701</Absolute>
    <NoteOn Channel="11" Note="39" Velocity="0"/>
  </Event>
  <Event>
    <Absolute>19701</Absolute>
    <NoteOn Channel="11" Note="51" Velocity="0"/>
  </Event>
  <Event>
    <Absolute>19807</Absolute>
    <NoteOn Channel="11" Note="51" Velocity="127"/>
  </Event>
  <Event>
    <Absolute>19807</Absolute>
    <NoteOn Channel="11" Note="39" Velocity="127"/>
  </Event>
  <Event>
    <Absolute>19818</Absolute>
    <NoteOn Channel="11" Note="39" Velocity="0"/>
  </Event>
  <Event>
    <Absolute>19818</Absolute>
    <NoteOn Channel="11" Note="51" Velocity="0"/>
  </Event>
  <Event>
    <Absolute>19870</Absolute>
    <NoteOn Channel="11" Note="39" Velocity="127"/>
  </Event>
  <Event>
    <Absolute>19870</Absolute>
    <NoteOn Channel="11" Note="51" Velocity="127"/>
  </Event>
  <Event>
    <Absolute>19881</Absolute>
    <NoteOn Channel="11" Note="51" Velocity="0"/>
  </Event>
  <Event>
    <Absolute>19881</Absolute>
    <NoteOn Channel="11" Note="39" Velocity="0"/>
  </Event>
  <Event>
    <Absolute>19890</Absolute>
    <NoteOn Channel="11" Note="51" Velocity="127"/>
  </Event>
  <Event>
    <Absolute>19890</Absolute>
    <NoteOn Channel="11" Note="39" Velocity="127"/>
  </Event>
  <Event>
    <Absolute>19901</Absolute>
    <NoteOn Channel="11" Note="39" Velocity="0"/>
  </Event>
  <Event>
    <Absolute>19901</Absolute>
    <NoteOn Channel="11" Note="51" Velocity="0"/>
  </Event>
  <Event>
    <Absolute>19910</Absolute>
    <NoteOn Channel="11" Note="39" Velocity="127"/>
  </Event>
  <Event>
    <Absolute>19910</Absolute>
    <NoteOn Channel="11" Note="51" Velocity="127"/>
  </Event>
  <Event>
    <Absolute>19921</Absolute>
    <NoteOn Channel="11" Note="51" Velocity="0"/>
  </Event>
  <Event>
    <Absolute>19921</Absolute>
    <NoteOn Channel="11" Note="39" Velocity="0"/>
  </Event>
  <Event>
    <Absolute>19930</Absolute>
    <NoteOn Channel="11" Note="51" Velocity="127"/>
  </Event>
  <Event>
    <Absolute>19930</Absolute>
    <NoteOn Channel="11" Note="39" Velocity="127"/>
  </Event>
  <Event>
    <Absolute>19941</Absolute>
    <NoteOn Channel="11" Note="39" Velocity="0"/>
  </Event>
  <Event>
    <Absolute>19941</Absolute>
    <NoteOn Channel="11" Note="51" Velocity="0"/>
  </Event>
  <Event>
    <Absolute>20050</Absolute>
    <NoteOn Channel="11" Note="36" Velocity="127"/>
  </Event>
  <Event>
    <Absolute>20050</Absolute>
    <NoteOn Channel="11" Note="48" Velocity="127"/>
  </Event>
  <Event>
    <Absolute>20061</Absolute>
    <NoteOn Channel="11" Note="48" Velocity="0"/>
  </Event>
  <Event>
    <Absolute>20061</Absolute>
    <NoteOn Channel="11" Note="36" Velocity="0"/>
  </Event>
  <Event>
    <Absolute>20070</Absolute>
    <NoteOn Channel="11" Note="48" Velocity="127"/>
  </Event>
  <Event>
    <Absolute>20070</Absolute>
    <NoteOn Channel="11" Note="36" Velocity="127"/>
  </Event>
  <Event>
    <Absolute>20083</Absolute>
    <NoteOn Channel="11" Note="36" Velocity="0"/>
  </Event>
  <Event>
    <Absolute>20083</Absolute>
    <NoteOn Channel="11" Note="48" Velocity="0"/>
  </Event>
  <Event>
    <Absolute>20088</Absolute>
    <NoteOn Channel="11" Note="36" Velocity="127"/>
  </Event>
  <Event>
    <Absolute>20088</Absolute>
    <NoteOn Channel="11" Note="48" Velocity="127"/>
  </Event>
  <Event>
    <Absolute>20099</Absolute>
    <NoteOn Channel="11" Note="48" Velocity="0"/>
  </Event>
  <Event>
    <Absolute>20099</Absolute>
    <NoteOn Channel="11" Note="36" Velocity="0"/>
  </Event>
  <Event>
    <Absolute>20110</Absolute>
    <NoteOn Channel="11" Note="48" Velocity="127"/>
  </Event>
  <Event>
    <Absolute>20110</Absolute>
    <NoteOn Channel="11" Note="36" Velocity="127"/>
  </Event>
  <Event>
    <Absolute>20121</Absolute>
    <NoteOn Channel="11" Note="36" Velocity="0"/>
  </Event>
  <Event>
    <Absolute>20121</Absolute>
    <NoteOn Channel="11" Note="48" Velocity="0"/>
  </Event>
  <Event>
    <Absolute>20171</Absolute>
    <NoteOn Channel="11" Note="31" Velocity="127"/>
  </Event>
  <Event>
    <Absolute>20171</Absolute>
    <NoteOn Channel="11" Note="43" Velocity="127"/>
  </Event>
  <Event>
    <Absolute>20182</Absolute>
    <NoteOn Channel="11" Note="43" Velocity="0"/>
  </Event>
  <Event>
    <Absolute>20182</Absolute>
    <NoteOn Channel="11" Note="31" Velocity="0"/>
  </Event>
  <Event>
    <Absolute>20290</Absolute>
    <NoteOn Channel="11" Note="51" Velocity="127"/>
  </Event>
  <Event>
    <Absolute>20290</Absolute>
    <NoteOn Channel="11" Note="39" Velocity="127"/>
  </Event>
  <Event>
    <Absolute>20301</Absolute>
    <NoteOn Channel="11" Note="39" Velocity="0"/>
  </Event>
  <Event>
    <Absolute>20301</Absolute>
    <NoteOn Channel="11" Note="51" Velocity="0"/>
  </Event>
  <Event>
    <Absolute>20310</Absolute>
    <NoteOn Channel="11" Note="39" Velocity="127"/>
  </Event>
  <Event>
    <Absolute>20310</Absolute>
    <NoteOn Channel="11" Note="51" Velocity="127"/>
  </Event>
  <Event>
    <Absolute>20323</Absolute>
    <NoteOn Channel="11" Note="51" Velocity="0"/>
  </Event>
  <Event>
    <Absolute>20323</Absolute>
    <NoteOn Channel="11" Note="39" Velocity="0"/>
  </Event>
  <Event>
    <Absolute>20328</Absolute>
    <NoteOn Channel="11" Note="51" Velocity="127"/>
  </Event>
  <Event>
    <Absolute>20328</Absolute>
    <NoteOn Channel="11" Note="39" Velocity="127"/>
  </Event>
  <Event>
    <Absolute>20339</Absolute>
    <NoteOn Channel="11" Note="39" Velocity="0"/>
  </Event>
  <Event>
    <Absolute>20339</Absolute>
    <NoteOn Channel="11" Note="51" Velocity="0"/>
  </Event>
  <Event>
    <Absolute>20350</Absolute>
    <NoteOn Channel="11" Note="39" Velocity="127"/>
  </Event>
  <Event>
    <Absolute>20350</Absolute>
    <NoteOn Channel="11" Note="51" Velocity="127"/>
  </Event>
  <Event>
    <Absolute>20361</Absolute>
    <NoteOn Channel="11" Note="51" Velocity="0"/>
  </Event>
  <Event>
    <Absolute>20361</Absolute>
    <NoteOn Channel="11" Note="39" Velocity="0"/>
  </Event>
  <Event>
    <Absolute>20413</Absolute>
    <NoteOn Channel="11" Note="43" Velocity="127"/>
  </Event>
  <Event>
    <Absolute>20413</Absolute>
    <NoteOn Channel="11" Note="31" Velocity="127"/>
  </Event>
  <Event>
    <Absolute>20423</Absolute>
    <NoteOn Channel="11" Note="31" Velocity="0"/>
  </Event>
  <Event>
    <Absolute>20423</Absolute>
    <NoteOn Channel="11" Note="43" Velocity="0"/>
  </Event>
  <Event>
    <Absolute>20471</Absolute>
    <NoteOn Channel="11" Note="31" Velocity="127"/>
  </Event>
  <Event>
    <Absolute>20471</Absolute>
    <NoteOn Channel="11" Note="43" Velocity="127"/>
  </Event>
  <Event>
    <Absolute>20482</Absolute>
    <NoteOn Channel="11" Note="43" Velocity="0"/>
  </Event>
  <Event>
    <Absolute>20482</Absolute>
    <NoteOn Channel="11" Note="31" Velocity="0"/>
  </Event>
  <Event>
    <Absolute>20491</Absolute>
    <NoteOn Channel="11" Note="43" Velocity="127"/>
  </Event>
  <Event>
    <Absolute>20491</Absolute>
    <NoteOn Channel="11" Note="31" Velocity="127"/>
  </Event>
  <Event>
    <Absolute>20502</Absolute>
    <NoteOn Channel="11" Note="31" Velocity="0"/>
  </Event>
  <Event>
    <Absolute>20502</Absolute>
    <NoteOn Channel="11" Note="43" Velocity="0"/>
  </Event>
  <Event>
    <Absolute>20511</Absolute>
    <NoteOn Channel="11" Note="31" Velocity="127"/>
  </Event>
  <Event>
    <Absolute>20511</Absolute>
    <NoteOn Channel="11" Note="43" Velocity="127"/>
  </Event>
  <Event>
    <Absolute>20523</Absolute>
    <NoteOn Channel="11" Note="43" Velocity="0"/>
  </Event>
  <Event>
    <Absolute>20523</Absolute>
    <NoteOn Channel="11" Note="31" Velocity="0"/>
  </Event>
  <Event>
    <Absolute>20531</Absolute>
    <NoteOn Channel="11" Note="43" Velocity="127"/>
  </Event>
  <Event>
    <Absolute>20531</Absolute>
    <NoteOn Channel="11" Note="31" Velocity="127"/>
  </Event>
  <Event>
    <Absolute>20541</Absolute>
    <NoteOn Channel="11" Note="31" Velocity="0"/>
  </Event>
  <Event>
    <Absolute>20541</Absolute>
    <NoteOn Channel="11" Note="43" Velocity="0"/>
  </Event>
  <Event>
    <Absolute>20550</Absolute>
    <NoteOn Channel="11" Note="31" Velocity="127"/>
  </Event>
  <Event>
    <Absolute>20550</Absolute>
    <NoteOn Channel="11" Note="43" Velocity="127"/>
  </Event>
  <Event>
    <Absolute>20563</Absolute>
    <NoteOn Channel="11" Note="43" Velocity="0"/>
  </Event>
  <Event>
    <Absolute>20563</Absolute>
    <NoteOn Channel="11" Note="31" Velocity="0"/>
  </Event>
  <Event>
    <Absolute>20570</Absolute>
    <NoteOn Channel="11" Note="43" Velocity="127"/>
  </Event>
  <Event>
    <Absolute>20570</Absolute>
    <NoteOn Channel="11" Note="31" Velocity="127"/>
  </Event>
  <Event>
    <Absolute>20581</Absolute>
    <NoteOn Channel="11" Note="31" Velocity="0"/>
  </Event>
  <Event>
    <Absolute>20581</Absolute>
    <NoteOn Channel="11" Note="43" Velocity="0"/>
  </Event>
  <Event>
    <Absolute>20591</Absolute>
    <NoteOn Channel="11" Note="31" Velocity="127"/>
  </Event>
  <Event>
    <Absolute>20591</Absolute>
    <NoteOn Channel="11" Note="43" Velocity="127"/>
  </Event>
  <Event>
    <Absolute>20604</Absolute>
    <NoteOn Channel="11" Note="43" Velocity="0"/>
  </Event>
  <Event>
    <Absolute>20604</Absolute>
    <NoteOn Channel="11" Note="31" Velocity="0"/>
  </Event>
  <Event>
    <Absolute>24258</Absolute>
    <NoteOn Channel="11" Note="25" Velocity="127"/>
  </Event>
  <Event>
    <Absolute>24701</Absolute>
    <NoteOn Channel="11" Note="25" Velocity="0"/>
  </Event>
  <Event>
    <Absolute>24732</Absolute>
    <NoteOn Channel="11" Note="37" Velocity="74"/>
  </Event>
  <Event>
    <Absolute>26111</Absolute>
    <NoteOn Channel="11" Note="38" Velocity="55"/>
  </Event>
  <Event>
    <Absolute>26122</Absolute>
    <NoteOn Channel="11" Note="37" Velocity="0"/>
  </Event>
  <Event>
    <Absolute>26152</Absolute>
    <NoteOn Channel="11" Note="39" Velocity="57"/>
  </Event>
  <Event>
    <Absolute>26164</Absolute>
    <NoteOn Channel="11" Note="38" Velocity="0"/>
  </Event>
  <Event>
    <Absolute>26173</Absolute>
    <NoteOn Channel="11" Note="40" Velocity="55"/>
  </Event>
  <Event>
    <Absolute>26184</Absolute>
    <NoteOn Channel="11" Note="39" Velocity="0"/>
  </Event>
  <Event>
    <Absolute>27848</Absolute>
    <NoteOn Channel="11" Note="57" Velocity="63"/>
  </Event>
  <Event>
    <Absolute>28031</Absolute>
    <NoteOn Channel="11" Note="57" Velocity="0"/>
  </Event>
  <Event>
    <Absolute>28088</Absolute>
    <NoteOn Channel="11" Note="57" Velocity="55"/>
  </Event>
  <Event>
    <Absolute>28274</Absolute>
    <NoteOn Channel="11" Note="57" Velocity="0"/>
  </Event>
  <Event>
    <Absolute>28332</Absolute>
    <NoteOn Channel="11" Note="57" Velocity="55"/>
  </Event>
  <Event>
    <Absolute>28339</Absolute>
    <NoteOn Channel="11" Note="40" Velocity="0"/>
  </Event>
  <Event>
    <Absolute>28495</Absolute>
    <NoteOn Channel="11" Note="57" Velocity="0"/>
  </Event>
  <Event>
    <Absolute>28566</Absolute>
    <NoteOn Channel="11" Note="48" Velocity="84"/>
  </Event>
  <Event>
    <Absolute>28574</Absolute>
    <NoteOn Channel="11" Note="57" Velocity="55"/>
  </Event>
  <Event>
    <Absolute>28739</Absolute>
    <NoteOn Channel="11" Note="57" Velocity="0"/>
  </Event>
  <Event>
    <Absolute>28813</Absolute>
    <NoteOn Channel="11" Note="57" Velocity="69"/>
  </Event>
  <Event>
    <Absolute>28917</Absolute>
    <NoteOn Channel="11" Note="47" Velocity="84"/>
  </Event>
  <Event>
    <Absolute>28922</Absolute>
    <NoteOn Channel="11" Note="48" Velocity="0"/>
  </Event>
  <Event>
    <Absolute>28985</Absolute>
    <NoteOn Channel="11" Note="57" Velocity="0"/>
  </Event>
  <Event>
    <Absolute>29052</Absolute>
    <NoteOn Channel="11" Note="57" Velocity="63"/>
  </Event>
  <Event>
    <Absolute>29055</Absolute>
    <NoteOn Channel="11" Note="45" Velocity="84"/>
  </Event>
  <Event>
    <Absolute>29056</Absolute>
    <NoteOn Channel="11" Note="47" Velocity="0"/>
  </Event>
  <Event>
    <Absolute>29197</Absolute>
    <NoteOn Channel="11" Note="57" Velocity="0"/>
  </Event>
  <Event>
    <Absolute>29286</Absolute>
    <NoteOn Channel="11" Note="57" Velocity="59"/>
  </Event>
  <Event>
    <Absolute>29417</Absolute>
    <NoteOn Channel="11" Note="43" Velocity="88"/>
  </Event>
  <Event>
    <Absolute>29426</Absolute>
    <NoteOn Channel="11" Note="45" Velocity="0"/>
  </Event>
  <Event>
    <Absolute>29464</Absolute>
    <NoteOn Channel="11" Note="57" Velocity="0"/>
  </Event>
  <Event>
    <Absolute>29530</Absolute>
    <NoteOn Channel="11" Note="57" Velocity="59"/>
  </Event>
  <Event>
    <Absolute>29533</Absolute>
    <NoteOn Channel="11" Note="42" Velocity="84"/>
  </Event>
  <Event>
    <Absolute>29537</Absolute>
    <NoteOn Channel="11" Note="43" Velocity="0"/>
  </Event>
  <Event>
    <Absolute>29710</Absolute>
    <NoteOn Channel="11" Note="57" Velocity="0"/>
  </Event>
  <Event>
    <Absolute>29773</Absolute>
    <NoteOn Channel="11" Note="57" Velocity="55"/>
  </Event>
  <Event>
    <Absolute>29941</Absolute>
    <NoteOn Channel="11" Note="57" Velocity="0"/>
  </Event>
  <Event>
    <Absolute>30014</Absolute>
    <NoteOn Channel="11" Note="57" Velocity="55"/>
  </Event>
  <Event>
    <Absolute>30169</Absolute>
    <NoteOn Channel="11" Note="57" Velocity="0"/>
  </Event>
  <Event>
    <Absolute>30255</Absolute>
    <NoteOn Channel="11" Note="57" Velocity="55"/>
  </Event>
  <Event>
    <Absolute>30423</Absolute>
    <NoteOn Channel="11" Note="57" Velocity="0"/>
  </Event>
  <Event>
    <Absolute>30491</Absolute>
    <NoteOn Channel="11" Note="38" Velocity="88"/>
  </Event>
  <Event>
    <Absolute>30493</Absolute>
    <NoteOn Channel="11" Note="42" Velocity="0"/>
  </Event>
  <Event>
    <Absolute>30495</Absolute>
    <NoteOn Channel="11" Note="57" Velocity="55"/>
  </Event>
  <Event>
    <Absolute>30671</Absolute>
    <NoteOn Channel="11" Note="57" Velocity="0"/>
  </Event>
  <Event>
    <Absolute>30735</Absolute>
    <NoteOn Channel="11" Note="44" Velocity="84"/>
  </Event>
  <Event>
    <Absolute>30735</Absolute>
    <NoteOn Channel="11" Note="57" Velocity="55"/>
  </Event>
  <Event>
    <Absolute>30741</Absolute>
    <NoteOn Channel="11" Note="38" Velocity="0"/>
  </Event>
  <Event>
    <Absolute>30861</Absolute>
    <NoteOn Channel="11" Note="57" Velocity="0"/>
  </Event>
  <Event>
    <Absolute>30978</Absolute>
    <NoteOn Channel="11" Note="42" Velocity="76"/>
  </Event>
  <Event>
    <Absolute>30980</Absolute>
    <NoteOn Channel="11" Note="44" Velocity="0"/>
  </Event>
  <Event>
    <Absolute>30983</Absolute>
    <NoteOn Channel="11" Note="57" Velocity="63"/>
  </Event>
  <Event>
    <Absolute>31111</Absolute>
    <NoteOn Channel="11" Note="57" Velocity="0"/>
  </Event>
  <Event>
    <Absolute>31216</Absolute>
    <NoteOn Channel="11" Note="57" Velocity="72"/>
  </Event>
  <Event>
    <Absolute>31330</Absolute>
    <NoteOn Channel="11" Note="57" Velocity="0"/>
  </Event>
  <Event>
    <Absolute>31452</Absolute>
    <NoteOn Channel="11" Note="57" Velocity="55"/>
  </Event>
  <Event>
    <Absolute>31570</Absolute>
    <NoteOn Channel="11" Note="57" Velocity="0"/>
  </Event>
  <Event>
    <Absolute>31688</Absolute>
    <NoteOn Channel="11" Note="57" Velocity="55"/>
  </Event>
  <Event>
    <Absolute>31816</Absolute>
    <NoteOn Channel="11" Note="57" Velocity="0"/>
  </Event>
  <Event>
    <Absolute>31911</Absolute>
    <NoteOn Channel="11" Note="38" Velocity="108"/>
  </Event>
  <Event>
    <Absolute>31912</Absolute>
    <NoteOn Channel="11" Note="42" Velocity="0"/>
  </Event>
  <Event>
    <Absolute>31931</Absolute>
    <NoteOn Channel="11" Note="58" Velocity="55"/>
  </Event>
  <Event>
    <Absolute>32880</Absolute>
    <NoteOn Channel="11" Note="57" Velocity="72"/>
  </Event>
  <Event>
    <Absolute>32885</Absolute>
    <NoteOn Channel="11" Note="42" Velocity="88"/>
  </Event>
  <Event>
    <Absolute>32886</Absolute>
    <NoteOn Channel="11" Note="58" Velocity="0"/>
  </Event>
  <Event>
    <Absolute>32891</Absolute>
    <NoteOn Channel="11" Note="38" Velocity="0"/>
  </Event>
  <Event>
    <Absolute>33835</Absolute>
    <NoteOn Channel="11" Note="57" Velocity="0"/>
  </Event>
  <Event>
    <Absolute>33835</Absolute>
    <NoteOn Channel="11" Note="39" Velocity="76"/>
  </Event>
  <Event>
    <Absolute>33836</Absolute>
    <NoteOn Channel="11" Note="59" Velocity="55"/>
  </Event>
  <Event>
    <Absolute>33841</Absolute>
    <NoteOn Channel="11" Note="42" Velocity="0"/>
  </Event>
  <Event>
    <Absolute>34360</Absolute>
    <NoteOn Channel="11" Note="50" Velocity="83"/>
  </Event>
  <Event>
    <Absolute>34387</Absolute>
    <NoteOn Channel="11" Note="50" Velocity="0"/>
  </Event>
  <Event>
    <Absolute>34390</Absolute>
    <NoteOn Channel="11" Note="49" Velocity="106"/>
  </Event>
  <Event>
    <Absolute>34417</Absolute>
    <NoteOn Channel="11" Note="49" Velocity="0"/>
  </Event>
  <Event>
    <Absolute>34420</Absolute>
    <NoteOn Channel="11" Note="46" Velocity="106"/>
  </Event>
  <Event>
    <Absolute>34447</Absolute>
    <NoteOn Channel="11" Note="46" Velocity="0"/>
  </Event>
  <Event>
    <Absolute>34448</Absolute>
    <NoteOn Channel="11" Note="30" Velocity="121"/>
  </Event>
  <Event>
    <Absolute>34450</Absolute>
    <NoteOn Channel="11" Note="45" Velocity="106"/>
  </Event>
  <Event>
    <Absolute>34477</Absolute>
    <NoteOn Channel="11" Note="45" Velocity="0"/>
  </Event>
  <Event>
    <Absolute>34480</Absolute>
    <NoteOn Channel="11" Note="46" Velocity="106"/>
  </Event>
  <Event>
    <Absolute>34484</Absolute>
    <NoteOn Channel="11" Note="30" Velocity="0"/>
  </Event>
  <Event>
    <Absolute>34507</Absolute>
    <NoteOn Channel="11" Note="46" Velocity="0"/>
  </Event>
  <Event>
    <Absolute>34508</Absolute>
    <NoteOn Channel="11" Note="28" Velocity="121"/>
  </Event>
  <Event>
    <Absolute>34510</Absolute>
    <NoteOn Channel="11" Note="49" Velocity="106"/>
  </Event>
  <Event>
    <Absolute>34537</Absolute>
    <NoteOn Channel="11" Note="49" Velocity="0"/>
  </Event>
  <Event>
    <Absolute>34540</Absolute>
    <NoteOn Channel="11" Note="50" Velocity="107"/>
  </Event>
  <Event>
    <Absolute>34556</Absolute>
    <NoteOn Channel="11" Note="28" Velocity="0"/>
  </Event>
  <Event>
    <Absolute>34567</Absolute>
    <NoteOn Channel="11" Note="50" Velocity="0"/>
  </Event>
  <Event>
    <Absolute>34570</Absolute>
    <NoteOn Channel="11" Note="45" Velocity="107"/>
  </Event>
  <Event>
    <Absolute>34597</Absolute>
    <NoteOn Channel="11" Note="45" Velocity="0"/>
  </Event>
  <Event>
    <Absolute>34600</Absolute>
    <NoteOn Channel="11" Note="46" Velocity="107"/>
  </Event>
  <Event>
    <Absolute>34627</Absolute>
    <NoteOn Channel="11" Note="46" Velocity="0"/>
  </Event>
  <Event>
    <Absolute>34630</Absolute>
    <NoteOn Channel="11" Note="49" Velocity="107"/>
  </Event>
  <Event>
    <Absolute>34657</Absolute>
    <NoteOn Channel="11" Note="49" Velocity="0"/>
  </Event>
  <Event>
    <Absolute>34660</Absolute>
    <NoteOn Channel="11" Note="50" Velocity="107"/>
  </Event>
  <Event>
    <Absolute>34687</Absolute>
    <NoteOn Channel="11" Note="50" Velocity="0"/>
  </Event>
  <Event>
    <Absolute>34720</Absolute>
    <NoteOn Channel="11" Note="50" Velocity="85"/>
  </Event>
  <Event>
    <Absolute>34747</Absolute>
    <NoteOn Channel="11" Note="50" Velocity="0"/>
  </Event>
  <Event>
    <Absolute>34750</Absolute>
    <NoteOn Channel="11" Note="49" Velocity="109"/>
  </Event>
  <Event>
    <Absolute>34777</Absolute>
    <NoteOn Channel="11" Note="49" Velocity="0"/>
  </Event>
  <Event>
    <Absolute>34780</Absolute>
    <NoteOn Channel="11" Note="46" Velocity="109"/>
  </Event>
  <Event>
    <Absolute>34789</Absolute>
    <NoteOn Channel="11" Note="59" Velocity="0"/>
  </Event>
  <Event>
    <Absolute>34806</Absolute>
    <NoteOn Channel="11" Note="39" Velocity="0"/>
  </Event>
  <Event>
    <Absolute>34807</Absolute>
    <NoteOn Channel="11" Note="46" Velocity="0"/>
  </Event>
  <Event>
    <Absolute>34808</Absolute>
    <NoteOn Channel="11" Note="30" Velocity="123"/>
  </Event>
  <Event>
    <Absolute>34810</Absolute>
    <NoteOn Channel="11" Note="45" Velocity="109"/>
  </Event>
  <Event>
    <Absolute>34837</Absolute>
    <NoteOn Channel="11" Note="45" Velocity="0"/>
  </Event>
  <Event>
    <Absolute>34840</Absolute>
    <NoteOn Channel="11" Note="46" Velocity="109"/>
  </Event>
  <Event>
    <Absolute>34854</Absolute>
    <NoteOn Channel="11" Note="30" Velocity="0"/>
  </Event>
  <Event>
    <Absolute>34867</Absolute>
    <NoteOn Channel="11" Note="46" Velocity="0"/>
  </Event>
  <Event>
    <Absolute>34870</Absolute>
    <NoteOn Channel="11" Note="49" Velocity="109"/>
  </Event>
  <Event>
    <Absolute>34897</Absolute>
    <NoteOn Channel="11" Note="49" Velocity="0"/>
  </Event>
  <Event>
    <Absolute>34900</Absolute>
    <NoteOn Channel="11" Note="50" Velocity="109"/>
  </Event>
  <Event>
    <Absolute>34927</Absolute>
    <NoteOn Channel="11" Note="50" Velocity="0"/>
  </Event>
  <Event>
    <Absolute>34928</Absolute>
    <NoteOn Channel="11" Note="28" Velocity="124"/>
  </Event>
  <Event>
    <Absolute>34930</Absolute>
    <NoteOn Channel="11" Note="52" Velocity="110"/>
  </Event>
  <Event>
    <Absolute>34957</Absolute>
    <NoteOn Channel="11" Note="52" Velocity="0"/>
  </Event>
  <Event>
    <Absolute>34960</Absolute>
    <NoteOn Channel="11" Note="54" Velocity="110"/>
  </Event>
  <Event>
    <Absolute>34969</Absolute>
    <NoteOn Channel="11" Note="28" Velocity="0"/>
  </Event>
  <Event>
    <Absolute>34987</Absolute>
    <NoteOn Channel="11" Note="54" Velocity="0"/>
  </Event>
  <Event>
    <Absolute>34990</Absolute>
    <NoteOn Channel="11" Note="55" Velocity="110"/>
  </Event>
  <Event>
    <Absolute>35017</Absolute>
    <NoteOn Channel="11" Note="55" Velocity="0"/>
  </Event>
  <Event>
    <Absolute>35020</Absolute>
    <NoteOn Channel="11" Note="57" Velocity="110"/>
  </Event>
  <Event>
    <Absolute>35047</Absolute>
    <NoteOn Channel="11" Note="57" Velocity="0"/>
  </Event>
  <Event>
    <Absolute>35140</Absolute>
    <NoteOn Channel="11" Note="50" Velocity="88"/>
  </Event>
  <Event>
    <Absolute>35167</Absolute>
    <NoteOn Channel="11" Note="50" Velocity="0"/>
  </Event>
  <Event>
    <Absolute>35170</Absolute>
    <NoteOn Channel="11" Note="50" Velocity="113"/>
  </Event>
  <Event>
    <Absolute>35197</Absolute>
    <NoteOn Channel="11" Note="50" Velocity="0"/>
  </Event>
  <Event>
    <Absolute>35200</Absolute>
    <NoteOn Channel="11" Note="52" Velocity="113"/>
  </Event>
  <Event>
    <Absolute>35227</Absolute>
    <NoteOn Channel="11" Note="52" Velocity="0"/>
  </Event>
  <Event>
    <Absolute>35230</Absolute>
    <NoteOn Channel="11" Note="54" Velocity="113"/>
  </Event>
  <Event>
    <Absolute>35257</Absolute>
    <NoteOn Channel="11" Note="54" Velocity="0"/>
  </Event>
  <Event>
    <Absolute>35260</Absolute>
    <NoteOn Channel="11" Note="55" Velocity="88"/>
  </Event>
  <Event>
    <Absolute>35287</Absolute>
    <NoteOn Channel="11" Note="55" Velocity="0"/>
  </Event>
  <Event>
    <Absolute>35288</Absolute>
    <NoteOn Channel="11" Note="30" Velocity="126"/>
  </Event>
  <Event>
    <Absolute>35290</Absolute>
    <NoteOn Channel="11" Note="55" Velocity="113"/>
  </Event>
  <Event>
    <Absolute>35317</Absolute>
    <NoteOn Channel="11" Note="55" Velocity="0"/>
  </Event>
  <Event>
    <Absolute>35320</Absolute>
    <NoteOn Channel="11" Note="57" Velocity="114"/>
  </Event>
  <Event>
    <Absolute>35327</Absolute>
    <NoteOn Channel="11" Note="30" Velocity="0"/>
  </Event>
  <Event>
    <Absolute>35347</Absolute>
    <NoteOn Channel="11" Note="57" Velocity="0"/>
  </Event>
  <Event>
    <Absolute>35348</Absolute>
    <NoteOn Channel="11" Note="28" Velocity="127"/>
  </Event>
  <Event>
    <Absolute>35350</Absolute>
    <NoteOn Channel="11" Note="58" Velocity="114"/>
  </Event>
  <Event>
    <Absolute>35377</Absolute>
    <NoteOn Channel="11" Note="58" Velocity="0"/>
  </Event>
  <Event>
    <Absolute>35380</Absolute>
    <NoteOn Channel="11" Note="60" Velocity="114"/>
  </Event>
  <Event>
    <Absolute>35384</Absolute>
    <NoteOn Channel="11" Note="28" Velocity="0"/>
  </Event>
  <Event>
    <Absolute>35407</Absolute>
    <NoteOn Channel="11" Note="60" Velocity="0"/>
  </Event>
  <Event>
    <Absolute>35440</Absolute>
    <NoteOn Channel="11" Note="61" Velocity="89"/>
  </Event>
  <Event>
    <Absolute>35467</Absolute>
    <NoteOn Channel="11" Note="61" Velocity="0"/>
  </Event>
  <Event>
    <Absolute>35470</Absolute>
    <NoteOn Channel="11" Note="60" Velocity="116"/>
  </Event>
  <Event>
    <Absolute>35497</Absolute>
    <NoteOn Channel="11" Note="60" Velocity="0"/>
  </Event>
  <Event>
    <Absolute>35500</Absolute>
    <NoteOn Channel="11" Note="58" Velocity="116"/>
  </Event>
  <Event>
    <Absolute>35527</Absolute>
    <NoteOn Channel="11" Note="58" Velocity="0"/>
  </Event>
  <Event>
    <Absolute>35528</Absolute>
    <NoteOn Channel="11" Note="30" Velocity="127"/>
  </Event>
  <Event>
    <Absolute>35530</Absolute>
    <NoteOn Channel="11" Note="50" Velocity="116"/>
  </Event>
  <Event>
    <Absolute>35557</Absolute>
    <NoteOn Channel="11" Note="50" Velocity="0"/>
  </Event>
  <Event>
    <Absolute>35569</Absolute>
    <NoteOn Channel="11" Note="30" Velocity="0"/>
  </Event>
  <Event>
    <Absolute>35620</Absolute>
    <NoteOn Channel="11" Note="57" Velocity="91"/>
  </Event>
  <Event>
    <Absolute>35647</Absolute>
    <NoteOn Channel="11" Note="57" Velocity="0"/>
  </Event>
  <Event>
    <Absolute>35648</Absolute>
    <NoteOn Channel="11" Note="28" Velocity="127"/>
  </Event>
  <Event>
    <Absolute>35650</Absolute>
    <NoteOn Channel="11" Note="61" Velocity="116"/>
  </Event>
  <Event>
    <Absolute>35677</Absolute>
    <NoteOn Channel="11" Note="61" Velocity="0"/>
  </Event>
  <Event>
    <Absolute>35680</Absolute>
    <NoteOn Channel="11" Note="60" Velocity="116"/>
  </Event>
  <Event>
    <Absolute>35693</Absolute>
    <NoteOn Channel="11" Note="28" Velocity="0"/>
  </Event>
  <Event>
    <Absolute>35707</Absolute>
    <NoteOn Channel="11" Note="60" Velocity="0"/>
  </Event>
  <Event>
    <Absolute>35710</Absolute>
    <NoteOn Channel="11" Note="58" Velocity="116"/>
  </Event>
  <Event>
    <Absolute>35737</Absolute>
    <NoteOn Channel="11" Note="58" Velocity="0"/>
  </Event>
  <Event>
    <Absolute>35740</Absolute>
    <NoteOn Channel="11" Note="50" Velocity="116"/>
  </Event>
  <Event>
    <Absolute>35767</Absolute>
    <NoteOn Channel="11" Note="50" Velocity="0"/>
  </Event>
  <Event>
    <Absolute>35860</Absolute>
    <NoteOn Channel="11" Note="50" Velocity="93"/>
  </Event>
  <Event>
    <Absolute>35887</Absolute>
    <NoteOn Channel="11" Note="50" Velocity="0"/>
  </Event>
  <Event>
    <Absolute>35890</Absolute>
    <NoteOn Channel="11" Note="50" Velocity="117"/>
  </Event>
  <Event>
    <Absolute>35917</Absolute>
    <NoteOn Channel="11" Note="50" Velocity="0"/>
  </Event>
  <Event>
    <Absolute>35920</Absolute>
    <NoteOn Channel="11" Note="52" Velocity="117"/>
  </Event>
  <Event>
    <Absolute>35947</Absolute>
    <NoteOn Channel="11" Note="52" Velocity="0"/>
  </Event>
  <Event>
    <Absolute>35948</Absolute>
    <NoteOn Channel="11" Note="33" Velocity="127"/>
  </Event>
  <Event>
    <Absolute>35950</Absolute>
    <NoteOn Channel="11" Note="54" Velocity="117"/>
  </Event>
  <Event>
    <Absolute>35977</Absolute>
    <NoteOn Channel="11" Note="54" Velocity="0"/>
  </Event>
  <Event>
    <Absolute>35980</Absolute>
    <NoteOn Channel="11" Note="55" Velocity="117"/>
  </Event>
  <Event>
    <Absolute>35991</Absolute>
    <NoteOn Channel="11" Note="33" Velocity="0"/>
  </Event>
  <Event>
    <Absolute>36007</Absolute>
    <NoteOn Channel="11" Note="55" Velocity="0"/>
  </Event>
  <Event>
    <Absolute>36008</Absolute>
    <NoteOn Channel="11" Note="30" Velocity="127"/>
  </Event>
  <Event>
    <Absolute>36010</Absolute>
    <NoteOn Channel="11" Note="57" Velocity="117"/>
  </Event>
  <Event>
    <Absolute>36037</Absolute>
    <NoteOn Channel="11" Note="57" Velocity="0"/>
  </Event>
  <Event>
    <Absolute>36040</Absolute>
    <NoteOn Channel="11" Note="58" Velocity="117"/>
  </Event>
  <Event>
    <Absolute>36044</Absolute>
    <NoteOn Channel="11" Note="30" Velocity="0"/>
  </Event>
  <Event>
    <Absolute>36067</Absolute>
    <NoteOn Channel="11" Note="58" Velocity="0"/>
  </Event>
  <Event>
    <Absolute>36068</Absolute>
    <NoteOn Channel="11" Note="28" Velocity="127"/>
  </Event>
  <Event>
    <Absolute>36070</Absolute>
    <NoteOn Channel="11" Note="60" Velocity="117"/>
  </Event>
  <Event>
    <Absolute>36097</Absolute>
    <NoteOn Channel="11" Note="60" Velocity="0"/>
  </Event>
  <Event>
    <Absolute>36100</Absolute>
    <NoteOn Channel="11" Note="61" Velocity="117"/>
  </Event>
  <Event>
    <Absolute>36107</Absolute>
    <NoteOn Channel="11" Note="28" Velocity="0"/>
  </Event>
  <Event>
    <Absolute>36127</Absolute>
    <NoteOn Channel="11" Note="61" Velocity="0"/>
  </Event>
  <Event>
    <Absolute>36160</Absolute>
    <NoteOn Channel="11" Note="61" Velocity="95"/>
  </Event>
  <Event>
    <Absolute>36187</Absolute>
    <NoteOn Channel="11" Note="61" Velocity="0"/>
  </Event>
  <Event>
    <Absolute>36190</Absolute>
    <NoteOn Channel="11" Note="60" Velocity="118"/>
  </Event>
  <Event>
    <Absolute>36217</Absolute>
    <NoteOn Channel="11" Note="60" Velocity="0"/>
  </Event>
  <Event>
    <Absolute>36220</Absolute>
    <NoteOn Channel="11" Note="58" Velocity="118"/>
  </Event>
  <Event>
    <Absolute>36247</Absolute>
    <NoteOn Channel="11" Note="58" Velocity="0"/>
  </Event>
  <Event>
    <Absolute>36248</Absolute>
    <NoteOn Channel="11" Note="30" Velocity="127"/>
  </Event>
  <Event>
    <Absolute>36280</Absolute>
    <NoteOn Channel="11" Note="61" Velocity="96"/>
  </Event>
  <Event>
    <Absolute>36304</Absolute>
    <NoteOn Channel="11" Note="30" Velocity="0"/>
  </Event>
  <Event>
    <Absolute>36307</Absolute>
    <NoteOn Channel="11" Note="61" Velocity="0"/>
  </Event>
  <Event>
    <Absolute>36310</Absolute>
    <NoteOn Channel="11" Note="60" Velocity="118"/>
  </Event>
  <Event>
    <Absolute>36337</Absolute>
    <NoteOn Channel="11" Note="60" Velocity="0"/>
  </Event>
  <Event>
    <Absolute>36340</Absolute>
    <NoteOn Channel="11" Note="58" Velocity="118"/>
  </Event>
  <Event>
    <Absolute>36367</Absolute>
    <NoteOn Channel="11" Note="58" Velocity="0"/>
  </Event>
  <Event>
    <Absolute>36368</Absolute>
    <NoteOn Channel="11" Note="28" Velocity="127"/>
  </Event>
  <Event>
    <Absolute>36370</Absolute>
    <NoteOn Channel="11" Note="50" Velocity="118"/>
  </Event>
  <Event>
    <Absolute>36397</Absolute>
    <NoteOn Channel="11" Note="50" Velocity="0"/>
  </Event>
  <Event>
    <Absolute>36412</Absolute>
    <NoteOn Channel="11" Note="28" Velocity="0"/>
  </Event>
  <Event>
    <Absolute>36460</Absolute>
    <NoteOn Channel="11" Note="50" Velocity="97"/>
  </Event>
  <Event>
    <Absolute>36487</Absolute>
    <NoteOn Channel="11" Note="50" Velocity="0"/>
  </Event>
  <Event>
    <Absolute>36490</Absolute>
    <NoteOn Channel="11" Note="55" Velocity="118"/>
  </Event>
  <Event>
    <Absolute>36517</Absolute>
    <NoteOn Channel="11" Note="55" Velocity="0"/>
  </Event>
  <Event>
    <Absolute>36520</Absolute>
    <NoteOn Channel="11" Note="57" Velocity="118"/>
  </Event>
  <Event>
    <Absolute>36547</Absolute>
    <NoteOn Channel="11" Note="57" Velocity="0"/>
  </Event>
  <Event>
    <Absolute>36548</Absolute>
    <NoteOn Channel="11" Note="34" Velocity="127"/>
  </Event>
  <Event>
    <Absolute>36550</Absolute>
    <NoteOn Channel="11" Note="58" Velocity="118"/>
  </Event>
  <Event>
    <Absolute>36577</Absolute>
    <NoteOn Channel="11" Note="58" Velocity="0"/>
  </Event>
  <Event>
    <Absolute>36580</Absolute>
    <NoteOn Channel="11" Note="60" Velocity="119"/>
  </Event>
  <Event>
    <Absolute>36587</Absolute>
    <NoteOn Channel="11" Note="34" Velocity="0"/>
  </Event>
  <Event>
    <Absolute>36607</Absolute>
    <NoteOn Channel="11" Note="60" Velocity="0"/>
  </Event>
  <Event>
    <Absolute>36608</Absolute>
    <NoteOn Channel="11" Note="33" Velocity="127"/>
  </Event>
  <Event>
    <Absolute>36648</Absolute>
    <NoteOn Channel="11" Note="33" Velocity="0"/>
  </Event>
  <Event>
    <Absolute>36668</Absolute>
    <NoteOn Channel="11" Note="31" Velocity="127"/>
  </Event>
  <Event>
    <Absolute>36670</Absolute>
    <NoteOn Channel="11" Note="55" Velocity="119"/>
  </Event>
  <Event>
    <Absolute>36697</Absolute>
    <NoteOn Channel="11" Note="55" Velocity="0"/>
  </Event>
  <Event>
    <Absolute>36700</Absolute>
    <NoteOn Channel="11" Note="31" Velocity="0"/>
  </Event>
  <Event>
    <Absolute>36700</Absolute>
    <NoteOn Channel="11" Note="57" Velocity="119"/>
  </Event>
  <Event>
    <Absolute>36727</Absolute>
    <NoteOn Channel="11" Note="57" Velocity="0"/>
  </Event>
  <Event>
    <Absolute>36728</Absolute>
    <NoteOn Channel="11" Note="30" Velocity="127"/>
  </Event>
  <Event>
    <Absolute>36730</Absolute>
    <NoteOn Channel="11" Note="58" Velocity="119"/>
  </Event>
  <Event>
    <Absolute>36757</Absolute>
    <NoteOn Channel="11" Note="58" Velocity="0"/>
  </Event>
  <Event>
    <Absolute>36760</Absolute>
    <NoteOn Channel="11" Note="60" Velocity="119"/>
  </Event>
  <Event>
    <Absolute>36767</Absolute>
    <NoteOn Channel="11" Note="30" Velocity="0"/>
  </Event>
  <Event>
    <Absolute>36787</Absolute>
    <NoteOn Channel="11" Note="60" Velocity="0"/>
  </Event>
  <Event>
    <Absolute>36788</Absolute>
    <NoteOn Channel="11" Note="28" Velocity="127"/>
  </Event>
  <Event>
    <Absolute>36790</Absolute>
    <NoteOn Channel="11" Note="61" Velocity="119"/>
  </Event>
  <Event>
    <Absolute>36817</Absolute>
    <NoteOn Channel="11" Note="61" Velocity="0"/>
  </Event>
  <Event>
    <Absolute>36820</Absolute>
    <NoteOn Channel="11" Note="63" Velocity="119"/>
  </Event>
  <Event>
    <Absolute>36829</Absolute>
    <NoteOn Channel="11" Note="28" Velocity="0"/>
  </Event>
  <Event>
    <Absolute>36847</Absolute>
    <NoteOn Channel="11" Note="63" Velocity="0"/>
  </Event>
  <Event>
    <Absolute>36850</Absolute>
    <NoteOn Channel="11" Note="34" Velocity="127"/>
  </Event>
  <Event>
    <Absolute>37193</Absolute>
    <NoteOn Channel="11" Note="34" Velocity="0"/>
  </Event>
  <Event>
    <Absolute>37210</Absolute>
    <NoteOn Channel="11" Note="39" Velocity="112"/>
  </Event>
  <Event>
    <Absolute>37275</Absolute>
    <NoteOn Channel="11" Note="39" Velocity="0"/>
  </Event>
  <Event>
    <Absolute>37330</Absolute>
    <NoteOn Channel="11" Note="34" Velocity="112"/>
  </Event>
  <Event>
    <Absolute>37685</Absolute>
    <NoteOn Channel="11" Note="34" Velocity="0"/>
  </Event>
  <Event>
    <Absolute>37690</Absolute>
    <NoteOn Channel="11" Note="39" Velocity="112"/>
  </Event>
  <Event>
    <Absolute>37767</Absolute>
    <NoteOn Channel="11" Note="39" Velocity="0"/>
  </Event>
  <Event>
    <Absolute>37810</Absolute>
    <NoteOn Channel="11" Note="31" Velocity="112"/>
  </Event>
  <Event>
    <Absolute>38168</Absolute>
    <NoteOn Channel="11" Note="31" Velocity="0"/>
  </Event>
  <Event>
    <Absolute>38170</Absolute>
    <NoteOn Channel="11" Note="41" Velocity="112"/>
  </Event>
  <Event>
    <Absolute>38244</Absolute>
    <NoteOn Channel="11" Note="41" Velocity="0"/>
  </Event>
  <Event>
    <Absolute>38290</Absolute>
    <NoteOn Channel="11" Note="31" Velocity="112"/>
  </Event>
  <Event>
    <Absolute>38650</Absolute>
    <NoteOn Channel="11" Note="41" Velocity="112"/>
  </Event>
  <Event>
    <Absolute>38660</Absolute>
    <NoteOn Channel="11" Note="31" Velocity="0"/>
  </Event>
  <Event>
    <Absolute>38711</Absolute>
    <NoteOn Channel="11" Note="41" Velocity="0"/>
  </Event>
  <Event>
    <Absolute>38775</Absolute>
    <NoteOn Channel="11" Note="29" Velocity="89"/>
  </Event>
  <Event>
    <Absolute>38775</Absolute>
    <NoteOn Channel="11" Note="50" Velocity="88"/>
  </Event>
  <Event>
    <Absolute>38890</Absolute>
    <NoteOn Channel="11" Note="51" Velocity="91"/>
  </Event>
  <Event>
    <Absolute>38890</Absolute>
    <NoteOn Channel="11" Note="30" Velocity="91"/>
  </Event>
  <Event>
    <Absolute>38905</Absolute>
    <NoteOn Channel="11" Note="50" Velocity="0"/>
  </Event>
  <Event>
    <Absolute>38905</Absolute>
    <NoteOn Channel="11" Note="29" Velocity="0"/>
  </Event>
  <Event>
    <Absolute>39245</Absolute>
    <NoteOn Channel="11" Note="51" Velocity="0"/>
  </Event>
  <Event>
    <Absolute>39245</Absolute>
    <NoteOn Channel="11" Note="30" Velocity="0"/>
  </Event>
  <Event>
    <Absolute>39255</Absolute>
    <NoteOn Channel="11" Note="31" Velocity="95"/>
  </Event>
  <Event>
    <Absolute>39255</Absolute>
    <NoteOn Channel="11" Note="52" Velocity="95"/>
  </Event>
  <Event>
    <Absolute>39490</Absolute>
    <NoteOn Channel="11" Note="52" Velocity="0"/>
  </Event>
  <Event>
    <Absolute>39490</Absolute>
    <NoteOn Channel="11" Note="31" Velocity="0"/>
  </Event>
  <Event>
    <Absolute>39490</Absolute>
    <NoteOn Channel="11" Note="51" Velocity="97"/>
  </Event>
  <Event>
    <Absolute>39490</Absolute>
    <NoteOn Channel="11" Note="30" Velocity="97"/>
  </Event>
  <Event>
    <Absolute>39610</Absolute>
    <NoteOn Channel="11" Note="31" Velocity="99"/>
  </Event>
  <Event>
    <Absolute>39610</Absolute>
    <NoteOn Channel="11" Note="52" Velocity="99"/>
  </Event>
  <Event>
    <Absolute>39615</Absolute>
    <NoteOn Channel="11" Note="30" Velocity="0"/>
  </Event>
  <Event>
    <Absolute>39615</Absolute>
    <NoteOn Channel="11" Note="51" Velocity="0"/>
  </Event>
  <Event>
    <Absolute>39736</Absolute>
    <NoteOn Channel="11" Note="42" Velocity="101"/>
  </Event>
  <Event>
    <Absolute>39740</Absolute>
    <NoteOn Channel="11" Note="31" Velocity="0"/>
  </Event>
  <Event>
    <Absolute>39740</Absolute>
    <NoteOn Channel="11" Note="52" Velocity="0"/>
  </Event>
  <Event>
    <Absolute>39741</Absolute>
    <NoteOn Channel="11" Note="51" Velocity="92"/>
  </Event>
  <Event>
    <Absolute>39860</Absolute>
    <NoteOn Channel="11" Note="52" Velocity="86"/>
  </Event>
  <Event>
    <Absolute>39860</Absolute>
    <NoteOn Channel="11" Note="43" Velocity="101"/>
  </Event>
  <Event>
    <Absolute>39864</Absolute>
    <NoteOn Channel="11" Note="42" Velocity="0"/>
  </Event>
  <Event>
    <Absolute>39869</Absolute>
    <NoteOn Channel="11" Note="51" Velocity="0"/>
  </Event>
  <Event>
    <Absolute>39968</Absolute>
    <NoteOn Channel="11" Note="51" Velocity="71"/>
  </Event>
  <Event>
    <Absolute>39973</Absolute>
    <NoteOn Channel="11" Note="42" Velocity="97"/>
  </Event>
  <Event>
    <Absolute>39993</Absolute>
    <NoteOn Channel="11" Note="52" Velocity="0"/>
  </Event>
  <Event>
    <Absolute>39993</Absolute>
    <NoteOn Channel="11" Note="43" Velocity="0"/>
  </Event>
  <Event>
    <Absolute>40081</Absolute>
    <NoteOn Channel="11" Note="52" Velocity="106"/>
  </Event>
  <Event>
    <Absolute>40086</Absolute>
    <NoteOn Channel="11" Note="43" Velocity="106"/>
  </Event>
  <Event>
    <Absolute>40099</Absolute>
    <NoteOn Channel="11" Note="51" Velocity="0"/>
  </Event>
  <Event>
    <Absolute>40104</Absolute>
    <NoteOn Channel="11" Note="42" Velocity="0"/>
  </Event>
  <Event>
    <Absolute>40199</Absolute>
    <NoteOn Channel="11" Note="51" Velocity="106"/>
  </Event>
  <Event>
    <Absolute>40209</Absolute>
    <NoteOn Channel="11" Note="43" Velocity="0"/>
  </Event>
  <Event>
    <Absolute>40214</Absolute>
    <NoteOn Channel="11" Note="42" Velocity="106"/>
  </Event>
  <Event>
    <Absolute>40231</Absolute>
    <NoteOn Channel="11" Note="52" Velocity="0"/>
  </Event>
  <Event>
    <Absolute>40324</Absolute>
    <NoteOn Channel="11" Note="52" Velocity="108"/>
  </Event>
  <Event>
    <Absolute>40334</Absolute>
    <NoteOn Channel="11" Note="43" Velocity="108"/>
  </Event>
  <Event>
    <Absolute>40335</Absolute>
    <NoteOn Channel="11" Note="42" Velocity="0"/>
  </Event>
  <Event>
    <Absolute>40358</Absolute>
    <NoteOn Channel="11" Note="51" Velocity="0"/>
  </Event>
  <Event>
    <Absolute>40441</Absolute>
    <NoteOn Channel="11" Note="51" Velocity="110"/>
  </Event>
  <Event>
    <Absolute>40450</Absolute>
    <NoteOn Channel="11" Note="52" Velocity="0"/>
  </Event>
  <Event>
    <Absolute>40451</Absolute>
    <NoteOn Channel="11" Note="42" Velocity="110"/>
  </Event>
  <Event>
    <Absolute>40460</Absolute>
    <NoteOn Channel="11" Note="43" Velocity="0"/>
  </Event>
  <Event>
    <Absolute>40560</Absolute>
    <NoteOn Channel="11" Note="52" Velocity="110"/>
  </Event>
  <Event>
    <Absolute>40570</Absolute>
    <NoteOn Channel="11" Note="43" Velocity="110"/>
  </Event>
  <Event>
    <Absolute>40578</Absolute>
    <NoteOn Channel="11" Note="51" Velocity="0"/>
  </Event>
  <Event>
    <Absolute>40588</Absolute>
    <NoteOn Channel="11" Note="42" Velocity="0"/>
  </Event>
  <Event>
    <Absolute>40676</Absolute>
    <NoteOn Channel="11" Note="52" Velocity="0"/>
  </Event>
  <Event>
    <Absolute>40686</Absolute>
    <NoteOn Channel="11" Note="43" Velocity="0"/>
  </Event>
  <Event>
    <Absolute>40690</Absolute>
    <NoteOn Channel="11" Note="47" Velocity="90"/>
  </Event>
  <Event>
    <Absolute>40690</Absolute>
    <NoteOn Channel="11" Note="40" Velocity="95"/>
  </Event>
  <Event>
    <Absolute>40818</Absolute>
    <NoteOn Channel="11" Note="51" Velocity="95"/>
  </Event>
  <Event>
    <Absolute>40827</Absolute>
    <NoteOn Channel="11" Note="47" Velocity="0"/>
  </Event>
  <Event>
    <Absolute>40940</Absolute>
    <NoteOn Channel="11" Note="54" Velocity="99"/>
  </Event>
  <Event>
    <Absolute>40948</Absolute>
    <NoteOn Channel="11" Note="51" Velocity="0"/>
  </Event>
  <Event>
    <Absolute>41057</Absolute>
    <NoteOn Channel="11" Note="56" Velocity="104"/>
  </Event>
  <Event>
    <Absolute>41080</Absolute>
    <NoteOn Channel="11" Note="54" Velocity="0"/>
  </Event>
  <Event>
    <Absolute>41178</Absolute>
    <NoteOn Channel="11" Note="58" Velocity="110"/>
  </Event>
  <Event>
    <Absolute>41185</Absolute>
    <NoteOn Channel="11" Note="56" Velocity="0"/>
  </Event>
  <Event>
    <Absolute>41406</Absolute>
    <NoteOn Channel="11" Note="58" Velocity="0"/>
  </Event>
  <Event>
    <Absolute>41410</Absolute>
    <NoteOn Channel="11" Note="61" Velocity="109"/>
  </Event>
  <Event>
    <Absolute>41411</Absolute>
    <NoteOn Channel="11" Note="70" Velocity="92"/>
  </Event>
  <Event>
    <Absolute>41435</Absolute>
    <NoteOn Channel="11" Note="68" Velocity="95"/>
  </Event>
  <Event>
    <Absolute>41442</Absolute>
    <NoteOn Channel="11" Note="70" Velocity="0"/>
  </Event>
  <Event>
    <Absolute>41455</Absolute>
    <NoteOn Channel="11" Note="66" Velocity="96"/>
  </Event>
  <Event>
    <Absolute>41462</Absolute>
    <NoteOn Channel="11" Note="68" Velocity="0"/>
  </Event>
  <Event>
    <Absolute>41471</Absolute>
    <NoteOn Channel="11" Note="64" Velocity="98"/>
  </Event>
  <Event>
    <Absolute>41474</Absolute>
    <NoteOn Channel="11" Note="66" Velocity="0"/>
  </Event>
  <Event>
    <Absolute>41486</Absolute>
    <NoteOn Channel="11" Note="64" Velocity="0"/>
  </Event>
  <Event>
    <Absolute>41491</Absolute>
    <NoteOn Channel="11" Note="63" Velocity="98"/>
  </Event>
  <Event>
    <Absolute>41511</Absolute>
    <NoteOn Channel="11" Note="63" Velocity="0"/>
  </Event>
  <Event>
    <Absolute>41511</Absolute>
    <NoteOn Channel="11" Note="61" Velocity="98"/>
  </Event>
  <Event>
    <Absolute>41529</Absolute>
    <NoteOn Channel="11" Note="61" Velocity="0"/>
  </Event>
  <Event>
    <Absolute>41530</Absolute>
    <NoteOn Channel="11" Note="63" Velocity="112"/>
  </Event>
  <Event>
    <Absolute>41531</Absolute>
    <NoteOn Channel="11" Note="59" Velocity="98"/>
  </Event>
  <Event>
    <Absolute>41550</Absolute>
    <NoteOn Channel="11" Note="59" Velocity="0"/>
  </Event>
  <Event>
    <Absolute>41551</Absolute>
    <NoteOn Channel="11" Note="58" Velocity="98"/>
  </Event>
  <Event>
    <Absolute>41571</Absolute>
    <NoteOn Channel="11" Note="56" Velocity="98"/>
  </Event>
  <Event>
    <Absolute>41576</Absolute>
    <NoteOn Channel="11" Note="58" Velocity="0"/>
  </Event>
  <Event>
    <Absolute>41591</Absolute>
    <NoteOn Channel="11" Note="54" Velocity="98"/>
  </Event>
  <Event>
    <Absolute>41597</Absolute>
    <NoteOn Channel="11" Note="56" Velocity="0"/>
  </Event>
  <Event>
    <Absolute>41610</Absolute>
    <NoteOn Channel="11" Note="52" Velocity="98"/>
  </Event>
  <Event>
    <Absolute>41611</Absolute>
    <NoteOn Channel="11" Note="61" Velocity="0"/>
  </Event>
  <Event>
    <Absolute>41611</Absolute>
    <NoteOn Channel="11" Note="54" Velocity="0"/>
  </Event>
  <Event>
    <Absolute>41630</Absolute>
    <NoteOn Channel="11" Note="51" Velocity="98"/>
  </Event>
  <Event>
    <Absolute>41632</Absolute>
    <NoteOn Channel="11" Note="52" Velocity="0"/>
  </Event>
  <Event>
    <Absolute>41645</Absolute>
    <NoteOn Channel="11" Note="62" Velocity="114"/>
  </Event>
  <Event>
    <Absolute>41650</Absolute>
    <NoteOn Channel="11" Note="63" Velocity="0"/>
  </Event>
  <Event>
    <Absolute>41650</Absolute>
    <NoteOn Channel="11" Note="46" Velocity="110"/>
  </Event>
  <Event>
    <Absolute>41651</Absolute>
    <NoteOn Channel="11" Note="50" Velocity="98"/>
  </Event>
  <Event>
    <Absolute>41653</Absolute>
    <NoteOn Channel="11" Note="51" Velocity="0"/>
  </Event>
  <Event>
    <Absolute>41655</Absolute>
    <NoteOn Channel="11" Note="34" Velocity="61"/>
  </Event>
  <Event>
    <Absolute>41660</Absolute>
    <NoteOn Channel="11" Note="40" Velocity="0"/>
  </Event>
  <Event>
    <Absolute>41661</Absolute>
    <NoteOn Channel="11" Note="53" Velocity="110"/>
  </Event>
  <Event>
    <Absolute>41770</Absolute>
    <NoteOn Channel="11" Note="62" Velocity="0"/>
  </Event>
  <Event>
    <Absolute>41772</Absolute>
    <NoteOn Channel="11" Note="58" Velocity="103"/>
  </Event>
  <Event>
    <Absolute>41882</Absolute>
    <NoteOn Channel="11" Note="50" Velocity="0"/>
  </Event>
  <Event>
    <Absolute>42012</Absolute>
    <NoteOn Channel="11" Note="62" Velocity="104"/>
  </Event>
  <Event>
    <Absolute>42020</Absolute>
    <NoteOn Channel="11" Note="58" Velocity="0"/>
  </Event>
  <Event>
    <Absolute>42110</Absolute>
    <NoteOn Channel="11" Note="34" Velocity="0"/>
  </Event>
  <Event>
    <Absolute>42130</Absolute>
    <NoteOn Channel="11" Note="60" Velocity="105"/>
  </Event>
  <Event>
    <Absolute>42132</Absolute>
    <NoteOn Channel="11" Note="62" Velocity="0"/>
  </Event>
  <Event>
    <Absolute>42235</Absolute>
    <NoteOn Channel="11" Note="53" Velocity="0"/>
  </Event>
  <Event>
    <Absolute>42247</Absolute>
    <NoteOn Channel="11" Note="65" Velocity="105"/>
  </Event>
  <Event>
    <Absolute>42276</Absolute>
    <NoteOn Channel="11" Note="60" Velocity="0"/>
  </Event>
  <Event>
    <Absolute>42373</Absolute>
    <NoteOn Channel="11" Note="67" Velocity="95"/>
  </Event>
  <Event>
    <Absolute>42491</Absolute>
    <NoteOn Channel="11" Note="60" Velocity="106"/>
  </Event>
  <Event>
    <Absolute>42605</Absolute>
    <NoteOn Channel="11" Note="46" Velocity="0"/>
  </Event>
  <Event>
    <Absolute>42605</Absolute>
    <NoteOn Channel="11" Note="34" Velocity="96"/>
  </Event>
  <Event>
    <Absolute>42608</Absolute>
    <NoteOn Channel="11" Note="68" Velocity="79"/>
  </Event>
  <Event>
    <Absolute>43084</Absolute>
    <NoteOn Channel="11" Note="68" Velocity="0"/>
  </Event>
  <Event>
    <Absolute>43085</Absolute>
    <NoteOn Channel="11" Note="67" Velocity="0"/>
  </Event>
  <Event>
    <Absolute>43090</Absolute>
    <NoteOn Channel="11" Note="34" Velocity="0"/>
  </Event>
  <Event>
    <Absolute>43094</Absolute>
    <NoteOn Channel="11" Note="60" Velocity="0"/>
  </Event>
  <Event>
    <Absolute>43100</Absolute>
    <NoteOn Channel="11" Note="65" Velocity="0"/>
  </Event>
  <Event>
    <Absolute>43103</Absolute>
    <NoteOn Channel="11" Note="38" Velocity="88"/>
  </Event>
  <Event>
    <Absolute>43106</Absolute>
    <NoteOn Channel="11" Note="26" Velocity="98"/>
  </Event>
  <Event>
    <Absolute>45003</Absolute>
    <NoteOn Channel="11" Note="38" Velocity="0"/>
  </Event>
  <Event>
    <Absolute>45010</Absolute>
    <NoteOn Channel="11" Note="26" Velocity="0"/>
  </Event>
  <Event>
    <Absolute>45125</Absolute>
    <NoteOn Channel="11" Note="38" Velocity="106"/>
  </Event>
  <Event>
    <Absolute>45154</Absolute>
    <NoteOn Channel="11" Note="38" Velocity="0"/>
  </Event>
  <Event>
    <Absolute>45165</Absolute>
    <NoteOn Channel="11" Note="38" Velocity="106"/>
  </Event>
  <Event>
    <Absolute>45192</Absolute>
    <NoteOn Channel="11" Note="38" Velocity="0"/>
  </Event>
  <Event>
    <Absolute>45206</Absolute>
    <NoteOn Channel="11" Note="38" Velocity="106"/>
  </Event>
  <Event>
    <Absolute>45232</Absolute>
    <NoteOn Channel="11" Note="38" Velocity="0"/>
  </Event>
  <Event>
    <Absolute>45246</Absolute>
    <NoteOn Channel="11" Note="38" Velocity="106"/>
  </Event>
  <Event>
    <Absolute>45307</Absolute>
    <NoteOn Channel="11" Note="38" Velocity="0"/>
  </Event>
  <Event>
    <Absolute>45307</Absolute>
    <EndOfTrack/>
  </Event>
</Track>
<Track Number="10">
  <Event>
    <Absolute>0</Absolute>
    <MIDIChannelPrefix Value="01"/>
  </Event>
  <Event>
    <Absolute>0</Absolute>
    <ProgramChange Channel="12" Number="44"/>
  </Event>
  <Event>
    <Absolute>0</Absolute>
    <ControlChange Channel="12" Control="7" Value="124"/>
  </Event>
  <Event>
    <Absolute>0</Absolute>
    <ControlChange Channel="12" Control="10" Value="83"/>
  </Event>
  <Event>
    <Absolute>15</Absolute>
    <ControlChange Channel="12" Control="18" Value="64"/>
  </Event>
  <Event>
    <Absolute>20731</Absolute>
    <NoteOn Channel="12" Note="43" Velocity="127"/>
  </Event>
  <Event>
    <Absolute>20731</Absolute>
    <NoteOn Channel="12" Note="31" Velocity="127"/>
  </Event>
  <Event>
    <Absolute>20742</Absolute>
    <NoteOn Channel="12" Note="31" Velocity="0"/>
  </Event>
  <Event>
    <Absolute>20742</Absolute>
    <NoteOn Channel="12" Note="43" Velocity="0"/>
  </Event>
  <Event>
    <Absolute>20750</Absolute>
    <NoteOn Channel="12" Note="43" Velocity="127"/>
  </Event>
  <Event>
    <Absolute>20750</Absolute>
    <NoteOn Channel="12" Note="31" Velocity="127"/>
  </Event>
  <Event>
    <Absolute>20763</Absolute>
    <NoteOn Channel="12" Note="31" Velocity="0"/>
  </Event>
  <Event>
    <Absolute>20763</Absolute>
    <NoteOn Channel="12" Note="43" Velocity="0"/>
  </Event>
  <Event>
    <Absolute>20771</Absolute>
    <NoteOn Channel="12" Note="43" Velocity="127"/>
  </Event>
  <Event>
    <Absolute>20771</Absolute>
    <NoteOn Channel="12" Note="31" Velocity="127"/>
  </Event>
  <Event>
    <Absolute>20773</Absolute>
    <NoteOn Channel="12" Note="50" Velocity="127"/>
  </Event>
  <Event>
    <Absolute>20782</Absolute>
    <NoteOn Channel="12" Note="31" Velocity="0"/>
  </Event>
  <Event>
    <Absolute>20782</Absolute>
    <NoteOn Channel="12" Note="43" Velocity="0"/>
  </Event>
  <Event>
    <Absolute>20783</Absolute>
    <NoteOn Channel="12" Note="50" Velocity="0"/>
  </Event>
  <Event>
    <Absolute>20790</Absolute>
    <NoteOn Channel="12" Note="43" Velocity="127"/>
  </Event>
  <Event>
    <Absolute>20790</Absolute>
    <NoteOn Channel="12" Note="31" Velocity="127"/>
  </Event>
  <Event>
    <Absolute>20793</Absolute>
    <NoteOn Channel="12" Note="50" Velocity="127"/>
  </Event>
  <Event>
    <Absolute>20803</Absolute>
    <NoteOn Channel="12" Note="31" Velocity="0"/>
  </Event>
  <Event>
    <Absolute>20803</Absolute>
    <NoteOn Channel="12" Note="43" Velocity="0"/>
  </Event>
  <Event>
    <Absolute>20806</Absolute>
    <NoteOn Channel="12" Note="50" Velocity="0"/>
  </Event>
  <Event>
    <Absolute>20810</Absolute>
    <NoteOn Channel="12" Note="43" Velocity="127"/>
  </Event>
  <Event>
    <Absolute>20810</Absolute>
    <NoteOn Channel="12" Note="31" Velocity="127"/>
  </Event>
  <Event>
    <Absolute>20813</Absolute>
    <NoteOn Channel="12" Note="50" Velocity="127"/>
  </Event>
  <Event>
    <Absolute>20822</Absolute>
    <NoteOn Channel="12" Note="31" Velocity="0"/>
  </Event>
  <Event>
    <Absolute>20822</Absolute>
    <NoteOn Channel="12" Note="43" Velocity="0"/>
  </Event>
  <Event>
    <Absolute>20824</Absolute>
    <NoteOn Channel="12" Note="50" Velocity="0"/>
  </Event>
  <Event>
    <Absolute>20830</Absolute>
    <NoteOn Channel="12" Note="43" Velocity="127"/>
  </Event>
  <Event>
    <Absolute>20830</Absolute>
    <NoteOn Channel="12" Note="31" Velocity="127"/>
  </Event>
  <Event>
    <Absolute>20832</Absolute>
    <NoteOn Channel="12" Note="50" Velocity="127"/>
  </Event>
  <Event>
    <Absolute>20843</Absolute>
    <NoteOn Channel="12" Note="31" Velocity="0"/>
  </Event>
  <Event>
    <Absolute>20843</Absolute>
    <NoteOn Channel="12" Note="43" Velocity="0"/>
  </Event>
  <Event>
    <Absolute>20845</Absolute>
    <NoteOn Channel="12" Note="50" Velocity="0"/>
  </Event>
  <Event>
    <Absolute>20895</Absolute>
    <NoteOn Channel="12" Note="36" Velocity="127"/>
  </Event>
  <Event>
    <Absolute>20955</Absolute>
    <NoteOn Channel="12" Note="55" Velocity="106"/>
  </Event>
  <Event>
    <Absolute>20957</Absolute>
    <NoteOn Channel="12" Note="51" Velocity="127"/>
  </Event>
  <Event>
    <Absolute>20962</Absolute>
    <NoteOn Channel="12" Note="55" Velocity="0"/>
  </Event>
  <Event>
    <Absolute>20964</Absolute>
    <NoteOn Channel="12" Note="51" Velocity="0"/>
  </Event>
  <Event>
    <Absolute>20975</Absolute>
    <NoteOn Channel="12" Note="55" Velocity="92"/>
  </Event>
  <Event>
    <Absolute>20977</Absolute>
    <NoteOn Channel="12" Note="51" Velocity="106"/>
  </Event>
  <Event>
    <Absolute>20981</Absolute>
    <NoteOn Channel="12" Note="55" Velocity="0"/>
  </Event>
  <Event>
    <Absolute>20981</Absolute>
    <NoteOn Channel="12" Note="36" Velocity="0"/>
  </Event>
  <Event>
    <Absolute>20982</Absolute>
    <NoteOn Channel="12" Note="51" Velocity="0"/>
  </Event>
  <Event>
    <Absolute>20991</Absolute>
    <NoteOn Channel="12" Note="51" Velocity="106"/>
  </Event>
  <Event>
    <Absolute>20993</Absolute>
    <NoteOn Channel="12" Note="55" Velocity="83"/>
  </Event>
  <Event>
    <Absolute>21003</Absolute>
    <NoteOn Channel="12" Note="55" Velocity="0"/>
  </Event>
  <Event>
    <Absolute>21006</Absolute>
    <NoteOn Channel="12" Note="51" Velocity="0"/>
  </Event>
  <Event>
    <Absolute>21013</Absolute>
    <NoteOn Channel="12" Note="47" Velocity="119"/>
  </Event>
  <Event>
    <Absolute>21013</Absolute>
    <NoteOn Channel="12" Note="56" Velocity="127"/>
  </Event>
  <Event>
    <Absolute>21022</Absolute>
    <NoteOn Channel="12" Note="56" Velocity="0"/>
  </Event>
  <Event>
    <Absolute>21025</Absolute>
    <NoteOn Channel="12" Note="47" Velocity="0"/>
  </Event>
  <Event>
    <Absolute>21033</Absolute>
    <NoteOn Channel="12" Note="56" Velocity="106"/>
  </Event>
  <Event>
    <Absolute>21036</Absolute>
    <NoteOn Channel="12" Note="47" Velocity="106"/>
  </Event>
  <Event>
    <Absolute>21040</Absolute>
    <NoteOn Channel="12" Note="56" Velocity="0"/>
  </Event>
  <Event>
    <Absolute>21046</Absolute>
    <NoteOn Channel="12" Note="47" Velocity="0"/>
  </Event>
  <Event>
    <Absolute>21052</Absolute>
    <NoteOn Channel="12" Note="56" Velocity="92"/>
  </Event>
  <Event>
    <Absolute>21054</Absolute>
    <NoteOn Channel="12" Note="47" Velocity="106"/>
  </Event>
  <Event>
    <Absolute>21063</Absolute>
    <NoteOn Channel="12" Note="47" Velocity="0"/>
  </Event>
  <Event>
    <Absolute>21065</Absolute>
    <NoteOn Channel="12" Note="56" Velocity="0"/>
  </Event>
  <Event>
    <Absolute>21073</Absolute>
    <NoteOn Channel="12" Note="53" Velocity="106"/>
  </Event>
  <Event>
    <Absolute>21075</Absolute>
    <NoteOn Channel="12" Note="50" Velocity="119"/>
  </Event>
  <Event>
    <Absolute>21083</Absolute>
    <NoteOn Channel="12" Note="53" Velocity="0"/>
  </Event>
  <Event>
    <Absolute>21085</Absolute>
    <NoteOn Channel="12" Note="50" Velocity="0"/>
  </Event>
  <Event>
    <Absolute>21093</Absolute>
    <NoteOn Channel="12" Note="53" Velocity="83"/>
  </Event>
  <Event>
    <Absolute>21096</Absolute>
    <NoteOn Channel="12" Note="50" Velocity="92"/>
  </Event>
  <Event>
    <Absolute>21103</Absolute>
    <NoteOn Channel="12" Note="53" Velocity="0"/>
  </Event>
  <Event>
    <Absolute>21104</Absolute>
    <NoteOn Channel="12" Note="50" Velocity="0"/>
  </Event>
  <Event>
    <Absolute>21112</Absolute>
    <NoteOn Channel="12" Note="53" Velocity="106"/>
  </Event>
  <Event>
    <Absolute>21114</Absolute>
    <NoteOn Channel="12" Note="50" Velocity="89"/>
  </Event>
  <Event>
    <Absolute>21121</Absolute>
    <NoteOn Channel="12" Note="53" Velocity="0"/>
  </Event>
  <Event>
    <Absolute>21127</Absolute>
    <NoteOn Channel="12" Note="50" Velocity="0"/>
  </Event>
  <Event>
    <Absolute>21142</Absolute>
    <NoteOn Channel="12" Note="36" Velocity="127"/>
  </Event>
  <Event>
    <Absolute>21193</Absolute>
    <NoteOn Channel="12" Note="55" Velocity="106"/>
  </Event>
  <Event>
    <Absolute>21197</Absolute>
    <NoteOn Channel="12" Note="63" Velocity="127"/>
  </Event>
  <Event>
    <Absolute>21202</Absolute>
    <NoteOn Channel="12" Note="55" Velocity="0"/>
  </Event>
  <Event>
    <Absolute>21205</Absolute>
    <NoteOn Channel="12" Note="63" Velocity="0"/>
  </Event>
  <Event>
    <Absolute>21211</Absolute>
    <NoteOn Channel="12" Note="55" Velocity="127"/>
  </Event>
  <Event>
    <Absolute>21212</Absolute>
    <NoteOn Channel="12" Note="36" Velocity="0"/>
  </Event>
  <Event>
    <Absolute>21217</Absolute>
    <NoteOn Channel="12" Note="63" Velocity="106"/>
  </Event>
  <Event>
    <Absolute>21221</Absolute>
    <NoteOn Channel="12" Note="55" Velocity="0"/>
  </Event>
  <Event>
    <Absolute>21223</Absolute>
    <NoteOn Channel="12" Note="63" Velocity="0"/>
  </Event>
  <Event>
    <Absolute>21231</Absolute>
    <NoteOn Channel="12" Note="55" Velocity="119"/>
  </Event>
  <Event>
    <Absolute>21235</Absolute>
    <NoteOn Channel="12" Note="63" Velocity="106"/>
  </Event>
  <Event>
    <Absolute>21241</Absolute>
    <NoteOn Channel="12" Note="55" Velocity="0"/>
  </Event>
  <Event>
    <Absolute>21244</Absolute>
    <NoteOn Channel="12" Note="63" Velocity="0"/>
  </Event>
  <Event>
    <Absolute>21253</Absolute>
    <NoteOn Channel="12" Note="51" Velocity="119"/>
  </Event>
  <Event>
    <Absolute>21255</Absolute>
    <NoteOn Channel="12" Note="62" Velocity="106"/>
  </Event>
  <Event>
    <Absolute>21261</Absolute>
    <NoteOn Channel="12" Note="51" Velocity="0"/>
  </Event>
  <Event>
    <Absolute>21264</Absolute>
    <NoteOn Channel="12" Note="62" Velocity="0"/>
  </Event>
  <Event>
    <Absolute>21273</Absolute>
    <NoteOn Channel="12" Note="51" Velocity="127"/>
  </Event>
  <Event>
    <Absolute>21275</Absolute>
    <NoteOn Channel="12" Note="62" Velocity="106"/>
  </Event>
  <Event>
    <Absolute>21281</Absolute>
    <NoteOn Channel="12" Note="51" Velocity="0"/>
  </Event>
  <Event>
    <Absolute>21283</Absolute>
    <NoteOn Channel="12" Note="62" Velocity="0"/>
  </Event>
  <Event>
    <Absolute>21291</Absolute>
    <NoteOn Channel="12" Note="51" Velocity="127"/>
  </Event>
  <Event>
    <Absolute>21293</Absolute>
    <NoteOn Channel="12" Note="62" Velocity="92"/>
  </Event>
  <Event>
    <Absolute>21299</Absolute>
    <NoteOn Channel="12" Note="51" Velocity="0"/>
  </Event>
  <Event>
    <Absolute>21305</Absolute>
    <NoteOn Channel="12" Note="62" Velocity="0"/>
  </Event>
  <Event>
    <Absolute>21314</Absolute>
    <NoteOn Channel="12" Note="59" Velocity="92"/>
  </Event>
  <Event>
    <Absolute>21315</Absolute>
    <NoteOn Channel="12" Note="54" Velocity="127"/>
  </Event>
  <Event>
    <Absolute>21324</Absolute>
    <NoteOn Channel="12" Note="54" Velocity="0"/>
  </Event>
  <Event>
    <Absolute>21324</Absolute>
    <NoteOn Channel="12" Note="59" Velocity="0"/>
  </Event>
  <Event>
    <Absolute>21335</Absolute>
    <NoteOn Channel="12" Note="59" Velocity="106"/>
  </Event>
  <Event>
    <Absolute>21335</Absolute>
    <NoteOn Channel="12" Note="54" Velocity="92"/>
  </Event>
  <Event>
    <Absolute>21343</Absolute>
    <NoteOn Channel="12" Note="54" Velocity="0"/>
  </Event>
  <Event>
    <Absolute>21345</Absolute>
    <NoteOn Channel="12" Note="59" Velocity="0"/>
  </Event>
  <Event>
    <Absolute>21351</Absolute>
    <NoteOn Channel="12" Note="54" Velocity="106"/>
  </Event>
  <Event>
    <Absolute>21355</Absolute>
    <NoteOn Channel="12" Note="59" Velocity="92"/>
  </Event>
  <Event>
    <Absolute>21360</Absolute>
    <NoteOn Channel="12" Note="54" Velocity="0"/>
  </Event>
  <Event>
    <Absolute>21364</Absolute>
    <NoteOn Channel="12" Note="59" Velocity="0"/>
  </Event>
  <Event>
    <Absolute>21371</Absolute>
    <NoteOn Channel="12" Note="36" Velocity="83"/>
  </Event>
  <Event>
    <Absolute>21432</Absolute>
    <NoteOn Channel="12" Note="67" Velocity="127"/>
  </Event>
  <Event>
    <Absolute>21432</Absolute>
    <NoteOn Channel="12" Note="59" Velocity="127"/>
  </Event>
  <Event>
    <Absolute>21440</Absolute>
    <NoteOn Channel="12" Note="59" Velocity="0"/>
  </Event>
  <Event>
    <Absolute>21440</Absolute>
    <NoteOn Channel="12" Note="67" Velocity="0"/>
  </Event>
  <Event>
    <Absolute>21452</Absolute>
    <NoteOn Channel="12" Note="59" Velocity="127"/>
  </Event>
  <Event>
    <Absolute>21453</Absolute>
    <NoteOn Channel="12" Note="67" Velocity="90"/>
  </Event>
  <Event>
    <Absolute>21460</Absolute>
    <NoteOn Channel="12" Note="59" Velocity="0"/>
  </Event>
  <Event>
    <Absolute>21461</Absolute>
    <NoteOn Channel="12" Note="67" Velocity="0"/>
  </Event>
  <Event>
    <Absolute>21470</Absolute>
    <NoteOn Channel="12" Note="67" Velocity="82"/>
  </Event>
  <Event>
    <Absolute>21470</Absolute>
    <NoteOn Channel="12" Note="59" Velocity="90"/>
  </Event>
  <Event>
    <Absolute>21478</Absolute>
    <NoteOn Channel="12" Note="59" Velocity="0"/>
  </Event>
  <Event>
    <Absolute>21481</Absolute>
    <NoteOn Channel="12" Note="67" Velocity="0"/>
  </Event>
  <Event>
    <Absolute>21488</Absolute>
    <NoteOn Channel="12" Note="38" Velocity="84"/>
  </Event>
  <Event>
    <Absolute>21490</Absolute>
    <NoteOn Channel="12" Note="36" Velocity="0"/>
  </Event>
  <Event>
    <Absolute>21493</Absolute>
    <NoteOn Channel="12" Note="66" Velocity="127"/>
  </Event>
  <Event>
    <Absolute>21496</Absolute>
    <NoteOn Channel="12" Note="60" Velocity="126"/>
  </Event>
  <Event>
    <Absolute>21503</Absolute>
    <NoteOn Channel="12" Note="66" Velocity="0"/>
  </Event>
  <Event>
    <Absolute>21504</Absolute>
    <NoteOn Channel="12" Note="60" Velocity="0"/>
  </Event>
  <Event>
    <Absolute>21510</Absolute>
    <NoteOn Channel="12" Note="60" Velocity="101"/>
  </Event>
  <Event>
    <Absolute>21514</Absolute>
    <NoteOn Channel="12" Note="66" Velocity="127"/>
  </Event>
  <Event>
    <Absolute>21520</Absolute>
    <NoteOn Channel="12" Note="60" Velocity="0"/>
  </Event>
  <Event>
    <Absolute>21522</Absolute>
    <NoteOn Channel="12" Note="66" Velocity="0"/>
  </Event>
  <Event>
    <Absolute>21529</Absolute>
    <NoteOn Channel="12" Note="60" Velocity="104"/>
  </Event>
  <Event>
    <Absolute>21532</Absolute>
    <NoteOn Channel="12" Note="66" Velocity="116"/>
  </Event>
  <Event>
    <Absolute>21541</Absolute>
    <NoteOn Channel="12" Note="60" Velocity="0"/>
  </Event>
  <Event>
    <Absolute>21542</Absolute>
    <NoteOn Channel="12" Note="66" Velocity="0"/>
  </Event>
  <Event>
    <Absolute>21552</Absolute>
    <NoteOn Channel="12" Note="54" Velocity="119"/>
  </Event>
  <Event>
    <Absolute>21555</Absolute>
    <NoteOn Channel="12" Note="62" Velocity="97"/>
  </Event>
  <Event>
    <Absolute>21561</Absolute>
    <NoteOn Channel="12" Note="54" Velocity="0"/>
  </Event>
  <Event>
    <Absolute>21565</Absolute>
    <NoteOn Channel="12" Note="62" Velocity="0"/>
  </Event>
  <Event>
    <Absolute>21572</Absolute>
    <NoteOn Channel="12" Note="54" Velocity="90"/>
  </Event>
  <Event>
    <Absolute>21577</Absolute>
    <NoteOn Channel="12" Note="62" Velocity="90"/>
  </Event>
  <Event>
    <Absolute>21580</Absolute>
    <NoteOn Channel="12" Note="54" Velocity="0"/>
  </Event>
  <Event>
    <Absolute>21586</Absolute>
    <NoteOn Channel="12" Note="62" Velocity="0"/>
  </Event>
  <Event>
    <Absolute>21590</Absolute>
    <NoteOn Channel="12" Note="54" Velocity="127"/>
  </Event>
  <Event>
    <Absolute>21596</Absolute>
    <NoteOn Channel="12" Note="62" Velocity="76"/>
  </Event>
  <Event>
    <Absolute>21599</Absolute>
    <NoteOn Channel="12" Note="54" Velocity="0"/>
  </Event>
  <Event>
    <Absolute>21603</Absolute>
    <NoteOn Channel="12" Note="39" Velocity="89"/>
  </Event>
  <Event>
    <Absolute>21606</Absolute>
    <NoteOn Channel="12" Note="62" Velocity="0"/>
  </Event>
  <Event>
    <Absolute>21610</Absolute>
    <NoteOn Channel="12" Note="65" Velocity="127"/>
  </Event>
  <Event>
    <Absolute>21612</Absolute>
    <NoteOn Channel="12" Note="57" Velocity="119"/>
  </Event>
  <Event>
    <Absolute>21620</Absolute>
    <NoteOn Channel="12" Note="65" Velocity="0"/>
  </Event>
  <Event>
    <Absolute>21621</Absolute>
    <NoteOn Channel="12" Note="57" Velocity="0"/>
  </Event>
  <Event>
    <Absolute>21621</Absolute>
    <NoteOn Channel="12" Note="38" Velocity="0"/>
  </Event>
  <Event>
    <Absolute>21629</Absolute>
    <NoteOn Channel="12" Note="65" Velocity="121"/>
  </Event>
  <Event>
    <Absolute>21630</Absolute>
    <NoteOn Channel="12" Note="57" Velocity="97"/>
  </Event>
  <Event>
    <Absolute>21638</Absolute>
    <NoteOn Channel="12" Note="65" Velocity="0"/>
  </Event>
  <Event>
    <Absolute>21640</Absolute>
    <NoteOn Channel="12" Note="57" Velocity="0"/>
  </Event>
  <Event>
    <Absolute>21649</Absolute>
    <NoteOn Channel="12" Note="65" Velocity="97"/>
  </Event>
  <Event>
    <Absolute>21650</Absolute>
    <NoteOn Channel="12" Note="57" Velocity="104"/>
  </Event>
  <Event>
    <Absolute>21656</Absolute>
    <NoteOn Channel="12" Note="65" Velocity="0"/>
  </Event>
  <Event>
    <Absolute>21663</Absolute>
    <NoteOn Channel="12" Note="57" Velocity="0"/>
  </Event>
  <Event>
    <Absolute>21670</Absolute>
    <NoteOn Channel="12" Note="63" Velocity="127"/>
  </Event>
  <Event>
    <Absolute>21671</Absolute>
    <NoteOn Channel="12" Note="55" Velocity="116"/>
  </Event>
  <Event>
    <Absolute>21677</Absolute>
    <NoteOn Channel="12" Note="63" Velocity="0"/>
  </Event>
  <Event>
    <Absolute>21680</Absolute>
    <NoteOn Channel="12" Note="55" Velocity="0"/>
  </Event>
  <Event>
    <Absolute>21688</Absolute>
    <NoteOn Channel="12" Note="63" Velocity="97"/>
  </Event>
  <Event>
    <Absolute>21690</Absolute>
    <NoteOn Channel="12" Note="55" Velocity="101"/>
  </Event>
  <Event>
    <Absolute>21695</Absolute>
    <NoteOn Channel="12" Note="63" Velocity="0"/>
  </Event>
  <Event>
    <Absolute>21698</Absolute>
    <NoteOn Channel="12" Note="55" Velocity="0"/>
  </Event>
  <Event>
    <Absolute>21706</Absolute>
    <NoteOn Channel="12" Note="63" Velocity="104"/>
  </Event>
  <Event>
    <Absolute>21710</Absolute>
    <NoteOn Channel="12" Note="55" Velocity="127"/>
  </Event>
  <Event>
    <Absolute>21717</Absolute>
    <NoteOn Channel="12" Note="63" Velocity="0"/>
  </Event>
  <Event>
    <Absolute>21719</Absolute>
    <NoteOn Channel="12" Note="55" Velocity="0"/>
  </Event>
  <Event>
    <Absolute>21724</Absolute>
    <NoteOn Channel="12" Note="39" Velocity="0"/>
  </Event>
  <Event>
    <Absolute>21724</Absolute>
    <NoteOn Channel="12" Note="41" Velocity="92"/>
  </Event>
  <Event>
    <Absolute>21728</Absolute>
    <NoteOn Channel="12" Note="59" Velocity="121"/>
  </Event>
  <Event>
    <Absolute>21731</Absolute>
    <NoteOn Channel="12" Note="51" Velocity="127"/>
  </Event>
  <Event>
    <Absolute>21738</Absolute>
    <NoteOn Channel="12" Note="59" Velocity="0"/>
  </Event>
  <Event>
    <Absolute>21739</Absolute>
    <NoteOn Channel="12" Note="51" Velocity="0"/>
  </Event>
  <Event>
    <Absolute>21748</Absolute>
    <NoteOn Channel="12" Note="59" Velocity="114"/>
  </Event>
  <Event>
    <Absolute>21750</Absolute>
    <NoteOn Channel="12" Note="51" Velocity="127"/>
  </Event>
  <Event>
    <Absolute>21758</Absolute>
    <NoteOn Channel="12" Note="59" Velocity="0"/>
  </Event>
  <Event>
    <Absolute>21759</Absolute>
    <NoteOn Channel="12" Note="51" Velocity="0"/>
  </Event>
  <Event>
    <Absolute>21768</Absolute>
    <NoteOn Channel="12" Note="59" Velocity="76"/>
  </Event>
  <Event>
    <Absolute>21769</Absolute>
    <NoteOn Channel="12" Note="51" Velocity="119"/>
  </Event>
  <Event>
    <Absolute>21777</Absolute>
    <NoteOn Channel="12" Note="59" Velocity="0"/>
  </Event>
  <Event>
    <Absolute>21778</Absolute>
    <NoteOn Channel="12" Note="51" Velocity="0"/>
  </Event>
  <Event>
    <Absolute>21786</Absolute>
    <NoteOn Channel="12" Note="56" Velocity="86"/>
  </Event>
  <Event>
    <Absolute>21791</Absolute>
    <NoteOn Channel="12" Note="47" Velocity="121"/>
  </Event>
  <Event>
    <Absolute>21797</Absolute>
    <NoteOn Channel="12" Note="56" Velocity="0"/>
  </Event>
  <Event>
    <Absolute>21799</Absolute>
    <NoteOn Channel="12" Note="47" Velocity="0"/>
  </Event>
  <Event>
    <Absolute>21810</Absolute>
    <NoteOn Channel="12" Note="56" Velocity="104"/>
  </Event>
  <Event>
    <Absolute>21811</Absolute>
    <NoteOn Channel="12" Note="47" Velocity="127"/>
  </Event>
  <Event>
    <Absolute>21816</Absolute>
    <NoteOn Channel="12" Note="56" Velocity="0"/>
  </Event>
  <Event>
    <Absolute>21820</Absolute>
    <NoteOn Channel="12" Note="47" Velocity="0"/>
  </Event>
  <Event>
    <Absolute>21826</Absolute>
    <NoteOn Channel="12" Note="56" Velocity="114"/>
  </Event>
  <Event>
    <Absolute>21830</Absolute>
    <NoteOn Channel="12" Note="47" Velocity="127"/>
  </Event>
  <Event>
    <Absolute>21834</Absolute>
    <NoteOn Channel="12" Note="56" Velocity="0"/>
  </Event>
  <Event>
    <Absolute>21840</Absolute>
    <NoteOn Channel="12" Note="47" Velocity="0"/>
  </Event>
  <Event>
    <Absolute>21844</Absolute>
    <NoteOn Channel="12" Note="41" Velocity="0"/>
  </Event>
  <Event>
    <Absolute>21848</Absolute>
    <NoteOn Channel="12" Note="50" Velocity="127"/>
  </Event>
  <Event>
    <Absolute>21851</Absolute>
    <NoteOn Channel="12" Note="38" Velocity="127"/>
  </Event>
  <Event>
    <Absolute>21856</Absolute>
    <NoteOn Channel="12" Note="45" Velocity="119"/>
  </Event>
  <Event>
    <Absolute>21897</Absolute>
    <NoteOn Channel="12" Note="50" Velocity="0"/>
  </Event>
  <Event>
    <Absolute>21905</Absolute>
    <NoteOn Channel="12" Note="38" Velocity="0"/>
  </Event>
  <Event>
    <Absolute>21915</Absolute>
    <NoteOn Channel="12" Note="57" Velocity="106"/>
  </Event>
  <Event>
    <Absolute>21917</Absolute>
    <NoteOn Channel="12" Note="53" Velocity="127"/>
  </Event>
  <Event>
    <Absolute>21922</Absolute>
    <NoteOn Channel="12" Note="57" Velocity="0"/>
  </Event>
  <Event>
    <Absolute>21924</Absolute>
    <NoteOn Channel="12" Note="53" Velocity="0"/>
  </Event>
  <Event>
    <Absolute>21926</Absolute>
    <NoteOn Channel="12" Note="45" Velocity="0"/>
  </Event>
  <Event>
    <Absolute>21935</Absolute>
    <NoteOn Channel="12" Note="57" Velocity="92"/>
  </Event>
  <Event>
    <Absolute>21937</Absolute>
    <NoteOn Channel="12" Note="53" Velocity="106"/>
  </Event>
  <Event>
    <Absolute>21941</Absolute>
    <NoteOn Channel="12" Note="57" Velocity="0"/>
  </Event>
  <Event>
    <Absolute>21942</Absolute>
    <NoteOn Channel="12" Note="53" Velocity="0"/>
  </Event>
  <Event>
    <Absolute>21951</Absolute>
    <NoteOn Channel="12" Note="53" Velocity="106"/>
  </Event>
  <Event>
    <Absolute>21953</Absolute>
    <NoteOn Channel="12" Note="57" Velocity="83"/>
  </Event>
  <Event>
    <Absolute>21963</Absolute>
    <NoteOn Channel="12" Note="57" Velocity="0"/>
  </Event>
  <Event>
    <Absolute>21966</Absolute>
    <NoteOn Channel="12" Note="53" Velocity="0"/>
  </Event>
  <Event>
    <Absolute>21973</Absolute>
    <NoteOn Channel="12" Note="49" Velocity="119"/>
  </Event>
  <Event>
    <Absolute>21973</Absolute>
    <NoteOn Channel="12" Note="58" Velocity="127"/>
  </Event>
  <Event>
    <Absolute>21982</Absolute>
    <NoteOn Channel="12" Note="58" Velocity="0"/>
  </Event>
  <Event>
    <Absolute>21985</Absolute>
    <NoteOn Channel="12" Note="49" Velocity="0"/>
  </Event>
  <Event>
    <Absolute>21993</Absolute>
    <NoteOn Channel="12" Note="58" Velocity="106"/>
  </Event>
  <Event>
    <Absolute>21996</Absolute>
    <NoteOn Channel="12" Note="49" Velocity="106"/>
  </Event>
  <Event>
    <Absolute>22000</Absolute>
    <NoteOn Channel="12" Note="58" Velocity="0"/>
  </Event>
  <Event>
    <Absolute>22006</Absolute>
    <NoteOn Channel="12" Note="49" Velocity="0"/>
  </Event>
  <Event>
    <Absolute>22012</Absolute>
    <NoteOn Channel="12" Note="58" Velocity="92"/>
  </Event>
  <Event>
    <Absolute>22014</Absolute>
    <NoteOn Channel="12" Note="49" Velocity="106"/>
  </Event>
  <Event>
    <Absolute>22023</Absolute>
    <NoteOn Channel="12" Note="49" Velocity="0"/>
  </Event>
  <Event>
    <Absolute>22025</Absolute>
    <NoteOn Channel="12" Note="58" Velocity="0"/>
  </Event>
  <Event>
    <Absolute>22033</Absolute>
    <NoteOn Channel="12" Note="55" Velocity="106"/>
  </Event>
  <Event>
    <Absolute>22035</Absolute>
    <NoteOn Channel="12" Note="52" Velocity="119"/>
  </Event>
  <Event>
    <Absolute>22043</Absolute>
    <NoteOn Channel="12" Note="55" Velocity="0"/>
  </Event>
  <Event>
    <Absolute>22045</Absolute>
    <NoteOn Channel="12" Note="52" Velocity="0"/>
  </Event>
  <Event>
    <Absolute>22053</Absolute>
    <NoteOn Channel="12" Note="55" Velocity="83"/>
  </Event>
  <Event>
    <Absolute>22056</Absolute>
    <NoteOn Channel="12" Note="52" Velocity="92"/>
  </Event>
  <Event>
    <Absolute>22063</Absolute>
    <NoteOn Channel="12" Note="55" Velocity="0"/>
  </Event>
  <Event>
    <Absolute>22064</Absolute>
    <NoteOn Channel="12" Note="52" Velocity="0"/>
  </Event>
  <Event>
    <Absolute>22072</Absolute>
    <NoteOn Channel="12" Note="55" Velocity="106"/>
  </Event>
  <Event>
    <Absolute>22074</Absolute>
    <NoteOn Channel="12" Note="52" Velocity="89"/>
  </Event>
  <Event>
    <Absolute>22081</Absolute>
    <NoteOn Channel="12" Note="55" Velocity="0"/>
  </Event>
  <Event>
    <Absolute>22087</Absolute>
    <NoteOn Channel="12" Note="52" Velocity="0"/>
  </Event>
  <Event>
    <Absolute>22092</Absolute>
    <NoteOn Channel="12" Note="38" Velocity="127"/>
  </Event>
  <Event>
    <Absolute>22093</Absolute>
    <NoteOn Channel="12" Note="50" Velocity="127"/>
  </Event>
  <Event>
    <Absolute>22101</Absolute>
    <NoteOn Channel="12" Note="45" Velocity="127"/>
  </Event>
  <Event>
    <Absolute>22135</Absolute>
    <NoteOn Channel="12" Note="50" Velocity="0"/>
  </Event>
  <Event>
    <Absolute>22139</Absolute>
    <NoteOn Channel="12" Note="38" Velocity="0"/>
  </Event>
  <Event>
    <Absolute>22153</Absolute>
    <NoteOn Channel="12" Note="57" Velocity="106"/>
  </Event>
  <Event>
    <Absolute>22157</Absolute>
    <NoteOn Channel="12" Note="65" Velocity="127"/>
  </Event>
  <Event>
    <Absolute>22162</Absolute>
    <NoteOn Channel="12" Note="57" Velocity="0"/>
  </Event>
  <Event>
    <Absolute>22165</Absolute>
    <NoteOn Channel="12" Note="65" Velocity="0"/>
  </Event>
  <Event>
    <Absolute>22167</Absolute>
    <NoteOn Channel="12" Note="45" Velocity="0"/>
  </Event>
  <Event>
    <Absolute>22171</Absolute>
    <NoteOn Channel="12" Note="57" Velocity="127"/>
  </Event>
  <Event>
    <Absolute>22177</Absolute>
    <NoteOn Channel="12" Note="65" Velocity="106"/>
  </Event>
  <Event>
    <Absolute>22181</Absolute>
    <NoteOn Channel="12" Note="57" Velocity="0"/>
  </Event>
  <Event>
    <Absolute>22183</Absolute>
    <NoteOn Channel="12" Note="65" Velocity="0"/>
  </Event>
  <Event>
    <Absolute>22191</Absolute>
    <NoteOn Channel="12" Note="57" Velocity="119"/>
  </Event>
  <Event>
    <Absolute>22195</Absolute>
    <NoteOn Channel="12" Note="65" Velocity="106"/>
  </Event>
  <Event>
    <Absolute>22201</Absolute>
    <NoteOn Channel="12" Note="57" Velocity="0"/>
  </Event>
  <Event>
    <Absolute>22204</Absolute>
    <NoteOn Channel="12" Note="65" Velocity="0"/>
  </Event>
  <Event>
    <Absolute>22213</Absolute>
    <NoteOn Channel="12" Note="53" Velocity="119"/>
  </Event>
  <Event>
    <Absolute>22215</Absolute>
    <NoteOn Channel="12" Note="64" Velocity="106"/>
  </Event>
  <Event>
    <Absolute>22221</Absolute>
    <NoteOn Channel="12" Note="53" Velocity="0"/>
  </Event>
  <Event>
    <Absolute>22224</Absolute>
    <NoteOn Channel="12" Note="64" Velocity="0"/>
  </Event>
  <Event>
    <Absolute>22233</Absolute>
    <NoteOn Channel="12" Note="53" Velocity="127"/>
  </Event>
  <Event>
    <Absolute>22235</Absolute>
    <NoteOn Channel="12" Note="64" Velocity="106"/>
  </Event>
  <Event>
    <Absolute>22241</Absolute>
    <NoteOn Channel="12" Note="53" Velocity="0"/>
  </Event>
  <Event>
    <Absolute>22243</Absolute>
    <NoteOn Channel="12" Note="64" Velocity="0"/>
  </Event>
  <Event>
    <Absolute>22251</Absolute>
    <NoteOn Channel="12" Note="53" Velocity="127"/>
  </Event>
  <Event>
    <Absolute>22253</Absolute>
    <NoteOn Channel="12" Note="64" Velocity="92"/>
  </Event>
  <Event>
    <Absolute>22259</Absolute>
    <NoteOn Channel="12" Note="53" Velocity="0"/>
  </Event>
  <Event>
    <Absolute>22265</Absolute>
    <NoteOn Channel="12" Note="64" Velocity="0"/>
  </Event>
  <Event>
    <Absolute>22274</Absolute>
    <NoteOn Channel="12" Note="61" Velocity="92"/>
  </Event>
  <Event>
    <Absolute>22275</Absolute>
    <NoteOn Channel="12" Note="56" Velocity="127"/>
  </Event>
  <Event>
    <Absolute>22284</Absolute>
    <NoteOn Channel="12" Note="56" Velocity="0"/>
  </Event>
  <Event>
    <Absolute>22284</Absolute>
    <NoteOn Channel="12" Note="61" Velocity="0"/>
  </Event>
  <Event>
    <Absolute>22295</Absolute>
    <NoteOn Channel="12" Note="61" Velocity="106"/>
  </Event>
  <Event>
    <Absolute>22295</Absolute>
    <NoteOn Channel="12" Note="56" Velocity="92"/>
  </Event>
  <Event>
    <Absolute>22303</Absolute>
    <NoteOn Channel="12" Note="56" Velocity="0"/>
  </Event>
  <Event>
    <Absolute>22305</Absolute>
    <NoteOn Channel="12" Note="61" Velocity="0"/>
  </Event>
  <Event>
    <Absolute>22311</Absolute>
    <NoteOn Channel="12" Note="56" Velocity="106"/>
  </Event>
  <Event>
    <Absolute>22315</Absolute>
    <NoteOn Channel="12" Note="61" Velocity="92"/>
  </Event>
  <Event>
    <Absolute>22320</Absolute>
    <NoteOn Channel="12" Note="56" Velocity="0"/>
  </Event>
  <Event>
    <Absolute>22324</Absolute>
    <NoteOn Channel="12" Note="61" Velocity="0"/>
  </Event>
  <Event>
    <Absolute>22331</Absolute>
    <NoteOn Channel="12" Note="50" Velocity="127"/>
  </Event>
  <Event>
    <Absolute>22331</Absolute>
    <NoteOn Channel="12" Note="38" Velocity="127"/>
  </Event>
  <Event>
    <Absolute>22377</Absolute>
    <NoteOn Channel="12" Note="50" Velocity="0"/>
  </Event>
  <Event>
    <Absolute>22380</Absolute>
    <NoteOn Channel="12" Note="38" Velocity="0"/>
  </Event>
  <Event>
    <Absolute>22392</Absolute>
    <NoteOn Channel="12" Note="69" Velocity="127"/>
  </Event>
  <Event>
    <Absolute>22392</Absolute>
    <NoteOn Channel="12" Note="61" Velocity="127"/>
  </Event>
  <Event>
    <Absolute>22400</Absolute>
    <NoteOn Channel="12" Note="61" Velocity="0"/>
  </Event>
  <Event>
    <Absolute>22400</Absolute>
    <NoteOn Channel="12" Note="69" Velocity="0"/>
  </Event>
  <Event>
    <Absolute>22412</Absolute>
    <NoteOn Channel="12" Note="61" Velocity="127"/>
  </Event>
  <Event>
    <Absolute>22413</Absolute>
    <NoteOn Channel="12" Note="69" Velocity="90"/>
  </Event>
  <Event>
    <Absolute>22420</Absolute>
    <NoteOn Channel="12" Note="61" Velocity="0"/>
  </Event>
  <Event>
    <Absolute>22421</Absolute>
    <NoteOn Channel="12" Note="69" Velocity="0"/>
  </Event>
  <Event>
    <Absolute>22430</Absolute>
    <NoteOn Channel="12" Note="69" Velocity="82"/>
  </Event>
  <Event>
    <Absolute>22430</Absolute>
    <NoteOn Channel="12" Note="61" Velocity="90"/>
  </Event>
  <Event>
    <Absolute>22438</Absolute>
    <NoteOn Channel="12" Note="61" Velocity="0"/>
  </Event>
  <Event>
    <Absolute>22441</Absolute>
    <NoteOn Channel="12" Note="69" Velocity="0"/>
  </Event>
  <Event>
    <Absolute>22453</Absolute>
    <NoteOn Channel="12" Note="68" Velocity="127"/>
  </Event>
  <Event>
    <Absolute>22456</Absolute>
    <NoteOn Channel="12" Note="62" Velocity="126"/>
  </Event>
  <Event>
    <Absolute>22456</Absolute>
    <NoteOn Channel="12" Note="47" Velocity="104"/>
  </Event>
  <Event>
    <Absolute>22463</Absolute>
    <NoteOn Channel="12" Note="68" Velocity="0"/>
  </Event>
  <Event>
    <Absolute>22464</Absolute>
    <NoteOn Channel="12" Note="62" Velocity="0"/>
  </Event>
  <Event>
    <Absolute>22470</Absolute>
    <NoteOn Channel="12" Note="62" Velocity="101"/>
  </Event>
  <Event>
    <Absolute>22474</Absolute>
    <NoteOn Channel="12" Note="68" Velocity="127"/>
  </Event>
  <Event>
    <Absolute>22480</Absolute>
    <NoteOn Channel="12" Note="62" Velocity="0"/>
  </Event>
  <Event>
    <Absolute>22482</Absolute>
    <NoteOn Channel="12" Note="68" Velocity="0"/>
  </Event>
  <Event>
    <Absolute>22489</Absolute>
    <NoteOn Channel="12" Note="62" Velocity="104"/>
  </Event>
  <Event>
    <Absolute>22492</Absolute>
    <NoteOn Channel="12" Note="68" Velocity="116"/>
  </Event>
  <Event>
    <Absolute>22501</Absolute>
    <NoteOn Channel="12" Note="62" Velocity="0"/>
  </Event>
  <Event>
    <Absolute>22502</Absolute>
    <NoteOn Channel="12" Note="68" Velocity="0"/>
  </Event>
  <Event>
    <Absolute>22512</Absolute>
    <NoteOn Channel="12" Note="56" Velocity="119"/>
  </Event>
  <Event>
    <Absolute>22515</Absolute>
    <NoteOn Channel="12" Note="64" Velocity="97"/>
  </Event>
  <Event>
    <Absolute>22521</Absolute>
    <NoteOn Channel="12" Note="56" Velocity="0"/>
  </Event>
  <Event>
    <Absolute>22525</Absolute>
    <NoteOn Channel="12" Note="64" Velocity="0"/>
  </Event>
  <Event>
    <Absolute>22532</Absolute>
    <NoteOn Channel="12" Note="56" Velocity="90"/>
  </Event>
  <Event>
    <Absolute>22537</Absolute>
    <NoteOn Channel="12" Note="64" Velocity="90"/>
  </Event>
  <Event>
    <Absolute>22540</Absolute>
    <NoteOn Channel="12" Note="56" Velocity="0"/>
  </Event>
  <Event>
    <Absolute>22546</Absolute>
    <NoteOn Channel="12" Note="64" Velocity="0"/>
  </Event>
  <Event>
    <Absolute>22550</Absolute>
    <NoteOn Channel="12" Note="56" Velocity="127"/>
  </Event>
  <Event>
    <Absolute>22556</Absolute>
    <NoteOn Channel="12" Note="64" Velocity="76"/>
  </Event>
  <Event>
    <Absolute>22559</Absolute>
    <NoteOn Channel="12" Note="56" Velocity="0"/>
  </Event>
  <Event>
    <Absolute>22566</Absolute>
    <NoteOn Channel="12" Note="64" Velocity="0"/>
  </Event>
  <Event>
    <Absolute>22570</Absolute>
    <NoteOn Channel="12" Note="67" Velocity="127"/>
  </Event>
  <Event>
    <Absolute>22572</Absolute>
    <NoteOn Channel="12" Note="59" Velocity="119"/>
  </Event>
  <Event>
    <Absolute>22576</Absolute>
    <NoteOn Channel="12" Note="48" Velocity="94"/>
  </Event>
  <Event>
    <Absolute>22580</Absolute>
    <NoteOn Channel="12" Note="67" Velocity="0"/>
  </Event>
  <Event>
    <Absolute>22581</Absolute>
    <NoteOn Channel="12" Note="59" Velocity="0"/>
  </Event>
  <Event>
    <Absolute>22583</Absolute>
    <NoteOn Channel="12" Note="47" Velocity="0"/>
  </Event>
  <Event>
    <Absolute>22589</Absolute>
    <NoteOn Channel="12" Note="67" Velocity="121"/>
  </Event>
  <Event>
    <Absolute>22590</Absolute>
    <NoteOn Channel="12" Note="59" Velocity="97"/>
  </Event>
  <Event>
    <Absolute>22598</Absolute>
    <NoteOn Channel="12" Note="67" Velocity="0"/>
  </Event>
  <Event>
    <Absolute>22600</Absolute>
    <NoteOn Channel="12" Note="59" Velocity="0"/>
  </Event>
  <Event>
    <Absolute>22609</Absolute>
    <NoteOn Channel="12" Note="67" Velocity="97"/>
  </Event>
  <Event>
    <Absolute>22610</Absolute>
    <NoteOn Channel="12" Note="59" Velocity="104"/>
  </Event>
  <Event>
    <Absolute>22616</Absolute>
    <NoteOn Channel="12" Note="67" Velocity="0"/>
  </Event>
  <Event>
    <Absolute>22623</Absolute>
    <NoteOn Channel="12" Note="59" Velocity="0"/>
  </Event>
  <Event>
    <Absolute>22630</Absolute>
    <NoteOn Channel="12" Note="65" Velocity="127"/>
  </Event>
  <Event>
    <Absolute>22631</Absolute>
    <NoteOn Channel="12" Note="57" Velocity="116"/>
  </Event>
  <Event>
    <Absolute>22637</Absolute>
    <NoteOn Channel="12" Note="65" Velocity="0"/>
  </Event>
  <Event>
    <Absolute>22640</Absolute>
    <NoteOn Channel="12" Note="57" Velocity="0"/>
  </Event>
  <Event>
    <Absolute>22648</Absolute>
    <NoteOn Channel="12" Note="65" Velocity="97"/>
  </Event>
  <Event>
    <Absolute>22650</Absolute>
    <NoteOn Channel="12" Note="57" Velocity="101"/>
  </Event>
  <Event>
    <Absolute>22655</Absolute>
    <NoteOn Channel="12" Note="65" Velocity="0"/>
  </Event>
  <Event>
    <Absolute>22658</Absolute>
    <NoteOn Channel="12" Note="57" Velocity="0"/>
  </Event>
  <Event>
    <Absolute>22666</Absolute>
    <NoteOn Channel="12" Note="65" Velocity="104"/>
  </Event>
  <Event>
    <Absolute>22670</Absolute>
    <NoteOn Channel="12" Note="57" Velocity="127"/>
  </Event>
  <Event>
    <Absolute>22677</Absolute>
    <NoteOn Channel="12" Note="65" Velocity="0"/>
  </Event>
  <Event>
    <Absolute>22679</Absolute>
    <NoteOn Channel="12" Note="57" Velocity="0"/>
  </Event>
  <Event>
    <Absolute>22688</Absolute>
    <NoteOn Channel="12" Note="61" Velocity="121"/>
  </Event>
  <Event>
    <Absolute>22691</Absolute>
    <NoteOn Channel="12" Note="53" Velocity="127"/>
  </Event>
  <Event>
    <Absolute>22698</Absolute>
    <NoteOn Channel="12" Note="61" Velocity="0"/>
  </Event>
  <Event>
    <Absolute>22699</Absolute>
    <NoteOn Channel="12" Note="53" Velocity="0"/>
  </Event>
  <Event>
    <Absolute>22699</Absolute>
    <NoteOn Channel="12" Note="49" Velocity="90"/>
  </Event>
  <Event>
    <Absolute>22708</Absolute>
    <NoteOn Channel="12" Note="61" Velocity="114"/>
  </Event>
  <Event>
    <Absolute>22710</Absolute>
    <NoteOn Channel="12" Note="48" Velocity="0"/>
  </Event>
  <Event>
    <Absolute>22710</Absolute>
    <NoteOn Channel="12" Note="53" Velocity="127"/>
  </Event>
  <Event>
    <Absolute>22718</Absolute>
    <NoteOn Channel="12" Note="61" Velocity="0"/>
  </Event>
  <Event>
    <Absolute>22719</Absolute>
    <NoteOn Channel="12" Note="53" Velocity="0"/>
  </Event>
  <Event>
    <Absolute>22728</Absolute>
    <NoteOn Channel="12" Note="61" Velocity="76"/>
  </Event>
  <Event>
    <Absolute>22729</Absolute>
    <NoteOn Channel="12" Note="53" Velocity="119"/>
  </Event>
  <Event>
    <Absolute>22737</Absolute>
    <NoteOn Channel="12" Note="61" Velocity="0"/>
  </Event>
  <Event>
    <Absolute>22738</Absolute>
    <NoteOn Channel="12" Note="53" Velocity="0"/>
  </Event>
  <Event>
    <Absolute>22746</Absolute>
    <NoteOn Channel="12" Note="58" Velocity="86"/>
  </Event>
  <Event>
    <Absolute>22751</Absolute>
    <NoteOn Channel="12" Note="49" Velocity="121"/>
  </Event>
  <Event>
    <Absolute>22757</Absolute>
    <NoteOn Channel="12" Note="58" Velocity="0"/>
  </Event>
  <Event>
    <Absolute>22759</Absolute>
    <NoteOn Channel="12" Note="49" Velocity="0"/>
  </Event>
  <Event>
    <Absolute>22770</Absolute>
    <NoteOn Channel="12" Note="58" Velocity="87"/>
  </Event>
  <Event>
    <Absolute>22771</Absolute>
    <NoteOn Channel="12" Note="49" Velocity="109"/>
  </Event>
  <Event>
    <Absolute>22776</Absolute>
    <NoteOn Channel="12" Note="58" Velocity="0"/>
  </Event>
  <Event>
    <Absolute>22780</Absolute>
    <NoteOn Channel="12" Note="49" Velocity="0"/>
  </Event>
  <Event>
    <Absolute>22788</Absolute>
    <NoteOn Channel="12" Note="58" Velocity="95"/>
  </Event>
  <Event>
    <Absolute>22792</Absolute>
    <NoteOn Channel="12" Note="49" Velocity="119"/>
  </Event>
  <Event>
    <Absolute>22796</Absolute>
    <NoteOn Channel="12" Note="58" Velocity="0"/>
  </Event>
  <Event>
    <Absolute>22802</Absolute>
    <NoteOn Channel="12" Note="49" Velocity="0"/>
  </Event>
  <Event>
    <Absolute>22804</Absolute>
    <NoteOn Channel="12" Note="49" Velocity="0"/>
  </Event>
  <Event>
    <Absolute>22811</Absolute>
    <NoteOn Channel="12" Note="52" Velocity="88"/>
  </Event>
  <Event>
    <Absolute>22811</Absolute>
    <NoteOn Channel="12" Note="52" Velocity="88"/>
  </Event>
  <Event>
    <Absolute>22812</Absolute>
    <NoteOn Channel="12" Note="52" Velocity="0"/>
  </Event>
  <Event>
    <Absolute>22830</Absolute>
    <NoteOn Channel="12" Note="53" Velocity="77"/>
  </Event>
  <Event>
    <Absolute>22830</Absolute>
    <NoteOn Channel="12" Note="47" Velocity="77"/>
  </Event>
  <Event>
    <Absolute>22836</Absolute>
    <NoteOn Channel="12" Note="52" Velocity="0"/>
  </Event>
  <Event>
    <Absolute>22848</Absolute>
    <NoteOn Channel="12" Note="47" Velocity="0"/>
  </Event>
  <Event>
    <Absolute>22849</Absolute>
    <NoteOn Channel="12" Note="55" Velocity="69"/>
  </Event>
  <Event>
    <Absolute>22850</Absolute>
    <NoteOn Channel="12" Note="41" Velocity="74"/>
  </Event>
  <Event>
    <Absolute>22853</Absolute>
    <NoteOn Channel="12" Note="53" Velocity="0"/>
  </Event>
  <Event>
    <Absolute>22869</Absolute>
    <NoteOn Channel="12" Note="56" Velocity="55"/>
  </Event>
  <Event>
    <Absolute>22870</Absolute>
    <NoteOn Channel="12" Note="55" Velocity="0"/>
  </Event>
  <Event>
    <Absolute>22871</Absolute>
    <NoteOn Channel="12" Note="40" Velocity="99"/>
  </Event>
  <Event>
    <Absolute>22877</Absolute>
    <NoteOn Channel="12" Note="41" Velocity="0"/>
  </Event>
  <Event>
    <Absolute>22890</Absolute>
    <NoteOn Channel="12" Note="55" Velocity="74"/>
  </Event>
  <Event>
    <Absolute>22890</Absolute>
    <NoteOn Channel="12" Note="39" Velocity="77"/>
  </Event>
  <Event>
    <Absolute>22892</Absolute>
    <NoteOn Channel="12" Note="40" Velocity="0"/>
  </Event>
  <Event>
    <Absolute>22894</Absolute>
    <NoteOn Channel="12" Note="56" Velocity="0"/>
  </Event>
  <Event>
    <Absolute>22909</Absolute>
    <NoteOn Channel="12" Note="55" Velocity="0"/>
  </Event>
  <Event>
    <Absolute>22909</Absolute>
    <NoteOn Channel="12" Note="56" Velocity="74"/>
  </Event>
  <Event>
    <Absolute>22910</Absolute>
    <NoteOn Channel="12" Note="39" Velocity="0"/>
  </Event>
  <Event>
    <Absolute>22910</Absolute>
    <NoteOn Channel="12" Note="40" Velocity="77"/>
  </Event>
  <Event>
    <Absolute>22931</Absolute>
    <NoteOn Channel="12" Note="40" Velocity="0"/>
  </Event>
  <Event>
    <Absolute>22931</Absolute>
    <NoteOn Channel="12" Note="44" Velocity="88"/>
  </Event>
  <Event>
    <Absolute>22931</Absolute>
    <NoteOn Channel="12" Note="53" Velocity="88"/>
  </Event>
  <Event>
    <Absolute>22934</Absolute>
    <NoteOn Channel="12" Note="56" Velocity="0"/>
  </Event>
  <Event>
    <Absolute>22947</Absolute>
    <NoteOn Channel="12" Note="53" Velocity="0"/>
  </Event>
  <Event>
    <Absolute>22949</Absolute>
    <NoteOn Channel="12" Note="52" Velocity="74"/>
  </Event>
  <Event>
    <Absolute>22953</Absolute>
    <NoteOn Channel="12" Note="43" Velocity="77"/>
  </Event>
  <Event>
    <Absolute>22956</Absolute>
    <NoteOn Channel="12" Note="44" Velocity="0"/>
  </Event>
  <Event>
    <Absolute>22969</Absolute>
    <NoteOn Channel="12" Note="53" Velocity="69"/>
  </Event>
  <Event>
    <Absolute>22970</Absolute>
    <NoteOn Channel="12" Note="44" Velocity="77"/>
  </Event>
  <Event>
    <Absolute>22973</Absolute>
    <NoteOn Channel="12" Note="52" Velocity="0"/>
  </Event>
  <Event>
    <Absolute>22975</Absolute>
    <NoteOn Channel="12" Note="43" Velocity="0"/>
  </Event>
  <Event>
    <Absolute>22989</Absolute>
    <NoteOn Channel="12" Note="60" Velocity="77"/>
  </Event>
  <Event>
    <Absolute>22990</Absolute>
    <NoteOn Channel="12" Note="53" Velocity="0"/>
  </Event>
  <Event>
    <Absolute>22990</Absolute>
    <NoteOn Channel="12" Note="44" Velocity="0"/>
  </Event>
  <Event>
    <Absolute>22990</Absolute>
    <NoteOn Channel="12" Note="47" Velocity="77"/>
  </Event>
  <Event>
    <Absolute>23009</Absolute>
    <NoteOn Channel="12" Note="60" Velocity="0"/>
  </Event>
  <Event>
    <Absolute>23009</Absolute>
    <NoteOn Channel="12" Note="59" Velocity="74"/>
  </Event>
  <Event>
    <Absolute>23010</Absolute>
    <NoteOn Channel="12" Note="47" Velocity="0"/>
  </Event>
  <Event>
    <Absolute>23011</Absolute>
    <NoteOn Channel="12" Note="46" Velocity="99"/>
  </Event>
  <Event>
    <Absolute>23028</Absolute>
    <NoteOn Channel="12" Note="59" Velocity="0"/>
  </Event>
  <Event>
    <Absolute>23029</Absolute>
    <NoteOn Channel="12" Note="60" Velocity="77"/>
  </Event>
  <Event>
    <Absolute>23030</Absolute>
    <NoteOn Channel="12" Note="46" Velocity="0"/>
  </Event>
  <Event>
    <Absolute>23030</Absolute>
    <NoteOn Channel="12" Note="47" Velocity="88"/>
  </Event>
  <Event>
    <Absolute>23046</Absolute>
    <NoteOn Channel="12" Note="47" Velocity="0"/>
  </Event>
  <Event>
    <Absolute>23047</Absolute>
    <NoteOn Channel="12" Note="60" Velocity="0"/>
  </Event>
  <Event>
    <Absolute>23052</Absolute>
    <NoteOn Channel="12" Note="52" Velocity="88"/>
  </Event>
  <Event>
    <Absolute>23053</Absolute>
    <NoteOn Channel="12" Note="60" Velocity="88"/>
  </Event>
  <Event>
    <Absolute>23071</Absolute>
    <NoteOn Channel="12" Note="59" Velocity="69"/>
  </Event>
  <Event>
    <Absolute>23072</Absolute>
    <NoteOn Channel="12" Note="48" Velocity="74"/>
  </Event>
  <Event>
    <Absolute>23073</Absolute>
    <NoteOn Channel="12" Note="52" Velocity="0"/>
  </Event>
  <Event>
    <Absolute>23076</Absolute>
    <NoteOn Channel="12" Note="60" Velocity="0"/>
  </Event>
  <Event>
    <Absolute>23090</Absolute>
    <NoteOn Channel="12" Note="47" Velocity="74"/>
  </Event>
  <Event>
    <Absolute>23091</Absolute>
    <NoteOn Channel="12" Note="59" Velocity="0"/>
  </Event>
  <Event>
    <Absolute>23091</Absolute>
    <NoteOn Channel="12" Note="48" Velocity="0"/>
  </Event>
  <Event>
    <Absolute>23091</Absolute>
    <NoteOn Channel="12" Note="57" Velocity="74"/>
  </Event>
  <Event>
    <Absolute>23111</Absolute>
    <NoteOn Channel="12" Note="53" Velocity="88"/>
  </Event>
  <Event>
    <Absolute>23115</Absolute>
    <NoteOn Channel="12" Note="47" Velocity="0"/>
  </Event>
  <Event>
    <Absolute>23116</Absolute>
    <NoteOn Channel="12" Note="56" Velocity="69"/>
  </Event>
  <Event>
    <Absolute>23127</Absolute>
    <NoteOn Channel="12" Note="57" Velocity="0"/>
  </Event>
  <Event>
    <Absolute>23131</Absolute>
    <NoteOn Channel="12" Note="52" Velocity="63"/>
  </Event>
  <Event>
    <Absolute>23134</Absolute>
    <NoteOn Channel="12" Note="56" Velocity="0"/>
  </Event>
  <Event>
    <Absolute>23134</Absolute>
    <NoteOn Channel="12" Note="53" Velocity="0"/>
  </Event>
  <Event>
    <Absolute>23135</Absolute>
    <NoteOn Channel="12" Note="59" Velocity="74"/>
  </Event>
  <Event>
    <Absolute>23151</Absolute>
    <NoteOn Channel="12" Note="48" Velocity="88"/>
  </Event>
  <Event>
    <Absolute>23153</Absolute>
    <NoteOn Channel="12" Note="64" Velocity="88"/>
  </Event>
  <Event>
    <Absolute>23154</Absolute>
    <NoteOn Channel="12" Note="59" Velocity="0"/>
  </Event>
  <Event>
    <Absolute>23158</Absolute>
    <NoteOn Channel="12" Note="52" Velocity="0"/>
  </Event>
  <Event>
    <Absolute>23164</Absolute>
    <NoteOn Channel="12" Note="64" Velocity="0"/>
  </Event>
  <Event>
    <Absolute>23166</Absolute>
    <NoteOn Channel="12" Note="48" Velocity="0"/>
  </Event>
  <Event>
    <Absolute>23171</Absolute>
    <NoteOn Channel="12" Note="41" Velocity="74"/>
  </Event>
  <Event>
    <Absolute>23175</Absolute>
    <NoteOn Channel="12" Note="64" Velocity="88"/>
  </Event>
  <Event>
    <Absolute>23191</Absolute>
    <NoteOn Channel="12" Note="44" Velocity="69"/>
  </Event>
  <Event>
    <Absolute>23192</Absolute>
    <NoteOn Channel="12" Note="64" Velocity="0"/>
  </Event>
  <Event>
    <Absolute>23195</Absolute>
    <NoteOn Channel="12" Note="60" Velocity="74"/>
  </Event>
  <Event>
    <Absolute>23198</Absolute>
    <NoteOn Channel="12" Note="41" Velocity="0"/>
  </Event>
  <Event>
    <Absolute>23211</Absolute>
    <NoteOn Channel="12" Note="47" Velocity="74"/>
  </Event>
  <Event>
    <Absolute>23212</Absolute>
    <NoteOn Channel="12" Note="44" Velocity="0"/>
  </Event>
  <Event>
    <Absolute>23212</Absolute>
    <NoteOn Channel="12" Note="59" Velocity="77"/>
  </Event>
  <Event>
    <Absolute>23215</Absolute>
    <NoteOn Channel="12" Note="60" Velocity="0"/>
  </Event>
  <Event>
    <Absolute>23232</Absolute>
    <NoteOn Channel="12" Note="59" Velocity="0"/>
  </Event>
  <Event>
    <Absolute>23232</Absolute>
    <NoteOn Channel="12" Note="47" Velocity="0"/>
  </Event>
  <Event>
    <Absolute>23232</Absolute>
    <NoteOn Channel="12" Note="48" Velocity="74"/>
  </Event>
  <Event>
    <Absolute>23234</Absolute>
    <NoteOn Channel="12" Note="56" Velocity="74"/>
  </Event>
  <Event>
    <Absolute>23250</Absolute>
    <NoteOn Channel="12" Note="48" Velocity="0"/>
  </Event>
  <Event>
    <Absolute>23251</Absolute>
    <NoteOn Channel="12" Note="47" Velocity="77"/>
  </Event>
  <Event>
    <Absolute>23255</Absolute>
    <NoteOn Channel="12" Note="64" Velocity="77"/>
  </Event>
  <Event>
    <Absolute>23258</Absolute>
    <NoteOn Channel="12" Note="56" Velocity="0"/>
  </Event>
  <Event>
    <Absolute>23271</Absolute>
    <NoteOn Channel="12" Note="48" Velocity="77"/>
  </Event>
  <Event>
    <Absolute>23271</Absolute>
    <NoteOn Channel="12" Note="68" Velocity="77"/>
  </Event>
  <Event>
    <Absolute>23272</Absolute>
    <NoteOn Channel="12" Note="47" Velocity="0"/>
  </Event>
  <Event>
    <Absolute>23273</Absolute>
    <NoteOn Channel="12" Note="64" Velocity="0"/>
  </Event>
  <Event>
    <Absolute>23282</Absolute>
    <NoteOn Channel="12" Note="68" Velocity="0"/>
  </Event>
  <Event>
    <Absolute>23291</Absolute>
    <NoteOn Channel="12" Note="48" Velocity="0"/>
  </Event>
  <Event>
    <Absolute>23532</Absolute>
    <NoteOn Channel="12" Note="53" Velocity="127"/>
  </Event>
  <Event>
    <Absolute>23532</Absolute>
    <NoteOn Channel="12" Note="61" Velocity="119"/>
  </Event>
  <Event>
    <Absolute>23534</Absolute>
    <NoteOn Channel="12" Note="38" Velocity="127"/>
  </Event>
  <Event>
    <Absolute>23534</Absolute>
    <NoteOn Channel="12" Note="49" Velocity="108"/>
  </Event>
  <Event>
    <Absolute>23558</Absolute>
    <NoteOn Channel="12" Note="53" Velocity="0"/>
  </Event>
  <Event>
    <Absolute>23560</Absolute>
    <NoteOn Channel="12" Note="61" Velocity="0"/>
  </Event>
  <Event>
    <Absolute>23562</Absolute>
    <NoteOn Channel="12" Note="38" Velocity="0"/>
  </Event>
  <Event>
    <Absolute>23562</Absolute>
    <NoteOn Channel="12" Note="49" Velocity="0"/>
  </Event>
  <Event>
    <Absolute>23772</Absolute>
    <NoteOn Channel="12" Note="53" Velocity="127"/>
  </Event>
  <Event>
    <Absolute>23772</Absolute>
    <NoteOn Channel="12" Note="61" Velocity="119"/>
  </Event>
  <Event>
    <Absolute>23774</Absolute>
    <NoteOn Channel="12" Note="49" Velocity="119"/>
  </Event>
  <Event>
    <Absolute>23776</Absolute>
    <NoteOn Channel="12" Note="38" Velocity="127"/>
  </Event>
  <Event>
    <Absolute>23797</Absolute>
    <NoteOn Channel="12" Note="38" Velocity="0"/>
  </Event>
  <Event>
    <Absolute>23799</Absolute>
    <NoteOn Channel="12" Note="53" Velocity="0"/>
  </Event>
  <Event>
    <Absolute>23800</Absolute>
    <NoteOn Channel="12" Note="61" Velocity="0"/>
  </Event>
  <Event>
    <Absolute>23802</Absolute>
    <NoteOn Channel="12" Note="49" Velocity="0"/>
  </Event>
  <Event>
    <Absolute>24013</Absolute>
    <NoteOn Channel="12" Note="53" Velocity="127"/>
  </Event>
  <Event>
    <Absolute>24013</Absolute>
    <NoteOn Channel="12" Note="61" Velocity="119"/>
  </Event>
  <Event>
    <Absolute>24015</Absolute>
    <NoteOn Channel="12" Note="49" Velocity="119"/>
  </Event>
  <Event>
    <Absolute>24015</Absolute>
    <NoteOn Channel="12" Note="38" Velocity="127"/>
  </Event>
  <Event>
    <Absolute>24020</Absolute>
    <NoteOn Channel="12" Note="25" Velocity="127"/>
  </Event>
  <Event>
    <Absolute>24033</Absolute>
    <NoteOn Channel="12" Note="53" Velocity="0"/>
  </Event>
  <Event>
    <Absolute>24035</Absolute>
    <NoteOn Channel="12" Note="61" Velocity="0"/>
  </Event>
  <Event>
    <Absolute>24040</Absolute>
    <NoteOn Channel="12" Note="38" Velocity="0"/>
  </Event>
  <Event>
    <Absolute>24043</Absolute>
    <NoteOn Channel="12" Note="49" Velocity="0"/>
  </Event>
  <Event>
    <Absolute>24096</Absolute>
    <NoteOn Channel="12" Note="25" Velocity="0"/>
  </Event>
  <Event>
    <Absolute>24096</Absolute>
    <EndOfTrack/>
  </Event>
</Track>
<Track Number="11">
  <Event>
    <Absolute>0</Absolute>
    <MIDIChannelPrefix Value="01"/>
  </Event>
  <Event>
    <Absolute>0</Absolute>
    <ProgramChange Channel="6" Number="47"/>
  </Event>
  <Event>
    <Absolute>0</Absolute>
    <ControlChange Channel="6" Control="7" Value="109"/>
  </Event>
  <Event>
    <Absolute>0</Absolute>
    <ControlChange Channel="6" Control="10" Value="50"/>
  </Event>
  <Event>
    <Absolute>10</Absolute>
    <ControlChange Channel="6" Control="18" Value="64"/>
  </Event>
  <Event>
    <Absolute>480</Absolute>
    <NoteOn Channel="6" Note="34" Velocity="72"/>
  </Event>
  <Event>
    <Absolute>480</Absolute>
    <NoteOn Channel="6" Note="46" Velocity="119"/>
  </Event>
  <Event>
    <Absolute>818</Absolute>
    <NoteOn Channel="6" Note="46" Velocity="0"/>
  </Event>
  <Event>
    <Absolute>818</Absolute>
    <NoteOn Channel="6" Note="34" Velocity="0"/>
  </Event>
  <Event>
    <Absolute>1840</Absolute>
    <NoteOn Channel="6" Note="41" Velocity="87"/>
  </Event>
  <Event>
    <Absolute>1873</Absolute>
    <NoteOn Channel="6" Note="41" Velocity="0"/>
  </Event>
  <Event>
    <Absolute>1903</Absolute>
    <NoteOn Channel="6" Note="41" Velocity="87"/>
  </Event>
  <Event>
    <Absolute>1931</Absolute>
    <NoteOn Channel="6" Note="41" Velocity="0"/>
  </Event>
  <Event>
    <Absolute>1963</Absolute>
    <NoteOn Channel="6" Note="41" Velocity="87"/>
  </Event>
  <Event>
    <Absolute>1994</Absolute>
    <NoteOn Channel="6" Note="41" Velocity="0"/>
  </Event>
  <Event>
    <Absolute>2121</Absolute>
    <NoteOn Channel="6" Note="46" Velocity="69"/>
  </Event>
  <Event>
    <Absolute>2131</Absolute>
    <NoteOn Channel="6" Note="46" Velocity="0"/>
  </Event>
  <Event>
    <Absolute>2140</Absolute>
    <NoteOn Channel="6" Note="46" Velocity="71"/>
  </Event>
  <Event>
    <Absolute>2149</Absolute>
    <NoteOn Channel="6" Note="46" Velocity="0"/>
  </Event>
  <Event>
    <Absolute>2160</Absolute>
    <NoteOn Channel="6" Note="46" Velocity="71"/>
  </Event>
  <Event>
    <Absolute>2310</Absolute>
    <NoteOn Channel="6" Note="46" Velocity="0"/>
  </Event>
  <Event>
    <Absolute>2342</Absolute>
    <NoteOn Channel="6" Note="46" Velocity="63"/>
  </Event>
  <Event>
    <Absolute>2350</Absolute>
    <NoteOn Channel="6" Note="46" Velocity="0"/>
  </Event>
  <Event>
    <Absolute>2360</Absolute>
    <NoteOn Channel="6" Note="46" Velocity="71"/>
  </Event>
  <Event>
    <Absolute>2368</Absolute>
    <NoteOn Channel="6" Note="46" Velocity="0"/>
  </Event>
  <Event>
    <Absolute>2377</Absolute>
    <NoteOn Channel="6" Note="46" Velocity="71"/>
  </Event>
  <Event>
    <Absolute>2387</Absolute>
    <NoteOn Channel="6" Note="46" Velocity="0"/>
  </Event>
  <Event>
    <Absolute>2403</Absolute>
    <NoteOn Channel="6" Note="46" Velocity="71"/>
  </Event>
  <Event>
    <Absolute>2426</Absolute>
    <NoteOn Channel="6" Note="46" Velocity="0"/>
  </Event>
  <Event>
    <Absolute>2461</Absolute>
    <NoteOn Channel="6" Note="41" Velocity="71"/>
  </Event>
  <Event>
    <Absolute>2484</Absolute>
    <NoteOn Channel="6" Note="41" Velocity="0"/>
  </Event>
  <Event>
    <Absolute>3573</Absolute>
    <NoteOn Channel="6" Note="29" Velocity="61"/>
  </Event>
  <Event>
    <Absolute>3579</Absolute>
    <NoteOn Channel="6" Note="29" Velocity="0"/>
  </Event>
  <Event>
    <Absolute>3581</Absolute>
    <NoteOn Channel="6" Note="29" Velocity="53"/>
  </Event>
  <Event>
    <Absolute>3587</Absolute>
    <NoteOn Channel="6" Note="29" Velocity="0"/>
  </Event>
  <Event>
    <Absolute>3590</Absolute>
    <NoteOn Channel="6" Note="29" Velocity="61"/>
  </Event>
  <Event>
    <Absolute>3595</Absolute>
    <NoteOn Channel="6" Note="29" Velocity="0"/>
  </Event>
  <Event>
    <Absolute>3600</Absolute>
    <NoteOn Channel="6" Note="29" Velocity="70"/>
  </Event>
  <Event>
    <Absolute>3660</Absolute>
    <NoteOn Channel="6" Note="29" Velocity="0"/>
  </Event>
  <Event>
    <Absolute>3780</Absolute>
    <NoteOn Channel="6" Note="29" Velocity="56"/>
  </Event>
  <Event>
    <Absolute>3790</Absolute>
    <NoteOn Channel="6" Note="29" Velocity="0"/>
  </Event>
  <Event>
    <Absolute>3795</Absolute>
    <NoteOn Channel="6" Note="29" Velocity="61"/>
  </Event>
  <Event>
    <Absolute>3803</Absolute>
    <NoteOn Channel="6" Note="29" Velocity="0"/>
  </Event>
  <Event>
    <Absolute>3815</Absolute>
    <NoteOn Channel="6" Note="29" Velocity="63"/>
  </Event>
  <Event>
    <Absolute>3823</Absolute>
    <NoteOn Channel="6" Note="29" Velocity="0"/>
  </Event>
  <Event>
    <Absolute>3840</Absolute>
    <NoteOn Channel="6" Note="29" Velocity="55"/>
  </Event>
  <Event>
    <Absolute>3861</Absolute>
    <NoteOn Channel="6" Note="29" Velocity="0"/>
  </Event>
  <Event>
    <Absolute>3900</Absolute>
    <NoteOn Channel="6" Note="29" Velocity="52"/>
  </Event>
  <Event>
    <Absolute>3923</Absolute>
    <NoteOn Channel="6" Note="29" Velocity="0"/>
  </Event>
  <Event>
    <Absolute>3958</Absolute>
    <NoteOn Channel="6" Note="34" Velocity="73"/>
  </Event>
  <Event>
    <Absolute>4063</Absolute>
    <NoteOn Channel="6" Note="34" Velocity="0"/>
  </Event>
  <Event>
    <Absolute>4076</Absolute>
    <NoteOn Channel="6" Note="33" Velocity="71"/>
  </Event>
  <Event>
    <Absolute>4173</Absolute>
    <NoteOn Channel="6" Note="33" Velocity="0"/>
  </Event>
  <Event>
    <Absolute>4197</Absolute>
    <NoteOn Channel="6" Note="33" Velocity="71"/>
  </Event>
  <Event>
    <Absolute>4266</Absolute>
    <NoteOn Channel="6" Note="33" Velocity="65"/>
  </Event>
  <Event>
    <Absolute>4272</Absolute>
    <NoteOn Channel="6" Note="33" Velocity="0"/>
  </Event>
  <Event>
    <Absolute>4319</Absolute>
    <NoteOn Channel="6" Note="34" Velocity="55"/>
  </Event>
  <Event>
    <Absolute>4335</Absolute>
    <NoteOn Channel="6" Note="33" Velocity="0"/>
  </Event>
  <Event>
    <Absolute>4337</Absolute>
    <NoteOn Channel="6" Note="34" Velocity="0"/>
  </Event>
  <Event>
    <Absolute>4358</Absolute>
    <NoteOn Channel="6" Note="34" Velocity="56"/>
  </Event>
  <Event>
    <Absolute>4376</Absolute>
    <NoteOn Channel="6" Note="34" Velocity="0"/>
  </Event>
  <Event>
    <Absolute>4391</Absolute>
    <NoteOn Channel="6" Note="33" Velocity="65"/>
  </Event>
  <Event>
    <Absolute>4413</Absolute>
    <NoteOn Channel="6" Note="33" Velocity="0"/>
  </Event>
  <Event>
    <Absolute>4438</Absolute>
    <NoteOn Channel="6" Note="31" Velocity="73"/>
  </Event>
  <Event>
    <Absolute>4546</Absolute>
    <NoteOn Channel="6" Note="31" Velocity="0"/>
  </Event>
  <Event>
    <Absolute>4560</Absolute>
    <NoteOn Channel="6" Note="31" Velocity="71"/>
  </Event>
  <Event>
    <Absolute>4641</Absolute>
    <NoteOn Channel="6" Note="31" Velocity="0"/>
  </Event>
  <Event>
    <Absolute>5397</Absolute>
    <NoteOn Channel="6" Note="53" Velocity="65"/>
  </Event>
  <Event>
    <Absolute>5398</Absolute>
    <NoteOn Channel="6" Note="41" Velocity="65"/>
  </Event>
  <Event>
    <Absolute>5484</Absolute>
    <NoteOn Channel="6" Note="53" Velocity="0"/>
  </Event>
  <Event>
    <Absolute>5491</Absolute>
    <NoteOn Channel="6" Note="41" Velocity="0"/>
  </Event>
  <Event>
    <Absolute>5511</Absolute>
    <NoteOn Channel="6" Note="29" Velocity="71"/>
  </Event>
  <Event>
    <Absolute>5512</Absolute>
    <NoteOn Channel="6" Note="41" Velocity="71"/>
  </Event>
  <Event>
    <Absolute>5530</Absolute>
    <NoteOn Channel="6" Note="41" Velocity="0"/>
  </Event>
  <Event>
    <Absolute>5531</Absolute>
    <NoteOn Channel="6" Note="29" Velocity="0"/>
  </Event>
  <Event>
    <Absolute>5547</Absolute>
    <NoteOn Channel="6" Note="29" Velocity="73"/>
  </Event>
  <Event>
    <Absolute>5550</Absolute>
    <NoteOn Channel="6" Note="41" Velocity="62"/>
  </Event>
  <Event>
    <Absolute>5566</Absolute>
    <NoteOn Channel="6" Note="29" Velocity="0"/>
  </Event>
  <Event>
    <Absolute>5568</Absolute>
    <NoteOn Channel="6" Note="41" Velocity="0"/>
  </Event>
  <Event>
    <Absolute>5585</Absolute>
    <NoteOn Channel="6" Note="29" Velocity="71"/>
  </Event>
  <Event>
    <Absolute>5587</Absolute>
    <NoteOn Channel="6" Note="41" Velocity="62"/>
  </Event>
  <Event>
    <Absolute>5605</Absolute>
    <NoteOn Channel="6" Note="29" Velocity="0"/>
  </Event>
  <Event>
    <Absolute>5609</Absolute>
    <NoteOn Channel="6" Note="41" Velocity="0"/>
  </Event>
  <Event>
    <Absolute>5631</Absolute>
    <NoteOn Channel="6" Note="29" Velocity="73"/>
  </Event>
  <Event>
    <Absolute>5633</Absolute>
    <NoteOn Channel="6" Note="41" Velocity="71"/>
  </Event>
  <Event>
    <Absolute>5736</Absolute>
    <NoteOn Channel="6" Note="41" Velocity="0"/>
  </Event>
  <Event>
    <Absolute>5736</Absolute>
    <NoteOn Channel="6" Note="29" Velocity="0"/>
  </Event>
  <Event>
    <Absolute>9240</Absolute>
    <NoteOn Channel="6" Note="41" Velocity="118"/>
  </Event>
  <Event>
    <Absolute>9259</Absolute>
    <NoteOn Channel="6" Note="41" Velocity="0"/>
  </Event>
  <Event>
    <Absolute>9330</Absolute>
    <NoteOn Channel="6" Note="41" Velocity="62"/>
  </Event>
  <Event>
    <Absolute>9353</Absolute>
    <NoteOn Channel="6" Note="41" Velocity="0"/>
  </Event>
  <Event>
    <Absolute>9360</Absolute>
    <NoteOn Channel="6" Note="41" Velocity="111"/>
  </Event>
  <Event>
    <Absolute>9380</Absolute>
    <NoteOn Channel="6" Note="41" Velocity="0"/>
  </Event>
  <Event>
    <Absolute>9450</Absolute>
    <NoteOn Channel="6" Note="41" Velocity="62"/>
  </Event>
  <Event>
    <Absolute>9469</Absolute>
    <NoteOn Channel="6" Note="41" Velocity="0"/>
  </Event>
  <Event>
    <Absolute>9480</Absolute>
    <NoteOn Channel="6" Note="41" Velocity="105"/>
  </Event>
  <Event>
    <Absolute>9498</Absolute>
    <NoteOn Channel="6" Note="41" Velocity="0"/>
  </Event>
  <Event>
    <Absolute>9510</Absolute>
    <NoteOn Channel="6" Note="41" Velocity="72"/>
  </Event>
  <Event>
    <Absolute>9529</Absolute>
    <NoteOn Channel="6" Note="41" Velocity="0"/>
  </Event>
  <Event>
    <Absolute>9540</Absolute>
    <NoteOn Channel="6" Note="41" Velocity="99"/>
  </Event>
  <Event>
    <Absolute>9556</Absolute>
    <NoteOn Channel="6" Note="41" Velocity="0"/>
  </Event>
  <Event>
    <Absolute>9570</Absolute>
    <NoteOn Channel="6" Note="41" Velocity="69"/>
  </Event>
  <Event>
    <Absolute>9591</Absolute>
    <NoteOn Channel="6" Note="41" Velocity="0"/>
  </Event>
  <Event>
    <Absolute>9600</Absolute>
    <NoteOn Channel="6" Note="41" Velocity="105"/>
  </Event>
  <Event>
    <Absolute>9620</Absolute>
    <NoteOn Channel="6" Note="41" Velocity="0"/>
  </Event>
  <Event>
    <Absolute>9690</Absolute>
    <NoteOn Channel="6" Note="41" Velocity="68"/>
  </Event>
  <Event>
    <Absolute>9712</Absolute>
    <NoteOn Channel="6" Note="41" Velocity="0"/>
  </Event>
  <Event>
    <Absolute>9720</Absolute>
    <NoteOn Channel="6" Note="41" Velocity="113"/>
  </Event>
  <Event>
    <Absolute>9741</Absolute>
    <NoteOn Channel="6" Note="41" Velocity="0"/>
  </Event>
  <Event>
    <Absolute>9810</Absolute>
    <NoteOn Channel="6" Note="41" Velocity="73"/>
  </Event>
  <Event>
    <Absolute>9830</Absolute>
    <NoteOn Channel="6" Note="41" Velocity="0"/>
  </Event>
  <Event>
    <Absolute>9840</Absolute>
    <NoteOn Channel="6" Note="41" Velocity="108"/>
  </Event>
  <Event>
    <Absolute>9859</Absolute>
    <NoteOn Channel="6" Note="41" Velocity="0"/>
  </Event>
  <Event>
    <Absolute>9870</Absolute>
    <NoteOn Channel="6" Note="41" Velocity="68"/>
  </Event>
  <Event>
    <Absolute>9890</Absolute>
    <NoteOn Channel="6" Note="41" Velocity="0"/>
  </Event>
  <Event>
    <Absolute>9900</Absolute>
    <NoteOn Channel="6" Note="41" Velocity="104"/>
  </Event>
  <Event>
    <Absolute>9915</Absolute>
    <NoteOn Channel="6" Note="41" Velocity="0"/>
  </Event>
  <Event>
    <Absolute>9930</Absolute>
    <NoteOn Channel="6" Note="41" Velocity="68"/>
  </Event>
  <Event>
    <Absolute>9951</Absolute>
    <NoteOn Channel="6" Note="41" Velocity="0"/>
  </Event>
  <Event>
    <Absolute>9960</Absolute>
    <NoteOn Channel="6" Note="41" Velocity="106"/>
  </Event>
  <Event>
    <Absolute>9980</Absolute>
    <NoteOn Channel="6" Note="41" Velocity="0"/>
  </Event>
  <Event>
    <Absolute>10050</Absolute>
    <NoteOn Channel="6" Note="41" Velocity="72"/>
  </Event>
  <Event>
    <Absolute>10070</Absolute>
    <NoteOn Channel="6" Note="41" Velocity="0"/>
  </Event>
  <Event>
    <Absolute>10080</Absolute>
    <NoteOn Channel="6" Note="41" Velocity="111"/>
  </Event>
  <Event>
    <Absolute>10101</Absolute>
    <NoteOn Channel="6" Note="41" Velocity="0"/>
  </Event>
  <Event>
    <Absolute>10170</Absolute>
    <NoteOn Channel="6" Note="41" Velocity="65"/>
  </Event>
  <Event>
    <Absolute>10191</Absolute>
    <NoteOn Channel="6" Note="41" Velocity="0"/>
  </Event>
  <Event>
    <Absolute>10200</Absolute>
    <NoteOn Channel="6" Note="41" Velocity="106"/>
  </Event>
  <Event>
    <Absolute>10220</Absolute>
    <NoteOn Channel="6" Note="41" Velocity="0"/>
  </Event>
  <Event>
    <Absolute>10230</Absolute>
    <NoteOn Channel="6" Note="41" Velocity="71"/>
  </Event>
  <Event>
    <Absolute>10246</Absolute>
    <NoteOn Channel="6" Note="41" Velocity="0"/>
  </Event>
  <Event>
    <Absolute>10260</Absolute>
    <NoteOn Channel="6" Note="41" Velocity="102"/>
  </Event>
  <Event>
    <Absolute>10279</Absolute>
    <NoteOn Channel="6" Note="41" Velocity="0"/>
  </Event>
  <Event>
    <Absolute>10290</Absolute>
    <NoteOn Channel="6" Note="41" Velocity="71"/>
  </Event>
  <Event>
    <Absolute>10308</Absolute>
    <NoteOn Channel="6" Note="41" Velocity="0"/>
  </Event>
  <Event>
    <Absolute>10320</Absolute>
    <NoteOn Channel="6" Note="41" Velocity="105"/>
  </Event>
  <Event>
    <Absolute>10343</Absolute>
    <NoteOn Channel="6" Note="41" Velocity="0"/>
  </Event>
  <Event>
    <Absolute>10410</Absolute>
    <NoteOn Channel="6" Note="41" Velocity="78"/>
  </Event>
  <Event>
    <Absolute>10432</Absolute>
    <NoteOn Channel="6" Note="41" Velocity="0"/>
  </Event>
  <Event>
    <Absolute>10440</Absolute>
    <NoteOn Channel="6" Note="41" Velocity="111"/>
  </Event>
  <Event>
    <Absolute>10461</Absolute>
    <NoteOn Channel="6" Note="41" Velocity="0"/>
  </Event>
  <Event>
    <Absolute>10530</Absolute>
    <NoteOn Channel="6" Note="41" Velocity="73"/>
  </Event>
  <Event>
    <Absolute>10549</Absolute>
    <NoteOn Channel="6" Note="41" Velocity="0"/>
  </Event>
  <Event>
    <Absolute>10560</Absolute>
    <NoteOn Channel="6" Note="41" Velocity="105"/>
  </Event>
  <Event>
    <Absolute>10579</Absolute>
    <NoteOn Channel="6" Note="41" Velocity="0"/>
  </Event>
  <Event>
    <Absolute>10590</Absolute>
    <NoteOn Channel="6" Note="41" Velocity="73"/>
  </Event>
  <Event>
    <Absolute>10612</Absolute>
    <NoteOn Channel="6" Note="41" Velocity="0"/>
  </Event>
  <Event>
    <Absolute>10620</Absolute>
    <NoteOn Channel="6" Note="41" Velocity="94"/>
  </Event>
  <Event>
    <Absolute>10635</Absolute>
    <NoteOn Channel="6" Note="41" Velocity="0"/>
  </Event>
  <Event>
    <Absolute>10650</Absolute>
    <NoteOn Channel="6" Note="41" Velocity="77"/>
  </Event>
  <Event>
    <Absolute>10673</Absolute>
    <NoteOn Channel="6" Note="41" Velocity="0"/>
  </Event>
  <Event>
    <Absolute>10680</Absolute>
    <NoteOn Channel="6" Note="41" Velocity="107"/>
  </Event>
  <Event>
    <Absolute>10703</Absolute>
    <NoteOn Channel="6" Note="41" Velocity="0"/>
  </Event>
  <Event>
    <Absolute>10770</Absolute>
    <NoteOn Channel="6" Note="41" Velocity="73"/>
  </Event>
  <Event>
    <Absolute>10792</Absolute>
    <NoteOn Channel="6" Note="41" Velocity="0"/>
  </Event>
  <Event>
    <Absolute>10800</Absolute>
    <NoteOn Channel="6" Note="41" Velocity="107"/>
  </Event>
  <Event>
    <Absolute>10822</Absolute>
    <NoteOn Channel="6" Note="41" Velocity="0"/>
  </Event>
  <Event>
    <Absolute>10890</Absolute>
    <NoteOn Channel="6" Note="41" Velocity="68"/>
  </Event>
  <Event>
    <Absolute>10911</Absolute>
    <NoteOn Channel="6" Note="41" Velocity="0"/>
  </Event>
  <Event>
    <Absolute>10920</Absolute>
    <NoteOn Channel="6" Note="41" Velocity="105"/>
  </Event>
  <Event>
    <Absolute>10940</Absolute>
    <NoteOn Channel="6" Note="41" Velocity="0"/>
  </Event>
  <Event>
    <Absolute>10950</Absolute>
    <NoteOn Channel="6" Note="41" Velocity="71"/>
  </Event>
  <Event>
    <Absolute>10960</Absolute>
    <NoteOn Channel="6" Note="41" Velocity="0"/>
  </Event>
  <Event>
    <Absolute>10980</Absolute>
    <NoteOn Channel="6" Note="41" Velocity="102"/>
  </Event>
  <Event>
    <Absolute>10999</Absolute>
    <NoteOn Channel="6" Note="41" Velocity="0"/>
  </Event>
  <Event>
    <Absolute>11010</Absolute>
    <NoteOn Channel="6" Note="41" Velocity="68"/>
  </Event>
  <Event>
    <Absolute>11029</Absolute>
    <NoteOn Channel="6" Note="41" Velocity="0"/>
  </Event>
  <Event>
    <Absolute>11040</Absolute>
    <NoteOn Channel="6" Note="41" Velocity="111"/>
  </Event>
  <Event>
    <Absolute>11065</Absolute>
    <NoteOn Channel="6" Note="41" Velocity="0"/>
  </Event>
  <Event>
    <Absolute>11130</Absolute>
    <NoteOn Channel="6" Note="41" Velocity="73"/>
  </Event>
  <Event>
    <Absolute>11154</Absolute>
    <NoteOn Channel="6" Note="41" Velocity="0"/>
  </Event>
  <Event>
    <Absolute>11160</Absolute>
    <NoteOn Channel="6" Note="41" Velocity="112"/>
  </Event>
  <Event>
    <Absolute>11183</Absolute>
    <NoteOn Channel="6" Note="41" Velocity="0"/>
  </Event>
  <Event>
    <Absolute>11250</Absolute>
    <NoteOn Channel="6" Note="41" Velocity="65"/>
  </Event>
  <Event>
    <Absolute>11269</Absolute>
    <NoteOn Channel="6" Note="41" Velocity="0"/>
  </Event>
  <Event>
    <Absolute>11280</Absolute>
    <NoteOn Channel="6" Note="41" Velocity="106"/>
  </Event>
  <Event>
    <Absolute>11301</Absolute>
    <NoteOn Channel="6" Note="41" Velocity="0"/>
  </Event>
  <Event>
    <Absolute>11310</Absolute>
    <NoteOn Channel="6" Note="41" Velocity="78"/>
  </Event>
  <Event>
    <Absolute>11329</Absolute>
    <NoteOn Channel="6" Note="41" Velocity="0"/>
  </Event>
  <Event>
    <Absolute>11340</Absolute>
    <NoteOn Channel="6" Note="41" Velocity="107"/>
  </Event>
  <Event>
    <Absolute>11356</Absolute>
    <NoteOn Channel="6" Note="41" Velocity="0"/>
  </Event>
  <Event>
    <Absolute>11370</Absolute>
    <NoteOn Channel="6" Note="41" Velocity="78"/>
  </Event>
  <Event>
    <Absolute>11396</Absolute>
    <NoteOn Channel="6" Note="41" Velocity="0"/>
  </Event>
  <Event>
    <Absolute>11400</Absolute>
    <NoteOn Channel="6" Note="41" Velocity="106"/>
  </Event>
  <Event>
    <Absolute>11423</Absolute>
    <NoteOn Channel="6" Note="41" Velocity="0"/>
  </Event>
  <Event>
    <Absolute>11490</Absolute>
    <NoteOn Channel="6" Note="41" Velocity="73"/>
  </Event>
  <Event>
    <Absolute>11510</Absolute>
    <NoteOn Channel="6" Note="41" Velocity="0"/>
  </Event>
  <Event>
    <Absolute>11520</Absolute>
    <NoteOn Channel="6" Note="41" Velocity="107"/>
  </Event>
  <Event>
    <Absolute>11541</Absolute>
    <NoteOn Channel="6" Note="41" Velocity="0"/>
  </Event>
  <Event>
    <Absolute>11610</Absolute>
    <NoteOn Channel="6" Note="41" Velocity="79"/>
  </Event>
  <Event>
    <Absolute>11633</Absolute>
    <NoteOn Channel="6" Note="41" Velocity="0"/>
  </Event>
  <Event>
    <Absolute>11640</Absolute>
    <NoteOn Channel="6" Note="41" Velocity="112"/>
  </Event>
  <Event>
    <Absolute>11659</Absolute>
    <NoteOn Channel="6" Note="41" Velocity="0"/>
  </Event>
  <Event>
    <Absolute>11670</Absolute>
    <NoteOn Channel="6" Note="41" Velocity="82"/>
  </Event>
  <Event>
    <Absolute>11686</Absolute>
    <NoteOn Channel="6" Note="41" Velocity="0"/>
  </Event>
  <Event>
    <Absolute>11700</Absolute>
    <NoteOn Channel="6" Note="41" Velocity="106"/>
  </Event>
  <Event>
    <Absolute>11718</Absolute>
    <NoteOn Channel="6" Note="41" Velocity="0"/>
  </Event>
  <Event>
    <Absolute>11730</Absolute>
    <NoteOn Channel="6" Note="41" Velocity="95"/>
  </Event>
  <Event>
    <Absolute>11753</Absolute>
    <NoteOn Channel="6" Note="41" Velocity="0"/>
  </Event>
  <Event>
    <Absolute>11760</Absolute>
    <NoteOn Channel="6" Note="41" Velocity="87"/>
  </Event>
  <Event>
    <Absolute>11776</Absolute>
    <NoteOn Channel="6" Note="41" Velocity="0"/>
  </Event>
  <Event>
    <Absolute>11790</Absolute>
    <NoteOn Channel="6" Note="41" Velocity="76"/>
  </Event>
  <Event>
    <Absolute>11810</Absolute>
    <NoteOn Channel="6" Note="41" Velocity="0"/>
  </Event>
  <Event>
    <Absolute>11820</Absolute>
    <NoteOn Channel="6" Note="41" Velocity="86"/>
  </Event>
  <Event>
    <Absolute>11838</Absolute>
    <NoteOn Channel="6" Note="41" Velocity="0"/>
  </Event>
  <Event>
    <Absolute>11850</Absolute>
    <NoteOn Channel="6" Note="41" Velocity="77"/>
  </Event>
  <Event>
    <Absolute>11868</Absolute>
    <NoteOn Channel="6" Note="41" Velocity="0"/>
  </Event>
  <Event>
    <Absolute>11880</Absolute>
    <NoteOn Channel="6" Note="36" Velocity="88"/>
  </Event>
  <Event>
    <Absolute>11896</Absolute>
    <NoteOn Channel="6" Note="36" Velocity="0"/>
  </Event>
  <Event>
    <Absolute>11910</Absolute>
    <NoteOn Channel="6" Note="36" Velocity="82"/>
  </Event>
  <Event>
    <Absolute>11927</Absolute>
    <NoteOn Channel="6" Note="36" Velocity="0"/>
  </Event>
  <Event>
    <Absolute>11940</Absolute>
    <NoteOn Channel="6" Note="36" Velocity="95"/>
  </Event>
  <Event>
    <Absolute>11955</Absolute>
    <NoteOn Channel="6" Note="36" Velocity="0"/>
  </Event>
  <Event>
    <Absolute>11970</Absolute>
    <NoteOn Channel="6" Note="36" Velocity="86"/>
  </Event>
  <Event>
    <Absolute>11990</Absolute>
    <NoteOn Channel="6" Note="36" Velocity="0"/>
  </Event>
  <Event>
    <Absolute>11995</Absolute>
    <NoteOn Channel="6" Note="43" Velocity="119"/>
  </Event>
  <Event>
    <Absolute>12032</Absolute>
    <NoteOn Channel="6" Note="43" Velocity="0"/>
  </Event>
  <Event>
    <Absolute>12090</Absolute>
    <NoteOn Channel="6" Note="43" Velocity="87"/>
  </Event>
  <Event>
    <Absolute>12103</Absolute>
    <NoteOn Channel="6" Note="43" Velocity="0"/>
  </Event>
  <Event>
    <Absolute>12120</Absolute>
    <NoteOn Channel="6" Note="43" Velocity="108"/>
  </Event>
  <Event>
    <Absolute>12155</Absolute>
    <NoteOn Channel="6" Note="43" Velocity="0"/>
  </Event>
  <Event>
    <Absolute>12210</Absolute>
    <NoteOn Channel="6" Note="43" Velocity="87"/>
  </Event>
  <Event>
    <Absolute>12223</Absolute>
    <NoteOn Channel="6" Note="43" Velocity="0"/>
  </Event>
  <Event>
    <Absolute>12240</Absolute>
    <NoteOn Channel="6" Note="43" Velocity="116"/>
  </Event>
  <Event>
    <Absolute>12270</Absolute>
    <NoteOn Channel="6" Note="43" Velocity="0"/>
  </Event>
  <Event>
    <Absolute>12330</Absolute>
    <NoteOn Channel="6" Note="43" Velocity="88"/>
  </Event>
  <Event>
    <Absolute>12345</Absolute>
    <NoteOn Channel="6" Note="43" Velocity="0"/>
  </Event>
  <Event>
    <Absolute>12360</Absolute>
    <NoteOn Channel="6" Note="43" Velocity="112"/>
  </Event>
  <Event>
    <Absolute>12380</Absolute>
    <NoteOn Channel="6" Note="43" Velocity="0"/>
  </Event>
  <Event>
    <Absolute>12390</Absolute>
    <NoteOn Channel="6" Note="43" Velocity="88"/>
  </Event>
  <Event>
    <Absolute>12396</Absolute>
    <NoteOn Channel="6" Note="43" Velocity="0"/>
  </Event>
  <Event>
    <Absolute>12420</Absolute>
    <NoteOn Channel="6" Note="43" Velocity="107"/>
  </Event>
  <Event>
    <Absolute>12435</Absolute>
    <NoteOn Channel="6" Note="43" Velocity="0"/>
  </Event>
  <Event>
    <Absolute>12450</Absolute>
    <NoteOn Channel="6" Note="43" Velocity="96"/>
  </Event>
  <Event>
    <Absolute>12468</Absolute>
    <NoteOn Channel="6" Note="43" Velocity="0"/>
  </Event>
  <Event>
    <Absolute>12480</Absolute>
    <NoteOn Channel="6" Note="43" Velocity="116"/>
  </Event>
  <Event>
    <Absolute>12507</Absolute>
    <NoteOn Channel="6" Note="43" Velocity="0"/>
  </Event>
  <Event>
    <Absolute>12570</Absolute>
    <NoteOn Channel="6" Note="43" Velocity="94"/>
  </Event>
  <Event>
    <Absolute>12580</Absolute>
    <NoteOn Channel="6" Note="43" Velocity="0"/>
  </Event>
  <Event>
    <Absolute>12600</Absolute>
    <NoteOn Channel="6" Note="43" Velocity="112"/>
  </Event>
  <Event>
    <Absolute>12621</Absolute>
    <NoteOn Channel="6" Note="43" Velocity="0"/>
  </Event>
  <Event>
    <Absolute>12690</Absolute>
    <NoteOn Channel="6" Note="43" Velocity="87"/>
  </Event>
  <Event>
    <Absolute>12706</Absolute>
    <NoteOn Channel="6" Note="43" Velocity="0"/>
  </Event>
  <Event>
    <Absolute>12720</Absolute>
    <NoteOn Channel="6" Note="43" Velocity="112"/>
  </Event>
  <Event>
    <Absolute>12737</Absolute>
    <NoteOn Channel="6" Note="43" Velocity="0"/>
  </Event>
  <Event>
    <Absolute>12750</Absolute>
    <NoteOn Channel="6" Note="43" Velocity="86"/>
  </Event>
  <Event>
    <Absolute>12766</Absolute>
    <NoteOn Channel="6" Note="43" Velocity="0"/>
  </Event>
  <Event>
    <Absolute>12780</Absolute>
    <NoteOn Channel="6" Note="43" Velocity="105"/>
  </Event>
  <Event>
    <Absolute>12788</Absolute>
    <NoteOn Channel="6" Note="43" Velocity="0"/>
  </Event>
  <Event>
    <Absolute>12810</Absolute>
    <NoteOn Channel="6" Note="43" Velocity="89"/>
  </Event>
  <Event>
    <Absolute>12833</Absolute>
    <NoteOn Channel="6" Note="43" Velocity="0"/>
  </Event>
  <Event>
    <Absolute>12840</Absolute>
    <NoteOn Channel="6" Note="43" Velocity="116"/>
  </Event>
  <Event>
    <Absolute>12861</Absolute>
    <NoteOn Channel="6" Note="43" Velocity="0"/>
  </Event>
  <Event>
    <Absolute>12930</Absolute>
    <NoteOn Channel="6" Note="43" Velocity="89"/>
  </Event>
  <Event>
    <Absolute>12948</Absolute>
    <NoteOn Channel="6" Note="43" Velocity="0"/>
  </Event>
  <Event>
    <Absolute>12960</Absolute>
    <NoteOn Channel="6" Note="43" Velocity="112"/>
  </Event>
  <Event>
    <Absolute>12977</Absolute>
    <NoteOn Channel="6" Note="43" Velocity="0"/>
  </Event>
  <Event>
    <Absolute>13050</Absolute>
    <NoteOn Channel="6" Note="43" Velocity="80"/>
  </Event>
  <Event>
    <Absolute>13063</Absolute>
    <NoteOn Channel="6" Note="43" Velocity="0"/>
  </Event>
  <Event>
    <Absolute>13080</Absolute>
    <NoteOn Channel="6" Note="43" Velocity="112"/>
  </Event>
  <Event>
    <Absolute>13095</Absolute>
    <NoteOn Channel="6" Note="43" Velocity="0"/>
  </Event>
  <Event>
    <Absolute>13110</Absolute>
    <NoteOn Channel="6" Note="43" Velocity="80"/>
  </Event>
  <Event>
    <Absolute>13124</Absolute>
    <NoteOn Channel="6" Note="43" Velocity="0"/>
  </Event>
  <Event>
    <Absolute>13140</Absolute>
    <NoteOn Channel="6" Note="43" Velocity="107"/>
  </Event>
  <Event>
    <Absolute>13151</Absolute>
    <NoteOn Channel="6" Note="43" Velocity="0"/>
  </Event>
  <Event>
    <Absolute>13170</Absolute>
    <NoteOn Channel="6" Note="43" Velocity="87"/>
  </Event>
  <Event>
    <Absolute>13191</Absolute>
    <NoteOn Channel="6" Note="43" Velocity="0"/>
  </Event>
  <Event>
    <Absolute>13200</Absolute>
    <NoteOn Channel="6" Note="43" Velocity="115"/>
  </Event>
  <Event>
    <Absolute>13226</Absolute>
    <NoteOn Channel="6" Note="43" Velocity="0"/>
  </Event>
  <Event>
    <Absolute>13290</Absolute>
    <NoteOn Channel="6" Note="43" Velocity="78"/>
  </Event>
  <Event>
    <Absolute>13308</Absolute>
    <NoteOn Channel="6" Note="43" Velocity="0"/>
  </Event>
  <Event>
    <Absolute>13320</Absolute>
    <NoteOn Channel="6" Note="43" Velocity="106"/>
  </Event>
  <Event>
    <Absolute>13348</Absolute>
    <NoteOn Channel="6" Note="43" Velocity="0"/>
  </Event>
  <Event>
    <Absolute>13410</Absolute>
    <NoteOn Channel="6" Note="43" Velocity="83"/>
  </Event>
  <Event>
    <Absolute>13430</Absolute>
    <NoteOn Channel="6" Note="43" Velocity="0"/>
  </Event>
  <Event>
    <Absolute>13440</Absolute>
    <NoteOn Channel="6" Note="43" Velocity="108"/>
  </Event>
  <Event>
    <Absolute>13460</Absolute>
    <NoteOn Channel="6" Note="43" Velocity="0"/>
  </Event>
  <Event>
    <Absolute>13470</Absolute>
    <NoteOn Channel="6" Note="43" Velocity="85"/>
  </Event>
  <Event>
    <Absolute>13477</Absolute>
    <NoteOn Channel="6" Note="43" Velocity="0"/>
  </Event>
  <Event>
    <Absolute>13500</Absolute>
    <NoteOn Channel="6" Note="43" Velocity="108"/>
  </Event>
  <Event>
    <Absolute>13516</Absolute>
    <NoteOn Channel="6" Note="43" Velocity="0"/>
  </Event>
  <Event>
    <Absolute>13530</Absolute>
    <NoteOn Channel="6" Note="43" Velocity="86"/>
  </Event>
  <Event>
    <Absolute>13551</Absolute>
    <NoteOn Channel="6" Note="43" Velocity="0"/>
  </Event>
  <Event>
    <Absolute>13560</Absolute>
    <NoteOn Channel="6" Note="43" Velocity="117"/>
  </Event>
  <Event>
    <Absolute>13595</Absolute>
    <NoteOn Channel="6" Note="43" Velocity="0"/>
  </Event>
  <Event>
    <Absolute>13650</Absolute>
    <NoteOn Channel="6" Note="43" Velocity="88"/>
  </Event>
  <Event>
    <Absolute>13670</Absolute>
    <NoteOn Channel="6" Note="43" Velocity="0"/>
  </Event>
  <Event>
    <Absolute>13680</Absolute>
    <NoteOn Channel="6" Note="43" Velocity="106"/>
  </Event>
  <Event>
    <Absolute>13707</Absolute>
    <NoteOn Channel="6" Note="43" Velocity="0"/>
  </Event>
  <Event>
    <Absolute>13770</Absolute>
    <NoteOn Channel="6" Note="43" Velocity="88"/>
  </Event>
  <Event>
    <Absolute>13790</Absolute>
    <NoteOn Channel="6" Note="43" Velocity="0"/>
  </Event>
  <Event>
    <Absolute>13800</Absolute>
    <NoteOn Channel="6" Note="43" Velocity="108"/>
  </Event>
  <Event>
    <Absolute>13818</Absolute>
    <NoteOn Channel="6" Note="43" Velocity="0"/>
  </Event>
  <Event>
    <Absolute>13830</Absolute>
    <NoteOn Channel="6" Note="43" Velocity="95"/>
  </Event>
  <Event>
    <Absolute>13846</Absolute>
    <NoteOn Channel="6" Note="43" Velocity="0"/>
  </Event>
  <Event>
    <Absolute>13860</Absolute>
    <NoteOn Channel="6" Note="43" Velocity="115"/>
  </Event>
  <Event>
    <Absolute>13875</Absolute>
    <NoteOn Channel="6" Note="43" Velocity="0"/>
  </Event>
  <Event>
    <Absolute>13890</Absolute>
    <NoteOn Channel="6" Note="43" Velocity="96"/>
  </Event>
  <Event>
    <Absolute>13908</Absolute>
    <NoteOn Channel="6" Note="43" Velocity="0"/>
  </Event>
  <Event>
    <Absolute>13920</Absolute>
    <NoteOn Channel="6" Note="43" Velocity="112"/>
  </Event>
  <Event>
    <Absolute>13944</Absolute>
    <NoteOn Channel="6" Note="43" Velocity="0"/>
  </Event>
  <Event>
    <Absolute>14286</Absolute>
    <NoteOn Channel="6" Note="39" Velocity="119"/>
  </Event>
  <Event>
    <Absolute>14298</Absolute>
    <NoteOn Channel="6" Note="39" Velocity="0"/>
  </Event>
  <Event>
    <Absolute>14306</Absolute>
    <NoteOn Channel="6" Note="39" Velocity="119"/>
  </Event>
  <Event>
    <Absolute>14318</Absolute>
    <NoteOn Channel="6" Note="39" Velocity="0"/>
  </Event>
  <Event>
    <Absolute>14328</Absolute>
    <NoteOn Channel="6" Note="39" Velocity="119"/>
  </Event>
  <Event>
    <Absolute>14343</Absolute>
    <NoteOn Channel="6" Note="39" Velocity="0"/>
  </Event>
  <Event>
    <Absolute>14347</Absolute>
    <NoteOn Channel="6" Note="39" Velocity="119"/>
  </Event>
  <Event>
    <Absolute>14359</Absolute>
    <NoteOn Channel="6" Note="39" Velocity="0"/>
  </Event>
  <Event>
    <Absolute>14770</Absolute>
    <NoteOn Channel="6" Note="39" Velocity="119"/>
  </Event>
  <Event>
    <Absolute>14783</Absolute>
    <NoteOn Channel="6" Note="39" Velocity="0"/>
  </Event>
  <Event>
    <Absolute>14790</Absolute>
    <NoteOn Channel="6" Note="39" Velocity="119"/>
  </Event>
  <Event>
    <Absolute>14802</Absolute>
    <NoteOn Channel="6" Note="39" Velocity="0"/>
  </Event>
  <Event>
    <Absolute>14812</Absolute>
    <NoteOn Channel="6" Note="39" Velocity="119"/>
  </Event>
  <Event>
    <Absolute>14827</Absolute>
    <NoteOn Channel="6" Note="39" Velocity="0"/>
  </Event>
  <Event>
    <Absolute>14833</Absolute>
    <NoteOn Channel="6" Note="39" Velocity="119"/>
  </Event>
  <Event>
    <Absolute>14845</Absolute>
    <NoteOn Channel="6" Note="39" Velocity="0"/>
  </Event>
  <Event>
    <Absolute>15246</Absolute>
    <NoteOn Channel="6" Note="39" Velocity="119"/>
  </Event>
  <Event>
    <Absolute>15260</Absolute>
    <NoteOn Channel="6" Note="39" Velocity="0"/>
  </Event>
  <Event>
    <Absolute>15271</Absolute>
    <NoteOn Channel="6" Note="39" Velocity="119"/>
  </Event>
  <Event>
    <Absolute>15281</Absolute>
    <NoteOn Channel="6" Note="39" Velocity="0"/>
  </Event>
  <Event>
    <Absolute>15292</Absolute>
    <NoteOn Channel="6" Note="39" Velocity="119"/>
  </Event>
  <Event>
    <Absolute>15304</Absolute>
    <NoteOn Channel="6" Note="39" Velocity="0"/>
  </Event>
  <Event>
    <Absolute>15311</Absolute>
    <NoteOn Channel="6" Note="39" Velocity="119"/>
  </Event>
  <Event>
    <Absolute>15321</Absolute>
    <NoteOn Channel="6" Note="39" Velocity="0"/>
  </Event>
  <Event>
    <Absolute>15727</Absolute>
    <NoteOn Channel="6" Note="39" Velocity="119"/>
  </Event>
  <Event>
    <Absolute>15740</Absolute>
    <NoteOn Channel="6" Note="39" Velocity="0"/>
  </Event>
  <Event>
    <Absolute>15748</Absolute>
    <NoteOn Channel="6" Note="39" Velocity="119"/>
  </Event>
  <Event>
    <Absolute>15761</Absolute>
    <NoteOn Channel="6" Note="39" Velocity="0"/>
  </Event>
  <Event>
    <Absolute>15771</Absolute>
    <NoteOn Channel="6" Note="39" Velocity="119"/>
  </Event>
  <Event>
    <Absolute>15783</Absolute>
    <NoteOn Channel="6" Note="39" Velocity="0"/>
  </Event>
  <Event>
    <Absolute>15791</Absolute>
    <NoteOn Channel="6" Note="39" Velocity="119"/>
  </Event>
  <Event>
    <Absolute>15800</Absolute>
    <NoteOn Channel="6" Note="39" Velocity="0"/>
  </Event>
  <Event>
    <Absolute>16208</Absolute>
    <NoteOn Channel="6" Note="39" Velocity="119"/>
  </Event>
  <Event>
    <Absolute>16221</Absolute>
    <NoteOn Channel="6" Note="39" Velocity="0"/>
  </Event>
  <Event>
    <Absolute>16228</Absolute>
    <NoteOn Channel="6" Note="39" Velocity="119"/>
  </Event>
  <Event>
    <Absolute>16239</Absolute>
    <NoteOn Channel="6" Note="39" Velocity="0"/>
  </Event>
  <Event>
    <Absolute>16251</Absolute>
    <NoteOn Channel="6" Note="39" Velocity="119"/>
  </Event>
  <Event>
    <Absolute>16263</Absolute>
    <NoteOn Channel="6" Note="39" Velocity="0"/>
  </Event>
  <Event>
    <Absolute>16273</Absolute>
    <NoteOn Channel="6" Note="39" Velocity="119"/>
  </Event>
  <Event>
    <Absolute>16285</Absolute>
    <NoteOn Channel="6" Note="39" Velocity="0"/>
  </Event>
  <Event>
    <Absolute>16690</Absolute>
    <NoteOn Channel="6" Note="39" Velocity="119"/>
  </Event>
  <Event>
    <Absolute>16703</Absolute>
    <NoteOn Channel="6" Note="39" Velocity="0"/>
  </Event>
  <Event>
    <Absolute>16713</Absolute>
    <NoteOn Channel="6" Note="39" Velocity="119"/>
  </Event>
  <Event>
    <Absolute>16723</Absolute>
    <NoteOn Channel="6" Note="39" Velocity="0"/>
  </Event>
  <Event>
    <Absolute>16737</Absolute>
    <NoteOn Channel="6" Note="39" Velocity="119"/>
  </Event>
  <Event>
    <Absolute>16747</Absolute>
    <NoteOn Channel="6" Note="39" Velocity="0"/>
  </Event>
  <Event>
    <Absolute>16755</Absolute>
    <NoteOn Channel="6" Note="39" Velocity="119"/>
  </Event>
  <Event>
    <Absolute>16767</Absolute>
    <NoteOn Channel="6" Note="39" Velocity="0"/>
  </Event>
  <Event>
    <Absolute>17176</Absolute>
    <NoteOn Channel="6" Note="43" Velocity="119"/>
  </Event>
  <Event>
    <Absolute>17190</Absolute>
    <NoteOn Channel="6" Note="43" Velocity="0"/>
  </Event>
  <Event>
    <Absolute>17201</Absolute>
    <NoteOn Channel="6" Note="43" Velocity="119"/>
  </Event>
  <Event>
    <Absolute>17211</Absolute>
    <NoteOn Channel="6" Note="43" Velocity="0"/>
  </Event>
  <Event>
    <Absolute>17222</Absolute>
    <NoteOn Channel="6" Note="43" Velocity="119"/>
  </Event>
  <Event>
    <Absolute>17234</Absolute>
    <NoteOn Channel="6" Note="43" Velocity="0"/>
  </Event>
  <Event>
    <Absolute>17241</Absolute>
    <NoteOn Channel="6" Note="43" Velocity="119"/>
  </Event>
  <Event>
    <Absolute>17251</Absolute>
    <NoteOn Channel="6" Note="43" Velocity="0"/>
  </Event>
  <Event>
    <Absolute>17294</Absolute>
    <NoteOn Channel="6" Note="49" Velocity="119"/>
  </Event>
  <Event>
    <Absolute>17323</Absolute>
    <NoteOn Channel="6" Note="49" Velocity="0"/>
  </Event>
  <Event>
    <Absolute>17650</Absolute>
    <NoteOn Channel="6" Note="49" Velocity="119"/>
  </Event>
  <Event>
    <Absolute>17663</Absolute>
    <NoteOn Channel="6" Note="49" Velocity="0"/>
  </Event>
  <Event>
    <Absolute>17670</Absolute>
    <NoteOn Channel="6" Note="49" Velocity="119"/>
  </Event>
  <Event>
    <Absolute>17683</Absolute>
    <NoteOn Channel="6" Note="49" Velocity="0"/>
  </Event>
  <Event>
    <Absolute>17693</Absolute>
    <NoteOn Channel="6" Note="49" Velocity="119"/>
  </Event>
  <Event>
    <Absolute>17705</Absolute>
    <NoteOn Channel="6" Note="49" Velocity="0"/>
  </Event>
  <Event>
    <Absolute>17713</Absolute>
    <NoteOn Channel="6" Note="49" Velocity="119"/>
  </Event>
  <Event>
    <Absolute>17722</Absolute>
    <NoteOn Channel="6" Note="49" Velocity="0"/>
  </Event>
  <Event>
    <Absolute>18131</Absolute>
    <NoteOn Channel="6" Note="42" Velocity="119"/>
  </Event>
  <Event>
    <Absolute>18145</Absolute>
    <NoteOn Channel="6" Note="42" Velocity="0"/>
  </Event>
  <Event>
    <Absolute>18156</Absolute>
    <NoteOn Channel="6" Note="42" Velocity="119"/>
  </Event>
  <Event>
    <Absolute>18166</Absolute>
    <NoteOn Channel="6" Note="42" Velocity="0"/>
  </Event>
  <Event>
    <Absolute>18177</Absolute>
    <NoteOn Channel="6" Note="42" Velocity="119"/>
  </Event>
  <Event>
    <Absolute>18189</Absolute>
    <NoteOn Channel="6" Note="42" Velocity="0"/>
  </Event>
  <Event>
    <Absolute>18196</Absolute>
    <NoteOn Channel="6" Note="42" Velocity="119"/>
  </Event>
  <Event>
    <Absolute>18206</Absolute>
    <NoteOn Channel="6" Note="42" Velocity="0"/>
  </Event>
  <Event>
    <Absolute>18617</Absolute>
    <NoteOn Channel="6" Note="43" Velocity="119"/>
  </Event>
  <Event>
    <Absolute>18630</Absolute>
    <NoteOn Channel="6" Note="43" Velocity="0"/>
  </Event>
  <Event>
    <Absolute>18638</Absolute>
    <NoteOn Channel="6" Note="43" Velocity="119"/>
  </Event>
  <Event>
    <Absolute>18651</Absolute>
    <NoteOn Channel="6" Note="43" Velocity="0"/>
  </Event>
  <Event>
    <Absolute>18661</Absolute>
    <NoteOn Channel="6" Note="43" Velocity="119"/>
  </Event>
  <Event>
    <Absolute>18673</Absolute>
    <NoteOn Channel="6" Note="43" Velocity="0"/>
  </Event>
  <Event>
    <Absolute>18681</Absolute>
    <NoteOn Channel="6" Note="43" Velocity="119"/>
  </Event>
  <Event>
    <Absolute>18694</Absolute>
    <NoteOn Channel="6" Note="43" Velocity="0"/>
  </Event>
  <Event>
    <Absolute>18701</Absolute>
    <NoteOn Channel="6" Note="43" Velocity="119"/>
  </Event>
  <Event>
    <Absolute>18714</Absolute>
    <NoteOn Channel="6" Note="43" Velocity="0"/>
  </Event>
  <Event>
    <Absolute>18724</Absolute>
    <NoteOn Channel="6" Note="43" Velocity="119"/>
  </Event>
  <Event>
    <Absolute>18733</Absolute>
    <NoteOn Channel="6" Note="51" Velocity="119"/>
  </Event>
  <Event>
    <Absolute>18736</Absolute>
    <NoteOn Channel="6" Note="43" Velocity="0"/>
  </Event>
  <Event>
    <Absolute>18761</Absolute>
    <NoteOn Channel="6" Note="51" Velocity="0"/>
  </Event>
  <Event>
    <Absolute>19096</Absolute>
    <NoteOn Channel="6" Note="43" Velocity="119"/>
  </Event>
  <Event>
    <Absolute>19110</Absolute>
    <NoteOn Channel="6" Note="43" Velocity="0"/>
  </Event>
  <Event>
    <Absolute>19121</Absolute>
    <NoteOn Channel="6" Note="43" Velocity="119"/>
  </Event>
  <Event>
    <Absolute>19131</Absolute>
    <NoteOn Channel="6" Note="43" Velocity="0"/>
  </Event>
  <Event>
    <Absolute>19142</Absolute>
    <NoteOn Channel="6" Note="43" Velocity="119"/>
  </Event>
  <Event>
    <Absolute>19154</Absolute>
    <NoteOn Channel="6" Note="43" Velocity="0"/>
  </Event>
  <Event>
    <Absolute>19161</Absolute>
    <NoteOn Channel="6" Note="43" Velocity="119"/>
  </Event>
  <Event>
    <Absolute>19171</Absolute>
    <NoteOn Channel="6" Note="43" Velocity="0"/>
  </Event>
  <Event>
    <Absolute>19214</Absolute>
    <NoteOn Channel="6" Note="49" Velocity="119"/>
  </Event>
  <Event>
    <Absolute>19243</Absolute>
    <NoteOn Channel="6" Note="49" Velocity="0"/>
  </Event>
  <Event>
    <Absolute>19572</Absolute>
    <NoteOn Channel="6" Note="49" Velocity="119"/>
  </Event>
  <Event>
    <Absolute>19585</Absolute>
    <NoteOn Channel="6" Note="49" Velocity="0"/>
  </Event>
  <Event>
    <Absolute>19593</Absolute>
    <NoteOn Channel="6" Note="49" Velocity="119"/>
  </Event>
  <Event>
    <Absolute>19606</Absolute>
    <NoteOn Channel="6" Note="49" Velocity="0"/>
  </Event>
  <Event>
    <Absolute>19616</Absolute>
    <NoteOn Channel="6" Note="49" Velocity="119"/>
  </Event>
  <Event>
    <Absolute>19628</Absolute>
    <NoteOn Channel="6" Note="49" Velocity="0"/>
  </Event>
  <Event>
    <Absolute>19636</Absolute>
    <NoteOn Channel="6" Note="49" Velocity="119"/>
  </Event>
  <Event>
    <Absolute>19645</Absolute>
    <NoteOn Channel="6" Note="49" Velocity="0"/>
  </Event>
  <Event>
    <Absolute>20051</Absolute>
    <NoteOn Channel="6" Note="42" Velocity="119"/>
  </Event>
  <Event>
    <Absolute>20065</Absolute>
    <NoteOn Channel="6" Note="42" Velocity="0"/>
  </Event>
  <Event>
    <Absolute>20076</Absolute>
    <NoteOn Channel="6" Note="42" Velocity="119"/>
  </Event>
  <Event>
    <Absolute>20086</Absolute>
    <NoteOn Channel="6" Note="42" Velocity="0"/>
  </Event>
  <Event>
    <Absolute>20097</Absolute>
    <NoteOn Channel="6" Note="42" Velocity="119"/>
  </Event>
  <Event>
    <Absolute>20109</Absolute>
    <NoteOn Channel="6" Note="42" Velocity="0"/>
  </Event>
  <Event>
    <Absolute>20116</Absolute>
    <NoteOn Channel="6" Note="42" Velocity="119"/>
  </Event>
  <Event>
    <Absolute>20126</Absolute>
    <NoteOn Channel="6" Note="42" Velocity="0"/>
  </Event>
  <Event>
    <Absolute>20534</Absolute>
    <NoteOn Channel="6" Note="43" Velocity="119"/>
  </Event>
  <Event>
    <Absolute>20547</Absolute>
    <NoteOn Channel="6" Note="43" Velocity="0"/>
  </Event>
  <Event>
    <Absolute>20554</Absolute>
    <NoteOn Channel="6" Note="43" Velocity="119"/>
  </Event>
  <Event>
    <Absolute>20567</Absolute>
    <NoteOn Channel="6" Note="43" Velocity="0"/>
  </Event>
  <Event>
    <Absolute>20586</Absolute>
    <NoteOn Channel="6" Note="43" Velocity="119"/>
  </Event>
  <Event>
    <Absolute>20598</Absolute>
    <NoteOn Channel="6" Note="43" Velocity="0"/>
  </Event>
  <Event>
    <Absolute>20606</Absolute>
    <NoteOn Channel="6" Note="43" Velocity="119"/>
  </Event>
  <Event>
    <Absolute>20615</Absolute>
    <NoteOn Channel="6" Note="43" Velocity="0"/>
  </Event>
  <Event>
    <Absolute>20652</Absolute>
    <NoteOn Channel="6" Note="50" Velocity="119"/>
  </Event>
  <Event>
    <Absolute>20656</Absolute>
    <NoteOn Channel="6" Note="50" Velocity="119"/>
  </Event>
  <Event>
    <Absolute>20659</Absolute>
    <NoteOn Channel="6" Note="50" Velocity="0"/>
  </Event>
  <Event>
    <Absolute>20659</Absolute>
    <NoteOn Channel="6" Note="50" Velocity="0"/>
  </Event>
  <Event>
    <Absolute>20770</Absolute>
    <NoteOn Channel="6" Note="39" Velocity="119"/>
  </Event>
  <Event>
    <Absolute>20783</Absolute>
    <NoteOn Channel="6" Note="39" Velocity="0"/>
  </Event>
  <Event>
    <Absolute>20793</Absolute>
    <NoteOn Channel="6" Note="39" Velocity="119"/>
  </Event>
  <Event>
    <Absolute>20803</Absolute>
    <NoteOn Channel="6" Note="39" Velocity="0"/>
  </Event>
  <Event>
    <Absolute>20817</Absolute>
    <NoteOn Channel="6" Note="39" Velocity="119"/>
  </Event>
  <Event>
    <Absolute>20827</Absolute>
    <NoteOn Channel="6" Note="39" Velocity="0"/>
  </Event>
  <Event>
    <Absolute>20835</Absolute>
    <NoteOn Channel="6" Note="39" Velocity="119"/>
  </Event>
  <Event>
    <Absolute>20847</Absolute>
    <NoteOn Channel="6" Note="39" Velocity="0"/>
  </Event>
  <Event>
    <Absolute>20896</Absolute>
    <NoteOn Channel="6" Note="47" Velocity="119"/>
  </Event>
  <Event>
    <Absolute>21014</Absolute>
    <NoteOn Channel="6" Note="47" Velocity="0"/>
  </Event>
  <Event>
    <Absolute>21853</Absolute>
    <NoteOn Channel="6" Note="50" Velocity="118"/>
  </Event>
  <Event>
    <Absolute>21903</Absolute>
    <NoteOn Channel="6" Note="50" Velocity="0"/>
  </Event>
  <Event>
    <Absolute>22099</Absolute>
    <NoteOn Channel="6" Note="50" Velocity="119"/>
  </Event>
  <Event>
    <Absolute>22144</Absolute>
    <NoteOn Channel="6" Note="50" Velocity="0"/>
  </Event>
  <Event>
    <Absolute>22335</Absolute>
    <NoteOn Channel="6" Note="50" Velocity="119"/>
  </Event>
  <Event>
    <Absolute>22379</Absolute>
    <NoteOn Channel="6" Note="50" Velocity="0"/>
  </Event>
  <Event>
    <Absolute>23291</Absolute>
    <NoteOn Channel="6" Note="52" Velocity="119"/>
  </Event>
  <Event>
    <Absolute>23336</Absolute>
    <NoteOn Channel="6" Note="52" Velocity="0"/>
  </Event>
  <Event>
    <Absolute>23352</Absolute>
    <NoteOn Channel="6" Note="46" Velocity="119"/>
  </Event>
  <Event>
    <Absolute>23396</Absolute>
    <NoteOn Channel="6" Note="46" Velocity="0"/>
  </Event>
  <Event>
    <Absolute>23413</Absolute>
    <NoteOn Channel="6" Note="52" Velocity="119"/>
  </Event>
  <Event>
    <Absolute>23451</Absolute>
    <NoteOn Channel="6" Note="52" Velocity="0"/>
  </Event>
  <Event>
    <Absolute>23475</Absolute>
    <NoteOn Channel="6" Note="46" Velocity="119"/>
  </Event>
  <Event>
    <Absolute>23513</Absolute>
    <NoteOn Channel="6" Note="46" Velocity="0"/>
  </Event>
  <Event>
    <Absolute>23532</Absolute>
    <NoteOn Channel="6" Note="52" Velocity="119"/>
  </Event>
  <Event>
    <Absolute>23568</Absolute>
    <NoteOn Channel="6" Note="52" Velocity="0"/>
  </Event>
  <Event>
    <Absolute>23592</Absolute>
    <NoteOn Channel="6" Note="46" Velocity="99"/>
  </Event>
  <Event>
    <Absolute>23632</Absolute>
    <NoteOn Channel="6" Note="46" Velocity="0"/>
  </Event>
  <Event>
    <Absolute>23654</Absolute>
    <NoteOn Channel="6" Note="52" Velocity="119"/>
  </Event>
  <Event>
    <Absolute>23691</Absolute>
    <NoteOn Channel="6" Note="52" Velocity="0"/>
  </Event>
  <Event>
    <Absolute>23713</Absolute>
    <NoteOn Channel="6" Note="46" Velocity="119"/>
  </Event>
  <Event>
    <Absolute>23755</Absolute>
    <NoteOn Channel="6" Note="46" Velocity="0"/>
  </Event>
  <Event>
    <Absolute>23771</Absolute>
    <NoteOn Channel="6" Note="52" Velocity="119"/>
  </Event>
  <Event>
    <Absolute>23816</Absolute>
    <NoteOn Channel="6" Note="52" Velocity="0"/>
  </Event>
  <Event>
    <Absolute>23832</Absolute>
    <NoteOn Channel="6" Note="46" Velocity="119"/>
  </Event>
  <Event>
    <Absolute>23876</Absolute>
    <NoteOn Channel="6" Note="46" Velocity="0"/>
  </Event>
  <Event>
    <Absolute>23893</Absolute>
    <NoteOn Channel="6" Note="52" Velocity="119"/>
  </Event>
  <Event>
    <Absolute>23931</Absolute>
    <NoteOn Channel="6" Note="52" Velocity="0"/>
  </Event>
  <Event>
    <Absolute>23955</Absolute>
    <NoteOn Channel="6" Note="46" Velocity="119"/>
  </Event>
  <Event>
    <Absolute>23993</Absolute>
    <NoteOn Channel="6" Note="46" Velocity="0"/>
  </Event>
  <Event>
    <Absolute>24012</Absolute>
    <NoteOn Channel="6" Note="52" Velocity="119"/>
  </Event>
  <Event>
    <Absolute>24048</Absolute>
    <NoteOn Channel="6" Note="52" Velocity="0"/>
  </Event>
  <Event>
    <Absolute>24072</Absolute>
    <NoteOn Channel="6" Note="46" Velocity="99"/>
  </Event>
  <Event>
    <Absolute>24112</Absolute>
    <NoteOn Channel="6" Note="46" Velocity="0"/>
  </Event>
  <Event>
    <Absolute>24134</Absolute>
    <NoteOn Channel="6" Note="52" Velocity="119"/>
  </Event>
  <Event>
    <Absolute>24171</Absolute>
    <NoteOn Channel="6" Note="52" Velocity="0"/>
  </Event>
  <Event>
    <Absolute>24193</Absolute>
    <NoteOn Channel="6" Note="46" Velocity="119"/>
  </Event>
  <Event>
    <Absolute>24235</Absolute>
    <NoteOn Channel="6" Note="46" Velocity="0"/>
  </Event>
  <Event>
    <Absolute>24252</Absolute>
    <NoteOn Channel="6" Note="52" Velocity="119"/>
  </Event>
  <Event>
    <Absolute>24287</Absolute>
    <NoteOn Channel="6" Note="52" Velocity="0"/>
  </Event>
  <Event>
    <Absolute>24311</Absolute>
    <NoteOn Channel="6" Note="46" Velocity="119"/>
  </Event>
  <Event>
    <Absolute>24351</Absolute>
    <NoteOn Channel="6" Note="46" Velocity="0"/>
  </Event>
  <Event>
    <Absolute>24371</Absolute>
    <NoteOn Channel="6" Note="52" Velocity="119"/>
  </Event>
  <Event>
    <Absolute>24407</Absolute>
    <NoteOn Channel="6" Note="52" Velocity="0"/>
  </Event>
  <Event>
    <Absolute>24431</Absolute>
    <NoteOn Channel="6" Note="46" Velocity="119"/>
  </Event>
  <Event>
    <Absolute>24471</Absolute>
    <NoteOn Channel="6" Note="46" Velocity="0"/>
  </Event>
  <Event>
    <Absolute>24492</Absolute>
    <NoteOn Channel="6" Note="52" Velocity="119"/>
  </Event>
  <Event>
    <Absolute>24529</Absolute>
    <NoteOn Channel="6" Note="52" Velocity="0"/>
  </Event>
  <Event>
    <Absolute>24550</Absolute>
    <NoteOn Channel="6" Note="46" Velocity="119"/>
  </Event>
  <Event>
    <Absolute>24589</Absolute>
    <NoteOn Channel="6" Note="46" Velocity="0"/>
  </Event>
  <Event>
    <Absolute>24612</Absolute>
    <NoteOn Channel="6" Note="52" Velocity="119"/>
  </Event>
  <Event>
    <Absolute>24649</Absolute>
    <NoteOn Channel="6" Note="52" Velocity="0"/>
  </Event>
  <Event>
    <Absolute>24670</Absolute>
    <NoteOn Channel="6" Note="46" Velocity="119"/>
  </Event>
  <Event>
    <Absolute>24703</Absolute>
    <NoteOn Channel="6" Note="46" Velocity="0"/>
  </Event>
  <Event>
    <Absolute>29893</Absolute>
    <NoteOn Channel="6" Note="45" Velocity="79"/>
  </Event>
  <Event>
    <Absolute>29918</Absolute>
    <NoteOn Channel="6" Note="45" Velocity="0"/>
  </Event>
  <Event>
    <Absolute>29953</Absolute>
    <NoteOn Channel="6" Note="45" Velocity="96"/>
  </Event>
  <Event>
    <Absolute>29978</Absolute>
    <NoteOn Channel="6" Note="45" Velocity="0"/>
  </Event>
  <Event>
    <Absolute>30011</Absolute>
    <NoteOn Channel="6" Note="45" Velocity="102"/>
  </Event>
  <Event>
    <Absolute>30037</Absolute>
    <NoteOn Channel="6" Note="45" Velocity="0"/>
  </Event>
  <Event>
    <Absolute>30134</Absolute>
    <NoteOn Channel="6" Note="45" Velocity="73"/>
  </Event>
  <Event>
    <Absolute>30159</Absolute>
    <NoteOn Channel="6" Note="45" Velocity="0"/>
  </Event>
  <Event>
    <Absolute>30256</Absolute>
    <NoteOn Channel="6" Note="45" Velocity="76"/>
  </Event>
  <Event>
    <Absolute>30278</Absolute>
    <NoteOn Channel="6" Note="45" Velocity="0"/>
  </Event>
  <Event>
    <Absolute>31809</Absolute>
    <NoteOn Channel="6" Note="45" Velocity="73"/>
  </Event>
  <Event>
    <Absolute>31833</Absolute>
    <NoteOn Channel="6" Note="45" Velocity="0"/>
  </Event>
  <Event>
    <Absolute>31867</Absolute>
    <NoteOn Channel="6" Note="45" Velocity="79"/>
  </Event>
  <Event>
    <Absolute>31890</Absolute>
    <NoteOn Channel="6" Note="45" Velocity="0"/>
  </Event>
  <Event>
    <Absolute>31930</Absolute>
    <NoteOn Channel="6" Note="45" Velocity="85"/>
  </Event>
  <Event>
    <Absolute>31961</Absolute>
    <NoteOn Channel="6" Note="45" Velocity="0"/>
  </Event>
  <Event>
    <Absolute>32052</Absolute>
    <NoteOn Channel="6" Note="45" Velocity="85"/>
  </Event>
  <Event>
    <Absolute>32078</Absolute>
    <NoteOn Channel="6" Note="45" Velocity="0"/>
  </Event>
  <Event>
    <Absolute>32174</Absolute>
    <NoteOn Channel="6" Note="45" Velocity="71"/>
  </Event>
  <Event>
    <Absolute>32209</Absolute>
    <NoteOn Channel="6" Note="45" Velocity="0"/>
  </Event>
  <Event>
    <Absolute>33730</Absolute>
    <NoteOn Channel="6" Note="45" Velocity="85"/>
  </Event>
  <Event>
    <Absolute>33755</Absolute>
    <NoteOn Channel="6" Note="45" Velocity="0"/>
  </Event>
  <Event>
    <Absolute>33789</Absolute>
    <NoteOn Channel="6" Note="45" Velocity="76"/>
  </Event>
  <Event>
    <Absolute>33811</Absolute>
    <NoteOn Channel="6" Note="45" Velocity="0"/>
  </Event>
  <Event>
    <Absolute>33848</Absolute>
    <NoteOn Channel="6" Note="45" Velocity="102"/>
  </Event>
  <Event>
    <Absolute>33874</Absolute>
    <NoteOn Channel="6" Note="45" Velocity="0"/>
  </Event>
  <Event>
    <Absolute>33971</Absolute>
    <NoteOn Channel="6" Note="45" Velocity="90"/>
  </Event>
  <Event>
    <Absolute>33997</Absolute>
    <NoteOn Channel="6" Note="45" Velocity="0"/>
  </Event>
  <Event>
    <Absolute>34095</Absolute>
    <NoteOn Channel="6" Note="45" Velocity="96"/>
  </Event>
  <Event>
    <Absolute>34132</Absolute>
    <NoteOn Channel="6" Note="45" Velocity="0"/>
  </Event>
  <Event>
    <Absolute>34450</Absolute>
    <NoteOn Channel="6" Note="42" Velocity="85"/>
  </Event>
  <Event>
    <Absolute>34473</Absolute>
    <NoteOn Channel="6" Note="42" Velocity="0"/>
  </Event>
  <Event>
    <Absolute>34510</Absolute>
    <NoteOn Channel="6" Note="40" Velocity="84"/>
  </Event>
  <Event>
    <Absolute>34551</Absolute>
    <NoteOn Channel="6" Note="40" Velocity="0"/>
  </Event>
  <Event>
    <Absolute>34810</Absolute>
    <NoteOn Channel="6" Note="42" Velocity="96"/>
  </Event>
  <Event>
    <Absolute>34830</Absolute>
    <NoteOn Channel="6" Note="42" Velocity="0"/>
  </Event>
  <Event>
    <Absolute>34930</Absolute>
    <NoteOn Channel="6" Note="40" Velocity="94"/>
  </Event>
  <Event>
    <Absolute>34965</Absolute>
    <NoteOn Channel="6" Note="40" Velocity="0"/>
  </Event>
  <Event>
    <Absolute>35290</Absolute>
    <NoteOn Channel="6" Note="42" Velocity="96"/>
  </Event>
  <Event>
    <Absolute>35315</Absolute>
    <NoteOn Channel="6" Note="42" Velocity="0"/>
  </Event>
  <Event>
    <Absolute>35350</Absolute>
    <NoteOn Channel="6" Note="40" Velocity="88"/>
  </Event>
  <Event>
    <Absolute>35388</Absolute>
    <NoteOn Channel="6" Note="40" Velocity="0"/>
  </Event>
  <Event>
    <Absolute>35530</Absolute>
    <NoteOn Channel="6" Note="42" Velocity="97"/>
  </Event>
  <Event>
    <Absolute>35555</Absolute>
    <NoteOn Channel="6" Note="42" Velocity="0"/>
  </Event>
  <Event>
    <Absolute>35650</Absolute>
    <NoteOn Channel="6" Note="40" Velocity="92"/>
  </Event>
  <Event>
    <Absolute>35674</Absolute>
    <NoteOn Channel="6" Note="40" Velocity="0"/>
  </Event>
  <Event>
    <Absolute>35950</Absolute>
    <NoteOn Channel="6" Note="45" Velocity="88"/>
  </Event>
  <Event>
    <Absolute>35975</Absolute>
    <NoteOn Channel="6" Note="45" Velocity="0"/>
  </Event>
  <Event>
    <Absolute>36010</Absolute>
    <NoteOn Channel="6" Note="42" Velocity="99"/>
  </Event>
  <Event>
    <Absolute>36030</Absolute>
    <NoteOn Channel="6" Note="42" Velocity="0"/>
  </Event>
  <Event>
    <Absolute>36070</Absolute>
    <NoteOn Channel="6" Note="40" Velocity="99"/>
  </Event>
  <Event>
    <Absolute>36093</Absolute>
    <NoteOn Channel="6" Note="40" Velocity="0"/>
  </Event>
  <Event>
    <Absolute>36250</Absolute>
    <NoteOn Channel="6" Note="42" Velocity="95"/>
  </Event>
  <Event>
    <Absolute>36270</Absolute>
    <NoteOn Channel="6" Note="42" Velocity="0"/>
  </Event>
  <Event>
    <Absolute>36370</Absolute>
    <NoteOn Channel="6" Note="40" Velocity="94"/>
  </Event>
  <Event>
    <Absolute>36393</Absolute>
    <NoteOn Channel="6" Note="40" Velocity="0"/>
  </Event>
  <Event>
    <Absolute>36550</Absolute>
    <NoteOn Channel="6" Note="46" Velocity="95"/>
  </Event>
  <Event>
    <Absolute>36570</Absolute>
    <NoteOn Channel="6" Note="46" Velocity="0"/>
  </Event>
  <Event>
    <Absolute>36610</Absolute>
    <NoteOn Channel="6" Note="45" Velocity="95"/>
  </Event>
  <Event>
    <Absolute>36630</Absolute>
    <NoteOn Channel="6" Note="45" Velocity="0"/>
  </Event>
  <Event>
    <Absolute>36850</Absolute>
    <NoteOn Channel="6" Note="46" Velocity="104"/>
  </Event>
  <Event>
    <Absolute>36864</Absolute>
    <NoteOn Channel="6" Note="46" Velocity="0"/>
  </Event>
  <Event>
    <Absolute>37210</Absolute>
    <NoteOn Channel="6" Note="51" Velocity="93"/>
  </Event>
  <Event>
    <Absolute>37220</Absolute>
    <NoteOn Channel="6" Note="51" Velocity="0"/>
  </Event>
  <Event>
    <Absolute>37240</Absolute>
    <NoteOn Channel="6" Note="51" Velocity="82"/>
  </Event>
  <Event>
    <Absolute>37258</Absolute>
    <NoteOn Channel="6" Note="51" Velocity="0"/>
  </Event>
  <Event>
    <Absolute>37270</Absolute>
    <NoteOn Channel="6" Note="51" Velocity="82"/>
  </Event>
  <Event>
    <Absolute>37279</Absolute>
    <NoteOn Channel="6" Note="51" Velocity="0"/>
  </Event>
  <Event>
    <Absolute>37330</Absolute>
    <NoteOn Channel="6" Note="46" Velocity="108"/>
  </Event>
  <Event>
    <Absolute>37349</Absolute>
    <NoteOn Channel="6" Note="46" Velocity="0"/>
  </Event>
  <Event>
    <Absolute>37690</Absolute>
    <NoteOn Channel="6" Note="51" Velocity="95"/>
  </Event>
  <Event>
    <Absolute>37705</Absolute>
    <NoteOn Channel="6" Note="51" Velocity="0"/>
  </Event>
  <Event>
    <Absolute>37720</Absolute>
    <NoteOn Channel="6" Note="51" Velocity="82"/>
  </Event>
  <Event>
    <Absolute>37730</Absolute>
    <NoteOn Channel="6" Note="51" Velocity="0"/>
  </Event>
  <Event>
    <Absolute>37750</Absolute>
    <NoteOn Channel="6" Note="51" Velocity="95"/>
  </Event>
  <Event>
    <Absolute>37764</Absolute>
    <NoteOn Channel="6" Note="51" Velocity="0"/>
  </Event>
  <Event>
    <Absolute>37810</Absolute>
    <NoteOn Channel="6" Note="43" Velocity="108"/>
  </Event>
  <Event>
    <Absolute>37832</Absolute>
    <NoteOn Channel="6" Note="43" Velocity="0"/>
  </Event>
  <Event>
    <Absolute>38170</Absolute>
    <NoteOn Channel="6" Note="53" Velocity="87"/>
  </Event>
  <Event>
    <Absolute>38181</Absolute>
    <NoteOn Channel="6" Note="53" Velocity="0"/>
  </Event>
  <Event>
    <Absolute>38200</Absolute>
    <NoteOn Channel="6" Note="53" Velocity="92"/>
  </Event>
  <Event>
    <Absolute>38220</Absolute>
    <NoteOn Channel="6" Note="53" Velocity="0"/>
  </Event>
  <Event>
    <Absolute>38230</Absolute>
    <NoteOn Channel="6" Note="53" Velocity="97"/>
  </Event>
  <Event>
    <Absolute>38243</Absolute>
    <NoteOn Channel="6" Note="53" Velocity="0"/>
  </Event>
  <Event>
    <Absolute>38290</Absolute>
    <NoteOn Channel="6" Note="43" Velocity="109"/>
  </Event>
  <Event>
    <Absolute>38312</Absolute>
    <NoteOn Channel="6" Note="43" Velocity="0"/>
  </Event>
  <Event>
    <Absolute>38650</Absolute>
    <NoteOn Channel="6" Note="53" Velocity="89"/>
  </Event>
  <Event>
    <Absolute>38661</Absolute>
    <NoteOn Channel="6" Note="53" Velocity="0"/>
  </Event>
  <Event>
    <Absolute>38680</Absolute>
    <NoteOn Channel="6" Note="53" Velocity="83"/>
  </Event>
  <Event>
    <Absolute>38700</Absolute>
    <NoteOn Channel="6" Note="53" Velocity="0"/>
  </Event>
  <Event>
    <Absolute>38710</Absolute>
    <NoteOn Channel="6" Note="53" Velocity="86"/>
  </Event>
  <Event>
    <Absolute>38723</Absolute>
    <NoteOn Channel="6" Note="53" Velocity="0"/>
  </Event>
  <Event>
    <Absolute>38770</Absolute>
    <NoteOn Channel="6" Note="47" Velocity="99"/>
  </Event>
  <Event>
    <Absolute>38784</Absolute>
    <NoteOn Channel="6" Note="47" Velocity="0"/>
  </Event>
  <Event>
    <Absolute>39130</Absolute>
    <NoteOn Channel="6" Note="52" Velocity="87"/>
  </Event>
  <Event>
    <Absolute>39140</Absolute>
    <NoteOn Channel="6" Note="52" Velocity="0"/>
  </Event>
  <Event>
    <Absolute>39160</Absolute>
    <NoteOn Channel="6" Note="52" Velocity="78"/>
  </Event>
  <Event>
    <Absolute>39178</Absolute>
    <NoteOn Channel="6" Note="52" Velocity="0"/>
  </Event>
  <Event>
    <Absolute>39190</Absolute>
    <NoteOn Channel="6" Note="52" Velocity="78"/>
  </Event>
  <Event>
    <Absolute>39199</Absolute>
    <NoteOn Channel="6" Note="52" Velocity="0"/>
  </Event>
  <Event>
    <Absolute>39250</Absolute>
    <NoteOn Channel="6" Note="47" Velocity="101"/>
  </Event>
  <Event>
    <Absolute>39269</Absolute>
    <NoteOn Channel="6" Note="47" Velocity="0"/>
  </Event>
  <Event>
    <Absolute>39610</Absolute>
    <NoteOn Channel="6" Note="52" Velocity="87"/>
  </Event>
  <Event>
    <Absolute>39625</Absolute>
    <NoteOn Channel="6" Note="52" Velocity="0"/>
  </Event>
  <Event>
    <Absolute>39640</Absolute>
    <NoteOn Channel="6" Note="52" Velocity="75"/>
  </Event>
  <Event>
    <Absolute>39650</Absolute>
    <NoteOn Channel="6" Note="52" Velocity="0"/>
  </Event>
  <Event>
    <Absolute>39670</Absolute>
    <NoteOn Channel="6" Note="52" Velocity="87"/>
  </Event>
  <Event>
    <Absolute>39684</Absolute>
    <NoteOn Channel="6" Note="52" Velocity="0"/>
  </Event>
  <Event>
    <Absolute>39730</Absolute>
    <NoteOn Channel="6" Note="44" Velocity="99"/>
  </Event>
  <Event>
    <Absolute>39752</Absolute>
    <NoteOn Channel="6" Note="44" Velocity="0"/>
  </Event>
  <Event>
    <Absolute>40090</Absolute>
    <NoteOn Channel="6" Note="54" Velocity="79"/>
  </Event>
  <Event>
    <Absolute>40101</Absolute>
    <NoteOn Channel="6" Note="54" Velocity="0"/>
  </Event>
  <Event>
    <Absolute>40120</Absolute>
    <NoteOn Channel="6" Note="54" Velocity="84"/>
  </Event>
  <Event>
    <Absolute>40140</Absolute>
    <NoteOn Channel="6" Note="54" Velocity="0"/>
  </Event>
  <Event>
    <Absolute>40150</Absolute>
    <NoteOn Channel="6" Note="54" Velocity="87"/>
  </Event>
  <Event>
    <Absolute>40163</Absolute>
    <NoteOn Channel="6" Note="54" Velocity="0"/>
  </Event>
  <Event>
    <Absolute>40210</Absolute>
    <NoteOn Channel="6" Note="44" Velocity="99"/>
  </Event>
  <Event>
    <Absolute>40232</Absolute>
    <NoteOn Channel="6" Note="44" Velocity="0"/>
  </Event>
  <Event>
    <Absolute>40570</Absolute>
    <NoteOn Channel="6" Note="54" Velocity="79"/>
  </Event>
  <Event>
    <Absolute>40581</Absolute>
    <NoteOn Channel="6" Note="54" Velocity="0"/>
  </Event>
  <Event>
    <Absolute>40600</Absolute>
    <NoteOn Channel="6" Note="54" Velocity="84"/>
  </Event>
  <Event>
    <Absolute>40620</Absolute>
    <NoteOn Channel="6" Note="54" Velocity="0"/>
  </Event>
  <Event>
    <Absolute>40630</Absolute>
    <NoteOn Channel="6" Note="54" Velocity="87"/>
  </Event>
  <Event>
    <Absolute>40643</Absolute>
    <NoteOn Channel="6" Note="54" Velocity="0"/>
  </Event>
  <Event>
    <Absolute>43086</Absolute>
    <NoteOn Channel="6" Note="50" Velocity="111"/>
  </Event>
  <Event>
    <Absolute>43097</Absolute>
    <NoteOn Channel="6" Note="50" Velocity="0"/>
  </Event>
  <Event>
    <Absolute>43571</Absolute>
    <NoteOn Channel="6" Note="50" Velocity="113"/>
  </Event>
  <Event>
    <Absolute>43589</Absolute>
    <NoteOn Channel="6" Note="50" Velocity="0"/>
  </Event>
  <Event>
    <Absolute>43631</Absolute>
    <NoteOn Channel="6" Note="45" Velocity="113"/>
  </Event>
  <Event>
    <Absolute>43649</Absolute>
    <NoteOn Channel="6" Note="45" Velocity="0"/>
  </Event>
  <Event>
    <Absolute>43691</Absolute>
    <NoteOn Channel="6" Note="50" Velocity="113"/>
  </Event>
  <Event>
    <Absolute>43712</Absolute>
    <NoteOn Channel="6" Note="50" Velocity="0"/>
  </Event>
  <Event>
    <Absolute>43751</Absolute>
    <NoteOn Channel="6" Note="45" Velocity="113"/>
  </Event>
  <Event>
    <Absolute>43769</Absolute>
    <NoteOn Channel="6" Note="45" Velocity="0"/>
  </Event>
  <Event>
    <Absolute>43811</Absolute>
    <NoteOn Channel="6" Note="50" Velocity="113"/>
  </Event>
  <Event>
    <Absolute>43832</Absolute>
    <NoteOn Channel="6" Note="50" Velocity="0"/>
  </Event>
  <Event>
    <Absolute>43871</Absolute>
    <NoteOn Channel="6" Note="45" Velocity="113"/>
  </Event>
  <Event>
    <Absolute>43891</Absolute>
    <NoteOn Channel="6" Note="45" Velocity="0"/>
  </Event>
  <Event>
    <Absolute>43931</Absolute>
    <NoteOn Channel="6" Note="50" Velocity="113"/>
  </Event>
  <Event>
    <Absolute>43951</Absolute>
    <NoteOn Channel="6" Note="50" Velocity="0"/>
  </Event>
  <Event>
    <Absolute>43991</Absolute>
    <NoteOn Channel="6" Note="45" Velocity="113"/>
  </Event>
  <Event>
    <Absolute>44008</Absolute>
    <NoteOn Channel="6" Note="45" Velocity="0"/>
  </Event>
  <Event>
    <Absolute>44051</Absolute>
    <NoteOn Channel="6" Note="50" Velocity="113"/>
  </Event>
  <Event>
    <Absolute>44071</Absolute>
    <NoteOn Channel="6" Note="50" Velocity="0"/>
  </Event>
  <Event>
    <Absolute>44111</Absolute>
    <NoteOn Channel="6" Note="45" Velocity="113"/>
  </Event>
  <Event>
    <Absolute>44128</Absolute>
    <NoteOn Channel="6" Note="45" Velocity="0"/>
  </Event>
  <Event>
    <Absolute>44171</Absolute>
    <NoteOn Channel="6" Note="50" Velocity="113"/>
  </Event>
  <Event>
    <Absolute>44189</Absolute>
    <NoteOn Channel="6" Note="50" Velocity="0"/>
  </Event>
  <Event>
    <Absolute>44231</Absolute>
    <NoteOn Channel="6" Note="45" Velocity="113"/>
  </Event>
  <Event>
    <Absolute>44248</Absolute>
    <NoteOn Channel="6" Note="45" Velocity="0"/>
  </Event>
  <Event>
    <Absolute>44291</Absolute>
    <NoteOn Channel="6" Note="50" Velocity="113"/>
  </Event>
  <Event>
    <Absolute>44306</Absolute>
    <NoteOn Channel="6" Note="50" Velocity="0"/>
  </Event>
  <Event>
    <Absolute>44351</Absolute>
    <NoteOn Channel="6" Note="45" Velocity="113"/>
  </Event>
  <Event>
    <Absolute>44366</Absolute>
    <NoteOn Channel="6" Note="45" Velocity="0"/>
  </Event>
  <Event>
    <Absolute>44411</Absolute>
    <NoteOn Channel="6" Note="50" Velocity="113"/>
  </Event>
  <Event>
    <Absolute>44431</Absolute>
    <NoteOn Channel="6" Note="50" Velocity="0"/>
  </Event>
  <Event>
    <Absolute>44471</Absolute>
    <NoteOn Channel="6" Note="45" Velocity="113"/>
  </Event>
  <Event>
    <Absolute>44488</Absolute>
    <NoteOn Channel="6" Note="45" Velocity="0"/>
  </Event>
  <Event>
    <Absolute>44531</Absolute>
    <NoteOn Channel="6" Note="50" Velocity="113"/>
  </Event>
  <Event>
    <Absolute>44552</Absolute>
    <NoteOn Channel="6" Note="50" Velocity="0"/>
  </Event>
  <Event>
    <Absolute>44591</Absolute>
    <NoteOn Channel="6" Note="45" Velocity="113"/>
  </Event>
  <Event>
    <Absolute>44612</Absolute>
    <NoteOn Channel="6" Note="45" Velocity="0"/>
  </Event>
  <Event>
    <Absolute>44651</Absolute>
    <NoteOn Channel="6" Note="50" Velocity="113"/>
  </Event>
  <Event>
    <Absolute>44674</Absolute>
    <NoteOn Channel="6" Note="50" Velocity="0"/>
  </Event>
  <Event>
    <Absolute>44711</Absolute>
    <NoteOn Channel="6" Note="45" Velocity="113"/>
  </Event>
  <Event>
    <Absolute>44736</Absolute>
    <NoteOn Channel="6" Note="45" Velocity="0"/>
  </Event>
  <Event>
    <Absolute>44771</Absolute>
    <NoteOn Channel="6" Note="50" Velocity="113"/>
  </Event>
  <Event>
    <Absolute>44791</Absolute>
    <NoteOn Channel="6" Note="50" Velocity="0"/>
  </Event>
  <Event>
    <Absolute>44831</Absolute>
    <NoteOn Channel="6" Note="45" Velocity="113"/>
  </Event>
  <Event>
    <Absolute>44852</Absolute>
    <NoteOn Channel="6" Note="45" Velocity="0"/>
  </Event>
  <Event>
    <Absolute>44891</Absolute>
    <NoteOn Channel="6" Note="50" Velocity="113"/>
  </Event>
  <Event>
    <Absolute>44912</Absolute>
    <NoteOn Channel="6" Note="50" Velocity="0"/>
  </Event>
  <Event>
    <Absolute>44950</Absolute>
    <NoteOn Channel="6" Note="45" Velocity="113"/>
  </Event>
  <Event>
    <Absolute>44993</Absolute>
    <NoteOn Channel="6" Note="45" Velocity="0"/>
  </Event>
  <Event>
    <Absolute>45170</Absolute>
    <NoteOn Channel="6" Note="50" Velocity="105"/>
  </Event>
  <Event>
    <Absolute>45171</Absolute>
    <NoteOn Channel="6" Note="50" Velocity="105"/>
  </Event>
  <Event>
    <Absolute>45172</Absolute>
    <NoteOn Channel="6" Note="50" Velocity="0"/>
  </Event>
  <Event>
    <Absolute>45172</Absolute>
    <NoteOn Channel="6" Note="50" Velocity="0"/>
  </Event>
  <Event>
    <Absolute>45211</Absolute>
    <NoteOn Channel="6" Note="50" Velocity="105"/>
  </Event>
  <Event>
    <Absolute>45226</Absolute>
    <NoteOn Channel="6" Note="50" Velocity="0"/>
  </Event>
  <Event>
    <Absolute>45251</Absolute>
    <NoteOn Channel="6" Note="50" Velocity="105"/>
  </Event>
  <Event>
    <Absolute>45288</Absolute>
    <NoteOn Channel="6" Note="50" Velocity="0"/>
  </Event>
  <Event>
    <Absolute>45288</Absolute>
    <EndOfTrack/>
  </Event>
</Track>
<Track Number="12">
  <Event>
    <Absolute>0</Absolute>
    <MIDIChannelPrefix Value="01"/>
  </Event>
  <Event>
    <Absolute>0</Absolute>
    <ControlChange Channel="10" Control="7" Value="85"/>
  </Event>
  <Event>
    <Absolute>0</Absolute>
    <ControlChange Channel="10" Control="10" Value="64"/>
  </Event>
  <Event>
    <Absolute>480</Absolute>
    <NoteOn Channel="10" Note="57" Velocity="95"/>
  </Event>
  <Event>
    <Absolute>480</Absolute>
    <NoteOn Channel="10" Note="59" Velocity="95"/>
  </Event>
  <Event>
    <Absolute>1379</Absolute>
    <NoteOn Channel="10" Note="59" Velocity="0"/>
  </Event>
  <Event>
    <Absolute>1379</Absolute>
    <NoteOn Channel="10" Note="57" Velocity="0"/>
  </Event>
  <Event>
    <Absolute>2121</Absolute>
    <NoteOn Channel="10" Note="38" Velocity="50"/>
  </Event>
  <Event>
    <Absolute>2132</Absolute>
    <NoteOn Channel="10" Note="38" Velocity="0"/>
  </Event>
  <Event>
    <Absolute>2138</Absolute>
    <NoteOn Channel="10" Note="38" Velocity="55"/>
  </Event>
  <Event>
    <Absolute>2146</Absolute>
    <NoteOn Channel="10" Note="38" Velocity="0"/>
  </Event>
  <Event>
    <Absolute>2160</Absolute>
    <NoteOn Channel="10" Note="38" Velocity="53"/>
  </Event>
  <Event>
    <Absolute>2312</Absolute>
    <NoteOn Channel="10" Note="38" Velocity="0"/>
  </Event>
  <Event>
    <Absolute>2340</Absolute>
    <NoteOn Channel="10" Note="38" Velocity="50"/>
  </Event>
  <Event>
    <Absolute>2350</Absolute>
    <NoteOn Channel="10" Note="38" Velocity="0"/>
  </Event>
  <Event>
    <Absolute>2355</Absolute>
    <NoteOn Channel="10" Note="38" Velocity="53"/>
  </Event>
  <Event>
    <Absolute>2363</Absolute>
    <NoteOn Channel="10" Note="38" Velocity="0"/>
  </Event>
  <Event>
    <Absolute>2375</Absolute>
    <NoteOn Channel="10" Note="38" Velocity="55"/>
  </Event>
  <Event>
    <Absolute>2383</Absolute>
    <NoteOn Channel="10" Note="38" Velocity="0"/>
  </Event>
  <Event>
    <Absolute>2400</Absolute>
    <NoteOn Channel="10" Note="38" Velocity="58"/>
  </Event>
  <Event>
    <Absolute>2421</Absolute>
    <NoteOn Channel="10" Note="38" Velocity="0"/>
  </Event>
  <Event>
    <Absolute>2460</Absolute>
    <NoteOn Channel="10" Note="38" Velocity="53"/>
  </Event>
  <Event>
    <Absolute>2483</Absolute>
    <NoteOn Channel="10" Note="38" Velocity="0"/>
  </Event>
  <Event>
    <Absolute>2553</Absolute>
    <NoteOn Channel="10" Note="38" Velocity="53"/>
  </Event>
  <Event>
    <Absolute>2559</Absolute>
    <NoteOn Channel="10" Note="38" Velocity="0"/>
  </Event>
  <Event>
    <Absolute>2561</Absolute>
    <NoteOn Channel="10" Note="38" Velocity="48"/>
  </Event>
  <Event>
    <Absolute>2567</Absolute>
    <NoteOn Channel="10" Note="38" Velocity="0"/>
  </Event>
  <Event>
    <Absolute>2570</Absolute>
    <NoteOn Channel="10" Note="38" Velocity="53"/>
  </Event>
  <Event>
    <Absolute>2575</Absolute>
    <NoteOn Channel="10" Note="38" Velocity="0"/>
  </Event>
  <Event>
    <Absolute>2580</Absolute>
    <NoteOn Channel="10" Note="38" Velocity="61"/>
  </Event>
  <Event>
    <Absolute>2640</Absolute>
    <NoteOn Channel="10" Note="38" Velocity="0"/>
  </Event>
  <Event>
    <Absolute>2673</Absolute>
    <NoteOn Channel="10" Note="38" Velocity="53"/>
  </Event>
  <Event>
    <Absolute>2679</Absolute>
    <NoteOn Channel="10" Note="38" Velocity="0"/>
  </Event>
  <Event>
    <Absolute>2681</Absolute>
    <NoteOn Channel="10" Note="38" Velocity="48"/>
  </Event>
  <Event>
    <Absolute>2687</Absolute>
    <NoteOn Channel="10" Note="38" Velocity="0"/>
  </Event>
  <Event>
    <Absolute>2690</Absolute>
    <NoteOn Channel="10" Note="38" Velocity="53"/>
  </Event>
  <Event>
    <Absolute>2695</Absolute>
    <NoteOn Channel="10" Note="38" Velocity="0"/>
  </Event>
  <Event>
    <Absolute>2700</Absolute>
    <NoteOn Channel="10" Note="38" Velocity="61"/>
  </Event>
  <Event>
    <Absolute>2730</Absolute>
    <NoteOn Channel="10" Note="38" Velocity="0"/>
  </Event>
  <Event>
    <Absolute>2735</Absolute>
    <NoteOn Channel="10" Note="38" Velocity="43"/>
  </Event>
  <Event>
    <Absolute>2740</Absolute>
    <NoteOn Channel="10" Note="38" Velocity="0"/>
  </Event>
  <Event>
    <Absolute>2743</Absolute>
    <NoteOn Channel="10" Note="38" Velocity="48"/>
  </Event>
  <Event>
    <Absolute>2749</Absolute>
    <NoteOn Channel="10" Note="38" Velocity="0"/>
  </Event>
  <Event>
    <Absolute>2752</Absolute>
    <NoteOn Channel="10" Note="38" Velocity="49"/>
  </Event>
  <Event>
    <Absolute>2757</Absolute>
    <NoteOn Channel="10" Note="38" Velocity="0"/>
  </Event>
  <Event>
    <Absolute>2761</Absolute>
    <NoteOn Channel="10" Note="38" Velocity="55"/>
  </Event>
  <Event>
    <Absolute>2771</Absolute>
    <NoteOn Channel="10" Note="38" Velocity="0"/>
  </Event>
  <Event>
    <Absolute>2800</Absolute>
    <NoteOn Channel="10" Note="38" Velocity="55"/>
  </Event>
  <Event>
    <Absolute>2811</Absolute>
    <NoteOn Channel="10" Note="38" Velocity="0"/>
  </Event>
  <Event>
    <Absolute>2816</Absolute>
    <NoteOn Channel="10" Note="38" Velocity="58"/>
  </Event>
  <Event>
    <Absolute>2824</Absolute>
    <NoteOn Channel="10" Note="38" Velocity="0"/>
  </Event>
  <Event>
    <Absolute>2831</Absolute>
    <NoteOn Channel="10" Note="38" Velocity="58"/>
  </Event>
  <Event>
    <Absolute>2845</Absolute>
    <NoteOn Channel="10" Note="38" Velocity="0"/>
  </Event>
  <Event>
    <Absolute>2879</Absolute>
    <NoteOn Channel="10" Note="38" Velocity="61"/>
  </Event>
  <Event>
    <Absolute>2893</Absolute>
    <NoteOn Channel="10" Note="38" Velocity="0"/>
  </Event>
  <Event>
    <Absolute>2921</Absolute>
    <NoteOn Channel="10" Note="38" Velocity="58"/>
  </Event>
  <Event>
    <Absolute>2934</Absolute>
    <NoteOn Channel="10" Note="38" Velocity="0"/>
  </Event>
  <Event>
    <Absolute>2957</Absolute>
    <NoteOn Channel="10" Note="38" Velocity="58"/>
  </Event>
  <Event>
    <Absolute>2973</Absolute>
    <NoteOn Channel="10" Note="38" Velocity="0"/>
  </Event>
  <Event>
    <Absolute>3033</Absolute>
    <NoteOn Channel="10" Note="38" Velocity="53"/>
  </Event>
  <Event>
    <Absolute>3039</Absolute>
    <NoteOn Channel="10" Note="38" Velocity="0"/>
  </Event>
  <Event>
    <Absolute>3041</Absolute>
    <NoteOn Channel="10" Note="38" Velocity="48"/>
  </Event>
  <Event>
    <Absolute>3047</Absolute>
    <NoteOn Channel="10" Note="38" Velocity="0"/>
  </Event>
  <Event>
    <Absolute>3050</Absolute>
    <NoteOn Channel="10" Note="38" Velocity="53"/>
  </Event>
  <Event>
    <Absolute>3055</Absolute>
    <NoteOn Channel="10" Note="38" Velocity="0"/>
  </Event>
  <Event>
    <Absolute>3060</Absolute>
    <NoteOn Channel="10" Note="38" Velocity="61"/>
  </Event>
  <Event>
    <Absolute>3120</Absolute>
    <NoteOn Channel="10" Note="38" Velocity="0"/>
  </Event>
  <Event>
    <Absolute>3153</Absolute>
    <NoteOn Channel="10" Note="38" Velocity="53"/>
  </Event>
  <Event>
    <Absolute>3159</Absolute>
    <NoteOn Channel="10" Note="38" Velocity="0"/>
  </Event>
  <Event>
    <Absolute>3161</Absolute>
    <NoteOn Channel="10" Note="38" Velocity="48"/>
  </Event>
  <Event>
    <Absolute>3167</Absolute>
    <NoteOn Channel="10" Note="38" Velocity="0"/>
  </Event>
  <Event>
    <Absolute>3170</Absolute>
    <NoteOn Channel="10" Note="38" Velocity="53"/>
  </Event>
  <Event>
    <Absolute>3175</Absolute>
    <NoteOn Channel="10" Note="38" Velocity="0"/>
  </Event>
  <Event>
    <Absolute>3180</Absolute>
    <NoteOn Channel="10" Note="38" Velocity="61"/>
  </Event>
  <Event>
    <Absolute>3210</Absolute>
    <NoteOn Channel="10" Note="38" Velocity="0"/>
  </Event>
  <Event>
    <Absolute>3215</Absolute>
    <NoteOn Channel="10" Note="38" Velocity="43"/>
  </Event>
  <Event>
    <Absolute>3220</Absolute>
    <NoteOn Channel="10" Note="38" Velocity="0"/>
  </Event>
  <Event>
    <Absolute>3223</Absolute>
    <NoteOn Channel="10" Note="38" Velocity="48"/>
  </Event>
  <Event>
    <Absolute>3229</Absolute>
    <NoteOn Channel="10" Note="38" Velocity="0"/>
  </Event>
  <Event>
    <Absolute>3232</Absolute>
    <NoteOn Channel="10" Note="38" Velocity="49"/>
  </Event>
  <Event>
    <Absolute>3237</Absolute>
    <NoteOn Channel="10" Note="38" Velocity="0"/>
  </Event>
  <Event>
    <Absolute>3241</Absolute>
    <NoteOn Channel="10" Note="38" Velocity="55"/>
  </Event>
  <Event>
    <Absolute>3251</Absolute>
    <NoteOn Channel="10" Note="38" Velocity="0"/>
  </Event>
  <Event>
    <Absolute>3280</Absolute>
    <NoteOn Channel="10" Note="38" Velocity="55"/>
  </Event>
  <Event>
    <Absolute>3291</Absolute>
    <NoteOn Channel="10" Note="38" Velocity="0"/>
  </Event>
  <Event>
    <Absolute>3296</Absolute>
    <NoteOn Channel="10" Note="38" Velocity="58"/>
  </Event>
  <Event>
    <Absolute>3304</Absolute>
    <NoteOn Channel="10" Note="38" Velocity="0"/>
  </Event>
  <Event>
    <Absolute>3311</Absolute>
    <NoteOn Channel="10" Note="38" Velocity="58"/>
  </Event>
  <Event>
    <Absolute>3325</Absolute>
    <NoteOn Channel="10" Note="38" Velocity="0"/>
  </Event>
  <Event>
    <Absolute>3359</Absolute>
    <NoteOn Channel="10" Note="38" Velocity="61"/>
  </Event>
  <Event>
    <Absolute>3373</Absolute>
    <NoteOn Channel="10" Note="38" Velocity="0"/>
  </Event>
  <Event>
    <Absolute>3401</Absolute>
    <NoteOn Channel="10" Note="38" Velocity="58"/>
  </Event>
  <Event>
    <Absolute>3414</Absolute>
    <NoteOn Channel="10" Note="38" Velocity="0"/>
  </Event>
  <Event>
    <Absolute>3437</Absolute>
    <NoteOn Channel="10" Note="38" Velocity="58"/>
  </Event>
  <Event>
    <Absolute>3453</Absolute>
    <NoteOn Channel="10" Note="38" Velocity="0"/>
  </Event>
  <Event>
    <Absolute>3573</Absolute>
    <NoteOn Channel="10" Note="38" Velocity="57"/>
  </Event>
  <Event>
    <Absolute>3579</Absolute>
    <NoteOn Channel="10" Note="38" Velocity="0"/>
  </Event>
  <Event>
    <Absolute>3581</Absolute>
    <NoteOn Channel="10" Note="38" Velocity="50"/>
  </Event>
  <Event>
    <Absolute>3587</Absolute>
    <NoteOn Channel="10" Note="38" Velocity="0"/>
  </Event>
  <Event>
    <Absolute>3590</Absolute>
    <NoteOn Channel="10" Note="38" Velocity="57"/>
  </Event>
  <Event>
    <Absolute>3595</Absolute>
    <NoteOn Channel="10" Note="38" Velocity="0"/>
  </Event>
  <Event>
    <Absolute>3600</Absolute>
    <NoteOn Channel="10" Note="38" Velocity="63"/>
  </Event>
  <Event>
    <Absolute>3660</Absolute>
    <NoteOn Channel="10" Note="38" Velocity="0"/>
  </Event>
  <Event>
    <Absolute>3780</Absolute>
    <NoteOn Channel="10" Note="38" Velocity="53"/>
  </Event>
  <Event>
    <Absolute>3790</Absolute>
    <NoteOn Channel="10" Note="38" Velocity="0"/>
  </Event>
  <Event>
    <Absolute>3795</Absolute>
    <NoteOn Channel="10" Note="38" Velocity="57"/>
  </Event>
  <Event>
    <Absolute>3803</Absolute>
    <NoteOn Channel="10" Note="38" Velocity="0"/>
  </Event>
  <Event>
    <Absolute>3815</Absolute>
    <NoteOn Channel="10" Note="38" Velocity="60"/>
  </Event>
  <Event>
    <Absolute>3823</Absolute>
    <NoteOn Channel="10" Note="38" Velocity="0"/>
  </Event>
  <Event>
    <Absolute>3840</Absolute>
    <NoteOn Channel="10" Note="38" Velocity="52"/>
  </Event>
  <Event>
    <Absolute>3861</Absolute>
    <NoteOn Channel="10" Note="38" Velocity="0"/>
  </Event>
  <Event>
    <Absolute>3900</Absolute>
    <NoteOn Channel="10" Note="38" Velocity="49"/>
  </Event>
  <Event>
    <Absolute>3923</Absolute>
    <NoteOn Channel="10" Note="38" Velocity="0"/>
  </Event>
  <Event>
    <Absolute>3933</Absolute>
    <NoteOn Channel="10" Note="38" Velocity="49"/>
  </Event>
  <Event>
    <Absolute>3939</Absolute>
    <NoteOn Channel="10" Note="38" Velocity="0"/>
  </Event>
  <Event>
    <Absolute>3941</Absolute>
    <NoteOn Channel="10" Note="38" Velocity="43"/>
  </Event>
  <Event>
    <Absolute>3947</Absolute>
    <NoteOn Channel="10" Note="38" Velocity="0"/>
  </Event>
  <Event>
    <Absolute>3950</Absolute>
    <NoteOn Channel="10" Note="38" Velocity="49"/>
  </Event>
  <Event>
    <Absolute>3955</Absolute>
    <NoteOn Channel="10" Note="38" Velocity="0"/>
  </Event>
  <Event>
    <Absolute>3960</Absolute>
    <NoteOn Channel="10" Note="38" Velocity="54"/>
  </Event>
  <Event>
    <Absolute>4020</Absolute>
    <NoteOn Channel="10" Note="38" Velocity="0"/>
  </Event>
  <Event>
    <Absolute>4053</Absolute>
    <NoteOn Channel="10" Note="38" Velocity="49"/>
  </Event>
  <Event>
    <Absolute>4059</Absolute>
    <NoteOn Channel="10" Note="38" Velocity="0"/>
  </Event>
  <Event>
    <Absolute>4061</Absolute>
    <NoteOn Channel="10" Note="38" Velocity="43"/>
  </Event>
  <Event>
    <Absolute>4067</Absolute>
    <NoteOn Channel="10" Note="38" Velocity="0"/>
  </Event>
  <Event>
    <Absolute>4070</Absolute>
    <NoteOn Channel="10" Note="38" Velocity="49"/>
  </Event>
  <Event>
    <Absolute>4075</Absolute>
    <NoteOn Channel="10" Note="38" Velocity="0"/>
  </Event>
  <Event>
    <Absolute>4080</Absolute>
    <NoteOn Channel="10" Note="38" Velocity="54"/>
  </Event>
  <Event>
    <Absolute>4110</Absolute>
    <NoteOn Channel="10" Note="38" Velocity="0"/>
  </Event>
  <Event>
    <Absolute>4173</Absolute>
    <NoteOn Channel="10" Note="38" Velocity="49"/>
  </Event>
  <Event>
    <Absolute>4179</Absolute>
    <NoteOn Channel="10" Note="38" Velocity="0"/>
  </Event>
  <Event>
    <Absolute>4181</Absolute>
    <NoteOn Channel="10" Note="38" Velocity="43"/>
  </Event>
  <Event>
    <Absolute>4187</Absolute>
    <NoteOn Channel="10" Note="38" Velocity="0"/>
  </Event>
  <Event>
    <Absolute>4190</Absolute>
    <NoteOn Channel="10" Note="38" Velocity="49"/>
  </Event>
  <Event>
    <Absolute>4195</Absolute>
    <NoteOn Channel="10" Note="38" Velocity="0"/>
  </Event>
  <Event>
    <Absolute>4200</Absolute>
    <NoteOn Channel="10" Note="38" Velocity="54"/>
  </Event>
  <Event>
    <Absolute>4260</Absolute>
    <NoteOn Channel="10" Note="38" Velocity="0"/>
  </Event>
  <Event>
    <Absolute>4293</Absolute>
    <NoteOn Channel="10" Note="38" Velocity="49"/>
  </Event>
  <Event>
    <Absolute>4299</Absolute>
    <NoteOn Channel="10" Note="38" Velocity="0"/>
  </Event>
  <Event>
    <Absolute>4301</Absolute>
    <NoteOn Channel="10" Note="38" Velocity="43"/>
  </Event>
  <Event>
    <Absolute>4307</Absolute>
    <NoteOn Channel="10" Note="38" Velocity="0"/>
  </Event>
  <Event>
    <Absolute>4310</Absolute>
    <NoteOn Channel="10" Note="38" Velocity="49"/>
  </Event>
  <Event>
    <Absolute>4315</Absolute>
    <NoteOn Channel="10" Note="38" Velocity="0"/>
  </Event>
  <Event>
    <Absolute>4320</Absolute>
    <NoteOn Channel="10" Note="38" Velocity="54"/>
  </Event>
  <Event>
    <Absolute>4350</Absolute>
    <NoteOn Channel="10" Note="38" Velocity="0"/>
  </Event>
  <Event>
    <Absolute>4413</Absolute>
    <NoteOn Channel="10" Note="38" Velocity="49"/>
  </Event>
  <Event>
    <Absolute>4419</Absolute>
    <NoteOn Channel="10" Note="38" Velocity="0"/>
  </Event>
  <Event>
    <Absolute>4421</Absolute>
    <NoteOn Channel="10" Note="38" Velocity="43"/>
  </Event>
  <Event>
    <Absolute>4427</Absolute>
    <NoteOn Channel="10" Note="38" Velocity="0"/>
  </Event>
  <Event>
    <Absolute>4430</Absolute>
    <NoteOn Channel="10" Note="38" Velocity="49"/>
  </Event>
  <Event>
    <Absolute>4435</Absolute>
    <NoteOn Channel="10" Note="38" Velocity="0"/>
  </Event>
  <Event>
    <Absolute>4440</Absolute>
    <NoteOn Channel="10" Note="38" Velocity="54"/>
  </Event>
  <Event>
    <Absolute>4500</Absolute>
    <NoteOn Channel="10" Note="38" Velocity="0"/>
  </Event>
  <Event>
    <Absolute>4533</Absolute>
    <NoteOn Channel="10" Note="38" Velocity="49"/>
  </Event>
  <Event>
    <Absolute>4539</Absolute>
    <NoteOn Channel="10" Note="38" Velocity="0"/>
  </Event>
  <Event>
    <Absolute>4541</Absolute>
    <NoteOn Channel="10" Note="38" Velocity="43"/>
  </Event>
  <Event>
    <Absolute>4547</Absolute>
    <NoteOn Channel="10" Note="38" Velocity="0"/>
  </Event>
  <Event>
    <Absolute>4550</Absolute>
    <NoteOn Channel="10" Note="38" Velocity="49"/>
  </Event>
  <Event>
    <Absolute>4555</Absolute>
    <NoteOn Channel="10" Note="38" Velocity="0"/>
  </Event>
  <Event>
    <Absolute>4560</Absolute>
    <NoteOn Channel="10" Note="38" Velocity="54"/>
  </Event>
  <Event>
    <Absolute>4590</Absolute>
    <NoteOn Channel="10" Note="38" Velocity="0"/>
  </Event>
  <Event>
    <Absolute>4653</Absolute>
    <NoteOn Channel="10" Note="38" Velocity="49"/>
  </Event>
  <Event>
    <Absolute>4659</Absolute>
    <NoteOn Channel="10" Note="38" Velocity="0"/>
  </Event>
  <Event>
    <Absolute>4661</Absolute>
    <NoteOn Channel="10" Note="38" Velocity="43"/>
  </Event>
  <Event>
    <Absolute>4667</Absolute>
    <NoteOn Channel="10" Note="38" Velocity="0"/>
  </Event>
  <Event>
    <Absolute>4670</Absolute>
    <NoteOn Channel="10" Note="38" Velocity="49"/>
  </Event>
  <Event>
    <Absolute>4675</Absolute>
    <NoteOn Channel="10" Note="38" Velocity="0"/>
  </Event>
  <Event>
    <Absolute>4680</Absolute>
    <NoteOn Channel="10" Note="38" Velocity="54"/>
  </Event>
  <Event>
    <Absolute>4740</Absolute>
    <NoteOn Channel="10" Note="38" Velocity="0"/>
  </Event>
  <Event>
    <Absolute>4773</Absolute>
    <NoteOn Channel="10" Note="38" Velocity="49"/>
  </Event>
  <Event>
    <Absolute>4779</Absolute>
    <NoteOn Channel="10" Note="38" Velocity="0"/>
  </Event>
  <Event>
    <Absolute>4781</Absolute>
    <NoteOn Channel="10" Note="38" Velocity="43"/>
  </Event>
  <Event>
    <Absolute>4787</Absolute>
    <NoteOn Channel="10" Note="38" Velocity="0"/>
  </Event>
  <Event>
    <Absolute>4790</Absolute>
    <NoteOn Channel="10" Note="38" Velocity="49"/>
  </Event>
  <Event>
    <Absolute>4795</Absolute>
    <NoteOn Channel="10" Note="38" Velocity="0"/>
  </Event>
  <Event>
    <Absolute>4800</Absolute>
    <NoteOn Channel="10" Note="38" Velocity="54"/>
  </Event>
  <Event>
    <Absolute>4830</Absolute>
    <NoteOn Channel="10" Note="38" Velocity="0"/>
  </Event>
  <Event>
    <Absolute>4893</Absolute>
    <NoteOn Channel="10" Note="38" Velocity="49"/>
  </Event>
  <Event>
    <Absolute>4899</Absolute>
    <NoteOn Channel="10" Note="38" Velocity="0"/>
  </Event>
  <Event>
    <Absolute>4901</Absolute>
    <NoteOn Channel="10" Note="38" Velocity="43"/>
  </Event>
  <Event>
    <Absolute>4907</Absolute>
    <NoteOn Channel="10" Note="38" Velocity="0"/>
  </Event>
  <Event>
    <Absolute>4910</Absolute>
    <NoteOn Channel="10" Note="38" Velocity="49"/>
  </Event>
  <Event>
    <Absolute>4915</Absolute>
    <NoteOn Channel="10" Note="38" Velocity="0"/>
  </Event>
  <Event>
    <Absolute>4920</Absolute>
    <NoteOn Channel="10" Note="38" Velocity="54"/>
  </Event>
  <Event>
    <Absolute>4980</Absolute>
    <NoteOn Channel="10" Note="38" Velocity="0"/>
  </Event>
  <Event>
    <Absolute>5013</Absolute>
    <NoteOn Channel="10" Note="38" Velocity="49"/>
  </Event>
  <Event>
    <Absolute>5019</Absolute>
    <NoteOn Channel="10" Note="38" Velocity="0"/>
  </Event>
  <Event>
    <Absolute>5021</Absolute>
    <NoteOn Channel="10" Note="38" Velocity="43"/>
  </Event>
  <Event>
    <Absolute>5027</Absolute>
    <NoteOn Channel="10" Note="38" Velocity="0"/>
  </Event>
  <Event>
    <Absolute>5030</Absolute>
    <NoteOn Channel="10" Note="38" Velocity="49"/>
  </Event>
  <Event>
    <Absolute>5035</Absolute>
    <NoteOn Channel="10" Note="38" Velocity="0"/>
  </Event>
  <Event>
    <Absolute>5040</Absolute>
    <NoteOn Channel="10" Note="38" Velocity="54"/>
  </Event>
  <Event>
    <Absolute>5070</Absolute>
    <NoteOn Channel="10" Note="38" Velocity="0"/>
  </Event>
  <Event>
    <Absolute>5133</Absolute>
    <NoteOn Channel="10" Note="38" Velocity="49"/>
  </Event>
  <Event>
    <Absolute>5139</Absolute>
    <NoteOn Channel="10" Note="38" Velocity="0"/>
  </Event>
  <Event>
    <Absolute>5141</Absolute>
    <NoteOn Channel="10" Note="38" Velocity="43"/>
  </Event>
  <Event>
    <Absolute>5147</Absolute>
    <NoteOn Channel="10" Note="38" Velocity="0"/>
  </Event>
  <Event>
    <Absolute>5150</Absolute>
    <NoteOn Channel="10" Note="38" Velocity="49"/>
  </Event>
  <Event>
    <Absolute>5155</Absolute>
    <NoteOn Channel="10" Note="38" Velocity="0"/>
  </Event>
  <Event>
    <Absolute>5160</Absolute>
    <NoteOn Channel="10" Note="38" Velocity="54"/>
  </Event>
  <Event>
    <Absolute>5220</Absolute>
    <NoteOn Channel="10" Note="38" Velocity="0"/>
  </Event>
  <Event>
    <Absolute>5253</Absolute>
    <NoteOn Channel="10" Note="38" Velocity="49"/>
  </Event>
  <Event>
    <Absolute>5259</Absolute>
    <NoteOn Channel="10" Note="38" Velocity="0"/>
  </Event>
  <Event>
    <Absolute>5261</Absolute>
    <NoteOn Channel="10" Note="38" Velocity="43"/>
  </Event>
  <Event>
    <Absolute>5267</Absolute>
    <NoteOn Channel="10" Note="38" Velocity="0"/>
  </Event>
  <Event>
    <Absolute>5270</Absolute>
    <NoteOn Channel="10" Note="38" Velocity="49"/>
  </Event>
  <Event>
    <Absolute>5275</Absolute>
    <NoteOn Channel="10" Note="38" Velocity="0"/>
  </Event>
  <Event>
    <Absolute>5280</Absolute>
    <NoteOn Channel="10" Note="38" Velocity="54"/>
  </Event>
  <Event>
    <Absolute>5310</Absolute>
    <NoteOn Channel="10" Note="38" Velocity="0"/>
  </Event>
  <Event>
    <Absolute>5375</Absolute>
    <NoteOn Channel="10" Note="38" Velocity="37"/>
  </Event>
  <Event>
    <Absolute>5380</Absolute>
    <NoteOn Channel="10" Note="38" Velocity="0"/>
  </Event>
  <Event>
    <Absolute>5383</Absolute>
    <NoteOn Channel="10" Note="38" Velocity="43"/>
  </Event>
  <Event>
    <Absolute>5389</Absolute>
    <NoteOn Channel="10" Note="38" Velocity="0"/>
  </Event>
  <Event>
    <Absolute>5392</Absolute>
    <NoteOn Channel="10" Note="38" Velocity="44"/>
  </Event>
  <Event>
    <Absolute>5397</Absolute>
    <NoteOn Channel="10" Note="38" Velocity="0"/>
  </Event>
  <Event>
    <Absolute>5401</Absolute>
    <NoteOn Channel="10" Note="38" Velocity="50"/>
  </Event>
  <Event>
    <Absolute>5411</Absolute>
    <NoteOn Channel="10" Note="38" Velocity="0"/>
  </Event>
  <Event>
    <Absolute>5519</Absolute>
    <NoteOn Channel="10" Note="38" Velocity="54"/>
  </Event>
  <Event>
    <Absolute>5533</Absolute>
    <NoteOn Channel="10" Note="38" Velocity="0"/>
  </Event>
  <Event>
    <Absolute>5561</Absolute>
    <NoteOn Channel="10" Note="38" Velocity="52"/>
  </Event>
  <Event>
    <Absolute>5574</Absolute>
    <NoteOn Channel="10" Note="38" Velocity="0"/>
  </Event>
  <Event>
    <Absolute>5597</Absolute>
    <NoteOn Channel="10" Note="38" Velocity="52"/>
  </Event>
  <Event>
    <Absolute>5613</Absolute>
    <NoteOn Channel="10" Note="38" Velocity="0"/>
  </Event>
  <Event>
    <Absolute>5640</Absolute>
    <NoteOn Channel="10" Note="38" Velocity="76"/>
  </Event>
  <Event>
    <Absolute>5645</Absolute>
    <NoteOn Channel="10" Note="38" Velocity="0"/>
  </Event>
  <Event>
    <Absolute>5647</Absolute>
    <NoteOn Channel="10" Note="38" Velocity="50"/>
  </Event>
  <Event>
    <Absolute>5653</Absolute>
    <NoteOn Channel="10" Note="38" Velocity="0"/>
  </Event>
  <Event>
    <Absolute>5656</Absolute>
    <NoteOn Channel="10" Note="38" Velocity="52"/>
  </Event>
  <Event>
    <Absolute>5662</Absolute>
    <NoteOn Channel="10" Note="38" Velocity="0"/>
  </Event>
  <Event>
    <Absolute>5665</Absolute>
    <NoteOn Channel="10" Note="38" Velocity="45"/>
  </Event>
  <Event>
    <Absolute>5675</Absolute>
    <NoteOn Channel="10" Note="38" Velocity="0"/>
  </Event>
  <Event>
    <Absolute>8520</Absolute>
    <NoteOn Channel="10" Note="38" Velocity="63"/>
  </Event>
  <Event>
    <Absolute>8534</Absolute>
    <NoteOn Channel="10" Note="38" Velocity="0"/>
  </Event>
  <Event>
    <Absolute>8561</Absolute>
    <NoteOn Channel="10" Note="38" Velocity="61"/>
  </Event>
  <Event>
    <Absolute>8574</Absolute>
    <NoteOn Channel="10" Note="38" Velocity="0"/>
  </Event>
  <Event>
    <Absolute>8597</Absolute>
    <NoteOn Channel="10" Note="38" Velocity="61"/>
  </Event>
  <Event>
    <Absolute>8613</Absolute>
    <NoteOn Channel="10" Note="38" Velocity="0"/>
  </Event>
  <Event>
    <Absolute>8640</Absolute>
    <NoteOn Channel="10" Note="38" Velocity="76"/>
  </Event>
  <Event>
    <Absolute>8646</Absolute>
    <NoteOn Channel="10" Note="38" Velocity="0"/>
  </Event>
  <Event>
    <Absolute>8648</Absolute>
    <NoteOn Channel="10" Note="38" Velocity="50"/>
  </Event>
  <Event>
    <Absolute>8654</Absolute>
    <NoteOn Channel="10" Note="38" Velocity="0"/>
  </Event>
  <Event>
    <Absolute>8656</Absolute>
    <NoteOn Channel="10" Note="38" Velocity="52"/>
  </Event>
  <Event>
    <Absolute>8661</Absolute>
    <NoteOn Channel="10" Note="38" Velocity="0"/>
  </Event>
  <Event>
    <Absolute>8665</Absolute>
    <NoteOn Channel="10" Note="38" Velocity="45"/>
  </Event>
  <Event>
    <Absolute>8675</Absolute>
    <NoteOn Channel="10" Note="38" Velocity="0"/>
  </Event>
  <Event>
    <Absolute>8723</Absolute>
    <NoteOn Channel="10" Note="38" Velocity="76"/>
  </Event>
  <Event>
    <Absolute>8739</Absolute>
    <NoteOn Channel="10" Note="38" Velocity="0"/>
  </Event>
  <Event>
    <Absolute>8758</Absolute>
    <NoteOn Channel="10" Note="38" Velocity="66"/>
  </Event>
  <Event>
    <Absolute>8811</Absolute>
    <NoteOn Channel="10" Note="38" Velocity="0"/>
  </Event>
  <Event>
    <Absolute>9240</Absolute>
    <NoteOn Channel="10" Note="38" Velocity="94"/>
  </Event>
  <Event>
    <Absolute>9248</Absolute>
    <NoteOn Channel="10" Note="57" Velocity="82"/>
  </Event>
  <Event>
    <Absolute>9256</Absolute>
    <NoteOn Channel="10" Note="38" Velocity="0"/>
  </Event>
  <Event>
    <Absolute>9330</Absolute>
    <NoteOn Channel="10" Note="38" Velocity="68"/>
  </Event>
  <Event>
    <Absolute>9342</Absolute>
    <NoteOn Channel="10" Note="38" Velocity="0"/>
  </Event>
  <Event>
    <Absolute>9360</Absolute>
    <NoteOn Channel="10" Note="38" Velocity="85"/>
  </Event>
  <Event>
    <Absolute>9363</Absolute>
    <NoteOn Channel="10" Note="57" Velocity="0"/>
  </Event>
  <Event>
    <Absolute>9376</Absolute>
    <NoteOn Channel="10" Note="38" Velocity="0"/>
  </Event>
  <Event>
    <Absolute>9450</Absolute>
    <NoteOn Channel="10" Note="38" Velocity="51"/>
  </Event>
  <Event>
    <Absolute>9462</Absolute>
    <NoteOn Channel="10" Note="38" Velocity="0"/>
  </Event>
  <Event>
    <Absolute>9480</Absolute>
    <NoteOn Channel="10" Note="38" Velocity="92"/>
  </Event>
  <Event>
    <Absolute>9493</Absolute>
    <NoteOn Channel="10" Note="38" Velocity="0"/>
  </Event>
  <Event>
    <Absolute>9510</Absolute>
    <NoteOn Channel="10" Note="38" Velocity="67"/>
  </Event>
  <Event>
    <Absolute>9528</Absolute>
    <NoteOn Channel="10" Note="38" Velocity="0"/>
  </Event>
  <Event>
    <Absolute>9540</Absolute>
    <NoteOn Channel="10" Note="38" Velocity="84"/>
  </Event>
  <Event>
    <Absolute>9550</Absolute>
    <NoteOn Channel="10" Note="38" Velocity="0"/>
  </Event>
  <Event>
    <Absolute>9570</Absolute>
    <NoteOn Channel="10" Note="38" Velocity="49"/>
  </Event>
  <Event>
    <Absolute>9588</Absolute>
    <NoteOn Channel="10" Note="38" Velocity="0"/>
  </Event>
  <Event>
    <Absolute>9600</Absolute>
    <NoteOn Channel="10" Note="38" Velocity="92"/>
  </Event>
  <Event>
    <Absolute>9618</Absolute>
    <NoteOn Channel="10" Note="38" Velocity="0"/>
  </Event>
  <Event>
    <Absolute>9690</Absolute>
    <NoteOn Channel="10" Note="38" Velocity="75"/>
  </Event>
  <Event>
    <Absolute>9706</Absolute>
    <NoteOn Channel="10" Note="38" Velocity="0"/>
  </Event>
  <Event>
    <Absolute>9720</Absolute>
    <NoteOn Channel="10" Note="38" Velocity="92"/>
  </Event>
  <Event>
    <Absolute>9736</Absolute>
    <NoteOn Channel="10" Note="38" Velocity="0"/>
  </Event>
  <Event>
    <Absolute>9810</Absolute>
    <NoteOn Channel="10" Note="38" Velocity="55"/>
  </Event>
  <Event>
    <Absolute>9823</Absolute>
    <NoteOn Channel="10" Note="38" Velocity="0"/>
  </Event>
  <Event>
    <Absolute>9840</Absolute>
    <NoteOn Channel="10" Note="38" Velocity="92"/>
  </Event>
  <Event>
    <Absolute>9855</Absolute>
    <NoteOn Channel="10" Note="38" Velocity="0"/>
  </Event>
  <Event>
    <Absolute>9870</Absolute>
    <NoteOn Channel="10" Note="38" Velocity="67"/>
  </Event>
  <Event>
    <Absolute>9886</Absolute>
    <NoteOn Channel="10" Note="38" Velocity="0"/>
  </Event>
  <Event>
    <Absolute>9900</Absolute>
    <NoteOn Channel="10" Note="38" Velocity="95"/>
  </Event>
  <Event>
    <Absolute>9915</Absolute>
    <NoteOn Channel="10" Note="38" Velocity="0"/>
  </Event>
  <Event>
    <Absolute>9930</Absolute>
    <NoteOn Channel="10" Note="38" Velocity="68"/>
  </Event>
  <Event>
    <Absolute>9950</Absolute>
    <NoteOn Channel="10" Note="38" Velocity="0"/>
  </Event>
  <Event>
    <Absolute>9960</Absolute>
    <NoteOn Channel="10" Note="38" Velocity="100"/>
  </Event>
  <Event>
    <Absolute>9978</Absolute>
    <NoteOn Channel="10" Note="38" Velocity="0"/>
  </Event>
  <Event>
    <Absolute>10050</Absolute>
    <NoteOn Channel="10" Note="38" Velocity="73"/>
  </Event>
  <Event>
    <Absolute>10068</Absolute>
    <NoteOn Channel="10" Note="38" Velocity="0"/>
  </Event>
  <Event>
    <Absolute>10080</Absolute>
    <NoteOn Channel="10" Note="38" Velocity="83"/>
  </Event>
  <Event>
    <Absolute>10098</Absolute>
    <NoteOn Channel="10" Note="38" Velocity="0"/>
  </Event>
  <Event>
    <Absolute>10170</Absolute>
    <NoteOn Channel="10" Note="38" Velocity="52"/>
  </Event>
  <Event>
    <Absolute>10188</Absolute>
    <NoteOn Channel="10" Note="38" Velocity="0"/>
  </Event>
  <Event>
    <Absolute>10200</Absolute>
    <NoteOn Channel="10" Note="38" Velocity="89"/>
  </Event>
  <Event>
    <Absolute>10215</Absolute>
    <NoteOn Channel="10" Note="38" Velocity="0"/>
  </Event>
  <Event>
    <Absolute>10230</Absolute>
    <NoteOn Channel="10" Note="38" Velocity="58"/>
  </Event>
  <Event>
    <Absolute>10246</Absolute>
    <NoteOn Channel="10" Note="38" Velocity="0"/>
  </Event>
  <Event>
    <Absolute>10260</Absolute>
    <NoteOn Channel="10" Note="38" Velocity="88"/>
  </Event>
  <Event>
    <Absolute>10273</Absolute>
    <NoteOn Channel="10" Note="38" Velocity="0"/>
  </Event>
  <Event>
    <Absolute>10290</Absolute>
    <NoteOn Channel="10" Note="38" Velocity="64"/>
  </Event>
  <Event>
    <Absolute>10311</Absolute>
    <NoteOn Channel="10" Note="38" Velocity="0"/>
  </Event>
  <Event>
    <Absolute>10320</Absolute>
    <NoteOn Channel="10" Note="38" Velocity="88"/>
  </Event>
  <Event>
    <Absolute>10336</Absolute>
    <NoteOn Channel="10" Note="38" Velocity="0"/>
  </Event>
  <Event>
    <Absolute>10410</Absolute>
    <NoteOn Channel="10" Note="38" Velocity="59"/>
  </Event>
  <Event>
    <Absolute>10428</Absolute>
    <NoteOn Channel="10" Note="38" Velocity="0"/>
  </Event>
  <Event>
    <Absolute>10440</Absolute>
    <NoteOn Channel="10" Note="38" Velocity="94"/>
  </Event>
  <Event>
    <Absolute>10456</Absolute>
    <NoteOn Channel="10" Note="38" Velocity="0"/>
  </Event>
  <Event>
    <Absolute>10530</Absolute>
    <NoteOn Channel="10" Note="38" Velocity="57"/>
  </Event>
  <Event>
    <Absolute>10548</Absolute>
    <NoteOn Channel="10" Note="38" Velocity="0"/>
  </Event>
  <Event>
    <Absolute>10560</Absolute>
    <NoteOn Channel="10" Note="38" Velocity="90"/>
  </Event>
  <Event>
    <Absolute>10578</Absolute>
    <NoteOn Channel="10" Note="38" Velocity="0"/>
  </Event>
  <Event>
    <Absolute>10590</Absolute>
    <NoteOn Channel="10" Note="38" Velocity="51"/>
  </Event>
  <Event>
    <Absolute>10606</Absolute>
    <NoteOn Channel="10" Note="38" Velocity="0"/>
  </Event>
  <Event>
    <Absolute>10620</Absolute>
    <NoteOn Channel="10" Note="38" Velocity="85"/>
  </Event>
  <Event>
    <Absolute>10633</Absolute>
    <NoteOn Channel="10" Note="38" Velocity="0"/>
  </Event>
  <Event>
    <Absolute>10650</Absolute>
    <NoteOn Channel="10" Note="38" Velocity="62"/>
  </Event>
  <Event>
    <Absolute>10670</Absolute>
    <NoteOn Channel="10" Note="38" Velocity="0"/>
  </Event>
  <Event>
    <Absolute>10680</Absolute>
    <NoteOn Channel="10" Note="38" Velocity="87"/>
  </Event>
  <Event>
    <Absolute>10699</Absolute>
    <NoteOn Channel="10" Note="38" Velocity="0"/>
  </Event>
  <Event>
    <Absolute>10770</Absolute>
    <NoteOn Channel="10" Note="38" Velocity="66"/>
  </Event>
  <Event>
    <Absolute>10786</Absolute>
    <NoteOn Channel="10" Note="38" Velocity="0"/>
  </Event>
  <Event>
    <Absolute>10800</Absolute>
    <NoteOn Channel="10" Note="38" Velocity="89"/>
  </Event>
  <Event>
    <Absolute>10815</Absolute>
    <NoteOn Channel="10" Note="38" Velocity="0"/>
  </Event>
  <Event>
    <Absolute>10890</Absolute>
    <NoteOn Channel="10" Note="38" Velocity="60"/>
  </Event>
  <Event>
    <Absolute>10908</Absolute>
    <NoteOn Channel="10" Note="38" Velocity="0"/>
  </Event>
  <Event>
    <Absolute>10920</Absolute>
    <NoteOn Channel="10" Note="38" Velocity="89"/>
  </Event>
  <Event>
    <Absolute>10936</Absolute>
    <NoteOn Channel="10" Note="38" Velocity="0"/>
  </Event>
  <Event>
    <Absolute>10950</Absolute>
    <NoteOn Channel="10" Note="38" Velocity="55"/>
  </Event>
  <Event>
    <Absolute>10967</Absolute>
    <NoteOn Channel="10" Note="38" Velocity="0"/>
  </Event>
  <Event>
    <Absolute>10980</Absolute>
    <NoteOn Channel="10" Note="38" Velocity="85"/>
  </Event>
  <Event>
    <Absolute>10993</Absolute>
    <NoteOn Channel="10" Note="38" Velocity="0"/>
  </Event>
  <Event>
    <Absolute>11010</Absolute>
    <NoteOn Channel="10" Note="38" Velocity="57"/>
  </Event>
  <Event>
    <Absolute>11028</Absolute>
    <NoteOn Channel="10" Note="38" Velocity="0"/>
  </Event>
  <Event>
    <Absolute>11040</Absolute>
    <NoteOn Channel="10" Note="38" Velocity="88"/>
  </Event>
  <Event>
    <Absolute>11060</Absolute>
    <NoteOn Channel="10" Note="38" Velocity="0"/>
  </Event>
  <Event>
    <Absolute>11130</Absolute>
    <NoteOn Channel="10" Note="38" Velocity="66"/>
  </Event>
  <Event>
    <Absolute>11148</Absolute>
    <NoteOn Channel="10" Note="38" Velocity="0"/>
  </Event>
  <Event>
    <Absolute>11160</Absolute>
    <NoteOn Channel="10" Note="38" Velocity="89"/>
  </Event>
  <Event>
    <Absolute>11179</Absolute>
    <NoteOn Channel="10" Note="38" Velocity="0"/>
  </Event>
  <Event>
    <Absolute>11250</Absolute>
    <NoteOn Channel="10" Note="38" Velocity="60"/>
  </Event>
  <Event>
    <Absolute>11268</Absolute>
    <NoteOn Channel="10" Note="38" Velocity="0"/>
  </Event>
  <Event>
    <Absolute>11280</Absolute>
    <NoteOn Channel="10" Note="38" Velocity="85"/>
  </Event>
  <Event>
    <Absolute>11297</Absolute>
    <NoteOn Channel="10" Note="38" Velocity="0"/>
  </Event>
  <Event>
    <Absolute>11310</Absolute>
    <NoteOn Channel="10" Note="38" Velocity="61"/>
  </Event>
  <Event>
    <Absolute>11329</Absolute>
    <NoteOn Channel="10" Note="38" Velocity="0"/>
  </Event>
  <Event>
    <Absolute>11340</Absolute>
    <NoteOn Channel="10" Note="38" Velocity="88"/>
  </Event>
  <Event>
    <Absolute>11356</Absolute>
    <NoteOn Channel="10" Note="38" Velocity="0"/>
  </Event>
  <Event>
    <Absolute>11370</Absolute>
    <NoteOn Channel="10" Note="38" Velocity="68"/>
  </Event>
  <Event>
    <Absolute>11391</Absolute>
    <NoteOn Channel="10" Note="38" Velocity="0"/>
  </Event>
  <Event>
    <Absolute>11400</Absolute>
    <NoteOn Channel="10" Note="38" Velocity="89"/>
  </Event>
  <Event>
    <Absolute>11422</Absolute>
    <NoteOn Channel="10" Note="38" Velocity="0"/>
  </Event>
  <Event>
    <Absolute>11490</Absolute>
    <NoteOn Channel="10" Note="38" Velocity="72"/>
  </Event>
  <Event>
    <Absolute>11509</Absolute>
    <NoteOn Channel="10" Note="38" Velocity="0"/>
  </Event>
  <Event>
    <Absolute>11520</Absolute>
    <NoteOn Channel="10" Note="38" Velocity="89"/>
  </Event>
  <Event>
    <Absolute>11541</Absolute>
    <NoteOn Channel="10" Note="38" Velocity="0"/>
  </Event>
  <Event>
    <Absolute>11610</Absolute>
    <NoteOn Channel="10" Note="38" Velocity="61"/>
  </Event>
  <Event>
    <Absolute>11629</Absolute>
    <NoteOn Channel="10" Note="38" Velocity="0"/>
  </Event>
  <Event>
    <Absolute>11640</Absolute>
    <NoteOn Channel="10" Note="38" Velocity="87"/>
  </Event>
  <Event>
    <Absolute>11656</Absolute>
    <NoteOn Channel="10" Note="38" Velocity="0"/>
  </Event>
  <Event>
    <Absolute>11670</Absolute>
    <NoteOn Channel="10" Note="38" Velocity="69"/>
  </Event>
  <Event>
    <Absolute>11689</Absolute>
    <NoteOn Channel="10" Note="38" Velocity="0"/>
  </Event>
  <Event>
    <Absolute>11700</Absolute>
    <NoteOn Channel="10" Note="38" Velocity="86"/>
  </Event>
  <Event>
    <Absolute>11715</Absolute>
    <NoteOn Channel="10" Note="38" Velocity="0"/>
  </Event>
  <Event>
    <Absolute>11730</Absolute>
    <NoteOn Channel="10" Note="38" Velocity="75"/>
  </Event>
  <Event>
    <Absolute>11748</Absolute>
    <NoteOn Channel="10" Note="38" Velocity="0"/>
  </Event>
  <Event>
    <Absolute>11760</Absolute>
    <NoteOn Channel="10" Note="38" Velocity="75"/>
  </Event>
  <Event>
    <Absolute>11773</Absolute>
    <NoteOn Channel="10" Note="38" Velocity="0"/>
  </Event>
  <Event>
    <Absolute>11790</Absolute>
    <NoteOn Channel="10" Note="38" Velocity="45"/>
  </Event>
  <Event>
    <Absolute>11806</Absolute>
    <NoteOn Channel="10" Note="38" Velocity="0"/>
  </Event>
  <Event>
    <Absolute>11820</Absolute>
    <NoteOn Channel="10" Note="38" Velocity="74"/>
  </Event>
  <Event>
    <Absolute>11838</Absolute>
    <NoteOn Channel="10" Note="38" Velocity="0"/>
  </Event>
  <Event>
    <Absolute>11850</Absolute>
    <NoteOn Channel="10" Note="38" Velocity="59"/>
  </Event>
  <Event>
    <Absolute>11867</Absolute>
    <NoteOn Channel="10" Note="38" Velocity="0"/>
  </Event>
  <Event>
    <Absolute>11880</Absolute>
    <NoteOn Channel="10" Note="38" Velocity="80"/>
  </Event>
  <Event>
    <Absolute>11897</Absolute>
    <NoteOn Channel="10" Note="38" Velocity="0"/>
  </Event>
  <Event>
    <Absolute>11910</Absolute>
    <NoteOn Channel="10" Note="38" Velocity="52"/>
  </Event>
  <Event>
    <Absolute>11927</Absolute>
    <NoteOn Channel="10" Note="38" Velocity="0"/>
  </Event>
  <Event>
    <Absolute>11940</Absolute>
    <NoteOn Channel="10" Note="38" Velocity="87"/>
  </Event>
  <Event>
    <Absolute>11956</Absolute>
    <NoteOn Channel="10" Note="38" Velocity="0"/>
  </Event>
  <Event>
    <Absolute>11970</Absolute>
    <NoteOn Channel="10" Note="38" Velocity="66"/>
  </Event>
  <Event>
    <Absolute>11990</Absolute>
    <NoteOn Channel="10" Note="38" Velocity="0"/>
  </Event>
  <Event>
    <Absolute>12000</Absolute>
    <NoteOn Channel="10" Note="57" Velocity="97"/>
  </Event>
  <Event>
    <Absolute>12055</Absolute>
    <NoteOn Channel="10" Note="57" Velocity="0"/>
  </Event>
  <Event>
    <Absolute>12090</Absolute>
    <NoteOn Channel="10" Note="38" Velocity="66"/>
  </Event>
  <Event>
    <Absolute>12107</Absolute>
    <NoteOn Channel="10" Note="38" Velocity="0"/>
  </Event>
  <Event>
    <Absolute>12120</Absolute>
    <NoteOn Channel="10" Note="38" Velocity="90"/>
  </Event>
  <Event>
    <Absolute>12143</Absolute>
    <NoteOn Channel="10" Note="38" Velocity="0"/>
  </Event>
  <Event>
    <Absolute>12210</Absolute>
    <NoteOn Channel="10" Note="38" Velocity="66"/>
  </Event>
  <Event>
    <Absolute>12227</Absolute>
    <NoteOn Channel="10" Note="38" Velocity="0"/>
  </Event>
  <Event>
    <Absolute>12240</Absolute>
    <NoteOn Channel="10" Note="38" Velocity="88"/>
  </Event>
  <Event>
    <Absolute>12258</Absolute>
    <NoteOn Channel="10" Note="38" Velocity="0"/>
  </Event>
  <Event>
    <Absolute>12330</Absolute>
    <NoteOn Channel="10" Note="38" Velocity="58"/>
  </Event>
  <Event>
    <Absolute>12347</Absolute>
    <NoteOn Channel="10" Note="38" Velocity="0"/>
  </Event>
  <Event>
    <Absolute>12360</Absolute>
    <NoteOn Channel="10" Note="38" Velocity="85"/>
  </Event>
  <Event>
    <Absolute>12376</Absolute>
    <NoteOn Channel="10" Note="38" Velocity="0"/>
  </Event>
  <Event>
    <Absolute>12390</Absolute>
    <NoteOn Channel="10" Note="38" Velocity="55"/>
  </Event>
  <Event>
    <Absolute>12407</Absolute>
    <NoteOn Channel="10" Note="38" Velocity="0"/>
  </Event>
  <Event>
    <Absolute>12420</Absolute>
    <NoteOn Channel="10" Note="38" Velocity="86"/>
  </Event>
  <Event>
    <Absolute>12436</Absolute>
    <NoteOn Channel="10" Note="38" Velocity="0"/>
  </Event>
  <Event>
    <Absolute>12450</Absolute>
    <NoteOn Channel="10" Note="38" Velocity="60"/>
  </Event>
  <Event>
    <Absolute>12470</Absolute>
    <NoteOn Channel="10" Note="38" Velocity="0"/>
  </Event>
  <Event>
    <Absolute>12480</Absolute>
    <NoteOn Channel="10" Note="38" Velocity="86"/>
  </Event>
  <Event>
    <Absolute>12501</Absolute>
    <NoteOn Channel="10" Note="38" Velocity="0"/>
  </Event>
  <Event>
    <Absolute>12570</Absolute>
    <NoteOn Channel="10" Note="38" Velocity="74"/>
  </Event>
  <Event>
    <Absolute>12587</Absolute>
    <NoteOn Channel="10" Note="38" Velocity="0"/>
  </Event>
  <Event>
    <Absolute>12600</Absolute>
    <NoteOn Channel="10" Note="38" Velocity="86"/>
  </Event>
  <Event>
    <Absolute>12621</Absolute>
    <NoteOn Channel="10" Note="38" Velocity="0"/>
  </Event>
  <Event>
    <Absolute>12690</Absolute>
    <NoteOn Channel="10" Note="38" Velocity="58"/>
  </Event>
  <Event>
    <Absolute>12708</Absolute>
    <NoteOn Channel="10" Note="38" Velocity="0"/>
  </Event>
  <Event>
    <Absolute>12720</Absolute>
    <NoteOn Channel="10" Note="38" Velocity="89"/>
  </Event>
  <Event>
    <Absolute>12738</Absolute>
    <NoteOn Channel="10" Note="38" Velocity="0"/>
  </Event>
  <Event>
    <Absolute>12750</Absolute>
    <NoteOn Channel="10" Note="38" Velocity="61"/>
  </Event>
  <Event>
    <Absolute>12770</Absolute>
    <NoteOn Channel="10" Note="38" Velocity="0"/>
  </Event>
  <Event>
    <Absolute>12780</Absolute>
    <NoteOn Channel="10" Note="38" Velocity="80"/>
  </Event>
  <Event>
    <Absolute>12794</Absolute>
    <NoteOn Channel="10" Note="38" Velocity="0"/>
  </Event>
  <Event>
    <Absolute>12810</Absolute>
    <NoteOn Channel="10" Note="38" Velocity="68"/>
  </Event>
  <Event>
    <Absolute>12830</Absolute>
    <NoteOn Channel="10" Note="38" Velocity="0"/>
  </Event>
  <Event>
    <Absolute>12840</Absolute>
    <NoteOn Channel="10" Note="38" Velocity="90"/>
  </Event>
  <Event>
    <Absolute>12861</Absolute>
    <NoteOn Channel="10" Note="38" Velocity="0"/>
  </Event>
  <Event>
    <Absolute>12930</Absolute>
    <NoteOn Channel="10" Note="38" Velocity="61"/>
  </Event>
  <Event>
    <Absolute>12950</Absolute>
    <NoteOn Channel="10" Note="38" Velocity="0"/>
  </Event>
  <Event>
    <Absolute>12960</Absolute>
    <NoteOn Channel="10" Note="38" Velocity="89"/>
  </Event>
  <Event>
    <Absolute>12978</Absolute>
    <NoteOn Channel="10" Note="38" Velocity="0"/>
  </Event>
  <Event>
    <Absolute>13050</Absolute>
    <NoteOn Channel="10" Note="38" Velocity="62"/>
  </Event>
  <Event>
    <Absolute>13067</Absolute>
    <NoteOn Channel="10" Note="38" Velocity="0"/>
  </Event>
  <Event>
    <Absolute>13080</Absolute>
    <NoteOn Channel="10" Note="38" Velocity="90"/>
  </Event>
  <Event>
    <Absolute>13096</Absolute>
    <NoteOn Channel="10" Note="38" Velocity="0"/>
  </Event>
  <Event>
    <Absolute>13110</Absolute>
    <NoteOn Channel="10" Note="38" Velocity="64"/>
  </Event>
  <Event>
    <Absolute>13130</Absolute>
    <NoteOn Channel="10" Note="38" Velocity="0"/>
  </Event>
  <Event>
    <Absolute>13140</Absolute>
    <NoteOn Channel="10" Note="38" Velocity="87"/>
  </Event>
  <Event>
    <Absolute>13157</Absolute>
    <NoteOn Channel="10" Note="38" Velocity="0"/>
  </Event>
  <Event>
    <Absolute>13170</Absolute>
    <NoteOn Channel="10" Note="38" Velocity="58"/>
  </Event>
  <Event>
    <Absolute>13186</Absolute>
    <NoteOn Channel="10" Note="38" Velocity="0"/>
  </Event>
  <Event>
    <Absolute>13200</Absolute>
    <NoteOn Channel="10" Note="38" Velocity="85"/>
  </Event>
  <Event>
    <Absolute>13227</Absolute>
    <NoteOn Channel="10" Note="38" Velocity="0"/>
  </Event>
  <Event>
    <Absolute>13290</Absolute>
    <NoteOn Channel="10" Note="38" Velocity="58"/>
  </Event>
  <Event>
    <Absolute>13308</Absolute>
    <NoteOn Channel="10" Note="38" Velocity="0"/>
  </Event>
  <Event>
    <Absolute>13320</Absolute>
    <NoteOn Channel="10" Note="38" Velocity="89"/>
  </Event>
  <Event>
    <Absolute>13340</Absolute>
    <NoteOn Channel="10" Note="38" Velocity="0"/>
  </Event>
  <Event>
    <Absolute>13410</Absolute>
    <NoteOn Channel="10" Note="38" Velocity="61"/>
  </Event>
  <Event>
    <Absolute>13427</Absolute>
    <NoteOn Channel="10" Note="38" Velocity="0"/>
  </Event>
  <Event>
    <Absolute>13440</Absolute>
    <NoteOn Channel="10" Note="38" Velocity="88"/>
  </Event>
  <Event>
    <Absolute>13458</Absolute>
    <NoteOn Channel="10" Note="38" Velocity="0"/>
  </Event>
  <Event>
    <Absolute>13470</Absolute>
    <NoteOn Channel="10" Note="38" Velocity="73"/>
  </Event>
  <Event>
    <Absolute>13481</Absolute>
    <NoteOn Channel="10" Note="38" Velocity="0"/>
  </Event>
  <Event>
    <Absolute>13500</Absolute>
    <NoteOn Channel="10" Note="38" Velocity="88"/>
  </Event>
  <Event>
    <Absolute>13515</Absolute>
    <NoteOn Channel="10" Note="38" Velocity="0"/>
  </Event>
  <Event>
    <Absolute>13530</Absolute>
    <NoteOn Channel="10" Note="38" Velocity="63"/>
  </Event>
  <Event>
    <Absolute>13540</Absolute>
    <NoteOn Channel="10" Note="38" Velocity="0"/>
  </Event>
  <Event>
    <Absolute>13560</Absolute>
    <NoteOn Channel="10" Note="38" Velocity="96"/>
  </Event>
  <Event>
    <Absolute>13583</Absolute>
    <NoteOn Channel="10" Note="38" Velocity="0"/>
  </Event>
  <Event>
    <Absolute>13650</Absolute>
    <NoteOn Channel="10" Note="38" Velocity="70"/>
  </Event>
  <Event>
    <Absolute>13671</Absolute>
    <NoteOn Channel="10" Note="38" Velocity="0"/>
  </Event>
  <Event>
    <Absolute>13680</Absolute>
    <NoteOn Channel="10" Note="38" Velocity="103"/>
  </Event>
  <Event>
    <Absolute>13704</Absolute>
    <NoteOn Channel="10" Note="38" Velocity="0"/>
  </Event>
  <Event>
    <Absolute>13770</Absolute>
    <NoteOn Channel="10" Note="38" Velocity="84"/>
  </Event>
  <Event>
    <Absolute>13788</Absolute>
    <NoteOn Channel="10" Note="38" Velocity="0"/>
  </Event>
  <Event>
    <Absolute>13800</Absolute>
    <NoteOn Channel="10" Note="38" Velocity="110"/>
  </Event>
  <Event>
    <Absolute>13816</Absolute>
    <NoteOn Channel="10" Note="38" Velocity="0"/>
  </Event>
  <Event>
    <Absolute>13830</Absolute>
    <NoteOn Channel="10" Note="38" Velocity="83"/>
  </Event>
  <Event>
    <Absolute>13848</Absolute>
    <NoteOn Channel="10" Note="38" Velocity="0"/>
  </Event>
  <Event>
    <Absolute>13860</Absolute>
    <NoteOn Channel="10" Note="38" Velocity="113"/>
  </Event>
  <Event>
    <Absolute>13875</Absolute>
    <NoteOn Channel="10" Note="38" Velocity="0"/>
  </Event>
  <Event>
    <Absolute>13890</Absolute>
    <NoteOn Channel="10" Note="38" Velocity="86"/>
  </Event>
  <Event>
    <Absolute>13913</Absolute>
    <NoteOn Channel="10" Note="38" Velocity="0"/>
  </Event>
  <Event>
    <Absolute>13920</Absolute>
    <NoteOn Channel="10" Note="38" Velocity="127"/>
  </Event>
  <Event>
    <Absolute>13931</Absolute>
    <NoteOn Channel="10" Note="38" Velocity="98"/>
  </Event>
  <Event>
    <Absolute>13932</Absolute>
    <NoteOn Channel="10" Note="57" Velocity="127"/>
  </Event>
  <Event>
    <Absolute>13941</Absolute>
    <NoteOn Channel="10" Note="38" Velocity="0"/>
  </Event>
  <Event>
    <Absolute>13941</Absolute>
    <NoteOn Channel="10" Note="38" Velocity="125"/>
  </Event>
  <Event>
    <Absolute>13942</Absolute>
    <NoteOn Channel="10" Note="38" Velocity="0"/>
  </Event>
  <Event>
    <Absolute>13942</Absolute>
    <NoteOn Channel="10" Note="38" Velocity="0"/>
  </Event>
  <Event>
    <Absolute>13964</Absolute>
    <NoteOn Channel="10" Note="57" Velocity="0"/>
  </Event>
  <Event>
    <Absolute>13998</Absolute>
    <NoteOn Channel="10" Note="38" Velocity="92"/>
  </Event>
  <Event>
    <Absolute>14009</Absolute>
    <NoteOn Channel="10" Note="38" Velocity="0"/>
  </Event>
  <Event>
    <Absolute>14017</Absolute>
    <NoteOn Channel="10" Note="38" Velocity="92"/>
  </Event>
  <Event>
    <Absolute>14028</Absolute>
    <NoteOn Channel="10" Note="38" Velocity="0"/>
  </Event>
  <Event>
    <Absolute>14038</Absolute>
    <NoteOn Channel="10" Note="38" Velocity="91"/>
  </Event>
  <Event>
    <Absolute>14051</Absolute>
    <NoteOn Channel="10" Note="38" Velocity="0"/>
  </Event>
  <Event>
    <Absolute>14052</Absolute>
    <NoteOn Channel="10" Note="38" Velocity="90"/>
  </Event>
  <Event>
    <Absolute>14063</Absolute>
    <NoteOn Channel="10" Note="38" Velocity="0"/>
  </Event>
  <Event>
    <Absolute>14113</Absolute>
    <NoteOn Channel="10" Note="38" Velocity="77"/>
  </Event>
  <Event>
    <Absolute>14121</Absolute>
    <NoteOn Channel="10" Note="38" Velocity="0"/>
  </Event>
  <Event>
    <Absolute>14133</Absolute>
    <NoteOn Channel="10" Note="38" Velocity="62"/>
  </Event>
  <Event>
    <Absolute>14142</Absolute>
    <NoteOn Channel="10" Note="38" Velocity="0"/>
  </Event>
  <Event>
    <Absolute>14153</Absolute>
    <NoteOn Channel="10" Note="38" Velocity="87"/>
  </Event>
  <Event>
    <Absolute>14163</Absolute>
    <NoteOn Channel="10" Note="38" Velocity="0"/>
  </Event>
  <Event>
    <Absolute>14171</Absolute>
    <NoteOn Channel="10" Note="38" Velocity="86"/>
  </Event>
  <Event>
    <Absolute>14182</Absolute>
    <NoteOn Channel="10" Note="38" Velocity="0"/>
  </Event>
  <Event>
    <Absolute>14232</Absolute>
    <NoteOn Channel="10" Note="38" Velocity="74"/>
  </Event>
  <Event>
    <Absolute>14242</Absolute>
    <NoteOn Channel="10" Note="38" Velocity="0"/>
  </Event>
  <Event>
    <Absolute>14251</Absolute>
    <NoteOn Channel="10" Note="38" Velocity="72"/>
  </Event>
  <Event>
    <Absolute>14264</Absolute>
    <NoteOn Channel="10" Note="38" Velocity="0"/>
  </Event>
  <Event>
    <Absolute>14272</Absolute>
    <NoteOn Channel="10" Note="38" Velocity="78"/>
  </Event>
  <Event>
    <Absolute>14284</Absolute>
    <NoteOn Channel="10" Note="38" Velocity="0"/>
  </Event>
  <Event>
    <Absolute>14286</Absolute>
    <NoteOn Channel="10" Note="51" Velocity="21"/>
  </Event>
  <Event>
    <Absolute>14286</Absolute>
    <NoteOn Channel="10" Note="57" Velocity="20"/>
  </Event>
  <Event>
    <Absolute>14291</Absolute>
    <NoteOn Channel="10" Note="38" Velocity="73"/>
  </Event>
  <Event>
    <Absolute>14297</Absolute>
    <NoteOn Channel="10" Note="57" Velocity="0"/>
  </Event>
  <Event>
    <Absolute>14298</Absolute>
    <NoteOn Channel="10" Note="51" Velocity="0"/>
  </Event>
  <Event>
    <Absolute>14303</Absolute>
    <NoteOn Channel="10" Note="38" Velocity="0"/>
  </Event>
  <Event>
    <Absolute>14312</Absolute>
    <NoteOn Channel="10" Note="38" Velocity="81"/>
  </Event>
  <Event>
    <Absolute>14324</Absolute>
    <NoteOn Channel="10" Note="38" Velocity="0"/>
  </Event>
  <Event>
    <Absolute>14331</Absolute>
    <NoteOn Channel="10" Note="38" Velocity="80"/>
  </Event>
  <Event>
    <Absolute>14344</Absolute>
    <NoteOn Channel="10" Note="38" Velocity="0"/>
  </Event>
  <Event>
    <Absolute>14347</Absolute>
    <NoteOn Channel="10" Note="51" Velocity="2"/>
  </Event>
  <Event>
    <Absolute>14349</Absolute>
    <NoteOn Channel="10" Note="57" Velocity="2"/>
  </Event>
  <Event>
    <Absolute>14353</Absolute>
    <NoteOn Channel="10" Note="38" Velocity="79"/>
  </Event>
  <Event>
    <Absolute>14359</Absolute>
    <NoteOn Channel="10" Note="57" Velocity="0"/>
  </Event>
  <Event>
    <Absolute>14360</Absolute>
    <NoteOn Channel="10" Note="51" Velocity="0"/>
  </Event>
  <Event>
    <Absolute>14364</Absolute>
    <NoteOn Channel="10" Note="38" Velocity="0"/>
  </Event>
  <Event>
    <Absolute>14413</Absolute>
    <NoteOn Channel="10" Note="38" Velocity="79"/>
  </Event>
  <Event>
    <Absolute>14424</Absolute>
    <NoteOn Channel="10" Note="38" Velocity="0"/>
  </Event>
  <Event>
    <Absolute>14529</Absolute>
    <NoteOn Channel="10" Note="38" Velocity="79"/>
  </Event>
  <Event>
    <Absolute>14542</Absolute>
    <NoteOn Channel="10" Note="38" Velocity="0"/>
  </Event>
  <Event>
    <Absolute>14591</Absolute>
    <NoteOn Channel="10" Note="38" Velocity="79"/>
  </Event>
  <Event>
    <Absolute>14602</Absolute>
    <NoteOn Channel="10" Note="38" Velocity="0"/>
  </Event>
  <Event>
    <Absolute>14611</Absolute>
    <NoteOn Channel="10" Note="38" Velocity="51"/>
  </Event>
  <Event>
    <Absolute>14621</Absolute>
    <NoteOn Channel="10" Note="38" Velocity="0"/>
  </Event>
  <Event>
    <Absolute>14631</Absolute>
    <NoteOn Channel="10" Note="38" Velocity="79"/>
  </Event>
  <Event>
    <Absolute>14642</Absolute>
    <NoteOn Channel="10" Note="38" Velocity="0"/>
  </Event>
  <Event>
    <Absolute>14650</Absolute>
    <NoteOn Channel="10" Note="38" Velocity="79"/>
  </Event>
  <Event>
    <Absolute>14663</Absolute>
    <NoteOn Channel="10" Note="38" Velocity="0"/>
  </Event>
  <Event>
    <Absolute>14712</Absolute>
    <NoteOn Channel="10" Note="38" Velocity="71"/>
  </Event>
  <Event>
    <Absolute>14722</Absolute>
    <NoteOn Channel="10" Note="38" Velocity="0"/>
  </Event>
  <Event>
    <Absolute>14732</Absolute>
    <NoteOn Channel="10" Note="38" Velocity="75"/>
  </Event>
  <Event>
    <Absolute>14745</Absolute>
    <NoteOn Channel="10" Note="38" Velocity="0"/>
  </Event>
  <Event>
    <Absolute>14751</Absolute>
    <NoteOn Channel="10" Note="38" Velocity="79"/>
  </Event>
  <Event>
    <Absolute>14764</Absolute>
    <NoteOn Channel="10" Note="38" Velocity="0"/>
  </Event>
  <Event>
    <Absolute>14770</Absolute>
    <NoteOn Channel="10" Note="51" Velocity="7"/>
  </Event>
  <Event>
    <Absolute>14770</Absolute>
    <NoteOn Channel="10" Note="57" Velocity="7"/>
  </Event>
  <Event>
    <Absolute>14771</Absolute>
    <NoteOn Channel="10" Note="38" Velocity="79"/>
  </Event>
  <Event>
    <Absolute>14780</Absolute>
    <NoteOn Channel="10" Note="57" Velocity="0"/>
  </Event>
  <Event>
    <Absolute>14782</Absolute>
    <NoteOn Channel="10" Note="38" Velocity="0"/>
  </Event>
  <Event>
    <Absolute>14783</Absolute>
    <NoteOn Channel="10" Note="51" Velocity="0"/>
  </Event>
  <Event>
    <Absolute>14792</Absolute>
    <NoteOn Channel="10" Note="38" Velocity="79"/>
  </Event>
  <Event>
    <Absolute>14803</Absolute>
    <NoteOn Channel="10" Note="38" Velocity="0"/>
  </Event>
  <Event>
    <Absolute>14812</Absolute>
    <NoteOn Channel="10" Note="38" Velocity="77"/>
  </Event>
  <Event>
    <Absolute>14824</Absolute>
    <NoteOn Channel="10" Note="38" Velocity="0"/>
  </Event>
  <Event>
    <Absolute>14830</Absolute>
    <NoteOn Channel="10" Note="57" Velocity="2"/>
  </Event>
  <Event>
    <Absolute>14832</Absolute>
    <NoteOn Channel="10" Note="38" Velocity="79"/>
  </Event>
  <Event>
    <Absolute>14833</Absolute>
    <NoteOn Channel="10" Note="57" Velocity="2"/>
  </Event>
  <Event>
    <Absolute>14836</Absolute>
    <NoteOn Channel="10" Note="57" Velocity="0"/>
  </Event>
  <Event>
    <Absolute>14837</Absolute>
    <NoteOn Channel="10" Note="57" Velocity="0"/>
  </Event>
  <Event>
    <Absolute>14843</Absolute>
    <NoteOn Channel="10" Note="38" Velocity="0"/>
  </Event>
  <Event>
    <Absolute>14892</Absolute>
    <NoteOn Channel="10" Note="38" Velocity="79"/>
  </Event>
  <Event>
    <Absolute>14900</Absolute>
    <NoteOn Channel="10" Note="48" Velocity="79"/>
  </Event>
  <Event>
    <Absolute>14901</Absolute>
    <NoteOn Channel="10" Note="51" Velocity="79"/>
  </Event>
  <Event>
    <Absolute>14902</Absolute>
    <NoteOn Channel="10" Note="38" Velocity="0"/>
  </Event>
  <Event>
    <Absolute>14911</Absolute>
    <NoteOn Channel="10" Note="51" Velocity="0"/>
  </Event>
  <Event>
    <Absolute>14911</Absolute>
    <NoteOn Channel="10" Note="48" Velocity="0"/>
  </Event>
  <Event>
    <Absolute>15011</Absolute>
    <NoteOn Channel="10" Note="38" Velocity="105"/>
  </Event>
  <Event>
    <Absolute>15022</Absolute>
    <NoteOn Channel="10" Note="38" Velocity="0"/>
  </Event>
  <Event>
    <Absolute>15071</Absolute>
    <NoteOn Channel="10" Note="38" Velocity="105"/>
  </Event>
  <Event>
    <Absolute>15081</Absolute>
    <NoteOn Channel="10" Note="38" Velocity="0"/>
  </Event>
  <Event>
    <Absolute>15088</Absolute>
    <NoteOn Channel="10" Note="38" Velocity="105"/>
  </Event>
  <Event>
    <Absolute>15100</Absolute>
    <NoteOn Channel="10" Note="38" Velocity="0"/>
  </Event>
  <Event>
    <Absolute>15110</Absolute>
    <NoteOn Channel="10" Note="38" Velocity="105"/>
  </Event>
  <Event>
    <Absolute>15119</Absolute>
    <NoteOn Channel="10" Note="38" Velocity="0"/>
  </Event>
  <Event>
    <Absolute>15130</Absolute>
    <NoteOn Channel="10" Note="38" Velocity="105"/>
  </Event>
  <Event>
    <Absolute>15145</Absolute>
    <NoteOn Channel="10" Note="38" Velocity="0"/>
  </Event>
  <Event>
    <Absolute>15191</Absolute>
    <NoteOn Channel="10" Note="38" Velocity="105"/>
  </Event>
  <Event>
    <Absolute>15202</Absolute>
    <NoteOn Channel="10" Note="38" Velocity="0"/>
  </Event>
  <Event>
    <Absolute>15212</Absolute>
    <NoteOn Channel="10" Note="38" Velocity="105"/>
  </Event>
  <Event>
    <Absolute>15224</Absolute>
    <NoteOn Channel="10" Note="38" Velocity="0"/>
  </Event>
  <Event>
    <Absolute>15232</Absolute>
    <NoteOn Channel="10" Note="38" Velocity="105"/>
  </Event>
  <Event>
    <Absolute>15244</Absolute>
    <NoteOn Channel="10" Note="38" Velocity="0"/>
  </Event>
  <Event>
    <Absolute>15251</Absolute>
    <NoteOn Channel="10" Note="38" Velocity="105"/>
  </Event>
  <Event>
    <Absolute>15262</Absolute>
    <NoteOn Channel="10" Note="38" Velocity="0"/>
  </Event>
  <Event>
    <Absolute>15270</Absolute>
    <NoteOn Channel="10" Note="38" Velocity="105"/>
  </Event>
  <Event>
    <Absolute>15283</Absolute>
    <NoteOn Channel="10" Note="38" Velocity="0"/>
  </Event>
  <Event>
    <Absolute>15290</Absolute>
    <NoteOn Channel="10" Note="38" Velocity="105"/>
  </Event>
  <Event>
    <Absolute>15303</Absolute>
    <NoteOn Channel="10" Note="38" Velocity="0"/>
  </Event>
  <Event>
    <Absolute>15311</Absolute>
    <NoteOn Channel="10" Note="38" Velocity="105"/>
  </Event>
  <Event>
    <Absolute>15323</Absolute>
    <NoteOn Channel="10" Note="38" Velocity="0"/>
  </Event>
  <Event>
    <Absolute>15373</Absolute>
    <NoteOn Channel="10" Note="38" Velocity="105"/>
  </Event>
  <Event>
    <Absolute>15386</Absolute>
    <NoteOn Channel="10" Note="38" Velocity="0"/>
  </Event>
  <Event>
    <Absolute>15493</Absolute>
    <NoteOn Channel="10" Note="38" Velocity="105"/>
  </Event>
  <Event>
    <Absolute>15505</Absolute>
    <NoteOn Channel="10" Note="38" Velocity="0"/>
  </Event>
  <Event>
    <Absolute>15553</Absolute>
    <NoteOn Channel="10" Note="38" Velocity="95"/>
  </Event>
  <Event>
    <Absolute>15563</Absolute>
    <NoteOn Channel="10" Note="38" Velocity="0"/>
  </Event>
  <Event>
    <Absolute>15572</Absolute>
    <NoteOn Channel="10" Note="38" Velocity="105"/>
  </Event>
  <Event>
    <Absolute>15583</Absolute>
    <NoteOn Channel="10" Note="38" Velocity="0"/>
  </Event>
  <Event>
    <Absolute>15592</Absolute>
    <NoteOn Channel="10" Note="38" Velocity="105"/>
  </Event>
  <Event>
    <Absolute>15604</Absolute>
    <NoteOn Channel="10" Note="38" Velocity="0"/>
  </Event>
  <Event>
    <Absolute>15610</Absolute>
    <NoteOn Channel="10" Note="38" Velocity="95"/>
  </Event>
  <Event>
    <Absolute>15620</Absolute>
    <NoteOn Channel="10" Note="38" Velocity="0"/>
  </Event>
  <Event>
    <Absolute>15671</Absolute>
    <NoteOn Channel="10" Note="38" Velocity="105"/>
  </Event>
  <Event>
    <Absolute>15682</Absolute>
    <NoteOn Channel="10" Note="38" Velocity="0"/>
  </Event>
  <Event>
    <Absolute>15690</Absolute>
    <NoteOn Channel="10" Note="38" Velocity="105"/>
  </Event>
  <Event>
    <Absolute>15703</Absolute>
    <NoteOn Channel="10" Note="38" Velocity="0"/>
  </Event>
  <Event>
    <Absolute>15710</Absolute>
    <NoteOn Channel="10" Note="38" Velocity="105"/>
  </Event>
  <Event>
    <Absolute>15722</Absolute>
    <NoteOn Channel="10" Note="38" Velocity="0"/>
  </Event>
  <Event>
    <Absolute>15730</Absolute>
    <NoteOn Channel="10" Note="38" Velocity="105"/>
  </Event>
  <Event>
    <Absolute>15741</Absolute>
    <NoteOn Channel="10" Note="38" Velocity="0"/>
  </Event>
  <Event>
    <Absolute>15750</Absolute>
    <NoteOn Channel="10" Note="38" Velocity="105"/>
  </Event>
  <Event>
    <Absolute>15764</Absolute>
    <NoteOn Channel="10" Note="38" Velocity="0"/>
  </Event>
  <Event>
    <Absolute>15770</Absolute>
    <NoteOn Channel="10" Note="38" Velocity="105"/>
  </Event>
  <Event>
    <Absolute>15781</Absolute>
    <NoteOn Channel="10" Note="38" Velocity="0"/>
  </Event>
  <Event>
    <Absolute>15791</Absolute>
    <NoteOn Channel="10" Note="38" Velocity="105"/>
  </Event>
  <Event>
    <Absolute>15802</Absolute>
    <NoteOn Channel="10" Note="38" Velocity="0"/>
  </Event>
  <Event>
    <Absolute>15851</Absolute>
    <NoteOn Channel="10" Note="38" Velocity="105"/>
  </Event>
  <Event>
    <Absolute>15861</Absolute>
    <NoteOn Channel="10" Note="38" Velocity="0"/>
  </Event>
  <Event>
    <Absolute>15971</Absolute>
    <NoteOn Channel="10" Note="38" Velocity="105"/>
  </Event>
  <Event>
    <Absolute>15982</Absolute>
    <NoteOn Channel="10" Note="38" Velocity="0"/>
  </Event>
  <Event>
    <Absolute>16032</Absolute>
    <NoteOn Channel="10" Note="38" Velocity="105"/>
  </Event>
  <Event>
    <Absolute>16043</Absolute>
    <NoteOn Channel="10" Note="38" Velocity="0"/>
  </Event>
  <Event>
    <Absolute>16052</Absolute>
    <NoteOn Channel="10" Note="38" Velocity="81"/>
  </Event>
  <Event>
    <Absolute>16063</Absolute>
    <NoteOn Channel="10" Note="38" Velocity="0"/>
  </Event>
  <Event>
    <Absolute>16071</Absolute>
    <NoteOn Channel="10" Note="38" Velocity="105"/>
  </Event>
  <Event>
    <Absolute>16082</Absolute>
    <NoteOn Channel="10" Note="38" Velocity="0"/>
  </Event>
  <Event>
    <Absolute>16091</Absolute>
    <NoteOn Channel="10" Note="38" Velocity="105"/>
  </Event>
  <Event>
    <Absolute>16102</Absolute>
    <NoteOn Channel="10" Note="38" Velocity="0"/>
  </Event>
  <Event>
    <Absolute>16155</Absolute>
    <NoteOn Channel="10" Note="38" Velocity="105"/>
  </Event>
  <Event>
    <Absolute>16165</Absolute>
    <NoteOn Channel="10" Note="38" Velocity="0"/>
  </Event>
  <Event>
    <Absolute>16174</Absolute>
    <NoteOn Channel="10" Note="38" Velocity="100"/>
  </Event>
  <Event>
    <Absolute>16185</Absolute>
    <NoteOn Channel="10" Note="38" Velocity="0"/>
  </Event>
  <Event>
    <Absolute>16192</Absolute>
    <NoteOn Channel="10" Note="38" Velocity="105"/>
  </Event>
  <Event>
    <Absolute>16205</Absolute>
    <NoteOn Channel="10" Note="38" Velocity="0"/>
  </Event>
  <Event>
    <Absolute>16212</Absolute>
    <NoteOn Channel="10" Note="38" Velocity="105"/>
  </Event>
  <Event>
    <Absolute>16224</Absolute>
    <NoteOn Channel="10" Note="38" Velocity="0"/>
  </Event>
  <Event>
    <Absolute>16231</Absolute>
    <NoteOn Channel="10" Note="38" Velocity="105"/>
  </Event>
  <Event>
    <Absolute>16244</Absolute>
    <NoteOn Channel="10" Note="38" Velocity="0"/>
  </Event>
  <Event>
    <Absolute>16251</Absolute>
    <NoteOn Channel="10" Note="38" Velocity="105"/>
  </Event>
  <Event>
    <Absolute>16263</Absolute>
    <NoteOn Channel="10" Note="38" Velocity="0"/>
  </Event>
  <Event>
    <Absolute>16273</Absolute>
    <NoteOn Channel="10" Note="38" Velocity="105"/>
  </Event>
  <Event>
    <Absolute>16284</Absolute>
    <NoteOn Channel="10" Note="38" Velocity="0"/>
  </Event>
  <Event>
    <Absolute>16332</Absolute>
    <NoteOn Channel="10" Note="38" Velocity="105"/>
  </Event>
  <Event>
    <Absolute>16343</Absolute>
    <NoteOn Channel="10" Note="38" Velocity="0"/>
  </Event>
  <Event>
    <Absolute>16451</Absolute>
    <NoteOn Channel="10" Note="38" Velocity="105"/>
  </Event>
  <Event>
    <Absolute>16462</Absolute>
    <NoteOn Channel="10" Note="38" Velocity="0"/>
  </Event>
  <Event>
    <Absolute>16511</Absolute>
    <NoteOn Channel="10" Note="38" Velocity="105"/>
  </Event>
  <Event>
    <Absolute>16522</Absolute>
    <NoteOn Channel="10" Note="38" Velocity="0"/>
  </Event>
  <Event>
    <Absolute>16531</Absolute>
    <NoteOn Channel="10" Note="38" Velocity="100"/>
  </Event>
  <Event>
    <Absolute>16544</Absolute>
    <NoteOn Channel="10" Note="38" Velocity="0"/>
  </Event>
  <Event>
    <Absolute>16551</Absolute>
    <NoteOn Channel="10" Note="38" Velocity="105"/>
  </Event>
  <Event>
    <Absolute>16564</Absolute>
    <NoteOn Channel="10" Note="38" Velocity="0"/>
  </Event>
  <Event>
    <Absolute>16571</Absolute>
    <NoteOn Channel="10" Note="38" Velocity="105"/>
  </Event>
  <Event>
    <Absolute>16584</Absolute>
    <NoteOn Channel="10" Note="38" Velocity="0"/>
  </Event>
  <Event>
    <Absolute>16632</Absolute>
    <NoteOn Channel="10" Note="38" Velocity="105"/>
  </Event>
  <Event>
    <Absolute>16643</Absolute>
    <NoteOn Channel="10" Note="38" Velocity="0"/>
  </Event>
  <Event>
    <Absolute>16653</Absolute>
    <NoteOn Channel="10" Note="38" Velocity="100"/>
  </Event>
  <Event>
    <Absolute>16666</Absolute>
    <NoteOn Channel="10" Note="38" Velocity="0"/>
  </Event>
  <Event>
    <Absolute>16672</Absolute>
    <NoteOn Channel="10" Note="38" Velocity="105"/>
  </Event>
  <Event>
    <Absolute>16684</Absolute>
    <NoteOn Channel="10" Note="38" Velocity="0"/>
  </Event>
  <Event>
    <Absolute>16691</Absolute>
    <NoteOn Channel="10" Note="38" Velocity="105"/>
  </Event>
  <Event>
    <Absolute>16702</Absolute>
    <NoteOn Channel="10" Note="38" Velocity="0"/>
  </Event>
  <Event>
    <Absolute>16711</Absolute>
    <NoteOn Channel="10" Note="38" Velocity="105"/>
  </Event>
  <Event>
    <Absolute>16724</Absolute>
    <NoteOn Channel="10" Note="38" Velocity="0"/>
  </Event>
  <Event>
    <Absolute>16731</Absolute>
    <NoteOn Channel="10" Note="38" Velocity="105"/>
  </Event>
  <Event>
    <Absolute>16742</Absolute>
    <NoteOn Channel="10" Note="38" Velocity="0"/>
  </Event>
  <Event>
    <Absolute>16751</Absolute>
    <NoteOn Channel="10" Note="38" Velocity="105"/>
  </Event>
  <Event>
    <Absolute>16761</Absolute>
    <NoteOn Channel="10" Note="38" Velocity="0"/>
  </Event>
  <Event>
    <Absolute>16768</Absolute>
    <NoteOn Channel="10" Note="38" Velocity="105"/>
  </Event>
  <Event>
    <Absolute>16779</Absolute>
    <NoteOn Channel="10" Note="38" Velocity="0"/>
  </Event>
  <Event>
    <Absolute>16790</Absolute>
    <NoteOn Channel="10" Note="38" Velocity="105"/>
  </Event>
  <Event>
    <Absolute>16799</Absolute>
    <NoteOn Channel="10" Note="38" Velocity="0"/>
  </Event>
  <Event>
    <Absolute>16812</Absolute>
    <NoteOn Channel="10" Note="38" Velocity="105"/>
  </Event>
  <Event>
    <Absolute>16822</Absolute>
    <NoteOn Channel="10" Note="38" Velocity="0"/>
  </Event>
  <Event>
    <Absolute>16931</Absolute>
    <NoteOn Channel="10" Note="38" Velocity="105"/>
  </Event>
  <Event>
    <Absolute>16942</Absolute>
    <NoteOn Channel="10" Note="38" Velocity="0"/>
  </Event>
  <Event>
    <Absolute>16991</Absolute>
    <NoteOn Channel="10" Note="38" Velocity="105"/>
  </Event>
  <Event>
    <Absolute>17001</Absolute>
    <NoteOn Channel="10" Note="38" Velocity="0"/>
  </Event>
  <Event>
    <Absolute>17008</Absolute>
    <NoteOn Channel="10" Note="38" Velocity="105"/>
  </Event>
  <Event>
    <Absolute>17020</Absolute>
    <NoteOn Channel="10" Note="38" Velocity="0"/>
  </Event>
  <Event>
    <Absolute>17030</Absolute>
    <NoteOn Channel="10" Note="38" Velocity="105"/>
  </Event>
  <Event>
    <Absolute>17039</Absolute>
    <NoteOn Channel="10" Note="38" Velocity="0"/>
  </Event>
  <Event>
    <Absolute>17050</Absolute>
    <NoteOn Channel="10" Note="38" Velocity="105"/>
  </Event>
  <Event>
    <Absolute>17065</Absolute>
    <NoteOn Channel="10" Note="38" Velocity="0"/>
  </Event>
  <Event>
    <Absolute>17111</Absolute>
    <NoteOn Channel="10" Note="38" Velocity="105"/>
  </Event>
  <Event>
    <Absolute>17122</Absolute>
    <NoteOn Channel="10" Note="38" Velocity="0"/>
  </Event>
  <Event>
    <Absolute>17132</Absolute>
    <NoteOn Channel="10" Note="38" Velocity="105"/>
  </Event>
  <Event>
    <Absolute>17144</Absolute>
    <NoteOn Channel="10" Note="38" Velocity="0"/>
  </Event>
  <Event>
    <Absolute>17152</Absolute>
    <NoteOn Channel="10" Note="38" Velocity="105"/>
  </Event>
  <Event>
    <Absolute>17164</Absolute>
    <NoteOn Channel="10" Note="38" Velocity="0"/>
  </Event>
  <Event>
    <Absolute>17171</Absolute>
    <NoteOn Channel="10" Note="38" Velocity="105"/>
  </Event>
  <Event>
    <Absolute>17182</Absolute>
    <NoteOn Channel="10" Note="38" Velocity="0"/>
  </Event>
  <Event>
    <Absolute>17190</Absolute>
    <NoteOn Channel="10" Note="38" Velocity="105"/>
  </Event>
  <Event>
    <Absolute>17203</Absolute>
    <NoteOn Channel="10" Note="38" Velocity="0"/>
  </Event>
  <Event>
    <Absolute>17210</Absolute>
    <NoteOn Channel="10" Note="38" Velocity="105"/>
  </Event>
  <Event>
    <Absolute>17223</Absolute>
    <NoteOn Channel="10" Note="38" Velocity="0"/>
  </Event>
  <Event>
    <Absolute>17231</Absolute>
    <NoteOn Channel="10" Note="38" Velocity="105"/>
  </Event>
  <Event>
    <Absolute>17243</Absolute>
    <NoteOn Channel="10" Note="38" Velocity="0"/>
  </Event>
  <Event>
    <Absolute>17293</Absolute>
    <NoteOn Channel="10" Note="38" Velocity="105"/>
  </Event>
  <Event>
    <Absolute>17306</Absolute>
    <NoteOn Channel="10" Note="38" Velocity="0"/>
  </Event>
  <Event>
    <Absolute>17413</Absolute>
    <NoteOn Channel="10" Note="38" Velocity="105"/>
  </Event>
  <Event>
    <Absolute>17425</Absolute>
    <NoteOn Channel="10" Note="38" Velocity="0"/>
  </Event>
  <Event>
    <Absolute>17473</Absolute>
    <NoteOn Channel="10" Note="38" Velocity="95"/>
  </Event>
  <Event>
    <Absolute>17483</Absolute>
    <NoteOn Channel="10" Note="38" Velocity="0"/>
  </Event>
  <Event>
    <Absolute>17492</Absolute>
    <NoteOn Channel="10" Note="38" Velocity="105"/>
  </Event>
  <Event>
    <Absolute>17503</Absolute>
    <NoteOn Channel="10" Note="38" Velocity="0"/>
  </Event>
  <Event>
    <Absolute>17512</Absolute>
    <NoteOn Channel="10" Note="38" Velocity="105"/>
  </Event>
  <Event>
    <Absolute>17524</Absolute>
    <NoteOn Channel="10" Note="38" Velocity="0"/>
  </Event>
  <Event>
    <Absolute>17530</Absolute>
    <NoteOn Channel="10" Note="38" Velocity="95"/>
  </Event>
  <Event>
    <Absolute>17540</Absolute>
    <NoteOn Channel="10" Note="38" Velocity="0"/>
  </Event>
  <Event>
    <Absolute>17591</Absolute>
    <NoteOn Channel="10" Note="38" Velocity="105"/>
  </Event>
  <Event>
    <Absolute>17602</Absolute>
    <NoteOn Channel="10" Note="38" Velocity="0"/>
  </Event>
  <Event>
    <Absolute>17610</Absolute>
    <NoteOn Channel="10" Note="38" Velocity="105"/>
  </Event>
  <Event>
    <Absolute>17623</Absolute>
    <NoteOn Channel="10" Note="38" Velocity="0"/>
  </Event>
  <Event>
    <Absolute>17630</Absolute>
    <NoteOn Channel="10" Note="38" Velocity="105"/>
  </Event>
  <Event>
    <Absolute>17642</Absolute>
    <NoteOn Channel="10" Note="38" Velocity="0"/>
  </Event>
  <Event>
    <Absolute>17650</Absolute>
    <NoteOn Channel="10" Note="38" Velocity="105"/>
  </Event>
  <Event>
    <Absolute>17661</Absolute>
    <NoteOn Channel="10" Note="38" Velocity="0"/>
  </Event>
  <Event>
    <Absolute>17670</Absolute>
    <NoteOn Channel="10" Note="38" Velocity="105"/>
  </Event>
  <Event>
    <Absolute>17684</Absolute>
    <NoteOn Channel="10" Note="38" Velocity="0"/>
  </Event>
  <Event>
    <Absolute>17690</Absolute>
    <NoteOn Channel="10" Note="38" Velocity="105"/>
  </Event>
  <Event>
    <Absolute>17701</Absolute>
    <NoteOn Channel="10" Note="38" Velocity="0"/>
  </Event>
  <Event>
    <Absolute>17711</Absolute>
    <NoteOn Channel="10" Note="38" Velocity="105"/>
  </Event>
  <Event>
    <Absolute>17722</Absolute>
    <NoteOn Channel="10" Note="38" Velocity="0"/>
  </Event>
  <Event>
    <Absolute>17772</Absolute>
    <NoteOn Channel="10" Note="38" Velocity="105"/>
  </Event>
  <Event>
    <Absolute>17782</Absolute>
    <NoteOn Channel="10" Note="38" Velocity="0"/>
  </Event>
  <Event>
    <Absolute>17891</Absolute>
    <NoteOn Channel="10" Note="38" Velocity="105"/>
  </Event>
  <Event>
    <Absolute>17902</Absolute>
    <NoteOn Channel="10" Note="38" Velocity="0"/>
  </Event>
  <Event>
    <Absolute>17951</Absolute>
    <NoteOn Channel="10" Note="38" Velocity="105"/>
  </Event>
  <Event>
    <Absolute>17961</Absolute>
    <NoteOn Channel="10" Note="38" Velocity="0"/>
  </Event>
  <Event>
    <Absolute>17968</Absolute>
    <NoteOn Channel="10" Note="38" Velocity="105"/>
  </Event>
  <Event>
    <Absolute>17980</Absolute>
    <NoteOn Channel="10" Note="38" Velocity="0"/>
  </Event>
  <Event>
    <Absolute>17990</Absolute>
    <NoteOn Channel="10" Note="38" Velocity="105"/>
  </Event>
  <Event>
    <Absolute>17999</Absolute>
    <NoteOn Channel="10" Note="38" Velocity="0"/>
  </Event>
  <Event>
    <Absolute>18010</Absolute>
    <NoteOn Channel="10" Note="38" Velocity="105"/>
  </Event>
  <Event>
    <Absolute>18025</Absolute>
    <NoteOn Channel="10" Note="38" Velocity="0"/>
  </Event>
  <Event>
    <Absolute>18071</Absolute>
    <NoteOn Channel="10" Note="38" Velocity="105"/>
  </Event>
  <Event>
    <Absolute>18082</Absolute>
    <NoteOn Channel="10" Note="38" Velocity="0"/>
  </Event>
  <Event>
    <Absolute>18092</Absolute>
    <NoteOn Channel="10" Note="38" Velocity="105"/>
  </Event>
  <Event>
    <Absolute>18104</Absolute>
    <NoteOn Channel="10" Note="38" Velocity="0"/>
  </Event>
  <Event>
    <Absolute>18112</Absolute>
    <NoteOn Channel="10" Note="38" Velocity="105"/>
  </Event>
  <Event>
    <Absolute>18124</Absolute>
    <NoteOn Channel="10" Note="38" Velocity="0"/>
  </Event>
  <Event>
    <Absolute>18131</Absolute>
    <NoteOn Channel="10" Note="38" Velocity="105"/>
  </Event>
  <Event>
    <Absolute>18142</Absolute>
    <NoteOn Channel="10" Note="38" Velocity="0"/>
  </Event>
  <Event>
    <Absolute>18150</Absolute>
    <NoteOn Channel="10" Note="38" Velocity="105"/>
  </Event>
  <Event>
    <Absolute>18163</Absolute>
    <NoteOn Channel="10" Note="38" Velocity="0"/>
  </Event>
  <Event>
    <Absolute>18170</Absolute>
    <NoteOn Channel="10" Note="38" Velocity="105"/>
  </Event>
  <Event>
    <Absolute>18183</Absolute>
    <NoteOn Channel="10" Note="38" Velocity="0"/>
  </Event>
  <Event>
    <Absolute>18191</Absolute>
    <NoteOn Channel="10" Note="38" Velocity="105"/>
  </Event>
  <Event>
    <Absolute>18203</Absolute>
    <NoteOn Channel="10" Note="38" Velocity="0"/>
  </Event>
  <Event>
    <Absolute>18253</Absolute>
    <NoteOn Channel="10" Note="38" Velocity="105"/>
  </Event>
  <Event>
    <Absolute>18266</Absolute>
    <NoteOn Channel="10" Note="38" Velocity="0"/>
  </Event>
  <Event>
    <Absolute>18373</Absolute>
    <NoteOn Channel="10" Note="38" Velocity="105"/>
  </Event>
  <Event>
    <Absolute>18385</Absolute>
    <NoteOn Channel="10" Note="38" Velocity="0"/>
  </Event>
  <Event>
    <Absolute>18433</Absolute>
    <NoteOn Channel="10" Note="38" Velocity="95"/>
  </Event>
  <Event>
    <Absolute>18443</Absolute>
    <NoteOn Channel="10" Note="38" Velocity="0"/>
  </Event>
  <Event>
    <Absolute>18452</Absolute>
    <NoteOn Channel="10" Note="38" Velocity="105"/>
  </Event>
  <Event>
    <Absolute>18463</Absolute>
    <NoteOn Channel="10" Note="38" Velocity="0"/>
  </Event>
  <Event>
    <Absolute>18472</Absolute>
    <NoteOn Channel="10" Note="38" Velocity="105"/>
  </Event>
  <Event>
    <Absolute>18484</Absolute>
    <NoteOn Channel="10" Note="38" Velocity="0"/>
  </Event>
  <Event>
    <Absolute>18490</Absolute>
    <NoteOn Channel="10" Note="38" Velocity="95"/>
  </Event>
  <Event>
    <Absolute>18500</Absolute>
    <NoteOn Channel="10" Note="38" Velocity="0"/>
  </Event>
  <Event>
    <Absolute>18551</Absolute>
    <NoteOn Channel="10" Note="38" Velocity="105"/>
  </Event>
  <Event>
    <Absolute>18562</Absolute>
    <NoteOn Channel="10" Note="38" Velocity="0"/>
  </Event>
  <Event>
    <Absolute>18570</Absolute>
    <NoteOn Channel="10" Note="38" Velocity="105"/>
  </Event>
  <Event>
    <Absolute>18583</Absolute>
    <NoteOn Channel="10" Note="38" Velocity="0"/>
  </Event>
  <Event>
    <Absolute>18590</Absolute>
    <NoteOn Channel="10" Note="38" Velocity="105"/>
  </Event>
  <Event>
    <Absolute>18602</Absolute>
    <NoteOn Channel="10" Note="38" Velocity="0"/>
  </Event>
  <Event>
    <Absolute>18610</Absolute>
    <NoteOn Channel="10" Note="38" Velocity="105"/>
  </Event>
  <Event>
    <Absolute>18621</Absolute>
    <NoteOn Channel="10" Note="38" Velocity="0"/>
  </Event>
  <Event>
    <Absolute>18630</Absolute>
    <NoteOn Channel="10" Note="38" Velocity="105"/>
  </Event>
  <Event>
    <Absolute>18644</Absolute>
    <NoteOn Channel="10" Note="38" Velocity="0"/>
  </Event>
  <Event>
    <Absolute>18650</Absolute>
    <NoteOn Channel="10" Note="38" Velocity="105"/>
  </Event>
  <Event>
    <Absolute>18661</Absolute>
    <NoteOn Channel="10" Note="38" Velocity="0"/>
  </Event>
  <Event>
    <Absolute>18671</Absolute>
    <NoteOn Channel="10" Note="38" Velocity="105"/>
  </Event>
  <Event>
    <Absolute>18681</Absolute>
    <NoteOn Channel="10" Note="38" Velocity="0"/>
  </Event>
  <Event>
    <Absolute>18688</Absolute>
    <NoteOn Channel="10" Note="38" Velocity="105"/>
  </Event>
  <Event>
    <Absolute>18699</Absolute>
    <NoteOn Channel="10" Note="38" Velocity="0"/>
  </Event>
  <Event>
    <Absolute>18709</Absolute>
    <NoteOn Channel="10" Note="38" Velocity="105"/>
  </Event>
  <Event>
    <Absolute>18718</Absolute>
    <NoteOn Channel="10" Note="38" Velocity="0"/>
  </Event>
  <Event>
    <Absolute>18732</Absolute>
    <NoteOn Channel="10" Note="38" Velocity="105"/>
  </Event>
  <Event>
    <Absolute>18742</Absolute>
    <NoteOn Channel="10" Note="38" Velocity="0"/>
  </Event>
  <Event>
    <Absolute>18851</Absolute>
    <NoteOn Channel="10" Note="38" Velocity="105"/>
  </Event>
  <Event>
    <Absolute>18862</Absolute>
    <NoteOn Channel="10" Note="38" Velocity="0"/>
  </Event>
  <Event>
    <Absolute>18911</Absolute>
    <NoteOn Channel="10" Note="38" Velocity="105"/>
  </Event>
  <Event>
    <Absolute>18921</Absolute>
    <NoteOn Channel="10" Note="38" Velocity="0"/>
  </Event>
  <Event>
    <Absolute>18928</Absolute>
    <NoteOn Channel="10" Note="38" Velocity="105"/>
  </Event>
  <Event>
    <Absolute>18940</Absolute>
    <NoteOn Channel="10" Note="38" Velocity="0"/>
  </Event>
  <Event>
    <Absolute>18950</Absolute>
    <NoteOn Channel="10" Note="38" Velocity="105"/>
  </Event>
  <Event>
    <Absolute>18959</Absolute>
    <NoteOn Channel="10" Note="38" Velocity="0"/>
  </Event>
  <Event>
    <Absolute>18970</Absolute>
    <NoteOn Channel="10" Note="38" Velocity="105"/>
  </Event>
  <Event>
    <Absolute>18985</Absolute>
    <NoteOn Channel="10" Note="38" Velocity="0"/>
  </Event>
  <Event>
    <Absolute>19031</Absolute>
    <NoteOn Channel="10" Note="38" Velocity="105"/>
  </Event>
  <Event>
    <Absolute>19042</Absolute>
    <NoteOn Channel="10" Note="38" Velocity="0"/>
  </Event>
  <Event>
    <Absolute>19052</Absolute>
    <NoteOn Channel="10" Note="38" Velocity="105"/>
  </Event>
  <Event>
    <Absolute>19064</Absolute>
    <NoteOn Channel="10" Note="38" Velocity="0"/>
  </Event>
  <Event>
    <Absolute>19072</Absolute>
    <NoteOn Channel="10" Note="38" Velocity="105"/>
  </Event>
  <Event>
    <Absolute>19084</Absolute>
    <NoteOn Channel="10" Note="38" Velocity="0"/>
  </Event>
  <Event>
    <Absolute>19091</Absolute>
    <NoteOn Channel="10" Note="38" Velocity="105"/>
  </Event>
  <Event>
    <Absolute>19102</Absolute>
    <NoteOn Channel="10" Note="38" Velocity="0"/>
  </Event>
  <Event>
    <Absolute>19110</Absolute>
    <NoteOn Channel="10" Note="38" Velocity="105"/>
  </Event>
  <Event>
    <Absolute>19123</Absolute>
    <NoteOn Channel="10" Note="38" Velocity="0"/>
  </Event>
  <Event>
    <Absolute>19130</Absolute>
    <NoteOn Channel="10" Note="38" Velocity="105"/>
  </Event>
  <Event>
    <Absolute>19143</Absolute>
    <NoteOn Channel="10" Note="38" Velocity="0"/>
  </Event>
  <Event>
    <Absolute>19151</Absolute>
    <NoteOn Channel="10" Note="38" Velocity="105"/>
  </Event>
  <Event>
    <Absolute>19163</Absolute>
    <NoteOn Channel="10" Note="38" Velocity="0"/>
  </Event>
  <Event>
    <Absolute>19213</Absolute>
    <NoteOn Channel="10" Note="38" Velocity="105"/>
  </Event>
  <Event>
    <Absolute>19226</Absolute>
    <NoteOn Channel="10" Note="38" Velocity="0"/>
  </Event>
  <Event>
    <Absolute>19333</Absolute>
    <NoteOn Channel="10" Note="38" Velocity="105"/>
  </Event>
  <Event>
    <Absolute>19345</Absolute>
    <NoteOn Channel="10" Note="38" Velocity="0"/>
  </Event>
  <Event>
    <Absolute>19393</Absolute>
    <NoteOn Channel="10" Note="38" Velocity="95"/>
  </Event>
  <Event>
    <Absolute>19403</Absolute>
    <NoteOn Channel="10" Note="38" Velocity="0"/>
  </Event>
  <Event>
    <Absolute>19412</Absolute>
    <NoteOn Channel="10" Note="38" Velocity="105"/>
  </Event>
  <Event>
    <Absolute>19423</Absolute>
    <NoteOn Channel="10" Note="38" Velocity="0"/>
  </Event>
  <Event>
    <Absolute>19432</Absolute>
    <NoteOn Channel="10" Note="38" Velocity="105"/>
  </Event>
  <Event>
    <Absolute>19444</Absolute>
    <NoteOn Channel="10" Note="38" Velocity="0"/>
  </Event>
  <Event>
    <Absolute>19450</Absolute>
    <NoteOn Channel="10" Note="38" Velocity="95"/>
  </Event>
  <Event>
    <Absolute>19460</Absolute>
    <NoteOn Channel="10" Note="38" Velocity="0"/>
  </Event>
  <Event>
    <Absolute>19511</Absolute>
    <NoteOn Channel="10" Note="38" Velocity="105"/>
  </Event>
  <Event>
    <Absolute>19522</Absolute>
    <NoteOn Channel="10" Note="38" Velocity="0"/>
  </Event>
  <Event>
    <Absolute>19530</Absolute>
    <NoteOn Channel="10" Note="38" Velocity="105"/>
  </Event>
  <Event>
    <Absolute>19543</Absolute>
    <NoteOn Channel="10" Note="38" Velocity="0"/>
  </Event>
  <Event>
    <Absolute>19550</Absolute>
    <NoteOn Channel="10" Note="38" Velocity="105"/>
  </Event>
  <Event>
    <Absolute>19562</Absolute>
    <NoteOn Channel="10" Note="38" Velocity="0"/>
  </Event>
  <Event>
    <Absolute>19570</Absolute>
    <NoteOn Channel="10" Note="38" Velocity="105"/>
  </Event>
  <Event>
    <Absolute>19581</Absolute>
    <NoteOn Channel="10" Note="38" Velocity="0"/>
  </Event>
  <Event>
    <Absolute>19590</Absolute>
    <NoteOn Channel="10" Note="38" Velocity="105"/>
  </Event>
  <Event>
    <Absolute>19604</Absolute>
    <NoteOn Channel="10" Note="38" Velocity="0"/>
  </Event>
  <Event>
    <Absolute>19610</Absolute>
    <NoteOn Channel="10" Note="38" Velocity="105"/>
  </Event>
  <Event>
    <Absolute>19621</Absolute>
    <NoteOn Channel="10" Note="38" Velocity="0"/>
  </Event>
  <Event>
    <Absolute>19631</Absolute>
    <NoteOn Channel="10" Note="38" Velocity="105"/>
  </Event>
  <Event>
    <Absolute>19642</Absolute>
    <NoteOn Channel="10" Note="38" Velocity="0"/>
  </Event>
  <Event>
    <Absolute>19692</Absolute>
    <NoteOn Channel="10" Note="38" Velocity="105"/>
  </Event>
  <Event>
    <Absolute>19702</Absolute>
    <NoteOn Channel="10" Note="38" Velocity="0"/>
  </Event>
  <Event>
    <Absolute>19811</Absolute>
    <NoteOn Channel="10" Note="38" Velocity="105"/>
  </Event>
  <Event>
    <Absolute>19822</Absolute>
    <NoteOn Channel="10" Note="38" Velocity="0"/>
  </Event>
  <Event>
    <Absolute>19871</Absolute>
    <NoteOn Channel="10" Note="38" Velocity="105"/>
  </Event>
  <Event>
    <Absolute>19881</Absolute>
    <NoteOn Channel="10" Note="38" Velocity="0"/>
  </Event>
  <Event>
    <Absolute>19888</Absolute>
    <NoteOn Channel="10" Note="38" Velocity="105"/>
  </Event>
  <Event>
    <Absolute>19900</Absolute>
    <NoteOn Channel="10" Note="38" Velocity="0"/>
  </Event>
  <Event>
    <Absolute>19910</Absolute>
    <NoteOn Channel="10" Note="38" Velocity="105"/>
  </Event>
  <Event>
    <Absolute>19919</Absolute>
    <NoteOn Channel="10" Note="38" Velocity="0"/>
  </Event>
  <Event>
    <Absolute>19930</Absolute>
    <NoteOn Channel="10" Note="38" Velocity="105"/>
  </Event>
  <Event>
    <Absolute>19945</Absolute>
    <NoteOn Channel="10" Note="38" Velocity="0"/>
  </Event>
  <Event>
    <Absolute>19991</Absolute>
    <NoteOn Channel="10" Note="38" Velocity="105"/>
  </Event>
  <Event>
    <Absolute>20002</Absolute>
    <NoteOn Channel="10" Note="38" Velocity="0"/>
  </Event>
  <Event>
    <Absolute>20012</Absolute>
    <NoteOn Channel="10" Note="38" Velocity="105"/>
  </Event>
  <Event>
    <Absolute>20024</Absolute>
    <NoteOn Channel="10" Note="38" Velocity="0"/>
  </Event>
  <Event>
    <Absolute>20032</Absolute>
    <NoteOn Channel="10" Note="38" Velocity="105"/>
  </Event>
  <Event>
    <Absolute>20044</Absolute>
    <NoteOn Channel="10" Note="38" Velocity="0"/>
  </Event>
  <Event>
    <Absolute>20051</Absolute>
    <NoteOn Channel="10" Note="38" Velocity="105"/>
  </Event>
  <Event>
    <Absolute>20062</Absolute>
    <NoteOn Channel="10" Note="38" Velocity="0"/>
  </Event>
  <Event>
    <Absolute>20070</Absolute>
    <NoteOn Channel="10" Note="38" Velocity="105"/>
  </Event>
  <Event>
    <Absolute>20083</Absolute>
    <NoteOn Channel="10" Note="38" Velocity="0"/>
  </Event>
  <Event>
    <Absolute>20090</Absolute>
    <NoteOn Channel="10" Note="38" Velocity="105"/>
  </Event>
  <Event>
    <Absolute>20103</Absolute>
    <NoteOn Channel="10" Note="38" Velocity="0"/>
  </Event>
  <Event>
    <Absolute>20111</Absolute>
    <NoteOn Channel="10" Note="38" Velocity="105"/>
  </Event>
  <Event>
    <Absolute>20123</Absolute>
    <NoteOn Channel="10" Note="38" Velocity="0"/>
  </Event>
  <Event>
    <Absolute>20173</Absolute>
    <NoteOn Channel="10" Note="38" Velocity="105"/>
  </Event>
  <Event>
    <Absolute>20183</Absolute>
    <NoteOn Channel="10" Note="49" Velocity="67"/>
  </Event>
  <Event>
    <Absolute>20186</Absolute>
    <NoteOn Channel="10" Note="38" Velocity="0"/>
  </Event>
  <Event>
    <Absolute>20216</Absolute>
    <NoteOn Channel="10" Note="49" Velocity="0"/>
  </Event>
  <Event>
    <Absolute>20293</Absolute>
    <NoteOn Channel="10" Note="38" Velocity="105"/>
  </Event>
  <Event>
    <Absolute>20305</Absolute>
    <NoteOn Channel="10" Note="38" Velocity="0"/>
  </Event>
  <Event>
    <Absolute>20353</Absolute>
    <NoteOn Channel="10" Note="38" Velocity="95"/>
  </Event>
  <Event>
    <Absolute>20363</Absolute>
    <NoteOn Channel="10" Note="38" Velocity="0"/>
  </Event>
  <Event>
    <Absolute>20372</Absolute>
    <NoteOn Channel="10" Note="38" Velocity="105"/>
  </Event>
  <Event>
    <Absolute>20383</Absolute>
    <NoteOn Channel="10" Note="38" Velocity="0"/>
  </Event>
  <Event>
    <Absolute>20392</Absolute>
    <NoteOn Channel="10" Note="38" Velocity="105"/>
  </Event>
  <Event>
    <Absolute>20404</Absolute>
    <NoteOn Channel="10" Note="38" Velocity="0"/>
  </Event>
  <Event>
    <Absolute>20410</Absolute>
    <NoteOn Channel="10" Note="38" Velocity="95"/>
  </Event>
  <Event>
    <Absolute>20411</Absolute>
    <NoteOn Channel="10" Note="57" Velocity="67"/>
  </Event>
  <Event>
    <Absolute>20420</Absolute>
    <NoteOn Channel="10" Note="38" Velocity="0"/>
  </Event>
  <Event>
    <Absolute>20437</Absolute>
    <NoteOn Channel="10" Note="57" Velocity="0"/>
  </Event>
  <Event>
    <Absolute>20471</Absolute>
    <NoteOn Channel="10" Note="38" Velocity="105"/>
  </Event>
  <Event>
    <Absolute>20482</Absolute>
    <NoteOn Channel="10" Note="38" Velocity="0"/>
  </Event>
  <Event>
    <Absolute>20490</Absolute>
    <NoteOn Channel="10" Note="38" Velocity="105"/>
  </Event>
  <Event>
    <Absolute>20503</Absolute>
    <NoteOn Channel="10" Note="38" Velocity="0"/>
  </Event>
  <Event>
    <Absolute>20510</Absolute>
    <NoteOn Channel="10" Note="38" Velocity="105"/>
  </Event>
  <Event>
    <Absolute>20522</Absolute>
    <NoteOn Channel="10" Note="38" Velocity="0"/>
  </Event>
  <Event>
    <Absolute>20530</Absolute>
    <NoteOn Channel="10" Note="38" Velocity="105"/>
  </Event>
  <Event>
    <Absolute>20531</Absolute>
    <NoteOn Channel="10" Note="57" Velocity="67"/>
  </Event>
  <Event>
    <Absolute>20542</Absolute>
    <NoteOn Channel="10" Note="38" Velocity="0"/>
  </Event>
  <Event>
    <Absolute>20550</Absolute>
    <NoteOn Channel="10" Note="38" Velocity="105"/>
  </Event>
  <Event>
    <Absolute>20551</Absolute>
    <NoteOn Channel="10" Note="57" Velocity="0"/>
  </Event>
  <Event>
    <Absolute>20564</Absolute>
    <NoteOn Channel="10" Note="38" Velocity="0"/>
  </Event>
  <Event>
    <Absolute>20570</Absolute>
    <NoteOn Channel="10" Note="38" Velocity="105"/>
  </Event>
  <Event>
    <Absolute>20582</Absolute>
    <NoteOn Channel="10" Note="38" Velocity="0"/>
  </Event>
  <Event>
    <Absolute>20591</Absolute>
    <NoteOn Channel="10" Note="38" Velocity="105"/>
  </Event>
  <Event>
    <Absolute>20602</Absolute>
    <NoteOn Channel="10" Note="38" Velocity="0"/>
  </Event>
  <Event>
    <Absolute>20712</Absolute>
    <NoteOn Channel="10" Note="38" Velocity="105"/>
  </Event>
  <Event>
    <Absolute>20723</Absolute>
    <NoteOn Channel="10" Note="38" Velocity="0"/>
  </Event>
  <Event>
    <Absolute>20733</Absolute>
    <NoteOn Channel="10" Note="38" Velocity="100"/>
  </Event>
  <Event>
    <Absolute>20746</Absolute>
    <NoteOn Channel="10" Note="38" Velocity="0"/>
  </Event>
  <Event>
    <Absolute>20752</Absolute>
    <NoteOn Channel="10" Note="38" Velocity="105"/>
  </Event>
  <Event>
    <Absolute>20764</Absolute>
    <NoteOn Channel="10" Note="38" Velocity="0"/>
  </Event>
  <Event>
    <Absolute>20771</Absolute>
    <NoteOn Channel="10" Note="38" Velocity="105"/>
  </Event>
  <Event>
    <Absolute>20782</Absolute>
    <NoteOn Channel="10" Note="38" Velocity="0"/>
  </Event>
  <Event>
    <Absolute>20791</Absolute>
    <NoteOn Channel="10" Note="38" Velocity="105"/>
  </Event>
  <Event>
    <Absolute>20804</Absolute>
    <NoteOn Channel="10" Note="38" Velocity="0"/>
  </Event>
  <Event>
    <Absolute>20811</Absolute>
    <NoteOn Channel="10" Note="38" Velocity="105"/>
  </Event>
  <Event>
    <Absolute>20822</Absolute>
    <NoteOn Channel="10" Note="38" Velocity="0"/>
  </Event>
  <Event>
    <Absolute>20831</Absolute>
    <NoteOn Channel="10" Note="38" Velocity="105"/>
  </Event>
  <Event>
    <Absolute>20841</Absolute>
    <NoteOn Channel="10" Note="38" Velocity="0"/>
  </Event>
  <Event>
    <Absolute>20848</Absolute>
    <NoteOn Channel="10" Note="38" Velocity="105"/>
  </Event>
  <Event>
    <Absolute>20859</Absolute>
    <NoteOn Channel="10" Note="38" Velocity="0"/>
  </Event>
  <Event>
    <Absolute>20870</Absolute>
    <NoteOn Channel="10" Note="38" Velocity="105"/>
  </Event>
  <Event>
    <Absolute>20879</Absolute>
    <NoteOn Channel="10" Note="38" Velocity="0"/>
  </Event>
  <Event>
    <Absolute>20880</Absolute>
    <NoteOn Channel="10" Note="46" Velocity="74"/>
  </Event>
  <Event>
    <Absolute>20885</Absolute>
    <NoteOn Channel="10" Note="57" Velocity="127"/>
  </Event>
  <Event>
    <Absolute>20890</Absolute>
    <NoteOn Channel="10" Note="57" Velocity="116"/>
  </Event>
  <Event>
    <Absolute>20895</Absolute>
    <NoteOn Channel="10" Note="57" Velocity="0"/>
  </Event>
  <Event>
    <Absolute>20896</Absolute>
    <NoteOn Channel="10" Note="57" Velocity="0"/>
  </Event>
  <Event>
    <Absolute>21000</Absolute>
    <NoteOn Channel="10" Note="46" Velocity="0"/>
  </Event>
  <Event>
    <Absolute>23300</Absolute>
    <NoteOn Channel="10" Note="57" Velocity="127"/>
  </Event>
  <Event>
    <Absolute>23310</Absolute>
    <NoteOn Channel="10" Note="57" Velocity="0"/>
  </Event>
  <Event>
    <Absolute>23533</Absolute>
    <NoteOn Channel="10" Note="57" Velocity="127"/>
  </Event>
  <Event>
    <Absolute>23544</Absolute>
    <NoteOn Channel="10" Note="57" Velocity="0"/>
  </Event>
  <Event>
    <Absolute>23772</Absolute>
    <NoteOn Channel="10" Note="57" Velocity="127"/>
  </Event>
  <Event>
    <Absolute>23782</Absolute>
    <NoteOn Channel="10" Note="57" Velocity="0"/>
  </Event>
  <Event>
    <Absolute>24012</Absolute>
    <NoteOn Channel="10" Note="57" Velocity="127"/>
  </Event>
  <Event>
    <Absolute>24028</Absolute>
    <NoteOn Channel="10" Note="57" Velocity="0"/>
  </Event>
  <Event>
    <Absolute>24254</Absolute>
    <NoteOn Channel="10" Note="57" Velocity="127"/>
  </Event>
  <Event>
    <Absolute>24261</Absolute>
    <NoteOn Channel="10" Note="57" Velocity="90"/>
  </Event>
  <Event>
    <Absolute>24265</Absolute>
    <NoteOn Channel="10" Note="57" Velocity="0"/>
  </Event>
  <Event>
    <Absolute>24267</Absolute>
    <NoteOn Channel="10" Note="57" Velocity="0"/>
  </Event>
  <Event>
    <Absolute>24372</Absolute>
    <NoteOn Channel="10" Note="57" Velocity="127"/>
  </Event>
  <Event>
    <Absolute>24375</Absolute>
    <NoteOn Channel="10" Note="57" Velocity="81"/>
  </Event>
  <Event>
    <Absolute>24378</Absolute>
    <NoteOn Channel="10" Note="57" Velocity="0"/>
  </Event>
  <Event>
    <Absolute>24378</Absolute>
    <NoteOn Channel="10" Note="57" Velocity="0"/>
  </Event>
  <Event>
    <Absolute>24431</Absolute>
    <NoteOn Channel="10" Note="57" Velocity="127"/>
  </Event>
  <Event>
    <Absolute>24438</Absolute>
    <NoteOn Channel="10" Note="57" Velocity="69"/>
  </Event>
  <Event>
    <Absolute>24441</Absolute>
    <NoteOn Channel="10" Note="57" Velocity="0"/>
  </Event>
  <Event>
    <Absolute>24446</Absolute>
    <NoteOn Channel="10" Note="57" Velocity="0"/>
  </Event>
  <Event>
    <Absolute>24553</Absolute>
    <NoteOn Channel="10" Note="57" Velocity="127"/>
  </Event>
  <Event>
    <Absolute>24553</Absolute>
    <NoteOn Channel="10" Note="57" Velocity="81"/>
  </Event>
  <Event>
    <Absolute>24554</Absolute>
    <NoteOn Channel="10" Note="57" Velocity="0"/>
  </Event>
  <Event>
    <Absolute>24563</Absolute>
    <NoteOn Channel="10" Note="57" Velocity="0"/>
  </Event>
  <Event>
    <Absolute>24671</Absolute>
    <NoteOn Channel="10" Note="57" Velocity="127"/>
  </Event>
  <Event>
    <Absolute>24673</Absolute>
    <NoteOn Channel="10" Note="57" Velocity="76"/>
  </Event>
  <Event>
    <Absolute>24674</Absolute>
    <NoteOn Channel="10" Note="57" Velocity="0"/>
  </Event>
  <Event>
    <Absolute>24674</Absolute>
    <NoteOn Channel="10" Note="57" Velocity="0"/>
  </Event>
  <Event>
    <Absolute>29655</Absolute>
    <NoteOn Channel="10" Note="38" Velocity="66"/>
  </Event>
  <Event>
    <Absolute>29667</Absolute>
    <NoteOn Channel="10" Note="38" Velocity="0"/>
  </Event>
  <Event>
    <Absolute>29695</Absolute>
    <NoteOn Channel="10" Note="38" Velocity="66"/>
  </Event>
  <Event>
    <Absolute>29703</Absolute>
    <NoteOn Channel="10" Note="38" Velocity="0"/>
  </Event>
  <Event>
    <Absolute>29732</Absolute>
    <NoteOn Channel="10" Note="38" Velocity="56"/>
  </Event>
  <Event>
    <Absolute>29742</Absolute>
    <NoteOn Channel="10" Note="38" Velocity="0"/>
  </Event>
  <Event>
    <Absolute>29775</Absolute>
    <NoteOn Channel="10" Note="38" Velocity="84"/>
  </Event>
  <Event>
    <Absolute>29798</Absolute>
    <NoteOn Channel="10" Note="38" Velocity="0"/>
  </Event>
  <Event>
    <Absolute>29901</Absolute>
    <NoteOn Channel="10" Note="38" Velocity="56"/>
  </Event>
  <Event>
    <Absolute>29911</Absolute>
    <NoteOn Channel="10" Note="38" Velocity="0"/>
  </Event>
  <Event>
    <Absolute>29941</Absolute>
    <NoteOn Channel="10" Note="38" Velocity="40"/>
  </Event>
  <Event>
    <Absolute>29950</Absolute>
    <NoteOn Channel="10" Note="38" Velocity="0"/>
  </Event>
  <Event>
    <Absolute>29970</Absolute>
    <NoteOn Channel="10" Note="38" Velocity="58"/>
  </Event>
  <Event>
    <Absolute>29980</Absolute>
    <NoteOn Channel="10" Note="38" Velocity="0"/>
  </Event>
  <Event>
    <Absolute>30015</Absolute>
    <NoteOn Channel="10" Note="59" Velocity="58"/>
  </Event>
  <Event>
    <Absolute>30021</Absolute>
    <NoteOn Channel="10" Note="38" Velocity="61"/>
  </Event>
  <Event>
    <Absolute>30023</Absolute>
    <NoteOn Channel="10" Note="59" Velocity="0"/>
  </Event>
  <Event>
    <Absolute>30031</Absolute>
    <NoteOn Channel="10" Note="38" Velocity="0"/>
  </Event>
  <Event>
    <Absolute>30864</Absolute>
    <NoteOn Channel="10" Note="38" Velocity="43"/>
  </Event>
  <Event>
    <Absolute>30877</Absolute>
    <NoteOn Channel="10" Note="38" Velocity="0"/>
  </Event>
  <Event>
    <Absolute>30898</Absolute>
    <NoteOn Channel="10" Note="38" Velocity="8"/>
  </Event>
  <Event>
    <Absolute>30906</Absolute>
    <NoteOn Channel="10" Note="38" Velocity="0"/>
  </Event>
  <Event>
    <Absolute>30915</Absolute>
    <NoteOn Channel="10" Note="38" Velocity="48"/>
  </Event>
  <Event>
    <Absolute>30926</Absolute>
    <NoteOn Channel="10" Note="38" Velocity="0"/>
  </Event>
  <Event>
    <Absolute>30945</Absolute>
    <NoteOn Channel="10" Note="38" Velocity="54"/>
  </Event>
  <Event>
    <Absolute>30955</Absolute>
    <NoteOn Channel="10" Note="38" Velocity="0"/>
  </Event>
  <Event>
    <Absolute>30972</Absolute>
    <NoteOn Channel="10" Note="38" Velocity="106"/>
  </Event>
  <Event>
    <Absolute>30988</Absolute>
    <NoteOn Channel="10" Note="38" Velocity="0"/>
  </Event>
  <Event>
    <Absolute>31096</Absolute>
    <NoteOn Channel="10" Note="38" Velocity="49"/>
  </Event>
  <Event>
    <Absolute>31111</Absolute>
    <NoteOn Channel="10" Note="38" Velocity="0"/>
  </Event>
  <Event>
    <Absolute>31138</Absolute>
    <NoteOn Channel="10" Note="38" Velocity="49"/>
  </Event>
  <Event>
    <Absolute>31146</Absolute>
    <NoteOn Channel="10" Note="38" Velocity="0"/>
  </Event>
  <Event>
    <Absolute>31172</Absolute>
    <NoteOn Channel="10" Note="38" Velocity="67"/>
  </Event>
  <Event>
    <Absolute>31188</Absolute>
    <NoteOn Channel="10" Note="38" Velocity="0"/>
  </Event>
  <Event>
    <Absolute>31215</Absolute>
    <NoteOn Channel="10" Note="38" Velocity="98"/>
  </Event>
  <Event>
    <Absolute>31260</Absolute>
    <NoteOn Channel="10" Note="38" Velocity="0"/>
  </Event>
  <Event>
    <Absolute>31640</Absolute>
    <NoteOn Channel="10" Note="38" Velocity="58"/>
  </Event>
  <Event>
    <Absolute>31648</Absolute>
    <NoteOn Channel="10" Note="38" Velocity="0"/>
  </Event>
  <Event>
    <Absolute>31658</Absolute>
    <NoteOn Channel="10" Note="38" Velocity="57"/>
  </Event>
  <Event>
    <Absolute>31666</Absolute>
    <NoteOn Channel="10" Note="38" Velocity="0"/>
  </Event>
  <Event>
    <Absolute>31677</Absolute>
    <NoteOn Channel="10" Note="38" Velocity="77"/>
  </Event>
  <Event>
    <Absolute>31685</Absolute>
    <NoteOn Channel="10" Note="38" Velocity="0"/>
  </Event>
  <Event>
    <Absolute>31698</Absolute>
    <NoteOn Channel="10" Note="38" Velocity="99"/>
  </Event>
  <Event>
    <Absolute>31749</Absolute>
    <NoteOn Channel="10" Note="38" Velocity="0"/>
  </Event>
  <Event>
    <Absolute>31821</Absolute>
    <NoteOn Channel="10" Note="38" Velocity="72"/>
  </Event>
  <Event>
    <Absolute>31837</Absolute>
    <NoteOn Channel="10" Note="38" Velocity="0"/>
  </Event>
  <Event>
    <Absolute>31881</Absolute>
    <NoteOn Channel="10" Note="38" Velocity="71"/>
  </Event>
  <Event>
    <Absolute>31894</Absolute>
    <NoteOn Channel="10" Note="38" Velocity="0"/>
  </Event>
  <Event>
    <Absolute>31940</Absolute>
    <NoteOn Channel="10" Note="38" Velocity="98"/>
  </Event>
  <Event>
    <Absolute>31989</Absolute>
    <NoteOn Channel="10" Note="38" Velocity="0"/>
  </Event>
  <Event>
    <Absolute>32060</Absolute>
    <NoteOn Channel="10" Note="38" Velocity="52"/>
  </Event>
  <Event>
    <Absolute>32069</Absolute>
    <NoteOn Channel="10" Note="38" Velocity="0"/>
  </Event>
  <Event>
    <Absolute>32112</Absolute>
    <NoteOn Channel="10" Note="38" Velocity="79"/>
  </Event>
  <Event>
    <Absolute>32133</Absolute>
    <NoteOn Channel="10" Note="38" Velocity="0"/>
  </Event>
  <Event>
    <Absolute>32173</Absolute>
    <NoteOn Channel="10" Note="38" Velocity="89"/>
  </Event>
  <Event>
    <Absolute>32185</Absolute>
    <NoteOn Channel="10" Note="38" Velocity="0"/>
  </Event>
  <Event>
    <Absolute>32298</Absolute>
    <NoteOn Channel="10" Note="38" Velocity="49"/>
  </Event>
  <Event>
    <Absolute>32306</Absolute>
    <NoteOn Channel="10" Note="38" Velocity="0"/>
  </Event>
  <Event>
    <Absolute>32324</Absolute>
    <NoteOn Channel="10" Note="38" Velocity="50"/>
  </Event>
  <Event>
    <Absolute>32332</Absolute>
    <NoteOn Channel="10" Note="38" Velocity="0"/>
  </Event>
  <Event>
    <Absolute>32350</Absolute>
    <NoteOn Channel="10" Note="38" Velocity="45"/>
  </Event>
  <Event>
    <Absolute>32363</Absolute>
    <NoteOn Channel="10" Note="38" Velocity="0"/>
  </Event>
  <Event>
    <Absolute>32380</Absolute>
    <NoteOn Channel="10" Note="38" Velocity="68"/>
  </Event>
  <Event>
    <Absolute>32388</Absolute>
    <NoteOn Channel="10" Note="38" Velocity="0"/>
  </Event>
  <Event>
    <Absolute>32410</Absolute>
    <NoteOn Channel="10" Note="38" Velocity="89"/>
  </Event>
  <Event>
    <Absolute>32424</Absolute>
    <NoteOn Channel="10" Note="38" Velocity="0"/>
  </Event>
  <Event>
    <Absolute>32778</Absolute>
    <NoteOn Channel="10" Note="38" Velocity="48"/>
  </Event>
  <Event>
    <Absolute>32787</Absolute>
    <NoteOn Channel="10" Note="38" Velocity="0"/>
  </Event>
  <Event>
    <Absolute>32806</Absolute>
    <NoteOn Channel="10" Note="38" Velocity="47"/>
  </Event>
  <Event>
    <Absolute>32814</Absolute>
    <NoteOn Channel="10" Note="38" Velocity="0"/>
  </Event>
  <Event>
    <Absolute>32832</Absolute>
    <NoteOn Channel="10" Note="38" Velocity="55"/>
  </Event>
  <Event>
    <Absolute>32846</Absolute>
    <NoteOn Channel="10" Note="38" Velocity="0"/>
  </Event>
  <Event>
    <Absolute>32862</Absolute>
    <NoteOn Channel="10" Note="38" Velocity="74"/>
  </Event>
  <Event>
    <Absolute>32874</Absolute>
    <NoteOn Channel="10" Note="38" Velocity="0"/>
  </Event>
  <Event>
    <Absolute>32895</Absolute>
    <NoteOn Channel="10" Note="38" Velocity="55"/>
  </Event>
  <Event>
    <Absolute>32902</Absolute>
    <NoteOn Channel="10" Note="59" Velocity="69"/>
  </Event>
  <Event>
    <Absolute>32910</Absolute>
    <NoteOn Channel="10" Note="38" Velocity="0"/>
  </Event>
  <Event>
    <Absolute>32914</Absolute>
    <NoteOn Channel="10" Note="59" Velocity="0"/>
  </Event>
  <Event>
    <Absolute>33384</Absolute>
    <NoteOn Channel="10" Note="38" Velocity="54"/>
  </Event>
  <Event>
    <Absolute>33392</Absolute>
    <NoteOn Channel="10" Note="38" Velocity="0"/>
  </Event>
  <Event>
    <Absolute>33413</Absolute>
    <NoteOn Channel="10" Note="38" Velocity="33"/>
  </Event>
  <Event>
    <Absolute>33421</Absolute>
    <NoteOn Channel="10" Note="38" Velocity="0"/>
  </Event>
  <Event>
    <Absolute>33446</Absolute>
    <NoteOn Channel="10" Note="38" Velocity="42"/>
  </Event>
  <Event>
    <Absolute>33455</Absolute>
    <NoteOn Channel="10" Note="38" Velocity="0"/>
  </Event>
  <Event>
    <Absolute>33475</Absolute>
    <NoteOn Channel="10" Note="38" Velocity="50"/>
  </Event>
  <Event>
    <Absolute>33497</Absolute>
    <NoteOn Channel="10" Note="38" Velocity="0"/>
  </Event>
  <Event>
    <Absolute>33506</Absolute>
    <NoteOn Channel="10" Note="38" Velocity="97"/>
  </Event>
  <Event>
    <Absolute>33526</Absolute>
    <NoteOn Channel="10" Note="38" Velocity="0"/>
  </Event>
  <Event>
    <Absolute>33570</Absolute>
    <NoteOn Channel="10" Note="38" Velocity="68"/>
  </Event>
  <Event>
    <Absolute>33581</Absolute>
    <NoteOn Channel="10" Note="38" Velocity="0"/>
  </Event>
  <Event>
    <Absolute>33597</Absolute>
    <NoteOn Channel="10" Note="38" Velocity="55"/>
  </Event>
  <Event>
    <Absolute>33606</Absolute>
    <NoteOn Channel="10" Note="38" Velocity="0"/>
  </Event>
  <Event>
    <Absolute>33627</Absolute>
    <NoteOn Channel="10" Note="38" Velocity="97"/>
  </Event>
  <Event>
    <Absolute>33654</Absolute>
    <NoteOn Channel="10" Note="38" Velocity="0"/>
  </Event>
  <Event>
    <Absolute>33750</Absolute>
    <NoteOn Channel="10" Note="38" Velocity="80"/>
  </Event>
  <Event>
    <Absolute>33764</Absolute>
    <NoteOn Channel="10" Note="38" Velocity="0"/>
  </Event>
  <Event>
    <Absolute>33861</Absolute>
    <NoteOn Channel="10" Note="38" Velocity="89"/>
  </Event>
  <Event>
    <Absolute>33877</Absolute>
    <NoteOn Channel="10" Note="38" Velocity="0"/>
  </Event>
  <Event>
    <Absolute>33928</Absolute>
    <NoteOn Channel="10" Note="38" Velocity="3"/>
  </Event>
  <Event>
    <Absolute>33936</Absolute>
    <NoteOn Channel="10" Note="38" Velocity="0"/>
  </Event>
  <Event>
    <Absolute>33950</Absolute>
    <NoteOn Channel="10" Note="38" Velocity="79"/>
  </Event>
  <Event>
    <Absolute>33966</Absolute>
    <NoteOn Channel="10" Note="38" Velocity="0"/>
  </Event>
  <Event>
    <Absolute>33981</Absolute>
    <NoteOn Channel="10" Note="38" Velocity="105"/>
  </Event>
  <Event>
    <Absolute>33997</Absolute>
    <NoteOn Channel="10" Note="38" Velocity="0"/>
  </Event>
  <Event>
    <Absolute>34040</Absolute>
    <NoteOn Channel="10" Note="38" Velocity="86"/>
  </Event>
  <Event>
    <Absolute>34060</Absolute>
    <NoteOn Channel="10" Note="38" Velocity="0"/>
  </Event>
  <Event>
    <Absolute>34103</Absolute>
    <NoteOn Channel="10" Note="38" Velocity="79"/>
  </Event>
  <Event>
    <Absolute>34119</Absolute>
    <NoteOn Channel="10" Note="38" Velocity="0"/>
  </Event>
  <Event>
    <Absolute>34213</Absolute>
    <NoteOn Channel="10" Note="38" Velocity="80"/>
  </Event>
  <Event>
    <Absolute>34228</Absolute>
    <NoteOn Channel="10" Note="38" Velocity="0"/>
  </Event>
  <Event>
    <Absolute>34241</Absolute>
    <NoteOn Channel="10" Note="38" Velocity="76"/>
  </Event>
  <Event>
    <Absolute>34253</Absolute>
    <NoteOn Channel="10" Note="38" Velocity="0"/>
  </Event>
  <Event>
    <Absolute>34270</Absolute>
    <NoteOn Channel="10" Note="38" Velocity="74"/>
  </Event>
  <Event>
    <Absolute>34286</Absolute>
    <NoteOn Channel="10" Note="38" Velocity="0"/>
  </Event>
  <Event>
    <Absolute>34301</Absolute>
    <NoteOn Channel="10" Note="38" Velocity="80"/>
  </Event>
  <Event>
    <Absolute>34311</Absolute>
    <NoteOn Channel="10" Note="38" Velocity="0"/>
  </Event>
  <Event>
    <Absolute>36733</Absolute>
    <NoteOn Channel="10" Note="57" Velocity="127"/>
  </Event>
  <Event>
    <Absolute>36753</Absolute>
    <NoteOn Channel="10" Note="57" Velocity="0"/>
  </Event>
  <Event>
    <Absolute>38773</Absolute>
    <NoteOn Channel="10" Note="59" Velocity="77"/>
  </Event>
  <Event>
    <Absolute>38789</Absolute>
    <NoteOn Channel="10" Note="59" Velocity="0"/>
  </Event>
  <Event>
    <Absolute>40576</Absolute>
    <NoteOn Channel="10" Note="38" Velocity="101"/>
  </Event>
  <Event>
    <Absolute>40591</Absolute>
    <NoteOn Channel="10" Note="38" Velocity="0"/>
  </Event>
  <Event>
    <Absolute>40603</Absolute>
    <NoteOn Channel="10" Note="38" Velocity="112"/>
  </Event>
  <Event>
    <Absolute>40618</Absolute>
    <NoteOn Channel="10" Note="38" Velocity="0"/>
  </Event>
  <Event>
    <Absolute>40632</Absolute>
    <NoteOn Channel="10" Note="38" Velocity="123"/>
  </Event>
  <Event>
    <Absolute>40647</Absolute>
    <NoteOn Channel="10" Note="38" Velocity="0"/>
  </Event>
  <Event>
    <Absolute>40662</Absolute>
    <NoteOn Channel="10" Note="38" Velocity="127"/>
  </Event>
  <Event>
    <Absolute>40677</Absolute>
    <NoteOn Channel="10" Note="38" Velocity="0"/>
  </Event>
  <Event>
    <Absolute>43093</Absolute>
    <NoteOn Channel="10" Note="57" Velocity="127"/>
  </Event>
  <Event>
    <Absolute>43093</Absolute>
    <NoteOn Channel="10" Note="59" Velocity="117"/>
  </Event>
  <Event>
    <Absolute>43176</Absolute>
    <NoteOn Channel="10" Note="59" Velocity="0"/>
  </Event>
  <Event>
    <Absolute>43257</Absolute>
    <NoteOn Channel="10" Note="38" Velocity="80"/>
  </Event>
  <Event>
    <Absolute>43260</Absolute>
    <NoteOn Channel="10" Note="38" Velocity="0"/>
  </Event>
  <Event>
    <Absolute>43263</Absolute>
    <NoteOn Channel="10" Note="38" Velocity="87"/>
  </Event>
  <Event>
    <Absolute>43266</Absolute>
    <NoteOn Channel="10" Note="38" Velocity="0"/>
  </Event>
  <Event>
    <Absolute>43271</Absolute>
    <NoteOn Channel="10" Note="38" Velocity="98"/>
  </Event>
  <Event>
    <Absolute>43274</Absolute>
    <NoteOn Channel="10" Note="38" Velocity="0"/>
  </Event>
  <Event>
    <Absolute>43278</Absolute>
    <NoteOn Channel="10" Note="38" Velocity="107"/>
  </Event>
  <Event>
    <Absolute>43281</Absolute>
    <NoteOn Channel="10" Note="38" Velocity="0"/>
  </Event>
  <Event>
    <Absolute>43283</Absolute>
    <NoteOn Channel="10" Note="38" Velocity="116"/>
  </Event>
  <Event>
    <Absolute>43286</Absolute>
    <NoteOn Channel="10" Note="38" Velocity="0"/>
  </Event>
  <Event>
    <Absolute>43289</Absolute>
    <NoteOn Channel="10" Note="38" Velocity="123"/>
  </Event>
  <Event>
    <Absolute>43292</Absolute>
    <NoteOn Channel="10" Note="38" Velocity="0"/>
  </Event>
  <Event>
    <Absolute>43296</Absolute>
    <NoteOn Channel="10" Note="38" Velocity="127"/>
  </Event>
  <Event>
    <Absolute>43298</Absolute>
    <NoteOn Channel="10" Note="57" Velocity="0"/>
  </Event>
  <Event>
    <Absolute>43299</Absolute>
    <NoteOn Channel="10" Note="38" Velocity="0"/>
  </Event>
  <Event>
    <Absolute>43301</Absolute>
    <NoteOn Channel="10" Note="38" Velocity="127"/>
  </Event>
  <Event>
    <Absolute>43304</Absolute>
    <NoteOn Channel="10" Note="38" Velocity="0"/>
  </Event>
  <Event>
    <Absolute>43309</Absolute>
    <NoteOn Channel="10" Note="38" Velocity="127"/>
  </Event>
  <Event>
    <Absolute>43312</Absolute>
    <NoteOn Channel="10" Note="38" Velocity="0"/>
  </Event>
  <Event>
    <Absolute>43315</Absolute>
    <NoteOn Channel="10" Note="38" Velocity="127"/>
  </Event>
  <Event>
    <Absolute>43318</Absolute>
    <NoteOn Channel="10" Note="38" Velocity="0"/>
  </Event>
  <Event>
    <Absolute>43321</Absolute>
    <NoteOn Channel="10" Note="38" Velocity="127"/>
  </Event>
  <Event>
    <Absolute>43324</Absolute>
    <NoteOn Channel="10" Note="38" Velocity="0"/>
  </Event>
  <Event>
    <Absolute>43326</Absolute>
    <NoteOn Channel="10" Note="38" Velocity="127"/>
  </Event>
  <Event>
    <Absolute>43329</Absolute>
    <NoteOn Channel="10" Note="38" Velocity="0"/>
  </Event>
  <Event>
    <Absolute>43333</Absolute>
    <NoteOn Channel="10" Note="59" Velocity="127"/>
  </Event>
  <Event>
    <Absolute>43333</Absolute>
    <NoteOn Channel="10" Note="38" Velocity="127"/>
  </Event>
  <Event>
    <Absolute>43335</Absolute>
    <NoteOn Channel="10" Note="57" Velocity="127"/>
  </Event>
  <Event>
    <Absolute>43336</Absolute>
    <NoteOn Channel="10" Note="38" Velocity="0"/>
  </Event>
  <Event>
    <Absolute>43416</Absolute>
    <NoteOn Channel="10" Note="59" Velocity="0"/>
  </Event>
  <Event>
    <Absolute>43418</Absolute>
    <NoteOn Channel="10" Note="57" Velocity="0"/>
  </Event>
  <Event>
    <Absolute>43572</Absolute>
    <NoteOn Channel="10" Note="38" Velocity="127"/>
  </Event>
  <Event>
    <Absolute>43585</Absolute>
    <NoteOn Channel="10" Note="38" Velocity="0"/>
  </Event>
  <Event>
    <Absolute>43650</Absolute>
    <NoteOn Channel="10" Note="38" Velocity="127"/>
  </Event>
  <Event>
    <Absolute>43658</Absolute>
    <NoteOn Channel="10" Note="38" Velocity="0"/>
  </Event>
  <Event>
    <Absolute>43665</Absolute>
    <NoteOn Channel="10" Note="38" Velocity="127"/>
  </Event>
  <Event>
    <Absolute>43673</Absolute>
    <NoteOn Channel="10" Note="38" Velocity="0"/>
  </Event>
  <Event>
    <Absolute>43676</Absolute>
    <NoteOn Channel="10" Note="38" Velocity="127"/>
  </Event>
  <Event>
    <Absolute>43684</Absolute>
    <NoteOn Channel="10" Note="38" Velocity="0"/>
  </Event>
  <Event>
    <Absolute>43695</Absolute>
    <NoteOn Channel="10" Note="38" Velocity="127"/>
  </Event>
  <Event>
    <Absolute>43702</Absolute>
    <NoteOn Channel="10" Note="38" Velocity="0"/>
  </Event>
  <Event>
    <Absolute>43888</Absolute>
    <NoteOn Channel="10" Note="38" Velocity="127"/>
  </Event>
  <Event>
    <Absolute>43896</Absolute>
    <NoteOn Channel="10" Note="38" Velocity="0"/>
  </Event>
  <Event>
    <Absolute>43905</Absolute>
    <NoteOn Channel="10" Note="38" Velocity="127"/>
  </Event>
  <Event>
    <Absolute>43914</Absolute>
    <NoteOn Channel="10" Note="38" Velocity="0"/>
  </Event>
  <Event>
    <Absolute>43915</Absolute>
    <NoteOn Channel="10" Note="38" Velocity="127"/>
  </Event>
  <Event>
    <Absolute>43923</Absolute>
    <NoteOn Channel="10" Note="38" Velocity="0"/>
  </Event>
  <Event>
    <Absolute>43930</Absolute>
    <NoteOn Channel="10" Note="38" Velocity="127"/>
  </Event>
  <Event>
    <Absolute>43950</Absolute>
    <NoteOn Channel="10" Note="38" Velocity="0"/>
  </Event>
  <Event>
    <Absolute>43970</Absolute>
    <NoteOn Channel="10" Note="38" Velocity="127"/>
  </Event>
  <Event>
    <Absolute>43985</Absolute>
    <NoteOn Channel="10" Note="38" Velocity="0"/>
  </Event>
  <Event>
    <Absolute>44010</Absolute>
    <NoteOn Channel="10" Note="38" Velocity="127"/>
  </Event>
  <Event>
    <Absolute>44030</Absolute>
    <NoteOn Channel="10" Note="38" Velocity="0"/>
  </Event>
  <Event>
    <Absolute>44050</Absolute>
    <NoteOn Channel="10" Note="38" Velocity="127"/>
  </Event>
  <Event>
    <Absolute>44063</Absolute>
    <NoteOn Channel="10" Note="38" Velocity="0"/>
  </Event>
  <Event>
    <Absolute>44170</Absolute>
    <NoteOn Channel="10" Note="38" Velocity="127"/>
  </Event>
  <Event>
    <Absolute>44212</Absolute>
    <NoteOn Channel="10" Note="38" Velocity="0"/>
  </Event>
  <Event>
    <Absolute>44290</Absolute>
    <NoteOn Channel="10" Note="38" Velocity="127"/>
  </Event>
  <Event>
    <Absolute>44301</Absolute>
    <NoteOn Channel="10" Note="38" Velocity="0"/>
  </Event>
  <Event>
    <Absolute>44330</Absolute>
    <NoteOn Channel="10" Note="38" Velocity="127"/>
  </Event>
  <Event>
    <Absolute>44347</Absolute>
    <NoteOn Channel="10" Note="38" Velocity="0"/>
  </Event>
  <Event>
    <Absolute>44370</Absolute>
    <NoteOn Channel="10" Note="38" Velocity="127"/>
  </Event>
  <Event>
    <Absolute>44391</Absolute>
    <NoteOn Channel="10" Note="38" Velocity="0"/>
  </Event>
  <Event>
    <Absolute>44410</Absolute>
    <NoteOn Channel="10" Note="38" Velocity="127"/>
  </Event>
  <Event>
    <Absolute>44436</Absolute>
    <NoteOn Channel="10" Note="38" Velocity="0"/>
  </Event>
  <Event>
    <Absolute>44450</Absolute>
    <NoteOn Channel="10" Note="38" Velocity="127"/>
  </Event>
  <Event>
    <Absolute>44460</Absolute>
    <NoteOn Channel="10" Note="38" Velocity="0"/>
  </Event>
  <Event>
    <Absolute>44490</Absolute>
    <NoteOn Channel="10" Note="38" Velocity="127"/>
  </Event>
  <Event>
    <Absolute>44507</Absolute>
    <NoteOn Channel="10" Note="38" Velocity="0"/>
  </Event>
  <Event>
    <Absolute>44530</Absolute>
    <NoteOn Channel="10" Note="38" Velocity="127"/>
  </Event>
  <Event>
    <Absolute>44551</Absolute>
    <NoteOn Channel="10" Note="38" Velocity="0"/>
  </Event>
  <Event>
    <Absolute>44608</Absolute>
    <NoteOn Channel="10" Note="38" Velocity="127"/>
  </Event>
  <Event>
    <Absolute>44616</Absolute>
    <NoteOn Channel="10" Note="38" Velocity="0"/>
  </Event>
  <Event>
    <Absolute>44623</Absolute>
    <NoteOn Channel="10" Note="38" Velocity="127"/>
  </Event>
  <Event>
    <Absolute>44632</Absolute>
    <NoteOn Channel="10" Note="38" Velocity="0"/>
  </Event>
  <Event>
    <Absolute>44638</Absolute>
    <NoteOn Channel="10" Note="38" Velocity="127"/>
  </Event>
  <Event>
    <Absolute>44646</Absolute>
    <NoteOn Channel="10" Note="38" Velocity="0"/>
  </Event>
  <Event>
    <Absolute>44650</Absolute>
    <NoteOn Channel="10" Note="38" Velocity="127"/>
  </Event>
  <Event>
    <Absolute>44711</Absolute>
    <NoteOn Channel="10" Note="38" Velocity="0"/>
  </Event>
  <Event>
    <Absolute>44770</Absolute>
    <NoteOn Channel="10" Note="38" Velocity="127"/>
  </Event>
  <Event>
    <Absolute>44785</Absolute>
    <NoteOn Channel="10" Note="38" Velocity="0"/>
  </Event>
  <Event>
    <Absolute>44810</Absolute>
    <NoteOn Channel="10" Note="38" Velocity="127"/>
  </Event>
  <Event>
    <Absolute>44828</Absolute>
    <NoteOn Channel="10" Note="38" Velocity="0"/>
  </Event>
  <Event>
    <Absolute>44850</Absolute>
    <NoteOn Channel="10" Note="38" Velocity="127"/>
  </Event>
  <Event>
    <Absolute>44872</Absolute>
    <NoteOn Channel="10" Note="38" Velocity="0"/>
  </Event>
  <Event>
    <Absolute>44890</Absolute>
    <NoteOn Channel="10" Note="38" Velocity="127"/>
  </Event>
  <Event>
    <Absolute>44913</Absolute>
    <NoteOn Channel="10" Note="38" Velocity="0"/>
  </Event>
  <Event>
    <Absolute>44930</Absolute>
    <NoteOn Channel="10" Note="38" Velocity="127"/>
  </Event>
  <Event>
    <Absolute>44945</Absolute>
    <NoteOn Channel="10" Note="38" Velocity="0"/>
  </Event>
  <Event>
    <Absolute>44970</Absolute>
    <NoteOn Channel="10" Note="38" Velocity="127"/>
  </Event>
  <Event>
    <Absolute>45002</Absolute>
    <NoteOn Channel="10" Note="38" Velocity="0"/>
  </Event>
  <Event>
    <Absolute>45010</Absolute>
    <NoteOn Channel="10" Note="38" Velocity="127"/>
  </Event>
  <Event>
    <Absolute>45013</Absolute>
    <NoteOn Channel="10" Note="57" Velocity="125"/>
  </Event>
  <Event>
    <Absolute>45030</Absolute>
    <NoteOn Channel="10" Note="38" Velocity="0"/>
  </Event>
  <Event>
    <Absolute>45095</Absolute>
    <NoteOn Channel="10" Note="57" Velocity="0"/>
  </Event>
  <Event>
    <Absolute>45130</Absolute>
    <NoteOn Channel="10" Note="38" Velocity="127"/>
  </Event>
  <Event>
    <Absolute>45140</Absolute>
    <NoteOn Channel="10" Note="38" Velocity="0"/>
  </Event>
  <Event>
    <Absolute>45170</Absolute>
    <NoteOn Channel="10" Note="38" Velocity="127"/>
  </Event>
  <Event>
    <Absolute>45181</Absolute>
    <NoteOn Channel="10" Note="38" Velocity="0"/>
  </Event>
  <Event>
    <Absolute>45210</Absolute>
    <NoteOn Channel="10" Note="38" Velocity="127"/>
  </Event>
  <Event>
    <Absolute>45223</Absolute>
    <NoteOn Channel="10" Note="38" Velocity="0"/>
  </Event>
  <Event>
    <Absolute>45250</Absolute>
    <NoteOn Channel="10" Note="38" Velocity="127"/>
  </Event>
  <Event>
    <Absolute>45303</Absolute>
    <NoteOn Channel="10" Note="38" Velocity="0"/>
  </Event>
  <Event>
    <Absolute>45303</Absolute>
    <EndOfTrack/>
  </Event>
</Track>
</MIDIFile>